<svg xmlns="http://www.w3.org/2000/svg" xmlns:xlink="http://www.w3.org/1999/xlink" width="130.345" height="145.735" viewBox="0 0 130.345 145.735">
  <defs>
    <clipPath id="clip-path">
      <path id="Path_20" data-name="Path 20" d="M888.845,402.873c0,3.708-.031,7.416-.031,11.124-.028,2.3-.793,3.088-3.061,3.088H805.037c-2.386,0-3.151-.793-3.151-3.178V308.883c0-2.386.765-3.119,3.151-3.151,2.884,0,5.736-.027,8.62.031.883.028,1.15-.177,1.15-1.118-.118-2.974-.09-5.944-.059-8.918,0-2,.851-2.853,2.825-2.853q33.988,0,68-.031a3.242,3.242,0,0,1,2.472,1c4.179,4.21,8.389,8.448,12.626,12.626a3.686,3.686,0,0,1,1.059,2.911c-.031,6.623.028,13.274-.059,19.893,0,1.267.439,1.562,1.558,1.648,13.89,1.295,26.249,12.83,28.486,26.516,2.884,17.507-6.592,32.751-23.628,37.93a1.168,1.168,0,0,0-.973,1.413c.059,2.385.059,4.767.059,7.18a1.408,1.408,0,0,0,.8,1.5,5.09,5.09,0,0,1,2.648,4.708q.177,11.477.322,22.953a5.159,5.159,0,0,1-5.207,5.356c-3.033.118-6.035.118-9.064.059a4.9,4.9,0,0,1-4.681-4.563c-.177-8-.294-15.977-.412-23.981a4.159,4.159,0,0,1,1.8-3.825c1.44-.855,1.5-1.974,1.236-3.3,0-2,0-3.975.027-5.976,0-.557-.235-.706-.765-.793-1.381-.267-2.766-.589-4.12-.973-.647-.176-1-.263-.969.62.059,2.382.059,4.767.086,7.149m-77.656-92.4c-.914-.027-1.856.031-2.766-.059-1.471-.177-1.942.267-1.942,1.856q.088,47.849.059,95.666c0,1.385-.647,3.327.263,4.061,1,.824,2.884.267,4.386.208a2.412,2.412,0,0,0,.439.059q35.666,0,71.363.027c.969,0,1.087-.353,1.059-1.177-.031-5.736-.031-11.5,0-17.244a1.71,1.71,0,0,0-1.059-1.648,32.545,32.545,0,0,1-15.126-18.892,1.478,1.478,0,0,0-1.707-1.236q-22.07.047-44.172.031a8.281,8.281,0,0,1-1.471-.059,2.312,2.312,0,0,1-1.883-2.562,2.207,2.207,0,0,1,2.237-2.087c.443-.031.883,0,1.326,0,14.271,0,28.572-.031,42.846.027,1.263,0,1.53-.353,1.44-1.53a24.519,24.519,0,0,1,.177-6.56c.236-1.208.09-1.62-1.354-1.62-14.388.059-28.749.031-43.14.031-2.413,0-3.59-.824-3.559-2.444.059-1.558,1.146-2.264,3.559-2.264h44.435c.765,0,1.412.145,1.825-.942a32.172,32.172,0,0,1,14.713-17.276,1.482,1.482,0,0,0,.883-1.471q-.088-4.237,0-8.475c.031-.883-.177-1.146-1.118-1.146-3.119.059-6.239.027-9.358.027a2.562,2.562,0,0,1-2.825-2c0-1.911.059-3.794,0-5.709-.059-1.824.267-3.676-.177-5.5-.412-.353-.942-.177-1.413-.177h-56.7c-.443,0-.883.027-1.326.059m77.66,21.862a33.6,33.6,0,0,1,7.5-1.5c.824-.031.679-.647.679-1.177,0-5.858-.031-11.712.027-17.539,0-1.032-.353-1.177-1.236-1.177-2.97.059-5.944.028-8.914.028-2.3,0-3.092-.793-3.092-3.029,0-2.915-.059-5.858.031-8.769.028-1.267-.235-1.62-1.589-1.62-16.04.059-32.076.031-48.115.031-4.473,0-8.973.027-13.446-.031-.914,0-1.177.235-1.15,1.15.059,1.793.118,3.618,0,5.415-.086,1.295.267,1.707,1.648,1.675,17.068-.059,34.136-.028,51.176-.059A4.044,4.044,0,0,1,875.4,307c4.033,4.089,8.122,8.149,12.214,12.21a3.79,3.79,0,0,1,1.236,2.974c-.059,3.355-.031,6.709-.031,10.182m10.448,59.412a28.119,28.119,0,1,1,.028,0m-2.97,29.87h.294c0,3.649.028,7.3-.031,10.974,0,.973.294,1.295,1.267,1.236q3.572-.129,7.149-.177c.883,0,1.177-.322,1.149-1.2-.149-7.212-.294-14.419-.353-21.631,0-.969-.208-1.381-1.295-1.354-2.327.09-4.681.118-7,.059-1-.027-1.209.353-1.209,1.267.059,3.618.031,7.208.031,10.829m5.972-21.1h-.145v-2.911c-.031-.53.2-1.326-.8-1.059-.706.2-2-.5-1.852,1.2.146,1.942.177,3.884.146,5.8-.028.969.353,1.059,1.177,1.087,1.149.031,1.707-.235,1.53-1.53a19.33,19.33,0,0,1-.028-2.617m-13.862-99.2c0,1.385.031,2.707,0,4,0,.561.149.8.738.765,1.323-.027,2.676,0,4.089,0-1.648-1.616-3.178-3.147-4.795-4.767m-8.506,17.688c-1.44-1.471-2.97-3.033-4.414-4.473,0,1.059.031,2.323,0,3.59,0,.589.09.91.8.883,1.295-.031,2.59,0,3.618,0" transform="translate(-801.886 -292.843)" fill="#fff"/>
    </clipPath>
    <clipPath id="clip-path-2">
      <rect id="Rectangle_45" data-name="Rectangle 45" width="54.312" height="5.618" fill="#fff"/>
    </clipPath>
    <clipPath id="clip-path-3">
      <path id="Path_21" data-name="Path 21" d="M832.774,319.186H856.9a2.419,2.419,0,0,1,2.382,1.322,2.1,2.1,0,0,1-.2,2.327,2.633,2.633,0,0,1-2.413,1.028c-4.179-.027-8.389,0-12.567,0H809.174a2.737,2.737,0,0,1-2.649-1.177,2.2,2.2,0,0,1-.031-2.354,2.352,2.352,0,0,1,2.327-1.177c5.944.031,11.889,0,17.833,0H832.8" transform="translate(-806.168 -319.153)" fill="#fff"/>
    </clipPath>
    <clipPath id="clip-path-4">
      <rect id="Rectangle_47" data-name="Rectangle 47" width="53.687" height="4.994" fill="#fff"/>
    </clipPath>
    <clipPath id="clip-path-5">
      <path id="Path_22" data-name="Path 22" d="M832.8,304.551h23.691c1.969,0,3.029.824,3.029,2.323,0,1.471-1.146,2.354-3.06,2.354H809.113c-1.883,0-3-.969-2.943-2.44a2.365,2.365,0,0,1,2.676-2.237h23.985" transform="translate(-806.168 -304.551)" fill="#fff"/>
    </clipPath>
    <clipPath id="clip-path-6">
      <rect id="Rectangle_49" data-name="Rectangle 49" width="54.312" height="4.994" fill="#fff"/>
    </clipPath>
    <clipPath id="clip-path-7">
      <path id="Path_23" data-name="Path 23" d="M832.841,315.508h23.985a2.443,2.443,0,0,1,2.413,1.267,2.175,2.175,0,0,1-.208,2.472,2.759,2.759,0,0,1-2.472.969c-8.3-.028-16.565,0-24.837,0h-22.8c-1.942,0-3.092-1.263-2.649-2.911a2.331,2.331,0,0,1,2.617-1.8c7.977.031,15.981,0,23.985,0" transform="translate(-806.175 -315.508)" fill="#fff"/>
    </clipPath>
    <clipPath id="clip-path-8">
      <rect id="Rectangle_51" data-name="Rectangle 51" width="39.953" height="4.994" fill="#fff"/>
    </clipPath>
    <clipPath id="clip-path-9">
      <path id="Path_24" data-name="Path 24" d="M825.957,300.891h16.8c1.973,0,3.033.851,3.033,2.354-.031,1.471-1.149,2.354-3.06,2.354H809.094c-1.942,0-3.088-1.032-2.911-2.621.145-1.322,1.087-2.087,2.676-2.087h17.1" transform="translate(-806.165 -300.891)" fill="#fff"/>
    </clipPath>
  </defs>
  <g id="Group_5647" data-name="Group 5647" transform="translate(-801.886 -292.843)">
    <g id="Group_51" data-name="Group 51" transform="translate(875.458 339.515)">
      <path id="Path_19" data-name="Path 19" d="M844.665,352.791a24.026,24.026,0,1,1,24.028-24.024A24.053,24.053,0,0,1,844.665,352.791Zm0-42.952a18.926,18.926,0,1,0,18.924,18.928A18.949,18.949,0,0,0,844.665,309.839Z" transform="translate(-820.637 -304.738)" fill="#fff"/>
    </g>
    <g id="Group_54" data-name="Group 54" transform="translate(801.886 292.843)">
      <g id="Group_53" data-name="Group 53" clip-path="url(#clip-path)">
        <g id="Group_52" data-name="Group 52" transform="translate(-14.742 -14.713)">
          <rect id="Rectangle_43" data-name="Rectangle 43" width="159.813" height="175.42" fill="#fff"/>
        </g>
      </g>
    </g>
    <g id="Group_60" data-name="Group 60" transform="translate(818.357 395.492)">
      <g id="Group_59" data-name="Group 59">
        <g id="Group_58" data-name="Group 58" clip-path="url(#clip-path-2)">
          <g id="Group_57" data-name="Group 57" transform="translate(0.33 0.58)">
            <g id="Group_56" data-name="Group 56" clip-path="url(#clip-path-3)">
              <g id="Group_55" data-name="Group 55" transform="translate(-31.543 -117.943)">
                <rect id="Rectangle_44" data-name="Rectangle 44" width="159.813" height="175.42" fill="#fff"/>
              </g>
            </g>
          </g>
        </g>
      </g>
    </g>
    <g id="Group_65" data-name="Group 65" transform="translate(818.357 338.684)">
      <g id="Group_64" data-name="Group 64" clip-path="url(#clip-path-4)">
        <g id="Group_63" data-name="Group 63" transform="translate(0.331 0.097)">
          <g id="Group_62" data-name="Group 62" clip-path="url(#clip-path-5)">
            <g id="Group_61" data-name="Group 61" transform="translate(-31.545 -60.651)">
              <rect id="Rectangle_46" data-name="Rectangle 46" width="159.813" height="175.42" fill="#fff"/>
            </g>
          </g>
        </g>
      </g>
    </g>
    <g id="Group_70" data-name="Group 70" transform="translate(818.357 381.758)">
      <g id="Group_69" data-name="Group 69" clip-path="url(#clip-path-6)">
        <g id="Group_68" data-name="Group 68" transform="translate(0.356 0.014)">
          <g id="Group_67" data-name="Group 67" clip-path="url(#clip-path-7)">
            <g id="Group_66" data-name="Group 66" transform="translate(-31.57 -103.642)">
              <rect id="Rectangle_48" data-name="Rectangle 48" width="159.813" height="175.42" fill="#fff"/>
            </g>
          </g>
        </g>
      </g>
    </g>
    <g id="Group_76" data-name="Group 76" transform="translate(818.357 324.325)">
      <g id="Group_75" data-name="Group 75">
        <g id="Group_74" data-name="Group 74" clip-path="url(#clip-path-8)">
          <g id="Group_73" data-name="Group 73" transform="translate(0.316 0.095)">
            <g id="Group_72" data-name="Group 72" clip-path="url(#clip-path-9)">
              <g id="Group_71" data-name="Group 71" transform="translate(-31.529 -46.291)">
                <rect id="Rectangle_50" data-name="Rectangle 50" width="159.813" height="175.42" fill="#fff"/>
              </g>
            </g>
          </g>
        </g>
      </g>
    </g>
  </g>
</svg>
