<svg xmlns="http://www.w3.org/2000/svg" width="130.208" height="130.208" viewBox="0 0 130.208 130.208">
  <g id="Group_5648" data-name="Group 5648" transform="translate(-376.809 -212.686)">
    <g id="Group_85" data-name="Group 85" transform="translate(422.992 249.862)">
      <g id="Group_79" data-name="Group 79">
        <g id="Group_78" data-name="Group 78">
          <path id="Path_26" data-name="Path 26" d="M418.43,286.556a9.451,9.451,0,0,1-4.679-1.221l-4.476-2.441a1.812,1.812,0,0,1-1.017-1.628l-1.017-11.6c0-3.459-1.424-5.29-3.255-7.731-.61-1.017-1.424-2.034-2.034-3.052a21.245,21.245,0,0,1-2.441-9.969,18.715,18.715,0,0,1,17.5-17.9,18.817,18.817,0,0,1,20.142,18.921,19.449,19.449,0,0,1-2.238,8.952,18.43,18.43,0,0,1-2.238,3.255c-1.628,2.238-3.255,4.272-3.255,7.528v.2l-.814,11.6a2.075,2.075,0,0,1-1.017,1.628l-4.476,2.441A12.07,12.07,0,0,1,418.43,286.556Zm-6.307-6.51,3.459,1.831a5.7,5.7,0,0,0,5.7,0l3.459-1.831,1.017-10.376c0-4.476,2.034-7.324,3.866-9.766a22.353,22.353,0,0,0,1.831-2.848,15.058,15.058,0,0,0-2.848-18.107,14.094,14.094,0,0,0-11.19-3.866,15.006,15.006,0,0,0-12,22.176,20.643,20.643,0,0,0,1.831,2.645c1.831,2.441,3.866,5.29,3.866,9.766Z" transform="translate(-399.509 -230.959)" fill="#fff"/>
        </g>
      </g>
      <g id="Group_84" data-name="Group 84" transform="translate(6.51 39.322)">
        <g id="Group_81" data-name="Group 81" transform="translate(0 6.307)">
          <g id="Group_80" data-name="Group 80">
            <path id="Path_27" data-name="Path 27" d="M425.5,257.455H404.744a2.034,2.034,0,0,1,0-4.069h20.548a2.039,2.039,0,0,1,2.034,2.034A2.007,2.007,0,0,1,425.5,257.455Z" transform="translate(-402.709 -253.386)" fill="#fff"/>
          </g>
        </g>
        <g id="Group_83" data-name="Group 83">
          <g id="Group_82" data-name="Group 82">
            <path id="Path_28" data-name="Path 28" d="M425.5,254.355H404.744a2.039,2.039,0,0,1-2.034-2.034,1.922,1.922,0,0,1,2.034-2.035h20.548a2.039,2.039,0,0,1,2.034,2.035A1.879,1.879,0,0,1,425.5,254.355Z" transform="translate(-402.709 -250.286)" fill="#fff"/>
          </g>
        </g>
      </g>
    </g>
    <g id="Group_90" data-name="Group 90" transform="translate(376.809 212.686)">
      <g id="Group_87" data-name="Group 87" transform="translate(30.721 30.721)">
        <g id="Group_86" data-name="Group 86">
          <path id="Path_29" data-name="Path 29" d="M426.292,296.552a34.383,34.383,0,1,1,34.383-34.383A34.471,34.471,0,0,1,426.292,296.552Zm0-64.9a30.518,30.518,0,1,0,30.518,30.518A30.477,30.477,0,0,0,426.292,231.652Z" transform="translate(-391.909 -227.786)" fill="#fff"/>
        </g>
      </g>
      <g id="Group_89" data-name="Group 89">
        <g id="Group_88" data-name="Group 88">
          <path id="Path_30" data-name="Path 30" d="M451.882,342.894H431.741l-1.831-18.717A51.35,51.35,0,0,1,417.5,319.09l-14.445,11.8-14.242-14.242,11.8-14.445a46.944,46.944,0,0,1-5.086-12.41l-18.717-2.034V267.618l18.717-1.831a51.345,51.345,0,0,1,5.086-12.41l-11.8-14.445,14.242-14.242,14.445,11.8A46.948,46.948,0,0,1,429.91,231.4l2.034-18.717h20.142l1.831,18.717a51.346,51.346,0,0,1,12.41,5.086l14.445-11.8,14.242,14.242-11.8,14.445a46.948,46.948,0,0,1,5.086,12.41l18.717,1.831v20.142L488.3,289.59A51.347,51.347,0,0,1,483.213,302l11.8,14.445-14.242,14.241-14.445-11.6a46.946,46.946,0,0,1-12.41,5.086ZM435.4,339.029h13.021l1.831-17.9,1.424-.407a43.272,43.272,0,0,0,13.835-5.7l1.221-.814L480.772,325.6l9.155-9.155-11.393-14.038.814-1.221a43.274,43.274,0,0,0,5.7-13.835l.407-1.424,17.9-1.831V271.076l-17.9-1.831-.407-1.424a43.273,43.273,0,0,0-5.7-13.835l-.814-1.221,11.393-14.038-9.359-8.748L466.53,241.372l-1.221-.814a43.272,43.272,0,0,0-13.835-5.7l-1.424-.407-1.831-17.9H435.2l-1.831,17.9-1.424.407a43.272,43.272,0,0,0-13.835,5.7l-1.221.814-13.631-11.393-9.155,9.155L405.5,253.173l-.814,1.221a43.271,43.271,0,0,0-5.7,13.835l-.407,1.424-17.9,1.831V284.5l17.9,1.831.407,1.424a43.271,43.271,0,0,0,5.7,13.835l.814,1.221L394.1,316.446l9.155,9.155L417.3,314.208l1.221.814a43.272,43.272,0,0,0,13.835,5.7l1.424.407Z" transform="translate(-376.809 -212.686)" fill="#fff"/>
        </g>
      </g>
    </g>
  </g>
</svg>
