<svg xmlns="http://www.w3.org/2000/svg" width="130.952" height="136.66" viewBox="0 0 130.952 136.66">
  <path id="Path_15465" data-name="Path 15465" d="M646.946,348.866a24.059,24.059,0,1,0,24.061,24.058A24.084,24.084,0,0,0,646.946,348.866Zm0,44.243a20.184,20.184,0,1,1,20.182-20.185A20.208,20.208,0,0,1,646.946,393.109Zm42.159-27.167-8.805-3.411a35.2,35.2,0,0,0-2.417-5.839l3.817-8.636a1.935,1.935,0,0,0-.4-2.151l-7.332-7.332a1.936,1.936,0,0,0-2.151-.4l-8.633,3.82a35.439,35.439,0,0,0-5.839-2.426l-3.413-8.8a1.937,1.937,0,0,0-1.806-1.236h-10.36a1.939,1.939,0,0,0-1.806,1.239l-3.4,8.805a34.478,34.478,0,0,0-5.839,2.417l-8.642-3.817a1.931,1.931,0,0,0-2.151.4l-7.327,7.332a1.934,1.934,0,0,0-.4,2.151l3.817,8.636a34.968,34.968,0,0,0-2.426,5.839l-8.8,3.411a1.939,1.939,0,0,0-1.236,1.806v10.36a1.933,1.933,0,0,0,1.236,1.806l8.8,3.4a34.4,34.4,0,0,0,2.426,5.842l-3.817,8.639a1.933,1.933,0,0,0,.4,2.151l7.327,7.327a1.935,1.935,0,0,0,2.151.4l8.642-3.817a34.865,34.865,0,0,0,5.842,2.426l3.4,8.8a1.932,1.932,0,0,0,1.806,1.236h10.36a1.936,1.936,0,0,0,1.806-1.236l3.413-8.8a34.625,34.625,0,0,0,5.842-2.426l8.633,3.817a1.936,1.936,0,0,0,2.151-.4l7.332-7.327a1.935,1.935,0,0,0,.4-2.151l-3.817-8.642a35.211,35.211,0,0,0,2.417-5.839l8.805-3.4a1.931,1.931,0,0,0,1.239-1.806v-10.36a1.939,1.939,0,0,0-1.236-1.806Zm-2.636,10.839-8.455,3.27a1.92,1.92,0,0,0-1.163,1.283,31.047,31.047,0,0,1-2.814,6.792,1.93,1.93,0,0,0-.082,1.73l3.665,8.3-5.453,5.447-8.291-3.665a1.928,1.928,0,0,0-1.733.085,30.877,30.877,0,0,1-6.786,2.82A1.926,1.926,0,0,0,654.074,404l-3.273,8.449h-7.706l-3.267-8.446a1.924,1.924,0,0,0-1.286-1.163,30.757,30.757,0,0,1-6.786-2.82,1.927,1.927,0,0,0-1.733-.085l-8.3,3.665-5.448-5.448,3.668-8.3a1.937,1.937,0,0,0-.088-1.733,30.654,30.654,0,0,1-2.815-6.786,1.944,1.944,0,0,0-1.166-1.283l-8.446-3.27v-7.706l8.449-3.273a1.95,1.95,0,0,0,1.166-1.283,30.792,30.792,0,0,1,2.817-6.789,1.936,1.936,0,0,0,.082-1.733l-3.665-8.291,5.447-5.453,8.3,3.668a1.936,1.936,0,0,0,1.733-.088,30.851,30.851,0,0,1,6.786-2.808,1.953,1.953,0,0,0,1.286-1.169l3.267-8.455H650.8l3.273,8.449a1.935,1.935,0,0,0,1.28,1.163,31.548,31.548,0,0,1,6.795,2.82,1.939,1.939,0,0,0,1.73.085l8.291-3.668,5.456,5.456L673.962,356a1.938,1.938,0,0,0,.082,1.733,31.119,31.119,0,0,1,2.814,6.789,1.933,1.933,0,0,0,1.163,1.283l8.454,3.273v7.706Zm-97.479-72.065a14.669,14.669,0,1,0,14.674,14.665,14.681,14.681,0,0,0-14.674-14.665Zm0,25.463a10.794,10.794,0,1,1,10.8-10.8A10.807,10.807,0,0,1,588.991,330.18Zm18.488,12.567,4.886-4.886a1.934,1.934,0,0,0,.4-2.154l-2.423-5.471a24.2,24.2,0,0,0,1.423-3.428l5.585-2.163a1.933,1.933,0,0,0,1.236-1.806v-6.906a1.938,1.938,0,0,0-1.236-1.806l-5.585-2.163a23.346,23.346,0,0,0-1.423-3.431l2.423-5.477a1.934,1.934,0,0,0-.4-2.151l-4.886-4.886a1.934,1.934,0,0,0-2.151-.4l-5.48,2.417a23.168,23.168,0,0,0-3.431-1.417l-2.163-5.588a1.936,1.936,0,0,0-1.806-1.239h-6.906a1.936,1.936,0,0,0-1.806,1.239l-2.163,5.588a23.323,23.323,0,0,0-3.428,1.417l-5.482-2.417a1.935,1.935,0,0,0-2.151.4l-4.886,4.886a1.939,1.939,0,0,0-.4,2.154l2.426,5.48a23.881,23.881,0,0,0-1.423,3.431l-5.585,2.16a1.94,1.94,0,0,0-1.236,1.809v6.906a1.937,1.937,0,0,0,1.236,1.806l5.585,2.163a24.256,24.256,0,0,0,1.415,3.422l-2.42,5.477a1.934,1.934,0,0,0,.4,2.151l4.886,4.886a1.935,1.935,0,0,0,2.151.4l5.483-2.417a24.1,24.1,0,0,0,3.428,1.423l2.163,5.585a1.933,1.933,0,0,0,1.806,1.236h6.906a1.944,1.944,0,0,0,1.809-1.236l2.16-5.585a23.93,23.93,0,0,0,3.431-1.423l5.48,2.417a1.936,1.936,0,0,0,2.151-.4Zm-8.665-5.857a20.1,20.1,0,0,1-4.392,1.824,1.947,1.947,0,0,0-1.28,1.163l-2.022,5.222h-4.255l-2.022-5.222a1.935,1.935,0,0,0-1.28-1.163,20.153,20.153,0,0,1-4.392-1.824,1.936,1.936,0,0,0-1.733-.082L572.3,339.07l-3.01-3.01,2.265-5.123a1.934,1.934,0,0,0-.082-1.727,20.554,20.554,0,0,1-1.821-4.4,1.941,1.941,0,0,0-1.163-1.28l-5.222-2.022v-4.255l5.222-2.022a1.921,1.921,0,0,0,1.163-1.28,20.13,20.13,0,0,1,1.824-4.39,1.952,1.952,0,0,0,.085-1.736l-2.274-5.129,3.01-3.01,5.129,2.265a1.945,1.945,0,0,0,1.733-.085,19.728,19.728,0,0,1,4.381-1.815,1.934,1.934,0,0,0,1.289-1.166l2.022-5.231h4.252l2.022,5.231a1.939,1.939,0,0,0,1.289,1.166,19.778,19.778,0,0,1,4.387,1.815,1.939,1.939,0,0,0,1.73.085l5.129-2.265,3.01,3.01-2.271,5.129a1.94,1.94,0,0,0,.085,1.739,19.763,19.763,0,0,1,1.821,4.384,1.939,1.939,0,0,0,1.166,1.28l5.222,2.022v4.255l-5.222,2.022a1.945,1.945,0,0,0-1.166,1.28,20.077,20.077,0,0,1-1.824,4.392,1.952,1.952,0,0,0-.082,1.736l2.268,5.12-3.007,3.007-5.132-2.262a1.93,1.93,0,0,0-1.73.082Zm-19.589,18.151a1.935,1.935,0,0,0-2.738,0l-16.515,16.515a1.936,1.936,0,0,0,1.368,3.305h6.321v39.523a1.934,1.934,0,0,0,1.938,1.935h16.523a1.933,1.933,0,0,0,1.935-1.935V374.861h6.321a1.936,1.936,0,0,0,1.371-3.305Zm6.9,15.948a1.934,1.934,0,0,0-1.937,1.935v39.523H571.535V372.923a1.933,1.933,0,0,0-1.935-1.935h-3.583l11.836-11.839L589.7,370.989Zm44.3-62.669h39.523v6.321a1.936,1.936,0,0,0,3.305,1.368l16.523-16.515a1.937,1.937,0,0,0,0-2.738l-16.523-16.524a1.936,1.936,0,0,0-3.305,1.371v6.318H630.426a1.938,1.938,0,0,0-1.938,1.938v16.524a1.938,1.938,0,0,0,1.938,1.938Zm1.937-16.523h39.524a1.936,1.936,0,0,0,1.934-1.938v-3.583l11.845,11.848-11.845,11.839v-3.583a1.936,1.936,0,0,0-1.934-1.937H632.363Z" transform="translate(-559.402 -279.665)" fill="#fff"/>
</svg>
