<svg xmlns="http://www.w3.org/2000/svg" xmlns:xlink="http://www.w3.org/1999/xlink" width="91.142" height="92.55" viewBox="0 0 91.142 92.55">
  <defs>
    <clipPath id="clip-path">
      <path id="Path_262" data-name="Path 262" d="M0,57.64H91.142V-34.91H0Z" transform="translate(0 34.91)" fill="#1e2859"/>
    </clipPath>
  </defs>
  <g id="Group_6243" data-name="Group 6243" transform="translate(-338.929 -894)">
    <g id="Group_385" data-name="Group 385" transform="translate(338.929 928.91)">
      <g id="Group_362" data-name="Group 362" transform="translate(0 -34.91)" clip-path="url(#clip-path)">
        <g id="Group_323" data-name="Group 323" transform="translate(70.392 26.395)">
          <path id="Path_223" data-name="Path 223" d="M8.693,1.269,1.753,9.042l-.011.011a1.29,1.29,0,0,1-1.779.207L-4.859,5.588a1.208,1.208,0,0,1-.064-1.747A1.291,1.291,0,0,1-3.3,3.655L.578,6.606l6.2-6.951A1.287,1.287,0,0,1,8.556-.47a1.2,1.2,0,0,1,.138,1.739" transform="translate(5.265 0.769)" fill="#1e2859"/>
        </g>
        <g id="Group_324" data-name="Group 324" transform="translate(70.392 26.395)">
          <path id="Path_224" data-name="Path 224" d="M8.693,1.269,1.753,9.042l-.011.011a1.29,1.29,0,0,1-1.779.207L-4.859,5.588a1.208,1.208,0,0,1-.064-1.747A1.291,1.291,0,0,1-3.3,3.655L.578,6.606l6.2-6.951A1.287,1.287,0,0,1,8.556-.47a1.2,1.2,0,0,1,.138,1.739" transform="translate(5.265 0.769)" fill="#1e2859"/>
        </g>
        <g id="Group_325" data-name="Group 325" transform="translate(49.352 65.463)">
          <path id="Path_225" data-name="Path 225" d="M4.884,0H-1.685A1.256,1.256,0,0,0-2.958,1.233V7.609A1.259,1.259,0,0,0-1.685,8.844H4.884A1.259,1.259,0,0,0,6.156,7.609V1.233A1.256,1.256,0,0,0,4.884,0M3.622,6.376H-.416V2.468H3.622Z" transform="translate(2.958)" fill="#1e2859"/>
        </g>
        <g id="Group_326" data-name="Group 326" transform="translate(49.352 77.402)">
          <path id="Path_226" data-name="Path 226" d="M4.884,0H-1.685A1.251,1.251,0,0,0-2.958,1.233V7.609A1.259,1.259,0,0,0-1.685,8.844H4.884A1.259,1.259,0,0,0,6.156,7.609V1.233A1.251,1.251,0,0,0,4.884,0M3.622,6.376H-.416V2.458H3.622Z" transform="translate(2.958)" fill="#1e2859"/>
        </g>
        <g id="Group_327" data-name="Group 327" transform="translate(63.02 65.463)">
          <path id="Path_227" data-name="Path 227" d="M4.884,0H-1.685A1.256,1.256,0,0,0-2.958,1.233V7.609A1.259,1.259,0,0,0-1.685,8.844H4.884A1.252,1.252,0,0,0,6.156,7.609V1.233A1.25,1.25,0,0,0,4.884,0M3.622,6.376H-.416V2.468H3.622Z" transform="translate(2.958)" fill="#1e2859"/>
        </g>
        <g id="Group_328" data-name="Group 328" transform="translate(63.02 77.402)">
          <path id="Path_228" data-name="Path 228" d="M4.884,0H-1.685A1.251,1.251,0,0,0-2.958,1.233V7.609A1.259,1.259,0,0,0-1.685,8.844H4.884A1.252,1.252,0,0,0,6.156,7.609V1.233A1.245,1.245,0,0,0,4.884,0M3.622,6.376H-.416V2.458H3.622Z" transform="translate(2.958)" fill="#1e2859"/>
        </g>
        <g id="Group_329" data-name="Group 329" transform="translate(76.699 65.463)">
          <path id="Path_229" data-name="Path 229" d="M4.884,0H-1.685A1.256,1.256,0,0,0-2.958,1.233V7.609A1.259,1.259,0,0,0-1.685,8.844H4.884A1.259,1.259,0,0,0,6.156,7.609V1.233A1.256,1.256,0,0,0,4.884,0M3.622,6.376H-.413V2.468l4.035-.011Z" transform="translate(2.958)" fill="#1e2859"/>
        </g>
        <g id="Group_330" data-name="Group 330" transform="translate(76.699 77.392)">
          <path id="Path_230" data-name="Path 230" d="M4.884,0H-1.685A1.256,1.256,0,0,0-2.958,1.233V7.609A1.252,1.252,0,0,0-1.685,8.844H4.884A1.252,1.252,0,0,0,6.156,7.609V1.233A1.256,1.256,0,0,0,4.884,0M3.622,6.386H-.416V2.468H3.622Z" transform="translate(2.958)" fill="#1e2859"/>
        </g>
        <g id="Group_331" data-name="Group 331" transform="translate(49.352 65.463)">
          <path id="Path_231" data-name="Path 231" d="M4.884,0H-1.685A1.256,1.256,0,0,0-2.958,1.233V7.609A1.259,1.259,0,0,0-1.685,8.844H4.884A1.259,1.259,0,0,0,6.156,7.609V1.233A1.256,1.256,0,0,0,4.884,0M3.622,6.376H-.416V2.468H3.622Z" transform="translate(2.958)" fill="#1e2859"/>
        </g>
        <g id="Group_332" data-name="Group 332" transform="translate(49.352 77.402)">
          <path id="Path_232" data-name="Path 232" d="M4.884,0H-1.685A1.251,1.251,0,0,0-2.958,1.233V7.609A1.259,1.259,0,0,0-1.685,8.844H4.884A1.259,1.259,0,0,0,6.156,7.609V1.233A1.251,1.251,0,0,0,4.884,0M3.622,6.376H-.416V2.458H3.622Z" transform="translate(2.958)" fill="#1e2859"/>
        </g>
        <g id="Group_333" data-name="Group 333" transform="translate(63.02 65.463)">
          <path id="Path_233" data-name="Path 233" d="M4.884,0H-1.685A1.256,1.256,0,0,0-2.958,1.233V7.609A1.259,1.259,0,0,0-1.685,8.844H4.884A1.252,1.252,0,0,0,6.156,7.609V1.233A1.25,1.25,0,0,0,4.884,0M3.622,6.376H-.416V2.468H3.622Z" transform="translate(2.958)" fill="#1e2859"/>
        </g>
        <g id="Group_334" data-name="Group 334" transform="translate(63.02 77.402)">
          <path id="Path_234" data-name="Path 234" d="M4.884,0H-1.685A1.251,1.251,0,0,0-2.958,1.233V7.609A1.259,1.259,0,0,0-1.685,8.844H4.884A1.252,1.252,0,0,0,6.156,7.609V1.233A1.245,1.245,0,0,0,4.884,0M3.622,6.376H-.416V2.458H3.622Z" transform="translate(2.958)" fill="#1e2859"/>
        </g>
        <g id="Group_335" data-name="Group 335" transform="translate(76.699 65.463)">
          <path id="Path_235" data-name="Path 235" d="M4.884,0H-1.685A1.256,1.256,0,0,0-2.958,1.233V7.609A1.259,1.259,0,0,0-1.685,8.844H4.884A1.259,1.259,0,0,0,6.156,7.609V1.233A1.256,1.256,0,0,0,4.884,0M3.622,6.376H-.413V2.468l4.035-.011Z" transform="translate(2.958)" fill="#1e2859"/>
        </g>
        <g id="Group_336" data-name="Group 336" transform="translate(76.699 77.392)">
          <path id="Path_236" data-name="Path 236" d="M4.884,0H-1.685A1.256,1.256,0,0,0-2.958,1.233V7.609A1.252,1.252,0,0,0-1.685,8.844H4.884A1.252,1.252,0,0,0,6.156,7.609V1.233A1.256,1.256,0,0,0,4.884,0M3.622,6.386H-.416V2.468H3.622Z" transform="translate(2.958)" fill="#1e2859"/>
        </g>
        <g id="Group_337" data-name="Group 337" transform="translate(8.031 69.812)">
          <path id="Path_237" data-name="Path 237" d="M2.323,1.128A1.842,1.842,0,0,1,.459,2.938,1.843,1.843,0,0,1-1.407,1.128,1.836,1.836,0,0,1,.459-.683v.011a1.833,1.833,0,0,1,1.864,1.8" transform="translate(1.407 0.683)" fill="#1e2859"/>
        </g>
        <g id="Group_338" data-name="Group 338" transform="translate(8.031 55.179)">
          <path id="Path_238" data-name="Path 238" d="M2.323,1.128A1.835,1.835,0,0,1,.459,2.938,1.843,1.843,0,0,1-1.407,1.128,1.843,1.843,0,0,1,.459-.683,1.835,1.835,0,0,1,2.323,1.128" transform="translate(1.407 0.683)" fill="#1e2859"/>
        </g>
        <g id="Group_339" data-name="Group 339" transform="translate(8.031 40.556)">
          <path id="Path_239" data-name="Path 239" d="M2.323,1.128A1.842,1.842,0,0,1,.459,2.938,1.843,1.843,0,0,1-1.407,1.128,1.843,1.843,0,0,1,.459-.683,1.835,1.835,0,0,1,2.323,1.128" transform="translate(1.407 0.683)" fill="#1e2859"/>
        </g>
        <g id="Group_340" data-name="Group 340" transform="translate(8.031 25.934)">
          <path id="Path_240" data-name="Path 240" d="M2.323,1.128A1.842,1.842,0,0,1,.459,2.938,1.851,1.851,0,0,1-1.407,1.117,1.827,1.827,0,0,1,.459-.683,1.828,1.828,0,0,1,2.323,1.128" transform="translate(1.407 0.683)" fill="#1e2859"/>
        </g>
        <g id="Group_341" data-name="Group 341" transform="translate(16.877 67.51)">
          <path id="Path_241" data-name="Path 241" d="M8.744,0H-4.023A1.252,1.252,0,0,0-5.3,1.235V6.994A1.256,1.256,0,0,0-4.023,8.226H8.744a1.256,1.256,0,0,0,1.273-1.233V1.235A1.257,1.257,0,0,0,8.744,0M7.472,5.769H-2.754v-3.3H7.472Z" transform="translate(5.296)" fill="#1e2859"/>
        </g>
        <g id="Group_342" data-name="Group 342" transform="translate(16.244 52.887)">
          <path id="Path_242" data-name="Path 242" d="M12.913,0H-6.551a1.242,1.242,0,0,0-1.27,1.233V6.994a1.247,1.247,0,0,0,1.27,1.233H12.913a1.256,1.256,0,0,0,1.273-1.233V1.233A1.251,1.251,0,0,0,12.913,0M11.641,5.769H-5.292v-3.3H11.641Z" transform="translate(7.821)" fill="#1e2859"/>
        </g>
        <g id="Group_343" data-name="Group 343" transform="translate(16.243 38.254)">
          <path id="Path_243" data-name="Path 243" d="M17.487,0-9.318.011a1.243,1.243,0,0,0-1.273,1.233V7A1.25,1.25,0,0,0-9.318,8.237H17.487A1.256,1.256,0,0,0,18.759,7V1.233A1.256,1.256,0,0,0,17.487,0M16.214,5.769H-8.059v-3.3H16.214Z" transform="translate(10.591)" fill="#1e2859"/>
        </g>
        <g id="Group_344" data-name="Group 344" transform="translate(16.242 23.631)">
          <path id="Path_244" data-name="Path 244" d="M28.012,0H-15.693a1.25,1.25,0,0,0-1.273,1.233V7a1.251,1.251,0,0,0,1.273,1.233H28.012A1.258,1.258,0,0,0,29.285,7V1.233A1.256,1.256,0,0,0,28.012,0M26.74,5.769H-14.434v-3.3H26.74Z" transform="translate(16.966)" fill="#1e2859"/>
        </g>
        <g id="Group_345" data-name="Group 345" transform="translate(-0.001 0)">
          <path id="Path_245" data-name="Path 245" d="M35.621,40.77H29.051A1.256,1.256,0,0,0,27.779,42v6.376a1.259,1.259,0,0,0,1.273,1.235h6.569a1.259,1.259,0,0,0,1.273-1.235V42a1.256,1.256,0,0,0-1.273-1.233m-1.262,6.376H30.321V43.239h4.038Zm1.262,5.562H29.051a1.252,1.252,0,0,0-1.273,1.235V60.32a1.256,1.256,0,0,0,1.273,1.233h6.569a1.256,1.256,0,0,0,1.273-1.233V53.944a1.252,1.252,0,0,0-1.273-1.235m-1.262,6.376H30.321V55.166h4.038ZM49.29,40.77H42.72A1.256,1.256,0,0,0,41.448,42v6.376a1.259,1.259,0,0,0,1.273,1.235H49.29a1.251,1.251,0,0,0,1.27-1.235V42a1.249,1.249,0,0,0-1.27-1.233m-1.262,6.376H43.99V43.239h4.038Zm1.262,5.562H42.72a1.252,1.252,0,0,0-1.273,1.235V60.32a1.256,1.256,0,0,0,1.273,1.233H49.29a1.249,1.249,0,0,0,1.27-1.233V53.944a1.244,1.244,0,0,0-1.27-1.235m-1.262,6.376H43.99V55.166h4.038ZM62.967,40.77H56.4A1.256,1.256,0,0,0,55.127,42v6.376a1.258,1.258,0,0,0,1.27,1.235h6.569a1.259,1.259,0,0,0,1.273-1.235V42a1.256,1.256,0,0,0-1.273-1.233m-1.259,6.376H57.67V43.239l4.038-.011ZM62.967,52.7H56.4a1.258,1.258,0,0,0-1.27,1.235v6.376a1.249,1.249,0,0,0,1.27,1.233h6.569a1.25,1.25,0,0,0,1.273-1.233V53.933A1.259,1.259,0,0,0,62.967,52.7m-1.259,6.386H57.67V55.166h4.038ZM62.967,52.7H56.4a1.258,1.258,0,0,0-1.27,1.235v6.376a1.249,1.249,0,0,0,1.27,1.233h6.569a1.25,1.25,0,0,0,1.273-1.233V53.933A1.259,1.259,0,0,0,62.967,52.7m-1.259,6.386H57.67V55.166h4.038ZM62.967,40.77H56.4A1.256,1.256,0,0,0,55.127,42v6.376a1.258,1.258,0,0,0,1.27,1.235h6.569a1.259,1.259,0,0,0,1.273-1.235V42a1.256,1.256,0,0,0-1.273-1.233m-1.259,6.376H57.67V43.239l4.038-.011ZM49.29,52.708H42.72a1.252,1.252,0,0,0-1.273,1.235V60.32a1.256,1.256,0,0,0,1.273,1.233H49.29a1.249,1.249,0,0,0,1.27-1.233V53.944a1.244,1.244,0,0,0-1.27-1.235m-1.262,6.376H43.99V55.166h4.038ZM49.29,40.77H42.72A1.256,1.256,0,0,0,41.448,42v6.376a1.259,1.259,0,0,0,1.273,1.235H49.29a1.251,1.251,0,0,0,1.27-1.235V42a1.249,1.249,0,0,0-1.27-1.233m-1.262,6.376H43.99V43.239h4.038ZM35.621,52.708H29.051a1.252,1.252,0,0,0-1.273,1.235V60.32a1.256,1.256,0,0,0,1.273,1.233h6.569a1.256,1.256,0,0,0,1.273-1.233V53.944a1.252,1.252,0,0,0-1.273-1.235m-1.262,6.376H30.321V55.166h4.038ZM35.621,40.77H29.051A1.256,1.256,0,0,0,27.779,42v6.376a1.259,1.259,0,0,0,1.273,1.235h6.569a1.259,1.259,0,0,0,1.273-1.235V42a1.256,1.256,0,0,0-1.273-1.233m-1.262,6.376H30.321V43.239h4.038Zm1.262-6.376H29.051A1.256,1.256,0,0,0,27.779,42v6.376a1.259,1.259,0,0,0,1.273,1.235h6.569a1.259,1.259,0,0,0,1.273-1.235V42a1.256,1.256,0,0,0-1.273-1.233m-1.262,6.376H30.321V43.239h4.038Zm1.262,5.562H29.051a1.252,1.252,0,0,0-1.273,1.235V60.32a1.256,1.256,0,0,0,1.273,1.233h6.569a1.256,1.256,0,0,0,1.273-1.233V53.944a1.252,1.252,0,0,0-1.273-1.235m-1.262,6.376H30.321V55.166h4.038ZM49.29,40.77H42.72A1.256,1.256,0,0,0,41.448,42v6.376a1.259,1.259,0,0,0,1.273,1.235H49.29a1.251,1.251,0,0,0,1.27-1.235V42a1.249,1.249,0,0,0-1.27-1.233m-1.262,6.376H43.99V43.239h4.038Zm1.262,5.562H42.72a1.252,1.252,0,0,0-1.273,1.235V60.32a1.256,1.256,0,0,0,1.273,1.233H49.29a1.249,1.249,0,0,0,1.27-1.233V53.944a1.244,1.244,0,0,0-1.27-1.235m-1.262,6.376H43.99V55.166h4.038ZM62.967,40.77H56.4A1.256,1.256,0,0,0,55.127,42v6.376a1.258,1.258,0,0,0,1.27,1.235h6.569a1.259,1.259,0,0,0,1.273-1.235V42a1.256,1.256,0,0,0-1.273-1.233m-1.259,6.376H57.67V43.239l4.038-.011ZM62.967,52.7H56.4a1.258,1.258,0,0,0-1.27,1.235v6.376a1.249,1.249,0,0,0,1.27,1.233h6.569a1.25,1.25,0,0,0,1.273-1.233V53.933A1.259,1.259,0,0,0,62.967,52.7m-1.259,6.386H57.67V55.166h4.038ZM62.967,52.7H56.4a1.258,1.258,0,0,0-1.27,1.235v6.376a1.249,1.249,0,0,0,1.27,1.233h6.569a1.25,1.25,0,0,0,1.273-1.233V53.933A1.259,1.259,0,0,0,62.967,52.7m-1.259,6.386H57.67V55.166h4.038ZM62.967,40.77H56.4A1.256,1.256,0,0,0,55.127,42v6.376a1.258,1.258,0,0,0,1.27,1.235h6.569a1.259,1.259,0,0,0,1.273-1.235V42a1.256,1.256,0,0,0-1.273-1.233m-1.259,6.376H57.67V43.239l4.038-.011ZM49.29,52.708H42.72a1.252,1.252,0,0,0-1.273,1.235V60.32a1.256,1.256,0,0,0,1.273,1.233H49.29a1.249,1.249,0,0,0,1.27-1.233V53.944a1.244,1.244,0,0,0-1.27-1.235m-1.262,6.376H43.99V55.166h4.038ZM49.29,40.77H42.72A1.256,1.256,0,0,0,41.448,42v6.376a1.259,1.259,0,0,0,1.273,1.235H49.29a1.251,1.251,0,0,0,1.27-1.235V42a1.249,1.249,0,0,0-1.27-1.233m-1.262,6.376H43.99V43.239h4.038ZM35.621,52.708H29.051a1.252,1.252,0,0,0-1.273,1.235V60.32a1.256,1.256,0,0,0,1.273,1.233h6.569a1.256,1.256,0,0,0,1.273-1.233V53.944a1.252,1.252,0,0,0-1.273-1.235m-1.262,6.376H30.321V55.166h4.038ZM35.621,40.77H29.051A1.256,1.256,0,0,0,27.779,42v6.376a1.259,1.259,0,0,0,1.273,1.235h6.569a1.259,1.259,0,0,0,1.273-1.235V42a1.256,1.256,0,0,0-1.273-1.233m-1.262,6.376H30.321V43.239h4.038Zm1.262-6.376H29.051A1.256,1.256,0,0,0,27.779,42v6.376a1.259,1.259,0,0,0,1.273,1.235h6.569a1.259,1.259,0,0,0,1.273-1.235V42a1.256,1.256,0,0,0-1.273-1.233m-1.262,6.376H30.321V43.239h4.038Zm1.262,5.562H29.051a1.252,1.252,0,0,0-1.273,1.235V60.32a1.256,1.256,0,0,0,1.273,1.233h6.569a1.256,1.256,0,0,0,1.273-1.233V53.944a1.252,1.252,0,0,0-1.273-1.235m-1.262,6.376H30.321V55.166h4.038ZM49.29,40.77H42.72A1.256,1.256,0,0,0,41.448,42v6.376a1.259,1.259,0,0,0,1.273,1.235H49.29a1.251,1.251,0,0,0,1.27-1.235V42a1.249,1.249,0,0,0-1.27-1.233m-1.262,6.376H43.99V43.239h4.038Zm1.262,5.562H42.72a1.252,1.252,0,0,0-1.273,1.235V60.32a1.256,1.256,0,0,0,1.273,1.233H49.29a1.249,1.249,0,0,0,1.27-1.233V53.944a1.244,1.244,0,0,0-1.27-1.235m-1.262,6.376H43.99V55.166h4.038ZM62.638,2a1.284,1.284,0,0,0-1.779.122l-6.2,6.951L50.782,6.126a1.287,1.287,0,0,0-1.62.186,1.208,1.208,0,0,0,.064,1.747l4.82,3.672a1.293,1.293,0,0,0,1.782-.207l.011-.008L62.776,3.74A1.2,1.2,0,0,0,62.638,2m.329,38.767H56.4A1.256,1.256,0,0,0,55.127,42v6.376a1.258,1.258,0,0,0,1.27,1.235h6.569a1.259,1.259,0,0,0,1.273-1.235V42a1.256,1.256,0,0,0-1.273-1.233m-1.259,6.376H57.67V43.239l4.038-.011ZM62.967,52.7H56.4a1.258,1.258,0,0,0-1.27,1.235v6.376a1.249,1.249,0,0,0,1.27,1.233h6.569a1.25,1.25,0,0,0,1.273-1.233V53.933A1.259,1.259,0,0,0,62.967,52.7m-1.259,6.386H57.67V55.166h4.038ZM62.967,52.7H56.4a1.258,1.258,0,0,0-1.27,1.235v6.376a1.249,1.249,0,0,0,1.27,1.233h6.569a1.25,1.25,0,0,0,1.273-1.233V53.933A1.259,1.259,0,0,0,62.967,52.7m-1.259,6.386H57.67V55.166h4.038ZM62.967,40.77H56.4A1.256,1.256,0,0,0,55.127,42v6.376a1.258,1.258,0,0,0,1.27,1.235h6.569a1.259,1.259,0,0,0,1.273-1.235V42a1.256,1.256,0,0,0-1.273-1.233m-1.259,6.376H57.67V43.239l4.038-.011ZM49.29,52.708H42.72a1.252,1.252,0,0,0-1.273,1.235V60.32a1.256,1.256,0,0,0,1.273,1.233H49.29a1.249,1.249,0,0,0,1.27-1.233V53.944a1.244,1.244,0,0,0-1.27-1.235m-1.262,6.376H43.99V55.166h4.038ZM49.29,40.77H42.72A1.256,1.256,0,0,0,41.448,42v6.376a1.259,1.259,0,0,0,1.273,1.235H49.29a1.251,1.251,0,0,0,1.27-1.235V42a1.249,1.249,0,0,0-1.27-1.233m-1.262,6.376H43.99V43.239h4.038ZM35.621,52.708H29.051a1.252,1.252,0,0,0-1.273,1.235V60.32a1.256,1.256,0,0,0,1.273,1.233h6.569a1.256,1.256,0,0,0,1.273-1.233V53.944a1.252,1.252,0,0,0-1.273-1.235m-1.262,6.376H30.321V55.166h4.038ZM35.621,40.77H29.051A1.256,1.256,0,0,0,27.779,42v6.376a1.259,1.259,0,0,0,1.273,1.235h6.569a1.259,1.259,0,0,0,1.273-1.235V42a1.256,1.256,0,0,0-1.273-1.233m-1.262,6.376H30.321V43.239h4.038ZM62.638,2a1.284,1.284,0,0,0-1.779.122l-6.2,6.951L50.782,6.126a1.287,1.287,0,0,0-1.62.186,1.208,1.208,0,0,0,.064,1.747l4.82,3.672a1.293,1.293,0,0,0,1.782-.207l.011-.008L62.776,3.74A1.2,1.2,0,0,0,62.638,2M35.621,40.77H29.051A1.256,1.256,0,0,0,27.779,42v6.376a1.259,1.259,0,0,0,1.273,1.235h6.569a1.259,1.259,0,0,0,1.273-1.235V42a1.256,1.256,0,0,0-1.273-1.233m-1.262,6.376H30.321V43.239h4.038Zm1.262,5.562H29.051a1.252,1.252,0,0,0-1.273,1.235V60.32a1.256,1.256,0,0,0,1.273,1.233h6.569a1.256,1.256,0,0,0,1.273-1.233V53.944a1.252,1.252,0,0,0-1.273-1.235m-1.262,6.376H30.321V55.166h4.038ZM49.29,40.77H42.72A1.256,1.256,0,0,0,41.448,42v6.376a1.259,1.259,0,0,0,1.273,1.235H49.29a1.251,1.251,0,0,0,1.27-1.235V42a1.249,1.249,0,0,0-1.27-1.233m-1.262,6.376H43.99V43.239h4.038Zm1.262,5.562H42.72a1.252,1.252,0,0,0-1.273,1.235V60.32a1.256,1.256,0,0,0,1.273,1.233H49.29a1.249,1.249,0,0,0,1.27-1.233V53.944a1.244,1.244,0,0,0-1.27-1.235m-1.262,6.376H43.99V55.166h4.038ZM62.638,2a1.284,1.284,0,0,0-1.779.122l-6.2,6.951L50.782,6.126a1.287,1.287,0,0,0-1.62.186,1.208,1.208,0,0,0,.064,1.747l4.82,3.672a1.293,1.293,0,0,0,1.782-.207l.011-.008L62.776,3.74A1.2,1.2,0,0,0,62.638,2m.329,38.767H56.4A1.256,1.256,0,0,0,55.127,42v6.376a1.258,1.258,0,0,0,1.27,1.235h6.569a1.259,1.259,0,0,0,1.273-1.235V42a1.256,1.256,0,0,0-1.273-1.233m-1.259,6.376H57.67V43.239l4.038-.011ZM62.967,52.7H56.4a1.258,1.258,0,0,0-1.27,1.235v6.376a1.249,1.249,0,0,0,1.27,1.233h6.569a1.25,1.25,0,0,0,1.273-1.233V53.933A1.259,1.259,0,0,0,62.967,52.7m-1.259,6.386H57.67V55.166h4.038ZM62.967,52.7H56.4a1.258,1.258,0,0,0-1.27,1.235v6.376a1.249,1.249,0,0,0,1.27,1.233h6.569a1.25,1.25,0,0,0,1.273-1.233V53.933A1.259,1.259,0,0,0,62.967,52.7m-1.259,6.386H57.67V55.166h4.038ZM62.967,40.77H56.4A1.256,1.256,0,0,0,55.127,42v6.376a1.258,1.258,0,0,0,1.27,1.235h6.569a1.259,1.259,0,0,0,1.273-1.235V42a1.256,1.256,0,0,0-1.273-1.233m-1.259,6.376H57.67V43.239l4.038-.011ZM49.29,52.708H42.72a1.252,1.252,0,0,0-1.273,1.235V60.32a1.256,1.256,0,0,0,1.273,1.233H49.29a1.249,1.249,0,0,0,1.27-1.233V53.944a1.244,1.244,0,0,0-1.27-1.235m-1.262,6.376H43.99V55.166h4.038ZM49.29,40.77H42.72A1.256,1.256,0,0,0,41.448,42v6.376a1.259,1.259,0,0,0,1.273,1.235H49.29a1.251,1.251,0,0,0,1.27-1.235V42a1.249,1.249,0,0,0-1.27-1.233m-1.262,6.376H43.99V43.239h4.038ZM35.621,52.708H29.051a1.252,1.252,0,0,0-1.273,1.235V60.32a1.256,1.256,0,0,0,1.273,1.233h6.569a1.256,1.256,0,0,0,1.273-1.233V53.944a1.252,1.252,0,0,0-1.273-1.235m-1.262,6.376H30.321V55.166h4.038ZM35.621,40.77H29.051A1.256,1.256,0,0,0,27.779,42v6.376a1.259,1.259,0,0,0,1.273,1.235h6.569a1.259,1.259,0,0,0,1.273-1.235V42a1.256,1.256,0,0,0-1.273-1.233m-1.262,6.376H30.321V43.239h4.038ZM62.638,2a1.284,1.284,0,0,0-1.779.122l-6.2,6.951L50.782,6.126a1.287,1.287,0,0,0-1.62.186,1.208,1.208,0,0,0,.064,1.747l4.82,3.672a1.293,1.293,0,0,0,1.782-.207l.011-.008L62.776,3.74A1.2,1.2,0,0,0,62.638,2M35.621,40.77H29.051A1.256,1.256,0,0,0,27.779,42v6.376a1.259,1.259,0,0,0,1.273,1.235h6.569a1.259,1.259,0,0,0,1.273-1.235V42a1.256,1.256,0,0,0-1.273-1.233m-1.262,6.376H30.321V43.239h4.038Zm1.262,5.562H29.051a1.252,1.252,0,0,0-1.273,1.235V60.32a1.256,1.256,0,0,0,1.273,1.233h6.569a1.256,1.256,0,0,0,1.273-1.233V53.944a1.252,1.252,0,0,0-1.273-1.235m-1.262,6.376H30.321V55.166h4.038ZM49.29,40.77H42.72A1.256,1.256,0,0,0,41.448,42v6.376a1.259,1.259,0,0,0,1.273,1.235H49.29a1.251,1.251,0,0,0,1.27-1.235V42a1.249,1.249,0,0,0-1.27-1.233m-1.262,6.376H43.99V43.239h4.038Zm1.262,5.562H42.72a1.252,1.252,0,0,0-1.273,1.235V60.32a1.256,1.256,0,0,0,1.273,1.233H49.29a1.249,1.249,0,0,0,1.27-1.233V53.944a1.244,1.244,0,0,0-1.27-1.235m-1.262,6.376H43.99V55.166h4.038ZM62.638,2a1.284,1.284,0,0,0-1.779.122l-6.2,6.951L50.782,6.126a1.287,1.287,0,0,0-1.62.186,1.208,1.208,0,0,0,.064,1.747l4.82,3.672a1.293,1.293,0,0,0,1.782-.207l.011-.008L62.776,3.74A1.2,1.2,0,0,0,62.638,2m.329,38.767H56.4A1.256,1.256,0,0,0,55.127,42v6.376a1.258,1.258,0,0,0,1.27,1.235h6.569a1.259,1.259,0,0,0,1.273-1.235V42a1.256,1.256,0,0,0-1.273-1.233m-1.259,6.376H57.67V43.239l4.038-.011ZM62.967,52.7H56.4a1.258,1.258,0,0,0-1.27,1.235v6.376a1.249,1.249,0,0,0,1.27,1.233h6.569a1.25,1.25,0,0,0,1.273-1.233V53.933A1.259,1.259,0,0,0,62.967,52.7m-1.259,6.386H57.67V55.166h4.038ZM62.967,52.7H56.4a1.258,1.258,0,0,0-1.27,1.235v6.376a1.249,1.249,0,0,0,1.27,1.233h6.569a1.25,1.25,0,0,0,1.273-1.233V53.933A1.259,1.259,0,0,0,62.967,52.7m-1.259,6.386H57.67V55.166h4.038ZM62.967,40.77H56.4A1.256,1.256,0,0,0,55.127,42v6.376a1.258,1.258,0,0,0,1.27,1.235h6.569a1.259,1.259,0,0,0,1.273-1.235V42a1.256,1.256,0,0,0-1.273-1.233m-1.259,6.376H57.67V43.239l4.038-.011ZM49.29,52.708H42.72a1.252,1.252,0,0,0-1.273,1.235V60.32a1.256,1.256,0,0,0,1.273,1.233H49.29a1.249,1.249,0,0,0,1.27-1.233V53.944a1.244,1.244,0,0,0-1.27-1.235m-1.262,6.376H43.99V55.166h4.038ZM49.29,40.77H42.72A1.256,1.256,0,0,0,41.448,42v6.376a1.259,1.259,0,0,0,1.273,1.235H49.29a1.251,1.251,0,0,0,1.27-1.235V42a1.249,1.249,0,0,0-1.27-1.233m-1.262,6.376H43.99V43.239h4.038ZM35.621,52.708H29.051a1.252,1.252,0,0,0-1.273,1.235V60.32a1.256,1.256,0,0,0,1.273,1.233h6.569a1.256,1.256,0,0,0,1.273-1.233V53.944a1.252,1.252,0,0,0-1.273-1.235m-1.262,6.376H30.321V55.166h4.038ZM35.621,40.77H29.051A1.256,1.256,0,0,0,27.779,42v6.376a1.259,1.259,0,0,0,1.273,1.235h6.569a1.259,1.259,0,0,0,1.273-1.235V42a1.256,1.256,0,0,0-1.273-1.233m-1.262,6.376H30.321V43.239h4.038ZM62.638,2a1.284,1.284,0,0,0-1.779.122l-6.2,6.951L50.782,6.126a1.287,1.287,0,0,0-1.62.186,1.208,1.208,0,0,0,.064,1.747l4.82,3.672a1.293,1.293,0,0,0,1.782-.207l.011-.008L62.776,3.74A1.2,1.2,0,0,0,62.638,2M35.621,40.77H29.051A1.256,1.256,0,0,0,27.779,42v6.376a1.259,1.259,0,0,0,1.273,1.235h6.569a1.259,1.259,0,0,0,1.273-1.235V42a1.256,1.256,0,0,0-1.273-1.233m-1.262,6.376H30.321V43.239h4.038Zm1.262,5.562H29.051a1.252,1.252,0,0,0-1.273,1.235V60.32a1.256,1.256,0,0,0,1.273,1.233h6.569a1.256,1.256,0,0,0,1.273-1.233V53.944a1.252,1.252,0,0,0-1.273-1.235m-1.262,6.376H30.321V55.166h4.038ZM49.29,40.77H42.72A1.256,1.256,0,0,0,41.448,42v6.376a1.259,1.259,0,0,0,1.273,1.235H49.29a1.251,1.251,0,0,0,1.27-1.235V42a1.249,1.249,0,0,0-1.27-1.233m-1.262,6.376H43.99V43.239h4.038Zm1.262,5.562H42.72a1.252,1.252,0,0,0-1.273,1.235V60.32a1.256,1.256,0,0,0,1.273,1.233H49.29a1.249,1.249,0,0,0,1.27-1.233V53.944a1.244,1.244,0,0,0-1.27-1.235m-1.262,6.376H43.99V55.166h4.038ZM62.638,2a1.284,1.284,0,0,0-1.779.122l-6.2,6.951L50.782,6.126a1.287,1.287,0,0,0-1.62.186,1.208,1.208,0,0,0,.064,1.747l4.82,3.672a1.293,1.293,0,0,0,1.782-.207l.011-.008L62.776,3.74A1.2,1.2,0,0,0,62.638,2m.329,38.767H56.4A1.256,1.256,0,0,0,55.127,42v6.376a1.258,1.258,0,0,0,1.27,1.235h6.569a1.259,1.259,0,0,0,1.273-1.235V42a1.256,1.256,0,0,0-1.273-1.233m-1.259,6.376H57.67V43.239l4.038-.011ZM62.967,52.7H56.4a1.258,1.258,0,0,0-1.27,1.235v6.376a1.249,1.249,0,0,0,1.27,1.233h6.569a1.25,1.25,0,0,0,1.273-1.233V53.933A1.259,1.259,0,0,0,62.967,52.7m-1.259,6.386H57.67V55.166h4.038ZM62.967,52.7H56.4a1.258,1.258,0,0,0-1.27,1.235v6.376a1.249,1.249,0,0,0,1.27,1.233h6.569a1.25,1.25,0,0,0,1.273-1.233V53.933A1.259,1.259,0,0,0,62.967,52.7m-1.259,6.386H57.67V55.166h4.038ZM62.967,40.77H56.4A1.256,1.256,0,0,0,55.127,42v6.376a1.258,1.258,0,0,0,1.27,1.235h6.569a1.259,1.259,0,0,0,1.273-1.235V42a1.256,1.256,0,0,0-1.273-1.233m-1.259,6.376H57.67V43.239l4.038-.011ZM49.29,52.708H42.72a1.252,1.252,0,0,0-1.273,1.235V60.32a1.256,1.256,0,0,0,1.273,1.233H49.29a1.249,1.249,0,0,0,1.27-1.233V53.944a1.244,1.244,0,0,0-1.27-1.235m-1.262,6.376H43.99V55.166h4.038ZM49.29,40.77H42.72A1.256,1.256,0,0,0,41.448,42v6.376a1.259,1.259,0,0,0,1.273,1.235H49.29a1.251,1.251,0,0,0,1.27-1.235V42a1.249,1.249,0,0,0-1.27-1.233m-1.262,6.376H43.99V43.239h4.038ZM35.621,52.708H29.051a1.252,1.252,0,0,0-1.273,1.235V60.32a1.256,1.256,0,0,0,1.273,1.233h6.569a1.256,1.256,0,0,0,1.273-1.233V53.944a1.252,1.252,0,0,0-1.273-1.235m-1.262,6.376H30.321V55.166h4.038ZM35.621,40.77H29.051A1.256,1.256,0,0,0,27.779,42v6.376a1.259,1.259,0,0,0,1.273,1.235h6.569a1.259,1.259,0,0,0,1.273-1.235V42a1.256,1.256,0,0,0-1.273-1.233m-1.262,6.376H30.321V43.239h4.038ZM62.638,2a1.284,1.284,0,0,0-1.779.122l-6.2,6.951L50.782,6.126a1.287,1.287,0,0,0-1.62.186,1.208,1.208,0,0,0,.064,1.747l4.82,3.672a1.293,1.293,0,0,0,1.782-.207l.011-.008L62.776,3.74A1.2,1.2,0,0,0,62.638,2m5.649,25.562a4.411,4.411,0,0,0-2.924-1.079H60.9V25.7a3.421,3.421,0,0,0-6.835,0v.782h-4.6V17.231A12.813,12.813,0,0,0,62.291,17.2,11.885,11.885,0,0,0,66.516.6a12.667,12.667,0,0,0-17.1-4.1v-8.062l-.011-.05a.511.511,0,0,0-.021-.125.279.279,0,0,0-.021-.09l-.021-.053-.011-.021-.021-.05-.011-.032L49.29-12l-.011-.032-.011-.021-.011-.011v-.011l-.011-.019-.011-.021-.032-.032-.011-.019-.021-.021-.021-.021-.011-.021-.032-.029L38.916-24.24a1.249,1.249,0,0,0-.976-.453H-17.717a3.809,3.809,0,0,0-3.857,3.743V58.138a3.816,3.816,0,0,0,3.857,3.743H22.45v2.182a3.607,3.607,0,0,0,1.294,2.725,4.5,4.5,0,0,0,2.914,1.068H65.363a4.4,4.4,0,0,0,2.924-1.068,3.6,3.6,0,0,0,1.28-2.725V30.283a3.586,3.586,0,0,0-1.28-2.717M56.609,25.7a.875.875,0,0,1,1.75,0v3.632a.875.875,0,0,1-1.75,0ZM49.078-.125a10.145,10.145,0,0,1,13.666,0,9.427,9.427,0,0,1,.361,13.6,10.136,10.136,0,0,1-14.027.35v-.011a1.174,1.174,0,0,1-.18-.164,9.406,9.406,0,0,1,0-13.6,2.267,2.267,0,0,1,.18-.175M38.905-20.4l6.612,7.773h-5.3a1.3,1.3,0,0,1-1.315-1.275ZM22.45,30.283v29.13H-17.717a1.3,1.3,0,0,1-1.315-1.275V-20.95a1.3,1.3,0,0,1,1.315-1.275h54.08v8.319a3.8,3.8,0,0,0,3.857,3.743h6.715v8.637a11.821,11.821,0,0,0,0,16.752V26.486H37.951V25.7a3.422,3.422,0,0,0-6.835,0v.782H26.657a4.454,4.454,0,0,0-2.914,1.079,3.59,3.59,0,0,0-1.294,2.717M35.419,25.7v3.632a.879.879,0,0,1-1.758,0V25.7a.877.877,0,0,1,.878-.854.894.894,0,0,1,.88.854M67.025,64.063a1.219,1.219,0,0,1-.435.893,1.907,1.907,0,0,1-1.227.443H26.657a1.88,1.88,0,0,1-1.22-.443,1.194,1.194,0,0,1-.445-.893V37.674H67.025Zm0-28.847H24.992V30.283a1.208,1.208,0,0,1,.445-.9,1.815,1.815,0,0,1,1.22-.432h4.459v.382a3.421,3.421,0,0,0,6.835,0v-.382H54.067v.382a3.421,3.421,0,0,0,6.835,0v-.382h4.462a1.841,1.841,0,0,1,1.227.432,1.234,1.234,0,0,1,.435.9ZM56.4,61.542h6.569a1.25,1.25,0,0,0,1.273-1.233V53.933A1.259,1.259,0,0,0,62.967,52.7H56.4a1.258,1.258,0,0,0-1.27,1.235v6.376a1.249,1.249,0,0,0,1.27,1.233m1.273-6.376h4.038v3.918H57.67ZM56.4,49.614h6.569a1.259,1.259,0,0,0,1.273-1.235V42a1.256,1.256,0,0,0-1.273-1.233H56.4A1.256,1.256,0,0,0,55.127,42v6.376a1.258,1.258,0,0,0,1.27,1.235m1.273-6.376,4.038-.011v3.918H57.67ZM49.226,8.059l4.82,3.672a1.293,1.293,0,0,0,1.782-.207l.011-.008L62.776,3.74A1.2,1.2,0,0,0,62.638,2a1.284,1.284,0,0,0-1.779.122l-6.2,6.951L50.782,6.126a1.287,1.287,0,0,0-1.62.186,1.208,1.208,0,0,0,.064,1.747M42.72,61.552H49.29a1.249,1.249,0,0,0,1.27-1.233V53.944a1.244,1.244,0,0,0-1.27-1.235H42.72a1.252,1.252,0,0,0-1.273,1.235V60.32a1.256,1.256,0,0,0,1.273,1.233m1.27-6.386h4.038v3.918H43.99Zm-1.27-5.551H49.29a1.251,1.251,0,0,0,1.27-1.235V42a1.249,1.249,0,0,0-1.27-1.233H42.72A1.256,1.256,0,0,0,41.448,42v6.376a1.259,1.259,0,0,0,1.273,1.235m1.27-6.376h4.038v3.908H43.99ZM29.051,61.552h6.569a1.256,1.256,0,0,0,1.273-1.233V53.944a1.252,1.252,0,0,0-1.273-1.235H29.051a1.252,1.252,0,0,0-1.273,1.235V60.32a1.256,1.256,0,0,0,1.273,1.233m1.273-6.386h4.038v3.918H30.324Zm-1.273-5.551h6.569a1.259,1.259,0,0,0,1.273-1.235V42a1.256,1.256,0,0,0-1.273-1.233H29.051A1.256,1.256,0,0,0,27.779,42v6.376a1.259,1.259,0,0,0,1.273,1.235m1.273-6.376h4.038v3.908H30.324ZM62.638,2a1.284,1.284,0,0,0-1.779.122l-6.2,6.951L50.782,6.126a1.287,1.287,0,0,0-1.62.186,1.208,1.208,0,0,0,.064,1.747l4.82,3.672a1.293,1.293,0,0,0,1.782-.207l.011-.008L62.776,3.74A1.2,1.2,0,0,0,62.638,2M35.621,40.77H29.051A1.256,1.256,0,0,0,27.779,42v6.376a1.259,1.259,0,0,0,1.273,1.235h6.569a1.259,1.259,0,0,0,1.273-1.235V42a1.256,1.256,0,0,0-1.273-1.233m-1.262,6.376H30.321V43.239h4.038Zm1.262,5.562H29.051a1.252,1.252,0,0,0-1.273,1.235V60.32a1.256,1.256,0,0,0,1.273,1.233h6.569a1.256,1.256,0,0,0,1.273-1.233V53.944a1.252,1.252,0,0,0-1.273-1.235m-1.262,6.376H30.321V55.166h4.038ZM49.29,40.77H42.72A1.256,1.256,0,0,0,41.448,42v6.376a1.259,1.259,0,0,0,1.273,1.235H49.29a1.251,1.251,0,0,0,1.27-1.235V42a1.249,1.249,0,0,0-1.27-1.233m-1.262,6.376H43.99V43.239h4.038Zm1.262,5.562H42.72a1.252,1.252,0,0,0-1.273,1.235V60.32a1.256,1.256,0,0,0,1.273,1.233H49.29a1.249,1.249,0,0,0,1.27-1.233V53.944a1.244,1.244,0,0,0-1.27-1.235m-1.262,6.376H43.99V55.166h4.038ZM62.967,40.77H56.4A1.256,1.256,0,0,0,55.127,42v6.376a1.258,1.258,0,0,0,1.27,1.235h6.569a1.259,1.259,0,0,0,1.273-1.235V42a1.256,1.256,0,0,0-1.273-1.233m-1.259,6.376H57.67V43.239l4.038-.011ZM62.967,52.7H56.4a1.258,1.258,0,0,0-1.27,1.235v6.376a1.249,1.249,0,0,0,1.27,1.233h6.569a1.25,1.25,0,0,0,1.273-1.233V53.933A1.259,1.259,0,0,0,62.967,52.7m-1.259,6.386H57.67V55.166h4.038ZM62.967,52.7H56.4a1.258,1.258,0,0,0-1.27,1.235v6.376a1.249,1.249,0,0,0,1.27,1.233h6.569a1.25,1.25,0,0,0,1.273-1.233V53.933A1.259,1.259,0,0,0,62.967,52.7m-1.259,6.386H57.67V55.166h4.038ZM62.967,40.77H56.4A1.256,1.256,0,0,0,55.127,42v6.376a1.258,1.258,0,0,0,1.27,1.235h6.569a1.259,1.259,0,0,0,1.273-1.235V42a1.256,1.256,0,0,0-1.273-1.233m-1.259,6.376H57.67V43.239l4.038-.011ZM62.638,2a1.284,1.284,0,0,0-1.779.122l-6.2,6.951L50.782,6.126a1.287,1.287,0,0,0-1.62.186,1.208,1.208,0,0,0,.064,1.747l4.82,3.672a1.293,1.293,0,0,0,1.782-.207l.011-.008L62.776,3.74A1.2,1.2,0,0,0,62.638,2M49.29,52.708H42.72a1.252,1.252,0,0,0-1.273,1.235V60.32a1.256,1.256,0,0,0,1.273,1.233H49.29a1.249,1.249,0,0,0,1.27-1.233V53.944a1.244,1.244,0,0,0-1.27-1.235m-1.262,6.376H43.99V55.166h4.038ZM49.29,40.77H42.72A1.256,1.256,0,0,0,41.448,42v6.376a1.259,1.259,0,0,0,1.273,1.235H49.29a1.251,1.251,0,0,0,1.27-1.235V42a1.249,1.249,0,0,0-1.27-1.233m-1.262,6.376H43.99V43.239h4.038ZM35.621,52.708H29.051a1.252,1.252,0,0,0-1.273,1.235V60.32a1.256,1.256,0,0,0,1.273,1.233h6.569a1.256,1.256,0,0,0,1.273-1.233V53.944a1.252,1.252,0,0,0-1.273-1.235m-1.262,6.376H30.321V55.166h4.038ZM35.621,40.77H29.051A1.256,1.256,0,0,0,27.779,42v6.376a1.259,1.259,0,0,0,1.273,1.235h6.569a1.259,1.259,0,0,0,1.273-1.235V42a1.256,1.256,0,0,0-1.273-1.233m-1.262,6.376H30.321V43.239h4.038ZM62.638,2a1.284,1.284,0,0,0-1.779.122l-6.2,6.951L50.782,6.126a1.287,1.287,0,0,0-1.62.186,1.208,1.208,0,0,0,.064,1.747l4.82,3.672a1.293,1.293,0,0,0,1.782-.207l.011-.008L62.776,3.74A1.2,1.2,0,0,0,62.638,2M35.621,40.77H29.051A1.256,1.256,0,0,0,27.779,42v6.376a1.259,1.259,0,0,0,1.273,1.235h6.569a1.259,1.259,0,0,0,1.273-1.235V42a1.256,1.256,0,0,0-1.273-1.233m-1.262,6.376H30.321V43.239h4.038Zm1.262,5.562H29.051a1.252,1.252,0,0,0-1.273,1.235V60.32a1.256,1.256,0,0,0,1.273,1.233h6.569a1.256,1.256,0,0,0,1.273-1.233V53.944a1.252,1.252,0,0,0-1.273-1.235m-1.262,6.376H30.321V55.166h4.038ZM49.29,40.77H42.72A1.256,1.256,0,0,0,41.448,42v6.376a1.259,1.259,0,0,0,1.273,1.235H49.29a1.251,1.251,0,0,0,1.27-1.235V42a1.249,1.249,0,0,0-1.27-1.233m-1.262,6.376H43.99V43.239h4.038Zm1.262,5.562H42.72a1.252,1.252,0,0,0-1.273,1.235V60.32a1.256,1.256,0,0,0,1.273,1.233H49.29a1.249,1.249,0,0,0,1.27-1.233V53.944a1.244,1.244,0,0,0-1.27-1.235m-1.262,6.376H43.99V55.166h4.038ZM62.967,40.77H56.4A1.256,1.256,0,0,0,55.127,42v6.376a1.258,1.258,0,0,0,1.27,1.235h6.569a1.259,1.259,0,0,0,1.273-1.235V42a1.256,1.256,0,0,0-1.273-1.233m-1.259,6.376H57.67V43.239l4.038-.011ZM62.967,52.7H56.4a1.258,1.258,0,0,0-1.27,1.235v6.376a1.249,1.249,0,0,0,1.27,1.233h6.569a1.25,1.25,0,0,0,1.273-1.233V53.933A1.259,1.259,0,0,0,62.967,52.7m-1.259,6.386H57.67V55.166h4.038ZM62.967,52.7H56.4a1.258,1.258,0,0,0-1.27,1.235v6.376a1.249,1.249,0,0,0,1.27,1.233h6.569a1.25,1.25,0,0,0,1.273-1.233V53.933A1.259,1.259,0,0,0,62.967,52.7m-1.259,6.386H57.67V55.166h4.038ZM62.967,40.77H56.4A1.256,1.256,0,0,0,55.127,42v6.376a1.258,1.258,0,0,0,1.27,1.235h6.569a1.259,1.259,0,0,0,1.273-1.235V42a1.256,1.256,0,0,0-1.273-1.233m-1.259,6.376H57.67V43.239l4.038-.011ZM62.638,2a1.284,1.284,0,0,0-1.779.122l-6.2,6.951L50.782,6.126a1.287,1.287,0,0,0-1.62.186,1.208,1.208,0,0,0,.064,1.747l4.82,3.672a1.293,1.293,0,0,0,1.782-.207l.011-.008L62.776,3.74A1.2,1.2,0,0,0,62.638,2M49.29,52.708H42.72a1.252,1.252,0,0,0-1.273,1.235V60.32a1.256,1.256,0,0,0,1.273,1.233H49.29a1.249,1.249,0,0,0,1.27-1.233V53.944a1.244,1.244,0,0,0-1.27-1.235m-1.262,6.376H43.99V55.166h4.038ZM49.29,40.77H42.72A1.256,1.256,0,0,0,41.448,42v6.376a1.259,1.259,0,0,0,1.273,1.235H49.29a1.251,1.251,0,0,0,1.27-1.235V42a1.249,1.249,0,0,0-1.27-1.233m-1.262,6.376H43.99V43.239h4.038ZM35.621,52.708H29.051a1.252,1.252,0,0,0-1.273,1.235V60.32a1.256,1.256,0,0,0,1.273,1.233h6.569a1.256,1.256,0,0,0,1.273-1.233V53.944a1.252,1.252,0,0,0-1.273-1.235m-1.262,6.376H30.321V55.166h4.038ZM35.621,40.77H29.051A1.256,1.256,0,0,0,27.779,42v6.376a1.259,1.259,0,0,0,1.273,1.235h6.569a1.259,1.259,0,0,0,1.273-1.235V42a1.256,1.256,0,0,0-1.273-1.233m-1.262,6.376H30.321V43.239h4.038ZM62.638,2a1.284,1.284,0,0,0-1.779.122l-6.2,6.951L50.782,6.126a1.287,1.287,0,0,0-1.62.186,1.208,1.208,0,0,0,.064,1.747l4.82,3.672a1.293,1.293,0,0,0,1.782-.207l.011-.008L62.776,3.74A1.2,1.2,0,0,0,62.638,2M35.621,40.77H29.051A1.256,1.256,0,0,0,27.779,42v6.376a1.259,1.259,0,0,0,1.273,1.235h6.569a1.259,1.259,0,0,0,1.273-1.235V42a1.256,1.256,0,0,0-1.273-1.233m-1.262,6.376H30.321V43.239h4.038Zm1.262,5.562H29.051a1.252,1.252,0,0,0-1.273,1.235V60.32a1.256,1.256,0,0,0,1.273,1.233h6.569a1.256,1.256,0,0,0,1.273-1.233V53.944a1.252,1.252,0,0,0-1.273-1.235m-1.262,6.376H30.321V55.166h4.038ZM49.29,40.77H42.72A1.256,1.256,0,0,0,41.448,42v6.376a1.259,1.259,0,0,0,1.273,1.235H49.29a1.251,1.251,0,0,0,1.27-1.235V42a1.249,1.249,0,0,0-1.27-1.233m-1.262,6.376H43.99V43.239h4.038Zm1.262,5.562H42.72a1.252,1.252,0,0,0-1.273,1.235V60.32a1.256,1.256,0,0,0,1.273,1.233H49.29a1.249,1.249,0,0,0,1.27-1.233V53.944a1.244,1.244,0,0,0-1.27-1.235m-1.262,6.376H43.99V55.166h4.038ZM62.967,40.77H56.4A1.256,1.256,0,0,0,55.127,42v6.376a1.258,1.258,0,0,0,1.27,1.235h6.569a1.259,1.259,0,0,0,1.273-1.235V42a1.256,1.256,0,0,0-1.273-1.233m-1.259,6.376H57.67V43.239l4.038-.011ZM62.967,52.7H56.4a1.258,1.258,0,0,0-1.27,1.235v6.376a1.249,1.249,0,0,0,1.27,1.233h6.569a1.25,1.25,0,0,0,1.273-1.233V53.933A1.259,1.259,0,0,0,62.967,52.7m-1.259,6.386H57.67V55.166h4.038ZM62.967,52.7H56.4a1.258,1.258,0,0,0-1.27,1.235v6.376a1.249,1.249,0,0,0,1.27,1.233h6.569a1.25,1.25,0,0,0,1.273-1.233V53.933A1.259,1.259,0,0,0,62.967,52.7m-1.259,6.386H57.67V55.166h4.038ZM62.967,40.77H56.4A1.256,1.256,0,0,0,55.127,42v6.376a1.258,1.258,0,0,0,1.27,1.235h6.569a1.259,1.259,0,0,0,1.273-1.235V42a1.256,1.256,0,0,0-1.273-1.233m-1.259,6.376H57.67V43.239l4.038-.011ZM62.638,2a1.284,1.284,0,0,0-1.779.122l-6.2,6.951L50.782,6.126a1.287,1.287,0,0,0-1.62.186,1.208,1.208,0,0,0,.064,1.747l4.82,3.672a1.293,1.293,0,0,0,1.782-.207l.011-.008L62.776,3.74A1.2,1.2,0,0,0,62.638,2M49.29,52.708H42.72a1.252,1.252,0,0,0-1.273,1.235V60.32a1.256,1.256,0,0,0,1.273,1.233H49.29a1.249,1.249,0,0,0,1.27-1.233V53.944a1.244,1.244,0,0,0-1.27-1.235m-1.262,6.376H43.99V55.166h4.038ZM49.29,40.77H42.72A1.256,1.256,0,0,0,41.448,42v6.376a1.259,1.259,0,0,0,1.273,1.235H49.29a1.251,1.251,0,0,0,1.27-1.235V42a1.249,1.249,0,0,0-1.27-1.233m-1.262,6.376H43.99V43.239h4.038ZM35.621,52.708H29.051a1.252,1.252,0,0,0-1.273,1.235V60.32a1.256,1.256,0,0,0,1.273,1.233h6.569a1.256,1.256,0,0,0,1.273-1.233V53.944a1.252,1.252,0,0,0-1.273-1.235m-1.262,6.376H30.321V55.166h4.038ZM35.621,40.77H29.051A1.256,1.256,0,0,0,27.779,42v6.376a1.259,1.259,0,0,0,1.273,1.235h6.569a1.259,1.259,0,0,0,1.273-1.235V42a1.256,1.256,0,0,0-1.273-1.233m-1.262,6.376H30.321V43.239h4.038Zm1.262-6.376H29.051A1.256,1.256,0,0,0,27.779,42v6.376a1.259,1.259,0,0,0,1.273,1.235h6.569a1.259,1.259,0,0,0,1.273-1.235V42a1.256,1.256,0,0,0-1.273-1.233m-1.262,6.376H30.321V43.239h4.038Zm1.262,5.562H29.051a1.252,1.252,0,0,0-1.273,1.235V60.32a1.256,1.256,0,0,0,1.273,1.233h6.569a1.256,1.256,0,0,0,1.273-1.233V53.944a1.252,1.252,0,0,0-1.273-1.235m-1.262,6.376H30.321V55.166h4.038ZM49.29,40.77H42.72A1.256,1.256,0,0,0,41.448,42v6.376a1.259,1.259,0,0,0,1.273,1.235H49.29a1.251,1.251,0,0,0,1.27-1.235V42a1.249,1.249,0,0,0-1.27-1.233m-1.262,6.376H43.99V43.239h4.038Zm1.262,5.562H42.72a1.252,1.252,0,0,0-1.273,1.235V60.32a1.256,1.256,0,0,0,1.273,1.233H49.29a1.249,1.249,0,0,0,1.27-1.233V53.944a1.244,1.244,0,0,0-1.27-1.235m-1.262,6.376H43.99V55.166h4.038ZM62.967,40.77H56.4A1.256,1.256,0,0,0,55.127,42v6.376a1.258,1.258,0,0,0,1.27,1.235h6.569a1.259,1.259,0,0,0,1.273-1.235V42a1.256,1.256,0,0,0-1.273-1.233m-1.259,6.376H57.67V43.239l4.038-.011ZM62.967,52.7H56.4a1.258,1.258,0,0,0-1.27,1.235v6.376a1.249,1.249,0,0,0,1.27,1.233h6.569a1.25,1.25,0,0,0,1.273-1.233V53.933A1.259,1.259,0,0,0,62.967,52.7m-1.259,6.386H57.67V55.166h4.038ZM62.967,52.7H56.4a1.258,1.258,0,0,0-1.27,1.235v6.376a1.249,1.249,0,0,0,1.27,1.233h6.569a1.25,1.25,0,0,0,1.273-1.233V53.933A1.259,1.259,0,0,0,62.967,52.7m-1.259,6.386H57.67V55.166h4.038ZM62.967,40.77H56.4A1.256,1.256,0,0,0,55.127,42v6.376a1.258,1.258,0,0,0,1.27,1.235h6.569a1.259,1.259,0,0,0,1.273-1.235V42a1.256,1.256,0,0,0-1.273-1.233m-1.259,6.376H57.67V43.239l4.038-.011ZM49.29,52.708H42.72a1.252,1.252,0,0,0-1.273,1.235V60.32a1.256,1.256,0,0,0,1.273,1.233H49.29a1.249,1.249,0,0,0,1.27-1.233V53.944a1.244,1.244,0,0,0-1.27-1.235m-1.262,6.376H43.99V55.166h4.038ZM49.29,40.77H42.72A1.256,1.256,0,0,0,41.448,42v6.376a1.259,1.259,0,0,0,1.273,1.235H49.29a1.251,1.251,0,0,0,1.27-1.235V42a1.249,1.249,0,0,0-1.27-1.233m-1.262,6.376H43.99V43.239h4.038ZM35.621,52.708H29.051a1.252,1.252,0,0,0-1.273,1.235V60.32a1.256,1.256,0,0,0,1.273,1.233h6.569a1.256,1.256,0,0,0,1.273-1.233V53.944a1.252,1.252,0,0,0-1.273-1.235m-1.262,6.376H30.321V55.166h4.038ZM35.621,40.77H29.051A1.256,1.256,0,0,0,27.779,42v6.376a1.259,1.259,0,0,0,1.273,1.235h6.569a1.259,1.259,0,0,0,1.273-1.235V42a1.256,1.256,0,0,0-1.273-1.233m-1.262,6.376H30.321V43.239h4.038Zm1.262-6.376H29.051A1.256,1.256,0,0,0,27.779,42v6.376a1.259,1.259,0,0,0,1.273,1.235h6.569a1.259,1.259,0,0,0,1.273-1.235V42a1.256,1.256,0,0,0-1.273-1.233m-1.262,6.376H30.321V43.239h4.038Zm1.262,5.562H29.051a1.252,1.252,0,0,0-1.273,1.235V60.32a1.256,1.256,0,0,0,1.273,1.233h6.569a1.256,1.256,0,0,0,1.273-1.233V53.944a1.252,1.252,0,0,0-1.273-1.235m-1.262,6.376H30.321V55.166h4.038ZM49.29,40.77H42.72A1.256,1.256,0,0,0,41.448,42v6.376a1.259,1.259,0,0,0,1.273,1.235H49.29a1.251,1.251,0,0,0,1.27-1.235V42a1.249,1.249,0,0,0-1.27-1.233m-1.262,6.376H43.99V43.239h4.038Zm1.262,5.562H42.72a1.252,1.252,0,0,0-1.273,1.235V60.32a1.256,1.256,0,0,0,1.273,1.233H49.29a1.249,1.249,0,0,0,1.27-1.233V53.944a1.244,1.244,0,0,0-1.27-1.235m-1.262,6.376H43.99V55.166h4.038ZM62.967,40.77H56.4A1.256,1.256,0,0,0,55.127,42v6.376a1.258,1.258,0,0,0,1.27,1.235h6.569a1.259,1.259,0,0,0,1.273-1.235V42a1.256,1.256,0,0,0-1.273-1.233m-1.259,6.376H57.67V43.239l4.038-.011ZM62.967,52.7H56.4a1.258,1.258,0,0,0-1.27,1.235v6.376a1.249,1.249,0,0,0,1.27,1.233h6.569a1.25,1.25,0,0,0,1.273-1.233V53.933A1.259,1.259,0,0,0,62.967,52.7m-1.259,6.386H57.67V55.166h4.038ZM62.967,52.7H56.4a1.258,1.258,0,0,0-1.27,1.235v6.376a1.249,1.249,0,0,0,1.27,1.233h6.569a1.25,1.25,0,0,0,1.273-1.233V53.933A1.259,1.259,0,0,0,62.967,52.7m-1.259,6.386H57.67V55.166h4.038ZM62.967,40.77H56.4A1.256,1.256,0,0,0,55.127,42v6.376a1.258,1.258,0,0,0,1.27,1.235h6.569a1.259,1.259,0,0,0,1.273-1.235V42a1.256,1.256,0,0,0-1.273-1.233m-1.259,6.376H57.67V43.239l4.038-.011ZM49.29,52.708H42.72a1.252,1.252,0,0,0-1.273,1.235V60.32a1.256,1.256,0,0,0,1.273,1.233H49.29a1.249,1.249,0,0,0,1.27-1.233V53.944a1.244,1.244,0,0,0-1.27-1.235m-1.262,6.376H43.99V55.166h4.038ZM49.29,40.77H42.72A1.256,1.256,0,0,0,41.448,42v6.376a1.259,1.259,0,0,0,1.273,1.235H49.29a1.251,1.251,0,0,0,1.27-1.235V42a1.249,1.249,0,0,0-1.27-1.233m-1.262,6.376H43.99V43.239h4.038ZM35.621,52.708H29.051a1.252,1.252,0,0,0-1.273,1.235V60.32a1.256,1.256,0,0,0,1.273,1.233h6.569a1.256,1.256,0,0,0,1.273-1.233V53.944a1.252,1.252,0,0,0-1.273-1.235m-1.262,6.376H30.321V55.166h4.038ZM35.621,40.77H29.051A1.256,1.256,0,0,0,27.779,42v6.376a1.259,1.259,0,0,0,1.273,1.235h6.569a1.259,1.259,0,0,0,1.273-1.235V42a1.256,1.256,0,0,0-1.273-1.233m-1.262,6.376H30.321V43.239h4.038Z" transform="translate(21.574 24.693)" fill="#1e2859"/>
        </g>
        <g id="Group_346" data-name="Group 346" transform="translate(8.031 69.812)">
          <path id="Path_246" data-name="Path 246" d="M2.323,1.128A1.842,1.842,0,0,1,.459,2.938,1.843,1.843,0,0,1-1.407,1.128,1.836,1.836,0,0,1,.459-.683v.011a1.833,1.833,0,0,1,1.864,1.8" transform="translate(1.407 0.683)" fill="#1e2859"/>
        </g>
        <g id="Group_347" data-name="Group 347" transform="translate(8.031 55.179)">
          <path id="Path_247" data-name="Path 247" d="M2.323,1.128A1.835,1.835,0,0,1,.459,2.938,1.843,1.843,0,0,1-1.407,1.128,1.843,1.843,0,0,1,.459-.683,1.835,1.835,0,0,1,2.323,1.128" transform="translate(1.407 0.683)" fill="#1e2859"/>
        </g>
        <g id="Group_348" data-name="Group 348" transform="translate(8.031 40.556)">
          <path id="Path_248" data-name="Path 248" d="M2.323,1.128A1.842,1.842,0,0,1,.459,2.938,1.843,1.843,0,0,1-1.407,1.128,1.843,1.843,0,0,1,.459-.683,1.835,1.835,0,0,1,2.323,1.128" transform="translate(1.407 0.683)" fill="#1e2859"/>
        </g>
        <g id="Group_349" data-name="Group 349" transform="translate(8.031 25.934)">
          <path id="Path_249" data-name="Path 249" d="M2.323,1.128A1.842,1.842,0,0,1,.459,2.938,1.851,1.851,0,0,1-1.407,1.117,1.827,1.827,0,0,1,.459-.683,1.828,1.828,0,0,1,2.323,1.128" transform="translate(1.407 0.683)" fill="#1e2859"/>
        </g>
        <g id="Group_350" data-name="Group 350" transform="translate(16.877 67.51)">
          <path id="Path_250" data-name="Path 250" d="M8.744,0H-4.023A1.252,1.252,0,0,0-5.3,1.235V6.994A1.256,1.256,0,0,0-4.023,8.226H8.744a1.256,1.256,0,0,0,1.273-1.233V1.235A1.257,1.257,0,0,0,8.744,0M7.472,5.769H-2.754v-3.3H7.472Z" transform="translate(5.296)" fill="#1e2859"/>
        </g>
        <g id="Group_351" data-name="Group 351" transform="translate(16.244 52.887)">
          <path id="Path_251" data-name="Path 251" d="M12.913,0H-6.551a1.242,1.242,0,0,0-1.27,1.233V6.994a1.247,1.247,0,0,0,1.27,1.233H12.913a1.256,1.256,0,0,0,1.273-1.233V1.233A1.251,1.251,0,0,0,12.913,0M11.641,5.769H-5.292v-3.3H11.641Z" transform="translate(7.821)" fill="#1e2859"/>
        </g>
        <g id="Group_352" data-name="Group 352" transform="translate(16.243 38.254)">
          <path id="Path_252" data-name="Path 252" d="M17.487,0-9.318.011a1.243,1.243,0,0,0-1.273,1.233V7A1.25,1.25,0,0,0-9.318,8.237H17.487A1.256,1.256,0,0,0,18.759,7V1.233A1.256,1.256,0,0,0,17.487,0M16.214,5.769H-8.059v-3.3H16.214Z" transform="translate(10.591)" fill="#1e2859"/>
        </g>
        <g id="Group_353" data-name="Group 353" transform="translate(16.242 23.631)">
          <path id="Path_253" data-name="Path 253" d="M28.012,0H-15.693a1.25,1.25,0,0,0-1.273,1.233V7a1.251,1.251,0,0,0,1.273,1.233H28.012A1.258,1.258,0,0,0,29.285,7V1.233A1.256,1.256,0,0,0,28.012,0M26.74,5.769H-14.434v-3.3H26.74Z" transform="translate(16.966)" fill="#1e2859"/>
        </g>
        <g id="Group_354" data-name="Group 354" transform="translate(16.242 23.631)">
          <path id="Path_254" data-name="Path 254" d="M28.012,0H-15.693a1.25,1.25,0,0,0-1.273,1.233V7a1.251,1.251,0,0,0,1.273,1.233H28.012A1.258,1.258,0,0,0,29.285,7V1.233A1.256,1.256,0,0,0,28.012,0M26.74,5.769H-14.434v-3.3H26.74Z" transform="translate(16.966)" fill="#1e2859"/>
        </g>
        <g id="Group_355" data-name="Group 355" transform="translate(16.243 38.254)">
          <path id="Path_255" data-name="Path 255" d="M17.487,0-9.318.011a1.243,1.243,0,0,0-1.273,1.233V7A1.25,1.25,0,0,0-9.318,8.237H17.487A1.256,1.256,0,0,0,18.759,7V1.233A1.256,1.256,0,0,0,17.487,0M16.214,5.769H-8.059v-3.3H16.214Z" transform="translate(10.591)" fill="#1e2859"/>
        </g>
        <g id="Group_356" data-name="Group 356" transform="translate(16.244 52.887)">
          <path id="Path_256" data-name="Path 256" d="M12.913,0H-6.551a1.242,1.242,0,0,0-1.27,1.233V6.994a1.247,1.247,0,0,0,1.27,1.233H12.913a1.256,1.256,0,0,0,1.273-1.233V1.233A1.251,1.251,0,0,0,12.913,0M11.641,5.769H-5.292v-3.3H11.641Z" transform="translate(7.821)" fill="#1e2859"/>
        </g>
        <g id="Group_357" data-name="Group 357" transform="translate(16.877 67.51)">
          <path id="Path_257" data-name="Path 257" d="M8.744,0H-4.023A1.252,1.252,0,0,0-5.3,1.235V6.994A1.256,1.256,0,0,0-4.023,8.226H8.744a1.256,1.256,0,0,0,1.273-1.233V1.235A1.257,1.257,0,0,0,8.744,0M7.472,5.769H-2.754v-3.3H7.472Z" transform="translate(5.296)" fill="#1e2859"/>
        </g>
        <g id="Group_358" data-name="Group 358" transform="translate(8.031 25.934)">
          <path id="Path_258" data-name="Path 258" d="M2.323,1.128A1.842,1.842,0,0,1,.459,2.938,1.851,1.851,0,0,1-1.407,1.117,1.827,1.827,0,0,1,.459-.683,1.828,1.828,0,0,1,2.323,1.128" transform="translate(1.407 0.683)" fill="#1e2859"/>
        </g>
        <g id="Group_359" data-name="Group 359" transform="translate(8.031 40.556)">
          <path id="Path_259" data-name="Path 259" d="M2.323,1.128A1.842,1.842,0,0,1,.459,2.938,1.843,1.843,0,0,1-1.407,1.128,1.843,1.843,0,0,1,.459-.683,1.835,1.835,0,0,1,2.323,1.128" transform="translate(1.407 0.683)" fill="#1e2859"/>
        </g>
        <g id="Group_360" data-name="Group 360" transform="translate(8.031 55.179)">
          <path id="Path_260" data-name="Path 260" d="M2.323,1.128A1.835,1.835,0,0,1,.459,2.938,1.843,1.843,0,0,1-1.407,1.128,1.843,1.843,0,0,1,.459-.683,1.835,1.835,0,0,1,2.323,1.128" transform="translate(1.407 0.683)" fill="#1e2859"/>
        </g>
        <g id="Group_361" data-name="Group 361" transform="translate(8.031 69.812)">
          <path id="Path_261" data-name="Path 261" d="M2.323,1.128A1.842,1.842,0,0,1,.459,2.938,1.843,1.843,0,0,1-1.407,1.128,1.836,1.836,0,0,1,.459-.683v.011a1.833,1.833,0,0,1,1.864,1.8" transform="translate(1.407 0.683)" fill="#1e2859"/>
        </g>
      </g>
    </g>
  </g>
</svg>
