<svg xmlns="http://www.w3.org/2000/svg" xmlns:xlink="http://www.w3.org/1999/xlink" width="110.432" height="68.432" viewBox="0 0 110.432 68.432">
  <defs>
    <clipPath id="clip-path">
      <path id="Path_266" data-name="Path 266" d="M0,33.522H110.432V-34.91H0Z" transform="translate(0 34.91)" fill="#1e2859"/>
    </clipPath>
  </defs>
  <g id="Group_6244" data-name="Group 6244" transform="translate(0 34.91)">
    <g id="Group_367" data-name="Group 367" transform="translate(0 -34.91)" clip-path="url(#clip-path)">
      <g id="Group_364" data-name="Group 364" transform="translate(27.609 0)">
        <path id="Path_263" data-name="Path 263" d="M17.607,15.712A17.092,17.092,0,0,0,26.526.744,17.2,17.2,0,0,0,9.272-16.363,17.2,17.2,0,0,0-7.984.744,17.092,17.092,0,0,0,.935,15.712,27.446,27.446,0,0,0-18.336,41.8v3.423a6.88,6.88,0,0,0,6.9,6.843h41.41a6.88,6.88,0,0,0,6.9-6.843V41.8A27.446,27.446,0,0,0,17.607,15.712M-4.532.744a13.8,13.8,0,0,1,27.608,0,13.8,13.8,0,0,1-27.608,0m37.96,44.482a3.441,3.441,0,0,1-3.452,3.421h-41.41a3.441,3.441,0,0,1-3.452-3.421V41.8A24.081,24.081,0,0,1,9.272,17.853,24.081,24.081,0,0,1,33.428,41.8Z" transform="translate(18.336 16.363)" fill="#1e2859"/>
      </g>
      <g id="Group_365" data-name="Group 365" transform="translate(79.331 15.397)">
        <path id="Path_264" data-name="Path 264" d="M9.3,10.689A11.945,11.945,0,0,0,14.517.843,12.043,12.043,0,0,0,2.438-11.132,12.043,12.043,0,0,0-9.641.843a11.944,11.944,0,0,0,5.218,9.844A19.055,19.055,0,0,0-9,13.222a1.7,1.7,0,0,0-.333,2.4,1.732,1.732,0,0,0,2.415.329A15.482,15.482,0,0,1,2.438,12.82a15.479,15.479,0,0,1,15.529,15.4v6.843a3.439,3.439,0,0,1-3.45,3.423H-4.138a1.718,1.718,0,0,0-1.727,1.711A1.717,1.717,0,0,0-4.138,41.9H14.517a6.879,6.879,0,0,0,6.9-6.843V28.216A18.839,18.839,0,0,0,9.3,10.689M-6.189.843A8.6,8.6,0,0,1,2.438-7.709,8.6,8.6,0,0,1,11.065.843,8.6,8.6,0,0,1,2.438,9.4,8.6,8.6,0,0,1-6.189.843" transform="translate(9.682 11.132)" fill="#1e2859"/>
      </g>
      <g id="Group_366" data-name="Group 366" transform="translate(0 15.396)">
        <path id="Path_265" data-name="Path 265" d="M14.9,11.93A19.13,19.13,0,0,0,10.325,9.4,11.939,11.939,0,0,0,15.541-.447,12.043,12.043,0,0,0,3.464-12.424,12.044,12.044,0,0,0-8.615-.447,11.939,11.939,0,0,0-3.395,9.4,18.839,18.839,0,0,0-15.517,26.926v6.843a6.88,6.88,0,0,0,6.9,6.843H10.041a1.711,1.711,0,1,0,0-3.423H-8.615a3.439,3.439,0,0,1-3.45-3.421V26.926a15.479,15.479,0,0,1,15.529-15.4,15.472,15.472,0,0,1,9.354,3.129,1.733,1.733,0,0,0,2.415-.329,1.7,1.7,0,0,0-.333-2.4M-5.163-.447A8.6,8.6,0,0,1,3.464-9,8.6,8.6,0,0,1,12.091-.447,8.6,8.6,0,0,1,3.464,8.106,8.6,8.6,0,0,1-5.163-.447" transform="translate(15.517 12.424)" fill="#1e2859"/>
      </g>
    </g>
  </g>
</svg>
