<?xml version="1.0" encoding="UTF-8"?>
<svg id="Layer_2" data-name="Layer 2" xmlns="http://www.w3.org/2000/svg" viewBox="0 0 514.9 378.57" fill="#1e2859">
  <g fill="#1e2859">
    <path d="M97.95,161.19h-45.06c-1.66,0-3-1.34-3-3v-19.02c0-1.66,1.34-3,3-3s3,1.34,3,3v16.02h39.06v-16.02c0-1.66,1.34-3,3-3s3,1.34,3,3v19.02c0,1.66-1.34,3-3,3Z"/>
    <path d="M97.95,328c-1.66,0-3-1.34-3-3v-16.02h-39.06v16.02c0,1.66-1.34,3-3,3s-3-1.34-3-3v-19.02c0-1.66,1.34-3,3-3h45.06c1.66,0,3,1.34,3,3v19.02c0,1.66-1.34,3-3,3Z"/>
    <g>
      <path d="M64.04,308.98c-1.66,0-3-1.34-3-3v-147.79c0-1.66,1.34-3,3-3s3,1.34,3,3v147.79c0,1.66-1.34,3-3,3Z"/>
      <path d="M86.81,308.98c-1.66,0-3-1.34-3-3v-147.79c0-1.66,1.34-3,3-3s3,1.34,3,3v147.79c0,1.66-1.34,3-3,3Z"/>
    </g>
    <path d="M170.92,161.19h-45.06c-1.66,0-3-1.34-3-3v-19.02c0-1.66,1.34-3,3-3s3,1.34,3,3v16.02h39.06v-16.02c0-1.66,1.34-3,3-3s3,1.34,3,3v19.02c0,1.66-1.34,3-3,3Z"/>
    <path d="M170.92,328c-1.66,0-3-1.34-3-3v-16.02h-39.06v16.02c0,1.66-1.34,3-3,3s-3-1.34-3-3v-19.02c0-1.66,1.34-3,3-3h45.06c1.66,0,3,1.34,3,3v19.02c0,1.66-1.34,3-3,3Z"/>
    <g>
      <path d="M137,308.98c-1.66,0-3-1.34-3-3v-147.79c0-1.66,1.34-3,3-3s3,1.34,3,3v147.79c0,1.66-1.34,3-3,3Z"/>
      <path d="M159.77,308.98c-1.66,0-3-1.34-3-3v-147.79c0-1.66,1.34-3,3-3s3,1.34,3,3v147.79c0,1.66-1.34,3-3,3Z"/>
    </g>
    <path d="M389.05,161.19h-45.06c-1.66,0-3-1.34-3-3v-19.02c0-1.66,1.34-3,3-3s3,1.34,3,3v16.02h39.06v-16.02c0-1.66,1.34-3,3-3s3,1.34,3,3v19.02c0,1.66-1.34,3-3,3Z"/>
    <path d="M389.05,328c-1.66,0-3-1.34-3-3v-16.02h-39.06v16.02c0,1.66-1.34,3-3,3s-3-1.34-3-3v-19.02c0-1.66,1.34-3,3-3h45.06c1.66,0,3,1.34,3,3v19.02c0,1.66-1.34,3-3,3Z"/>
    <g>
      <path d="M355.13,308.98c-1.66,0-3-1.34-3-3v-147.79c0-1.66,1.34-3,3-3s3,1.34,3,3v147.79c0,1.66-1.34,3-3,3Z"/>
      <path d="M377.9,308.98c-1.66,0-3-1.34-3-3v-147.79c0-1.66,1.34-3,3-3s3,1.34,3,3v147.79c0,1.66-1.34,3-3,3Z"/>
    </g>
    <path d="M462.01,161.19h-45.06c-1.66,0-3-1.34-3-3v-19.02c0-1.66,1.34-3,3-3s3,1.34,3,3v16.02h39.06v-16.02c0-1.66,1.34-3,3-3s3,1.34,3,3v19.02c0,1.66-1.34,3-3,3Z"/>
    <path d="M462.01,328c-1.66,0-3-1.34-3-3v-16.02h-39.06v16.02c0,1.66-1.34,3-3,3s-3-1.34-3-3v-19.02c0-1.66,1.34-3,3-3h45.06c1.66,0,3,1.34,3,3v19.02c0,1.66-1.34,3-3,3Z"/>
    <g>
      <path d="M428.1,308.98c-1.66,0-3-1.34-3-3v-147.79c0-1.66,1.34-3,3-3s3,1.34,3,3v147.79c0,1.66-1.34,3-3,3Z"/>
      <path d="M450.86,308.98c-1.66,0-3-1.34-3-3v-147.79c0-1.66,1.34-3,3-3s3,1.34,3,3v147.79c0,1.66-1.34,3-3,3Z"/>
    </g>
  </g>
  <g>
    <g>
      <path d="M494.29,118.07H20.61c-1.4,0-2.62-.97-2.93-2.34-.31-1.37.38-2.77,1.64-3.37L256.17.29c.81-.38,1.75-.38,2.57,0l236.84,112.07c1.27.6,1.95,2,1.64,3.37-.31,1.37-1.52,2.34-2.93,2.34ZM33.96,112.07h446.97L257.45,6.32,33.96,112.07Z"/>
      <path d="M480.61,142.18H34.29c-1.66,0-3-1.34-3-3v-24.11c0-1.66,1.34-3,3-3s3,1.34,3,3v21.11h440.32v-21.11c0-1.66,1.34-3,3-3s3,1.34,3,3v24.11c0,1.66-1.34,3-3,3Z"/>
    </g>
    <g>
      <g>
        <path d="M511.4,378.57H3.51c-1.94,0-3.51-1.57-3.51-3.51v-24.32c0-1.94,1.57-3.51,3.51-3.51h507.89c1.94,0,3.51,1.57,3.51,3.51v24.32c0,1.94-1.57,3.51-3.51,3.51ZM7.01,371.56h500.88v-17.31H7.01v17.31Z"/>
        <path d="M496.91,354.25c-1.94,0-3.51-1.57-3.51-3.51v-22.24H21.5v22.24c0,1.94-1.57,3.51-3.51,3.51s-3.51-1.57-3.51-3.51v-25.75c0-1.94,1.57-3.51,3.51-3.51h478.91c1.94,0,3.51,1.57,3.51,3.51v25.75c0,1.94-1.57,3.51-3.51,3.51Z"/>
      </g>
      <path d="M314.99,328c-1.66,0-3-1.34-3-3v-96.04c0-30.07-24.47-54.54-54.54-54.54s-54.54,24.47-54.54,54.54v96.04c0,1.66-1.34,3-3,3s-3-1.34-3-3v-96.04c0-33.38,27.16-60.54,60.54-60.54s60.54,27.16,60.54,60.54v96.04c0,1.66-1.34,3-3,3Z"/>
      <path d="M257.45,328c-1.66,0-3-1.34-3-3v-104.74c0-1.66,1.34-3,3-3s3,1.34,3,3v104.74c0,1.66-1.34,3-3,3Z"/>
    </g>
  </g>
</svg>