<svg xmlns="http://www.w3.org/2000/svg" xmlns:xlink="http://www.w3.org/1999/xlink" width="125.09" height="92.099" viewBox="0 0 125.09 92.099">
  <defs>
    <clipPath id="clip-path">
      <path id="Path_268" data-name="Path 268" d="M0,56.949H125.09v-92.1H0Z" transform="translate(0 35.15)" fill="rgba(30,40,89,0.36)"/>
    </clipPath>
  </defs>
  <g id="Group_6245" data-name="Group 6245" transform="translate(0 35.15)">
    <g id="Group_370" data-name="Group 370" transform="translate(0 -35.15)" clip-path="url(#clip-path)">
      <g id="Group_369" data-name="Group 369" transform="translate(0.001 0)">
        <path id="Path_267" data-name="Path 267" d="M2.518,16.809l57.9-27.056a1.352,1.352,0,0,1,1.148,0l58.016,27.108a1.353,1.353,0,0,1-.574,2.578h-2.552v4.281a1.361,1.361,0,0,1-1.357,1.357h-3.469V28.4a1.361,1.361,0,0,1-1.357,1.357h-1.263v33.31h1.263a1.359,1.359,0,0,1,1.357,1.357v3.32h7.394a1.361,1.361,0,0,1,1.357,1.357v4.276h1.8a1.361,1.361,0,0,1,1.36,1.357v5.633a1.361,1.361,0,0,1-1.36,1.357H-.2a1.361,1.361,0,0,1-1.357-1.357V74.733A1.361,1.361,0,0,1-.2,73.376H1.6V69.1a1.361,1.361,0,0,1,1.357-1.357h7.394v-3.32a1.359,1.359,0,0,1,1.357-1.357h1.263V29.755H11.709A1.361,1.361,0,0,1,10.352,28.4v-3.32H6.883a1.361,1.361,0,0,1-1.357-1.357V19.445H2.974a1.357,1.357,0,0,1-.456-2.636ZM59.63,43.595a1.359,1.359,0,0,1,2.717,0V67.742H73.655V46.537a12.663,12.663,0,0,0-25.327.005V67.748H59.635V43.6ZM45.606,67.742V46.537a15.382,15.382,0,0,1,30.763,0V67.742h4.179v-3.32a1.361,1.361,0,0,1,1.357-1.357h1.263V29.758H81.906a1.361,1.361,0,0,1-1.357-1.36v-3.32H41.427V28.4a1.361,1.361,0,0,1-1.357,1.36H38.807V63.065H40.07a1.361,1.361,0,0,1,1.357,1.357v3.32ZM1.16,79.009H120.819V76.093H1.16Zm0-2.916,3.155-2.717H117.661V70.46H4.315Zm0-2.916M98.1,67.742v-3.32a1.359,1.359,0,0,1,1.357-1.357h1.263V29.758H99.459A1.36,1.36,0,0,1,98.1,28.4v-3.32H94.074V28.4a1.361,1.361,0,0,1-1.357,1.36H91.454V63.065h1.263a1.361,1.361,0,0,1,1.357,1.357v3.32Zm-70.2,0v-3.32a1.361,1.361,0,0,1,1.357-1.357h1.263V29.758H29.259A1.361,1.361,0,0,1,27.9,28.4v-3.32H23.877V28.4a1.361,1.361,0,0,1-1.357,1.36H21.257V63.065H22.52a1.361,1.361,0,0,1,1.357,1.357v3.32Zm72.919,0h8.088V65.785h-8.088Zm0-1.957,5.468-36.022h-2.843V63.071h2.843Zm0,33.308,2.62-37.987h-8.088v1.957h8.088Zm-25.638,40.7v1.957H91.36c0-3.44-4.494-1.957-8.088-1.957M88.74,29.763H85.892V63.071H88.74Zm0,33.308,2.62-37.987H83.271v1.957H91.36ZM30.619,67.742h8.088V65.785H30.619Zm0-1.957,5.468-36.022H33.239V63.071h2.848Zm0,33.308,2.62-37.987H30.619v1.957h8.088ZM13.067,67.742h8.088V65.785H13.067Zm0-1.957,5.468-36.022H15.692V63.071h2.843Zm0,33.308,2.62-37.987H13.067v1.957h8.088Zm92.576-5.633H8.24v2.916H113.731ZM60.99-7.519,9.073,16.736H112.9L60.984-7.519Z" transform="translate(1.554 10.375)" fill="rgba(30,40,89,0.36)"/>
      </g>
    </g>
  </g>
</svg>
