<svg id="Group_6250" data-name="Group 6250" xmlns="http://www.w3.org/2000/svg" xmlns:xlink="http://www.w3.org/1999/xlink" width="115.834" height="85.162" viewBox="0 0 115.834 85.162">
  <defs>
    <clipPath id="clip-path">
      <rect id="Rectangle_2882" data-name="Rectangle 2882" width="115.834" height="85.162" fill="#1e2859" stroke="#1e2859" stroke-width="1.2"/>
    </clipPath>
  </defs>
  <g id="Group_6249" data-name="Group 6249" clip-path="url(#clip-path)">
    <path id="Path_16104" data-name="Path 16104" d="M60.7,141.793H50.565a.674.674,0,0,1-.675-.675V136.84a.675.675,0,1,1,1.35,0v3.6h8.787v-3.6a.675.675,0,1,1,1.35,0v4.279a.674.674,0,0,1-.675.675" transform="translate(-38.667 -105.533)" fill="#1e2859" stroke="#1e2859" stroke-width="1.2"/>
    <path id="Path_16105" data-name="Path 16105" d="M60.7,308.6a.674.674,0,0,1-.675-.675v-3.6H51.24v3.6a.675.675,0,1,1-1.35,0V303.65a.674.674,0,0,1,.675-.675H60.7a.674.674,0,0,1,.675.675v4.279a.674.674,0,0,1-.675.675" transform="translate(-38.667 -234.818)" fill="#1e2859" stroke="#1e2859" stroke-width="1.2"/>
    <path id="Path_16106" data-name="Path 16106" d="M61.715,189.782a.674.674,0,0,1-.675-.675V155.86a.675.675,0,0,1,1.35,0v33.247a.674.674,0,0,1-.675.675" transform="translate(-47.308 -120.275)" fill="#1e2859" stroke="#1e2859" stroke-width="1.2"/>
    <path id="Path_16107" data-name="Path 16107" d="M84.485,189.782a.674.674,0,0,1-.675-.675V155.86a.675.675,0,0,1,1.35,0v33.247a.674.674,0,0,1-.675.675" transform="translate(-64.956 -120.275)" fill="#1e2859" stroke="#1e2859" stroke-width="1.2"/>
    <path id="Path_16108" data-name="Path 16108" d="M133.672,141.793H123.535a.674.674,0,0,1-.675-.675V136.84a.675.675,0,0,1,1.35,0v3.6H133v-3.6a.675.675,0,1,1,1.35,0v4.279a.674.674,0,0,1-.675.675" transform="translate(-95.221 -105.533)" fill="#1e2859" stroke="#1e2859" stroke-width="1.2"/>
    <path id="Path_16109" data-name="Path 16109" d="M133.672,308.6a.674.674,0,0,1-.675-.675v-3.6H124.21v3.6a.675.675,0,1,1-1.35,0V303.65a.674.674,0,0,1,.675-.675h10.137a.674.674,0,0,1,.675.675v4.279a.674.674,0,0,1-.675.675" transform="translate(-95.221 -234.818)" fill="#1e2859" stroke="#1e2859" stroke-width="1.2"/>
    <path id="Path_16110" data-name="Path 16110" d="M134.675,189.782a.674.674,0,0,1-.675-.675V155.86a.675.675,0,0,1,1.35,0v33.247a.674.674,0,0,1-.675.675" transform="translate(-103.855 -120.275)" fill="#1e2859" stroke="#1e2859" stroke-width="1.2"/>
    <path id="Path_16111" data-name="Path 16111" d="M157.445,189.782a.674.674,0,0,1-.675-.675V155.86a.675.675,0,0,1,1.35,0v33.247a.674.674,0,0,1-.675.675" transform="translate(-121.503 -120.275)" fill="#1e2859" stroke="#1e2859" stroke-width="1.2"/>
    <path id="Path_16112" data-name="Path 16112" d="M351.8,141.793H341.665a.674.674,0,0,1-.675-.675V136.84a.675.675,0,1,1,1.35,0v3.6h8.787v-3.6a.675.675,0,1,1,1.35,0v4.279a.674.674,0,0,1-.675.675" transform="translate(-264.281 -105.533)" fill="#1e2859" stroke="#1e2859" stroke-width="1.2"/>
    <path id="Path_16113" data-name="Path 16113" d="M351.8,308.6a.674.674,0,0,1-.675-.675v-3.6H342.34v3.6a.675.675,0,1,1-1.35,0V303.65a.674.674,0,0,1,.675-.675H351.8a.674.674,0,0,1,.675.675v4.279a.674.674,0,0,1-.675.675" transform="translate(-264.281 -234.818)" fill="#1e2859" stroke="#1e2859" stroke-width="1.2"/>
    <path id="Path_16114" data-name="Path 16114" d="M352.8,189.782a.674.674,0,0,1-.675-.675V155.86a.675.675,0,0,1,1.35,0v33.247a.674.674,0,0,1-.675.675" transform="translate(-272.915 -120.275)" fill="#1e2859" stroke="#1e2859" stroke-width="1.2"/>
    <path id="Path_16115" data-name="Path 16115" d="M375.575,189.782a.674.674,0,0,1-.675-.675V155.86a.675.675,0,0,1,1.35,0v33.247a.674.674,0,0,1-.675.675" transform="translate(-290.563 -120.275)" fill="#1e2859" stroke="#1e2859" stroke-width="1.2"/>
    <path id="Path_16116" data-name="Path 16116" d="M424.762,141.793H414.625a.674.674,0,0,1-.675-.675V136.84a.675.675,0,1,1,1.35,0v3.6h8.787v-3.6a.675.675,0,1,1,1.35,0v4.279a.674.674,0,0,1-.675.675" transform="translate(-320.828 -105.533)" fill="#1e2859" stroke="#1e2859" stroke-width="1.2"/>
    <path id="Path_16117" data-name="Path 16117" d="M424.762,308.6a.674.674,0,0,1-.675-.675v-3.6H415.3v3.6a.675.675,0,1,1-1.35,0V303.65a.674.674,0,0,1,.675-.675h10.137a.674.674,0,0,1,.675.675v4.279a.674.674,0,0,1-.675.675" transform="translate(-320.828 -234.818)" fill="#1e2859" stroke="#1e2859" stroke-width="1.2"/>
    <path id="Path_16118" data-name="Path 16118" d="M425.775,189.782a.674.674,0,0,1-.675-.675V155.86a.675.675,0,0,1,1.35,0v33.247a.674.674,0,0,1-.675.675" transform="translate(-329.469 -120.275)" fill="#1e2859" stroke="#1e2859" stroke-width="1.2"/>
    <path id="Path_16119" data-name="Path 16119" d="M448.535,189.782a.674.674,0,0,1-.675-.675V155.86a.675.675,0,0,1,1.35,0v33.247a.674.674,0,0,1-.675.675" transform="translate(-347.109 -120.275)" fill="#1e2859" stroke="#1e2859" stroke-width="1.2"/>
    <path id="Path_16120" data-name="Path 16120" d="M124.841,26.56H18.282a.675.675,0,0,1-.29-1.285L71.274.064a.684.684,0,0,1,.578,0l53.28,25.211a.675.675,0,0,1-.29,1.285ZM21.285,25.21h100.55L71.561,1.421Z" transform="translate(-13.646)" fill="#1e2859" stroke="#1e2859" stroke-width="1.2"/>
    <path id="Path_16121" data-name="Path 16121" d="M132.369,118.839H31.965a.674.674,0,0,1-.675-.675V112.74a.675.675,0,1,1,1.35,0v4.749h99.054V112.74a.675.675,0,1,1,1.35,0v5.424A.674.674,0,0,1,132.369,118.839Z" transform="translate(-24.251 -86.855)" fill="#1e2859" stroke="#1e2859" stroke-width="1.2"/>
    <path id="Path_16122" data-name="Path 16122" d="M115.045,354.275H.79a.789.789,0,0,1-.79-.79v-5.471a.789.789,0,0,1,.79-.79H115.045a.789.789,0,0,1,.79.79v5.471A.789.789,0,0,1,115.045,354.275ZM1.577,352.7H114.255V348.8H1.577Z" transform="translate(0 -269.113)" fill="#1e2859" stroke="#1e2859" stroke-width="1.2"/>
    <path id="Path_16123" data-name="Path 16123" d="M123.007,328.847a.789.789,0,0,1-.79-.79v-5H16.059v5a.79.79,0,1,1-1.579,0v-5.793a.789.789,0,0,1,.79-.79H123.005a.789.789,0,0,1,.79.79v5.793a.789.789,0,0,1-.79.79Z" transform="translate(-11.223 -249.156)" fill="#1e2859" stroke="#1e2859" stroke-width="1.2"/>
    <path id="Path_16124" data-name="Path 16124" d="M223.473,204.314a.674.674,0,0,1-.675-.675V182.034a12.269,12.269,0,1,0-24.539,0v21.605a.675.675,0,1,1-1.35,0V182.034a13.619,13.619,0,1,1,27.238,0v21.605a.674.674,0,0,1-.675.675" transform="translate(-152.613 -130.528)" fill="#1e2859" stroke="#1e2859" stroke-width="1.2"/>
    <path id="Path_16125" data-name="Path 16125" d="M255.125,242.167a.674.674,0,0,1-.675-.675V217.93a.675.675,0,0,1,1.35,0v23.562a.674.674,0,0,1-.675.675" transform="translate(-197.209 -168.381)" fill="#1e2859" stroke="#1e2859" stroke-width="1.2"/>
  </g>
</svg>
