<svg xmlns="http://www.w3.org/2000/svg" xmlns:xlink="http://www.w3.org/1999/xlink" width="69.443" height="91.07" viewBox="0 0 69.443 91.07">
  <defs>
    <clipPath id="clip-path">
      <path id="Path_270" data-name="Path 270" d="M0,1.029H69.443v-91.07H0Z" transform="translate(0 90.041)" fill="rgba(30,40,89,0.36)"/>
    </clipPath>
  </defs>
  <g id="Group_6246" data-name="Group 6246" transform="translate(0 90.041)">
    <g id="Group_373" data-name="Group 373" transform="translate(0 -90.041)" clip-path="url(#clip-path)">
      <g id="Group_372" data-name="Group 372" transform="translate(-0.001)">
        <path id="Path_269" data-name="Path 269" d="M0,0H-60.123a1.337,1.337,0,0,0-1.334,1.337v5.7h-5.317a1.337,1.337,0,0,0-1.335,1.337v81.36a1.338,1.338,0,0,0,1.335,1.337H-6.653a1.338,1.338,0,0,0,1.335-1.337v-5.7H0A1.335,1.335,0,0,0,1.334,82.7V1.337A1.336,1.336,0,0,0,0,0M-65.439,88.4V9.713H-22.4V23.974a1.337,1.337,0,0,0,1.335,1.336H-7.986V88.4ZM-9.7,22.637H-19.734V11.783l4.8,5.2Zm8.37,58.721H-5.317V23.974c0-.028-.014-.054-.016-.081a1.327,1.327,0,0,0-.06-.32,1.059,1.059,0,0,0-.04-.124,1.345,1.345,0,0,0-.239-.383l-14.417-15.6a1.333,1.333,0,0,0-.4-.285c-.042-.019-.083-.032-.124-.049a1.341,1.341,0,0,0-.372-.078c-.028,0-.052-.017-.081-.017H-58.789V2.674H-1.335ZM-58.322,29.038A1.337,1.337,0,0,1-56.988,27.7h16.745a1.335,1.335,0,0,1,1.334,1.337,1.335,1.335,0,0,1-1.334,1.337H-56.988a1.337,1.337,0,0,1-1.334-1.337m41.988,6.993a1.336,1.336,0,0,1-1.333,1.337H-56.988a1.335,1.335,0,0,1-1.334-1.337,1.335,1.335,0,0,1,1.334-1.337h39.321a1.335,1.335,0,0,1,1.333,1.337m0,6.991a1.333,1.333,0,0,1-1.331,1.337H-56.988a1.335,1.335,0,0,1-1.374-1.3,1.335,1.335,0,0,1,1.293-1.377q.041,0,.081,0h39.321a1.334,1.334,0,0,1,1.333,1.335m0,6.992a1.336,1.336,0,0,1-1.333,1.337H-56.988a1.335,1.335,0,0,1-1.334-1.337,1.335,1.335,0,0,1,1.334-1.337h39.321a1.335,1.335,0,0,1,1.333,1.336Zm0,6.993a1.335,1.335,0,0,1-1.331,1.339H-56.988a1.335,1.335,0,0,1-1.334-1.337,1.335,1.335,0,0,1,1.334-1.337h39.321a1.335,1.335,0,0,1,1.333,1.335m0,6.992a1.335,1.335,0,0,1-1.333,1.337H-56.988a1.335,1.335,0,0,1-1.374-1.3,1.335,1.335,0,0,1,1.293-1.377q.041,0,.081,0h39.321A1.334,1.334,0,0,1-16.334,64m0,6.991a1.334,1.334,0,0,1-1.331,1.337H-56.988a1.336,1.336,0,0,1-1.374-1.3,1.336,1.336,0,0,1,1.293-1.378q.041,0,.081,0h39.321a1.334,1.334,0,0,1,1.333,1.336" transform="translate(68.109)" fill="rgba(30,40,89,0.36)"/>
      </g>
    </g>
  </g>
</svg>
