<svg xmlns="http://www.w3.org/2000/svg" width="162.66" height="208" viewBox="0 0 162.66 208">
  <g id="Group_6221" data-name="Group 6221" transform="translate(229.683 -1603.004)">
    <g id="Group_404" data-name="Group 404" transform="translate(-229.683 1603.005)">
      <path id="Path_287" data-name="Path 287" d="M111.3,172.048H-20.822a2.436,2.436,0,0,1-2.436-2.436V-33.515a2.436,2.436,0,0,1,2.436-2.436H119.387a2.436,2.436,0,0,1,2.436,2.436V119.578a2.436,2.436,0,0,1-4.871,0L116.945-31.08H-18.387V167.171H111.3a2.439,2.439,0,0,1,.006,4.877Z" transform="translate(23.258 35.951)" fill="#fff"/>
    </g>
    <g id="Group_405" data-name="Group 405" transform="translate(-216.88 1794.735)">
      <path id="Path_288" data-name="Path 288" d="M83.069,4.034H-14.922A2.44,2.44,0,0,1-17.358,1.6,2.44,2.44,0,0,1-14.922-.837L83.069-.843a2.439,2.439,0,0,1,0,4.877Z" transform="translate(17.358 0.843)" fill="#fff"/>
    </g>
    <g id="Group_406" data-name="Group 406" transform="translate(-209.283 1759.194)">
      <path id="Path_289" data-name="Path 289" d="M14.4,33.432H-.572A2.436,2.436,0,0,1-3.008,31V-4.55A2.432,2.432,0,0,1-.572-6.986H14.4A2.436,2.436,0,0,1,16.831-4.55V31A2.44,2.44,0,0,1,14.4,33.432M1.864,28.555h10.09V-2.114H1.864Z" transform="translate(3.008 6.986)" fill="#fff"/>
    </g>
    <g id="Group_407" data-name="Group 407" transform="translate(-182.157 1742.346)">
      <path id="Path_290" data-name="Path 290" d="M14.4,47.368H-.572a2.436,2.436,0,0,1-2.436-2.436V-7.462A2.436,2.436,0,0,1-.572-9.9H14.4a2.44,2.44,0,0,1,2.436,2.436V44.927A2.43,2.43,0,0,1,14.4,47.368M1.869,42.491h10.09V-5.026H1.869Z" transform="translate(3.008 9.898)" fill="#fff"/>
    </g>
    <g id="Group_408" data-name="Group 408" transform="translate(-155.032 1723.636)">
      <path id="Path_291" data-name="Path 291" d="M14.4,62.845H-.563A2.436,2.436,0,0,1-3,60.409L-3.01-10.7A2.436,2.436,0,0,1-.574-13.132H14.393A2.432,2.432,0,0,1,16.829-10.7V60.4A2.424,2.424,0,0,1,14.4,62.845M1.873,57.968h10.09V-8.255H1.873Z" transform="translate(3.01 13.132)" fill="#fff"/>
    </g>
    <g id="Group_409" data-name="Group 409" transform="translate(-127.897 1708.205)">
      <path id="Path_292" data-name="Path 292" d="M9.466,75.608H.458a2.44,2.44,0,0,1-2.436-2.436V-13.363A2.436,2.436,0,0,1,.458-15.8H15.425a2.432,2.432,0,0,1,2.436,2.436V38.331a2.436,2.436,0,0,1-4.872,0V-10.927H2.905V70.731H9.466a2.439,2.439,0,0,1,0,4.877Z" transform="translate(1.978 15.799)" fill="#fff"/>
    </g>
    <g id="Group_410" data-name="Group 410" transform="translate(-200.741 1617.892)">
      <path id="Path_293" data-name="Path 293" d="M70.11,17.956H-12.214A2.436,2.436,0,0,1-14.65,15.52V-1.316a2.44,2.44,0,0,1,2.436-2.436H70.11a2.44,2.44,0,0,1,2.436,2.436V15.52a2.44,2.44,0,0,1-2.436,2.436M-9.778,13.084H67.674V1.12H-9.778Z" transform="translate(14.65 3.752)" fill="#fff"/>
    </g>
    <g id="Group_411" data-name="Group 411" transform="translate(-192.326 1650.186)">
      <path id="Path_294" data-name="Path 294" d="M56.183,4.03H-9.3A2.44,2.44,0,0,1-11.74,1.594,2.44,2.44,0,0,1-9.3-.842H56.183a2.436,2.436,0,1,1,0,4.872" transform="translate(11.74 0.842)" fill="#fff"/>
    </g>
    <g id="Group_412" data-name="Group 412" transform="translate(-192.326 1662.343)">
      <path id="Path_295" data-name="Path 295" d="M56.183,4.03H-9.3A2.44,2.44,0,0,1-11.74,1.594,2.44,2.44,0,0,1-9.3-.842H56.183a2.436,2.436,0,1,1,0,4.872" transform="translate(11.74 0.842)" fill="#fff"/>
    </g>
    <g id="Group_413" data-name="Group 413" transform="translate(-192.326 1674.512)">
      <path id="Path_296" data-name="Path 296" d="M56.183,4.03H-9.3A2.44,2.44,0,0,1-11.74,1.594,2.44,2.44,0,0,1-9.3-.842H56.183a2.436,2.436,0,1,1,0,4.872" transform="translate(11.74 0.842)" fill="#fff"/>
    </g>
    <g id="Group_414" data-name="Group 414" transform="translate(-192.326 1686.669)">
      <path id="Path_297" data-name="Path 297" d="M56.183,4.03H-9.3A2.44,2.44,0,0,1-11.74,1.594,2.44,2.44,0,0,1-9.3-.842H56.183a2.436,2.436,0,1,1,0,4.872" transform="translate(11.74 0.842)" fill="#fff"/>
    </g>
    <g id="Group_415" data-name="Group 415" transform="translate(-215.268 1656.844)">
      <path id="Path_298" data-name="Path 298" d="M6.652,23.546A8.241,8.241,0,0,1,2.4,22.36,8.152,8.152,0,0,1-.852,18.709a2.339,2.339,0,0,1,4.258-1.938,3.593,3.593,0,0,0,4.125,1.99,3.536,3.536,0,0,0,2.21-1.632,3.584,3.584,0,0,0-1.221-4.924A3.593,3.593,0,0,0,6.5,11.639a1.626,1.626,0,0,1-.336,0A8.206,8.206,0,0,1,2.608,10.43,8.269,8.269,0,1,1,13.838-1.113a2.338,2.338,0,0,1-.717,3.228A2.331,2.331,0,0,1,9.892,1.4,3.533,3.533,0,0,0,8.724.27a3.587,3.587,0,1,0-3.7,6.144,3.718,3.718,0,0,0,1.394.538,8.219,8.219,0,0,1,4.507,1.232A8.268,8.268,0,0,1,8.648,23.291,7.773,7.773,0,0,1,6.652,23.546Z" transform="translate(1.39 4.92)" fill="#fff"/>
    </g>
    <g id="Group_416" data-name="Group 416" transform="translate(-209.44 1680.632)">
      <path id="Path_299" data-name="Path 299" d="M1.933,8.049A2.338,2.338,0,0,1-.4,5.712V.655a2.337,2.337,0,0,1,4.675,0V5.712A2.338,2.338,0,0,1,1.933,8.049" transform="translate(0.404 1.682)" fill="#fff"/>
    </g>
    <g id="Group_417" data-name="Group 417" transform="translate(-209.44 1650.275)">
      <path id="Path_300" data-name="Path 300" d="M1.933,9.3A2.338,2.338,0,0,1-.4,6.961V.394a2.337,2.337,0,0,1,4.675,0V6.961A2.338,2.338,0,0,1,1.933,9.3" transform="translate(0.404 1.943)" fill="#fff"/>
    </g>
    <g id="Group_418" data-name="Group 418" transform="translate(-210.387 1704.657)">
      <path id="Path_301" data-name="Path 301" d="M38.692,3.872H-5.742A2.34,2.34,0,0,1-8.085,1.534,2.341,2.341,0,0,1-5.742-.809H38.692a2.34,2.34,0,0,1,0,4.681" transform="translate(8.085 0.809)" fill="#fff"/>
    </g>
    <g id="Group_419" data-name="Group 419" transform="translate(-202.9 1714.379)">
      <path id="Path_302" data-name="Path 302" d="M26.311,3.872H-3.155A2.343,2.343,0,0,1-5.5,1.534,2.344,2.344,0,0,1-3.155-.809H26.311a2.34,2.34,0,0,1,0,4.681" transform="translate(5.498 0.809)" fill="#fff"/>
    </g>
    <g id="Group_420" data-name="Group 420" transform="translate(-197.99 1724.094)">
      <path id="Path_303" data-name="Path 303" d="M18.185,3.872H-1.463A2.338,2.338,0,0,1-3.8,1.534,2.34,2.34,0,0,1-1.463-.809H18.185a2.34,2.34,0,0,1,0,4.681" transform="translate(3.8 0.809)" fill="#fff"/>
    </g>
    <g id="Group_421" data-name="Group 421" transform="translate(-123.236 1754.796)">
      <path id="Path_304" data-name="Path 304" d="M23.249,46.492A28.1,28.1,0,1,1,51.355,18.386,28.136,28.136,0,0,1,23.249,46.492m0-51.342A23.232,23.232,0,1,0,46.478,18.386,23.262,23.262,0,0,0,23.249-4.849" transform="translate(4.858 9.715)" fill="#fff"/>
    </g>
    <g id="Group_422" data-name="Group 422" transform="translate(-113.16 1773.867)">
      <path id="Path_305" data-name="Path 305" d="M5.653,14.936A2.445,2.445,0,0,1,3.408,13.46L-.983,3.214a2.442,2.442,0,1,1,4.49-1.921l3.379,7.88L31.376-2.873a2.443,2.443,0,0,1,3.263,1.111A2.435,2.435,0,0,1,33.528,1.5L6.735,14.681A2.436,2.436,0,0,1,5.653,14.936Z" transform="translate(1.181 3.121)" fill="#fff"/>
    </g>
  </g>
</svg>
