<?xml version="1.0" encoding="UTF-8"?>
<svg id="Layer_1" xmlns="http://www.w3.org/2000/svg" version="1.1" viewBox="0 0 199.9 200.7">
  <!-- Generator: Adobe Illustrator 29.3.1, SVG Export Plug-In . SVG Version: 2.1.0 Build 151)  -->
  <defs>
    <style>
      .st0 {
        fill: #fff;
      }
    </style>
  </defs>
  <g>
    <g>
      <path class="st0" d="M43.6,194.5H2.1c-1.1,0-2.1-.9-2.1-2.1v-72.3c0-1.1.9-2.1,2.1-2.1h41.5c1.1,0,2.1.9,2.1,2.1v72.3c0,1.1-.9,2.1-2.1,2.1ZM4.1,190.4h37.4v-68.2H4.1v68.2Z"/>
      <path class="st0" d="M109.3,174.7c-.2,0-.4,0-.6-.1l-21.5-7.1h-5.7c0,0,0,0,0,0-1.1,0-2-.9-2.1-2,0-1.1.9-2.1,2-2.1h6c.2,0,.5,0,.7,0l21.8,7.2c1.1.4,1.7,1.5,1.3,2.6-.3.9-1.1,1.4-2,1.4h0Z"/>
      <path class="st0" d="M112.3,200.7c-18.9,0-30.6-5.7-39.3-11.9-12.4-8.9-26-3.2-28.6-2-.6.3-1.4.2-2-.1-.6-.4-1-1-1-1.7v-56.1c0-.9.6-1.8,1.5-2,3.7-1,7.2-1.7,10.5-2.2,27.4-3.8,39.1,10,46.1,18.2,1.3,1.5,2.4,2.9,3.5,3.8,5.1,4.9,12.5,7.1,18.9,9.1,2.8.9,5.6,1.7,7.7,2.7,1,.4,2,1,3,1.8,3.8,3,5.8,7.5,6.6,9.9,17.4-.2,37.8-9.2,38.1-9.3.1,0,.2,0,.4-.1,3-.7,6.2-1.4,9.5-1.5,8.7-.2,11.5,4.1,12.4,7.8h0c.7,3.1.1,6.1-1.8,8.5-2.6,3.3-7.1,4.9-8.9,5.4-34.3,14.7-58.7,19.8-76.6,19.8h0ZM57.7,179.8c5.4,0,11.7,1.3,17.7,5.7,30.6,22,75.8,7.1,111.8-8.3.1,0,.2,0,.4-.1.2,0,5.3-1.4,7.3-4.6.8-1.3,1-2.7.6-4.4h0c-.5-2.2-1.9-4.8-8.2-4.6-2.8.1-5.8.7-8.5,1.4-2.2,1-22.4,9.5-40,9.6-5.8,7.7-14.9,6-19.2,3.9l-11-3.6c-1.1-.4-1.7-1.5-1.3-2.6.3-1.1,1.5-1.7,2.6-1.3l11.2,3.7c0,0,.2,0,.3.1.4.2,8.8,4.3,14.1-2.6-.6-1.8-2.1-5.8-5.3-8.3-.7-.6-1.4-1-2.1-1.3-2-.9-4.5-1.7-7.3-2.5-6.6-2-14.8-4.5-20.6-10.1-1.2-1.1-2.4-2.5-3.8-4.1-6.9-8.1-17.3-20.3-42.4-16.8-2.7.4-5.5.9-8.4,1.7v51.5c2.8-1,7.1-2.1,12.1-2.1h0Z"/>
      <path class="st0" d="M109.3,174.7c-.2,0-.4,0-.6-.1l-21.8-7.2c-1.1-.4-1.7-1.5-1.3-2.6s1.5-1.7,2.6-1.3l21.8,7.2c1.1.4,1.7,1.5,1.3,2.6-.3.9-1.1,1.4-2,1.4h0Z"/>
      <path class="st0" d="M29.1,186.9c-4.2,0-7.6-3.4-7.6-7.6s3.4-7.6,7.6-7.6,7.6,3.4,7.6,7.6-3.4,7.6-7.6,7.6ZM29.1,175.8c-1.9,0-3.5,1.6-3.5,3.5s1.6,3.5,3.5,3.5,3.5-1.6,3.5-3.5-1.6-3.5-3.5-3.5Z"/>
    </g>
    <g>
      <path class="st0" d="M138.7,174.3h-1c-.9,0-1.8-.7-2-1.6,0,0-1.4-5.9-5.6-9.1-.7-.6-1.4-1-2.1-1.3-2-.9-4.5-1.7-7.3-2.5-6.6-2-14.8-4.5-20.6-10.1-1.2-1.1-2.4-2.5-3.8-4.1-6.9-8.1-17.3-20.3-42.4-16.8-.6,0-1.2-.1-1.6-.5s-.7-1-.7-1.6V31.7c0-.5.2-1.1.6-1.5L82,.6c.4-.4.9-.6,1.5-.6h103.8c1.1,0,2.1.9,2.1,2.1v159.2c0,1.1-.9,2-2,2.1-2.8.1-5.8.7-8.5,1.4-2.2,1-22.5,9.6-40.2,9.6h0ZM62.5,124c21,0,30.9,11.6,37.1,18.8,1.3,1.5,2.4,2.9,3.5,3.8,5.1,4.9,12.5,7.1,18.9,9.1,2.8.9,5.6,1.7,7.7,2.7,1,.4,2,1,3,1.8,3.8,3,5.8,7.5,6.6,9.9,17.4-.2,37.8-9.2,38.1-9.3.1,0,.2,0,.4-.1,2.4-.6,4.9-1.1,7.5-1.4V4.1h-100.9l-28.5,28.5v91.8c2.3-.2,4.6-.4,6.7-.4h0Z"/>
      <path class="st0" d="M83.5,33.8h-29.7c-.8,0-1.6-.5-1.9-1.3s-.1-1.7.5-2.2L82,.6c.6-.6,1.5-.8,2.2-.4.8.3,1.3,1.1,1.3,1.9v29.7c0,1.1-.9,2.1-2.1,2.1h0ZM58.8,29.7h22.6V7l-22.6,22.6h0Z"/>
    </g>
    <path class="st0" d="M105.7,44.9h-40.8c-1.1,0-2.1-.9-2.1-2.1s.9-2.1,2.1-2.1h40.8c1.1,0,2.1.9,2.1,2.1s-.9,2.1-2.1,2.1Z"/>
    <path class="st0" d="M105.7,56h-40.8c-1.1,0-2.1-.9-2.1-2.1s.9-2.1,2.1-2.1h40.8c1.1,0,2.1.9,2.1,2.1s-.9,2.1-2.1,2.1Z"/>
    <path class="st0" d="M105.7,67.2h-40.8c-1.1,0-2.1-.9-2.1-2.1s.9-2.1,2.1-2.1h40.8c1.1,0,2.1.9,2.1,2.1s-.9,2.1-2.1,2.1Z"/>
    <path class="st0" d="M135.4,85.7h-37.1c-1.1,0-2.1-.9-2.1-2.1s.9-2.1,2.1-2.1h37.1c1.1,0,2.1.9,2.1,2.1s-.9,2.1-2.1,2.1Z"/>
    <path class="st0" d="M172.5,100.5h-107.5c-1.1,0-2.1-.9-2.1-2.1s.9-2.1,2.1-2.1h107.5c1.1,0,2.1.9,2.1,2.1s-.9,2.1-2.1,2.1Z"/>
    <path class="st0" d="M172.5,115.4h-107.5c-1.1,0-2.1-.9-2.1-2.1s.9-2.1,2.1-2.1h107.5c1.1,0,2.1.9,2.1,2.1s-.9,2.1-2.1,2.1Z"/>
    <path class="st0" d="M176.2,59.7h-40.8c-1.1,0-2.1-.9-2.1-2.1V13.2c0-1.1.9-2.1,2.1-2.1h40.8c1.1,0,2.1.9,2.1,2.1v44.5c0,1.1-.9,2.1-2.1,2.1ZM137.4,55.6h36.7V15.2h-36.7s0,40.4,0,40.4Z"/>
  </g>
  <path class="st0" d="M172.5,138h-30.9c-1.1,0-2-.9-2-2s.9-2,2-2h30.9c1.1,0,2,.9,2,2s-.9,2-2,2Z"/>
  <path class="st0" d="M172.5,148.3h-20.1c-1.1,0-2-.9-2-2s.9-2,2-2h20.1c1.1,0,2,.9,2,2s-.9,2-2,2Z"/>
</svg>