<?xml version="1.0" encoding="UTF-8"?>
<svg id="Layer_1" xmlns="http://www.w3.org/2000/svg" version="1.1" viewBox="0 0 181.1 179.8">
  <!-- Generator: Adobe Illustrator 29.3.1, SVG Export Plug-In . SVG Version: 2.1.0 Build 151)  -->
  <defs>
    <style>
      .st0 {
        fill-rule: evenodd;
      }

      .st0, .st1 {
        fill: #fff;
      }
    </style>
  </defs>
  <g id="Layer_1-2">
    <path class="st0" d="M125.7,149.8h-33.8c-2.9,0-2.9-4.4,0-4.4h33.8c2.9,0,2.9,4.4,0,4.4ZM157,161.1c-.9,0-1.7-.6-2-1.4-1.2-3.3-13.1-34.1-13.1-35.1V19.8c0-2.8,3.4-2.2,5.8-2.2V2.2c0-1.2,1-2.2,2.2-2.2h14.5c1.2,0,2.2,1,2.2,2.2v15.4c6.9,0,5.7-1,5.7,12.5h6.7c1.2,0,2.2,1,2.2,2.2v43.3c0,2.8-4.4,2.8-4.4,0v-41.1h-4.5v90.9c-.1,0-13.1,34.3-13.1,34.3-.3.8-1.1,1.4-2,1.4h0ZM147.2,126.8l4.9,12.8h10l4.8-12.8h-19.7ZM153.7,143.9l3.3,8.8,3.3-8.8h-6.7ZM164.3,22h-18.1v26.4h21.6v-26.4h-3.6,0ZM162.1,17.6V4.3h-10.1v13.3h10.1ZM146.2,122.4h8.6V52.7h-8.6s0,69.7,0,69.6ZM159.2,122.4h8.6V52.7h-8.6s0,69.7,0,69.6ZM135.7,161.1H19.2c-1.2,0-2.2-1-2.2-2.2V2.2c0-1.2,1-2.2,2.2-2.2h116.5c1.2,0,2.2,1,2.2,2.2v156.7c0,1.2-.9,2.2-2.2,2.2h0ZM21.4,156.7h112.1V4.3H21.4v152.3h0ZM125.7,84.9H29.3c-2.9,0-2.9-4.4,0-4.4h96.4c2.9,0,2.9,4.4,0,4.4h0ZM125.7,101.1H29.3c-2.9,0-2.9-4.3,0-4.3h96.4c2.9,0,2.9,4.3,0,4.3h0ZM125.7,117.4H29.3c-2.9,0-2.9-4.4,0-4.4h96.4c2.9,0,2.9,4.4,0,4.4h0ZM125.7,133.6H29.3c-2.9,0-2.9-4.4,0-4.4h96.4c2.9,0,2.9,4.4,0,4.4h0Z"/>
  </g>
  <path class="st1" d="M124.6,179.8H2c-1.1,0-2-.9-2-2V14.9c0-1.1.9-2,2-2h15c1.1,0,2,.9,2,2s-.9,2-2,2H4v158.9h118.6v-14.7c0-1.1.9-2,2-2s2,.9,2,2v16.7c0,1.1-.9,2-2,2h0Z"/>
  <path class="st1" d="M123.6,66.7h-35.7c-1.1,0-2-.9-2-2V17.6c0-1.1.9-2,2-2h35.7c1.1,0,2,.9,2,2v47.1c0,1.1-.9,2-2,2h0ZM89.9,62.7h31.7V19.6h-31.7v43.1h0Z"/>
  <path class="st1" d="M48.9,64.7v-4.2c-2.1-.3-3.8-.7-5.2-1.4s-2.5-1.8-3.4-3.3c-1-1.5-1.5-3.4-1.7-5.6l4.3-.8c.3,2.3.9,4,1.7,5,1.2,1.5,2.6,2.3,4.3,2.5v-13.5c-1.7-.3-3.5-1-5.3-2-1.3-.8-2.4-1.8-3.1-3.1s-1.1-2.8-1.1-4.5c0-3,1.1-5.5,3.2-7.3,1.4-1.3,3.5-2,6.4-2.3v-2h2.5v2c2.5.2,4.4,1,5.9,2.2,1.8,1.5,3,3.6,3.3,6.3l-4.4.7c-.2-1.7-.8-2.9-1.6-3.8-.8-.9-1.9-1.5-3.3-1.8v12.2c2.1.5,3.5,1,4.2,1.2,1.3.6,2.4,1.3,3.2,2.1.8.8,1.5,1.8,1.9,3,.5,1.2.7,2.4.7,3.7,0,2.9-.9,5.4-2.8,7.3s-4.3,3-7.2,3.2v4.3s-2.5,0-2.5,0ZM48.9,27.6c-1.7.2-3,.9-3.9,2s-1.4,2.3-1.4,3.8.4,2.7,1.2,3.6c.8,1,2.2,1.8,4.1,2.3v-11.7h0ZM51.4,56.8c1.7-.2,3-.9,4.1-2.1,1.1-1.2,1.6-2.7,1.6-4.5s-.4-2.8-1.1-3.7c-.8-.9-2.3-1.8-4.6-2.5v12.9h0Z"/>
</svg>