<?xml version="1.0" encoding="UTF-8"?>
<svg id="Layer_1" xmlns="http://www.w3.org/2000/svg" version="1.1" viewBox="0 0 159.1 191.1">
  <!-- Generator: Adobe Illustrator 29.3.1, SVG Export Plug-In . SVG Version: 2.1.0 Build 151)  -->
  <defs>
    <style>
      .st0 {
        fill: #fff;
      }
    </style>
  </defs>
  <g id="Attachment">
    <path class="st0" d="M158.5,45.3C118.5,5.3,121.4,7.9,120.3,7.8c-.5,0,4,0-63,0-2.8-6.5-10.3-9.6-16.9-6.8-3,1.3-5.5,3.7-6.8,6.7H10.8C4.8,7.7,0,12.6,0,18.5h0v161.6c0,6,4.8,10.9,10.7,10.9h137.6c5.9,0,10.8-4.9,10.8-10.8,0-142.3.3-134-.6-135h0ZM122.2,14.6l30.1,30.1h-23.3c-3.8,0-6.8-3-6.8-6.8h0V14.6ZM52.9,7.7h-14.8c2.7-4.1,8.2-5.2,12.3-2.5,1,.7,1.8,1.5,2.5,2.5ZM10.8,187.1c-3.8,0-6.8-3.1-6.8-6.8V18.6c0-3.8,3-6.8,6.8-6.9h10.6c-1.6,1.9-2.5,4.4-2.4,6.9v161.6c0,2.5.8,5,2.4,6.9h-10.6ZM148.3,187.1H29.7c-3.8,0-6.8-3.1-6.8-6.8V18.6c0-3.8,3-6.8,6.8-6.9h3v21.5c.3,7.1,6.3,12.6,13.4,12.4,6.7-.3,12.1-5.7,12.4-12.4v-12.8c-.2-4.1-3.7-7.2-7.8-7-3.8.2-6.8,3.2-7,7v12c0,1.1.9,2,2,2s2-.9,2-2v-12c.1-1.9,1.8-3.3,3.7-3.2,1.7.1,3,1.5,3.2,3.2v12.8c-.2,4.9-4.4,8.7-9.3,8.5-4.6-.2-8.2-3.9-8.5-8.5,0-23.7,0-20.2,0-21.5h81.5v26.1c0,6,4.8,10.8,10.8,10.8h26.1v131.5c0,3.8-3,6.8-6.8,6.9h0,0Z"/>
    <path class="st0" d="M138.9,146.1H39.2c-1.1,0-2,.9-2,2s.9,2,2,2h99.7c1.1,0,2-.9,2-2s-.9-2-2-2h0Z"/>
    <path class="st0" d="M89,161h-49.8c-1.1,0-2,.9-2,2s.9,2,2,2h49.8c1.1,0,2-.9,2-2s-.9-2-2-2Z"/>
    <path class="st0" d="M138.9,71.8H39.2c-1.1,0-2,.9-2,2s.9,2,2,2h99.7c1.1,0,2-.9,2-2s-.9-2-2-2h0Z"/>
    <path class="st0" d="M138.9,86.6H39.2c-1.1,0-2,.9-2,2s.9,2,2,2h99.7c1.1,0,2-.9,2-2s-.9-2-2-2h0Z"/>
    <path class="st0" d="M138.9,101.4H39.2c-1.1,0-2,.9-2,2s.9,2,2,2h99.7c1.1,0,2-.9,2-2s-.9-2-2-2h0Z"/>
    <path class="st0" d="M138.9,116.4H39.2c-1.1,0-2,.9-2,2s.9,2,2,2h99.7c1.1,0,2-.9,2-2s-.9-2-2-2h0Z"/>
    <path class="st0" d="M138.9,131.3H39.2c-1.1,0-2,.9-2,2s.9,2,2,2h99.7c1.1,0,2-.9,2-2s-.9-2-2-2h0Z"/>
  </g>
</svg>