<svg version="1.1" id="Layer_1" xmlns="http://www.w3.org/2000/svg" xmlns:xlink="http://www.w3.org/1999/xlink" x="0px" y="0px"
	 width="100%" viewBox="0 0 161 167" enable-background="new 0 0 161 167" xml:space="preserve">
<path fill="#0B344F" opacity="1.000000" stroke="none" 
	d="
M1.000000,109.000000 
	C1.000000,73.041817 1.000000,37.083630 1.000000,1.062722 
	C54.562454,1.062722 108.125000,1.062722 162.000000,1.062722 
	C162.000000,36.686954 162.000000,72.374817 161.537292,108.531708 
	C157.064392,109.000069 153.054169,108.999397 148.907578,108.547302 
	C148.816330,76.145950 148.861450,44.196033 148.828461,11.865198 
	C147.880295,11.130279 147.010208,10.776278 145.745453,10.549921 
	C122.352280,10.690365 99.352837,10.610710 76.356697,10.849853 
	C73.883415,10.875574 70.924019,12.194785 69.060333,13.877680 
	C63.254051,19.120716 57.721451,24.693823 52.420719,30.450186 
	C51.144611,31.835978 51.174904,34.424767 50.471622,36.535500 
	C50.380325,48.003994 50.421810,59.397305 50.317024,71.187241 
	C50.150112,79.901718 50.075672,88.219994 50.139370,96.537201 
	C50.160347,99.276306 49.406013,100.632393 46.743004,99.756691 
	C46.079082,98.037872 45.528301,96.611961 44.536133,95.021240 
	C34.399036,94.921555 24.703329,94.986679 14.599537,95.110962 
	C13.797915,99.779884 13.404378,104.389641 12.549524,108.997894 
	C8.392139,108.997589 4.696070,108.998795 1.000000,109.000000 
z"/>
<path fill="#0F3A4D" opacity="1.000000" stroke="none" 
	d="
M149.043961,108.998734 
	C153.054169,108.999397 157.064392,109.000069 161.537292,109.000366 
	C162.000000,128.635788 162.000000,148.271576 162.000000,167.953674 
	C108.448502,167.953674 54.896957,167.953674 1.000000,167.953674 
	C1.000000,148.647141 1.000000,129.292236 1.000000,109.468658 
	C4.696070,108.998795 8.392139,108.997589 12.694088,109.447487 
	C13.326426,121.552490 13.345473,133.206421 13.385476,144.860275 
	C13.393668,147.247070 13.182924,149.897934 17.463970,149.016357 
	C26.042290,149.104736 34.158062,149.122650 42.273808,149.113953 
	C44.296986,149.111771 46.607941,149.341888 45.842140,145.667068 
	C47.449459,144.234482 48.772144,142.543488 50.371387,142.220078 
	C55.962963,141.089325 60.947231,142.740265 66.109184,145.324570 
	C72.686829,148.617615 79.738213,152.015198 86.892906,152.910767 
	C109.755470,155.772476 130.409210,147.037628 150.792664,138.347397 
	C157.143509,135.639816 156.657349,128.239548 150.653336,124.441803 
	C149.736954,123.862152 148.817490,122.478149 148.790863,121.443245 
	C148.684311,117.299980 148.929108,113.147690 149.043961,108.998734 
z"/>
<path fill="#E6EAEC" opacity="1.000000" stroke="none" 
	d="
M148.907578,108.547302 
	C148.929108,113.147690 148.684311,117.299980 148.790863,121.443245 
	C148.817490,122.478149 149.736954,123.862152 150.653336,124.441803 
	C156.657349,128.239548 157.143509,135.639816 150.792664,138.347397 
	C130.409210,147.037628 109.755470,155.772476 86.892906,152.910767 
	C79.738213,152.015198 72.686829,148.617615 66.109184,145.324570 
	C60.947231,142.740265 55.962963,141.089325 50.371387,142.220078 
	C48.772144,142.543488 47.449459,144.234482 45.602787,145.723877 
	C44.468472,146.092422 43.731331,146.035461 43.026291,145.511383 
	C43.057365,129.355988 43.056343,113.667694 43.355087,97.883163 
	C44.095745,96.919968 44.536633,96.053017 44.977520,95.186058 
	C45.528301,96.611961 46.079082,98.037872 46.743004,99.756691 
	C49.406013,100.632393 50.160347,99.276306 50.139370,96.537201 
	C50.075672,88.219994 50.150112,79.901718 50.642399,71.453232 
	C51.820671,73.907425 52.527298,76.492256 53.382389,79.514488 
	C53.530849,86.214767 53.530849,92.477638 53.530849,99.028679 
	C64.852943,98.144173 74.454811,100.619308 81.384422,108.860184 
	C87.128128,115.690773 94.174950,119.549660 102.487587,122.221985 
	C105.964478,123.339714 108.640015,126.828987 111.825500,129.029205 
	C113.260880,130.020615 115.245003,131.372635 116.651855,131.064102 
	C126.299004,128.948410 135.859085,126.435745 145.244034,124.101456 
	C145.244034,86.923416 145.244034,50.637505 145.244034,14.212026 
	C121.457314,14.212026 97.908394,14.212026 74.050339,14.212026 
	C74.050339,20.047539 73.949600,25.521626 74.090134,30.989515 
	C74.167809,34.011658 73.002121,35.169899 69.977066,35.077564 
	C64.650970,34.914986 59.317039,35.008965 53.137444,35.353756 
	C51.727139,35.961437 51.165771,36.210880 50.604408,36.460320 
	C51.174904,34.424767 51.144611,31.835978 52.420719,30.450186 
	C57.721451,24.693823 63.254051,19.120716 69.060333,13.877680 
	C70.924019,12.194785 73.883415,10.875574 76.356697,10.849853 
	C99.352837,10.610710 122.352280,10.690365 146.005585,10.772963 
	C147.409134,11.327615 148.157852,11.786869 148.906570,12.246120 
	C148.861450,44.196033 148.816330,76.145950 148.907578,108.547302 
M136.562698,130.009445 
	C131.284012,131.416962 126.019951,132.882858 120.721115,134.209915 
	C117.571350,134.998764 113.865631,134.782898 111.301636,136.417526 
	C107.210854,139.025558 103.454071,139.482132 99.048744,137.968109 
	C91.825111,135.485474 84.558495,133.124146 77.276604,130.817032 
	C74.952560,130.080704 72.522652,129.678497 70.141182,129.123413 
	C70.200562,128.553711 70.259941,127.984024 70.319321,127.414337 
	C72.928696,127.414337 75.688385,126.864075 78.116554,127.527397 
	C83.382957,128.966080 88.478264,131.029816 93.646706,132.828873 
	C96.472420,133.812469 99.262276,135.358795 102.147141,135.568924 
	C104.501419,135.740402 106.972717,134.305283 109.392136,133.582504 
	C108.228676,131.502563 107.408562,129.082932 105.793121,127.450180 
	C104.501282,126.144493 102.305084,125.546844 100.401421,125.065338 
	C91.900215,122.915062 85.011246,118.573090 79.310951,111.751953 
	C71.244392,102.099258 60.313244,101.069557 48.767704,103.232323 
	C47.811367,103.411469 46.386681,104.860153 46.374069,105.736168 
	C46.211754,117.012978 46.266762,128.292923 46.266762,140.277191 
	C56.135220,136.807785 63.885170,140.273285 71.646477,145.190460 
	C79.003067,149.851227 87.536270,150.852188 96.150658,150.529984 
	C112.553818,149.916443 127.765671,144.619232 142.743149,138.475098 
	C145.338058,137.410614 148.034561,136.395889 150.300995,134.810471 
	C151.465424,133.995941 152.753448,131.284073 152.291473,130.634506 
	C151.208267,129.111450 149.051544,127.338371 147.424591,127.426361 
	C144.027710,127.610092 140.692383,128.931717 136.562698,130.009445 
M68.274277,31.942371 
	C69.153687,31.462585 70.771629,31.017679 70.796196,30.497520 
	C71.001068,26.159649 70.912506,21.807917 70.912506,18.747860 
	C66.245659,22.702358 61.332401,26.865662 55.338848,31.944365 
	C60.461990,31.944365 63.898232,31.944365 68.274277,31.942371 
z"/>
<path fill="#E6EAEC" opacity="1.000000" stroke="none" 
	d="
M17.001411,148.936035 
	C13.182924,149.897934 13.393668,147.247070 13.385476,144.860275 
	C13.345473,133.206421 13.326426,121.552490 13.155403,109.448997 
	C13.404378,104.389641 13.797915,99.779884 14.648599,95.400002 
	C15.726034,96.357697 16.346325,97.085510 16.815712,98.214371 
	C16.769506,114.445351 16.874201,130.275299 16.840761,146.298233 
	C16.802223,147.306168 16.901817,148.121094 17.001411,148.936035 
z"/>
<path fill="#EDF0F2" opacity="1.000000" stroke="none" 
	d="
M53.233929,79.077080 
	C52.527298,76.492256 51.820671,73.907425 50.788670,71.056610 
	C50.421810,59.397305 50.380325,48.003994 50.471626,36.535500 
	C51.165771,36.210880 51.727139,35.961437 52.975689,35.798595 
	C53.519894,50.282490 53.376911,64.679787 53.233929,79.077080 
z"/>
<path fill="#FDFDFE" opacity="1.000000" stroke="none" 
	d="
M16.966614,97.813324 
	C16.346325,97.085510 15.726034,96.357697 15.056683,95.340843 
	C24.703329,94.986679 34.399036,94.921555 44.536133,95.021240 
	C44.536633,96.053017 44.095745,96.919968 42.885323,97.828796 
	C33.732727,97.851555 25.349670,97.832443 16.966614,97.813324 
z"/>
<path fill="#0F3A4D" opacity="1.000000" stroke="none" 
	d="
M148.828461,11.865201 
	C148.157852,11.786869 147.409134,11.327615 146.400269,10.645319 
	C147.010208,10.776278 147.880295,11.130279 148.828461,11.865201 
z"/>
<path fill="#FDFDFE" opacity="1.000000" stroke="none" 
	d="
M17.463970,149.016357 
	C16.901817,148.121094 16.802223,147.306168 17.310764,146.298859 
	C26.277328,146.063828 34.635761,146.021164 42.994190,145.978500 
	C43.731331,146.035461 44.468472,146.092422 45.444965,146.092560 
	C46.607941,149.341888 44.296986,149.111771 42.273808,149.113953 
	C34.158062,149.122650 26.042290,149.104736 17.463970,149.016357 
z"/>
<path fill="#0F3850" opacity="1.000000" stroke="none" 
	d="
M53.382389,79.514488 
	C53.376911,64.679787 53.519894,50.282490 53.824631,35.440357 
	C59.317039,35.008965 64.650970,34.914986 69.977066,35.077564 
	C73.002121,35.169899 74.167809,34.011658 74.090134,30.989515 
	C73.949600,25.521626 74.050339,20.047539 74.050339,14.212026 
	C97.908394,14.212026 121.457314,14.212026 145.244034,14.212026 
	C145.244034,50.637505 145.244034,86.923416 145.244034,124.101456 
	C135.859085,126.435745 126.299004,128.948410 116.651855,131.064102 
	C115.245003,131.372635 113.260880,130.020615 111.825500,129.029205 
	C108.640015,126.828987 105.964478,123.339714 102.487587,122.221985 
	C94.174950,119.549660 87.128128,115.690773 81.384422,108.860184 
	C74.454811,100.619308 64.852943,98.144173 53.530849,99.028679 
	C53.530849,92.477638 53.530849,86.214767 53.382389,79.514488 
M140.651398,40.469139 
	C140.649918,34.472839 140.774811,28.471678 140.544403,22.484188 
	C140.496078,21.228676 139.165878,18.974083 138.382126,18.954542 
	C128.611954,18.710947 118.833618,18.795130 108.772461,18.795130 
	C108.772461,30.457150 108.772461,41.511620 108.772461,52.757538 
	C119.419792,52.757538 129.774002,52.757538 140.651245,52.757538 
	C140.651245,48.719135 140.651245,45.087803 140.651398,40.469139 
M100.500031,79.120743 
	C88.022163,79.054726 75.544144,78.940613 63.066643,78.983131 
	C61.494926,78.988487 59.926018,79.817810 58.355808,80.265366 
	C65.004784,83.188156 134.819031,82.547058 137.680725,80.082718 
	C125.673233,78.549683 113.561882,79.404167 100.500031,79.120743 
M101.500031,89.902168 
	C87.231377,89.902168 72.962715,89.902168 58.694061,89.902168 
	C62.140724,93.882431 134.846298,93.655037 138.585571,89.902168 
	C125.822990,89.902168 114.161522,89.902168 101.500031,89.902168 
M69.558960,55.375217 
	C65.812393,55.512413 62.065819,55.649609 56.974480,55.836048 
	C61.710110,59.709690 87.167046,59.656090 90.290352,55.651531 
	C83.707718,55.559498 77.125076,55.467464 69.558960,55.375217 
M59.025291,48.074451 
	C57.814194,51.926781 60.919903,50.691124 62.426441,50.715290 
	C70.379181,50.842861 78.335754,50.831333 86.289078,50.724571 
	C87.645424,50.706364 88.992439,49.992615 90.343758,49.600185 
	C90.269150,48.985592 90.194542,48.370998 90.119926,47.756405 
	C79.999817,47.756405 69.879707,47.756405 59.025291,48.074451 
M77.479149,42.844051 
	C81.642746,42.150959 86.307976,44.345112 89.942978,40.404900 
	C79.472115,40.404900 69.001251,40.404900 58.530392,40.404900 
	C58.510868,40.894390 58.491341,41.383877 58.471813,41.873367 
	C64.302155,43.986954 70.502602,42.308426 77.479149,42.844051 
M107.216537,71.909599 
	C108.600021,71.460793 109.983498,71.011993 111.366974,70.563187 
	C111.223663,70.179382 111.080345,69.795570 110.937027,69.411766 
	C101.411118,69.411766 91.885208,69.411766 81.545090,69.411766 
	C82.596298,70.687210 82.981445,71.573532 83.384857,71.581932 
	C91.011467,71.740448 98.640228,71.795235 107.216537,71.909599 
M126.496048,106.015579 
	C122.032654,106.102921 117.569260,106.190254 113.105865,106.277596 
	C116.940552,109.811104 134.646942,109.627251 137.491455,106.015594 
	C134.154831,106.015594 130.818207,106.015594 126.496048,106.015579 
M121.256615,113.930351 
	C121.217781,114.505913 121.078072,115.571442 121.154510,115.587173 
	C126.704773,116.729942 132.222244,116.863510 137.659775,115.548462 
	C137.668640,114.890511 137.677505,114.232567 137.686371,113.574615 
	C132.434814,113.574615 127.183258,113.574615 121.256615,113.930351 
z"/>
<path fill="#123C4F" opacity="1.000000" stroke="none" 
	d="
M136.947235,129.897675 
	C140.692383,128.931717 144.027710,127.610092 147.424591,127.426361 
	C149.051544,127.338371 151.208267,129.111450 152.291473,130.634506 
	C152.753448,131.284073 151.465424,133.995941 150.300995,134.810471 
	C148.034561,136.395889 145.338058,137.410614 142.743149,138.475098 
	C127.765671,144.619232 112.553818,149.916443 96.150658,150.529984 
	C87.536270,150.852188 79.003067,149.851227 71.646477,145.190460 
	C63.885170,140.273285 56.135220,136.807785 46.266762,140.277191 
	C46.266762,128.292923 46.211754,117.012978 46.374069,105.736168 
	C46.386681,104.860153 47.811367,103.411469 48.767704,103.232323 
	C60.313244,101.069557 71.244392,102.099258 79.310951,111.751953 
	C85.011246,118.573090 91.900215,122.915062 100.401421,125.065338 
	C102.305084,125.546844 104.501282,126.144493 105.793121,127.450180 
	C107.408562,129.082932 108.228676,131.502563 109.392136,133.582504 
	C106.972717,134.305283 104.501419,135.740402 102.147141,135.568924 
	C99.262276,135.358795 96.472420,133.812469 93.646706,132.828873 
	C88.478264,131.029816 83.382957,128.966080 78.116554,127.527397 
	C75.688385,126.864075 72.928696,127.414337 70.319321,127.414337 
	C70.259941,127.984024 70.200562,128.553711 70.141182,129.123413 
	C72.522652,129.678497 74.952560,130.080704 77.276604,130.817032 
	C84.558495,133.124146 91.825111,135.485474 99.048744,137.968109 
	C103.454071,139.482132 107.210854,139.025558 111.301636,136.417526 
	C113.865631,134.782898 117.571350,134.998764 120.721115,134.209915 
	C126.019951,132.882858 131.284012,131.416962 136.947235,129.897675 
z"/>
<path fill="#113B4F" opacity="1.000000" stroke="none" 
	d="
M43.026291,145.511383 
	C34.635761,146.021164 26.277328,146.063828 17.448895,146.105865 
	C16.874201,130.275299 16.769506,114.445351 16.815712,98.214371 
	C25.349670,97.832443 33.732727,97.851555 42.585552,97.925034 
	C43.056343,113.667694 43.057365,129.355988 43.026291,145.511383 
M35.882607,143.541641 
	C37.169125,141.497589 39.347958,139.489319 39.431805,137.397064 
	C39.488720,135.976990 36.829010,133.651657 34.987877,133.130051 
	C31.870392,132.246811 29.385752,134.205826 28.984634,137.418839 
	C28.445845,141.734634 30.910040,143.760727 35.882607,143.541641 
z"/>
<path fill="#183E59" opacity="1.000000" stroke="none" 
	d="
M67.804375,31.943367 
	C63.898232,31.944365 60.461990,31.944365 55.338848,31.944365 
	C61.332401,26.865662 66.245659,22.702358 70.912506,18.747860 
	C70.912506,21.807917 71.001068,26.159649 70.796196,30.497520 
	C70.771629,31.017679 69.153687,31.462585 67.804375,31.943367 
z"/>
<path fill="#EAEDF0" opacity="1.000000" stroke="none" 
	d="
M140.651321,40.962803 
	C140.651245,45.087803 140.651245,48.719135 140.651245,52.757538 
	C129.774002,52.757538 119.419792,52.757538 108.772461,52.757538 
	C108.772461,41.511620 108.772461,30.457150 108.772461,18.795130 
	C118.833618,18.795130 128.611954,18.710947 138.382126,18.954542 
	C139.165878,18.974083 140.496078,21.228676 140.544403,22.484188 
	C140.774811,28.471678 140.649918,34.472839 140.651321,40.962803 
M137.481232,39.452065 
	C137.481232,33.674343 137.481232,27.896622 137.481232,21.815952 
	C128.654587,21.815952 120.417931,21.815952 112.035202,21.815952 
	C112.035202,31.300571 112.035202,40.502140 112.035202,49.709900 
	C120.650505,49.709900 128.870621,49.709900 137.480881,49.709900 
	C137.480881,46.379456 137.480881,43.404552 137.481232,39.452065 
z"/>
<path fill="#E4E9EB" opacity="1.000000" stroke="none" 
	d="
M101.000031,79.120743 
	C113.561882,79.404167 125.673233,78.549683 137.680725,80.082718 
	C134.819031,82.547058 65.004784,83.188156 58.355808,80.265366 
	C59.926018,79.817810 61.494926,78.988487 63.066643,78.983131 
	C75.544144,78.940613 88.022163,79.054726 101.000031,79.120743 
z"/>
<path fill="#F3F5F6" opacity="1.000000" stroke="none" 
	d="
M102.000038,89.902168 
	C114.161522,89.902168 125.822990,89.902168 138.585571,89.902168 
	C134.846298,93.655037 62.140724,93.882431 58.694061,89.902168 
	C72.962715,89.902168 87.231377,89.902168 102.000038,89.902168 
z"/>
<path fill="#BFCAD1" opacity="1.000000" stroke="none" 
	d="
M70.050705,55.375324 
	C77.125076,55.467464 83.707718,55.559498 90.290352,55.651531 
	C87.167046,59.656090 61.710110,59.709690 56.974480,55.836048 
	C62.065819,55.649609 65.812393,55.512413 70.050705,55.375324 
z"/>
<path fill="#DAE0E4" opacity="1.000000" stroke="none" 
	d="
M59.392445,47.915428 
	C69.879707,47.756405 79.999817,47.756405 90.119926,47.756405 
	C90.194542,48.370998 90.269150,48.985592 90.343758,49.600185 
	C88.992439,49.992615 87.645424,50.706364 86.289078,50.724571 
	C78.335754,50.831333 70.379181,50.842861 62.426441,50.715290 
	C60.919903,50.691124 57.814194,51.926781 59.392445,47.915428 
z"/>
<path fill="#E2E7EA" opacity="1.000000" stroke="none" 
	d="
M76.983047,42.844048 
	C70.502602,42.308426 64.302155,43.986954 58.471813,41.873367 
	C58.491341,41.383877 58.510868,40.894390 58.530392,40.404900 
	C69.001251,40.404900 79.472115,40.404900 89.942978,40.404900 
	C86.307976,44.345112 81.642746,42.150959 76.983047,42.844048 
z"/>
<path fill="#E6EAEC" opacity="1.000000" stroke="none" 
	d="
M106.742538,71.890610 
	C98.640228,71.795235 91.011467,71.740448 83.384857,71.581932 
	C82.981445,71.573532 82.596298,70.687210 81.545090,69.411766 
	C91.885208,69.411766 101.411118,69.411766 110.937027,69.411766 
	C111.080345,69.795570 111.223663,70.179382 111.366974,70.563187 
	C109.983498,71.011993 108.600021,71.460793 106.742538,71.890610 
z"/>
<path fill="#EDF0F2" opacity="1.000000" stroke="none" 
	d="
M126.988815,106.015587 
	C130.818207,106.015594 134.154831,106.015594 137.491455,106.015594 
	C134.646942,109.627251 116.940552,109.811104 113.105865,106.277596 
	C117.569260,106.190254 122.032654,106.102921 126.988815,106.015587 
z"/>
<path fill="#D2DADE" opacity="1.000000" stroke="none" 
	d="
M121.594154,113.752487 
	C127.183258,113.574615 132.434814,113.574615 137.686371,113.574615 
	C137.677505,114.232567 137.668640,114.890511 137.659775,115.548462 
	C132.222244,116.863510 126.704773,116.729942 121.154510,115.587173 
	C121.078072,115.571442 121.217781,114.505913 121.594154,113.752487 
z"/>
<path fill="#D5DCE0" opacity="1.000000" stroke="none" 
	d="
M35.514099,143.651215 
	C30.910040,143.760727 28.445845,141.734634 28.984634,137.418839 
	C29.385752,134.205826 31.870392,132.246811 34.987877,133.130051 
	C36.829010,133.651657 39.488720,135.976990 39.431805,137.397064 
	C39.347958,139.489319 37.169125,141.497589 35.514099,143.651215 
z"/>
<path fill="#0B3450" opacity="1.000000" stroke="none" 
	d="
M137.481049,39.940857 
	C137.480881,43.404552 137.480881,46.379456 137.480881,49.709900 
	C128.870621,49.709900 120.650505,49.709900 112.035202,49.709900 
	C112.035202,40.502140 112.035202,31.300571 112.035202,21.815952 
	C120.417931,21.815952 128.654587,21.815952 137.481232,21.815952 
	C137.481232,27.896622 137.481232,33.674343 137.481049,39.940857 
z"/>
</svg>