<svg xmlns="http://www.w3.org/2000/svg" xmlns:xlink="http://www.w3.org/1999/xlink" width="1080" zoomAndPan="magnify" viewBox="0 0 810 809.999993" height="1080" preserveAspectRatio="xMidYMid meet" version="1.0"><defs><clipPath id="961dcd404a"><path d="M 49.617188 49.617188 L 760.617188 49.617188 L 760.617188 760.617188 L 49.617188 760.617188 Z M 49.617188 49.617188 " clip-rule="nonzero"/></clipPath><clipPath id="266d17faca"><path d="M 313.890625 212.179688 L 496.140625 212.179688 L 496.140625 597.679688 L 313.890625 597.679688 Z M 313.890625 212.179688 " clip-rule="nonzero"/></clipPath></defs><g clip-path="url(#961dcd404a)"><path fill="#ffffff" d="M 760.605469 405.113281 C 760.605469 410.929688 760.464844 416.746094 760.179688 422.554688 C 759.894531 428.367188 759.464844 434.167969 758.894531 439.957031 C 758.324219 445.746094 757.613281 451.519531 756.757812 457.273438 C 755.90625 463.027344 754.910156 468.757812 753.777344 474.464844 C 752.640625 480.171875 751.367188 485.847656 749.953125 491.488281 C 748.539062 497.132812 746.988281 502.738281 745.300781 508.308594 C 743.609375 513.875 741.785156 519.398438 739.824219 524.875 C 737.867188 530.351562 735.773438 535.777344 733.546875 541.152344 C 731.320312 546.527344 728.960938 551.847656 726.476562 557.105469 C 723.988281 562.363281 721.371094 567.558594 718.628906 572.691406 C 715.886719 577.820312 713.019531 582.882812 710.03125 587.871094 C 707.039062 592.863281 703.925781 597.777344 700.695312 602.613281 C 697.460938 607.453125 694.113281 612.207031 690.648438 616.878906 C 687.183594 621.554688 683.605469 626.136719 679.914062 630.636719 C 676.222656 635.132812 672.421875 639.535156 668.515625 643.847656 C 664.609375 648.160156 660.597656 652.371094 656.484375 656.484375 C 652.371094 660.597656 648.160156 664.609375 643.847656 668.515625 C 639.535156 672.421875 635.132812 676.222656 630.636719 679.914062 C 626.136719 683.605469 621.554688 687.183594 616.878906 690.648438 C 612.207031 694.113281 607.453125 697.460938 602.613281 700.695312 C 597.777344 703.925781 592.863281 707.039062 587.871094 710.03125 C 582.882812 713.019531 577.820312 715.886719 572.691406 718.628906 C 567.558594 721.371094 562.363281 723.988281 557.105469 726.476562 C 551.847656 728.960938 546.527344 731.320312 541.152344 733.546875 C 535.777344 735.773438 530.351562 737.867188 524.875 739.824219 C 519.398438 741.785156 513.875 743.609375 508.304688 745.300781 C 502.738281 746.988281 497.132812 748.539062 491.488281 749.953125 C 485.847656 751.367188 480.171875 752.640625 474.464844 753.777344 C 468.757812 754.910156 463.027344 755.90625 457.273438 756.757812 C 451.519531 757.613281 445.746094 758.324219 439.957031 758.894531 C 434.167969 759.464844 428.367188 759.894531 422.554688 760.179688 C 416.746094 760.464844 410.929688 760.605469 405.113281 760.605469 C 399.292969 760.605469 393.480469 760.464844 387.667969 760.179688 C 381.859375 759.894531 376.058594 759.464844 370.265625 758.894531 C 364.476562 758.324219 358.703125 757.613281 352.949219 756.757812 C 347.195312 755.90625 341.464844 754.910156 335.757812 753.777344 C 330.050781 752.640625 324.378906 751.367188 318.734375 749.953125 C 313.089844 748.539062 307.484375 746.988281 301.917969 745.300781 C 296.351562 743.609375 290.828125 741.785156 285.347656 739.824219 C 279.871094 737.867188 274.445312 735.773438 269.070312 733.546875 C 263.695312 731.320312 258.378906 728.960938 253.117188 726.476562 C 247.859375 723.988281 242.664062 721.371094 237.53125 718.628906 C 232.402344 715.886719 227.339844 713.019531 222.351562 710.03125 C 217.359375 707.039062 212.445312 703.925781 207.609375 700.695312 C 202.773438 697.460938 198.015625 694.113281 193.34375 690.648438 C 188.671875 687.183594 184.085938 683.605469 179.589844 679.914062 C 175.089844 676.222656 170.6875 672.421875 166.375 668.515625 C 162.066406 664.609375 157.851562 660.597656 153.738281 656.484375 C 149.625 652.371094 145.613281 648.160156 141.707031 643.847656 C 137.800781 639.535156 134 635.132812 130.3125 630.636719 C 126.621094 626.136719 123.042969 621.554688 119.574219 616.878906 C 116.109375 612.207031 112.761719 607.453125 109.527344 602.613281 C 106.296875 597.777344 103.183594 592.863281 100.195312 587.871094 C 97.203125 582.882812 94.335938 577.820312 91.59375 572.691406 C 88.851562 567.558594 86.234375 562.363281 83.75 557.105469 C 81.261719 551.847656 78.902344 546.527344 76.675781 541.152344 C 74.453125 535.777344 72.359375 530.351562 70.398438 524.875 C 68.4375 519.398438 66.613281 513.875 64.925781 508.308594 C 63.234375 502.738281 61.683594 497.132812 60.269531 491.488281 C 58.855469 485.847656 57.582031 480.171875 56.449219 474.464844 C 55.3125 468.757812 54.320312 463.027344 53.464844 457.273438 C 52.609375 451.519531 51.898438 445.746094 51.328125 439.957031 C 50.757812 434.167969 50.332031 428.367188 50.046875 422.554688 C 49.761719 416.746094 49.617188 410.929688 49.617188 405.113281 C 49.617188 399.292969 49.761719 393.480469 50.046875 387.667969 C 50.332031 381.859375 50.757812 376.058594 51.328125 370.265625 C 51.898438 364.476562 52.609375 358.703125 53.464844 352.949219 C 54.320312 347.195312 55.3125 341.464844 56.449219 335.757812 C 57.582031 330.050781 58.855469 324.378906 60.269531 318.734375 C 61.683594 313.089844 63.234375 307.484375 64.925781 301.917969 C 66.613281 296.351562 68.4375 290.828125 70.398438 285.347656 C 72.359375 279.871094 74.453125 274.445312 76.675781 269.070312 C 78.902344 263.695312 81.261719 258.378906 83.75 253.117188 C 86.234375 247.859375 88.851562 242.664062 91.59375 237.53125 C 94.335938 232.402344 97.203125 227.339844 100.195312 222.351562 C 103.183594 217.359375 106.296875 212.445312 109.527344 207.609375 C 112.761719 202.773438 116.109375 198.015625 119.574219 193.34375 C 123.042969 188.671875 126.621094 184.085938 130.3125 179.589844 C 134 175.089844 137.800781 170.6875 141.707031 166.375 C 145.613281 162.066406 149.625 157.851562 153.738281 153.738281 C 157.851562 149.625 162.066406 145.613281 166.375 141.707031 C 170.6875 137.800781 175.089844 134 179.589844 130.3125 C 184.085938 126.621094 188.671875 123.042969 193.34375 119.574219 C 198.015625 116.109375 202.773438 112.761719 207.609375 109.527344 C 212.445312 106.296875 217.359375 103.183594 222.351562 100.195312 C 227.339844 97.203125 232.402344 94.335938 237.53125 91.59375 C 242.664062 88.851562 247.859375 86.234375 253.117188 83.75 C 258.378906 81.261719 263.695312 78.902344 269.070312 76.675781 C 274.445312 74.453125 279.871094 72.359375 285.347656 70.398438 C 290.828125 68.4375 296.351562 66.613281 301.917969 64.925781 C 307.484375 63.234375 313.089844 61.683594 318.734375 60.269531 C 324.378906 58.855469 330.050781 57.582031 335.757812 56.449219 C 341.464844 55.3125 347.195312 54.320312 352.949219 53.464844 C 358.703125 52.613281 364.476562 51.898438 370.265625 51.328125 C 376.058594 50.757812 381.859375 50.332031 387.667969 50.046875 C 393.480469 49.761719 399.292969 49.617188 405.113281 49.617188 C 410.929688 49.617188 416.746094 49.761719 422.554688 50.046875 C 428.367188 50.332031 434.167969 50.757812 439.957031 51.328125 C 445.746094 51.898438 451.519531 52.613281 457.273438 53.464844 C 463.027344 54.320312 468.757812 55.3125 474.464844 56.449219 C 480.171875 57.582031 485.847656 58.855469 491.488281 60.269531 C 497.132812 61.683594 502.738281 63.234375 508.304688 64.925781 C 513.875 66.613281 519.398438 68.4375 524.875 70.398438 C 530.351562 72.359375 535.777344 74.453125 541.152344 76.675781 C 546.527344 78.902344 551.847656 81.261719 557.105469 83.75 C 562.363281 86.234375 567.558594 88.851562 572.691406 91.59375 C 577.820312 94.335938 582.882812 97.203125 587.871094 100.195312 C 592.863281 103.183594 597.777344 106.296875 602.613281 109.527344 C 607.453125 112.761719 612.207031 116.109375 616.878906 119.574219 C 621.554688 123.042969 626.136719 126.621094 630.636719 130.3125 C 635.132812 134 639.535156 137.800781 643.847656 141.707031 C 648.160156 145.613281 652.371094 149.625 656.484375 153.738281 C 660.597656 157.851562 664.609375 162.066406 668.515625 166.375 C 672.421875 170.6875 676.222656 175.089844 679.914062 179.589844 C 683.605469 184.085938 687.183594 188.671875 690.648438 193.34375 C 694.113281 198.015625 697.460938 202.773438 700.695312 207.609375 C 703.925781 212.445312 707.039062 217.359375 710.03125 222.351562 C 713.019531 227.339844 715.886719 232.402344 718.628906 237.53125 C 721.371094 242.664062 723.988281 247.859375 726.476562 253.117188 C 728.960938 258.378906 731.320312 263.695312 733.546875 269.070312 C 735.773438 274.445312 737.867188 279.871094 739.824219 285.347656 C 741.785156 290.828125 743.609375 296.351562 745.300781 301.917969 C 746.988281 307.484375 748.539062 313.089844 749.953125 318.734375 C 751.367188 324.378906 752.640625 330.050781 753.777344 335.757812 C 754.910156 341.464844 755.90625 347.195312 756.757812 352.949219 C 757.613281 358.707031 758.324219 364.476562 758.894531 370.265625 C 759.464844 376.058594 759.894531 381.859375 760.179688 387.667969 C 760.464844 393.480469 760.605469 399.292969 760.605469 405.113281 Z M 760.605469 405.113281 " fill-opacity="1" fill-rule="nonzero"/></g><g clip-path="url(#266d17faca)"><path fill="#1e2859" d="M 454.070312 276.140625 L 496.105469 276.140625 L 496.105469 212.761719 L 442.429688 212.761719 L 442.429688 213.003906 C 371.855469 215.589844 357.304688 255.121094 356.089844 296.914062 L 355.929688 296.914062 L 355.929688 340.890625 L 313.890625 340.890625 L 313.890625 404.351562 L 355.929688 404.351562 L 355.929688 597.238281 L 431.351562 597.238281 L 431.351562 404.351562 L 485.4375 404.351562 L 496.105469 340.890625 L 431.351562 340.890625 L 431.351562 301.523438 C 431.351562 287.539062 440.730469 276.140625 454.070312 276.140625 Z M 454.070312 276.140625 " fill-opacity="1" fill-rule="nonzero"/></g></svg>