<svg id="Group_121" data-name="Group 121" xmlns="http://www.w3.org/2000/svg" width="155.431" height="47.574" viewBox="0 0 155.431 47.574">
  <path id="Path_52" data-name="Path 52" d="M28.865,236.8c-2.377,0-1.374,3.54-1.189,4.7,0,.053.185,8,.238,9.827.37-.106.713-.185,1.083-.264l.713-.185c.026-1.77.211-9.351.211-9.4.158-1.215,1.4-4.676-1.057-4.676m-.66,26.944c.264-.079.528-.185.766-.238.185-.053.343-.106.528-.159,0-.5.158-7.581.185-8.849a16.69,16.69,0,0,0-1.638.475c.026.951.158,8,.158,8.77m.925,2.642c-.079.026-.317.132-.475.185s-.343.132-.343.185c0,0,.158,8.136.158,8.295,0,1.664.845,1.691.845,0,0-.106.185-8.8.185-8.8s-.238.079-.37.132m-1.955-22.665a12.718,12.718,0,0,0-1.876.766,4.608,4.608,0,0,0-2.589,1.321c-.317.37-.608.766-.9,1.162-.291.423-.317,1.109-.528,1.453a1.228,1.228,0,0,0-.238.845,1.586,1.586,0,0,1-.343.66,1.373,1.373,0,0,1-1.268.475,1.443,1.443,0,0,0,1.057-.079,5.348,5.348,0,0,0-.238.872,4.26,4.26,0,0,1,1.109-1.664,2.193,2.193,0,0,0,1.479-.449,11.313,11.313,0,0,0,2.721-1.955,3.627,3.627,0,0,1,1.638-1.242c0-.793-.026-1.532-.026-2.166m-3.91,3.513-.475.106.581-.951.66.026-.766.819m2.853,19.416a2.432,2.432,0,0,0,1.532,2.06c0-.185-.026-1.8-.026-1.823a.835.835,0,0,1,.581-.634,10.03,10.03,0,0,1,1.242-.476c.238-.079.423-.158.634-.211,1.559-.475,3.355-1.057,3.355-2.959s-1.532-2.668-3.223-3.249c-.026.608-.026,1.479-.053,2.087.713.264,1.189.608,1.189,1.162,0,.687-.713,1.057-1.242,1.268-.211.079-.528.185-.634.211-.423.132-.845.264-1.268.423a6.457,6.457,0,0,0-.634.264,2.255,2.255,0,0,0-1.453,1.876m10.144-18.306c0-1.928-1.4-4.042-4.808-4.781-.343-.053-.687-.106-1.03-.132,0,.291-.026.951-.026.951,0,.211-.026.977-.026,1.136.211.026.449.053.66.079,1.981.475,2.694,1.611,2.694,2.721,0,1.823-1.559,2.509-3.46,3.038l-.634.158c-.581.132-1.189.291-1.77.449a5.741,5.741,0,0,0-.634.185c-2.113.634-3.936,1.664-3.936,4.279s2.087,3.566,4.121,4.2c0-.74-.026-1.506-.053-2.245-.925-.423-1.532-.977-1.532-1.9a2.009,2.009,0,0,1,1.453-1.849q.277-.119.634-.238c.5-.185,1.083-.317,1.664-.475l.634-.158c2.853-.687,6.076-1.585,6.049-5.415m-6.34,21.476a3.921,3.921,0,0,1,2.219,2.43,3.512,3.512,0,0,0-2.193-3.645l-.026,1.215m15.85-24.3c1.03,1.242,2.827,1.955,3.883,3.2a9.449,9.449,0,0,0-6.895-7.344c1.638,1.215,1.981,2.906,3.011,4.147M5.883,254.763c2.3-4.993,5.706-3.936,7.159-8.664-.845,1.426-4.57,2.034-6.287,5.759.9-2.219.449-5.6,1.928-7.449-4.464,3.328-2.562,8.664-2.8,10.355M10,266.7c.423,1.928-.792,4.755,1.136,7.423-1.981-2.219-6.208-2.8-7.925-6.181,2.14,8.268,7.74,6.578,10.249,8.374-2.06-2.985-.37-4.966-3.46-9.615m-.634,5.2c-1.242-4.623.951-6.234-.713-10.672-.158,2.51-1.849,3.725-.713,8.295C5.962,265.646,2.9,264.193,2,261.552c.053,7.264,5.891,8.347,7.37,10.355m8.955,7.74c-1.717-2.377-.555-3.725-5.362-8.03,1.03,1.585-.026,3.566,3.223,6.63-3.17-1.876-7.581-1.083-9.695-3.593,3.645,6.974,10.038,4.121,11.834,4.993m23.378-1.4c3.249-3.091,2.193-5.072,3.223-6.63-4.834,4.306-3.645,5.653-5.389,8.03,1.823-.872,8.215,1.981,11.834-4.993-2.087,2.536-6.5,1.717-9.668,3.593m5.045-4.121c1.928-2.668.713-5.468,1.109-7.423-3.091,4.649-1.4,6.63-3.46,9.615,2.536-1.8,8.11-.106,10.249-8.374-1.717,3.381-5.917,3.962-7.9,6.181m-7.713,5.864a23.648,23.648,0,0,0-5.283-.792,12.973,12.973,0,0,0-4.808.819,12.973,12.973,0,0,0-4.808-.819,23.648,23.648,0,0,0-5.283.792c-2.906.766-5.415,1.374-7.608.264,2.087,1.849,4.544,2.536,8.083,2.14,2.932-.317,5.31-1.8,8.083-1.77h.106a14.662,14.662,0,0,0-4.57,3.566l1.347.185a7.342,7.342,0,0,1,4.649-3.566,7.342,7.342,0,0,1,4.649,3.566l1.347-.185a14.662,14.662,0,0,0-4.57-3.566h.106c2.774-.026,5.151,1.453,8.083,1.77,3.54.37,5.97-.291,8.083-2.14-2.193,1.109-4.7.5-7.608-.264M8.921,256.216c-1.189,2.3-3.064,2.827-2.853,7.555-1-4.2-3.408-5.785-3.381-8.453-1.664,7.027,2.774,7.846,3.936,10.8-.185-4.227,2.51-5.072,2.3-9.906m1.664-5.415a8.292,8.292,0,0,1-1.823,1.743,8.9,8.9,0,0,0-3.223,5.283c.106-2.589-1.479-6.287-.423-8.981-4.094,5.785.238,9.246.4,11.359,1.03-4.042,3.487-4.068,5.072-9.4m41.737,7.027a9.024,9.024,0,0,0-3.223-5.283,8.96,8.96,0,0,1-1.823-1.743c1.585,5.336,4.042,5.362,5.1,9.4.158-2.087,4.491-5.547.4-11.359,1.057,2.694-.528,6.393-.449,8.981m3.487,3.725c-.9,2.668-3.962,4.095-5.944,7.978,1.136-4.57-.555-5.785-.713-8.295-1.664,4.438.528,6.049-.713,10.672,1.479-2.008,7.317-3.091,7.37-10.355m-6.868-5.336c-.238,4.834,2.483,5.679,2.3,9.906,1.136-2.932,5.6-3.777,3.936-10.8.026,2.694-2.377,4.253-3.381,8.48.211-4.781-1.638-5.283-2.853-7.581m-36.982-10.7c1.03-1.242,1.374-2.932,3.011-4.147a9.4,9.4,0,0,0-6.921,7.317c1.057-1.242,2.879-1.955,3.91-3.17m32.756.528c1.453,4.755,4.861,3.7,7.159,8.664-.238-1.664,1.664-7.027-2.8-10.3,1.506,1.823,1.057,5.23,1.928,7.449-1.743-3.725-5.468-4.332-6.287-5.812m-11.623,2.721a10.939,10.939,0,0,0-2.721-.74v.608a11.36,11.36,0,0,1,2.51.687,1.6,1.6,0,0,0,.211-.555m-.687-5.891.185-.158-.343-.159-.925-.026-.238.158-.528-.053v.132a8.691,8.691,0,0,1,.951.106l.449-.026Zm-1.743,19.706c0-.159-.211-.317-.5-.449h-.053c0,.132-.026.74-.026,1.057.343-.185.581-.343.581-.608m-10.593-11.6c.026-.106.053-.238.079-.343a.879.879,0,0,1-.37.026Zm-4.253-4.253,2.166,2.166a14.963,14.963,0,0,0-4.147,10.144H10.77a17.942,17.942,0,0,1,5.045-12.31m-1.321,16.853-.185-.026-.185-.185-.872-.079.264.37-.792-.159.211-.185-.185-.185-.581.238-.211.37.079.872.66,1.585.317.5.185.053-.5-.951-.106-.476.106-.106-.079-.264.291.053.475.687.106.053v-.5l.185.106.053.264.475.132.211-.158.079.053v.37l.211.264.264.053.581.951.343.106.106-.449a15.029,15.029,0,0,0,2.113,2.721l-2.166,2.166A17.876,17.876,0,0,1,10.77,259.65h3.064a14.287,14.287,0,0,0,.66,3.936m3.011-3.962a5.392,5.392,0,0,0,.079.9l-.37.079-.079.37-.792,1,.026,1.374-.792.264h-.449a14.521,14.521,0,0,1-.687-3.989Zm.687,8.638.687.4.132.106-.5.5a8.791,8.791,0,0,1-.66-.74Zm2.8-16.351,2.166,2.166a7.141,7.141,0,0,0-1.136,1.664h-.158l-.317.079h-.106l-.317.291.423-.053.37-.079-.079.106-.317.211h-.158l-.475.37-.449-.053-.66,1.242.132.238-.37.423-.053.528H18.114a10.516,10.516,0,0,1,2.879-7.132m2.219,8.955.158-.079.4.291-.185.132.449.291L24,261.182l.238-.4.264.264.264.37-.475.132.211.423.317-.185-.053-.132.238-.159.132-.66a4.278,4.278,0,0,0,.713,1.083l-2.166,2.166a7.121,7.121,0,0,1-1.9-4.068l.449.475h.423Zm-3.117-2.3.053-.608.37-.211.66.106.106.106c-.053.343-.079.713-.106,1.057h-.74Zm-1,2.113-.291.449h-.5l-.026-.026a13.564,13.564,0,0,1-.158-1.453h.925l-.211.74Zm2.034,5.97c-.211-.238-.449-.476-.634-.713l.106-.766-.317-.74-.079-1.162-.37-.713.079-.449-.449-.845-.37-.185.158-.449-.158-.343.158-.4h.423l.158-.238h.713l.106.211-.158.713-.079.132.264.581-.185.106-.132-.159-.053.053.132.343.211.4h.106l.053-.37-.106-.132v-.238l-.026-.5.158-.9-.158-.238h.5a7.633,7.633,0,0,0,2.113,4.861Zm18.438,2.959a14.8,14.8,0,0,0,4.2-9.985h3.064A17.93,17.93,0,0,1,41.7,271.775Zm-.845-.845.238-.264-.238-1.189-.158-.053.106-.211-.5-.158-.106.423-.053.528-.106.106-.925-.924a11.26,11.26,0,0,0,3.144-7.4h3.064a14.227,14.227,0,0,1-4.042,9.563Zm-2.694,2.879.291-.608-.106-.264.423-.37v-.211l-.37-.238.291-.608.449-.581-.449-.475h-.343L36,267.944c.185-.158.37-.317.528-.475l2.166,2.166a13.32,13.32,0,0,1-2.668,2.008m-.423-5.97-.291-.291.211-.291.291-.581-.106-.158.185-.423-.026-.4-.106-.4-.264-.079-.106.211-.158-.053a9.238,9.238,0,0,0,.634-1.109l.264-.106.159-.211.079.079.185-.211-.158-.185.132-.026.238.106h.475l.291-.158.74-.211-.132-.238-.053-.291.4.185.158-.079-.079-.317-.5.185-.528-.106-.423-.845h2.351A10.713,10.713,0,0,1,36.5,266.65l-.317-.317.132-.423-.238-.951Zm-1.109-11.517,2.166-2.166a12.753,12.753,0,0,1,1.347,1.8l-.264.079.026.475.792.5a8.555,8.555,0,0,1,.5,1.374l-.132.211-.291.211-.079.449-.211.106-.158.211-.158-.079h-.291l.159-.238.132-.608.211-.132-.581-.555-.423.158-.106.423-.264.291-.291-.238-.106-.264.158-.106.079.158.132-.053-.053-.264H36.6V256l-.132.026-.66-.792-.238-.185.079-.079.211-.079-.211-.079s-.238.053-.264.053l.132.185h-.343a4.744,4.744,0,0,0-.687-.9m.343,11.808-.66-.185-.211.079-.37-.291-.343-.132c.185-.132.343-.264.5-.4l.555.4.423.211.211.211Zm-1.162-10.17.264-.053v-.053l-.264-.185.079-.581.317-.343a7.966,7.966,0,0,1,.581.74l-.106.343-.291-.211-.238.053.106.211h.106l-.132.317-.079-.132Zm3.672,2.113.555-.291.555-.079.132-.264.317-.185.132-.264.106-.449c.053.158.079.317.132.476l-.291.872v.291l.37-.608c.079.528.132,1.083.158,1.611H36.816l-.053-.238.317-.238.053-.159.132-.106.37-.053.026-.158Zm.608-7.185.74.026.185.211-.079.317,1.03.634.211-.026,1.294,1.506.528-.185a14.382,14.382,0,0,1,1.321,5.838H40.118a9.83,9.83,0,0,0-.291-2.325l.132-.185.185-.977-.132-1.03-.37-1.189-.845-1.242.211.106.106-.106-.687-.475-.053.159.687.977.4.793.264.792.079.528.132.9-.264.026s-.291-.555-.4-.792l.132-.211-.264-.37v-.343l-.185-.238-.238.026a2.509,2.509,0,0,0-.264-.449l.158.079.053-.053-.079-.185.211-.106-.079-.106-.291.106.106-.475-.185-.106-.158.37a14.7,14.7,0,0,0-1.109-1.426Zm3.91-3.936a17.982,17.982,0,0,1,4.993,12.257H43.79a14.873,14.873,0,0,0-1.585-6.551l.026-.053.211.106.053-.159-.555-.951-.66-.9-.766-.634c-.264-.317-.528-.634-.819-.951ZM28.812,277.85a18.659,18.659,0,0,0,1.876-37.22l-.026.106c-.026.185-.079.343-.106.5a17.973,17.973,0,0,1,10.857,5.072l-2.06,2.06.079-.37-.264-.132-.343.026.079-.238-.238-.845-.5-.555-1.611-.845-.132.158-.291.079a4.717,4.717,0,0,1,.845,2.694v.37l.792,1-.37.079.238.37-.713.713-.291-.528a4.939,4.939,0,0,1-.528,1.057l.159.132-2.193,2.166c-.132-.132-.264-.238-.4-.37a6.449,6.449,0,0,1-.634.264l.185.132-.106.106-.264.132-.106.264-.159-.159-.449.159.132.211.317-.079.211.026.026-.106.158-.079.053-.079.291-.079h.211l.132.106-.845.872-.053-.079-.9.158-.211.211-.185.026.555-.528-.211-.106-.528.687.158-.026v.264l.185.079.026.264-.317-.053-.317.053-.792-.4s-.053,2.113-.053,3.17c1.849.634,3.83,1.532,3.83,3.91a2.942,2.942,0,0,1-1.347,2.509l-.053.026-.053.053A9.829,9.829,0,0,1,30,266.28l-.026,1.664c1.347.66,2.959,1.638,2.8,4.385-.026.687-.291.872-.5.925a15.125,15.125,0,0,1-2.4.37v.608a14.988,14.988,0,0,0,9.3-4.094l2.166,2.166a18.014,18.014,0,0,1-24.937.053l2.166-2.166a15.155,15.155,0,0,0,9.193,4.042v-.608a14.214,14.214,0,0,1-8.717-3.883l.555-.581.792.079.423-.449,1.109.053.158-.4-.053-.159a11.284,11.284,0,0,0,5.653,2.245v-.608a10.746,10.746,0,0,1-6.076-2.774l2.166-2.166a7.421,7.421,0,0,0,1.77,1.189,2.182,2.182,0,0,1,.211-.581,7.774,7.774,0,0,1-1.532-1.03l2.166-2.166a4.023,4.023,0,0,0,1.136.634v-.66a3.178,3.178,0,0,1-.713-.423l.608-.608a5.941,5.941,0,0,1-.634-.211l-.423.423a3.612,3.612,0,0,1-.528-.766,6.136,6.136,0,0,1-1.083-.581,4.2,4.2,0,0,1-2.008-3.672,4.416,4.416,0,0,1,.872-2.8l-2.166-2.166a10.73,10.73,0,0,1,5.785-2.853v-.608a11.317,11.317,0,0,0-6.208,3.038l-.37-.37a5.02,5.02,0,0,0-.291.555l.238.238a11.25,11.25,0,0,0-3.064,7.529H14.442a14.389,14.389,0,0,1,3.962-9.721l.977.977h.132a1.921,1.921,0,0,0,.555-.159l-1.242-1.242a14.864,14.864,0,0,1,2.14-1.717,2.248,2.248,0,0,1,.158-.449,4.956,4.956,0,0,1,.475-.634,14.517,14.517,0,0,0-3.17,2.351l-2.166-2.166a18.077,18.077,0,0,1,10.751-5.019.321.321,0,0,0-.026-.132c-.026-.159-.053-.291-.079-.475a18.619,18.619,0,0,0,1.9,37.141m9.166-32.228-.185-.291-.4-.211-.317.238.4.211.449.317Zm-1.849,8.664.026.238.528-.158.158-.317-.37-.475.185-.291.5.343.079-.079-.106-.079-.106-.211.211-.106-.211-.264-.475.238-.158.291-.106.264.211.343-.079.158ZM13.993,268.024l.026-.132-.264-.608-.317-.132Zm12.495-11.517c0,.528.317.872.872,1.189v-.238l-.343-.37.185-.343.158-.053c-.026-.608-.026-1.268-.026-1.374h-.026a1.432,1.432,0,0,0-.819,1.189" transform="translate(-2 -236.8)" fill="#fff"/>
  <g id="Group_118" data-name="Group 118" transform="translate(58.168 7.846)">
    <path id="Path_53" data-name="Path 53" d="M229.993,272.73h-.026l-2.113,11.042h-2.906L222.2,270.3h2.325l1.9,10.382h.026l2.034-10.382H231.5l2.008,10.382h.026l1.981-10.382h2.245l-2.774,13.472h-2.959Z" transform="translate(-222.2 -269.296)" fill="#fff"/>
    <path id="Path_54" data-name="Path 54" d="M282.485,283c2.034,0,4.359,1.057,4.359,5.1,0,4.174-2.325,5.125-4.359,5.125s-4.385-.977-4.385-5.125C278.126,284.057,280.477,283,282.485,283Zm0,8.559c1.532,0,1.9-1.77,1.9-3.434s-.343-3.408-1.9-3.408-1.9,1.743-1.9,3.408S280.953,291.559,282.485,291.559Z" transform="translate(-263.333 -278.641)" fill="#fff"/>
    <path id="Path_55" data-name="Path 55" d="M315.479,284.87c0-.555-.026-1.083-.079-1.638h2.166c.026.608.079,1.215.079,1.823h.026a2.759,2.759,0,0,1,2.536-1.955,2.043,2.043,0,0,1,.4.053V285.4a2.865,2.865,0,0,0-.66-.106c-.977,0-2.061.608-2.061,2.457v5.442h-2.377Z" transform="translate(-290.78 -278.715)" fill="#fff"/>
    <path id="Path_56" data-name="Path 56" d="M338.7,266.5h2.4V280.95h-2.4Z" transform="translate(-307.925 -266.5)" fill="#fff"/>
    <path id="Path_57" data-name="Path 57" d="M361.227,266.5v12.759c0,.555.026,1.136.079,1.691h-2.245a14.89,14.89,0,0,1-.079-1.532h-.053a2.7,2.7,0,0,1-2.642,1.691c-2.457,0-3.487-2.351-3.487-5.1,0-3.249,1.294-5.125,3.434-5.125a2.662,2.662,0,0,1,2.562,1.585h.026V266.5Zm-4.306,12.838c1.4,0,1.876-1.532,1.876-3.381,0-1.928-.528-3.328-1.849-3.328s-1.8,1.294-1.8,3.276c.026,2.3.4,3.434,1.77,3.434Z" transform="translate(-318.301 -266.5)" fill="#fff"/>
  </g>
  <g id="Group_119" data-name="Group 119" transform="translate(108.226 7.846)">
    <path id="Path_58" data-name="Path 58" d="M411.7,270.3h2.483v5.468h3.989V270.3h2.457v13.472h-2.457V277.8h-3.989v5.944H411.7Z" transform="translate(-411.7 -269.296)" fill="#fff"/>
    <path id="Path_59" data-name="Path 59" d="M457.655,292.689a7.18,7.18,0,0,1-2.959.634c-3.2,0-4.6-2.3-4.6-4.966,0-2.959,1.559-5.257,4.094-5.257,2.14,0,3.962,1.242,3.962,5.31v.476h-5.732c0,1.691.687,2.721,2.536,2.721a4.1,4.1,0,0,0,2.615-.766Zm-1.823-5.336c0-1.743-.581-2.642-1.664-2.642-1.268,0-1.77,1.321-1.77,2.642Z" transform="translate(-439.956 -278.715)" fill="#fff"/>
    <path id="Path_60" data-name="Path 60" d="M482.977,283.74a7.228,7.228,0,0,1,3.143-.74c3.091,0,3.8,1.506,3.8,3.989v4.332a12.913,12.913,0,0,0,.132,1.743h-2.166a4.672,4.672,0,0,1-.132-1.347h-.026a3.182,3.182,0,0,1-2.774,1.506A2.842,2.842,0,0,1,482,290.317c0-2.694,2.192-3.381,5.23-3.381h.475v-.37a1.715,1.715,0,0,0-1.849-1.9,4.685,4.685,0,0,0-2.721.977Zm4.7,4.491h-.211c-2.034,0-3.249.423-3.249,1.875a1.446,1.446,0,0,0,1.347,1.532h.185c1.426,0,1.955-1.057,1.955-2.827v-.581Z" transform="translate(-463.43 -278.641)" fill="#fff"/>
    <path id="Path_61" data-name="Path 61" d="M520.7,266.5h2.377V280.95H520.7Z" transform="translate(-491.907 -266.5)" fill="#fff"/>
    <path id="Path_62" data-name="Path 62" d="M535.211,273.84l2.377-.74v2.774h1.981v1.743h-1.981v5.177c0,1.057.4,1.374,1.083,1.374a2.042,2.042,0,0,0,.9-.211v1.691a4.171,4.171,0,0,1-1.611.317c-1.77,0-2.774-.819-2.774-2.906v-5.415H533.6V275.9h1.585v-2.06Z" transform="translate(-501.399 -271.357)" fill="#fff"/>
    <path id="Path_63" data-name="Path 63" d="M559.7,266.5h2.377v5.811h.053a2.689,2.689,0,0,1,2.457-1.426c2.245,0,2.932,1.664,2.932,3.672v6.393h-2.377v-5.944c0-1.532-.4-2.166-1.374-2.166-1.241,0-1.691,1.057-1.691,2.325v5.785H559.7Z" transform="translate(-520.605 -266.5)" fill="#fff"/>
  </g>
  <g id="Group_120" data-name="Group 120" transform="translate(58.221 25.386)">
    <path id="Path_64" data-name="Path 64" d="M227.762,334.8c2.8,0,5.362,2.087,5.362,6.921s-2.562,6.921-5.362,6.921-5.362-2.087-5.362-6.921,2.562-6.921,5.362-6.921Zm0,11.966c1.559,0,2.826-1.321,2.826-5.045s-1.268-5.019-2.826-5.019-2.827,1.321-2.827,5.019S226.2,346.766,227.762,346.766Z" transform="translate(-222.4 -334.298)" fill="#fff"/>
    <path id="Path_65" data-name="Path 65" d="M266.479,349.87c0-.555-.026-1.083-.079-1.638h2.166c.026.608.079,1.215.079,1.823h.026a2.789,2.789,0,0,1,2.536-1.955,2.038,2.038,0,0,1,.4.053V350.4a2.873,2.873,0,0,0-.687-.106c-.977,0-2.06.608-2.06,2.457v5.442h-2.378Z" transform="translate(-254.777 -344.085)" fill="#fff"/>
    <path id="Path_66" data-name="Path 66" d="M289.155,360.423a6.079,6.079,0,0,0,2.932.845c2.245,0,2.615-1.559,2.615-3.117V357.2h-.026a2.738,2.738,0,0,1-2.615,1.691c-1.374,0-3.461-.925-3.461-4.94,0-2.747.977-5.151,3.593-5.151a2.81,2.81,0,0,1,2.615,1.691h.079c0-.528.053-1.03.079-1.532h2.166c-.026.528-.079,1.03-.079,1.559v7.317c0,3.117-.951,5.31-4.6,5.31a9.96,9.96,0,0,1-3.408-.608Zm3.46-3.3c1.506,0,2.113-1.083,2.113-3.328,0-2.087-.792-3.2-1.928-3.17-1.268.026-1.743,1.189-1.743,3.2C291.057,356.144,291.8,357.121,292.615,357.121Z" transform="translate(-271.113 -344.6)" fill="#fff"/>
    <path id="Path_67" data-name="Path 67" d="M325.977,348.74a6.876,6.876,0,0,1,3.143-.74c3.091,0,3.8,1.506,3.8,3.989v4.332a12.9,12.9,0,0,0,.132,1.743h-2.166a4.672,4.672,0,0,1-.132-1.347h-.026a3.183,3.183,0,0,1-2.774,1.506A2.842,2.842,0,0,1,325,355.317c0-2.694,2.192-3.381,5.23-3.381h.475v-.37a1.715,1.715,0,0,0-1.849-1.9,4.686,4.686,0,0,0-2.721.977Zm4.7,4.491h-.211c-2.034,0-3.249.423-3.249,1.876a1.446,1.446,0,0,0,1.347,1.532h.185c1.426,0,1.955-1.057,1.955-2.827Z" transform="translate(-297.897 -344.011)" fill="#fff"/>
    <path id="Path_68" data-name="Path 68" d="M362.479,349.87c0-.555-.026-1.083-.079-1.638h2.245c.026.5.079,1.03.079,1.532h.026a2.879,2.879,0,0,1,2.642-1.664c2.245,0,2.932,1.664,2.932,3.672v6.393h-2.4v-5.97c0-1.532-.4-2.166-1.374-2.166-1.242,0-1.691,1.057-1.691,2.325v5.785h-2.377Z" transform="translate(-325.418 -344.085)" fill="#fff"/>
    <path id="Path_69" data-name="Path 69" d="M398.7,332.9h2.483v2.351H398.7Zm.053,4.227h2.378v9.932h-2.378Z" transform="translate(-352.129 -332.9)" fill="#fff"/>
    <path id="Path_70" data-name="Path 70" d="M415.626,356.872l4.253-6.049h-4.121V349h6.5v2.034l-4.174,6.076h4.306v1.823H415.6v-2.06Z" transform="translate(-364.564 -344.747)" fill="#fff"/>
    <path id="Path_71" data-name="Path 71" d="M444.977,348.74a6.876,6.876,0,0,1,3.143-.74c3.091,0,3.8,1.506,3.8,3.989v4.332a12.919,12.919,0,0,0,.132,1.743h-2.166a4.671,4.671,0,0,1-.132-1.347h-.026a3.183,3.183,0,0,1-2.774,1.506A2.842,2.842,0,0,1,444,355.317c0-2.694,2.193-3.381,5.23-3.381h.476v-.37a1.715,1.715,0,0,0-1.849-1.9,4.686,4.686,0,0,0-2.721.977Zm4.7,4.491h-.211c-2.034,0-3.249.423-3.249,1.876a1.446,1.446,0,0,0,1.347,1.532h.185c1.426,0,1.955-1.057,1.955-2.827v-.581Z" transform="translate(-385.462 -344.011)" fill="#fff"/>
    <path id="Path_72" data-name="Path 72" d="M479.211,338.74l2.377-.74v2.774h1.981v1.743h-1.981v5.151c0,1.057.4,1.374,1.083,1.374a1.736,1.736,0,0,0,.9-.211v1.691a3.389,3.389,0,0,1-1.611.317c-1.77,0-2.774-.819-2.774-2.879v-5.442H477.6v-1.743h1.585Z" transform="translate(-410.187 -336.653)" fill="#fff"/>
    <path id="Path_73" data-name="Path 73" d="M505.7,332.9h2.457v2.351H505.7Zm.053,4.227h2.4v9.932h-2.377Z" transform="translate(-430.864 -332.9)" fill="#fff"/>
    <path id="Path_74" data-name="Path 74" d="M524.485,348.8c2.034,0,4.359,1.057,4.359,5.1,0,4.174-2.325,5.125-4.359,5.125s-4.385-.951-4.385-5.125C520.126,349.883,522.477,348.8,524.485,348.8Zm0,8.559c1.532,0,1.9-1.77,1.9-3.434s-.343-3.408-1.9-3.408-1.9,1.743-1.9,3.408S522.953,357.359,524.485,357.359Z" transform="translate(-441.46 -344.6)" fill="#fff"/>
    <path id="Path_75" data-name="Path 75" d="M560.479,349.87c0-.555-.026-1.083-.079-1.638h2.245c.026.5.079,1.03.079,1.532h.026a2.879,2.879,0,0,1,2.642-1.664c2.245,0,2.932,1.664,2.932,3.672v6.393h-2.377v-5.97c0-1.532-.4-2.166-1.374-2.166-1.242,0-1.691,1.057-1.691,2.325v5.785h-2.377Z" transform="translate(-471.114 -344.085)" fill="#fff"/>
  </g>
</svg>
