<svg xmlns="http://www.w3.org/2000/svg" xmlns:xlink="http://www.w3.org/1999/xlink" width="1080" zoomAndPan="magnify" viewBox="0 0 810 809.999993" height="1080" preserveAspectRatio="xMidYMid meet" version="1.0"><defs><clipPath id="54e73a25e9"><path d="M 49.617188 49.617188 L 760.617188 49.617188 L 760.617188 760.617188 L 49.617188 760.617188 Z M 49.617188 49.617188 " clip-rule="nonzero"/></clipPath><clipPath id="1037759c19"><path d="M 50.503906 50 L 759.253906 50 L 759.253906 760 L 50.503906 760 Z M 50.503906 50 " clip-rule="nonzero"/></clipPath></defs><g clip-path="url(#54e73a25e9)"><path fill="#ffffff" d="M 760.605469 405.113281 C 760.605469 410.929688 760.464844 416.746094 760.179688 422.554688 C 759.894531 428.367188 759.464844 434.167969 758.894531 439.957031 C 758.324219 445.746094 757.613281 451.519531 756.757812 457.273438 C 755.90625 463.027344 754.910156 468.757812 753.777344 474.464844 C 752.640625 480.171875 751.367188 485.847656 749.953125 491.488281 C 748.539062 497.132812 746.988281 502.738281 745.300781 508.308594 C 743.609375 513.875 741.785156 519.398438 739.824219 524.875 C 737.867188 530.351562 735.773438 535.777344 733.546875 541.152344 C 731.320312 546.527344 728.960938 551.847656 726.476562 557.105469 C 723.988281 562.363281 721.371094 567.558594 718.628906 572.691406 C 715.886719 577.820312 713.019531 582.882812 710.03125 587.871094 C 707.039062 592.863281 703.925781 597.777344 700.695312 602.613281 C 697.460938 607.453125 694.113281 612.207031 690.648438 616.878906 C 687.183594 621.554688 683.605469 626.136719 679.914062 630.636719 C 676.222656 635.132812 672.421875 639.535156 668.515625 643.847656 C 664.609375 648.160156 660.597656 652.371094 656.484375 656.484375 C 652.371094 660.597656 648.160156 664.609375 643.847656 668.515625 C 639.535156 672.421875 635.132812 676.222656 630.636719 679.914062 C 626.136719 683.605469 621.554688 687.183594 616.878906 690.648438 C 612.207031 694.113281 607.453125 697.460938 602.613281 700.695312 C 597.777344 703.925781 592.863281 707.039062 587.871094 710.03125 C 582.882812 713.019531 577.820312 715.886719 572.691406 718.628906 C 567.558594 721.371094 562.363281 723.988281 557.105469 726.476562 C 551.847656 728.960938 546.527344 731.320312 541.152344 733.546875 C 535.777344 735.773438 530.351562 737.867188 524.875 739.824219 C 519.398438 741.785156 513.875 743.609375 508.304688 745.300781 C 502.738281 746.988281 497.132812 748.539062 491.488281 749.953125 C 485.847656 751.367188 480.171875 752.640625 474.464844 753.777344 C 468.757812 754.910156 463.027344 755.90625 457.273438 756.757812 C 451.519531 757.613281 445.746094 758.324219 439.957031 758.894531 C 434.167969 759.464844 428.367188 759.894531 422.554688 760.179688 C 416.746094 760.464844 410.929688 760.605469 405.113281 760.605469 C 399.292969 760.605469 393.480469 760.464844 387.667969 760.179688 C 381.859375 759.894531 376.058594 759.464844 370.265625 758.894531 C 364.476562 758.324219 358.703125 757.613281 352.949219 756.757812 C 347.195312 755.90625 341.464844 754.910156 335.757812 753.777344 C 330.050781 752.640625 324.378906 751.367188 318.734375 749.953125 C 313.089844 748.539062 307.484375 746.988281 301.917969 745.300781 C 296.351562 743.609375 290.828125 741.785156 285.347656 739.824219 C 279.871094 737.867188 274.445312 735.773438 269.070312 733.546875 C 263.695312 731.320312 258.378906 728.960938 253.117188 726.476562 C 247.859375 723.988281 242.664062 721.371094 237.53125 718.628906 C 232.402344 715.886719 227.339844 713.019531 222.351562 710.03125 C 217.359375 707.039062 212.445312 703.925781 207.609375 700.695312 C 202.773438 697.460938 198.015625 694.113281 193.34375 690.648438 C 188.671875 687.183594 184.085938 683.605469 179.589844 679.914062 C 175.089844 676.222656 170.6875 672.421875 166.375 668.515625 C 162.066406 664.609375 157.851562 660.597656 153.738281 656.484375 C 149.625 652.371094 145.613281 648.160156 141.707031 643.847656 C 137.800781 639.535156 134 635.132812 130.3125 630.636719 C 126.621094 626.136719 123.042969 621.554688 119.574219 616.878906 C 116.109375 612.207031 112.761719 607.453125 109.527344 602.613281 C 106.296875 597.777344 103.183594 592.863281 100.195312 587.871094 C 97.203125 582.882812 94.335938 577.820312 91.59375 572.691406 C 88.851562 567.558594 86.234375 562.363281 83.75 557.105469 C 81.261719 551.847656 78.902344 546.527344 76.675781 541.152344 C 74.453125 535.777344 72.359375 530.351562 70.398438 524.875 C 68.4375 519.398438 66.613281 513.875 64.925781 508.308594 C 63.234375 502.738281 61.683594 497.132812 60.269531 491.488281 C 58.855469 485.847656 57.582031 480.171875 56.449219 474.464844 C 55.3125 468.757812 54.320312 463.027344 53.464844 457.273438 C 52.609375 451.519531 51.898438 445.746094 51.328125 439.957031 C 50.757812 434.167969 50.332031 428.367188 50.046875 422.554688 C 49.761719 416.746094 49.617188 410.929688 49.617188 405.113281 C 49.617188 399.292969 49.761719 393.480469 50.046875 387.667969 C 50.332031 381.859375 50.757812 376.058594 51.328125 370.265625 C 51.898438 364.476562 52.609375 358.703125 53.464844 352.949219 C 54.320312 347.195312 55.3125 341.464844 56.449219 335.757812 C 57.582031 330.050781 58.855469 324.378906 60.269531 318.734375 C 61.683594 313.089844 63.234375 307.484375 64.925781 301.917969 C 66.613281 296.351562 68.4375 290.828125 70.398438 285.347656 C 72.359375 279.871094 74.453125 274.445312 76.675781 269.070312 C 78.902344 263.695312 81.261719 258.378906 83.75 253.117188 C 86.234375 247.859375 88.851562 242.664062 91.59375 237.53125 C 94.335938 232.402344 97.203125 227.339844 100.195312 222.351562 C 103.183594 217.359375 106.296875 212.445312 109.527344 207.609375 C 112.761719 202.773438 116.109375 198.015625 119.574219 193.34375 C 123.042969 188.671875 126.621094 184.085938 130.3125 179.589844 C 134 175.089844 137.800781 170.6875 141.707031 166.375 C 145.613281 162.066406 149.625 157.851562 153.738281 153.738281 C 157.851562 149.625 162.066406 145.613281 166.375 141.707031 C 170.6875 137.800781 175.089844 134 179.589844 130.3125 C 184.085938 126.621094 188.671875 123.042969 193.34375 119.574219 C 198.015625 116.109375 202.773438 112.761719 207.609375 109.527344 C 212.445312 106.296875 217.359375 103.183594 222.351562 100.195312 C 227.339844 97.203125 232.402344 94.335938 237.53125 91.59375 C 242.664062 88.851562 247.859375 86.234375 253.117188 83.75 C 258.378906 81.261719 263.695312 78.902344 269.070312 76.675781 C 274.445312 74.453125 279.871094 72.359375 285.347656 70.398438 C 290.828125 68.4375 296.351562 66.613281 301.917969 64.925781 C 307.484375 63.234375 313.089844 61.683594 318.734375 60.269531 C 324.378906 58.855469 330.050781 57.582031 335.757812 56.449219 C 341.464844 55.3125 347.195312 54.320312 352.949219 53.464844 C 358.703125 52.613281 364.476562 51.898438 370.265625 51.328125 C 376.058594 50.757812 381.859375 50.332031 387.667969 50.046875 C 393.480469 49.761719 399.292969 49.617188 405.113281 49.617188 C 410.929688 49.617188 416.746094 49.761719 422.554688 50.046875 C 428.367188 50.332031 434.167969 50.757812 439.957031 51.328125 C 445.746094 51.898438 451.519531 52.613281 457.273438 53.464844 C 463.027344 54.320312 468.757812 55.3125 474.464844 56.449219 C 480.171875 57.582031 485.847656 58.855469 491.488281 60.269531 C 497.132812 61.683594 502.738281 63.234375 508.304688 64.925781 C 513.875 66.613281 519.398438 68.4375 524.875 70.398438 C 530.351562 72.359375 535.777344 74.453125 541.152344 76.675781 C 546.527344 78.902344 551.847656 81.261719 557.105469 83.75 C 562.363281 86.234375 567.558594 88.851562 572.691406 91.59375 C 577.820312 94.335938 582.882812 97.203125 587.871094 100.195312 C 592.863281 103.183594 597.777344 106.296875 602.613281 109.527344 C 607.453125 112.761719 612.207031 116.109375 616.878906 119.574219 C 621.554688 123.042969 626.136719 126.621094 630.636719 130.3125 C 635.132812 134 639.535156 137.800781 643.847656 141.707031 C 648.160156 145.613281 652.371094 149.625 656.484375 153.738281 C 660.597656 157.851562 664.609375 162.066406 668.515625 166.375 C 672.421875 170.6875 676.222656 175.089844 679.914062 179.589844 C 683.605469 184.085938 687.183594 188.671875 690.648438 193.34375 C 694.113281 198.015625 697.460938 202.773438 700.695312 207.609375 C 703.925781 212.445312 707.039062 217.359375 710.03125 222.351562 C 713.019531 227.339844 715.886719 232.402344 718.628906 237.53125 C 721.371094 242.664062 723.988281 247.859375 726.476562 253.117188 C 728.960938 258.378906 731.320312 263.695312 733.546875 269.070312 C 735.773438 274.445312 737.867188 279.871094 739.824219 285.347656 C 741.785156 290.828125 743.609375 296.351562 745.300781 301.917969 C 746.988281 307.484375 748.539062 313.089844 749.953125 318.734375 C 751.367188 324.378906 752.640625 330.050781 753.777344 335.757812 C 754.910156 341.464844 755.90625 347.195312 756.757812 352.949219 C 757.613281 358.707031 758.324219 364.476562 758.894531 370.265625 C 759.464844 376.058594 759.894531 381.859375 760.179688 387.667969 C 760.464844 393.480469 760.605469 399.292969 760.605469 405.113281 Z M 760.605469 405.113281 " fill-opacity="1" fill-rule="nonzero"/></g><g clip-path="url(#1037759c19)"><path fill="#ffffff" d="M 759.484375 404.886719 C 759.484375 410.691406 759.34375 416.492188 759.058594 422.289062 C 758.773438 428.089844 758.347656 433.875 757.78125 439.652344 C 757.210938 445.429688 756.5 451.1875 755.648438 456.925781 C 754.796875 462.667969 753.804688 468.386719 752.671875 474.078125 C 751.542969 479.769531 750.269531 485.433594 748.859375 491.0625 C 747.453125 496.695312 745.90625 502.285156 744.222656 507.839844 C 742.535156 513.394531 740.71875 518.902344 738.761719 524.367188 C 736.808594 529.835938 734.722656 535.25 732.5 540.609375 C 730.28125 545.972656 727.933594 551.277344 725.453125 556.527344 C 722.96875 561.773438 720.363281 566.953125 717.628906 572.074219 C 714.894531 577.191406 712.035156 582.242188 709.050781 587.21875 C 706.070312 592.199219 702.964844 597.101562 699.742188 601.929688 C 696.519531 606.753906 693.179688 611.5 689.726562 616.160156 C 686.269531 620.824219 682.703125 625.398438 679.019531 629.886719 C 675.339844 634.371094 671.550781 638.765625 667.65625 643.066406 C 663.757812 647.367188 659.761719 651.570312 655.660156 655.671875 C 651.558594 659.777344 647.355469 663.777344 643.058594 667.675781 C 638.761719 671.574219 634.367188 675.367188 629.882812 679.046875 C 625.398438 682.730469 620.828125 686.296875 616.167969 689.753906 C 611.507812 693.210938 606.765625 696.554688 601.941406 699.777344 C 597.117188 703.003906 592.21875 706.109375 587.242188 709.089844 C 582.265625 712.074219 577.21875 714.933594 572.101562 717.675781 C 566.984375 720.410156 561.804688 723.015625 556.558594 725.5 C 551.316406 727.980469 546.015625 730.332031 540.652344 732.554688 C 535.292969 734.777344 529.882812 736.867188 524.421875 738.820312 C 518.960938 740.777344 513.453125 742.597656 507.902344 744.28125 C 502.351562 745.964844 496.761719 747.511719 491.132812 748.921875 C 485.503906 750.332031 479.84375 751.601562 474.15625 752.734375 C 468.464844 753.867188 462.75 754.859375 457.011719 755.714844 C 451.277344 756.5625 445.519531 757.273438 439.746094 757.84375 C 433.972656 758.414062 428.191406 758.839844 422.394531 759.125 C 416.601562 759.410156 410.800781 759.550781 405 759.550781 C 399.199219 759.550781 393.402344 759.410156 387.605469 759.125 C 381.8125 758.84375 376.027344 758.414062 370.253906 757.84375 C 364.480469 757.277344 358.722656 756.566406 352.984375 755.714844 C 347.246094 754.863281 341.53125 753.871094 335.84375 752.734375 C 330.152344 751.601562 324.492188 750.332031 318.867188 748.921875 C 313.238281 747.511719 307.648438 745.964844 302.097656 744.28125 C 296.546875 742.597656 291.039062 740.777344 285.578125 738.820312 C 280.113281 736.867188 274.703125 734.777344 269.34375 732.554688 C 263.984375 730.332031 258.679688 727.980469 253.4375 725.5 C 248.191406 723.015625 243.011719 720.410156 237.894531 717.675781 C 232.78125 714.933594 227.734375 712.074219 222.757812 709.09375 C 217.78125 706.109375 212.878906 703.003906 208.058594 699.777344 C 203.234375 696.554688 198.492188 693.210938 193.832031 689.753906 C 189.171875 686.296875 184.597656 682.730469 180.117188 679.046875 C 175.632812 675.367188 171.238281 671.574219 166.941406 667.675781 C 162.640625 663.777344 158.441406 659.777344 154.339844 655.671875 C 150.234375 651.570312 146.238281 647.367188 142.339844 643.066406 C 138.445312 638.765625 134.65625 634.371094 130.976562 629.886719 C 127.296875 625.398438 123.730469 620.824219 120.273438 616.160156 C 116.816406 611.5 113.476562 606.753906 110.253906 601.929688 C 107.03125 597.101562 103.929688 592.199219 100.945312 587.222656 C 97.964844 582.242188 95.105469 577.191406 92.371094 572.074219 C 89.636719 566.953125 87.027344 561.773438 84.546875 556.523438 C 82.066406 551.277344 79.714844 545.972656 77.496094 540.609375 C 75.277344 535.25 73.1875 529.835938 71.234375 524.367188 C 69.28125 518.902344 67.460938 513.394531 65.777344 507.839844 C 64.09375 502.285156 62.546875 496.695312 61.136719 491.0625 C 59.726562 485.433594 58.457031 479.773438 57.324219 474.082031 C 56.195312 468.386719 55.203125 462.671875 54.351562 456.929688 C 53.5 451.1875 52.789062 445.429688 52.222656 439.652344 C 51.652344 433.875 51.226562 428.089844 50.941406 422.289062 C 50.65625 416.492188 50.515625 410.691406 50.515625 404.886719 C 50.515625 399.085938 50.65625 393.285156 50.941406 387.488281 C 51.226562 381.691406 51.652344 375.902344 52.222656 370.125 C 52.789062 364.351562 53.5 358.589844 54.351562 352.847656 C 55.203125 347.105469 56.195312 341.390625 57.324219 335.695312 C 58.457031 330.003906 59.726562 324.339844 61.136719 318.710938 C 62.546875 313.082031 64.09375 307.492188 65.777344 301.9375 C 67.460938 296.378906 69.28125 290.871094 71.234375 285.40625 C 73.1875 279.941406 75.277344 274.527344 77.496094 269.164062 C 79.714844 263.800781 82.066406 258.496094 84.546875 253.25 C 87.027344 248.003906 89.636719 242.820312 92.371094 237.703125 C 95.105469 232.582031 97.964844 227.53125 100.945312 222.554688 C 103.929688 217.578125 107.03125 212.675781 110.253906 207.847656 C 113.476562 203.023438 116.816406 198.277344 120.273438 193.617188 C 123.730469 188.953125 127.296875 184.378906 130.976562 179.890625 C 134.65625 175.40625 138.445312 171.011719 142.339844 166.710938 C 146.238281 162.410156 150.234375 158.207031 154.339844 154.105469 C 158.441406 150 162.640625 145.996094 166.941406 142.101562 C 171.238281 138.203125 175.628906 134.414062 180.113281 130.730469 C 184.597656 127.050781 189.171875 123.480469 193.832031 120.019531 C 198.492188 116.5625 203.234375 113.222656 208.058594 109.996094 C 212.878906 106.773438 217.78125 103.667969 222.757812 100.683594 C 227.730469 97.699219 232.78125 94.839844 237.894531 92.101562 C 243.011719 89.367188 248.191406 86.757812 253.4375 84.277344 C 258.679688 81.796875 263.984375 79.445312 269.34375 77.222656 C 274.703125 75.003906 280.113281 72.914062 285.574219 70.957031 C 291.039062 69.003906 296.546875 67.183594 302.097656 65.5 C 307.648438 63.816406 313.238281 62.269531 318.863281 60.855469 C 324.492188 59.445312 330.152344 58.175781 335.84375 57.042969 C 341.53125 55.910156 347.246094 54.917969 352.984375 54.066406 C 358.722656 53.214844 364.480469 52.503906 370.253906 51.9375 C 376.027344 51.367188 381.8125 50.941406 387.605469 50.65625 C 393.402344 50.371094 399.199219 50.230469 405 50.226562 C 410.800781 50.230469 416.601562 50.371094 422.394531 50.65625 C 428.191406 50.941406 433.972656 51.367188 439.746094 51.9375 C 445.519531 52.503906 451.277344 53.214844 457.011719 54.066406 C 462.75 54.917969 468.464844 55.90625 474.15625 57.039062 C 479.84375 58.171875 485.503906 59.445312 491.132812 60.855469 C 496.757812 62.265625 502.347656 63.8125 507.902344 65.5 C 513.453125 67.183594 518.960938 69.003906 524.421875 70.957031 C 529.882812 72.914062 535.292969 75.003906 540.652344 77.222656 C 546.015625 79.445312 551.316406 81.796875 556.558594 84.277344 C 561.804688 86.757812 566.984375 89.367188 572.101562 92.101562 C 577.21875 94.839844 582.265625 97.699219 587.242188 100.683594 C 592.21875 103.667969 597.117188 106.773438 601.941406 109.996094 C 606.761719 113.222656 611.503906 116.5625 616.164062 120.019531 C 620.824219 123.476562 625.398438 127.046875 629.882812 130.730469 C 634.367188 134.410156 638.757812 138.199219 643.058594 142.101562 C 647.355469 145.996094 651.554688 149.996094 655.65625 154.101562 C 659.757812 158.207031 663.757812 162.410156 667.652344 166.710938 C 671.550781 171.011719 675.339844 175.402344 679.019531 179.890625 C 682.699219 184.378906 686.269531 188.953125 689.722656 193.617188 C 693.179688 198.277344 696.519531 203.023438 699.742188 207.847656 C 702.964844 212.671875 706.070312 217.574219 709.050781 222.550781 C 712.035156 227.53125 714.894531 232.582031 717.625 237.699219 C 720.359375 242.816406 722.96875 248 725.449219 253.25 C 727.929688 258.496094 730.28125 263.800781 732.5 269.164062 C 734.71875 274.527344 736.808594 279.941406 738.761719 285.40625 C 740.71875 290.871094 742.535156 296.378906 744.222656 301.9375 C 745.90625 307.488281 747.453125 313.082031 748.859375 318.710938 C 750.269531 324.339844 751.542969 330.003906 752.671875 335.695312 C 753.804688 341.386719 754.796875 347.105469 755.648438 352.84375 C 756.5 358.589844 757.210938 364.347656 757.78125 370.125 C 758.347656 375.902344 758.773438 381.6875 759.058594 387.488281 C 759.34375 393.285156 759.484375 399.085938 759.484375 404.886719 Z M 759.484375 404.886719 " fill-opacity="1" fill-rule="nonzero"/></g><path stroke-linecap="round" transform="matrix(2.113847, 0, 0, 2.113847, -64528.36955, -19685.20027)" fill-opacity="1" fill="#1e2859" fill-rule="evenodd" stroke-linejoin="round" d="M 30640.399201 9422.349388 L 30685.699453 9422.029695 L 30795.699566 9582.119905 L 30750.000161 9581.718904 Z M 30640.399201 9422.349388 " stroke="#ffffff" stroke-width="2.14" stroke-opacity="1" stroke-miterlimit="1.5"/><path stroke-linecap="round" transform="matrix(2.113847, 0, 0, 2.113847, -64528.36955, -19685.20027)" fill-opacity="1" fill="#1e2859" fill-rule="evenodd" stroke-linejoin="round" d="M 30776.800746 9422.029695 L 30790.900482 9422.029695 L 30653.999994 9582.119905 L 30640.399201 9582.119905 Z M 30776.800746 9422.029695 " stroke="#ffffff" stroke-width="2.14" stroke-opacity="1" stroke-miterlimit="1.5"/><path fill="#ffffff" d="M 280.285156 257.808594 L 324.675781 258.0625 L 529.925781 551.972656 L 485.535156 551.910156 Z M 280.285156 257.808594 " fill-opacity="1" fill-rule="evenodd"/><path fill="#ffffff" d="M 280.285156 257.808594 L 324.675781 258.0625 L 529.925781 551.972656 L 485.535156 551.910156 Z M 283.664062 259.605469 C 283.664062 259.605469 486.382812 550.132812 486.382812 550.132812 C 486.382812 550.132812 526.546875 550.195312 526.546875 550.195312 L 323.617188 259.839844 Z M 283.664062 259.605469 " fill-opacity="1" fill-rule="evenodd"/></svg>