<svg xmlns="http://www.w3.org/2000/svg" xmlns:xlink="http://www.w3.org/1999/xlink" width="315" height="370" viewBox="0 0 315 370">
  <defs>
    <clipPath id="clip-path">
      <rect id="Rectangle_2483" data-name="Rectangle 2483" width="195.481" height="204.313" fill="none"/>
    </clipPath>
  </defs>
  <g id="Group_4645" data-name="Group 4645" transform="translate(-720 -1027)">
    <text id="While_8_of_activities_are_off-track_primarily_due_to_resource_limitations_and_operational_challenges." data-name="While 8% of activities are off-track, primarily due to resource limitations and operational challenges." transform="translate(720 1027)" fill="#fff" font-size="14" font-family="ArialMT, Arial"><tspan x="0" y="16">While </tspan><tspan y="16" font-size="18" font-family="Arial-BoldMT, Arial" font-weight="700">8%</tspan><tspan y="16" xml:space="preserve"> of activities are off-track, primarily due </tspan><tspan x="0" y="36">to resource limitations and operational challenges.</tspan></text>
    <text id="In_total_approximately_92_of_activities_within_the_TWG_Action_Plans_are_on-track." data-name="In total, approximately 92% of activities within the TWG Action Plans are on-track." transform="translate(742 1358)" fill="#fff" font-size="14" font-family="ArialMT, Arial"><tspan x="0" y="16">In total, approximately </tspan><tspan y="16" font-size="18" font-family="Arial-BoldMT, Arial" font-weight="700">92%</tspan><tspan y="16" xml:space="preserve"> of activities </tspan><tspan x="0" y="36">within the TWG Action Plans are on-track.</tspan></text>
    <g id="Group_4643" data-name="Group 4643" transform="translate(767.956 1109.096)">
      <g id="Group_4624" data-name="Group 4624" clip-path="url(#clip-path)">
        <path id="Path_14783" data-name="Path 14783" d="M97.74,8.341a97.74,97.74,0,1,0,97.74,97.74A97.74,97.74,0,0,0,97.74,8.341m0,162.652a64.911,64.911,0,1,1,64.911-64.911A64.911,64.911,0,0,1,97.74,170.993" transform="translate(0 0.491)" fill="#306a3e"/>
        <path id="Path_14784" data-name="Path 14784" d="M97.74,8.341a97.74,97.74,0,1,0,97.74,97.74A97.74,97.74,0,0,0,97.74,8.341m0,162.652a64.911,64.911,0,1,1,64.911-64.911A64.911,64.911,0,0,1,97.74,170.993" transform="translate(0 0.491)" fill="#5e8189"/>
        <path id="Path_14785" data-name="Path 14785" d="M126.947,55.966l23.792-38.8A115.882,115.882,0,0,0,89.874,0V45.514s20.632.792,37.073,10.452" transform="translate(5.29 0)" fill="#386868"/>
      </g>
    </g>
    <g id="Group_4642" data-name="Group 4642" transform="translate(659 -1288)">
      <line id="Line_245" data-name="Line 245" y2="54" transform="translate(234.5 2370.5)" fill="none" stroke="#fff" stroke-width="1" stroke-dasharray="3 2"/>
      <path id="Path_14786" data-name="Path 14786" d="M1205.943,2502.366l12.346,12.346-12.346,12.346" transform="translate(-2280.212 3588.789) rotate(-90)" fill="none" stroke="#fff" stroke-width="1"/>
    </g>
    <g id="Group_4644" data-name="Group 4644" transform="translate(1108.846 3712) rotate(180)">
      <line id="Line_245-2" data-name="Line 245" y2="49" transform="translate(234.5 2370.5)" fill="none" stroke="#fff" stroke-width="1" stroke-dasharray="3 2"/>
      <path id="Path_14786-2" data-name="Path 14786" d="M1205.943,2502.366l12.346,12.346-12.346,12.346" transform="translate(-2280.212 3588.789) rotate(-90)" fill="none" stroke="#fff" stroke-width="1"/>
    </g>
  </g>
</svg>
