<svg id="Layer_1" data-name="Layer 1" xmlns="http://www.w3.org/2000/svg"
    viewBox="0 0 1874.45 1874.45">
    <defs>
        <style>
            .cls-1{fill:#e8f8fc;}.cls-2{fill:#fff;}.cls-3{fill:#d6e9d9;}.cls-4{fill:#1c396e;}.cls-5{fill:#1a5632;}.cls-6{fill:#63779b;}.cls-7{fill:none;}.cls-8{fill:#80a18d;}.cls-9{fill:#4d7c60;}.cls-10{fill:#336949;}.cls-11{fill:#668e76;}</style>
    </defs>
    <path class="cls-1" d="M1573.1,1166.41l.4.2q-.86,2.39-1.72,4.74l-1-.49Z" />
    <path class="cls-1"
        d="M262.68,867.43l-.06.6c.07-.72.14-1.44.2-2.16,0-.25.06-.51.08-.77l.45-4.27.06-.5c-.17,1.59-.33,3.18-.5,4.77C262.84,865.87,262.76,866.65,262.68,867.43Z" />
    <path class="cls-1"
        d="M263.83,856.58l-.42,3.75c.13-1.25.27-2.5.41-3.75l.12-1c.16-1.42.33-2.84.51-4.25C264.24,853.07,264,854.82,263.83,856.58Z" />
    <path class="cls-1" d="M265.06,846.52c-.21,1.58-.41,3.17-.6,4.76q.18-1.59.39-3.18Z" />
    <path class="cls-1"
        d="M266.59,835.43c-.26,1.76-.51,3.51-.75,5.27l.18-1.33c.12-.92.26-1.85.39-2.78l.09-.58.48-3.28c.08-.5.15-1,.23-1.5h0Q266.89,833.33,266.59,835.43Z" />
    <path class="cls-1"
        d="M269.46,817.49c-.28,1.6-.55,3.2-.82,4.8l.09-.55C269,820.32,269.21,818.9,269.46,817.49Z" />
    <path class="cls-1"
        d="M272.19,802.78c-.32,1.63-.64,3.26-.95,4.89.1-.56.2-1.11.31-1.66C271.76,804.93,272,803.85,272.19,802.78Z" />
    <path class="cls-1"
        d="M273.17,797.9c-.33,1.63-.66,3.25-1,4.88a.22.22,0,0,1,0-.08c.23-1.18.47-2.36.71-3.54l.18-.9c.2-1,.4-2,.62-3,.24-1.18.49-2.36.75-3.53Q273.8,794.82,273.17,797.9Z" />
    <path class="cls-1" d="M277.32,779c-.25,1-.5,2.11-.74,3.17,0-.13.05-.25.08-.38Z" />
    <path class="cls-1"
        d="M279.19,771.25c-.17.68-.33,1.36-.5,2,.06-.3.13-.59.21-.88S279.09,771.63,279.19,771.25Z" />
    <path class="cls-1"
        d="M282.86,757.07c-.75,2.77-1.48,5.56-2.2,8.35q1.06-4.18,2.19-8.35l.15-.55.9-3.26C283.55,754.53,283.2,755.8,282.86,757.07Z" />
    <path class="cls-1"
        d="M1522.38,595.89l-.09,0-1,.59L1316.11,714.94,1100,839.72l-81.58,47.1-82.22,47.47L486.14,674.46l-135-78-1-.59-.11,0q3-5.11,6-10.17,1.9-3.16,3.84-6.3,4.35-7.06,8.88-14c1-1.55,2-3.08,3-4.62L375,555.9q3.42-5.05,6.93-10.06,4.67-6.66,9.51-13.21t9.82-13q6.24-8,12.7-15.86c1.73-2.09,3.46-4.17,5.21-6.23,2.62-3.11,5.27-6.18,7.95-9.24,1.79-2,3.58-4.06,5.39-6.07,123.9-138,303.65-224.74,503.68-224.74C1186.69,257.52,1405.37,393.62,1522.38,595.89Z" />
    <path class="cls-2"
        d="M259.42,934.29q0,33.12,3.12,65.46-3.1-32.31-3.13-65.46c0-.73,0-1.46,0-2.19Z" />
    <path class="cls-2"
        d="M259.47,925.75c0,1.39,0,2.78,0,4.16v-.65l0-3.15C259.46,926,259.46,925.87,259.47,925.75Z" />
    <path class="cls-2"
        d="M259.64,916.82c0,.53,0,1.06,0,1.59,0-.47,0-.93,0-1.4A1.15,1.15,0,0,1,259.64,916.82Z" />
    <path class="cls-2"
        d="M260.09,903.79q-.29,6.51-.45,13c0-.88,0-1.76.07-2.63,0-.57,0-1.15.05-1.72,0-1.4.09-2.79.14-4.19l.12-3C260,904.8,260.06,904.3,260.09,903.79Z" />
    <path class="cls-2" d="M260.3,899.46c-.08,1.44-.14,2.89-.21,4.33q.06-1.63.15-3.27Z" />
    <path class="cls-2"
        d="M260.53,895.14c-.08,1.44-.16,2.88-.23,4.32.07-1.45.14-2.88.22-4.32,0-.28,0-.57.05-.85l0-.48c.06-1,.12-1.95.19-2.92C260.7,892.3,260.62,893.72,260.53,895.14Z" />
    <path class="cls-2"
        d="M261.85,876.4c.08-.92.16-1.84.25-2.76q-.57,6.42-1,12.88c-.08,1.11-.16,2.24-.23,3.36,0-.41,0-.83.08-1.24,0-.71.09-1.42.14-2.12,0-.52.07-1,.11-1.56s.08-1,.11-1.56C261.47,881.06,261.65,878.73,261.85,876.4Z" />
    <path class="cls-2"
        d="M262.43,869.91c.05-.54.11-1.08.16-1.62,0,.35-.06.72-.1,1.08l-.39,4.27c.06-.73.12-1.45.19-2.18v0C262.34,870.93,262.39,870.42,262.43,869.91Z" />
    <path class="cls-2"
        d="M263.35,860.83l.06-.5c-.17,1.59-.33,3.18-.5,4.77-.07.77-.15,1.55-.23,2.33l-.06.6c.07-.72.14-1.44.2-2.16,0-.25.06-.51.08-.77Z" />
    <path class="cls-2"
        d="M263.83,856.58l-.42,3.75c.13-1.25.27-2.5.41-3.75l.12-1c.16-1.42.33-2.84.51-4.25C264.24,853.07,264,854.82,263.83,856.58Z" />
    <path class="cls-2" d="M263.77,1011.47q.66,5.84,1.42,11.65Q264.43,1017.32,263.77,1011.47Z" />
    <path class="cls-2" d="M265.06,846.52c-.21,1.58-.41,3.17-.6,4.76q.18-1.59.39-3.18Z" />
    <path class="cls-2" d="M266,1028.93q.81,5.8,1.72,11.57Q266.78,1034.73,266,1028.93Z" />
    <path class="cls-2"
        d="M266.59,835.43c-.26,1.76-.51,3.51-.75,5.27l.18-1.33c.12-.92.26-1.85.39-2.78l.09-.58.48-3.28c.08-.5.15-1,.23-1.5h0Q266.89,833.33,266.59,835.43Z" />
    <path class="cls-2" d="M267.7,1040.5q2.73,17.3,6.32,34.3Q270.42,1057.81,267.7,1040.5Z" />
    <path class="cls-2"
        d="M269.46,817.49c-.28,1.6-.55,3.2-.82,4.8l.09-.55C269,820.32,269.21,818.9,269.46,817.49Z" />
    <path class="cls-2"
        d="M271.55,806c.21-1.08.42-2.16.64-3.23-.32,1.63-.64,3.26-.95,4.89C271.34,807.11,271.44,806.56,271.55,806Z" />
    <path class="cls-2"
        d="M273.71,795.27c.24-1.18.49-2.36.75-3.53q-.66,3.07-1.29,6.16c-.33,1.63-.66,3.25-1,4.88a.22.22,0,0,1,0-.08c.23-1.18.47-2.36.71-3.54l.18-.9C273.29,797.26,273.49,796.27,273.71,795.27Z" />
    <path class="cls-2" d="M277.32,779c-.25,1-.5,2.11-.74,3.17,0-.13.05-.25.08-.38Z" />
    <path class="cls-2"
        d="M279.19,771.25c-.17.68-.33,1.36-.5,2,.06-.3.13-.59.21-.88S279.09,771.63,279.19,771.25Z" />
    <path class="cls-2"
        d="M282.86,757.07c-.75,2.77-1.48,5.56-2.2,8.35q1.06-4.18,2.19-8.35l.15-.55.9-3.26C283.55,754.53,283.2,755.8,282.86,757.07Z" />
    <path class="cls-2"
        d="M1522.38,595.89l-.09,0-1,.59L1316.11,714.94,1100,839.72l-81.58,47.1-82.22,47.47L486.14,674.46l-135-78-1-.59-.11,0q3-5.11,6-10.17,1.9-3.16,3.84-6.3,4.35-7.06,8.88-14c1-1.55,2-3.08,3-4.62L375,555.9q3.42-5.05,6.93-10.06,4.67-6.66,9.51-13.21t9.82-13q6.24-8,12.7-15.86c1.73-2.09,3.46-4.17,5.21-6.23,2.62-3.11,5.27-6.18,7.95-9.24,1.79-2,3.58-4.06,5.39-6.07,123.9-138,303.65-224.74,503.68-224.74C1186.69,257.52,1405.37,393.62,1522.38,595.89Z" />
    <path class="cls-3"
        d="M265.13,846c.11-.87.23-1.73.35-2.6-.05.41-.11.82-.16,1.23S265.19,845.52,265.13,846Z" />
    <path class="cls-3"
        d="M1522.38,595.89l-.09,0-1,.59L1316.11,714.94,1100,839.72l-81.58,47.1-82.22,47.47L486.14,674.46l-135-78-1-.59-.11,0q3-5.11,6-10.17,1.9-3.16,3.84-6.3,4.37-7.06,8.88-14c1-1.55,2-3.08,3-4.62L375,555.9q3.42-5.05,6.93-10.06,4.68-6.66,9.51-13.21t9.82-13q6.24-8,12.7-15.86c1.73-2.09,3.46-4.17,5.21-6.23,2.62-3.11,5.27-6.18,7.95-9.24,1.79-2,3.58-4.06,5.39-6.07,123.9-138,303.65-224.74,503.68-224.74C1186.69,257.52,1405.37,393.62,1522.38,595.89Z" />
    <path class="cls-4"
        d="M1316.11,714.94,1100,839.72l-81.58,47.1C940.58,866.9,886.63,823.5,886.63,773.16c0-32.57,22.58-62.23,59.59-84.52,41.64-25.07,101.56-40.79,168.16-40.79a390,390,0,0,1,94.42,11.24q2.82.7,5.61,1.46C1257.91,672.27,1293.62,691.4,1316.11,714.94Z" />
    <path class="cls-5"
        d="M1103.75,744.62c-2.26,2-4.5,3.9-6.66,5.85q-5.55,5-10.74,10.21a260.1,260.1,0,0,0-19.3,21.64q-9.08-3.93-18.29-7.75l-3.13-1.3q-7.39-3-14.89-6c8.72-21.71,23.35-52,25.3-55.64,7.4-14.09,20.11-36.14,41.64-41.93a40.51,40.51,0,0,1,4.76-1c21.63-3.16,40.55,12.57,38.4,27.68C1138,716,1120,730.6,1103.75,744.62Z" />
    <path class="cls-2"
        d="M1117.09,677.76q-11.19,10.92-21.08,22.5c-.9,1.06-1.79,2.11-2.67,3.17q-8.27,9.9-15.56,20.25c-.64.89-1.25,1.78-1.87,2.68l-.72,1a1.32,1.32,0,0,0-.16.25q-6.54,9.5-12.22,19.38c-.71,1.22-1.41,2.44-2.09,3.67q-6.54,11.7-12,23.86l-3.13-1.3q5.46-12.24,12.06-24c.12-.21.23-.42.36-.63h0c.66-1.19,1.35-2.38,2-3.57q5.63-9.69,12.06-19.06l.24-.36.08-.11c.83-1.2,1.65-2.4,2.51-3.59q7.23-10.2,15.4-20,1.47-1.77,3-3.54,9.8-11.45,20.87-22.26a2.06,2.06,0,0,1,2.33-.07C1117.37,676.51,1117.59,677.27,1117.09,677.76Z" />
    <path class="cls-2"
        d="M1092.78,703.37a2,2,0,0,1-1.23-.81c-.41-.65-.06-1.32.77-1.5,9.49-2.07,19.29-4.21,29.74-4.95a62.15,62.15,0,0,1,6.47-.17,1.92,1.92,0,0,1,1.89,1.26c.12.67-.53,1.19-1.45,1.16a56.27,56.27,0,0,0-6,.16c-10.15.72-19.82,2.83-29.16,4.87A2.34,2.34,0,0,1,1092.78,703.37Z" />
    <path class="cls-2"
        d="M1073.51,727.61a2.16,2.16,0,0,1-1.1-.63.94.94,0,0,1,.41-1.61c11.81-4.41,25.07-6.57,41.73-6.8a2,2,0,0,1,2,1.19c.18.66-.42,1.22-1.33,1.23-16.18.23-29,2.32-40.44,6.57A2.21,2.21,0,0,1,1073.51,727.61Z" />
    <path class="cls-2"
        d="M1059.25,750.86a2.31,2.31,0,0,1-1.44-1c-.26-.51-.19-1.24.87-1.64a46.38,46.38,0,0,1,7.76-2c6.44-1.24,13.11-2.53,19.85-3.51a7.69,7.69,0,0,1,2.85,0c1.06.22,1.59.86,1.48,1.5s-.94,1-1.87.82a4.29,4.29,0,0,0-1.26.07c-6.65,1-13.27,2.24-19.68,3.48a48.36,48.36,0,0,0-6.51,1.55,1.79,1.79,0,0,1-1.61.73A2.36,2.36,0,0,1,1059.25,750.86Z" />
    <path class="cls-2"
        d="M1091.78,703.21a1.67,1.67,0,0,1-1.4-1.32c-.28-8-3.47-15.12-6.87-21.59-.34-.65.08-1.3.94-1.43a2.19,2.19,0,0,1,2.19.94c3.35,6.37,6.81,14,7.11,22.44,0,.66-.72,1.12-1.65,1A1.8,1.8,0,0,1,1091.78,703.21Z" />
    <path class="cls-2"
        d="M1074,727.64a1.7,1.7,0,0,1-1.4-1.27c-.5-5.88-4.3-12.49-7.65-18.32l-1.08-1.89c-.37-.65,0-1.3.88-1.46a2.21,2.21,0,0,1,2.21.9l1.08,1.88c3.46,6,7.39,12.86,7.92,19.16.06.67-.65,1.14-1.58,1.07A2.32,2.32,0,0,1,1074,727.64Z" />
    <path class="cls-2"
        d="M1059.43,749.75a1.87,1.87,0,0,1-1.37-1.09c-1.7-5.52-4.22-9.72-8.28-15.54-.44-.63-.13-1.32.68-1.53a2.28,2.28,0,0,1,2.29.77c4.2,6,6.81,10.39,8.6,16.19.21.67-.36,1.23-1.27,1.26A2.35,2.35,0,0,1,1059.43,749.75Z" />
    <path class="cls-5"
        d="M1146.57,786.08c-10.78,9.08-25.33,9.58-38.47,12.43a100.88,100.88,0,0,0-22.18,7.58q-3.08-5.26-6.23-10.52l-.88-1.47c-1.85-3.05-3.72-6.11-5.61-9.15a211.23,211.23,0,0,1,28-22.42,3.37,3.37,0,0,1,.31-.21c7.33-4.87,17.1-9.54,26.75-10.68a33.84,33.84,0,0,1,8.71,0,25,25,0,0,1,11.29,4.47C1158.79,763.73,1155.28,778.73,1146.57,786.08Z" />
    <path class="cls-2"
        d="M1148,763.46c-9.18,0-18.1,3.56-26.41,7.58l-1.08.53-2.39,1.19c-5.25,2.64-10.49,5.44-15.64,8.42-.93.52-1.84,1.06-2.76,1.61q-4.45,2.61-8.83,5.37c-1.4.89-2.84,1.8-4.32,2.76-1,.64-2,1.3-3,2-1.28.86-2.57,1.75-3.84,2.68l-.88-1.47c1.12-.81,2.25-1.6,3.38-2.36l2.3-1.53c1.86-1.23,3.69-2.39,5.44-3.49q4.1-2.6,8.26-5.06l3.15-1.84q8.13-4.68,16.43-8.82l1.94-1,.92-.44c8.54-4.14,17.74-7.87,27.33-7.84a.86.86,0,0,1,0,1.71Z" />
    <path class="cls-2"
        d="M1117.64,772.56a.85.85,0,0,0,.66.21c4.58-.48,9.25,1.2,13.36,2.68l8.86,3.2a.86.86,0,0,0,1.1-.51.85.85,0,0,0-.52-1.09l-8.86-3.2c-3.8-1.37-8.06-2.91-12.44-2.87a96.62,96.62,0,0,0,7.13-14.15.85.85,0,0,0-.47-1.11.84.84,0,0,0-1.11.47,95.34,95.34,0,0,1-7.86,15.27.85.85,0,0,0,0,.91A1.46,1.46,0,0,0,1117.64,772.56Z" />
    <path class="cls-2"
        d="M1098.44,782.56a.85.85,0,0,0,.57.22,47.5,47.5,0,0,1,22.8,5.72.86.86,0,0,0,1.16-.35.85.85,0,0,0-.35-1.15,49.19,49.19,0,0,0-22-5.91,52.44,52.44,0,0,0,6.6-15.58.85.85,0,0,0-.62-1,.86.86,0,0,0-1,.62,50.87,50.87,0,0,1-7.21,16.35.84.84,0,0,0,0,.88A.68.68,0,0,0,1098.44,782.56Z" />
    <path class="cls-2"
        d="M1082.39,792.75a.86.86,0,0,0,.7.21,30.57,30.57,0,0,1,13.54,1,.86.86,0,0,0,.5-1.64,32.45,32.45,0,0,0-12.92-1.2,90.43,90.43,0,0,0,3-11.57.86.86,0,0,0-.69-1,.84.84,0,0,0-1,.68,88.49,88.49,0,0,1-3.34,12.62.89.89,0,0,0,.16.83Z" />
    <path class="cls-6"
        d="M1100,839.72l-81.58,47.1-82.22,47.47L486.14,674.46C533.29,659.67,586.78,649.7,644,645.9q3.32-.23,6.66-.41,22.49-1.31,45.67-1.32c94.31,0,181.09,16.62,249.87,44.47,37.52,15.2,69.69,33.73,94.8,54.74q7,5.89,13.32,12c.85.82,1.68,1.65,2.5,2.48a187.37,187.37,0,0,1,15.65,17.83c1.5,1.95,3,3.92,4.33,5.9s2.58,3.76,3.79,5.66c.69,1.07,1.35,2.14,2,3.22.14.23.28.46.41.69s.2.31.28.47c.2.33.4.66.59,1l.1.17c2.18,3.78,4.17,7.6,5.94,11.47A116.67,116.67,0,0,1,1100,839.72Z" />
    <path class="cls-1"
        d="M259.53,921.6c0,2.77-.08,5.54-.1,8.31v-.65l0-3.15c0-1.12,0-2.24.05-3.35C259.51,922.37,259.52,922,259.53,921.6Z" />
    <path class="cls-1"
        d="M259.64,916.82c0,1-.05,1.95-.07,2.92q0-1.37.06-2.73A1.15,1.15,0,0,1,259.64,916.82Z" />
    <path class="cls-1"
        d="M260.09,903.79q-.29,6.51-.45,13c0-.88,0-1.76.07-2.63,0-.57,0-1.15.05-1.72,0-1.4.09-2.79.14-4.19l.12-3C260,904.8,260.06,904.3,260.09,903.79Z" />
    <path class="cls-1"
        d="M260.53,895.14q-.24,4.32-.44,8.65.06-1.63.15-3.27c.09-1.8.18-3.59.28-5.38Z" />
    <path class="cls-1"
        d="M260.79,890.83c-.09,1.43-.17,2.87-.26,4.31,0-.29,0-.57,0-.85l0-.48C260.66,892.81,260.72,891.82,260.79,890.83Z" />
    <path class="cls-1"
        d="M261.08,886.52c-.1,1.43-.2,2.87-.29,4.31,0-.73.09-1.46.14-2.19s.09-1.42.14-2.12Z" />
    <path class="cls-1"
        d="M262.1,873.64q-.57,6.42-1,12.88c.06-1,.14-2.08.21-3.12.18-2.34.36-4.67.56-7C261.93,875.48,262,874.56,262.1,873.64Z" />
    <path class="cls-1"
        d="M262.49,869.37l-.39,4.27c.06-.73.12-1.45.19-2.18v0C262.35,870.75,262.42,870.06,262.49,869.37Z" />
    <path class="cls-1" d="M262.62,868c0,.44-.08.89-.13,1.34,0-.36.06-.72.1-1.08Z" />
    <path class="cls-1"
        d="M262.9,865.1h0c-.07.77-.15,1.55-.23,2.33,0-.52.09-1,.14-1.56C262.85,865.62,262.88,865.36,262.9,865.1Z" />
    <path class="cls-1"
        d="M263.35,860.83l.06-.5c-.17,1.59-.33,3.18-.5,4.77C263.05,863.68,263.2,862.25,263.35,860.83Z" />
    <path class="cls-1" d="M263.82,856.58h0l-.42,3.75C263.54,859.08,263.68,857.83,263.82,856.58Z" />
    <path class="cls-1"
        d="M263.94,855.57c.16-1.42.33-2.84.51-4.25-.21,1.75-.42,3.5-.62,5.26C263.86,856.24,263.9,855.91,263.94,855.57Z" />
    <path class="cls-1"
        d="M264.85,848.1l.21-1.58c-.21,1.58-.41,3.17-.6,4.76Q264.64,849.69,264.85,848.1Z" />
    <path class="cls-1"
        d="M266.5,836c0-.2.06-.39.09-.58-.26,1.76-.51,3.51-.75,5.27l.18-1.33c.12-.92.26-1.85.39-2.78Z" />
    <path class="cls-1"
        d="M267.21,831.23h0q-.33,2.1-.63,4.2.18-1.35.39-2.7C267.06,832.23,267.13,831.73,267.21,831.23Z" />
    <path class="cls-1" d="M268.73,821.74c.24-1.42.48-2.84.73-4.25-.28,1.6-.55,3.2-.82,4.8Z" />
    <path class="cls-1"
        d="M271.55,806c.21-1.08.42-2.16.64-3.23-.32,1.63-.64,3.26-.95,4.89C271.34,807.11,271.44,806.56,271.55,806Z" />
    <path class="cls-1"
        d="M273.09,798.26c0-.12.05-.24.08-.36-.33,1.63-.66,3.25-1,4.88a.22.22,0,0,1,0-.08c.23-1.18.47-2.36.71-3.54Z" />
    <path class="cls-1"
        d="M273.71,795.27c.24-1.18.49-2.36.75-3.53q-.66,3.07-1.29,6.16C273.34,797,273.52,796.14,273.71,795.27Z" />
    <path class="cls-1"
        d="M276.66,781.79l.66-2.79c-.25,1-.5,2.11-.74,3.17C276.6,782,276.63,781.92,276.66,781.79Z" />
    <path class="cls-1"
        d="M278.9,772.4c.09-.39.19-.77.29-1.15-.17.68-.33,1.36-.5,2C278.75,773,278.82,772.69,278.9,772.4Z" />
    <path class="cls-1"
        d="M282.85,757.07h0c-.75,2.77-1.48,5.56-2.2,8.35Q281.73,761.24,282.85,757.07Z" />
    <path class="cls-1"
        d="M283,756.52l.9-3.26c-.35,1.27-.7,2.54-1,3.81C282.9,756.89,283,756.7,283,756.52Z" />
    <path class="cls-7"
        d="M1521.27,596.5,1316.11,714.94,1100,839.72l-81.58,47.1-82.22,47.47L486.14,674.46l-135-78A680,680,0,0,1,457.11,459L644,645.9l192.6,192.59,3.53-3.53L650.68,645.49l-190-190C582.93,334.84,750.86,260.38,936.19,260.38c185.5,0,353.58,74.61,475.87,195.45L1080.61,787.28l-3.7,3.7-44,44,3.54,3.53,43.11-43.11,2.73-2.72h0l2.92-2.92,18.3-18.3,2.77-2.77,15.85-15.85,92.26-92.26,201.2-201.2A679.52,679.52,0,0,1,1521.27,596.5Z" />
    <path class="cls-2" d="M1573.5,1166.61q-.86,2.39-1.72,4.74l-1-.49,2.27-4.45Z" />
    <g id="Group_3163" data-name="Group 3163">
        <g id="Group_3140" data-name="Group 3140">
            <path id="Path_13863" data-name="Path 13863" class="cls-8"
                d="M766.64,702.33l-2.2,15.6h9.8l3.81-18.57Z" />
            <path id="Path_13864" data-name="Path 13864" class="cls-5"
                d="M789.88,491.78l-25.41-1.68V706h20.11l9.18-152.41Z" />
            <g id="Group_3139" data-name="Group 3139">
                <path id="Path_13865" data-name="Path 13865" class="cls-5"
                    d="M775.63,713c1.51,1.74,1.32,10.1,1.32,10.1h-22.8c-5.43,0,8.31-10.11,11.25-9.22,1.39.42,1.61,3.07,4.82,3.22S775,712.18,775.63,713Z" />
                <path id="Path_13866" data-name="Path 13866" class="cls-9"
                    d="M777,723.06h-23.7c-.42,0-1-1.72.24-1.94H777C777,722.26,777,723.06,777,723.06Z" />
            </g>
        </g>
        <g id="Group_3142" data-name="Group 3142">
            <path id="Path_13867" data-name="Path 13867" class="cls-8"
                d="M832.24,701.9v15.6h-9.8l-2.05-18.57Z" />
            <path id="Path_13868" data-name="Path 13868" class="cls-5"
                d="M799.25,491l19.16.51,16.2,213.93-20.9.43-18-152.51-3.51-61.83Z" />
            <g id="Group_3141" data-name="Group 3141">
                <path id="Path_13869" data-name="Path 13869" class="cls-5"
                    d="M832.24,713c1.51,1.74,1.32,10.1,1.32,10.1h-22.8c-5.43,0,8.3-10.11,11.25-9.22,1.39.42,1.6,3.07,4.82,3.22S831.56,712.18,832.24,713Z" />
                <path id="Path_13870" data-name="Path 13870" class="cls-9"
                    d="M833.56,723.06h-23.7c-.42,0-1-1.72.24-1.94h23.46C833.58,722.26,833.56,723.06,833.56,723.06Z" />
            </g>
        </g>
        <g id="Group_3143" data-name="Group 3143">
            <path id="Path_13871" data-name="Path 13871" class="cls-8"
                d="M759.7,523.83s-29-38.41-35.06-35.94,25,54.48,38.93,52.9S759.7,523.83,759.7,523.83Z" />
            <path id="Path_13872" data-name="Path 13872" class="cls-8"
                d="M729.53,501.07s-12.09-4.74-13.91-12.56,6.94-12.6,11.46-8.12S735,495.47,735,495.47Z" />
            <path id="Path_13873" data-name="Path 13873" class="cls-8"
                d="M717.56,491.19s-9.55-9.53-8-10.34,6.61,4.11,6.61,4.11-7.69-8.81-6-9.38,7.7,6.37,7.7,6.37-9.3-11.59-6.77-12.52,10.67,11.16,10.67,11.16c-1.47-3.4-7.19-11.7-5.66-12.27,3.23-1.19,10.33,12,10.33,12l1.55,2.83c-1.06-1.93-1.25-10.66,1.38-8.17s3,14.75,3,14.75S724.89,497.53,717.56,491.19Z" />
        </g>
        <path id="Path_13874" data-name="Path 13874" class="cls-5"
            d="M739,498.78l-2.66-3.31-8.82,7.22,3.34,6.26Z" />
        <path id="Path_13875" data-name="Path 13875" class="cls-9"
            d="M739,497.71l-12.4,14.2c7.49,6.95,30.38,29.41,37.88,36.37,2.58-6.45-2.58-21.42,0-27.86Z" />
        <g id="Group_3144" data-name="Group 3144">
            <path id="Path_13876" data-name="Path 13876" class="cls-9"
                d="M827.34,569.4l-67.85-1.74L761.81,470s13.92-16,27.84-16,28.05,15.66,28.05,15.66Z" />
            <path id="Path_13877" data-name="Path 13877" class="cls-9"
                d="M797.87,456.61s-15.36,5.92-19.31,14.7c0,0-4.61-11.63-.88-14.48S795.67,452.44,797.87,456.61Z" />
            <path id="Path_13878" data-name="Path 13878" class="cls-8"
                d="M781.85,458.58l14.26-1.75V434.45H782.72Z" />
            <path id="Path_13879" data-name="Path 13879" class="cls-5"
                d="M782.1,451.64c7.86-.56,12.53-6.88,14-9.26v-.87l-13.66.64Z" />
            <path id="Path_13880" data-name="Path 13880" class="cls-5"
                d="M775.48,457.44s-18.34,9.28-20.51,14.82c-3.42,8.74-.47,32.15-.47,32.15l.66,8.39L755,581.19l17.22.88S769.78,534.83,775.48,457.44Z" />
            <path id="Path_13881" data-name="Path 13881" class="cls-5"
                d="M778.56,471.31l2-6.9L784.6,463l-.19,3Z" />
            <path id="Path_13882" data-name="Path 13882" class="cls-10"
                d="M780.8,465.17l1.52,6.33,16.34-11.78.13-4.05-18.24,8.74Z" />
            <path id="Path_13883" data-name="Path 13883" class="cls-5"
                d="M781.94,452.38l-4.05,2.91.35,3.29,3.91-3.67Z" />
            <path id="Path_13884" data-name="Path 13884" class="cls-5"
                d="M778.27,465.3l.29,6-3.08-4.11Z" />
            <path id="Path_13885" data-name="Path 13885" class="cls-10"
                d="M774.34,472.52l3.93-7.22-.12-10.07L774.73,459Z" />
            <path id="Path_13886" data-name="Path 13886" class="cls-5"
                d="M795.92,452,782.58,584.1l50.66.13-8.87-113.61S805,454.31,795.92,452Z" />
        </g>
        <g id="Group_3145" data-name="Group 3145">
            <rect id="Rectangle_1538" data-name="Rectangle 1538" class="cls-11" x="788.48"
                y="548.21" width="38.58" height="56.15"
                transform="translate(87.27 1258.55) rotate(-78.94)" />
            <rect id="Rectangle_1539" data-name="Rectangle 1539" class="cls-10" x="807.98"
                y="578.21" width="31" height="1.71"
                transform="translate(97.22 1276.19) rotate(-78.94)" />
            <rect id="Rectangle_1540" data-name="Rectangle 1540" class="cls-10" x="813.64"
                y="579.33" width="30.99" height="1.71"
                transform="translate(100.5 1282.44) rotate(-78.93)" />
            <path id="Path_13887" data-name="Path 13887" class="cls-10"
                d="M791.82,588.53l5.95-30.43-9.39-1.88-6,30.43Z" />
        </g>
        <g id="Group_3146" data-name="Group 3146">
            <path id="Path_13888" data-name="Path 13888" class="cls-8"
                d="M812.62,572.22s2.38,9.22-3.14,15.07-14.32,1.17-13.09-5.07,5.9-11.83,5.9-11.83Z" />
            <path id="Path_13889" data-name="Path 13889" class="cls-8"
                d="M799.63,576s-12.32,5.35-12.38,9.16,10.07-3.8,10.07-3.8-7.28,11.25-6,13,6.74-4.94,6.74-4.94-2.4,5.43-1.93,7.2,4-.85,4.89-6.22-1.61,6.74,1.1,6.84c1.39.06,2.77-6.61,2.77-6.61s-1.29,6,.82,6.06c.94,0,3.78-9.42,3.78-9.42Z" />
        </g>
        <path id="Path_13890" data-name="Path 13890" class="cls-5"
            d="M802.75,567.41l-1.14,4.09,11,2.94,3.14-6.36Z" />
        <path id="Path_13891" data-name="Path 13891" class="cls-9"
            d="M799.44,567.73l18.43,2.75s16.54-43.33,14.73-54.12-20.69,2.31-20.69,2.31Z" />
        <path id="Path_13892" data-name="Path 13892" class="cls-9"
            d="M822.75,469.12s10.92,45.79,9.73,50.58-23,23.24-22.58-2.1-1-37-1-37S813.36,470.69,822.75,469.12Z" />
        <path id="Path_13893" data-name="Path 13893" class="cls-11"
            d="M804.49,478.28h0a.94.94,0,0,1-.9-1c1.08-21.92-6.86-24.54-6.94-24.56a1,1,0,1,1,.55-1.82c.38.11,9.45,3.08,8.29,26.48A1,1,0,0,1,804.49,478.28Z" />
        <g id="Group_3147" data-name="Group 3147">
            <path id="Path_13894" data-name="Path 13894" class="cls-11"
                d="M767.5,492.46a1,1,0,0,1-.94-.87c-2.5-29.55,8.59-35.54,9.06-35.78a1,1,0,0,1,1.28.43.94.94,0,0,1-.41,1.25c-.14.08-10.41,5.9-8,33.94a1,1,0,0,1-.86,1Z" />
            <circle id="Ellipse_178" data-name="Ellipse 178" class="cls-11" cx="767.7" cy="494.74"
                r="3.99" />
            <path id="Path_13895" data-name="Path 13895" class="cls-5"
                d="M769.91,494.74a2.22,2.22,0,1,1-2.21-2.21,2.21,2.21,0,0,1,2.21,2.21Z" />
        </g>
        <g id="Group_3148" data-name="Group 3148">
            <path id="Path_13896" data-name="Path 13896" class="cls-11"
                d="M807.33,511a.94.94,0,0,1-.81-1.07.91.91,0,0,1,.22-.5,8.19,8.19,0,0,0,2-4.41l2.34-17.45a8.3,8.3,0,0,0-16.43-2.36c0,.06,0,.11,0,.17l-2.33,17.44a8.22,8.22,0,0,0,.72,4.66.95.95,0,0,1-1.71.81h0a10.16,10.16,0,0,1-.9-5.72l2.34-17.45A10.19,10.19,0,1,1,813,487.67c0,.06,0,.13,0,.19l-2.34,17.45a10.07,10.07,0,0,1-2.48,5.42A.94.94,0,0,1,807.33,511Z" />
            <path id="Path_13897" data-name="Path 13897" class="cls-9"
                d="M794.9,507.93a1.78,1.78,0,1,1-1.53-2h0A1.78,1.78,0,0,1,794.9,507.93Z" />
            <path id="Path_13898" data-name="Path 13898" class="cls-9"
                d="M808.45,509.74a1.77,1.77,0,1,1-1.52-2,1.77,1.77,0,0,1,1.52,2Z" />
        </g>
        <g id="Group_3151" data-name="Group 3151">
            <path id="Path_13899" data-name="Path 13899" class="cls-8"
                d="M766.63,426.9c.68,9.55,6.09,22.57,15.62,23.46s18-10.71,18.9-20.25-6.08-22.32-15.61-23.21S765.93,417,766.63,426.9Z" />
            <g id="Group_3149" data-name="Group 3149">
                <path id="Path_13900" data-name="Path 13900" class="cls-9"
                    d="M789.68,445.6s-18.12,13.19-23-12c0,0,4.73-5.39,8.48-4.64s10.25,6.59,11.65,6.72S784.92,442.74,789.68,445.6Z" />
                <path id="Path_13901" data-name="Path 13901" class="cls-9"
                    d="M784.11,440.84a7.83,7.83,0,0,0,5.71-.27c3.93-1.81,5.6-6.56,5.67-6.76l-.83-.28s-1.63,4.6-5.22,6.25a7.25,7.25,0,0,1-5.88-.06l-.33.82A8.32,8.32,0,0,0,784.11,440.84Z" />
                <path id="Path_13902" data-name="Path 13902" class="cls-9"
                    d="M781.69,433.05l10.72-6-.48-.74-10.72,6Z" />
            </g>
            <path id="Path_13903" data-name="Path 13903" class="cls-5"
                d="M768.06,415.11s-1.82-3.15,6.18-8c4-2.42,13-2.23,16.29-.71s12.62,7.25,13.59,14c0,0,6.1,18.57-9.3,26.08,0,0-3.78-6.57-.15-13.05,0,0,2.57.09,3.77-4.65s-4.67-5.13-5.27-2l-2.7-.25s2.08-2.84.42-4.51-4.9-2.73-3.4-5.77C787.49,416.31,771.1,421.45,768.06,415.11Z" />
            <g id="Group_3150" data-name="Group 3150">
                <path id="Path_13904" data-name="Path 13904" class="cls-5"
                    d="M769.46,428a3.55,3.55,0,1,1,3.57-3.52h0A3.55,3.55,0,0,1,769.46,428Zm0-6.64a3.1,3.1,0,1,0,3.08,3.12h0a3.1,3.1,0,0,0-3.08-3.12Z" />
                <path id="Path_13905" data-name="Path 13905" class="cls-5"
                    d="M779.17,428.52a3.54,3.54,0,1,1,3.57-3.51A3.54,3.54,0,0,1,779.17,428.52Zm.05-6.64A3.1,3.1,0,1,0,782.3,425h0a3.12,3.12,0,0,0-3.08-3.13Z" />
                <rect id="Rectangle_1541" data-name="Rectangle 1541" class="cls-5" x="774.04"
                    y="423.44" width="0.44" height="2.98"
                    transform="translate(306.63 1174.17) rotate(-86.79)" />
                <rect id="Rectangle_1542" data-name="Rectangle 1542" class="cls-5" x="787.23"
                    y="420.68" width="0.44" height="9.95"
                    transform="translate(308.17 1181.66) rotate(-86.02)" />
            </g>
        </g>
        <g id="Group_3153" data-name="Group 3153">
            <g id="Group_3152" data-name="Group 3152">
                <path id="Path_13906" data-name="Path 13906" class="cls-9"
                    d="M689.3,721.43s.29-2.69-.67-3.94c-1.19-1.56-3.49-4.9-6.91-4.9,0,0-5.87-.67-8.47,6v2.75Z" />
                <rect id="Rectangle_1543" data-name="Rectangle 1543" class="cls-5" x="673.1"
                    y="720.49" width="16.24" height="1.84" />
            </g>
            <path id="Path_13907" data-name="Path 13907" class="cls-5"
                d="M657.75,541.19l29.34-.59,7.33,159.15a64.49,64.49,0,0,1,.22,9c-.29,8.92-12.78,6.39-12.78,6.39-4.61,3.57-11.32-1.47-13.23-3.12-2.49-2.15-3.52-9.79-3.86-13.34l-15.33-94.77Z" />
        </g>
        <g id="Group_3155" data-name="Group 3155">
            <g id="Group_3154" data-name="Group 3154">
                <path id="Path_13908" data-name="Path 13908" class="cls-9"
                    d="M629.61,712.19c1.49,1.73,1.3,10,1.3,10H608.34c-5.38,0,8.22-10,11.13-9.12,1.38.41,1.59,3,4.78,3.18S628.94,711.42,629.61,712.19Z" />
                <path id="Path_13909" data-name="Path 13909" class="cls-5"
                    d="M630.91,722.19H607.45c-.42,0-1-1.7.24-1.92h23.22C630.93,721.4,630.91,722.19,630.91,722.19Z" />
            </g>
            <path id="Path_13910" data-name="Path 13910" class="cls-5"
                d="M646.68,602.82l-9.07,95.95c-.11,3.57-.63,11.12-3.1,13.26-1.91,1.65-8.62,6.69-13.23,3.12,0,0-13.38,2.53-13.68-6.39,0-1.5-.07-2.82-.08-4h-.12l.14-2.48a45.66,45.66,0,0,1,.28-4.82L616.74,542l24.06-.48Z" />
        </g>
        <g id="Group_3156" data-name="Group 3156">
            <path id="Path_13911" data-name="Path 13911" class="cls-9"
                d="M622.65,464s29.43-13.38,55.53-1.34c0,0,15.93,98.63,16.71,131.16a14.11,14.11,0,0,1-1.8,7.24l-1.53,2.76H610.61A14.3,14.3,0,0,1,605.76,592C607.5,568.23,613.66,491.56,622.65,464Z" />
            <path id="Path_13912" data-name="Path 13912" class="cls-5"
                d="M649.8,596.46c-.49-3.24-.09-22.8.24-38.52l.08-3.9c.32-15.63-.32-90-.33-90.71h1.34c0,.75.64,75.1.32,90.75l-.08,3.9c-.3,14.84-.72,35.16-.25,38.28Z" />
            <path id="Path_13913" data-name="Path 13913" class="cls-5"
                d="M623.9,463.41s-40.17,29.25-20.09,80.66c0,0,17.94,10.35,16.12-12.11S638.76,497.33,623.9,463.41Z" />
        </g>
        <path id="Path_13914" data-name="Path 13914" class="cls-5"
            d="M676.05,462.15s44.08,23,31.86,76.79c0,0-16.2,12.89-17.74-9.59S666.4,497.91,676.05,462.15Z" />
        <path id="Path_13915" data-name="Path 13915" class="cls-5"
            d="M697.35,521l-61.65-5-1.45,20.83s66.48,21.9,74.8-2.53C709.05,534.26,708.3,519.57,697.35,521Z" />
        <g id="Group_3157" data-name="Group 3157">
            <path id="Path_13916" data-name="Path 13916" class="cls-8"
                d="M616,521.19s-3.62.83-3,2.14c0,0,.29.5,1.88.79l21.49-5.38c-3.41-1.84-9.89-5.29-11.2-5.77-1.81-.66-10.36-4.6-11-3.78s-1.32,3,3.45,4.77c0,0-4.6-1.48-4.93-.82s-1.15,3.12,3.29,3.78c0,0-3.95.49-3.95,1.81S613.23,521.19,616,521.19Z" />
        </g>
        <g id="Group_3158" data-name="Group 3158">
            <path id="Path_13917" data-name="Path 13917" class="cls-8"
                d="M685,507.68c-6,3.46-15.05,4.23-15.05,4.23l-1.82,15.41L679,523.26c2.35,0,7.23,1,10.6-1.09-.19-4.67-1.74-6.47-3.53-10.25C685.45,510.62,685.6,509,685,507.68Z" />
        </g>
        <path id="Path_13918" data-name="Path 13918" class="cls-5"
            d="M611.9,524.79l60-15,4.82,20.32s-62,32.45-74.21,9.7C602.51,539.77,600.86,525.16,611.9,524.79Z" />
        <g id="Group_3162" data-name="Group 3162">
            <path id="Path_13919" data-name="Path 13919" class="cls-5"
                d="M667,461.64s-1.48-12.4,2.07-18,1.47-17.42-1.18-23.32-10.34-11.52-15.65-11.52-23.32,10-22.43,19.49,2.36,15.64,6.49,19.48-1.48,14.47-1.48,14.47S647.54,477.58,667,461.64Z" />
            <path id="Path_13920" data-name="Path 13920" class="cls-8"
                d="M646.41,448.88c10.25-.1,19.62-12,12.63-18.88,0,0-8.47,4.31-14.12,2.38-5.3-1.81-6.16,8.85-10,2.38C635,434.76,631,449,646.41,448.88Z" />
            <g id="Group_3160" data-name="Group 3160">
                <g id="Group_3159" data-name="Group 3159">
                    <path id="Path_13921" data-name="Path 13921" class="cls-8"
                        d="M634.85,428.12s15.06-5.61,24.51-1.18c0,0,.59,10.92-6.79,10.33s-7.38-3.84-9.45-3.84-2.36,3.54-5.32,4.14S634.55,432.25,634.85,428.12Z" />
                </g>
            </g>
            <path id="Path_13922" data-name="Path 13922" class="cls-8"
                d="M663.65,447.47s-17,7.13-25.91,3.28a7.34,7.34,0,0,1,.08.82c2.19,1.85,6.7,4.45,14,3.26C662.76,453,663.65,447.47,663.65,447.47Z" />
            <g id="Group_3161" data-name="Group 3161">
                <path id="Path_13923" data-name="Path 13923" class="cls-7"
                    d="M650.45,425.24a51,51,0,0,0-15.6,2.88c-.28,3.94,0,9.49,2.55,9.49a2.58,2.58,0,0,0,.4,0c3-.59,3.25-4.14,5.32-4.14s2.06,3.25,9.45,3.84a5.33,5.33,0,0,0,.56,0c6.78,0,6.22-10.35,6.22-10.35A20.89,20.89,0,0,0,650.45,425.24Z" />
                <path id="Path_13924" data-name="Path 13924" class="cls-9"
                    d="M660.69,426.87l0-.8-.72-.34a22.19,22.19,0,0,0-9.47-1.83,52.08,52.08,0,0,0-16.07,3l-.81.3-.06.85c-.2,2.83-.25,7.87,1.66,9.93a3,3,0,0,0,2.23,1,3.7,3.7,0,0,0,.66-.07,6.35,6.35,0,0,0,3.91-3c.51-.69.86-1.15,1.14-1.15s.39.14,1,.65c1.27,1.1,3.18,2.77,8.37,3.19l.67,0a6.31,6.31,0,0,0,4.77-2C661,433.36,660.71,427.13,660.69,426.87Zm-7.56,10.42a5.33,5.33,0,0,1-.56,0c-7.38-.59-7.38-3.84-9.45-3.84s-2.36,3.55-5.32,4.14a2.58,2.58,0,0,1-.39,0c-2.59,0-2.84-5.55-2.56-9.49a51,51,0,0,1,15.61-2.88,21,21,0,0,1,8.9,1.7s.56,10.36-6.23,10.36Z" />
            </g>
        </g>
    </g>
</svg>