<svg id="Layer_1" data-name="Layer 1" xmlns="http://www.w3.org/2000/svg" xmlns:xlink="http://www.w3.org/1999/xlink" viewBox="0 0 1874.45 1874.45"><defs><style>.cls-1{fill:none;}.cls-2{fill:#fff;}.cls-3{fill:#336949;}.cls-4{fill:#f7f7f7;}.cls-5{fill:#395280;}.cls-6{fill:#36507e;}.cls-7{fill:#a3afc3;}.cls-8{fill:#1a5632;}.cls-9{fill:#4d7c60;}.cls-10{fill:#00205c;}.cls-11{fill:#1b386d;}.cls-12{fill:#8897b2;}.cls-13{fill:#bfc6d5;}.cls-14{fill:#526790;}.cls-15{fill:url(#linear-gradient);}.cls-16{clip-path:url(#clip-path);}.cls-17{fill:#80a18d;}.cls-18{opacity:0.4;}.cls-19{fill:#668e76;}.cls-20{fill:#ccc;}.cls-21{fill:#4db259;}.cls-22{fill:#a5bcaf;}.cls-23{fill:#66c2eb;}</style><linearGradient id="linear-gradient" x1="-1943.67" y1="1526.66" x2="-1942.42" y2="1527.94" gradientTransform="matrix(13.99, 0, 0, -11.81, 29807.92, 18233.47)" gradientUnits="userSpaceOnUse"><stop offset="0" stop-color="#ffd1db"/><stop offset="0.16" stop-color="#fdd7e1"/><stop offset="0.6" stop-color="#fae3ee"/><stop offset="1" stop-color="#fae8f3"/></linearGradient><clipPath id="clip-path"><path id="SVGID" class="cls-1" d="M1336.05,1197.1l-11,94.2a84.11,84.11,0,0,0-.11,17.16l8.28,85.56a4.14,4.14,0,0,0,4.11,4.2,4.54,4.54,0,0,0,.82-.07,55.67,55.67,0,0,0,21.69-6.67,13.57,13.57,0,0,0,7-13.48l-20.95-177.87Z"/></clipPath></defs><path class="cls-2" d="M300.65,1168l-.82.6q.89,2.45,1.8,4.89l2-1.46Z"/><path class="cls-3" d="M1522.4,595.89l-.11,0L936.18,934.28v743.1h1.05c408.77,0,740.15-331.38,740.15-740.15A736.75,736.75,0,0,0,1577,564.88l-54.66,31Z"/><path class="cls-4" d="M1522.4,595.89l0,0L936.18,927.92v6.36l586.11-338.37Z"/><path class="cls-2" d="M1613,934.29c0,373.77-303,676.77-676.78,676.77V934.29l586.11-338.38.11,0c.68,1.17,1.35,2.34,2,3.51q2,3.51,4,7.05l1.95,3.55c.86,1.57,1.72,3.16,2.57,4.74s1.66,3.1,2.48,4.66c1.64,3.12,3.26,6.24,4.85,9.39l2.37,4.72c.07.15.14.3.22.45q1.2,2.41,2.39,4.86c.78,1.62,1.57,3.25,2.34,4.88,1.56,3.26,3.08,6.54,4.59,9.83q.94,2.07,1.88,4.16,2.55,5.67,5,11.42c.48,1.11,1,2.22,1.41,3.34.85,2,1.68,4,2.51,6l2,4.91c.75,1.9,1.51,3.82,2.26,5.74.59,1.51,1.17,3,1.75,4.54q3.71,9.75,7.12,19.65l.84,2.43c.41,1.21.83,2.43,1.23,3.65.58,1.7,1.14,3.41,1.7,5.12q.73,2.28,1.46,4.56c.28.86.55,1.73.81,2.59.59,1.86,1.16,3.72,1.73,5.58.38,1.25.76,2.51,1.13,3.77.82,2.73,1.61,5.47,2.39,8.22.32,1.11.63,2.22.94,3.33q2.74,9.86,5.19,19.84.62,2.48,1.2,5c.35,1.47.69,2.95,1,4.43.27,1.19.54,2.37.8,3.56q1.11,4.95,2.15,9.92c.28,1.29.54,2.59.8,3.89s.48,2.36.71,3.54.43,2.2.65,3.31q1.5,7.83,2.82,15.73c.28,1.67.56,3.34.82,5,.24,1.49.47,3,.7,4.48.08.5.15,1,.23,1.5l.57,3.86c.13.93.27,1.86.39,2.78q.62,4.35,1.17,8.73c.14,1.07.27,2.15.4,3.22.59,4.83,1.13,9.69,1.63,14.55.18,1.86.36,3.71.53,5.57v0c.15,1.64.3,3.29.44,4.94q.51,6.11.92,12.24c.12,1.72.23,3.44.33,5.17q.2,3.35.36,6.71c.08,1.59.15,3.19.22,4.79l.12,3c0,1.4.1,2.79.14,4.19,0,.57,0,1.15.05,1.72,0,.94.06,1.88.08,2.82,0,1.91.09,3.83.12,5.75,0,1.11,0,2.23.05,3.35l0,3.15C1613,930.93,1613,932.61,1613,934.29Z"/><path class="cls-4" d="M1613,934.29c0,373.77-303,676.77-676.78,676.77V934.29l586.11-338.38.11,0c.68,1.17,1.35,2.34,2,3.51,1.33,2.34,2.66,4.69,4,7.05l1.95,3.55c.86,1.57,1.72,3.16,2.57,4.74s1.66,3.1,2.48,4.66c1.64,3.12,3.26,6.24,4.85,9.39l2.37,4.72c.07.15.14.3.22.45q1.2,2.41,2.39,4.86c.78,1.62,1.57,3.25,2.34,4.88,1.56,3.26,3.08,6.54,4.59,9.83q.94,2.07,1.88,4.16,2.55,5.67,5,11.42c.48,1.11,1,2.22,1.41,3.34.85,2,1.68,4,2.51,6l2,4.91c.75,1.9,1.51,3.82,2.26,5.74.59,1.51,1.17,3,1.75,4.54q3.71,9.75,7.12,19.65l.84,2.43c.41,1.21.83,2.43,1.23,3.65.58,1.7,1.14,3.41,1.7,5.12q.73,2.28,1.46,4.56c.28.86.55,1.73.81,2.59.59,1.86,1.16,3.72,1.73,5.58.38,1.25.76,2.51,1.13,3.77.82,2.73,1.61,5.47,2.39,8.22.32,1.11.63,2.22.94,3.33q2.74,9.86,5.19,19.84.62,2.48,1.2,5c.35,1.47.69,2.95,1,4.43.27,1.19.54,2.37.8,3.56q1.11,4.95,2.15,9.92c.28,1.29.54,2.59.8,3.89s.48,2.36.71,3.54.43,2.2.65,3.31q1.5,7.83,2.82,15.73c.28,1.67.56,3.34.82,5,.24,1.49.47,3,.7,4.48.08.5.15,1,.23,1.5l.57,3.86c.13.93.27,1.86.39,2.78q.62,4.35,1.17,8.73c.14,1.07.27,2.15.4,3.22.59,4.83,1.13,9.69,1.63,14.55.18,1.86.36,3.71.53,5.57v0c.15,1.64.3,3.29.44,4.94q.51,6.11.92,12.24c.12,1.72.23,3.44.33,5.17q.2,3.35.36,6.71c.08,1.59.15,3.19.22,4.79l.12,3c0,1.4.1,2.79.14,4.19,0,.57,0,1.15.05,1.72,0,.94.06,1.88.08,2.82,0,1.91.09,3.83.12,5.75,0,1.11,0,2.23.05,3.35l0,3.15C1613,930.93,1613,932.61,1613,934.29Z"/><path class="cls-5" d="M945.45,1368.78l-9.27,0v242.26c183.9,0,350.67-73.35,472.64-192.39C1273.85,1387,1115.2,1368.78,945.45,1368.78Z"/><path class="cls-2" d="M1570.82,1170.86l1,.49c.58-1.58,1.14-3.16,1.71-4.74l-.39-.2Z"/><g id="Group_3293" data-name="Group 3293"><g id="Layer_10" data-name="Layer 10"><path id="Path_14005" data-name="Path 14005" class="cls-6" d="M1349.77,1390.57l-61.09,1.87,2.94-110.45,56.82,1.34Z"/></g><g id="Right_leg" data-name="Right leg"><g id="Group_3250" data-name="Group 3250"><g id="Group_3249" data-name="Group 3249"><g id="Group_3248" data-name="Group 3248"><g id="Group_3247" data-name="Group 3247"><g id="Group_3246" data-name="Group 3246"><g id="Group_3245" data-name="Group 3245"><g id="Group_3244" data-name="Group 3244"><path id="Path_14006" data-name="Path 14006" class="cls-7" d="M1314,1425.79c.9,1.57,2,2.79,2.84,4.33a13.36,13.36,0,0,1,.59,1.28c.25.62,1,1.24,1,1.9.15,3,.19,4.54-2.68,6.17-4.7,2.68-10.18,4.85-15,7.48-.25.14-.45.23-.7.38-3.79,2.32-7.9,4.89-11.75,6.9-2.19,1.15-3.38,1-5.2-.35-.08-.13-.12.52,0-.1,1-3.62,4.88-7.1,7.68-9.59a104.88,104.88,0,0,0,8.48-8,3.93,3.93,0,0,0,.94-4.45c-.25-.8-3-4.63-2.51-5.16,3.82-4.35,8.65-4,13.52-5.82C1312.06,1422.46,1313.09,1424.22,1314,1425.79Z"/><path id="Path_14007" data-name="Path 14007" class="cls-8" d="M1314.47,1426.43c1-.62,3.49,3.69,3.81,4.16a30,30,0,0,1,1.82,2.9c1.44,2.9-2.49,5.1-4,5.85-2.47,1.25-12,7.29-12.32,7.51-4.56,3.33-8.86,6.77-12,8.1-4.07,1.76-4.81,1.66-7.77.12a2.09,2.09,0,0,1-1.3-2.62c.46-2.47,5.57-5.84,7.32-7.76s9.34-9.84,9.79-10C1307,1432.09,1309.06,1430,1314.47,1426.43Z"/></g><path id="Path_14008" data-name="Path 14008" class="cls-9" d="M1285.94,1456c1.66.52,2.73.94,4.43.45a38.91,38.91,0,0,0,9.89-4.22c.79-.49,1.8-1.4,2.49-1.9a101.06,101.06,0,0,1,10.67-7c1.78-1,4.6-2.38,6.35-3.41s2.43-2.06,2.07-3.86c-.24-1.25-1.24-1.6-1.67-2.66-.49.9-1,2.07-1.47,2.87a7.17,7.17,0,0,1-2.32,2.36c-1.49.94-3.67,2-5.07,2.85a101.91,101.91,0,0,0-10.2,6.9c-.14.1-.35.29-.49.39a58.15,58.15,0,0,1-14.75,6.82,1,1,0,0,1-.62.07C1285.38,1455.72,1285.81,1455.91,1285.94,1456Z"/></g><path id="Path_14009" data-name="Path 14009" class="cls-10" d="M1316.67,1287.57c-4.51-1.13-9-2.28-13.58-3.22-9.57,25.82-16,49.24-23.07,76.16-5.53,20.93,6,44,16.33,68.28,6-3.32,12.37-6,18.5-8.82-2.21-11.43-7.15-22.16-10.52-33.19-2-6.64-3.38-6.47-2-15.82,1.07-7.16.78-5.62,3.65-15.08.73-2.38,4.88-11.38,9.27-22,0,0,9.14-17.35,8.71-28.68a26.58,26.58,0,0,0-7.31-17.66"/></g></g></g></g></g></g><g id="Left_leg" data-name="Left leg"><g id="Group_3253" data-name="Group 3253"><g id="Group_3252" data-name="Group 3252"><g id="Group_3251" data-name="Group 3251"><path id="Path_14010" data-name="Path 14010" class="cls-7" d="M1337.47,1436.68c.23,2,.86,3.71,1,5.61a13.31,13.31,0,0,1,0,1.55c0,.73.43,1.67.19,2.35-1.12,3-1.75,4.63-5.32,5-5.86.58-12.28.32-18.27.79-.31,0-.54,0-.86.07-4.79.64-10,1.37-14.72,1.68-2.68.17-3.81-.51-5.06-2.68,0-.16-.35.47.08-.08,2.5-3.2,7.93-4.93,11.8-6.18a111.75,111.75,0,0,0,11.92-4.23,4.25,4.25,0,0,0,2.84-4c.1-.91-1-6-.31-6.28,5.69-2.66,10.38-.16,16,.2C1337,1432.48,1337.24,1434.7,1337.47,1436.68Z"/><path id="Path_14011" data-name="Path 14011" class="cls-8" d="M1337.67,1437.54c1.23-.2,1.92,5.24,2,5.86a31.11,31.11,0,0,1,.58,3.73c.21,3.54-4.67,4-6.5,4.08-3,.14-15.17,1.94-15.56,2-6,1.31-11.77,2.84-15.45,2.8-4.83-.06-5.53-.49-7.84-3.35a2.29,2.29,0,0,1-.18-3.2c1.51-2.28,8.08-3.38,10.65-4.52s13.58-5.7,14.09-5.66C1327.78,1439.88,1330.75,1438.65,1337.67,1437.54Z"/></g><path id="Path_14012" data-name="Path 14012" class="cls-9" d="M1296.18,1454.11c1.39,1.33,2.61,2.45,4.52,2.72a42.6,42.6,0,0,0,11.72.18c1-.14,2.4-.6,3.3-.8a110.87,110.87,0,0,1,13.67-2.21c2.21-.2,5.63-.33,7.82-.59s3.31-1,3.73-2.94c.29-1.35-.56-2.16-.54-3.41-.88.68-1.83,1.65-2.7,2.22a7.62,7.62,0,0,1-3.33,1.33c-1.9.28-4.55.4-6.3.6a109,109,0,0,0-13.18,2.37l-.66.17a55.05,55.05,0,0,1-17.61.22c-.26,0-.6-.28-.88-.32Z"/></g><path id="Path_14013" data-name="Path 14013" class="cls-10" d="M1329.21,1289.84c7.27,0,14.5.44,14.5.44,11.17,14.57-.27,61-1.4,79.73-.44,7.16-.46,29.64-2,62.6,0,0-20.51-1-22.92-1.21,0-30.57,1.06-44.37,0-60.23-.8-11.83-.75-24.46-.45-37.2,0,0-5.72-23.08-5.4-32.16a45.37,45.37,0,0,1,2.78-14.85Z"/></g></g><g id="Right_hand" data-name="Right hand"><g id="Group_3255" data-name="Group 3255"><g id="Group_3254" data-name="Group 3254"><path id="Path_14014" data-name="Path 14014" class="cls-9" d="M1290.81,1179.66v38.28a2.88,2.88,0,0,1-3.06,2.69l-.38-.05-22.75-3.43c-1.42-.21-1.9-1.32-1.9-2.63l-.56-35.26a2.82,2.82,0,0,1,3-2.67h0l22.75.41A2.81,2.81,0,0,1,1290.81,1179.66Z"/><path id="Path_14015" data-name="Path 14015" class="cls-8" d="M1269.88,1178.05l12.33.37a.67.67,0,0,0,.7-.61h0v-1.66a.64.64,0,0,0-.68-.61h-2.54a1.19,1.19,0,0,1-.86-.36l-.33-.33a3.23,3.23,0,0,0-4.57.05l-.1.1h0a1.17,1.17,0,0,1-.91.4h-3a.67.67,0,0,0-.69.62v1.43A.65.65,0,0,0,1269.88,1178.05Z"/></g><path id="Path_14016" data-name="Path 14016" class="cls-7" d="M1275.83,1210.16h0a3.84,3.84,0,0,0,1.13-2.74l.13-7.28c0-2.57-1-5.58-4-3.34l-4.7,2.44a19.54,19.54,0,0,1-3,1.28l-2.9,1c-.56.18.09-.78.2-1.48v-2.19c0-.16-.13-.21-.33-.21a1.32,1.32,0,0,0-1,.51c-.95,1.08-2.15,1.92-2.3,3.36l-.48,4.9a20.07,20.07,0,0,0,.75,7.71l2,6.5,9-1.52-.74-4.56h0A24.77,24.77,0,0,0,1275.83,1210.16Z"/><path id="Path_14017" data-name="Path 14017" class="cls-11" d="M1309.21,1199.39c-2.9.72-4.16,2.4-6.85,4.7-4,3.44-3.53,3.42-7.1,8.57-8.5,12.27-13.37,29.13-14.88,25a137.28,137.28,0,0,0-9.19-19.47c-5,.5-6.19.94-11.13,1.5,1.1,4,6.22,32.27,12.25,39.55a12.25,12.25,0,0,0,3.64,3c8.21,4.16,19.16-19,23.08-25.22h0Z"/></g></g><g id="Layer_1-2" data-name="Layer 1"><g id="Group_3263" data-name="Group 3263"><g id="Group_3262" data-name="Group 3262"><path id="Path_14018" data-name="Path 14018" class="cls-12" d="M1344.76,1284.54l.45,6.68-9.52.63a82,82,0,0,1-31.62-4.14l-16.29-5.51,2.7-5.91,28,6.6Z"/><g id="Group_3257" data-name="Group 3257"><g id="Group_3256" data-name="Group 3256"><path id="Path_14019" data-name="Path 14019" class="cls-13" d="M1312.76,1202.42c4.65,1.14,9,6.6,13.76,6.21,3.3-.27,7.42-5.81,10.63-6.58a40.32,40.32,0,0,0,6.1-1.81l-3.81-.25a4.84,4.84,0,0,1-3.33-1.86,8.75,8.75,0,0,1-1.14-9.5l3.39-7.07-18.34,5.26-1.09,5.93a10.73,10.73,0,0,1-6.68,8.2,9.55,9.55,0,0,1-2.24.56l-.23,0C1310.75,1201.87,1311.74,1202.16,1312.76,1202.42Z"/></g></g><path id="Path_14020" data-name="Path 14020" class="cls-14" d="M1337.51,1199.62l-2-.92-5.37,4a9.35,9.35,0,0,1-9.59,0l-5.28-3.56-2.42,1.51,8.24,6.47a6.57,6.57,0,0,0,8.5-.33Z"/><g id="Group_3258" data-name="Group 3258"><path id="Path_14021" data-name="Path 14021" class="cls-10" d="M1352.11,1239.83l-3.92-37.52c-2.1-3.25-10.23-2.76-10.68-2.69l-11.9,7.78c-1.76.27,1.71.47,0,0-4.73-1.29-10.78-9.46-16.66-8h0l-10.23,37.6h0c-.7,16-8,33-10.63,38.75a2,2,0,0,0,1,2.69l.23.09,15.86,5.12a73.82,73.82,0,0,0,30.42,3.36l9.59-.76s4.21-28.3,7-46.41Z"/></g><path id="Path_14022" data-name="Path 14022" class="cls-15" d="M1338.63,1290.2l-1,.82c-.68.53-5.39,6.59-4.82,10.52l2.66.47h10l.84-1.56a3.81,3.81,0,0,0,.44-1.78v-1.52Z"/><g id="Group_3261" data-name="Group 3261"><g id="Group_3260" data-name="Group 3260"><g class="cls-16"><g id="Group_3259" data-name="Group 3259"><path id="Path_14023" data-name="Path 14023" class="cls-6" d="M1336.12,1197.63l-10.19,93.19a84.11,84.11,0,0,0-.1,17.16l8.27,85.56a4.14,4.14,0,0,0,4.11,4.2,4.54,4.54,0,0,0,.82-.07,55.67,55.67,0,0,0,21.69-6.67,13.54,13.54,0,0,0,7-13.48l-21-177.87Z"/></g></g></g><path id="Path_14024" data-name="Path 14024" class="cls-12" d="M1336.05,1197.1l.7.1a3.15,3.15,0,0,1,2.55,2.14l4.69,14.44a.33.33,0,0,1-.23.43l0,0-5.59,1.06a.35.35,0,0,0-.28.4.61.61,0,0,0,.05.12l5.07,8.58a.35.35,0,0,1,0,.28l-15.27,49.78Z"/><circle id="Ellipse_189" data-name="Ellipse 189" class="cls-10" cx="1329.84" cy="1278.6" r="1.97"/><path id="Path_14025" data-name="Path 14025" class="cls-10" d="M1326.39,1293.25a2,2,0,1,0,2-2,2,2,0,0,0-2,2Z"/></g><path id="Path_14026" data-name="Path 14026" class="cls-11" d="M1347.06,1300.69l.19,1.46a.68.68,0,0,1-.59.77h-.07l-15.12.55a.71.71,0,0,1-.72-.67v-1.42a.69.69,0,0,1,.66-.69l14.94-.61A.69.69,0,0,1,1347.06,1300.69Z"/><path id="Path_14027" data-name="Path 14027" class="cls-6" d="M1315.83,1198.11l-6.84,1.28-12.46,41.53a365.62,365.62,0,0,0-14.61,80.95l-6,54.2c-2.7,16.84,4.57,18.78,15.74,21.38h0a4.47,4.47,0,0,0,5-3.8c0-.12,0-.25,0-.38l5.09-92.08q1-17.55,3.62-34.92Z"/><path id="Path_14028" data-name="Path 14028" class="cls-12" d="M1315.83,1198.11l-.38-.32a3.15,3.15,0,0,0-3,1.44l-4.56,12.83a.35.35,0,0,0,.11.48l0,0,3.38,2.42a.35.35,0,0,1,.17.46.31.31,0,0,1-.07.09l-5.26,7.07a.32.32,0,0,0-.1.26l-1.93,52Z"/></g></g></g><g id="left_hand" data-name="left hand"><path id="Path_14029" data-name="Path 14029" class="cls-7" d="M1338.57,1290.2l-4.39,4.89a9.55,9.55,0,0,0-2.44,6.36v.56l14.92-.23-.42-7.09Z"/><path id="Path_14030" data-name="Path 14030" class="cls-11" d="M1338,1290.7c1.93-13.6,11.22-37.5,12.12-40.72,1.46-5.2-.88-18.21-1.7-25.19-.72-6.18-1.87-17.6-2.49-24.66a16.9,16.9,0,0,1,2.76.93c.62.35,1.24.78,1.58,1,15,9,17.43,40,16.25,49.85,0,0-1.85,15.85-19.72,46.35A27.19,27.19,0,0,1,1338,1290.7Z"/></g><g id="stethscope"><g id="Group_3275" data-name="Group 3275"><g id="Group_3264" data-name="Group 3264"><path id="Path_14031" data-name="Path 14031" class="cls-3" d="M1341,1218.76a12.69,12.69,0,0,1,8.16,6.45l-.11.06a12.63,12.63,0,0,0-8.08-6.39,13.14,13.14,0,0,0-4-.38,12.93,12.93,0,0,0-6.19,2l-.07-.11a13.06,13.06,0,0,1,10.29-1.67Z"/></g><g id="Group_3274" data-name="Group 3274"><g id="Group_3268" data-name="Group 3268"><g id="Group_3265" data-name="Group 3265"><path id="Path_14032" data-name="Path 14032" class="cls-17" d="M1349,1223.39a44,44,0,0,1,1.25,8.7,34.94,34.94,0,0,1-.66,8.22c-.81,3.93-1.91,5.3-3.32,6.14a5.32,5.32,0,0,1-2.53.78,6.63,6.63,0,0,1-1.83-.2l-.44-.13a9.66,9.66,0,0,1-2.52-1.33l.22-.28a8.81,8.81,0,0,0,2.83,1.4,5.2,5.2,0,0,0,4.09-.54c1.07-.64,2.28-1.68,3.15-5.92a34.75,34.75,0,0,0,.66-8.14,43.92,43.92,0,0,0-1.24-8.62Z"/></g><g id="Group_3267" data-name="Group 3267"><g id="Group_3266" data-name="Group 3266"><path id="Path_14033" data-name="Path 14033" class="cls-17" d="M1339.3,1245.64l.1-.12a.57.57,0,0,0-.09-.81h0l-.24-.19a.15.15,0,0,0-.19,0l-.67.82a.15.15,0,0,0,0,.19h0l.23.19A.6.6,0,0,0,1339.3,1245.64Z"/></g><path id="Path_14034" data-name="Path 14034" class="cls-8" d="M1336.43,1244.88a1,1,0,0,1-.19-.56,1.41,1.41,0,0,1,.35-1,1.22,1.22,0,0,1,1.62-.34.89.89,0,0,1,.33.48.88.88,0,0,0,.3.46.82.82,0,0,1,0,1.15l-.08.1-.06.07-.09.09a.8.8,0,0,1-1,.08h0a1,1,0,0,0-.51-.19.91.91,0,0,1-.53-.2A.87.87,0,0,1,1336.43,1244.88Z"/></g></g><g id="Group_3273" data-name="Group 3273"><g id="Group_3269" data-name="Group 3269"><path id="Path_14035" data-name="Path 14035" class="cls-9" d="M1331.67,1219a44.06,44.06,0,0,0-5.25,7,34.07,34.07,0,0,0-3.33,7.54c-1.17,3.85-.85,5.57,0,7a5.32,5.32,0,0,0,1.86,1.88,5.87,5.87,0,0,0,1.7.7l.45.1a9.39,9.39,0,0,0,2.85,0l-.06-.35a9,9,0,0,1-3.15-.12,5.2,5.2,0,0,1-3.34-2.42c-.64-1.08-1.2-2.57,0-6.72a35.13,35.13,0,0,1,3.31-7.47,44.26,44.26,0,0,1,5.2-7Z"/></g><g id="Group_3272" data-name="Group 3272"><g id="Group_3271" data-name="Group 3271"><g id="Group_3270" data-name="Group 3270" class="cls-18"><path id="Path_14036" data-name="Path 14036" class="cls-9" d="M1329.71,1243.21l0-.16a.58.58,0,0,1,.46-.67h0l.3-.05a.13.13,0,0,1,.16.1l.2,1a.15.15,0,0,1-.11.16h0l-.3,0A.6.6,0,0,1,1329.71,1243.21Z"/></g><path id="Path_14037" data-name="Path 14037" class="cls-8" d="M1332.6,1243.91a1,1,0,0,0,.44-.41,1.45,1.45,0,0,0,.15-1,1.22,1.22,0,0,0-1.27-1.06.87.87,0,0,0-.51.26,1,1,0,0,1-.49.26.83.83,0,0,0-.56,1l0,.12a.24.24,0,0,0,0,.09.7.7,0,0,0,0,.12.82.82,0,0,0,.84.55h0a.84.84,0,0,1,.54.07,1,1,0,0,0,.56.08A.94.94,0,0,0,1332.6,1243.91Z"/></g></g></g></g><path id="Path_14038" data-name="Path 14038" class="cls-19" d="M1349.47,1225.07h0a14.43,14.43,0,0,0-1-4,12.68,12.68,0,0,0-3.38-4.83,10,10,0,0,0-2.16-1.44.64.64,0,0,1-.35-.7,20.43,20.43,0,0,0-.12-9.89,12.1,12.1,0,0,0-1.79-3.66,11.23,11.23,0,0,0-2.65-2.59,12.4,12.4,0,0,0-3.1-1.52l0,.09s.06.12.07.15.09.14.14.2l.08.12.35.42a11,11,0,0,1,2,1.11,10.61,10.61,0,0,1,4.17,5.87,19.62,19.62,0,0,1,.13,9.42.64.64,0,0,1-.68.51,9.72,9.72,0,0,0-2.74.24,12.47,12.47,0,0,0-5.28,2.63,14.53,14.53,0,0,0-2.81,3.1s0,.07,0,.1h0l.43.27a.08.08,0,0,0,.1,0h0a14.38,14.38,0,0,1,2.7-3,11.91,11.91,0,0,1,5-2.5,5.7,5.7,0,0,1,5.93,1.5,11.9,11.9,0,0,1,3.24,4.61,16.19,16.19,0,0,1,1,3.88h0a.09.09,0,0,0,.08.07l.52,0a.08.08,0,0,0,.07-.08h0Z"/></g><g id="Group_3277" data-name="Group 3277"><path id="Path_14039" data-name="Path 14039" class="cls-8" d="M1314.52,1214.49h0c-2.41-2.76-3.84-5.32-4.22-7.58a6.8,6.8,0,0,1,2-6.11,6.88,6.88,0,0,1,.54-.54,10.31,10.31,0,0,1,3-1.93c.21-.09.41-.16.62-.23s.3-.35.44-.53.23-.26.34-.4a8.35,8.35,0,0,0-2.18.73,11.63,11.63,0,0,0-2.66,1.85l-.57.56a7.58,7.58,0,0,0-2.13,6.72,12.18,12.18,0,0,0,1.47,3.91,21.79,21.79,0,0,0,2.92,4h0a.09.09,0,0,0,.1,0l.42-.38a.07.07,0,0,0,0-.09Z"/><ellipse id="Ellipse_190" data-name="Ellipse 190" class="cls-19" cx="1315.36" cy="1216.45" rx="3.25" ry="3.2" transform="translate(-476.26 1216.7) rotate(-42.77)"/><ellipse id="Ellipse_191" data-name="Ellipse 191" class="cls-8" cx="1315.36" cy="1216.45" rx="3.05" ry="3.01" transform="translate(-476.26 1216.21) rotate(-42.76)"/><ellipse id="Ellipse_192" data-name="Ellipse 192" class="cls-9" cx="1315.36" cy="1216.45" rx="2.93" ry="2.89" transform="translate(-476.27 1216.11) rotate(-42.75)"/><path id="Path_14040" data-name="Path 14040" class="cls-8" d="M1314,1217.67a1.8,1.8,0,1,0,.14-2.54l0,0a1.78,1.78,0,0,0-.11,2.52Z"/><g id="Group_3276" data-name="Group 3276"><rect id="Rectangle_1898" data-name="Rectangle 1898" class="cls-20" x="1315.36" y="1216.45" transform="translate(19.69 2453.85) rotate(-86.45)"/></g></g></g><g id="Head"><g id="Group_3278" data-name="Group 3278"><path id="Path_14043" data-name="Path 14043" class="cls-13" d="M1343,1175.33l-.44-12.9a7.72,7.72,0,0,0-4.58-6.8l-6.69-3a7.72,7.72,0,0,0-6.33,0l-5.61,2.55a7.73,7.73,0,0,0-4.5,6.33l-.39,4.3a7.91,7.91,0,0,1-.2,1.2l-1.18,4.66c-.18,16.42,5.93,22.7,9.36,23h0a7.71,7.71,0,0,0,4.73-1.1l1.15-.7a41.3,41.3,0,0,0,13.07-13.33h0A7.59,7.59,0,0,0,1343,1175.33Z"/><path id="Path_14044" data-name="Path 14044" class="cls-13" d="M1340.27,1173.3l.19-.08a3.3,3.3,0,0,1,4.16,1.43h0a2.26,2.26,0,0,1,.11.22,3.24,3.24,0,0,1-.11,2.85c-.37.71-1.17,1.29-1.43,1.81-.83,1.64-1.24,1.7-2.62,1.35l-.54-.14Z"/><path id="Path_14045" data-name="Path 14045" class="cls-10" d="M1341.22,1174.58a45.67,45.67,0,0,1-.59,5.84,4.53,4.53,0,0,1-.21.9h0a5.09,5.09,0,0,1-1.05,1.76c-1.87,2.05-7.06,7.55-10.78,9.78l-1.38.83a7.63,7.63,0,0,1-5.09,1h0a7.58,7.58,0,0,1-2.8-1.07,10.78,10.78,0,0,1-5-7.83l-1-7.46,4.48-1a14.6,14.6,0,0,1,8.1.47l7.28,2.56c1,.36,4.18.35,4.41-1.37l1.75-11.79.45-3h0c2.74-.33,2.84-1.28,3.47,2a68.91,68.91,0,0,1-.12,6.92l-.93,0a.93.93,0,0,0-1,.88h0Z"/><path id="Path_14046" data-name="Path 14046" class="cls-10" d="M1343.23,1166s-.42-3.42-.75-4.6a4.91,4.91,0,0,0-.15-.51,14.09,14.09,0,0,0-10.21-9.38c-1.46-.34-17.91-4.33-19.85,1.07-.57,1.6-.57,4.85,0,5.92a4.27,4.27,0,0,0,.3.51c1.32,1.86,4.17,1.84,6.45,1.49l4.55-.4c.66-.1,10,.55,13.4,2.73Z"/></g></g><g id="Laptop"><g id="Group_3285" data-name="Group 3285"><path id="Rectangle_1899" data-name="Rectangle 1899" class="cls-21" d="M1054.24,1387.5h158a4.49,4.49,0,0,1-4.49,4.49h-149a4.49,4.49,0,0,1-4.49-4.49Z"/><g id="Group_3284" data-name="Group 3284"><path id="Path_14047" data-name="Path 14047" class="cls-8" d="M1270.55,1434.45v-1l-277.87-.4v1.39h0c0,3.17,3.26,5.74,7.29,5.74h263.29c4,0,7.29-2.57,7.29-5.74Z"/><g id="Group_3283" data-name="Group 3283"><path id="Path_14048" data-name="Path 14048" class="cls-9" d="M1267.57,1434.81H995.67c-3,0-3.87-1.39-2-3.06l43.39-39a6.5,6.5,0,0,1,4.35-1.66h180.45a6.5,6.5,0,0,1,4.35,1.66l43.39,39C1271.44,1433.42,1270.55,1434.81,1267.57,1434.81Z"/><g id="Group_3282" data-name="Group 3282"><g id="Group_3281" data-name="Group 3281"><g id="Group_3279" data-name="Group 3279"><path id="Path_14049" data-name="Path 14049" class="cls-8" d="M1056.17,1397.79h-11.7c-.5,0-.75-.17-.55-.38l2.22-2.27a2,2,0,0,1,1.23-.35h11.31c.49,0,.75.16.59.35l-1.88,2.27A1.85,1.85,0,0,1,1056.17,1397.79Z"/><path id="Path_14050" data-name="Path 14050" class="cls-8" d="M1071.13,1397.79h-11.7c-.5,0-.78-.17-.61-.38l1.84-2.27a1.75,1.75,0,0,1,1.17-.35h11.3c.49,0,.78.16.65.35l-1.5,2.27A1.61,1.61,0,0,1,1071.13,1397.79Z"/><path id="Path_14051" data-name="Path 14051" class="cls-8" d="M1086.09,1397.79h-11.7c-.5,0-.81-.17-.68-.38l1.47-2.27a1.54,1.54,0,0,1,1.11-.35h11.31c.49,0,.81.16.71.35l-1.12,2.27A1.4,1.4,0,0,1,1086.09,1397.79Z"/><path id="Path_14052" data-name="Path 14052" class="cls-8" d="M1116,1397.79h-11.7c-.5,0-.86-.17-.8-.38l.72-2.27c.06-.19.5-.35,1-.35h11.31c.49,0,.86.16.83.35l-.37,2.27C1117,1397.62,1116.51,1397.79,1116,1397.79Z"/><path id="Path_14053" data-name="Path 14053" class="cls-8" d="M1101,1397.79h-11.7c-.5,0-.83-.17-.73-.38l1.09-2.27c.09-.19.56-.35,1-.35h11.32c.48,0,.83.16.76.35l-.74,2.27C1102,1397.62,1101.55,1397.79,1101,1397.79Z"/><path id="Path_14054" data-name="Path 14054" class="cls-8" d="M1145.92,1397.79h-11.7c-.5,0-.91-.17-.92-.38l0-2.27c0-.19.39-.35.88-.35h11.31c.49,0,.91.16.94.35l.39,2.27C1146.81,1397.62,1146.43,1397.79,1145.92,1397.79Z"/><path id="Path_14055" data-name="Path 14055" class="cls-8" d="M1160.88,1397.79h-11.7c-.5,0-.94-.17-1-.38l-.42-2.27c0-.19.33-.35.82-.35h11.31c.49,0,.94.16,1,.35l.76,2.27C1161.74,1397.62,1161.38,1397.79,1160.88,1397.79Z"/><path id="Path_14056" data-name="Path 14056" class="cls-8" d="M1175.84,1397.79h-11.7c-.5,0-1-.17-1.05-.38l-.8-2.27c-.06-.19.28-.35.77-.35h11.31a1.37,1.37,0,0,1,1.06.35l1.14,2.27C1176.67,1397.62,1176.34,1397.79,1175.84,1397.79Z"/><path id="Path_14057" data-name="Path 14057" class="cls-8" d="M1190.8,1397.79h-11.7a1.46,1.46,0,0,1-1.11-.38l-1.17-2.27c-.1-.19.22-.35.7-.35h11.32a1.54,1.54,0,0,1,1.11.35l1.52,2.27C1191.6,1397.62,1191.3,1397.79,1190.8,1397.79Z"/><path id="Path_14058" data-name="Path 14058" class="cls-8" d="M1218.57,1397.79h-24.15a2.33,2.33,0,0,1-1.64-.53l-1.35-2c-.19-.27.22-.5.9-.5h23.34a2.94,2.94,0,0,1,1.73.5l1.94,2C1219.62,1397.55,1219.28,1397.79,1218.57,1397.79Z"/><path id="Path_14059" data-name="Path 14059" class="cls-8" d="M1131,1397.79h-11.7c-.5,0-.89-.17-.86-.38l.34-2.27c0-.19.45-.35.93-.35H1131c.49,0,.88.16.88.35v2.27C1131.88,1397.62,1131.47,1397.79,1131,1397.79Z"/></g><g id="Group_3280" data-name="Group 3280"><path id="Path_14060" data-name="Path 14060" class="cls-8" d="M1210.33,1401.47h12.18c.53,0,.78-.18.56-.4l-2.41-2.45a2.13,2.13,0,0,0-1.29-.39h-11.76c-.51,0-.78.18-.6.39l2,2.45A1.85,1.85,0,0,0,1210.33,1401.47Z"/><path id="Path_14061" data-name="Path 14061" class="cls-8" d="M1194.76,1401.47h12.18c.52,0,.8-.18.62-.4l-2-2.45a1.87,1.87,0,0,0-1.23-.39h-11.75c-.51,0-.81.18-.67.39l1.63,2.45A1.66,1.66,0,0,0,1194.76,1401.47Z"/><path id="Path_14062" data-name="Path 14062" class="cls-8" d="M1179.19,1401.47h12.18c.52,0,.83-.18.69-.4l-1.59-2.45a1.6,1.6,0,0,0-1.17-.39h-11.76c-.51,0-.84.18-.73.39l1.22,2.45A1.43,1.43,0,0,0,1179.19,1401.47Z"/><path id="Path_14063" data-name="Path 14063" class="cls-8" d="M1148.05,1401.47h12.18c.52,0,.89-.18.82-.4l-.77-2.45c-.07-.21-.54-.39-1-.39h-11.76c-.51,0-.89.18-.86.39l.41,2.45C1147.06,1401.29,1147.52,1401.47,1148.05,1401.47Z"/><path id="Path_14064" data-name="Path 14064" class="cls-8" d="M1163.62,1401.47h12.18c.52,0,.86-.18.76-.4l-1.19-2.45c-.1-.21-.6-.39-1.1-.39h-11.76c-.51,0-.86.18-.79.39l.81,2.45C1162.61,1401.29,1163.09,1401.47,1163.62,1401.47Z"/><path id="Path_14065" data-name="Path 14065" class="cls-8" d="M1116.9,1401.47h12.18c.53,0,1-.18,1-.4l0-2.45c0-.21-.4-.39-.91-.39h-11.76c-.5,0-.94.18-1,.39l-.41,2.45C1116,1401.29,1116.38,1401.47,1116.9,1401.47Z"/><path id="Path_14066" data-name="Path 14066" class="cls-8" d="M1101.33,1401.47h12.18c.53,0,1-.18,1-.4l.45-2.45c0-.21-.34-.39-.85-.39h-11.76c-.51,0-1,.18-1.05.39l-.82,2.45C1100.44,1401.29,1100.81,1401.47,1101.33,1401.47Z"/><path id="Path_14067" data-name="Path 14067" class="cls-8" d="M1085.76,1401.47H1098c.52,0,1-.18,1.09-.4l.86-2.45c.07-.21-.28-.39-.79-.39h-11.76a1.38,1.38,0,0,0-1.11.39l-1.23,2.45C1084.9,1401.29,1085.24,1401.47,1085.76,1401.47Z"/><path id="Path_14068" data-name="Path 14068" class="cls-8" d="M1070.19,1401.47h12.18a1.43,1.43,0,0,0,1.16-.4l1.27-2.45c.1-.21-.22-.39-.73-.39h-11.76a1.63,1.63,0,0,0-1.17.39l-1.63,2.45C1069.36,1401.29,1069.66,1401.47,1070.19,1401.47Z"/><path id="Path_14069" data-name="Path 14069" class="cls-8" d="M1041.28,1401.47h25.13a2.41,2.41,0,0,0,1.73-.56l1.45-2.14c.2-.3-.21-.54-.92-.54H1044.4a3,3,0,0,0-1.81.54l-2.09,2.14C1040.2,1401.22,1040.55,1401.47,1041.28,1401.47Z"/><path id="Path_14070" data-name="Path 14070" class="cls-8" d="M1132.47,1401.47h12.19c.52,0,.92-.18.89-.4l-.37-2.45c0-.21-.47-.39-1-.39h-11.76c-.5,0-.92.18-.92.39v2.45C1131.52,1401.29,1132,1401.47,1132.47,1401.47Z"/></g><path id="Path_14071" data-name="Path 14071" class="cls-8" d="M1197.79,1405.48h28.27c.73,0,1.07-.27.75-.59L1225,1403a3,3,0,0,0-1.84-.56h-27.4c-.7,0-1.12.25-.91.56l1.23,1.86A2.35,2.35,0,0,0,1197.79,1405.48Z"/><path id="Path_14072" data-name="Path 14072" class="cls-8" d="M1181.22,1405.48h12.7c.54,0,.86-.2.71-.44l-1.73-2.67a1.71,1.71,0,0,0-1.22-.41h-12.25c-.52,0-.86.18-.75.41L1180,1405A1.52,1.52,0,0,0,1181.22,1405.48Z"/><path id="Path_14073" data-name="Path 14073" class="cls-8" d="M1213.69,1405.48h12.7c.55,0,.8-.2.56-.44l-2.6-2.67a2.23,2.23,0,0,0-1.36-.41h-12.25c-.53,0-.8.18-.62.41l2.21,2.67A2.09,2.09,0,0,0,1213.69,1405.48Z"/><path id="Path_14074" data-name="Path 14074" class="cls-8" d="M1148.75,1405.48h12.7c.54,0,.93-.2.85-.44l-.84-2.67c-.07-.23-.56-.41-1.09-.41h-12.24c-.53,0-.93.18-.89.41l.44,2.67C1147.72,1405.28,1148.2,1405.48,1148.75,1405.48Z"/><path id="Path_14075" data-name="Path 14075" class="cls-8" d="M1165,1405.48h12.7c.55,0,.9-.2.78-.44l-1.28-2.67c-.11-.23-.63-.41-1.16-.41h-12.24c-.53,0-.89.18-.82.41l.88,2.67C1163.92,1405.28,1164.44,1405.48,1165,1405.48Z"/><path id="Path_14076" data-name="Path 14076" class="cls-8" d="M1183.43,1409.84h13.27c.57,0,.9-.22.72-.48l-1.88-2.91a1.73,1.73,0,0,0-1.28-.45h-12.78c-.54,0-.9.2-.77.45l1.44,2.91A1.57,1.57,0,0,0,1183.43,1409.84Z"/><path id="Path_14077" data-name="Path 14077" class="cls-8" d="M1217.35,1409.84h13.27c.57,0,.82-.22.57-.48l-2.85-2.91a2.39,2.39,0,0,0-1.44-.45h-12.77c-.55,0-.83.2-.62.45l2.41,2.91A2.12,2.12,0,0,0,1217.35,1409.84Z"/><path id="Path_14078" data-name="Path 14078" class="cls-8" d="M1198.54,1407.61h13.68c.36,0,.55-.14.42-.3l-.83-1a1.3,1.3,0,0,0-.89-.3h-13.46c-.36,0-.56.14-.46.3l.67,1A1.2,1.2,0,0,0,1198.54,1407.61Z"/><path id="Path_14079" data-name="Path 14079" class="cls-8" d="M1200,1409.84h14c.37,0,.56-.14.42-.31l-.86-1.06a1.38,1.38,0,0,0-.91-.31h-13.76c-.37,0-.58.14-.47.31l.7,1.06A1.2,1.2,0,0,0,1200,1409.84Z"/><path id="Path_14080" data-name="Path 14080" class="cls-8" d="M1166.47,1409.84h13.27c.57,0,.93-.22.8-.48l-1.4-2.91a1.51,1.51,0,0,0-1.21-.45h-12.77c-.55,0-.93.2-.85.45l1,2.91C1165.36,1409.62,1165.9,1409.84,1166.47,1409.84Z"/><path id="Path_14081" data-name="Path 14081" class="cls-8" d="M1116.27,1405.48H1129c.55,0,1-.2,1-.44l0-2.67c0-.23-.42-.41-1-.41h-12.24c-.53,0-1,.18-1,.41l-.44,2.67C1115.31,1405.28,1115.73,1405.48,1116.27,1405.48Z"/><path id="Path_14082" data-name="Path 14082" class="cls-8" d="M1100,1405.48h12.7c.54,0,1-.2,1.07-.44l.49-2.67c0-.23-.36-.41-.88-.41h-12.24c-.53,0-1,.18-1.1.41l-.89,2.67C1099.11,1405.28,1099.49,1405.48,1100,1405.48Z"/><path id="Path_14083" data-name="Path 14083" class="cls-8" d="M1084.84,1409.84h76.59c1.31,0,2.23-.5,2-1.1l-.54-1.7c-.18-.57-1.36-1-2.62-1H1086.6c-1.27,0-2.53.47-2.8,1l-.82,1.7C1082.7,1409.34,1083.53,1409.84,1084.84,1409.84Z"/><path id="Path_14084" data-name="Path 14084" class="cls-8" d="M1083.8,1405.48h12.7c.55,0,1.06-.2,1.15-.44l.93-2.67c.08-.23-.29-.41-.81-.41h-12.25a1.47,1.47,0,0,0-1.16.41L1083,1405C1082.91,1405.28,1083.26,1405.48,1083.8,1405.48Z"/><path id="Path_14085" data-name="Path 14085" class="cls-8" d="M1067.57,1405.48h12.7a1.55,1.55,0,0,0,1.22-.44l1.37-2.67c.12-.23-.22-.41-.74-.41h-12.25a1.72,1.72,0,0,0-1.23.41l-1.77,2.67C1066.71,1405.28,1067,1405.48,1067.57,1405.48Z"/><path id="Path_14086" data-name="Path 14086" class="cls-8" d="M1066.53,1409.84h13.27a1.57,1.57,0,0,0,1.28-.48l1.44-2.91c.12-.24-.23-.45-.77-.45H1069a1.73,1.73,0,0,0-1.28.45l-1.89,2.91C1065.63,1409.62,1066,1409.84,1066.53,1409.84Z"/><path id="Path_14087" data-name="Path 14087" class="cls-8" d="M1049.57,1409.84h13.27a1.82,1.82,0,0,0,1.35-.48l1.93-2.91c.16-.24-.15-.45-.7-.45h-12.77a2,2,0,0,0-1.36.45l-2.37,2.91C1048.71,1409.62,1049,1409.84,1049.57,1409.84Z"/><path id="Path_14088" data-name="Path 14088" class="cls-8" d="M1032.61,1409.84h13.27a2.12,2.12,0,0,0,1.43-.48l2.41-2.91c.2-.24-.07-.45-.62-.45h-12.77a2.39,2.39,0,0,0-1.44.45l-2.85,2.91C1031.79,1409.62,1032,1409.84,1032.61,1409.84Z"/><path id="Path_14089" data-name="Path 14089" class="cls-8" d="M1037.43,1405.48h26.2a2.51,2.51,0,0,0,1.81-.62l1.58-2.32c.22-.32-.21-.58-1-.58h-25.25a3.08,3.08,0,0,0-1.91.58l-2.27,2.32C1036.31,1405.2,1036.66,1405.48,1037.43,1405.48Z"/><path id="Path_14090" data-name="Path 14090" class="cls-8" d="M1132.51,1405.48h12.7c.55,0,1-.2.93-.44l-.4-2.67c0-.23-.5-.41-1-.41h-12.24c-.53,0-1,.18-1,.41V1405C1131.52,1405.28,1132,1405.48,1132.51,1405.48Z"/></g></g><path id="Path_14091" data-name="Path 14091" class="cls-8" d="M1183.43,1431H1072.19c-4.06,0-6.38-1.84-5.2-4l6-11.17c.93-1.72,4.5-3.09,8-3.09h94.77c3.45,0,6.93,1.37,7.76,3.09l5.36,11.17C1189.92,1429.14,1187.48,1431,1183.43,1431Z"/></g></g><path id="Path_14092" data-name="Path 14092" class="cls-8" d="M1224.64,1259.69H1041.8a6.66,6.66,0,0,0-6.66,6.66v123.3h189.5a6.66,6.66,0,0,0,6.65-6.66V1266.35A6.66,6.66,0,0,0,1224.64,1259.69Z"/><rect id="Rectangle_1900" data-name="Rectangle 1900" class="cls-22" x="1041.24" y="1266.1" width="183.96" height="117.15" rx="4.2"/></g></g><g id="Map"><g id="Group_3290" data-name="Group 3290"><path id="Path_14093" data-name="Path 14093" class="cls-23" d="M1055.19,1300.88s2.18-1.27,1.93-1.51,0-.54.33-.72.38.18.43.34,1.24-.24,1.45-.26.56.06.74-.43.68-.3.5-.08.34.18.88.18a10.84,10.84,0,0,1,2.89.3c.35.24,2.28,2.56,2.65,2.56s1,1.25,1.29,1.08.24-1.24.46-1,0,.56.06.74a2.33,2.33,0,0,1,.09.83c0,.3.47.42.8.68s.59,0,.64.24-.27.77-.28,1,2.33,1.55,2.33,3-.4,1.63-.26,2.28a5.57,5.57,0,0,1,.18,1.57,3.16,3.16,0,0,0,.17,1.18c.11.32.79,1.09.86,1.29a5,5,0,0,0,.43.78c.09.16.09.5.24.71s.1.2.39.24a2.48,2.48,0,0,1,1.48,1.25,15,15,0,0,0,1.41,2.42c.14.15,0,.4-.18.38s0,.55.07.58,1,.44,1.16.73.23.74.31.94.45.32.58.58.34.77.56.53-.38-.91-.6-1.35-.75-1.82-.91-2.07-.64-1-.87-1.28-.28-1.28-.15-1.31.49-.08,1,1.29a9.87,9.87,0,0,0,1.7,2.58,4.48,4.48,0,0,0,.29.68,7.81,7.81,0,0,1,1.71,2.16c.41,1,0,1.82,1.24,2.56a11.24,11.24,0,0,0,3.28,1.46,7.38,7.38,0,0,1,1.41-.11,12.59,12.59,0,0,1,.9.9A4.81,4.81,0,0,1,1091,1330c.63.84.88,1,.94,1.47s.57.64.82.72.34,1.07.83,1,.67.08.62.22.37.26.42.24.34.2.43-.2.12-1,.45-.85.35.77.52,1a5,5,0,0,1,.14,2.88,2.92,2.92,0,0,0-.57,1,4.35,4.35,0,0,1-.37.75c-.08.2-.57,1.18-.62,1.34s-.21.45,0,.55.49,0,.44.24,0,.34-.15.4a4,4,0,0,0-.51.58,1.42,1.42,0,0,0,.16.73c.17.2,0,.26.43.94a20.36,20.36,0,0,1,1.85,3.67,4.47,4.47,0,0,0,.58,1.51,10.87,10.87,0,0,0,2,1.8,3.83,3.83,0,0,1,.61.93,24.41,24.41,0,0,1,0,4.1c-.1.51-.2,1.37-.29,1.67s-.34,1.27-.34,1.27a21.36,21.36,0,0,1,0,2.4,5.79,5.79,0,0,1-.54,1.92,1.91,1.91,0,0,0-.51,1c0,.21.24.75.26,1a5.62,5.62,0,0,1-.15,1c-.05.15-.26.69-.26.69s-.16,1.38,0,1.37.31-.49.3-.6.15-.7.24-.32a5,5,0,0,1-.13,1.68c-.06.12-.43-.07-.41-.12a.79.79,0,0,1-.19.55c-.23.3-.67.77-.6.88s.29.13.35.14.1.28.1.28a2.73,2.73,0,0,1-.1.48,2.68,2.68,0,0,0-.28.3s.07,1.59.34,1.63.66,1.24.69,1.39.06,1,.23,1a19.63,19.63,0,0,0,2.2,1.1c.41,0,1.24-.18,1.3-.37a.44.44,0,0,0-.13-.53,2.87,2.87,0,0,1-.69-1,6.43,6.43,0,0,1-.45-1.32c0-.29-.3-.45.11-.84s.48-.16.68-.56a2.22,2.22,0,0,0,.2-.41s.72-.4.62-.72-1.08-.13-1-.69.66-.74.84-.86a1.23,1.23,0,0,0,.45-.8c0-.32.49-.58.59-.73s.23-.38.08-.38a2.78,2.78,0,0,1-.5-.11s-.35-.4-.14-.63.75-.15,1-.15.57,0,.49-.28,0-.93.13-.92a19.74,19.74,0,0,0,2.16-.61,1,1,0,0,0,.32-.41,5.48,5.48,0,0,1,.27-.48,4.07,4.07,0,0,1-.33-.48c-.17-.28-.2-.85-.3-.86a6.52,6.52,0,0,0,1.87-.06,3.06,3.06,0,0,0,.82-1,5.43,5.43,0,0,1,.09-.56c.08-.23.31-.34.35-.44a1.54,1.54,0,0,0,.1-.24,10.75,10.75,0,0,1,.72-.84c.2-.31.38-.64.55-1,0-.1.29,0,.31-.23s.21-1.47.31-1.85.56-.5,1-.82.69-.23.83-.56,1.32-.37,1.35-.55a2.8,2.8,0,0,1,.34-.61,7.26,7.26,0,0,0,.75-2.32c0-.85.34-1.75.35-2.4a5.14,5.14,0,0,1,.59-2.27c.29-.32,1.34-1.21,1.39-1.53s0-1.73,0-1.83a3.35,3.35,0,0,0-.32-.66c-.3-.12-.59-.25-.88-.4a11.63,11.63,0,0,0-1.83-1.09,3.29,3.29,0,0,0-1.17-.18,3.52,3.52,0,0,0-.63.27c-.05.06-.19-.39-.16-.5a.8.8,0,0,0-.07-.34s-1.32-.66-1.44-.67-.15.33-.22.43,0,.39-.46.46-.63.2-.43-.08.49-.51.49-.6.21-.25,0-.38a.41.41,0,0,0-.55.15v0c0,.17-.61.3-.67.28a.63.63,0,0,1-.13-.43c0-.1.31-.52.35-.63s.18-.35.28-.51a2.27,2.27,0,0,0-.27-.71,9.63,9.63,0,0,1-.28-1.18c-.07-.12-.35-.08-.44-.19a4.24,4.24,0,0,0-2-1c-.77,0-.93-.27-.88-.29a9.11,9.11,0,0,0-1.24-1.32c-.21-.13-.38-.82-.45-.84s-.07-.38,0-.47-.15-.35-.28-.32-1.37-.09-1.4-.07.1.34-.09.4a3.23,3.23,0,0,1-.82,0l-.89-.28-.56-.88a4.51,4.51,0,0,0-.53.1,4.46,4.46,0,0,0-.5.35c-.09.08-.12.57-.12.57s-.2.84-.27.78a2,2,0,0,1-.2-.73s.14-.53.2-.66.17-.21.18-.35-.22-.45-.3-.25a6.12,6.12,0,0,1-1.3,1.08c-.16,0-.44-.15-.51.19a2.84,2.84,0,0,1-.7,1c-.14.13-.23.46-.29.25s-.42-.81-.55-.79-1,.4-1.1.44a2,2,0,0,1-.7-.32c-.12-.1-.31-.31-.53-.51s-.4-.34-.38-.65-.08-1.64,0-1.68.29-.44.19-.63-.2-.46-.32-.51-.44-.34-.57-.3a10.39,10.39,0,0,1-1.37.09c-.15,0-.48,0-.5-.21s.1-1.39.1-1.39a2.29,2.29,0,0,1,.35-.6,1.34,1.34,0,0,0,.32-.68c0-.17.34-.7.18-.73s-1.25-.15-1.52.09a3.42,3.42,0,0,0-.52,1.21c-.1.25-.19.58-1,.62s-1,.3-1.16,0a4.18,4.18,0,0,1-1.35-2.65c0-1.55,0-2.21,0-2.33s.24-.22.1-.63-.17-1.18.27-1.31.49,0,.69-.31.42-.53.65-.51a4.22,4.22,0,0,1,1.37.11c.35.18.54.42.66.21a.67.67,0,0,0,0-.5,9.37,9.37,0,0,1,2.42-.22c.28.16.3.34.53.34s.33,0,.46,0a2.49,2.49,0,0,1,.66,1.26c0,.44.42.84.49,1.07s.14.88.44.84.31-.55.27-.85-.54-1.82-.59-2.36-.3-.51,0-1a3.27,3.27,0,0,1,.76-1,13.61,13.61,0,0,0,1.61-1.43c0-.13-.21-.3-.07-.45s.6-.2.42-.4a1.23,1.23,0,0,1-.39-.69c0-.25.07-.25-.1-.42s-.22-.34-.1-.38.19.25.3.25.13-.22.13-.28.06-.46.3-.55.32.28.43.27.26,0,.29-.13.13-.51.15-.64a.4.4,0,0,1,.23-.3l.29-.15c.15-.09,1.09-.29,1.12-.52a2.64,2.64,0,0,1,.08-.62,2.49,2.49,0,0,1,.47-.84,1.63,1.63,0,0,1,.6-.31c.18-.09.14,0,.33-.19s.44-.18.36-.39-.1-.23-.1-.3,0-.25,0-.25.27.4.31.44-.06,0,.1.08a1.44,1.44,0,0,0,.41,0c.18,0,.19,0,.24-.06s.25-.29.09-.8-.1-.57,0-.56l.28,0s.22-.22.11-.29,0-.5,0-.5.08-.26,0-.26-.72.1-.72.1-.59.18-.81.22a6,6,0,0,0-.94.56c-.11.06-.39.1-.38.06a1.49,1.49,0,0,1,.39-.44,1.1,1.1,0,0,0,.28-.2l.35-.31a2.36,2.36,0,0,1,.84-.55,3.18,3.18,0,0,1,1.26-.2,5,5,0,0,0,.54.07c.27,0,.29,0,.8,0s1.09,0,1.21-.17,1.2-.82,1.2-.71a12.36,12.36,0,0,1-.49,1.45,1.88,1.88,0,0,0-.33.7c0,.24.16.32.42.37a5.55,5.55,0,0,0,.82.06l.63-.14.43-.2s0-.4,0-.45.08-.3-.12-.24-1.14-.24-1.14-.41a1.33,1.33,0,0,1,.22-.55.62.62,0,0,0,.16-.52c0-.33-.45-.87-.38-.93s.24-.36,0-.51a4.82,4.82,0,0,1-.63-.35c0-.07-.55.47-1.14.53s.06-.41.06-.41a1.4,1.4,0,0,1,.33-.31c.13-.06.42-.1.18-.3s-.3,0-.62,0-.16-.36-.43-.48a1.72,1.72,0,0,1-.55-.37c-.11-.1-.36-.32-.34-.36a.53.53,0,0,1,.25-.17c.13,0,.08-.27-.09-.39s-.49-.42-.49-.42a7.68,7.68,0,0,1-.5-.63c0-.06,0-.44-.11-.45s-.3-.08-.33.13.1.62-.19.71a.31.31,0,0,1-.38-.17,2.26,2.26,0,0,0-.43.17,2.35,2.35,0,0,0-.33.3h-.31s.07-.31-.08-.4-.72.06-.78.06-.36-.06-.26-.15a.83.83,0,0,1,.21-.16.85.85,0,0,0,.09-.22l-.13-.29s-.09-.16-.22-.16a.36.36,0,0,1-.2-.06,2.55,2.55,0,0,1,.31-.12l.28-.12-.17-.13-.2-.1-.74-.18a6,6,0,0,0-.76-.66,7.59,7.59,0,0,0-1-.07c-.2,0-.38.15-.5,0s-.74-.21-.77-.21a.34.34,0,0,0-.14.15s.35.45.35.45,0,.44,0,.53a.72.72,0,0,1-.06.29,1.44,1.44,0,0,1,.13.37,1.87,1.87,0,0,1-.25.41,2.2,2.2,0,0,0-.21.32s.39.36.47.44a2.38,2.38,0,0,1,.29,1.14c-.07.27-.25.36-.26.42s-.17.17-.21.22l-.49.38s-.5.05-.5.16c.17.51.33,1,.45,1.54,0,.2-.06.74-.42.66a2.16,2.16,0,0,1-1.34-1c-.39-.66-.07-1.49-.25-1.59a12.53,12.53,0,0,0-1.62,0,6.47,6.47,0,0,1-1.58-.94,4.1,4.1,0,0,0-.7-.23l-1.3-.23s-.25-.72-.65-.88-1,0-.73-.78a3.57,3.57,0,0,1,1.11-1.71c.29-.12.56-.25.83-.39s.37-.69,0-.66-1.44.26-1.3.08,1-.26,1-.26.67.2.83.23.3,0,.36-.08a2,2,0,0,1,.55-.28s.8-.41.7-.42h-.63a1.13,1.13,0,0,1-.62-.19c-.23-.19-.53-.17-.43-.34s.67-.16.73-.13l.69.21a1.91,1.91,0,0,0,.47.07s.18-.08.21-.15a.75.75,0,0,0,0-.3l-.1-.19.49-.21a2.54,2.54,0,0,1,.39,0s1.9-.07,1.91-.32a.88.88,0,0,0-.27-.6c-.08-.06-1.7-.62-1.7-.62l.1.36-.54.37-.44.68s-.92-.65-.85-.72.22-.39.12-.45-.46-.17-.7-.24c0,0,.59.73-.09.48a3.17,3.17,0,0,1-1-.56l-.28-.32s-.28-.24-.28-.34-.93-.85-1.19-.76-.44.18-.44.27.18.27.18.27l-.25.2a.63.63,0,0,0,.21.22,1.47,1.47,0,0,0,.54.16,3.17,3.17,0,0,1,.53.05s.47.33.19.57-.68.65-.8.63l-.37,0s-6.09-.1-6.09,0,.24.42.25.48a.67.67,0,0,1-.2.39c-.12.12-.45-.27-.65-.42a5.28,5.28,0,0,0-.76-.36l-5.3-1.2q-1,0-1.92,0c-.61-.08-.59.23-.83.28s-.79-.81-1.09-.78a8.8,8.8,0,0,1-1.32.26c-.3-.05-.47.5-.47.5l-.58-.19a3,3,0,0,1-1.19.42l-1.15,0-1.12-.09-9.1-1.45a10.88,10.88,0,0,1-1.79.44,2.3,2.3,0,0,0-1.55.68,7.73,7.73,0,0,1-1.85.9,25.32,25.32,0,0,1,3.27,1.25,5.25,5.25,0,0,1-1.85.18,1.41,1.41,0,0,0-1.22,0c-.37.24-.06.57.15.77a5,5,0,0,0,2.12.32c.32-.1.87.2.8.26s-.85.56-.85.56-1,.27-1.17.27-.62.56-.62.56-.12.3-.06.34l.77.52.48,0-.4.2c-.15.07,0,.26.19.26s.46,0,.46,0v-.07l.34.14.1.51.66,0a6.3,6.3,0,0,1,1.23-.19.58.58,0,0,1,.56.52c0,.09-2.28,1.91-1.93,2S1055.19,1300.88,1055.19,1300.88Z"/><path id="Path_14094" data-name="Path 14094" class="cls-23" d="M1126.56,1315.28s-.18-.71.27-.68,1.49.52,1.76.53.31,0,.31.08a.73.73,0,0,1,.39-.26c.31-.07,1.32-.74,1.51-.74a20,20,0,0,1,2.88-.24c.34.12.36.51.51.37s.29-.48.46-.48.48-.07.49.12.56-.19.58,0-.32.44-.32.51a5.54,5.54,0,0,0,.17.58l-.06.48-.08.13a1.86,1.86,0,0,0,0,.47.61.61,0,0,0,.12.16.51.51,0,0,1,.16.13l.08.12.72.18s-.07,0,.16,0l.44,0s0-.07.26.21l.39.43.35.4.25.1a.86.86,0,0,1,.59.06,1.43,1.43,0,0,1,.26.23.39.39,0,0,0,.17.14,1,1,0,0,0,.31.12c.21.05.29,0,.29,0l.1-.4.44-.94.34-.49a.35.35,0,0,1,.37,0c.22.1.4.12.49.24a8.18,8.18,0,0,0,2.23,1.07,6.37,6.37,0,0,0,1.3.19l.69-.15.54-.12s1,.11,1.09.14a10.37,10.37,0,0,1,.21,1.93.5.5,0,0,1-.21,0s0,.32,0,.33-.27-.32-.36-.44l-.37-.53s-.37-.28-.3-.08.65.63.66,1a6.17,6.17,0,0,0,.2,1c0,.1.19.56.23.67s.47,1,.47,1a1.57,1.57,0,0,1,0,.37c0,.19.08.41.15.4a1.67,1.67,0,0,1,.57.23s.1.42.1.42l.1.38a1.52,1.52,0,0,1,.06.42,3,3,0,0,0,.34,1.38,3.11,3.11,0,0,1,.52.9,5.16,5.16,0,0,0,.23.66c.06.12.18.26.27.4s1.4,1.62,1.4,1.62l-.2.29.16.15.46,0a1.41,1.41,0,0,1,0,.41.84.84,0,0,0,0,.31s.53.84,2.42.14,1.69-.19,1.65.15a13.91,13.91,0,0,1-2.83,5.44,16.87,16.87,0,0,0-2.35,3,18.55,18.55,0,0,0-1,1.71,7.66,7.66,0,0,0,.1,1.79c0,.26.1,1.39.1,1.39a5.76,5.76,0,0,1,.5,2.69c-.11,1.38-.08,2.08-.4,2.14a10.89,10.89,0,0,0-2.49,2.1c0,.23.3,1.85.28,2.15s-.13,1-.22,1-1.13.72-1.13,1a4.94,4.94,0,0,1-.2,1.48,8.09,8.09,0,0,0-.67.85c0,.13-1.65,2.79-3.18,3s-1.73.24-2.1.28-1,.24-1.19-.28a11.8,11.8,0,0,0-.26-1.21,19.84,19.84,0,0,0-1.34-3.06s-.36-2.35-.44-3-1.74-3.44-1.52-3.74.4-2.17.8-3.1a3.29,3.29,0,0,0,0-2.19,1.52,1.52,0,0,1,0-.64,7.37,7.37,0,0,0-.4-1.73c-.11-.49-1.81-3-1.74-3.34s.69-1.06.55-1.13a.5.5,0,0,1-.14-.6,1,1,0,0,0,0-.81c-.11-.34-.13-.88-.22-.89s-.35.64-.49.53.14-.73.14-.73l-.92.14-.79-.23a3.11,3.11,0,0,0-.09-.6c-.06-.16-.26-.16-.4-.21s-.76-.6-1-.46a4.12,4.12,0,0,0-.64.3,7.07,7.07,0,0,0-.76.43,1.48,1.48,0,0,1-1.35.34,2.43,2.43,0,0,0-1.72.16c-.38.24-.69.42-1,.19s-1.09-1.09-1.2-1.11a3.47,3.47,0,0,1-1.17-1.53c0-.56-1-1.6-1.31-2.11s-.44-.64-.41-.79.23-.17.42-.2.46.08.53-.06-.7-.25-.7-.25a.78.78,0,0,1-.5-.31l-.25-.47a7.12,7.12,0,0,0,.41-1,1.41,1.41,0,0,0,.08-.61c0-.28-.07-.53-.07-.53l0-1.66s-.3-.35-.28-.47a2.83,2.83,0,0,0,.09-.37c0-.13,0-.33,0-.33s1.55-3.33,2-3.5.46-.28.5-.39a.76.76,0,0,1,.18-.22l.84-.82a3.81,3.81,0,0,1,.08-1.26,1.51,1.51,0,0,1,.73-1.21c.27-.21.69-.44.76-.52A1.8,1.8,0,0,0,1126.56,1315.28Z"/><path id="Path_14095" data-name="Path 14095" class="cls-23" d="M1131.32,1310.26a.67.67,0,0,1-.32.77,3.22,3.22,0,0,0-1.14,1.44.73.73,0,0,0,.16.3s0,.13-.06.13-.22,0-.24.12a3.5,3.5,0,0,1-.58.75c-.12,0-.84.41-.87.41l-.63,0a5.25,5.25,0,0,0-.46.49c-.06.07-.44.5-.58.07s.05-.58-.1-.7-.91,0-1.12-.06-.14-.16-.24-.55-.15-.71-.22-.73,0-.11.09-.18a3.58,3.58,0,0,0,.28-.37,3,3,0,0,1,0-.9c.08-.37.1-.62.11-.64l.14,0-.09-.42s-.32-.26-.22-.38a7.82,7.82,0,0,1,1.6-.1l1.41,0a6.37,6.37,0,0,1,.69.16c.09,0,.25-.27.25-.27V1309l.25-.41-.06-.5-.34-.43-.33-.47-.35-.36a.53.53,0,0,1-.45-.21.82.82,0,0,1-.16-.41,2.35,2.35,0,0,1,.7-.14c.24,0,.67,0,.71-.06a1.25,1.25,0,0,0,.09-.25.13.13,0,0,1,.06-.15h0c.14,0,.44.07.55,0s.78-.26.78-.39a2.08,2.08,0,0,1,.06-.36s0-.23.12-.24a1.76,1.76,0,0,1,.25.06c.11,0,.26,0,.28,0a1.34,1.34,0,0,1,.07-.18.43.43,0,0,1,.1-.09.47.47,0,0,1,.22-.09l.39.15a0,0,0,0,0,.06,0h0a1.59,1.59,0,0,0,.07-.2s0-.18,0-.18a4.25,4.25,0,0,1,.55-.57c.1,0,.25-.4.37-.45s-.07,0,.33-.08a2,2,0,0,0,.44-.06c.13,0,.37,0,.38-.15s0-.13,0-.24a2.66,2.66,0,0,1,0-.28s.09-.2.23-.13a2.89,2.89,0,0,1,.44.27,2.32,2.32,0,0,0,.39.18l.36,0a11.53,11.53,0,0,1,1.44,0c0,.06,0,.18.23.06.4-.14.81-.27,1.22-.37l1-.09.41-.09s.55-.16.6-.27a3,3,0,0,0,.09-.67,2.68,2.68,0,0,1,.3-.77c.08,0,.11-.39.16-.41s.35.24.52.39.85-.16.81-.35-.05-.21-.14-.3-.4-.06-.37-.24.3-.42.83-.45l.9-.08c.2,0,0,.31.27.22a8.51,8.51,0,0,0,.9-.57s-.3-.35-.26-.49-.15-.28-.32-.11a1.84,1.84,0,0,1-1.35.27c-.74-.06-2.16,0-2,0s-.11,0,0-.49-.17-.52-.06-.67c.47-.53,1-1,1.49-1.52.37-.31.52-.31.52-.67s-1.39-.29-1.48-.23-.63.26-.59.5.22.5,0,.62-.6.72-1,.72-1.25.88-1.16,1.28.7.54.66.68.12.2-.13.37-.13.47-.36.51-.45-.07-.52,0a3.56,3.56,0,0,0-.15.79.33.33,0,0,1,.14.42,1.35,1.35,0,0,1-.5.48s-.29-.07-.39.07-.38.4-.55.35a.34.34,0,0,1-.25-.33,19.12,19.12,0,0,1-.8-1.93c.06-.2.07-.06.26-.43s.46-.66.35-.79-.12-.18-.17-.17-.22-.15-.18,0,.15.29.1.37-.14.33-.24.33-.18.38-.25.5a.15.15,0,0,1-.21.08.16.16,0,0,1-.08-.08c-.1-.13.36-.32.13-.43s-.58.5-.58.5-.87,1-1.52.68-.49-.64-.38-.71.34-.34.3-.55-.22-.33,0-.56.36-.36.31-.44-.16-.24-.12-.29a10.79,10.79,0,0,1,1.54-.89c.45-.18,1-1.07,1.12-1.1l.22-.11s0-.52.12-.54.11.08.23,0,.31,0,.32,0a5,5,0,0,1-.3.93c-.05,0,.13.13.1.21s-.32.2-.32.2a.16.16,0,0,0,.16.16c.16,0,.32.17.37-.33a1.69,1.69,0,0,1,.23-.91c.13-.16.21,0,.47-.37s.46-.65.38-.65-.2.19-.26.09.14-.36.14-.38.18-.18.21-.11,0,.16.08.11.9-.37,1-.37a6.39,6.39,0,0,0,.75-.09,1.39,1.39,0,0,0,.46-.22c.08-.07.39,0,.42,0s-.25-.32-.17-.33.11-.06.07-.12-.25-.21-.18-.3,1-.08,1.36-.27.46-.36.52-.34,0,.3.11.33.36-.2.48-.21h.61c.16,0,.28-.17.29-.17s.33.21.27.29.14.22.2.23.32,0,.28.1.06.07-.13.32-.27.44-.14.64.29.09.26.07a.21.21,0,0,1,0-.26,1.48,1.48,0,0,1,.29-.22c.1,0,1.2-.57,1.57-.43a13.92,13.92,0,0,1,2.54.57,1.22,1.22,0,0,0,.69.34c.27.08.8.1.8.4s-.15.36-.31.57-.23.26-1.08.18-1.43-.27-1.81-.32-.81-.32-1-.28-.15.37,0,.37a2.1,2.1,0,0,1,.85.41c.08.13.27.17.2.46s.36.72.41.72l.47.22.58.1s.36-.06.42-.18a2.23,2.23,0,0,1,.53-.38l.78.1s-.27-.69-.27-.69a9.41,9.41,0,0,1,1-.37l1,0a1.41,1.41,0,0,0,.57-.37,1.14,1.14,0,0,1,.63-.19c.23,0,.69,0,.69,0a5.29,5.29,0,0,1,2.32-.9c.93.06.55.19,1.46.06s1.25-.2,1.25-.2a2.72,2.72,0,0,1,.94.14c.19.14,1.17.2,1,0s-.57-.54-.37-.7.8,0,.88,0a7.75,7.75,0,0,1,2.17.48,2.65,2.65,0,0,0,1,.43c.06,0,.44,0,.39-.16a3.52,3.52,0,0,0-.18-.39s-.3-.36-.34-.39-.48-.52-.48-.52l.22-.66c.19-.12.39-.23.59-.33,0,0,.43-.58.51-.65s.62-.57.73-.52,1,.7,1,.83,0,0-.12.25-.31.22-.2.41a1.4,1.4,0,0,0,.27.33,1.08,1.08,0,0,1,0,.4c0,.16-.14.69-.14.69a3.09,3.09,0,0,0,0,.43s.42,0,.42.09-1.09,1.12-1.15,1.27,0,.28.12.28.67,0,.73,0,.91-.63.92-.77.1-.89.1-.89h.56c.06,0,.47,0,.51.15s.24.7.4.73a2,2,0,0,0,.49,0,.32.32,0,0,0-.17-.35l-.27-.15a.69.69,0,0,1,0-.2l.2,0-.22-.3a2.81,2.81,0,0,0-.31-.29,4,4,0,0,1-.85-.08c-.47-.1-.75-.33-.75-.43s.11-.11.16-.19.35,0,0-.22-.26-.13-.36-.32a1.35,1.35,0,0,1-.17-.34c0-.05.27,0,.4,0l.42,0a9.61,9.61,0,0,0,1.67.55c.35,0,.22-.22,0-.33l-.84-.48s0-.13.11-.14a6.34,6.34,0,0,1,.65.08,1.2,1.2,0,0,0,.53-.15c.08-.07.27-.09.58.12a2.86,2.86,0,0,0,.87.28l.44.14s-.11.3-.18.3-.2.68-.2.68a3,3,0,0,0,.6.21c.23.05.45-.25.33-.66a1.58,1.58,0,0,0-.78-1.08c-.44-.16-.57,0-.65-.25a1.61,1.61,0,0,1,0-.49c0-.07.18-.12.31-.14s3,0,3-.13-.4-.12-.33-.31-.15-.42-.15-.42,6.56-.88,7.53-.91,1.69-1,2-.86.14.27,1,.51,2.91.55,2.92.76.6,0,.44.23-3.12,1-3.36,1.44,2.94-.15,3.32-.06.59.18.73-.08.89-.23,1.17-.12.52.14.93.32a2.72,2.72,0,0,0,1.06.13s1.48,0,1.62-.23,1.13-.13,1.59-.08,1.18.42,1.09.48-.11.09-.15.14l-.28.17.23.34s.79.75,1.31.7.38-.23.59-.36.25-.33.62-.3,3.51.16,3.51.16-.11-.13.18-.42a1.82,1.82,0,0,1,1.28-.32c.33,0,.51.48.8.52s.66.19.72.18a5.15,5.15,0,0,0,.45-.32,2.82,2.82,0,0,1,.65,0c.09,0,0,.28.39.28s5.56.53,5.63.67,0,.4.16.53a1.35,1.35,0,0,0,.85.2,13.85,13.85,0,0,1,3.34.16c.37.24.66.48,1,.39s.64-.1.65-.18-.16-.14-.16-.14l-.3-.3.29-.12s-.18-.13.07-.1,4.27.43,4.41.76a.68.68,0,0,1,0,.66,1.66,1.66,0,0,0-.07.91c.06.34.18.89.09,1s-.48.45-.6.42a3.07,3.07,0,0,0-.86-.19c-.17,0-1,.12-.7.18s.41,0,.62.07.52.05.6.09a.9.9,0,0,1,.28.48c.05.21.43.53.43.53s-.06.23-.44.23a12.27,12.27,0,0,0-1.36,0,24.67,24.67,0,0,0-2.66,1.08c-.22.25-.2.26-.49.22s-1.48-.08-2-.08a2.82,2.82,0,0,0-1.24.32c-.17.11-.29.28-.25.37s.1.45.24.4.07,0-.05.06a.69.69,0,0,1-.35,0l-.06-.1-.4.34s0,.38.18.41a1.63,1.63,0,0,1,.4.24l0,.41s.18.15.17.23-.21.16-.34.21-.53.37-.47.56.6.36.13.56-.77,0-.92.13a.75.75,0,0,0-.16.58c0,.1-.23.21-.36.24a3.28,3.28,0,0,0-.56.42l-.71.58-.51-1.21a17,17,0,0,1-.14-2.37c.1-.09.77-.06.77-.22a4.17,4.17,0,0,1,0-.45,1.4,1.4,0,0,0,.41-.06c.12-.06,2.67-1.93,2.89-2s.39-.68.39-.68l.4-.26a2,2,0,0,0-.52-.26,2.06,2.06,0,0,0-.62.6,2.37,2.37,0,0,1-1,.67c-.2,0-.41,0-.62,0,0,0,.06.06.18-.14s.36-.43,0-.46a3.87,3.87,0,0,0-1.84.3,12.9,12.9,0,0,0-1,.88,2.59,2.59,0,0,0,.32.42c.09.07.29.15-.2.15s-1.85.1-1.78.06a.32.32,0,0,0-.32-.48c-.45,0-1.11.27-1,.28s-3.31,0-3.31,0a6.45,6.45,0,0,0-1.39.76c-.22.26-1.21,1.53-1.21,1.53l-.9.44a.41.41,0,0,0,.2.52c.35.13.42.3.41.34a.89.89,0,0,0,.5.32c.19,0,.63-.39.73-.39a6.33,6.33,0,0,1,.83.64l.26.84a.72.72,0,0,0-.23.36,5.16,5.16,0,0,0-.09.79s.26,1.13-1.73,3.12-2.61,1.51-2.61,1.51l-.65.28s-.39.3-.42.4-.07.32-.09.4-.4,1-.59,1a5.67,5.67,0,0,0-1,.42l.58.57a9.19,9.19,0,0,1,.6.93,6,6,0,0,1,0,.85c0,.18.08.6-.21.6s-1,.08-1.12.08-.28-.22-.17-.48a6.63,6.63,0,0,0,.28-1.06,1.1,1.1,0,0,0,0-.51l-.52-.18s-.2.2-.27-.1-.13-.23-.08-.32.1-.09.1-.09l0-.07s.22-.18,0-.27l-.27-.11-.22-.05-.39.08-.35.14s-.81.28-.83.2.21-.52.21-.64.11-.55.06-.56-.27-.17-.8.23-.44.54-.75.68a2.78,2.78,0,0,1-.4.16l-.18.34s0,.52.14.5.55.6.55.67.44,0,.6-.12a1.4,1.4,0,0,1,.88.08c0,.09,0,.27-.09.27a1.84,1.84,0,0,0-.9.34c-.15.22-.52.86-.52.86s1,.84,1,1,.32.53.22.58-.76.21-.59.3.82.29.75.55a.49.49,0,0,1-.32.32s-.3.2-.12.32.26.18.27.28a.58.58,0,0,1,0,.45,6.23,6.23,0,0,0-.64,1.12c0,.22,0,.1-.24.46a1.85,1.85,0,0,0-.34.67s-.66,1-.91,1.15-1,.82-1.42.8-.15-.28-.51-.06a17.89,17.89,0,0,1-1.88.74l-1.32,0s-.38.2-.34.24.5.3.39.31a5.67,5.67,0,0,0-.73.74s-.28.62,0,.88a12.47,12.47,0,0,1,.9,1.59l.54.72s0,0,.14.45a3.05,3.05,0,0,1,0,1.41c-.1.31-.32.81-.5.88s-.28,0-.65.29a2.59,2.59,0,0,0-.56.83c-.09.1-.22.22-.29.16a3.63,3.63,0,0,1-.15-.67s.19-.31.12-.37a.92.92,0,0,0-.33-.06s0,.12-.23-.08-.3-.08-.46-.54-.1-.49-.25-.67-.18-.09-.39-.19-.47,0-.52-.16a1,1,0,0,0-.17-.27l-.17.07a.64.64,0,0,1,0,.41c-.1.16-.2.4-.27.35s-.14.23-.14.23l-.11,1.08.12.77s.22.35.45.81a9.27,9.27,0,0,0,1.4,1.47,1.24,1.24,0,0,1,.24,1,4.34,4.34,0,0,0,.36,1.59s.23.32-.06.34a2.6,2.6,0,0,1-1.49-1.17,24.66,24.66,0,0,1-.69-2.37c-.22-.44-.77-1.47-.77-1.47l.32-2.93a3.6,3.6,0,0,1-.29-.63c0-.14-.43-1.61-.43-1.61s-.53.12-.65,0-.87.28-1-.16.51-.74-.22-1.51a4.21,4.21,0,0,1-.94-1.54l-.59-.67a4.65,4.65,0,0,1-1,.36c-.15,0-.09-.64-.09-.64s-.21.49-.32.54a2.7,2.7,0,0,0-.54.4s-.2,1-.5,1.1a1.12,1.12,0,0,0-.52.36c-.11.16-.59.7-.59.7a3,3,0,0,0-.69.64,2.53,2.53,0,0,1-.58.8c-.2.12-.74.36-.74.36a2.73,2.73,0,0,1,0,.7,12.55,12.55,0,0,1-.28,2.52c-.18.06,0,.42-.29.64a1.62,1.62,0,0,0-.51.56,3.31,3.31,0,0,0-.18.53c0,.08,0,.42-.22.08s-.66-1.27-.71-1.47l-.9-3.68a8.06,8.06,0,0,1-.66-1.47,16.49,16.49,0,0,1-.17-2.33s.07-.5-.16-.52-.24.73-.24.73l-.37.43s-.65-.59-.78-.69a.82.82,0,0,1-.21-.36l.38-.24s.24-.08.23-.24-.45-.1-.45-.1l-.61-.32-.1-.17-.21-.12-.18-.24a4.14,4.14,0,0,0-2.36-.68,10.36,10.36,0,0,1-2.36-.28l-.69-.42a2,2,0,0,0,0-.54c-.06-.1-.22.1-.81.17a1.89,1.89,0,0,1-1-.2l-.39-.45a.83.83,0,0,1-.81-.43c-.35-.53-.38-.9-.9-.94s-.55,0-.56.08a2.43,2.43,0,0,0,0,.38,3.38,3.38,0,0,0,.38.9c.34.64.35.64.61,1.11s.48,1,.48,1l.29.52s-.13.31.43.11a3.16,3.16,0,0,1,.91-.2l.3,0,.3-.2s.34-.36.48-.33.28.3.28.38a.37.37,0,0,0,.27.41,5,5,0,0,1,.53.23,5.65,5.65,0,0,1,.48.32c.07.06,0,.06.1.18a3,3,0,0,1,.09.6l-.29.44a.72.72,0,0,0-.22.17c-.07.07-.3.41-.3.41l-.16.25-.08.24-.21.33-.28.4a1.34,1.34,0,0,1-.21.2l-.23.15-.1.07-.14.21,0,.07a6.37,6.37,0,0,1-.95.26c-.17,0-.72.46-.72.46l-.49.68a6.84,6.84,0,0,1-1,.61,19.21,19.21,0,0,1-3,1.09,1.2,1.2,0,0,1,0-.42l-.17-1.93s-.34-1.16-.68-1.38-.36-.68-.49-.88-.8-.75-.84-.9-.12-1.62-.12-1.62l-.71-.7-1.29-2.73-.3-1.69s.18-.06.25,0a2.19,2.19,0,0,1,.23.21l.06-.58a1.49,1.49,0,0,0,.17-.36,4.89,4.89,0,0,0-.27-.76,8.77,8.77,0,0,1,.49-.84l-.08-.79.52-.54a12.62,12.62,0,0,0-1.33,0c-.31,0-.6.54-1,.34s-.38-.49-.89-.42a1.52,1.52,0,0,1-2-.82,1,1,0,0,1-.08-.25,9.06,9.06,0,0,0-.29-.88s.6-.42,0-.63a1.89,1.89,0,0,0-1.13,0s0,.18-.14.21a2.54,2.54,0,0,0-.54.44c-.06.16-.13.32-.2.47a1.74,1.74,0,0,0-.2.49l.2.52s-.25.52-.29.34a6.46,6.46,0,0,0-.1-1.07c-.08-.13-.25-.69-.42-.7a.41.41,0,0,1-.37-.18,1.54,1.54,0,0,1-.22-.49l0-.48-.1-.39a14.52,14.52,0,0,1-1.8-1.41c0-.15-.28-.42-.28-.42l-.24-.3a4.4,4.4,0,0,1-.5-.21c-.22-.11-.3-.41-.4-.41s-.4.52-.4.52a5,5,0,0,0,.63,1.36c.28.22,1.37,1.42,1.37,1.42l.87.33s.3.14.24.27-.07.14-.19.09a5.17,5.17,0,0,0-.68-.16s.22.73.25.76,0,0-.28.28l-.49.49s.1-.54.14-.79-.38-.65-.38-.65-.8-.8-1.06-.8-1.17-1-1.3-1.25,0-.45-.28-.62-1.12.28-1.68.56a1.06,1.06,0,0,1-1.07-.14l-.63.33Z"/><path id="Path_14096" data-name="Path 14096" class="cls-23" d="M1179.57,1337.75s.42.11,1,.94a4.38,4.38,0,0,0,1.18,1.13,9.61,9.61,0,0,1,1.1,1.11c.06.19.14-.3.4,0s-.06.15.44,1,.69.52.68,1,0,1.83-.34,1.68a21.84,21.84,0,0,1-2.95-4.08,1.82,1.82,0,0,0-.56-.86c-.12-.1-1.7-1.89-1.41-2.09a.28.28,0,0,1,.37.05A.3.3,0,0,1,1179.57,1337.75Z"/><path id="Path_14097" data-name="Path 14097" class="cls-23" d="M1186.42,1340.09l.4,0,.41-.1s.51-.75.65-.88a2.54,2.54,0,0,1,.5-.36s.47-.2.6-.27.38-.86.66-1,.75-.46.75-.46a1.83,1.83,0,0,0,.42.5c.14.07.75.09.59.29s-.66.38-.73.46a2.08,2.08,0,0,0-.07,1.57c.3.5.6.47.36.61a4,4,0,0,0-.69.85s-.33.72-.42.85a3.64,3.64,0,0,0-.18.87s-.38.61-.67.68-.14-.72-.31-.76-.35-.22-.48-.22h-1.46a4.37,4.37,0,0,0-.17-1.14C1186.4,1340.92,1186.19,1340.3,1186.42,1340.09Z"/><path id="Path_14098" data-name="Path 14098" class="cls-23" d="M1184.56,1345.06s.24-.22,1.34.08,1.26.09,1.31.09a2.63,2.63,0,0,1,.6.25,3,3,0,0,0,.79.48c.21.06.58,0,.39.19a4.21,4.21,0,0,1-2.36-.1c-.74-.29-1.84-.71-2-.77S1184.49,1345.08,1184.56,1345.06Z"/><path id="Path_14099" data-name="Path 14099" class="cls-23" d="M1199.5,1343.15s-.31-.48-.41-.43.08.66.34.8,1,.57,1.27.71.91.53.91.74a3,3,0,0,0,.66,1.31,1.92,1.92,0,0,0,.5.24s-.1-.32-.06-.25a2,2,0,0,0,.8.36c.16,0,.44,0,.18-.26s-.43-.35-.37-.4a1.62,1.62,0,0,1,.62-.06,4.71,4.71,0,0,0,1-.29s2.28,2,2.18,1.65a12.3,12.3,0,0,0-1.13-1.58.52.52,0,0,1,0-.56c.07,0,.29-.08-.28-.41a2.92,2.92,0,0,1-.87-.81,28.87,28.87,0,0,0-3.41-1.64c-.62-.11-.76-.26-1,.16s-.26.72-.63.72Z"/><path id="Path_14100" data-name="Path 14100" class="cls-23" d="M1196.65,1350.17a.7.7,0,0,1,.39-.92l0,0c.72-.34,1.16-.5,1.16-.5l.19-.42,1,.5,1.09.14-.3.36a4.22,4.22,0,0,0-.21,1.22l.35.47a15.3,15.3,0,0,0,1.39,1c.55.34,1.13-1.75,1.13-1.75a11.51,11.51,0,0,1,.42-2.33c.19-.05.68,2.24.74,2.29s.52,0,.6.15a7.23,7.23,0,0,1,.21.8l.33.86s-.06.59.2.82a9.79,9.79,0,0,1,1.62,2c.35.71.5.18.53.2a2,2,0,0,1,.14.41,2.61,2.61,0,0,0,.31.54c.06,0,2.36,1.69.5,5.39s-1,2.93-2.1,3-1.26.52-1.54.3-1.21.11-1.21.11a14.71,14.71,0,0,1-1.26-.78,14.12,14.12,0,0,1-.87-1.44,5.92,5.92,0,0,1-.68-.82,3.39,3.39,0,0,1,.13-.55,1.32,1.32,0,0,0-.56.4c-.31.34-.46.67-.62.74s-.83-1.18-.83-1.18-3.71-.45-4.79.26-1.24.26-2,.22-.8.85-1.17.85-1.85-.41-1.67-.81a12.3,12.3,0,0,0-.34-3.37,6.51,6.51,0,0,1-.18-1.52c0-.3-.13-2.33-.13-2.33s1-.48,2-.93,2-.92,2-1.18a5.56,5.56,0,0,1,.09-.82s.49-.37.62,0,.15.52.37.56.24-.26.09-.44-.31-.34-.16-.34h.47s.08-.65.27-.57.89-.83.9-.86a2.28,2.28,0,0,1,.47.51c0,.06,0,0,.12.32s.6,0,.61,0S1196.65,1350.17,1196.65,1350.17Z"/><g id="Group_3287" data-name="Group 3287"><g id="Group_3286" data-name="Group 3286"><path id="Path_14101" data-name="Path 14101" class="cls-23" d="M1107.78,1286.1a.52.52,0,0,0,.56.06c.27-.18.59.27,1,.35s1.26-.14,1.08.12-.1.41.13.65a.73.73,0,0,1,.25.65,1.24,1.24,0,0,1-.2.77,1,1,0,0,0-.21.67c0,.12-.59.14-.51.35s.87.36.9.1,0-.39.08-.55.46.16.59.16.56,0,.51.16-.31.25-.28.43.46.3.23.49a.43.43,0,0,1-.61,0,4,4,0,0,0-1.18-.21s-.26.35-.1.41-.28-.05-.38.12a.42.42,0,0,0,0,.47.64.64,0,0,0,.57.19c.26-.06.81-.11.51-.29s-.29,0-.32-.2.19-.36.19-.36a1.28,1.28,0,0,0,.6.25c.22,0,.45-.1.43.13a1.51,1.51,0,0,1-.42.71.84.84,0,0,0-.26.58c0,.13.21.25.22.32a.59.59,0,0,1-.22.4.48.48,0,0,0-.23.19.57.57,0,0,1-.6,0c-.19-.12.08-.59-.12-.59a.78.78,0,0,0-.51.18,1,1,0,0,0-.27.3l.24.21c.1.1-.05.49-.12.5s-.48,0-.31.2.27,0,.35.19a.38.38,0,0,1,0,.37s-.09,0-.11.11-.37.8-.27.85-.1,0,.38-.33.5-.57.5-.29-.13.45-.18.45-.64.49-.54.71.26.49.29.56.11.1,0,.26-.28.2-.06.27a1.47,1.47,0,0,1,.39.21s.15.54.24.73,0,.24.12.27.28.2.51,0,.67-.12.73-.28.2-.31.24-.07a.59.59,0,0,1-.14.44.33.33,0,0,0,.1.37c.14.07.06.35.3.34s.23.15.3-.14,0-.42.24-.71a2.34,2.34,0,0,1,.37-.4,2.43,2.43,0,0,0,.34-.3c0-.06.49-.24.33-.38s-.33-.18-.08-.36.43,0,.53-.1a1.83,1.83,0,0,0,.18-.3c.09-.19.11-.3.24-.36a.86.86,0,0,1,.49-.15c.2,0,.3-.07.17-.24s-.36-.22-.34-.3.19-.17.29-.23a.36.36,0,0,0,.19-.24c0-.09,0-.13,0-.21s.34,0,.39,0a.31.31,0,0,0,.06-.13s.29-.25.42-.26.06.13.21.12.2.06.33,0,.25-.18.25-.25a2,2,0,0,1,0-.24s.3-.23.35-.19,0,.08,0,.2-.36.29-.16.38.16.26.3.07a1.1,1.1,0,0,1,.48-.32,3.49,3.49,0,0,1,.35-.26s0-.11,0-.14.84,0,1.11-.21.47-.57.66-.65.54-.11.51-.33-.22-.55-.08-.51.37.41.6.43.3,0,.26-.06,1.5-.23,1.94-.29a1.91,1.91,0,0,0,1-.44,5.31,5.31,0,0,1,1-.53c.37-.14.73-.16.75-.2s.28-.1-.08-.11a5,5,0,0,1-.86,0,4.14,4.14,0,0,0-1.11,0c-.33.07-1.11.22-1,.06s.28-.17.08-.3-.16-.18-.16-.18l.78-.28a1.15,1.15,0,0,0,.37,0c.15,0,.26-.33.26-.33s-.69-.08-.72-.25-.08-.26-.06-.28.4.17.88.31a4.26,4.26,0,0,1,.92.35s0,.23.14.3a3.7,3.7,0,0,0,.7.26c.07,0,.43-.42.16-.64s-.43-.51-.66-.59l-.54-.24c-.21,0-.11.06-.42-.21s-.36-.31-.43-.39.19-.34.37-.25.48.32.6.2a.82.82,0,0,0,.22-.33s-.3-.19-.23-.21.58.35.67.29.14.39.36.28.64-.54.61-.66.21-.27.35-.29.2-.2.2-.39,0-.17-.07-.46a.7.7,0,0,1,0-.45.58.58,0,0,1,.22-.27.75.75,0,0,1,.3-.09l.1,0s1.65-.07,1.39-.31-1.06-.16-1-.33.85,0,.77-.1-1.19.16-1.19,0,.57-.42.57-.46-.28-.17.21-.37a6,6,0,0,0,1.27-.68,2.16,2.16,0,0,1,1-.3,3.1,3.1,0,0,0,.51-.11c.09,0,2.28-.52,1.41-.54s-2.09-.57-2.66-.25a5.42,5.42,0,0,1-1.17.41c-.31.12-1.4.67-1.19.38s.88-.5.88-.64-.53-.21-.73-.11-.77.3-.77.3-1,.11-.84,0a5.45,5.45,0,0,1,1-.4s-2.91.21-3,.17.65-.42,1-.35a25,25,0,0,0,2.6-.13c.15,0,.54-.28.13-.28l-4.06.06c-.44,0-3.58,0-3.84,0s-.49.26-.25.29a5.41,5.41,0,0,1,.79.21s-1.31,0-1.4.08-1.33-.12-1.33-.12-1.14-.38-1.16-.21.36.39.36.39l-.26.08s-.92-.27-1-.27-.69.4-.69.4l.31-.44a12.54,12.54,0,0,0-2.21.08c0,.13.91.38.47.38s-1.27-.81-1.55-.48.1.61-.63.71-1.46.14-1.53.14-1.43.24-1.38.35a3.81,3.81,0,0,0,1.29.19c.11,0,0,.19-.28.23s-1.27.49-1.39.49l-1.83.16-1,.11-.22.28s.66.15.88.17l.82.09s.79,0,.34.22a3.75,3.75,0,0,1-1.33.26c-.24,0-.8-.15-.56.12s1.59.11,1.32.26-1.07.23-1,.29A5.6,5.6,0,0,0,1107.78,1286.1Z"/><path id="Path_14102" data-name="Path 14102" class="cls-23" d="M1087.37,1288.14a1,1,0,0,0,.43-.06c.2-.1,0-.22.71-.32s1.42-.36,1.2-.48a1.65,1.65,0,0,0-.88-.24c-.22.08-.19-.08-.7-.06a6.43,6.43,0,0,0-1.3.22,3.54,3.54,0,0,1-.9.78c-.35.12-.59.23-.42.3s.52,0,.31.28,0,.32.28.17.8,0,1-.23S1087.27,1288.14,1087.37,1288.14Z"/><path id="Path_14103" data-name="Path 14103" class="cls-23" d="M1087.91,1288.42s-.61,0-.25-.13.58-.32.93-.36,1.36-.43,1.3-.29-.3.42,0,.35.79-.26.82-.18-.26.2-.24.25.11-.08.36,0,.25.08.34,0a.24.24,0,0,0,.09-.2s.08,0,.08,0,.19.24.1.37,0,.46.1.4.17-.31.32-.46.57-.58.75-.5.25.16.13.28,0,.35-.08.47a2.16,2.16,0,0,1-.27.25c-.14.1-.27.16-.15.27a1.83,1.83,0,0,0,.44.28c.06,0,.33.24.25.33a.58.58,0,0,1-.48,0c-.14,0-.19-.06-.27,0a.25.25,0,0,1-.17,0c-.06,0-.58.09-.22.18s.94.24.44.29a1.91,1.91,0,0,1-1-.07,2.24,2.24,0,0,0-.55-.24l-.11,0c-.31.12-.62.23-.93.32a5.92,5.92,0,0,1-1.83.1c0-.14.15-.19.2-.26s-.1,0-.24,0-.5-.06-.56-.25.27-.49.42-.46a7.15,7.15,0,0,0,1.6.07c.34-.08.23-.14,0-.15l-1.26,0c-.06,0-.63-.11-.58-.17a4.21,4.21,0,0,1,.85-.15s.52,0,.31-.16a.56.56,0,0,0-.4-.09A.53.53,0,0,1,1087.91,1288.42Z"/><path id="Path_14104" data-name="Path 14104" class="cls-23" d="M1096.05,1293s-.33.22-.48.14.3-.26.37-.3a2.2,2.2,0,0,0,.33-.41,4.76,4.76,0,0,1,.63-.64c.09,0,.36.1.26.17s-.22,0-.2.12.35.11.45.2.46.29.45.33-.2.16-.21.2a1,1,0,0,0,.36.19c.07,0,.14.19-.14.21s-.52-.08-.49-.18,0-.37-.27-.27-.31.38-.45.35-.5.35-.61.29.06-.16.07-.18S1096.22,1292.92,1096.05,1293Z"/><path id="Path_14105" data-name="Path 14105" class="cls-23" d="M1099.79,1292.72c-.08,0-.3.24-.6.1s-.4-.17-.17-.26.65-.35.7-.35a.36.36,0,0,1,.23.17c0,.09.14.16.21.1s.13-.19.22-.19.55-.12.67-.11,0-.25-.13-.33.12-.14.13-.14a2.93,2.93,0,0,0,.63-.4c0-.1.15,0,.29-.19s0-.59,0-.59a10.44,10.44,0,0,0-.88-.88,1.4,1.4,0,0,1-.42-.42c0-.06-.16-.09-.19,0s0,.06.06.09.31.23.1.26-.63-.26-1.07-.13-.27.16-.26.15-1.3-.18-1.48-.23a2.57,2.57,0,0,0-.48,0c-.13,0-.42-.07-.28-.2s.36-.3.5-.22.43.09.4,0-.88-.36-.76-.42a2.18,2.18,0,0,0,.34-.26,2.46,2.46,0,0,1,.4-.3,7.18,7.18,0,0,1,1.1-.48c.25,0,.51-.07.76-.12,0,0,.23,0,.12.09s-.57.18-.67.28-.47.33-.54.48-.24.25-.11.36.28.25.14.26-.25.24-.1.2.4-.15.4-.22a.32.32,0,0,0-.08-.2c0-.07-.16-.26,0-.31a.49.49,0,0,1,.39.09s.29-.09.24-.12-.43,0-.4-.13a.34.34,0,0,1,.2-.24,4.49,4.49,0,0,0,.61-.23.86.86,0,0,1,.55-.19c.23,0,.49,0,.5,0s-.26,0-.08.18a.2.2,0,0,1,0,.28l0,0a2.58,2.58,0,0,0-.27.12,1.13,1.13,0,0,0-.36.36s.16.15.23.09a2.22,2.22,0,0,1,.52-.29c.08,0,.25.06.19.08s-.18.08-.13.12a.5.5,0,0,0,.24.06c.1,0,.26-.11.26-.17a.4.4,0,0,1,.06-.22,2.21,2.21,0,0,1,.85,0c.18.11.22.23,0,.23s-.48-.09-.48,0,.27.31.34.34a2.63,2.63,0,0,0,.3.1,1.23,1.23,0,0,0,.43,0,1.05,1.05,0,0,1,.26-.13c.1,0,.18,0,.19,0a.14.14,0,0,1-.07.16l-.3.14c-.16.07-.33.09-.2.16a.71.71,0,0,0,.28.09s.25-.31.39-.34,0,.16,0,.19a1,1,0,0,1-.2.15.72.72,0,0,0-.2.14s-.1.09-.06.1a1.52,1.52,0,0,1,.28.09s.25.5.15.55-.12.07,0,.16.07.16.21.22.29.11.3.15a1,1,0,0,0,.44.14c.08,0,.7.28.63.31s-.19.22-.07.26a1.65,1.65,0,0,0,.38,0c.08,0,.22,0,0,.12a2.63,2.63,0,0,0-.64.29,1.6,1.6,0,0,1-.27.25s0,.3-.13.37-.25-.16-.25-.28-.16-.17,0-.27.52-.25.47-.28a.92.92,0,0,0-.37,0s-.35.26-.4.16-.16-.18-.19-.28,0-.3-.12-.23-.13.19-.17.23-.38.32-.41.27-.29-.06-.22,0,.4.33.42.37a2.6,2.6,0,0,1,.28.81c0,.2,0,.27-.07.29s-.21.21-.23.23,0,.17-.15.09-.47-.16-.52-.25,0-.31-.14-.27-.16.1-.26.06a.21.21,0,0,0-.21.07s.7.59.7.7-.07.26-.17.2-.84-.2-.88-.31-.07-.15-.14-.17-.38-.12-.45-.13-.11,0-.09-.1.06-.08.1-.16.1-.18.08-.19-.5-.26-.5-.26.17-.22,0-.2-.58,0-.65,0a.32.32,0,0,1-.14,0l-.1,0Z"/></g></g><path id="Path_14106" data-name="Path 14106" class="cls-17" d="M1055.19,1300.88s2.18-1.27,1.93-1.51,0-.54.33-.72.38.18.43.34,1.24-.24,1.45-.26.56.06.74-.43.68-.3.5-.08.34.18.88.18a10.84,10.84,0,0,1,2.89.3c.35.24,2.28,2.56,2.65,2.56s1,1.25,1.29,1.08.24-1.24.46-1,0,.56.06.74a2.33,2.33,0,0,1,.09.83c0,.3.47.42.8.68s.59,0,.64.24-.27.77-.28,1,2.33,1.55,2.33,3-.4,1.63-.26,2.28a5.57,5.57,0,0,1,.18,1.57,3.16,3.16,0,0,0,.17,1.18c.11.32.79,1.09.86,1.29a5,5,0,0,0,.43.78c.09.16.09.5.24.71s.1.2.39.24a2.48,2.48,0,0,1,1.48,1.25,15,15,0,0,0,1.41,2.42c.14.15,0,.4-.18.38s0,.55.07.58,1,.44,1.16.73.23.74.31.94.45.32.58.58.34.77.56.53-.38-.91-.6-1.35-.75-1.82-.91-2.07-.64-1-.87-1.28-.28-1.28-.15-1.31.49-.08,1,1.29a9.87,9.87,0,0,0,1.7,2.58,4.48,4.48,0,0,0,.29.68,7.81,7.81,0,0,1,1.71,2.16c.41,1,0,1.82,1.24,2.56a11.24,11.24,0,0,0,3.28,1.46,7.38,7.38,0,0,1,1.41-.11,12.59,12.59,0,0,1,.9.9A4.81,4.81,0,0,1,1091,1330c.63.84.88,1,.94,1.47s.57.64.82.72.34,1.07.83,1,.67.08.62.22.37.26.42.24.34.2.43-.2.12-1,.45-.85.35.77.52,1a5,5,0,0,1,.14,2.88,2.92,2.92,0,0,0-.57,1,4.35,4.35,0,0,1-.37.75c-.08.2-.57,1.18-.62,1.34s-.21.45,0,.55.49,0,.44.24,0,.34-.15.4a4,4,0,0,0-.51.58,1.42,1.42,0,0,0,.16.73c.17.2,0,.26.43.94a20.36,20.36,0,0,1,1.85,3.67,4.47,4.47,0,0,0,.58,1.51,10.87,10.87,0,0,0,2,1.8,3.83,3.83,0,0,1,.61.93,24.41,24.41,0,0,1,0,4.1c-.1.51-.2,1.37-.29,1.67s-.34,1.27-.34,1.27a21.36,21.36,0,0,1,0,2.4,5.79,5.79,0,0,1-.54,1.92,1.91,1.91,0,0,0-.51,1c0,.21.24.75.26,1a5.62,5.62,0,0,1-.15,1c-.05.15-.26.69-.26.69s-.16,1.38,0,1.37.31-.49.3-.6.15-.7.24-.32a5,5,0,0,1-.13,1.68c-.06.12-.43-.07-.41-.12a.79.79,0,0,1-.19.55c-.23.3-.67.77-.6.88s.29.13.35.14.1.28.1.28a2.73,2.73,0,0,1-.1.48,2.68,2.68,0,0,0-.28.3s.07,1.59.34,1.63.66,1.24.69,1.39.06,1,.23,1a19.63,19.63,0,0,0,2.2,1.1c.41,0,1.24-.18,1.3-.37a.44.44,0,0,0-.13-.53,2.87,2.87,0,0,1-.69-1,6.43,6.43,0,0,1-.45-1.32c0-.29-.3-.45.11-.84s.48-.16.68-.56a2.22,2.22,0,0,0,.2-.41s.72-.4.62-.72-1.08-.13-1-.69.66-.74.84-.86a1.23,1.23,0,0,0,.45-.8c0-.32.49-.58.59-.73s.23-.38.08-.38a2.78,2.78,0,0,1-.5-.11s-.35-.4-.14-.63.75-.15,1-.15.57,0,.49-.28,0-.93.13-.92a19.74,19.74,0,0,0,2.16-.61,1,1,0,0,0,.32-.41,5.48,5.48,0,0,1,.27-.48,4.07,4.07,0,0,1-.33-.48c-.17-.28-.2-.85-.3-.86a6.52,6.52,0,0,0,1.87-.06,3.06,3.06,0,0,0,.82-1,5.43,5.43,0,0,1,.09-.56c.08-.23.31-.34.35-.44a1.54,1.54,0,0,0,.1-.24,10.75,10.75,0,0,1,.72-.84c.2-.31.38-.64.55-1,0-.1.29,0,.31-.23s.21-1.47.31-1.85.56-.5,1-.82.69-.23.83-.56,1.32-.37,1.35-.55a2.8,2.8,0,0,1,.34-.61,7.26,7.26,0,0,0,.75-2.32c0-.85.34-1.75.35-2.4a5.14,5.14,0,0,1,.59-2.27c.29-.32,1.34-1.21,1.39-1.53s0-1.73,0-1.83a3.35,3.35,0,0,0-.32-.66c-.3-.12-.59-.25-.88-.4a11.63,11.63,0,0,0-1.83-1.09,3.29,3.29,0,0,0-1.17-.18,3.52,3.52,0,0,0-.63.27c-.05.06-.19-.39-.16-.5a.8.8,0,0,0-.07-.34s-1.32-.66-1.44-.67-.15.33-.22.43,0,.39-.46.46-.63.2-.43-.08.49-.51.49-.6.21-.25,0-.38a.41.41,0,0,0-.55.15v0c0,.17-.61.3-.67.28a.63.63,0,0,1-.13-.43c0-.1.31-.52.35-.63s.18-.35.28-.51a2.27,2.27,0,0,0-.27-.71,9.63,9.63,0,0,1-.28-1.18c-.07-.12-.35-.08-.44-.19a4.24,4.24,0,0,0-2-1c-.77,0-.93-.27-.88-.29a9.11,9.11,0,0,0-1.24-1.32c-.21-.13-.38-.82-.45-.84s-.07-.38,0-.47-.15-.35-.28-.32-1.37-.09-1.4-.07.1.34-.09.4a3.23,3.23,0,0,1-.82,0l-.89-.28-.56-.88a4.51,4.51,0,0,0-.53.1,4.46,4.46,0,0,0-.5.35c-.09.08-.12.57-.12.57s-.2.84-.27.78a2,2,0,0,1-.2-.73s.14-.53.2-.66.17-.21.18-.35-.22-.45-.3-.25a6.12,6.12,0,0,1-1.3,1.08c-.16,0-.44-.15-.51.19a2.84,2.84,0,0,1-.7,1c-.14.13-.23.46-.29.25s-.42-.81-.55-.79-1,.4-1.1.44a2,2,0,0,1-.7-.32c-.12-.1-.31-.31-.53-.51s-.4-.34-.38-.65-.08-1.64,0-1.68.29-.44.19-.63-.2-.46-.32-.51-.44-.34-.57-.3a10.39,10.39,0,0,1-1.37.09c-.15,0-.48,0-.5-.21s.1-1.39.1-1.39a2.29,2.29,0,0,1,.35-.6,1.34,1.34,0,0,0,.32-.68c0-.17.34-.7.18-.73s-1.25-.15-1.52.09a3.42,3.42,0,0,0-.52,1.21c-.1.25-.19.58-1,.62s-1,.3-1.16,0a4.18,4.18,0,0,1-1.35-2.65c0-1.55,0-2.21,0-2.33s.24-.22.1-.63-.17-1.18.27-1.31.49,0,.69-.31.42-.53.65-.51a4.22,4.22,0,0,1,1.37.11c.35.18.54.42.66.21a.67.67,0,0,0,0-.5,9.37,9.37,0,0,1,2.42-.22c.28.16.3.34.53.34s.33,0,.46,0a2.49,2.49,0,0,1,.66,1.26c0,.44.42.84.49,1.07s.14.88.44.84.31-.55.27-.85-.54-1.82-.59-2.36-.3-.51,0-1a3.27,3.27,0,0,1,.76-1,13.61,13.61,0,0,0,1.61-1.43c0-.13-.21-.3-.07-.45s.6-.2.42-.4a1.23,1.23,0,0,1-.39-.69c0-.25.07-.25-.1-.42s-.22-.34-.1-.38.19.25.3.25.13-.22.13-.28.06-.46.3-.55.32.28.43.27.26,0,.29-.13.13-.51.15-.64a.4.4,0,0,1,.23-.3l.29-.15c.15-.09,1.09-.29,1.12-.52a2.64,2.64,0,0,1,.08-.62,2.49,2.49,0,0,1,.47-.84,1.63,1.63,0,0,1,.6-.31c.18-.09.14,0,.33-.19s.44-.18.36-.39-.1-.23-.1-.3,0-.25,0-.25.27.4.31.44-.06,0,.1.08a1.44,1.44,0,0,0,.41,0c.18,0,.19,0,.24-.06s.25-.29.09-.8-.1-.57,0-.56l.28,0s.22-.22.11-.29,0-.5,0-.5.08-.26,0-.26-.72.1-.72.1-.59.18-.81.22a6,6,0,0,0-.94.56c-.11.06-.39.1-.38.06a1.49,1.49,0,0,1,.39-.44,1.1,1.1,0,0,0,.28-.2l.35-.31a2.36,2.36,0,0,1,.84-.55,3.18,3.18,0,0,1,1.26-.2,5,5,0,0,0,.54.07c.27,0,.29,0,.8,0s1.09,0,1.21-.17,1.2-.82,1.2-.71a12.36,12.36,0,0,1-.49,1.45,1.88,1.88,0,0,0-.33.7c0,.24.16.32.42.37a5.55,5.55,0,0,0,.82.06l.63-.14.43-.2s0-.4,0-.45.08-.3-.12-.24-1.14-.24-1.14-.41a1.33,1.33,0,0,1,.22-.55.62.62,0,0,0,.16-.52c0-.33-.45-.87-.38-.93s.24-.36,0-.51a4.82,4.82,0,0,1-.63-.35c0-.07-.55.47-1.14.53s.06-.41.06-.41a1.4,1.4,0,0,1,.33-.31c.13-.06.42-.1.18-.3s-.3,0-.62,0-.16-.36-.43-.48a1.72,1.72,0,0,1-.55-.37c-.11-.1-.36-.32-.34-.36a.53.53,0,0,1,.25-.17c.13,0,.08-.27-.09-.39s-.49-.42-.49-.42a7.68,7.68,0,0,1-.5-.63c0-.06,0-.44-.11-.45s-.3-.08-.33.13.1.62-.19.71a.31.31,0,0,1-.38-.17,2.26,2.26,0,0,0-.43.17,2.35,2.35,0,0,0-.33.3h-.31s.07-.31-.08-.4-.72.06-.78.06-.36-.06-.26-.15a.83.83,0,0,1,.21-.16.85.85,0,0,0,.09-.22l-.13-.29s-.09-.16-.22-.16a.36.36,0,0,1-.2-.06,2.55,2.55,0,0,1,.31-.12l.28-.12-.17-.13-.2-.1-.74-.18a6,6,0,0,0-.76-.66,7.59,7.59,0,0,0-1-.07c-.2,0-.38.15-.5,0s-.74-.21-.77-.21a.34.34,0,0,0-.14.15s.35.45.35.45,0,.44,0,.53a.72.72,0,0,1-.06.29,1.44,1.44,0,0,1,.13.37,1.87,1.87,0,0,1-.25.41,2.2,2.2,0,0,0-.21.32s.39.36.47.44a2.38,2.38,0,0,1,.29,1.14c-.07.27-.25.36-.26.42s-.17.17-.21.22l-.49.38s-.5.05-.5.16c.17.51.33,1,.45,1.54,0,.2-.06.74-.42.66a2.16,2.16,0,0,1-1.34-1c-.39-.66-.07-1.49-.25-1.59a12.53,12.53,0,0,0-1.62,0,6.47,6.47,0,0,1-1.58-.94,4.1,4.1,0,0,0-.7-.23l-1.3-.23s-.25-.72-.65-.88-1,0-.73-.78a3.57,3.57,0,0,1,1.11-1.71c.29-.12.56-.25.83-.39s.37-.69,0-.66-1.44.26-1.3.08,1-.26,1-.26.67.2.83.23.3,0,.36-.08a2,2,0,0,1,.55-.28s.8-.41.7-.42h-.63a1.13,1.13,0,0,1-.62-.19c-.23-.19-.53-.17-.43-.34s.67-.16.73-.13l.69.21a1.91,1.91,0,0,0,.47.07s.18-.08.21-.15a.75.75,0,0,0,0-.3l-.1-.19.49-.21a2.54,2.54,0,0,1,.39,0s1.9-.07,1.91-.32a.88.88,0,0,0-.27-.6c-.08-.06-1.7-.62-1.7-.62l.1.36-.54.37-.44.68s-.92-.65-.85-.72.22-.39.12-.45-.46-.17-.7-.24c0,0,.59.73-.09.48a3.17,3.17,0,0,1-1-.56l-.28-.32s-.28-.24-.28-.34-.93-.85-1.19-.76-.44.18-.44.27.18.27.18.27l-.25.2a.63.63,0,0,0,.21.22,1.47,1.47,0,0,0,.54.16,3.17,3.17,0,0,1,.53.05s.47.33.19.57-.68.65-.8.63l-.37,0s-6.09-.1-6.09,0,.24.42.25.48a.67.67,0,0,1-.2.39c-.12.12-.45-.27-.65-.42a5.28,5.28,0,0,0-.76-.36l-5.3-1.2q-1,0-1.92,0c-.61-.08-.59.23-.83.28s-.79-.81-1.09-.78a8.8,8.8,0,0,1-1.32.26c-.3-.05-.47.5-.47.5l-.58-.19a3,3,0,0,1-1.19.42l-1.15,0-1.12-.09-9.1-1.45a10.88,10.88,0,0,1-1.79.44,2.3,2.3,0,0,0-1.55.68,7.73,7.73,0,0,1-1.85.9,25.32,25.32,0,0,1,3.27,1.25,5.25,5.25,0,0,1-1.85.18,1.41,1.41,0,0,0-1.22,0c-.37.24-.06.57.15.77a5,5,0,0,0,2.12.32c.32-.1.87.2.8.26s-.85.56-.85.56-1,.27-1.17.27-.62.56-.62.56-.12.3-.06.34l.77.52.48,0-.4.2c-.15.07,0,.26.19.26s.46,0,.46,0v-.07l.34.14.1.51.66,0a6.3,6.3,0,0,1,1.23-.19.58.58,0,0,1,.56.52c0,.09-2.28,1.91-1.93,2S1055.19,1300.88,1055.19,1300.88Z"/><path id="Path_14107" data-name="Path 14107" class="cls-17" d="M1126.56,1315.28s-.18-.71.27-.68,1.49.52,1.76.53.31,0,.31.08a.73.73,0,0,1,.39-.26c.31-.07,1.32-.74,1.51-.74a20,20,0,0,1,2.88-.24c.34.12.36.51.51.37s.29-.48.46-.48.48-.07.49.12.56-.19.58,0-.32.44-.32.51a5.54,5.54,0,0,0,.17.58l-.06.48-.08.13a1.86,1.86,0,0,0,0,.47.61.61,0,0,0,.12.16.51.51,0,0,1,.16.13l.08.12.72.18s-.07,0,.16,0l.44,0s0-.07.26.21l.39.43.35.4.25.1a.86.86,0,0,1,.59.06,1.43,1.43,0,0,1,.26.23.39.39,0,0,0,.17.14,1,1,0,0,0,.31.12c.21.05.29,0,.29,0l.1-.4.44-.94.34-.49a.35.35,0,0,1,.37,0c.22.1.4.12.49.24a8.18,8.18,0,0,0,2.23,1.07,6.37,6.37,0,0,0,1.3.19l.69-.15.54-.12s1,.11,1.09.14a10.37,10.37,0,0,1,.21,1.93.5.5,0,0,1-.21,0s0,.32,0,.33-.27-.32-.36-.44l-.37-.53s-.37-.28-.3-.08.65.63.66,1a6.17,6.17,0,0,0,.2,1c0,.1.19.56.23.67s.47,1,.47,1a1.57,1.57,0,0,1,0,.37c0,.19.08.41.15.4a1.67,1.67,0,0,1,.57.23s.1.42.1.42l.1.38a1.52,1.52,0,0,1,.06.42,3,3,0,0,0,.34,1.38,3.11,3.11,0,0,1,.52.9,5.16,5.16,0,0,0,.23.66c.06.12.18.26.27.4s1.4,1.62,1.4,1.62l-.2.29.16.15.46,0a1.41,1.41,0,0,1,0,.41.84.84,0,0,0,0,.31s.53.84,2.42.14,1.69-.19,1.65.15a13.91,13.91,0,0,1-2.83,5.44,16.87,16.87,0,0,0-2.35,3,18.55,18.55,0,0,0-1,1.71,7.66,7.66,0,0,0,.1,1.79c0,.26.1,1.39.1,1.39a5.76,5.76,0,0,1,.5,2.69c-.11,1.38-.08,2.08-.4,2.14a10.89,10.89,0,0,0-2.49,2.1c0,.23.3,1.85.28,2.15s-.13,1-.22,1-1.13.72-1.13,1a4.94,4.94,0,0,1-.2,1.48,8.09,8.09,0,0,0-.67.85c0,.13-1.65,2.79-3.18,3s-1.73.24-2.1.28-1,.24-1.19-.28a11.8,11.8,0,0,0-.26-1.21,19.84,19.84,0,0,0-1.34-3.06s-.36-2.35-.44-3-1.74-3.44-1.52-3.74.4-2.17.8-3.1a3.29,3.29,0,0,0,0-2.19,1.52,1.52,0,0,1,0-.64,7.37,7.37,0,0,0-.4-1.73c-.11-.49-1.81-3-1.74-3.34s.69-1.06.55-1.13a.5.5,0,0,1-.14-.6,1,1,0,0,0,0-.81c-.11-.34-.13-.88-.22-.89s-.35.64-.49.53.14-.73.14-.73l-.92.14-.79-.23a3.11,3.11,0,0,0-.09-.6c-.06-.16-.26-.16-.4-.21s-.76-.6-1-.46a4.12,4.12,0,0,0-.64.3,7.07,7.07,0,0,0-.76.43,1.48,1.48,0,0,1-1.35.34,2.43,2.43,0,0,0-1.72.16c-.38.24-.69.42-1,.19s-1.09-1.09-1.2-1.11a3.47,3.47,0,0,1-1.17-1.53c0-.56-1-1.6-1.31-2.11s-.44-.64-.41-.79.23-.17.42-.2.46.08.53-.06-.7-.25-.7-.25a.78.78,0,0,1-.5-.31l-.25-.47a7.12,7.12,0,0,0,.41-1,1.41,1.41,0,0,0,.08-.61c0-.28-.07-.53-.07-.53l0-1.66s-.3-.35-.28-.47a2.83,2.83,0,0,0,.09-.37c0-.13,0-.33,0-.33s1.55-3.33,2-3.5.46-.28.5-.39a.76.76,0,0,1,.18-.22l.84-.82a3.81,3.81,0,0,1,.08-1.26,1.51,1.51,0,0,1,.73-1.21c.27-.21.69-.44.76-.52A1.8,1.8,0,0,0,1126.56,1315.28Z"/><path id="Path_14108" data-name="Path 14108" class="cls-17" d="M1131.32,1310.26a.67.67,0,0,1-.32.77,3.22,3.22,0,0,0-1.14,1.44.73.73,0,0,0,.16.3s0,.13-.06.13-.22,0-.24.12a3.5,3.5,0,0,1-.58.75c-.12,0-.84.41-.87.41l-.63,0a5.25,5.25,0,0,0-.46.49c-.06.07-.44.5-.58.07s.05-.58-.1-.7-.91,0-1.12-.06-.14-.16-.24-.55-.15-.71-.22-.73,0-.11.09-.18a3.58,3.58,0,0,0,.28-.37,3,3,0,0,1,0-.9c.08-.37.1-.62.11-.64l.14,0-.09-.42s-.32-.26-.22-.38a7.82,7.82,0,0,1,1.6-.1l1.41,0a6.37,6.37,0,0,1,.69.16c.09,0,.25-.27.25-.27V1309l.25-.41-.06-.5-.34-.43-.33-.47-.35-.36a.53.53,0,0,1-.45-.21.82.82,0,0,1-.16-.41,2.35,2.35,0,0,1,.7-.14c.24,0,.67,0,.71-.06a1.25,1.25,0,0,0,.09-.25.13.13,0,0,1,.06-.15h0c.14,0,.44.07.55,0s.78-.26.78-.39a2.08,2.08,0,0,1,.06-.36s0-.23.12-.24a1.76,1.76,0,0,1,.25.06c.11,0,.26,0,.28,0a1.34,1.34,0,0,1,.07-.18.43.43,0,0,1,.1-.09.47.47,0,0,1,.22-.09l.39.15a0,0,0,0,0,.06,0h0a1.59,1.59,0,0,0,.07-.2s0-.18,0-.18a4.25,4.25,0,0,1,.55-.57c.1,0,.25-.4.37-.45s-.07,0,.33-.08a2,2,0,0,0,.44-.06c.13,0,.37,0,.38-.15s0-.13,0-.24a2.66,2.66,0,0,1,0-.28s.09-.2.23-.13a2.89,2.89,0,0,1,.44.27,2.32,2.32,0,0,0,.39.18l.36,0a11.53,11.53,0,0,1,1.44,0c0,.06,0,.18.23.06.4-.14.81-.27,1.22-.37l1-.09.41-.09s.55-.16.6-.27a3,3,0,0,0,.09-.67,2.68,2.68,0,0,1,.3-.77c.08,0,.11-.39.16-.41s.35.24.52.39.85-.16.81-.35-.05-.21-.14-.3-.4-.06-.37-.24.3-.42.83-.45l.9-.08c.2,0,0,.31.27.22a8.51,8.51,0,0,0,.9-.57s-.3-.35-.26-.49-.15-.28-.32-.11a1.84,1.84,0,0,1-1.35.27c-.74-.06-2.16,0-2,0s-.11,0,0-.49-.17-.52-.06-.67c.47-.53,1-1,1.49-1.52.37-.31.52-.31.52-.67s-1.39-.29-1.48-.23-.63.26-.59.5.22.5,0,.62-.6.72-1,.72-1.25.88-1.16,1.28.7.54.66.68.12.2-.13.37-.13.47-.36.51-.45-.07-.52,0a3.56,3.56,0,0,0-.15.79.33.33,0,0,1,.14.42,1.35,1.35,0,0,1-.5.48s-.29-.07-.39.07-.38.4-.55.35a.34.34,0,0,1-.25-.33,19.12,19.12,0,0,1-.8-1.93c.06-.2.07-.06.26-.43s.46-.66.35-.79-.12-.18-.17-.17-.22-.15-.18,0,.15.29.1.37-.14.33-.24.33-.18.38-.25.5a.15.15,0,0,1-.21.08.16.16,0,0,1-.08-.08c-.1-.13.36-.32.13-.43s-.58.5-.58.5-.87,1-1.52.68-.49-.64-.38-.71.34-.34.3-.55-.22-.33,0-.56.36-.36.31-.44-.16-.24-.12-.29a10.79,10.79,0,0,1,1.54-.89c.45-.18,1-1.07,1.12-1.1l.22-.11s0-.52.12-.54.11.08.23,0,.31,0,.32,0a5,5,0,0,1-.3.93c-.05,0,.13.13.1.21s-.32.2-.32.2a.16.16,0,0,0,.16.16c.16,0,.32.17.37-.33a1.69,1.69,0,0,1,.23-.91c.13-.16.21,0,.47-.37s.46-.65.38-.65-.2.19-.26.09.14-.36.14-.38.18-.18.21-.11,0,.16.08.11.9-.37,1-.37a6.39,6.39,0,0,0,.75-.09,1.39,1.39,0,0,0,.46-.22c.08-.07.39,0,.42,0s-.25-.32-.17-.33.11-.06.07-.12-.25-.21-.18-.3,1-.08,1.36-.27.46-.36.52-.34,0,.3.11.33.36-.2.48-.21h.61c.16,0,.28-.17.29-.17s.33.21.27.29.14.22.2.23.32,0,.28.1.06.07-.13.32-.27.44-.14.64.29.09.26.07a.21.21,0,0,1,0-.26,1.48,1.48,0,0,1,.29-.22c.1,0,1.2-.57,1.57-.43a13.92,13.92,0,0,1,2.54.57,1.22,1.22,0,0,0,.69.34c.27.08.8.1.8.4s-.15.36-.31.57-.23.26-1.08.18-1.43-.27-1.81-.32-.81-.32-1-.28-.15.37,0,.37a2.1,2.1,0,0,1,.85.41c.08.13.27.17.2.46s.36.72.41.72l.47.22.58.1s.36-.06.42-.18a2.23,2.23,0,0,1,.53-.38l.78.1s-.27-.69-.27-.69a9.41,9.41,0,0,1,1-.37l1,0a1.41,1.41,0,0,0,.57-.37,1.14,1.14,0,0,1,.63-.19c.23,0,.69,0,.69,0a5.29,5.29,0,0,1,2.32-.9c.93.06.55.19,1.46.06s1.25-.2,1.25-.2a2.72,2.72,0,0,1,.94.14c.19.14,1.17.2,1,0s-.57-.54-.37-.7.8,0,.88,0a7.75,7.75,0,0,1,2.17.48,2.65,2.65,0,0,0,1,.43c.06,0,.44,0,.39-.16a3.52,3.52,0,0,0-.18-.39s-.3-.36-.34-.39-.48-.52-.48-.52l.22-.66c.19-.12.39-.23.59-.33,0,0,.43-.58.51-.65s.62-.57.73-.52,1,.7,1,.83,0,0-.12.25-.31.22-.2.41a1.4,1.4,0,0,0,.27.33,1.08,1.08,0,0,1,0,.4c0,.16-.14.69-.14.69a3.09,3.09,0,0,0,0,.43s.42,0,.42.09-1.09,1.12-1.15,1.27,0,.28.12.28.67,0,.73,0,.91-.63.92-.77.1-.89.1-.89h.56c.06,0,.47,0,.51.15s.24.7.4.73a2,2,0,0,0,.49,0,.32.32,0,0,0-.17-.35l-.27-.15a.69.69,0,0,1,0-.2l.2,0-.22-.3a2.81,2.81,0,0,0-.31-.29,4,4,0,0,1-.85-.08c-.47-.1-.75-.33-.75-.43s.11-.11.16-.19.35,0,0-.22-.26-.13-.36-.32a1.35,1.35,0,0,1-.17-.34c0-.05.27,0,.4,0l.42,0a9.61,9.61,0,0,0,1.67.55c.35,0,.22-.22,0-.33l-.84-.48s0-.13.11-.14a6.34,6.34,0,0,1,.65.08,1.2,1.2,0,0,0,.53-.15c.08-.07.27-.09.58.12a2.86,2.86,0,0,0,.87.28l.44.14s-.11.3-.18.3-.2.68-.2.68a3,3,0,0,0,.6.21c.23.05.45-.25.33-.66a1.58,1.58,0,0,0-.78-1.08c-.44-.16-.57,0-.65-.25a1.61,1.61,0,0,1,0-.49c0-.07.18-.12.31-.14s3,0,3-.13-.4-.12-.33-.31-.15-.42-.15-.42,6.56-.88,7.53-.91,1.69-1,2-.86.14.27,1,.51,2.91.55,2.92.76.6,0,.44.23-3.12,1-3.36,1.44,2.94-.15,3.32-.06.59.18.73-.08.89-.23,1.17-.12.52.14.93.32a2.72,2.72,0,0,0,1.06.13s1.48,0,1.62-.23,1.13-.13,1.59-.08,1.18.42,1.09.48-.11.09-.15.14l-.28.17.23.34s.79.75,1.31.7.38-.23.59-.36.25-.33.62-.3,3.51.16,3.51.16-.11-.13.18-.42a1.82,1.82,0,0,1,1.28-.32c.33,0,.51.48.8.52s.66.19.72.18a5.15,5.15,0,0,0,.45-.32,2.82,2.82,0,0,1,.65,0c.09,0,0,.28.39.28s5.56.53,5.63.67,0,.4.16.53a1.35,1.35,0,0,0,.85.2,13.85,13.85,0,0,1,3.34.16c.37.24.66.48,1,.39s.64-.1.65-.18-.16-.14-.16-.14l-.3-.3.29-.12s-.18-.13.07-.1,4.27.43,4.41.76a.68.68,0,0,1,0,.66,1.66,1.66,0,0,0-.07.91c.06.34.18.89.09,1s-.48.45-.6.42a3.07,3.07,0,0,0-.86-.19c-.17,0-1,.12-.7.18s.41,0,.62.07.52.05.6.09a.9.9,0,0,1,.28.48c.05.21.43.53.43.53s-.06.23-.44.23a12.27,12.27,0,0,0-1.36,0,24.67,24.67,0,0,0-2.66,1.08c-.22.25-.2.26-.49.22s-1.48-.08-2-.08a2.82,2.82,0,0,0-1.24.32c-.17.11-.29.28-.25.37s.1.45.24.4.07,0-.05.06a.69.69,0,0,1-.35,0l-.06-.1-.4.34s0,.38.18.41a1.63,1.63,0,0,1,.4.24l0,.41s.18.15.17.23-.21.16-.34.21-.53.37-.47.56.6.36.13.56-.77,0-.92.13a.75.75,0,0,0-.16.58c0,.1-.23.21-.36.24a3.28,3.28,0,0,0-.56.42l-.71.58-.51-1.21a17,17,0,0,1-.14-2.37c.1-.09.77-.06.77-.22a4.17,4.17,0,0,1,0-.45,1.4,1.4,0,0,0,.41-.06c.12-.06,2.67-1.93,2.89-2s.39-.68.39-.68l.4-.26a2,2,0,0,0-.52-.26,2.06,2.06,0,0,0-.62.6,2.37,2.37,0,0,1-1,.67c-.2,0-.41,0-.62,0,0,0,.06.06.18-.14s.36-.43,0-.46a3.87,3.87,0,0,0-1.84.3,12.9,12.9,0,0,0-1,.88,2.59,2.59,0,0,0,.32.42c.09.07.29.15-.2.15s-1.85.1-1.78.06a.32.32,0,0,0-.32-.48c-.45,0-1.11.27-1,.28s-3.31,0-3.31,0a6.45,6.45,0,0,0-1.39.76c-.22.26-1.21,1.53-1.21,1.53l-.9.44a.41.41,0,0,0,.2.52c.35.13.42.3.41.34a.89.89,0,0,0,.5.32c.19,0,.63-.39.73-.39a6.33,6.33,0,0,1,.83.64l.26.84a.72.72,0,0,0-.23.36,5.16,5.16,0,0,0-.09.79s.26,1.13-1.73,3.12-2.61,1.51-2.61,1.51l-.65.28s-.39.3-.42.4-.07.32-.09.4-.4,1-.59,1a5.67,5.67,0,0,0-1,.42l.58.57a9.19,9.19,0,0,1,.6.93,6,6,0,0,1,0,.85c0,.18.08.6-.21.6s-1,.08-1.12.08-.28-.22-.17-.48a6.63,6.63,0,0,0,.28-1.06,1.1,1.1,0,0,0,0-.51l-.52-.18s-.2.2-.27-.1-.13-.23-.08-.32.1-.09.1-.09l0-.07s.22-.18,0-.27l-.27-.11-.22-.05-.39.08-.35.14s-.81.28-.83.2.21-.52.21-.64.11-.55.06-.56-.27-.17-.8.23-.44.54-.75.68a2.78,2.78,0,0,1-.4.16l-.18.34s0,.52.14.5.55.6.55.67.44,0,.6-.12a1.4,1.4,0,0,1,.88.08c0,.09,0,.27-.09.27a1.84,1.84,0,0,0-.9.34c-.15.22-.52.86-.52.86s1,.84,1,1,.32.53.22.58-.76.21-.59.3.82.29.75.55a.49.49,0,0,1-.32.32s-.3.2-.12.32.26.18.27.28a.58.58,0,0,1,0,.45,6.23,6.23,0,0,0-.64,1.12c0,.22,0,.1-.24.46a1.85,1.85,0,0,0-.34.67s-.66,1-.91,1.15-1,.82-1.42.8-.15-.28-.51-.06a17.89,17.89,0,0,1-1.88.74l-1.32,0s-.38.2-.34.24.5.3.39.31a5.67,5.67,0,0,0-.73.74s-.28.62,0,.88a12.47,12.47,0,0,1,.9,1.59l.54.72s0,0,.14.45a3.05,3.05,0,0,1,0,1.41c-.1.31-.32.81-.5.88s-.28,0-.65.29a2.59,2.59,0,0,0-.56.83c-.09.1-.22.22-.29.16a3.63,3.63,0,0,1-.15-.67s.19-.31.12-.37a.92.92,0,0,0-.33-.06s0,.12-.23-.08-.3-.08-.46-.54-.1-.49-.25-.67-.18-.09-.39-.19-.47,0-.52-.16a1,1,0,0,0-.17-.27l-.17.07a.64.64,0,0,1,0,.41c-.1.16-.2.4-.27.35s-.14.23-.14.23l-.11,1.08.12.77s.22.35.45.81a9.27,9.27,0,0,0,1.4,1.47,1.24,1.24,0,0,1,.24,1,4.34,4.34,0,0,0,.36,1.59s.23.32-.06.34a2.6,2.6,0,0,1-1.49-1.17,24.66,24.66,0,0,1-.69-2.37c-.22-.44-.77-1.47-.77-1.47l.32-2.93a3.6,3.6,0,0,1-.29-.63c0-.14-.43-1.61-.43-1.61s-.53.12-.65,0-.87.28-1-.16.51-.74-.22-1.51a4.21,4.21,0,0,1-.94-1.54l-.59-.67a4.65,4.65,0,0,1-1,.36c-.15,0-.09-.64-.09-.64s-.21.49-.32.54a2.7,2.7,0,0,0-.54.4s-.2,1-.5,1.1a1.12,1.12,0,0,0-.52.36c-.11.16-.59.7-.59.7a3,3,0,0,0-.69.64,2.53,2.53,0,0,1-.58.8c-.2.12-.74.36-.74.36a2.73,2.73,0,0,1,0,.7,12.55,12.55,0,0,1-.28,2.52c-.18.06,0,.42-.29.64a1.62,1.62,0,0,0-.51.56,3.31,3.31,0,0,0-.18.53c0,.08,0,.42-.22.08s-.66-1.27-.71-1.47l-.9-3.68a8.06,8.06,0,0,1-.66-1.47,16.49,16.49,0,0,1-.17-2.33s.07-.5-.16-.52-.24.73-.24.73l-.37.43s-.65-.59-.78-.69a.82.82,0,0,1-.21-.36l.38-.24s.24-.08.23-.24-.45-.1-.45-.1l-.61-.32-.1-.17-.21-.12-.18-.24a4.14,4.14,0,0,0-2.36-.68,10.36,10.36,0,0,1-2.36-.28l-.69-.42a2,2,0,0,0,0-.54c-.06-.1-.22.1-.81.17a1.89,1.89,0,0,1-1-.2l-.39-.45a.83.83,0,0,1-.81-.43c-.35-.53-.38-.9-.9-.94s-.55,0-.56.08a2.43,2.43,0,0,0,0,.38,3.38,3.38,0,0,0,.38.9c.34.64.35.64.61,1.11s.48,1,.48,1l.29.52s-.13.31.43.11a3.16,3.16,0,0,1,.91-.2l.3,0,.3-.2s.34-.36.48-.33.28.3.28.38a.37.37,0,0,0,.27.41,5,5,0,0,1,.53.23,5.65,5.65,0,0,1,.48.32c.07.06,0,.06.1.18a3,3,0,0,1,.09.6l-.29.44a.72.72,0,0,0-.22.17c-.07.07-.3.41-.3.41l-.16.25-.08.24-.21.33-.28.4a1.34,1.34,0,0,1-.21.2l-.23.15-.1.07-.14.21,0,.07a6.37,6.37,0,0,1-.95.26c-.17,0-.72.46-.72.46l-.49.68a6.84,6.84,0,0,1-1,.61,19.21,19.21,0,0,1-3,1.09,1.2,1.2,0,0,1,0-.42l-.17-1.93s-.34-1.16-.68-1.38-.36-.68-.49-.88-.8-.75-.84-.9-.12-1.62-.12-1.62l-.71-.7-1.29-2.73-.3-1.69s.18-.06.25,0a2.19,2.19,0,0,1,.23.21l.06-.58a1.49,1.49,0,0,0,.17-.36,4.89,4.89,0,0,0-.27-.76,8.77,8.77,0,0,1,.49-.84l-.08-.79.52-.54a12.62,12.62,0,0,0-1.33,0c-.31,0-.6.54-1,.34s-.38-.49-.89-.42a1.52,1.52,0,0,1-2-.82,1,1,0,0,1-.08-.25,9.06,9.06,0,0,0-.29-.88s.6-.42,0-.63a1.89,1.89,0,0,0-1.13,0s0,.18-.14.21a2.54,2.54,0,0,0-.54.44c-.06.16-.13.32-.2.47a1.74,1.74,0,0,0-.2.49l.2.52s-.25.52-.29.34a6.46,6.46,0,0,0-.1-1.07c-.08-.13-.25-.69-.42-.7a.41.41,0,0,1-.37-.18,1.54,1.54,0,0,1-.22-.49l0-.48-.1-.39a14.52,14.52,0,0,1-1.8-1.41c0-.15-.28-.42-.28-.42l-.24-.3a4.4,4.4,0,0,1-.5-.21c-.22-.11-.3-.41-.4-.41s-.4.52-.4.52a5,5,0,0,0,.63,1.36c.28.22,1.37,1.42,1.37,1.42l.87.33s.3.14.24.27-.07.14-.19.09a5.17,5.17,0,0,0-.68-.16s.22.73.25.76,0,0-.28.28l-.49.49s.1-.54.14-.79-.38-.65-.38-.65-.8-.8-1.06-.8-1.17-1-1.3-1.25,0-.45-.28-.62-1.12.28-1.68.56a1.06,1.06,0,0,1-1.07-.14l-.63.33Z"/><path id="Path_14109" data-name="Path 14109" class="cls-17" d="M1179.57,1337.75s.42.11,1,.94a4.38,4.38,0,0,0,1.18,1.13,9.61,9.61,0,0,1,1.1,1.11c.06.19.14-.3.4,0s-.06.15.44,1,.69.52.68,1,0,1.83-.34,1.68a21.84,21.84,0,0,1-2.95-4.08,1.82,1.82,0,0,0-.56-.86c-.12-.1-1.7-1.89-1.41-2.09a.28.28,0,0,1,.37.05A.3.3,0,0,1,1179.57,1337.75Z"/><path id="Path_14110" data-name="Path 14110" class="cls-17" d="M1186.42,1340.09l.4,0,.41-.1s.51-.75.65-.88a2.54,2.54,0,0,1,.5-.36s.47-.2.6-.27.38-.86.66-1,.75-.46.75-.46a1.83,1.83,0,0,0,.42.5c.14.07.75.09.59.29s-.66.38-.73.46a2.08,2.08,0,0,0-.07,1.57c.3.5.6.47.36.61a4,4,0,0,0-.69.85s-.33.72-.42.85a3.64,3.64,0,0,0-.18.87s-.38.61-.67.68-.14-.72-.31-.76-.35-.22-.48-.22h-1.46a4.37,4.37,0,0,0-.17-1.14C1186.4,1340.92,1186.19,1340.3,1186.42,1340.09Z"/><path id="Path_14111" data-name="Path 14111" class="cls-17" d="M1184.56,1345.06s.24-.22,1.34.08,1.26.09,1.31.09a2.63,2.63,0,0,1,.6.25,3,3,0,0,0,.79.48c.21.06.58,0,.39.19a4.21,4.21,0,0,1-2.36-.1c-.74-.29-1.84-.71-2-.77S1184.49,1345.08,1184.56,1345.06Z"/><path id="Path_14112" data-name="Path 14112" class="cls-17" d="M1199.5,1343.15s-.31-.48-.41-.43.08.66.34.8,1,.57,1.27.71.91.53.91.74a3,3,0,0,0,.66,1.31,1.92,1.92,0,0,0,.5.24s-.1-.32-.06-.25a2,2,0,0,0,.8.36c.16,0,.44,0,.18-.26s-.43-.35-.37-.4a1.62,1.62,0,0,1,.62-.06,4.71,4.71,0,0,0,1-.29s2.28,2,2.18,1.65a12.3,12.3,0,0,0-1.13-1.58.52.52,0,0,1,0-.56c.07,0,.29-.08-.28-.41a2.92,2.92,0,0,1-.87-.81,28.87,28.87,0,0,0-3.41-1.64c-.62-.11-.76-.26-1,.16s-.26.72-.63.72Z"/><path id="Path_14113" data-name="Path 14113" class="cls-17" d="M1196.65,1350.17a.7.7,0,0,1,.39-.92l0,0c.72-.34,1.16-.5,1.16-.5l.19-.42,1,.5,1.09.14-.3.36a4.22,4.22,0,0,0-.21,1.22l.35.47a15.3,15.3,0,0,0,1.39,1c.55.34,1.13-1.75,1.13-1.75a11.51,11.51,0,0,1,.42-2.33c.19-.05.68,2.24.74,2.29s.52,0,.6.15a7.23,7.23,0,0,1,.21.8l.33.86s-.06.59.2.82a9.79,9.79,0,0,1,1.62,2c.35.71.5.18.53.2a2,2,0,0,1,.14.41,2.61,2.61,0,0,0,.31.54c.06,0,2.36,1.69.5,5.39s-1,2.93-2.1,3-1.26.52-1.54.3-1.21.11-1.21.11a14.71,14.71,0,0,1-1.26-.78,14.12,14.12,0,0,1-.87-1.44,5.92,5.92,0,0,1-.68-.82,3.39,3.39,0,0,1,.13-.55,1.32,1.32,0,0,0-.56.4c-.31.34-.46.67-.62.74s-.83-1.18-.83-1.18-3.71-.45-4.79.26-1.24.26-2,.22-.8.85-1.17.85-1.85-.41-1.67-.81a12.3,12.3,0,0,0-.34-3.37,6.51,6.51,0,0,1-.18-1.52c0-.3-.13-2.33-.13-2.33s1-.48,2-.93,2-.92,2-1.18a5.56,5.56,0,0,1,.09-.82s.49-.37.62,0,.15.52.37.56.24-.26.09-.44-.31-.34-.16-.34h.47s.08-.65.27-.57.89-.83.9-.86a2.28,2.28,0,0,1,.47.51c0,.06,0,0,.12.32s.6,0,.61,0S1196.65,1350.17,1196.65,1350.17Z"/><g id="Group_3289" data-name="Group 3289"><g id="Group_3288" data-name="Group 3288"><path id="Path_14114" data-name="Path 14114" class="cls-17" d="M1107.78,1286.1a.52.52,0,0,0,.56.06c.27-.18.59.27,1,.35s1.26-.14,1.08.12-.1.41.13.65a.73.73,0,0,1,.25.65,1.24,1.24,0,0,1-.2.77,1,1,0,0,0-.21.67c0,.12-.59.14-.51.35s.87.36.9.1,0-.39.08-.55.46.16.59.16.56,0,.51.16-.31.25-.28.43.46.3.23.49a.43.43,0,0,1-.61,0,4,4,0,0,0-1.18-.21s-.26.35-.1.41-.28-.05-.38.12a.42.42,0,0,0,0,.47.64.64,0,0,0,.57.19c.26-.06.81-.11.51-.29s-.29,0-.32-.2.19-.36.19-.36a1.28,1.28,0,0,0,.6.25c.22,0,.45-.1.43.13a1.51,1.51,0,0,1-.42.71.84.84,0,0,0-.26.58c0,.13.21.25.22.32a.59.59,0,0,1-.22.4.48.48,0,0,0-.23.19.57.57,0,0,1-.6,0c-.19-.12.08-.59-.12-.59a.78.78,0,0,0-.51.18,1,1,0,0,0-.27.3l.24.21c.1.1-.05.49-.12.5s-.48,0-.31.2.27,0,.35.19a.38.38,0,0,1,0,.37s-.09,0-.11.11-.37.8-.27.85-.1,0,.38-.33.5-.57.5-.29-.13.45-.18.45-.64.49-.54.71.26.49.29.56.11.1,0,.26-.28.2-.06.27a1.47,1.47,0,0,1,.39.21s.15.54.24.73,0,.24.12.27.28.2.51,0,.67-.12.73-.28.2-.31.24-.07a.59.59,0,0,1-.14.44.33.33,0,0,0,.1.37c.14.07.06.35.3.34s.23.15.3-.14,0-.42.24-.71a2.34,2.34,0,0,1,.37-.4,2.43,2.43,0,0,0,.34-.3c0-.06.49-.24.33-.38s-.33-.18-.08-.36.43,0,.53-.1a1.83,1.83,0,0,0,.18-.3c.09-.19.11-.3.24-.36a.86.86,0,0,1,.49-.15c.2,0,.3-.07.17-.24s-.36-.22-.34-.3.19-.17.29-.23a.36.36,0,0,0,.19-.24c0-.09,0-.13,0-.21s.34,0,.39,0a.31.31,0,0,0,.06-.13s.29-.25.42-.26.06.13.21.12.2.06.33,0,.25-.18.25-.25a2,2,0,0,1,0-.24s.3-.23.35-.19,0,.08,0,.2-.36.29-.16.38.16.26.3.07a1.1,1.1,0,0,1,.48-.32,3.49,3.49,0,0,1,.35-.26s0-.11,0-.14.84,0,1.11-.21.47-.57.66-.65.54-.11.51-.33-.22-.55-.08-.51.37.41.6.43.3,0,.26-.06,1.5-.23,1.94-.29a1.91,1.91,0,0,0,1-.44,5.31,5.31,0,0,1,1-.53c.37-.14.73-.16.75-.2s.28-.1-.08-.11a5,5,0,0,1-.86,0,4.14,4.14,0,0,0-1.11,0c-.33.07-1.11.22-1,.06s.28-.17.08-.3-.16-.18-.16-.18l.78-.28a1.15,1.15,0,0,0,.37,0c.15,0,.26-.33.26-.33s-.69-.08-.72-.25-.08-.26-.06-.28.4.17.88.31a4.26,4.26,0,0,1,.92.35s0,.23.14.3a3.7,3.7,0,0,0,.7.26c.07,0,.43-.42.16-.64s-.43-.51-.66-.59l-.54-.24c-.21,0-.11.06-.42-.21s-.36-.31-.43-.39.19-.34.37-.25.48.32.6.2a.82.82,0,0,0,.22-.33s-.3-.19-.23-.21.58.35.67.29.14.39.36.28.64-.54.61-.66.21-.27.35-.29.2-.2.2-.39,0-.17-.07-.46a.7.7,0,0,1,0-.45.58.58,0,0,1,.22-.27.75.75,0,0,1,.3-.09l.1,0s1.65-.07,1.39-.31-1.06-.16-1-.33.85,0,.77-.1-1.19.16-1.19,0,.57-.42.57-.46-.28-.17.21-.37a6,6,0,0,0,1.27-.68,2.16,2.16,0,0,1,1-.3,3.1,3.1,0,0,0,.51-.11c.09,0,2.28-.52,1.41-.54s-2.09-.57-2.66-.25a5.42,5.42,0,0,1-1.17.41c-.31.12-1.4.67-1.19.38s.88-.5.88-.64-.53-.21-.73-.11-.77.3-.77.3-1,.11-.84,0a5.45,5.45,0,0,1,1-.4s-2.91.21-3,.17.65-.42,1-.35a25,25,0,0,0,2.6-.13c.15,0,.54-.28.13-.28l-4.06.06c-.44,0-3.58,0-3.84,0s-.49.26-.25.29a5.41,5.41,0,0,1,.79.21s-1.31,0-1.4.08-1.33-.12-1.33-.12-1.14-.38-1.16-.21.36.39.36.39l-.26.08s-.92-.27-1-.27-.69.4-.69.4l.31-.44a12.54,12.54,0,0,0-2.21.08c0,.13.91.38.47.38s-1.27-.81-1.55-.48.1.61-.63.71-1.46.14-1.53.14-1.43.24-1.38.35a3.81,3.81,0,0,0,1.29.19c.11,0,0,.19-.28.23s-1.27.49-1.39.49l-1.83.16-1,.11-.22.28s.66.15.88.17l.82.09s.79,0,.34.22a3.75,3.75,0,0,1-1.33.26c-.24,0-.8-.15-.56.12s1.59.11,1.32.26-1.07.23-1,.29A5.6,5.6,0,0,0,1107.78,1286.1Z"/><path id="Path_14115" data-name="Path 14115" class="cls-17" d="M1087.37,1288.14a1,1,0,0,0,.43-.06c.2-.1,0-.22.71-.32s1.42-.36,1.2-.48a1.65,1.65,0,0,0-.88-.24c-.22.08-.19-.08-.7-.06a6.43,6.43,0,0,0-1.3.22,3.54,3.54,0,0,1-.9.78c-.35.12-.59.23-.42.3s.52,0,.31.28,0,.32.28.17.8,0,1-.23S1087.27,1288.14,1087.37,1288.14Z"/><path id="Path_14116" data-name="Path 14116" class="cls-17" d="M1087.91,1288.42s-.61,0-.25-.13.58-.32.93-.36,1.36-.43,1.3-.29-.3.42,0,.35.79-.26.82-.18-.26.2-.24.25.11-.08.36,0,.25.08.34,0a.24.24,0,0,0,.09-.2s.08,0,.08,0,.19.24.1.37,0,.46.1.4.17-.31.32-.46.57-.58.75-.5.25.16.13.28,0,.35-.08.47a2.16,2.16,0,0,1-.27.25c-.14.1-.27.16-.15.27a1.83,1.83,0,0,0,.44.28c.06,0,.33.24.25.33a.58.58,0,0,1-.48,0c-.14,0-.19-.06-.27,0a.25.25,0,0,1-.17,0c-.06,0-.58.09-.22.18s.94.24.44.29a1.91,1.91,0,0,1-1-.07,2.24,2.24,0,0,0-.55-.24l-.11,0c-.31.12-.62.23-.93.32a5.92,5.92,0,0,1-1.83.1c0-.14.15-.19.2-.26s-.1,0-.24,0-.5-.06-.56-.25.27-.49.42-.46a7.15,7.15,0,0,0,1.6.07c.34-.08.23-.14,0-.15l-1.26,0c-.06,0-.63-.11-.58-.17a4.21,4.21,0,0,1,.85-.15s.52,0,.31-.16a.56.56,0,0,0-.4-.09A.53.53,0,0,1,1087.91,1288.42Z"/><path id="Path_14117" data-name="Path 14117" class="cls-17" d="M1096.05,1293s-.33.22-.48.14.3-.26.37-.3a2.2,2.2,0,0,0,.33-.41,4.76,4.76,0,0,1,.63-.64c.09,0,.36.1.26.17s-.22,0-.2.12.35.11.45.2.46.29.45.33-.2.16-.21.2a1,1,0,0,0,.36.19c.07,0,.14.19-.14.21s-.52-.08-.49-.18,0-.37-.27-.27-.31.38-.45.35-.5.35-.61.29.06-.16.07-.18S1096.22,1292.92,1096.05,1293Z"/><path id="Path_14118" data-name="Path 14118" class="cls-17" d="M1099.79,1292.72c-.08,0-.3.24-.6.1s-.4-.17-.17-.26.65-.35.7-.35a.36.36,0,0,1,.23.17c0,.09.14.16.21.1s.13-.19.22-.19.55-.12.67-.11,0-.25-.13-.33.12-.14.13-.14a2.93,2.93,0,0,0,.63-.4c0-.1.15,0,.29-.19s0-.59,0-.59a10.44,10.44,0,0,0-.88-.88,1.4,1.4,0,0,1-.42-.42c0-.06-.16-.09-.19,0s0,.06.06.09.31.23.1.26-.63-.26-1.07-.13-.27.16-.26.15-1.3-.18-1.48-.23a2.57,2.57,0,0,0-.48,0c-.13,0-.42-.07-.28-.2s.36-.3.5-.22.43.09.4,0-.88-.36-.76-.42a2.18,2.18,0,0,0,.34-.26,2.46,2.46,0,0,1,.4-.3,7.18,7.18,0,0,1,1.1-.48c.25,0,.51-.07.76-.12,0,0,.23,0,.12.09s-.57.18-.67.28-.47.33-.54.48-.24.25-.11.36.28.25.14.26-.25.24-.1.2.4-.15.4-.22a.32.32,0,0,0-.08-.2c0-.07-.16-.26,0-.31a.49.49,0,0,1,.39.09s.29-.09.24-.12-.43,0-.4-.13a.34.34,0,0,1,.2-.24,4.49,4.49,0,0,0,.61-.23.86.86,0,0,1,.55-.19c.23,0,.49,0,.5,0s-.26,0-.08.18a.2.2,0,0,1,0,.28l0,0a2.58,2.58,0,0,0-.27.12,1.13,1.13,0,0,0-.36.36s.16.15.23.09a2.22,2.22,0,0,1,.52-.29c.08,0,.25.06.19.08s-.18.08-.13.12a.5.5,0,0,0,.24.06c.1,0,.26-.11.26-.17a.4.4,0,0,1,.06-.22,2.21,2.21,0,0,1,.85,0c.18.11.22.23,0,.23s-.48-.09-.48,0,.27.31.34.34a2.63,2.63,0,0,0,.3.1,1.23,1.23,0,0,0,.43,0,1.05,1.05,0,0,1,.26-.13c.1,0,.18,0,.19,0a.14.14,0,0,1-.07.16l-.3.14c-.16.07-.33.09-.2.16a.71.71,0,0,0,.28.09s.25-.31.39-.34,0,.16,0,.19a1,1,0,0,1-.2.15.72.72,0,0,0-.2.14s-.1.09-.06.1a1.52,1.52,0,0,1,.28.09s.25.5.15.55-.12.07,0,.16.07.16.21.22.29.11.3.15a1,1,0,0,0,.44.14c.08,0,.7.28.63.31s-.19.22-.07.26a1.65,1.65,0,0,0,.38,0c.08,0,.22,0,0,.12a2.63,2.63,0,0,0-.64.29,1.6,1.6,0,0,1-.27.25s0,.3-.13.37-.25-.16-.25-.28-.16-.17,0-.27.52-.25.47-.28a.92.92,0,0,0-.37,0s-.35.26-.4.16-.16-.18-.19-.28,0-.3-.12-.23-.13.19-.17.23-.38.32-.41.27-.29-.06-.22,0,.4.33.42.37a2.6,2.6,0,0,1,.28.81c0,.2,0,.27-.07.29s-.21.21-.23.23,0,.17-.15.09-.47-.16-.52-.25,0-.31-.14-.27-.16.1-.26.06a.21.21,0,0,0-.21.07s.7.59.7.7-.07.26-.17.2-.84-.2-.88-.31-.07-.15-.14-.17-.38-.12-.45-.13-.11,0-.09-.1.06-.08.1-.16.1-.18.08-.19-.5-.26-.5-.26.17-.22,0-.2-.58,0-.65,0a.32.32,0,0,1-.14,0l-.1,0Z"/></g></g></g></g><g id="Message_box" data-name="Message box"><path id="Path_14119" data-name="Path 14119" class="cls-10" d="M1068.8,1225.39H1013a5.86,5.86,0,0,0-5.86,5.86v13.38a5.86,5.86,0,0,0,5.86,5.86h48.07l2.43,6.59,3-6.59h2.26a5.86,5.86,0,0,0,5.86-5.86v-13.38A5.87,5.87,0,0,0,1068.8,1225.39Z"/></g><g id="message"><g id="Group_3292" data-name="Group 3292"><g id="Group_3291" data-name="Group 3291"><rect id="Rectangle_1901" data-name="Rectangle 1901" class="cls-7" x="1012.77" y="1230.87" width="26.29" height="2.15"/><rect id="Rectangle_1902" data-name="Rectangle 1902" class="cls-7" x="1041.73" y="1230.87" width="10.47" height="2.15"/><rect id="Rectangle_1903" data-name="Rectangle 1903" class="cls-7" x="1046.35" y="1234.98" width="18.09" height="2.15"/><rect id="Rectangle_1904" data-name="Rectangle 1904" class="cls-7" x="1066.27" y="1234.98" width="2.8" height="2.15"/><rect id="Rectangle_1905" data-name="Rectangle 1905" class="cls-7" x="1054.55" y="1230.87" width="14.52" height="2.15"/><rect id="Rectangle_1906" data-name="Rectangle 1906" class="cls-7" x="1012.77" y="1234.98" width="11.99" height="2.15"/><rect id="Rectangle_1907" data-name="Rectangle 1907" class="cls-7" x="1027.46" y="1234.98" width="16.63" height="2.15"/><rect id="Rectangle_1908" data-name="Rectangle 1908" class="cls-7" x="1012.77" y="1243.32" width="26.29" height="2.15"/><rect id="Rectangle_1909" data-name="Rectangle 1909" class="cls-7" x="1041.73" y="1243.32" width="10.47" height="2.15"/><rect id="Rectangle_1910" data-name="Rectangle 1910" class="cls-7" x="1046.35" y="1239.21" width="18.09" height="2.15"/><rect id="Rectangle_1911" data-name="Rectangle 1911" class="cls-7" x="1066.27" y="1239.21" width="2.8" height="2.15"/><rect id="Rectangle_1912" data-name="Rectangle 1912" class="cls-7" x="1054.55" y="1243.32" width="14.52" height="2.15"/><rect id="Rectangle_1913" data-name="Rectangle 1913" class="cls-7" x="1012.77" y="1239.21" width="11.99" height="2.15"/><rect id="Rectangle_1914" data-name="Rectangle 1914" class="cls-7" x="1027.46" y="1239.21" width="16.63" height="2.15"/></g></g></g></g></svg>