<svg id="Layer_1" data-name="Layer 1" xmlns="http://www.w3.org/2000/svg" viewBox="0 0 1874.45 1874.45"><defs><style>.cls-1{fill:#e8f8fc;}.cls-17,.cls-2{fill:#fff;}.cls-3{fill:#d6e9d9;}.cls-4{fill:#63779b;}.cls-5{fill:none;}.cls-20,.cls-6{fill:#00205c;}.cls-7{fill:#1c396e;}.cls-8{fill:#556a92;}.cls-24,.cls-9{fill:#8897b2;}.cls-10,.cls-14,.cls-15,.cls-16,.cls-17,.cls-18,.cls-19,.cls-20,.cls-21,.cls-22,.cls-9{fill-rule:evenodd;}.cls-10{fill:#fafafa;}.cls-11,.cls-16{fill:#4d7c60;}.cls-12{fill:#a3afc3;}.cls-13,.cls-14{fill:#1a5632;}.cls-15{fill:#668e76;}.cls-18{fill:#3a64a3;}.cls-19{fill:#6d7fa1;}.cls-21,.cls-23{fill:#526790;}.cls-22,.cls-28{fill:#1b386d;}.cls-25{fill:#80a18d;}.cls-26{fill:#336949;}.cls-27{fill:#59445a;}</style></defs><path class="cls-1" d="M936.19,934.29v676.77l-4.93,0c-2,0-4.08,0-6.11-.07l-1.73,0c-1.42,0-2.83,0-4.25-.09-1.6,0-3.2-.08-4.8-.14s-2.89-.09-4.34-.15l-3.55-.14-4.22-.2-4.21-.22-3.29-.19q-6.76-.4-13.49-1c-1-.07-1.93-.15-2.89-.24l-2.58-.22-2.88-.26-4.16-.4-3.5-.35q-5.75-.6-11.46-1.29l-3.67-.46-4.38-.57-4.21-.58c-1.4-.19-2.81-.39-4.21-.6l-4.08-.61q-10.56-1.6-21-3.55l-3.47-.65q-4.49-.86-9-1.77l-4.13-.86-3-.64c-3.18-.68-6.36-1.39-9.52-2.12q-4-.93-8-1.89h0q-5.94-1.44-11.83-3l-4.38-1.17q-3.51-.94-7-1.94-10-2.82-19.84-5.93c-1.29-.4-2.58-.81-3.86-1.23l-3-1c-4.2-1.37-8.37-2.79-12.54-4.24l-3.62-1.28c-.75-.26-1.49-.53-2.23-.81l-1.57-.56-3.26-1.19-1.66-.62-.46-.17-4.21-1.58-3.86-1.48c-.91-.35-1.81-.72-2.72-1.08l-.19-.08-.36-.14-2.93-1.15-3.68-1.46-3-1.21-3.86-1.6-1.22-.52-2.33-1-3-1.3-2.21-1c-1.51-.65-3-1.32-4.52-2l-2.36-1.06-.46-.21-.68-.3-2.13-.95-1.65-.76-.69-.31-1.95-.9-2.3-1.07-2.54-1.21h0l-.42-.2-2-1h0c-2.09-1-4.16-2-6.24-3L636,1541c-2.13-1-4.24-2.12-6.35-3.19l-2-1-.85-.44c-2.49-1.28-5-2.57-7.43-3.88q-4.33-2.31-8.63-4.66c-2.86-1.58-5.72-3.17-8.55-4.78s-5.67-3.25-8.48-4.9-5.61-3.33-8.4-5l-.06,0-4.7-2.89-.94-.58-3.8-2.38c-1.47-.92-2.94-1.86-4.4-2.79l-1.87-1.21c-.64-.41-1.28-.82-1.92-1.25l-1.2-.78-.21-.13-3.68-2.42-1.36-.9-1.76-1.18-2.28-1.55-.83-.56-2.31-1.57c-1.28-.88-2.55-1.75-3.82-2.64l-1-.73-1.18-.83-.11-.07-.11-.07c-1.45-1-2.89-2-4.33-3.08l-.12-.08-4-2.91-.35-.26q-4.21-3.06-8.39-6.19l-.82-.62-2.34-1.77c-.61-.46-1.23-.93-1.84-1.41-.44-.32-.87-.65-1.31-1l-2.74-2.12-.39-.3-3.62-2.84-.73-.58-1.87-1.48-2.39-1.92-.09-.07-.06,0-.55-.45q-1.86-1.5-3.71-3l-4.29-3.54-1.18-1c-1-.86-2.06-1.72-3.08-2.59l-.64-.54-2.33-2-1.27-1.09q-2.12-1.82-4.2-3.64l-2.86-2.52-1-.88-.31-.28-2.72-2.42c-.48-.42-1-.85-1.42-1.29l-1.06-1-2.92-2.67-.13-.12c-.46-.41-.92-.83-1.37-1.26l-1.37-1.26-.72-.67c-.74-.69-1.48-1.37-2.21-2.07l-2.26-2.14-.2-.19a5,5,0,0,1-.41-.39l-2.85-2.73h0c-1.59-1.53-3.16-3-4.73-4.59q-2-2-3.95-3.91t-3.92-3.94q-3.93-3.94-7.75-8-1.92-2-3.82-4-5.73-6.07-11.28-12.29l-3.69-4.16-3.64-4.15,0,0c-1.21-1.41-2.42-2.81-3.62-4.22q-1.57-1.85-3.13-3.7l-.46-.55a675.9,675.9,0,0,1-114.59-196l-1,.73-.2-.53c-.53-1.44-1.07-2.9-1.6-4.36l.75-.55-.32-.44-.82.6A675.81,675.81,0,0,1,259.1,937.46a683.61,683.61,0,0,1,3.58-70c0-.14,0-.28,0-.41q.78-7.87,1.74-15.7c.13-1.07.26-2.15.4-3.22q.56-4.38,1.17-8.73c.12-.92.26-1.85.39-2.78l.57-3.86c.08-.5.15-1,.23-1.5.23-1.5.46-3,.7-4.48.26-1.67.54-3.34.82-5q1.32-7.9,2.82-15.73c.21-1.11.43-2.21.65-3.31s.46-2.36.71-3.54.52-2.6.8-3.89q1-5,2.15-9.92c.26-1.19.53-2.37.8-3.56.34-1.48.69-3,1-4.43q.59-2.49,1.2-5,2.68-11,5.73-21.78c.42-1.49.84-3,1.27-4.45q.87-3,1.77-6c.51-1.7,1-3.41,1.55-5.11s1.08-3.49,1.63-5.24q1.38-4.34,2.8-8.64,1.3-3.95,2.66-7.86c.49-1.43,1-2.85,1.49-4.27q.92-2.58,1.84-5.14t1.88-5.13q.92-2.47,1.85-4.93l.07-.18c.63-1.65,1.26-3.3,1.91-4.95l.12-.31c.63-1.63,1.28-3.27,1.93-4.89q2-5.07,4.12-10.08.95-2.28,1.91-4.54,2.35-5.52,4.8-11,1-2.2,2-4.39,2.24-4.93,4.58-9.83,1.17-2.44,2.35-4.88t2.38-4.86c.08-.15.15-.3.22-.45q1.1-2.21,2.21-4.39c.78-1.54,1.56-3.08,2.36-4.61q2.67-5.19,5.42-10.31l2-3.76q2.71-5,5.5-9.87,1.33-2.34,2.68-4.68l.12,0,1,.58,135,78Z"/><path class="cls-1" d="M1573.1,1166.41l.4.2q-.86,2.39-1.72,4.74l-1-.49Z"/><path class="cls-1" d="M1581.52,729.81q-1.66-5.22-3.4-10.42Q1579.88,724.58,1581.52,729.81Z"/><path class="cls-1" d="M1610.08,871.44c-.12-1.25-.23-2.51-.36-3.76.06.57.11,1.13.17,1.69S1610,870.75,1610.08,871.44Z"/><path class="cls-2" d="M936.19,934.29v676.77l-4.93,0c-2,0-4.08,0-6.11-.07l-1.73,0c-1.42,0-2.83,0-4.25-.09-1.6,0-3.2-.08-4.8-.14s-2.89-.09-4.34-.15l-3.55-.14-4.22-.2-4.21-.22-3.29-.19q-6.76-.4-13.49-1c-1-.07-1.93-.15-2.89-.24l-2.58-.22-2.88-.26-4.16-.4-3.5-.35q-5.75-.6-11.46-1.29l-3.67-.46-4.38-.57-4.21-.58c-1.4-.19-2.81-.39-4.21-.6l-4.08-.61q-10.56-1.6-21-3.55l-3.47-.65q-4.49-.86-9-1.77l-4.13-.86-3-.64c-3.18-.68-6.36-1.39-9.52-2.12q-4-.93-8-1.89h0q-5.94-1.45-11.83-3l-4.38-1.17q-3.51-.94-7-1.94-10-2.82-19.84-5.93c-1.29-.4-2.58-.81-3.86-1.23l-3-1c-4.2-1.37-8.37-2.79-12.54-4.24l-3.62-1.28c-.75-.26-1.49-.53-2.23-.81l-1.57-.56-3.26-1.19-1.66-.62-.46-.17-4.21-1.58-3.86-1.48c-.91-.35-1.81-.72-2.72-1.08l-.19-.08-.36-.14-2.93-1.15-3.68-1.46-3-1.21-3.86-1.6-1.22-.52-2.33-1-3-1.3-2.21-1c-1.51-.65-3-1.32-4.52-2l-2.36-1.06-.46-.21-.68-.3-2.13-.95-1.65-.76-.69-.31-1.95-.9-2.3-1.07-2.54-1.21h0l-.42-.2-2-1h0c-2.09-1-4.16-2-6.24-3L636,1541c-2.13-1-4.24-2.12-6.35-3.19l-2-1-.85-.44c-2.49-1.28-5-2.57-7.43-3.88q-4.33-2.31-8.63-4.66c-2.86-1.58-5.72-3.17-8.55-4.78s-5.67-3.25-8.48-4.9-5.61-3.33-8.4-5l-.06,0-4.7-2.89-.94-.58-3.8-2.38c-1.47-.92-2.94-1.86-4.4-2.79l-1.87-1.21c-.64-.41-1.28-.82-1.92-1.25l-1.2-.78-.21-.13-3.68-2.42-1.36-.9-1.76-1.18-2.28-1.55-.83-.56-2.31-1.57c-1.28-.88-2.55-1.75-3.82-2.64l-1-.73-1.18-.83-.11-.07-.11-.07c-1.45-1-2.89-2-4.33-3.08l-.12-.08-4-2.91-.35-.26q-4.21-3.06-8.39-6.19l-.82-.62-2.34-1.77c-.61-.46-1.23-.93-1.84-1.41-.44-.32-.87-.65-1.31-1l-2.74-2.12-.39-.3-3.62-2.84-.73-.58-1.87-1.48-2.39-1.92-.09-.07-.06,0-.55-.45q-1.86-1.5-3.71-3l-4.29-3.54-1.18-1c-1-.86-2.06-1.72-3.08-2.59l-.64-.54-2.33-2-1.27-1.09q-2.12-1.82-4.2-3.64l-2.86-2.52-1-.88-.31-.28-2.72-2.42c-.48-.42-1-.85-1.42-1.29l-1.06-1-2.92-2.67-.13-.12c-.46-.41-.92-.83-1.37-1.26l-1.37-1.26-.72-.67c-.74-.69-1.48-1.37-2.21-2.07l-2.26-2.14-.2-.19a5,5,0,0,1-.41-.39l-2.85-2.73h0c-1.59-1.53-3.16-3-4.73-4.59q-2-2-3.95-3.91t-3.92-3.94q-3.93-3.94-7.75-8-1.92-2-3.82-4-5.73-6.07-11.28-12.29l-3.69-4.16-3.64-4.15,0,0c-1.21-1.41-2.42-2.81-3.62-4.22q-1.57-1.85-3.13-3.7l-.46-.55a675.9,675.9,0,0,1-114.59-196c-.08-.18-.14-.35-.2-.53-.44-1.14-.86-2.27-1.28-3.41,0-.1-.07-.19-.1-.28a675.54,675.54,0,0,1-41.63-234.23c0-1.68,0-3.36,0-5l0-3.15c0-1.12,0-2.24,0-3.35,0-1.92.07-3.84.12-5.75,0-.94.05-1.88.08-2.82,0-.57,0-1.15,0-1.72,0-1.4.09-2.79.14-4.19l.12-3c.07-1.6.14-3.2.22-4.79q.17-3.36.36-6.71c.1-1.73.21-3.45.33-5.17q.4-6.14.92-12.24c.14-1.65.29-3.3.44-4.94v0c.12-1.34.25-2.67.38-4,0-.14,0-.28,0-.41q.78-7.87,1.74-15.7c.13-1.07.26-2.15.4-3.22q.56-4.38,1.17-8.73c.12-.92.26-1.85.39-2.78l.57-3.86c.08-.5.15-1,.23-1.5.23-1.5.46-3,.7-4.48.26-1.67.54-3.34.82-5q1.32-7.9,2.82-15.73c.21-1.11.43-2.21.65-3.31s.46-2.36.71-3.54.52-2.6.8-3.89q1-5,2.15-9.92c.26-1.19.53-2.37.8-3.56.34-1.48.69-3,1-4.43q.59-2.49,1.2-5,2.68-11,5.73-21.78c.42-1.49.84-3,1.27-4.45q.87-3,1.77-6c.51-1.7,1-3.41,1.55-5.11s1.08-3.49,1.63-5.24q1.38-4.34,2.8-8.64,1.3-3.95,2.66-7.86c.49-1.43,1-2.85,1.49-4.27q.92-2.58,1.84-5.14t1.88-5.13q.92-2.47,1.85-4.93l.07-.18c.63-1.65,1.26-3.3,1.91-4.95l.12-.31c.63-1.63,1.28-3.27,1.93-4.89q2-5.07,4.12-10.08.95-2.28,1.91-4.54,2.35-5.52,4.8-11,1-2.2,2-4.39,2.24-4.93,4.58-9.83,1.17-2.44,2.35-4.88t2.38-4.86c.08-.15.15-.3.22-.45q1.1-2.21,2.21-4.39c.78-1.54,1.56-3.08,2.36-4.61q2.67-5.19,5.42-10.31l2-3.76q2.71-5,5.5-9.87,1.33-2.34,2.68-4.68l.12,0,1,.58,135,78Z"/><path class="cls-2" d="M1581.52,729.81q-1.66-5.22-3.4-10.42Q1579.88,724.58,1581.52,729.81Z"/><path class="cls-2" d="M1610.08,871.44c-.12-1.25-.23-2.51-.36-3.76.06.57.11,1.13.17,1.69S1610,870.75,1610.08,871.44Z"/><path class="cls-3" d="M936.19,934.29v676.77l-4.93,0c-2,0-4.08,0-6.11-.07l-1.73,0c-1.42,0-2.83,0-4.25-.09-1.6,0-3.2-.08-4.8-.14s-2.89-.09-4.34-.15l-3.55-.14-4.22-.2-4.21-.22-3.29-.19q-6.76-.4-13.49-1c-1-.07-1.93-.15-2.89-.24l-2.58-.22-2.88-.26-4.16-.4-3.5-.35q-5.75-.6-11.46-1.29l-3.67-.46-4.38-.57-4.21-.58c-1.4-.19-2.81-.39-4.21-.6l-4.08-.61q-10.56-1.6-21-3.55l-3.47-.65q-4.49-.86-9-1.77l-4.13-.86-3-.64c-3.18-.68-6.36-1.39-9.52-2.12q-4-.93-8-1.89h0q-5.94-1.45-11.83-3l-4.38-1.17q-3.51-.94-7-1.94-10-2.82-19.84-5.93c-1.29-.4-2.58-.81-3.86-1.23l-3-1c-4.2-1.37-8.37-2.79-12.54-4.24l-3.62-1.28c-.75-.26-1.49-.53-2.23-.81l-1.57-.56-3.26-1.19-1.66-.62-.46-.17-4.21-1.58-3.86-1.48c-.91-.35-1.81-.72-2.72-1.08l-.19-.08-.36-.14-2.93-1.15-3.68-1.46-3-1.21-3.86-1.6-1.22-.52-2.33-1-3-1.3-2.21-1c-1.51-.65-3-1.32-4.52-2l-2.36-1.06-.46-.21-.68-.3-2.13-.95-1.65-.76-.69-.31-1.95-.9-2.3-1.07-2.54-1.21h0l-.42-.2-2-1h0c-2.09-1-4.16-2-6.24-3L636,1541c-2.13-1-4.24-2.12-6.35-3.19l-2-1-.85-.44c-2.49-1.28-5-2.57-7.43-3.88q-4.33-2.31-8.63-4.66c-2.86-1.58-5.72-3.17-8.55-4.78s-5.67-3.25-8.48-4.9-5.61-3.33-8.4-5l-.06,0-4.7-2.89-.94-.58-3.8-2.38c-1.47-.92-2.94-1.86-4.4-2.79l-1.87-1.21c-.64-.41-1.28-.82-1.92-1.25l-1.2-.78-.21-.13-3.68-2.42-1.36-.9-1.76-1.18-2.28-1.55-.83-.56-2.31-1.57c-1.28-.88-2.55-1.75-3.82-2.64l-1-.73-1.18-.83-.11-.07-.11-.07c-1.45-1-2.89-2-4.33-3.08l-.12-.08-4-2.91-.35-.26q-4.21-3.06-8.39-6.19l-.82-.62-2.34-1.77c-.61-.46-1.23-.93-1.84-1.41-.44-.32-.87-.65-1.31-1l-2.74-2.12-.39-.3-3.62-2.84-.73-.58-1.87-1.48-2.39-1.92-.09-.07-.06,0-.55-.45q-1.86-1.5-3.71-3l-4.29-3.54-1.18-1c-1-.86-2.06-1.72-3.08-2.59l-.64-.54-2.33-2-1.27-1.09q-2.12-1.82-4.2-3.64l-2.86-2.52-1-.88-.31-.28-2.72-2.42c-.48-.42-1-.85-1.42-1.29l-1.06-1-2.92-2.67-.13-.12c-.46-.41-.92-.83-1.37-1.26l-1.37-1.26-.72-.67c-.74-.69-1.48-1.37-2.21-2.07l-2.26-2.14-.2-.19a5,5,0,0,1-.41-.39l-2.85-2.73h0c-1.59-1.53-3.16-3-4.73-4.59q-2-2-3.95-3.91t-3.92-3.94q-3.93-3.94-7.75-8-1.92-2-3.82-4-5.73-6.07-11.28-12.29l-3.69-4.16-3.64-4.15,0,0c-1.21-1.41-2.42-2.81-3.62-4.22q-1.57-1.85-3.13-3.7l-.46-.55a675.9,675.9,0,0,1-114.59-196c-.08-.18-.14-.35-.2-.53-.44-1.14-.86-2.27-1.28-3.41,0-.1-.07-.19-.1-.28a675.54,675.54,0,0,1-41.63-234.23c0-1.68,0-3.36,0-5l0-3.15c0-1.12,0-2.24,0-3.35,0-1.92.07-3.84.12-5.75,0-.94.05-1.88.08-2.82,0-.57,0-1.15,0-1.72,0-1.4.09-2.79.14-4.19l.12-3c.07-1.6.14-3.2.22-4.79q.17-3.36.36-6.71c.1-1.73.21-3.45.33-5.17q.4-6.14.92-12.24c.14-1.65.29-3.3.44-4.94v0c.12-1.34.25-2.67.38-4,0-.14,0-.28,0-.41q.78-7.87,1.74-15.7c.13-1.07.26-2.15.4-3.22q.56-4.38,1.17-8.73c.12-.92.26-1.85.39-2.78l.57-3.86c.08-.5.15-1,.23-1.5.23-1.5.46-3,.7-4.48.26-1.67.54-3.34.82-5q1.32-7.9,2.82-15.73c.21-1.11.43-2.21.65-3.31s.46-2.36.71-3.54.52-2.6.8-3.89q1-5,2.15-9.92c.26-1.19.53-2.37.8-3.56.34-1.48.69-3,1-4.43q.59-2.49,1.2-5,2.68-11,5.73-21.78c.42-1.49.84-3,1.27-4.45q.87-3,1.77-6c.51-1.7,1-3.41,1.55-5.11s1.08-3.49,1.63-5.24q1.38-4.34,2.8-8.64,1.3-3.95,2.66-7.86c.49-1.43,1-2.85,1.49-4.27q.92-2.58,1.84-5.14t1.88-5.13q.92-2.47,1.85-4.93l.07-.18c.63-1.65,1.26-3.3,1.91-4.95l.12-.31c.63-1.63,1.28-3.27,1.93-4.89q2-5.07,4.12-10.08.95-2.28,1.91-4.54,2.35-5.52,4.8-11,1-2.2,2-4.39,2.24-4.93,4.58-9.83,1.17-2.44,2.35-4.88t2.38-4.86c.08-.15.15-.3.22-.45q1.1-2.21,2.21-4.39c.78-1.54,1.56-3.08,2.36-4.61q2.67-5.19,5.42-10.31l2-3.76q2.71-5,5.5-9.87,1.33-2.34,2.68-4.68l.12,0,1,.58,135,78Z"/><path class="cls-3" d="M1581.52,729.81q-1.66-5.22-3.4-10.42Q1579.88,724.58,1581.52,729.81Z"/><path class="cls-3" d="M1610.08,871.44c-.12-1.25-.23-2.51-.36-3.76.06.57.11,1.13.17,1.69S1610,870.75,1610.08,871.44Z"/><path class="cls-4" d="M936.19,934.29v85.52c-67.1,25.48-150.06,40.54-239.84,40.54C473,1060.35,292,967.19,292,852.26,292,777,369.71,711,486.15,674.46Z"/><polygon class="cls-5" points="936.18 1611.06 936.18 1677.38 936.18 1677.38 936.18 1611.06 936.18 1611.06"/><path class="cls-6" d="M296.91,565.76a736.73,736.73,0,0,0-99.84,371.47c0,408.43,330.82,739.58,739.11,740.15v-66.32l-4.92,0c-2,0-4.08,0-6.11-.07l-1.73,0c-1.42,0-2.83,0-4.25-.09-1.6,0-3.2-.08-4.8-.14s-2.89-.09-4.34-.15l-3.55-.14-4.22-.2-4.21-.22-3.29-.19q-6.76-.4-13.49-1c-1-.07-1.93-.15-2.89-.24l-2.58-.22-2.88-.26-4.16-.4-3.5-.35q-5.75-.6-11.46-1.29l-3.67-.46-4.38-.57-4.21-.58c-1.4-.19-2.81-.39-4.21-.6l-4.08-.61q-10.56-1.6-21-3.55l-3.47-.65q-4.49-.86-9-1.77l-4.13-.86-3-.64c-3.18-.68-6.36-1.39-9.52-2.12q-4-.93-8-1.89h0q-5.94-1.45-11.83-3l-4.38-1.17q-3.51-.94-7-1.94-10-2.82-19.84-5.93c-1.29-.4-2.58-.81-3.86-1.23l-3-1c-4.2-1.37-8.37-2.79-12.54-4.24l-3.62-1.28c-.75-.26-1.49-.53-2.23-.81l-1.57-.56-3.26-1.19-1.66-.62-.46-.17-4.21-1.58-3.86-1.48c-.91-.35-1.81-.72-2.72-1.08l-.19-.08-.36-.14-2.93-1.15-3.68-1.46-3-1.21-3.86-1.6-1.22-.52-2.33-1-3-1.3-2.21-1c-1.51-.65-3-1.32-4.52-2l-2.36-1.06-.46-.21-.68-.3-2.13-.95-1.65-.76-.69-.31-1.95-.9-2.3-1.07-2.54-1.21h0l-.42-.2-2-1h0c-2.09-1-4.16-2-6.24-3L636,1541c-2.13-1-4.24-2.12-6.35-3.19l-2-1-.85-.44c-2.49-1.28-5-2.57-7.43-3.88q-4.33-2.31-8.63-4.66c-2.86-1.58-5.72-3.17-8.55-4.78s-5.67-3.25-8.48-4.9-5.61-3.33-8.4-5l-.06,0-4.7-2.89-.94-.58-3.8-2.38c-1.47-.92-2.94-1.86-4.4-2.79l-1.87-1.21c-.64-.41-1.28-.82-1.92-1.25l-1.2-.78-.21-.13-3.68-2.42-1.36-.9-1.76-1.18-2.28-1.55-.83-.56-2.31-1.57c-1.28-.88-2.55-1.75-3.82-2.64l-1-.73-1.18-.83-.11-.07-.11-.07c-1.45-1-2.89-2-4.33-3.08l-.12-.08-4-2.91-.35-.26q-4.21-3.06-8.39-6.19l-.82-.62-2.34-1.77c-.61-.46-1.23-.93-1.84-1.41-.44-.32-.87-.65-1.31-1l-2.74-2.12-.39-.3-3.62-2.84-.73-.58-1.87-1.48-2.39-1.92-.09-.07-.06,0-.55-.45q-1.86-1.5-3.71-3l-4.29-3.54-1.18-1c-1-.86-2.06-1.72-3.08-2.59l-.64-.54-2.33-2-1.27-1.09q-2.12-1.82-4.2-3.64l-2.86-2.52-1-.88-.31-.28-2.72-2.42c-.48-.42-1-.85-1.42-1.29l-1.06-1-2.92-2.67-.13-.12c-.46-.41-.92-.83-1.37-1.26l-1.37-1.26-.72-.67c-.74-.69-1.48-1.37-2.21-2.07l-2.26-2.14-.2-.19a5,5,0,0,1-.41-.39l-2.85-2.73h0c-1.59-1.53-3.16-3-4.73-4.59q-2-2-3.95-3.91t-3.92-3.94q-3.93-3.94-7.75-8-1.92-2-3.82-4-5.73-6.07-11.28-12.29l-3.69-4.16-3.64-4.15,0,0c-1.21-1.41-2.42-2.81-3.62-4.22q-1.57-1.85-3.13-3.7l-.46-.55a675.9,675.9,0,0,1-114.59-196c-.08-.18-.14-.35-.2-.53-.44-1.14-.86-2.27-1.28-3.41,0-.1-.07-.19-.1-.28a675.54,675.54,0,0,1-41.63-234.23c0-1.68,0-3.36,0-5l0-3.15c0-1.12,0-2.24,0-3.35,0-1.92.07-3.84.12-5.75,0-.94.05-1.88.08-2.82,0-.57,0-1.15,0-1.72,0-1.4.09-2.79.14-4.19l.12-3c.07-1.6.14-3.2.22-4.79q.17-3.36.36-6.71c.1-1.73.21-3.45.33-5.17q.4-6.14.92-12.24c.14-1.65.29-3.3.44-4.94v0c.12-1.34.25-2.67.38-4,0-.14,0-.28,0-.41q.78-7.87,1.74-15.7c.13-1.07.26-2.15.4-3.22q.56-4.38,1.17-8.73c.12-.92.26-1.85.39-2.78l.57-3.86c.08-.5.15-1,.23-1.5.23-1.5.46-3,.7-4.48.26-1.67.54-3.34.82-5q1.32-7.9,2.82-15.73c.21-1.11.43-2.21.65-3.31s.46-2.36.71-3.54.52-2.6.8-3.89q1-5,2.15-9.92c.26-1.19.53-2.37.8-3.56.34-1.48.69-3,1-4.43q.59-2.49,1.2-5,2.68-11,5.73-21.78c.42-1.49.84-3,1.27-4.45q.87-3,1.77-6c.51-1.7,1-3.41,1.55-5.11s1.08-3.49,1.63-5.24q1.38-4.34,2.8-8.64,1.3-3.95,2.66-7.86c.49-1.43,1-2.85,1.49-4.27q.92-2.58,1.84-5.14t1.88-5.13q.92-2.47,1.85-4.93l.07-.18c.63-1.65,1.26-3.3,1.91-4.95l.12-.31c.63-1.63,1.28-3.27,1.93-4.89q2-5.07,4.12-10.08.95-2.28,1.91-4.54,2.35-5.52,4.8-11,1-2.2,2-4.39,2.25-4.93,4.58-9.83,1.17-2.44,2.35-4.88t2.38-4.86c.08-.15.15-.3.22-.45q1.1-2.21,2.21-4.39c.78-1.54,1.56-3.08,2.36-4.61q2.67-5.19,5.42-10.31l2-3.76q2.71-5,5.5-9.87,1.33-2.34,2.68-4.68"/><polygon class="cls-1" points="936.18 1611.06 936.18 934.28 936.18 934.28 936.18 1611.06 936.18 1611.06"/><polygon class="cls-1" points="936.19 1611.06 936.19 934.29 936.18 934.28 936.18 1611.06 936.19 1611.06"/><path class="cls-1" d="M351.1,596.49l-1-.58-.12,0q-1.35,2.34-2.68,4.68-2.79,4.9-5.5,9.87l-2,3.76q-2.75,5.13-5.42,10.31c-.8,1.53-1.58,3.07-2.36,4.61s-1.48,2.92-2.21,4.39c-.07.15-.14.3-.22.45q-1.2,2.41-2.38,4.86t-2.35,4.88q-2.32,4.89-4.58,9.83-1,2.19-2,4.39-2.44,5.46-4.8,11-1,2.26-1.91,4.54-2.1,5-4.12,10.08c-.65,1.62-1.3,3.26-1.93,4.89l-.12.31c-.65,1.65-1.28,3.3-1.91,4.95l-.07.18q-.93,2.46-1.85,4.93t-1.88,5.13q-.93,2.57-1.84,5.14c-.5,1.42-1,2.84-1.49,4.27q-1.35,3.91-2.66,7.86-1.43,4.3-2.8,8.64c-.55,1.75-1.1,3.49-1.63,5.24s-1,3.41-1.55,5.11q-.9,3-1.77,6c-.43,1.48-.85,3-1.27,4.45q-3,10.82-5.73,21.78-.62,2.48-1.2,5c-.35,1.47-.7,2.95-1,4.43-.27,1.19-.54,2.37-.8,3.56q-1.12,4.95-2.15,9.92c-.28,1.29-.54,2.59-.8,3.89s-.48,2.36-.71,3.54-.44,2.2-.65,3.31q-1.5,7.83-2.82,15.73c-.28,1.67-.56,3.34-.82,5-.24,1.49-.47,3-.7,4.48-.08.5-.15,1-.23,1.5l-.57,3.86c-.13.93-.27,1.86-.39,2.78q-.61,4.35-1.17,8.73c-.14,1.07-.27,2.15-.4,3.22q-1,7.81-1.74,15.7c0,.13,0,.27,0,.41-.13,1.34-.26,2.67-.38,4v0c-.15,1.64-.3,3.29-.44,4.94q-.51,6.11-.92,12.24c-.12,1.72-.23,3.44-.33,5.17q-.19,3.35-.36,6.71c-.08,1.59-.15,3.19-.22,4.79l-.12,3c-.05,1.4-.1,2.79-.14,4.19,0,.57,0,1.15,0,1.72,0,.94-.06,1.88-.08,2.82-.05,1.91-.09,3.83-.12,5.75,0,1.11,0,2.23,0,3.35l0,3.15c0,1.67,0,3.35,0,5a675.54,675.54,0,0,0,41.63,234.23c0,.09.07.18.1.28.42,1.14.84,2.27,1.28,3.41.06.18.12.35.2.53a675.9,675.9,0,0,0,114.59,196l.46.55q1.56,1.86,3.13,3.7c1.2,1.41,2.41,2.81,3.62,4.22l0,0,3.64,4.15,3.69,4.16q5.55,6.23,11.28,12.29,1.9,2,3.82,4,3.83,4,7.75,8,2,2,3.92,3.94t3.95,3.91c1.57,1.54,3.14,3.06,4.73,4.59h0l2.85,2.73a5,5,0,0,0,.41.39l.2.19,2.26,2.14c.73.7,1.47,1.38,2.21,2.07l.72.67,1.37,1.26c.45.43.91.85,1.37,1.26l.13.12,2.92,2.67,1.06,1c.47.44.94.87,1.42,1.29l2.72,2.42.31.28,1,.88,2.86,2.52q2.08,1.83,4.2,3.64l1.27,1.09,2.33,2,.64.54c1,.87,2.05,1.73,3.08,2.59l1.18,1,4.29,3.54q1.84,1.52,3.71,3l.55.45.06,0,.09.07,2.39,1.92,1.87,1.48.73.58,3.62,2.84.39.3,2.74,2.12c.44.34.87.67,1.31,1,.61.48,1.23,1,1.84,1.41l2.34,1.77.82.62q4.17,3.13,8.39,6.19l.35.26,4,2.91.12.08c1.44,1,2.88,2.06,4.33,3.08l.11.07.11.07,1.18.83,1,.73c1.27.89,2.54,1.76,3.82,2.64l2.31,1.57.83.56,2.28,1.55,1.76,1.18,1.36.9,3.68,2.42.21.13,1.2.78c.64.43,1.28.84,1.92,1.25l1.87,1.21c1.46.93,2.93,1.87,4.4,2.79l3.8,2.38.94.58,4.7,2.89.06,0q4.18,2.54,8.4,5t8.48,4.9c2.83,1.61,5.69,3.2,8.55,4.78s5.74,3.12,8.63,4.66c2.47,1.31,4.94,2.6,7.43,3.88l.85.44,2,1c2.11,1.07,4.22,2.14,6.35,3.19l2.41,1.19c2.08,1,4.15,2,6.24,3h0l2,1,.42.2h0l2.54,1.21,2.3,1.07,1.95.9.69.31,1.65.76,2.13.95.68.3.46.21,2.36,1.06c1.51.66,3,1.33,4.52,2l2.21,1,3,1.3,2.33,1,1.22.52,3.86,1.6,3,1.21,3.68,1.46,2.93,1.15.36.14.19.08c.91.36,1.81.73,2.72,1.08l3.86,1.48,4.21,1.58.46.17,1.66.62,3.26,1.19,1.57.56c.74.28,1.48.55,2.23.81l3.62,1.28c4.17,1.45,8.34,2.87,12.54,4.24l3,1c1.28.42,2.57.83,3.86,1.23q9.86,3.12,19.84,5.93,3.49,1,7,1.94l4.38,1.17q5.89,1.55,11.83,3h0q4,1,8,1.89c3.16.73,6.34,1.44,9.52,2.12l3,.64,4.13.86q4.47.92,9,1.77l3.47.65q10.46,1.93,21,3.55l4.08.61c1.4.21,2.81.41,4.21.6l4.21.58,4.38.57,3.67.46q5.72.69,11.46,1.29l3.5.35,4.16.4,2.88.26,2.58.22c1,.09,1.92.17,2.89.24q6.72.54,13.49,1l3.29.19,4.21.22,4.22.2,3.55.14c1.45.06,2.89.11,4.34.15s3.2.1,4.8.14c1.42,0,2.83.07,4.25.09l1.73,0c2,0,4.07.06,6.11.07l4.92,0V934.28l-450-259.82Z"/><path class="cls-7" d="M706.9,1571.22q-26.67-9.6-52.28-21.34-17.91-8.2-35.24-17.41t-34.06-19.36l-.06,0-4.7-2.89-.94-.58-3.8-2.38-4.71-3-4.68-3-4.66-3.07q-2.32-1.55-4.63-3.11l-.83-.56q-1.89-1.28-3.77-2.59-2.29-1.57-4.58-3.18t-4.55-3.22l-.12-.08-4-2.91-.35-.26q-4.21-3.08-8.39-6.19l-.82-.62q-2.1-1.58-4.18-3.18-4.07-3.09-8.06-6.25l-.73-.58q-2.15-1.7-4.26-3.4l-.09-.07-.06,0-.55-.45q-1.86-1.5-3.71-3l-4.29-3.54-1.18-1c-1-.86-2.06-1.72-3.08-2.59l-.64-.54-2.33-2-1.27-1.09q-2.12-1.82-4.2-3.64l-2.86-2.52-1-.88-.31-.28-4.14-3.71-4-3.62-.13-.12-4.08-3.78q-1.94-1.8-3.85-3.62l-.2-.19-.41-.39-2.85-2.73q-2.39-2.28-4.74-4.59-7.94-7.79-15.62-15.82-1.92-2-3.82-4-5.71-6.07-11.28-12.29l-3.69-4.16-3.64-4.15,0,0c-1.21-1.41-2.42-2.81-3.62-4.22q-1.57-1.85-3.13-3.7l-.46-.55c30.84-12.41,56.51-15.88,121.92-16.87,73.24-1.11,118.35,20.69,137.67,32.81a89.68,89.68,0,0,1,11,7.82Z"/><path class="cls-8" d="M936.19,1368.81v242.25l-4.93,0c-2,0-4.08,0-6.11-.07l-1.73,0c-1.42,0-2.83,0-4.25-.09-1.6,0-3.2-.08-4.8-.14s-2.89-.09-4.34-.15l-3.55-.14-4.22-.2-4.21-.22-3.29-.19q-6.76-.4-13.49-1c-1-.07-1.93-.15-2.89-.24l-2.58-.22-2.88-.26-4.16-.4-3.5-.35q-5.75-.6-11.46-1.29l-3.67-.46-4.38-.57-4.21-.58c-1.4-.19-2.81-.39-4.21-.6l-4.08-.61q-10.56-1.6-21-3.55l-3.47-.65q-4.49-.86-9-1.77l-4.13-.86-3-.64c-3.18-.68-6.36-1.39-9.52-2.12q-4-.93-8-1.89h0q-5.94-1.44-11.83-3l-4.38-1.17q-3.51-.94-7-1.94-10-2.82-19.84-5.93c-1.29-.4-2.58-.81-3.86-1.23l-3-1c-4.2-1.37-8.37-2.79-12.54-4.24l-3.62-1.28c-.75-.26-1.49-.53-2.23-.81l-1.57-.56-3.26-1.19-1.66-.62-.46-.17-4.21-1.58-3.86-1.48c-1-.37-1.94-.77-2.91-1.16l-.36-.14-2.93-1.15-3.68-1.46-3-1.21-3.86-1.6-1.22-.52-2.33-1-3-1.3-2.21-1c-1.51-.65-3-1.32-4.52-2l-2.36-1.06-.46-.21-2.81-1.25-1.65-.76-.69-.31-1.95-.9-2.3-1.07-2.56-1.22-.42-.2-2-1h0c-2.09-1-4.16-2-6.24-3L636,1541c-2.13-1-4.24-2.12-6.35-3.19l-2-1-.85-.44c-2.49-1.28-5-2.57-7.43-3.88q-4.33-2.31-8.63-4.66c-2.86-1.58-5.72-3.17-8.55-4.78s-5.67-3.25-8.48-4.9-5.61-3.33-8.4-5l-.06,0-4.7-2.89-.94-.58-3.8-2.38c-1.47-.92-2.94-1.86-4.4-2.79l-.31-.21-1.56-1c-.64-.41-1.28-.82-1.92-1.25l-1.2-.78-.21-.13-3.68-2.42-.77-.52-.59-.38-1.76-1.18-2.28-1.55-.83-.56-2.31-1.57-1.46-1c-.79-.53-1.57-1.07-2.36-1.62l-1-.73-1.18-.83-.11-.07-.11-.07c-1.45-1-2.89-2-4.33-3.08l-.12-.08-4-2.91-.35-.26q-4.21-3.06-8.39-6.19l-.82-.62-2.34-1.77c-.61-.46-1.23-.93-1.84-1.41-.44-.32-.87-.65-1.31-1l-2.74-2.12-.39-.3-3.62-2.84-.73-.58-1.87-1.48-2.39-1.92-.09-.07-.06,0-.55-.45q-1.86-1.5-3.71-3l-4.29-3.54-1.18-1c-1-.86-2.06-1.72-3.08-2.59l-.64-.54-2.33-2-1.27-1.09q-2.12-1.82-4.2-3.64l-2.86-2.52-1-.88-.31-.28-2.72-2.42c-.48-.42-1-.85-1.42-1.29l-1.06-1-2.92-2.67-.13-.12c-.92-.83-1.83-1.68-2.74-2.52l-.72-.67-.62-.59-1.59-1.48-2.26-2.14-.2-.19a5,5,0,0,1-.41-.39c-1-.9-1.9-1.8-2.85-2.73,64.65-15.84,135-28.56,209.57-37.6A2231.39,2231.39,0,0,1,936.19,1368.81Z"/><path class="cls-5" d="M936.19,934.29v676.77l-4.93,0c-2,0-4.08,0-6.11-.07l-1.73,0c-1.42,0-2.83,0-4.25-.09-1.6,0-3.2-.08-4.8-.14s-2.89-.09-4.34-.15l-3.55-.14-4.22-.2-4.21-.22-3.29-.19q-6.76-.4-13.49-1c-1-.07-1.93-.15-2.89-.24l-2.58-.22-2.88-.26-4.16-.4-3.5-.35q-5.75-.6-11.46-1.29l-3.67-.46-4.38-.57-4.21-.58c-1.4-.19-2.81-.39-4.21-.6l-4.08-.61q-10.56-1.6-21-3.55l-3.47-.65q-4.49-.86-9-1.77l-4.13-.86-3-.64c-3.18-.68-6.36-1.39-9.52-2.12q-4-.93-8-1.89h0q-5.94-1.44-11.83-3l-4.38-1.17q-3.51-.94-7-1.94-10-2.82-19.84-5.93c-1.29-.4-2.58-.81-3.86-1.23l-3-1c-4.2-1.37-8.37-2.79-12.54-4.24l-3.62-1.28c-.75-.26-1.49-.53-2.23-.81l-1.57-.56-3.26-1.19-1.66-.62-.46-.17-4.21-1.58-3.86-1.48c-.91-.35-1.81-.72-2.72-1.08l-.19-.08-.36-.14-2.93-1.15-3.68-1.46-3-1.21-3.86-1.6-1.22-.52-2.33-1-3-1.3-2.21-1c-1.51-.65-3-1.32-4.52-2l-2.36-1.06-.46-.21-.68-.3-2.13-.95-1.65-.76-.69-.31-1.95-.9-2.3-1.07-2.54-1.21h0l-.42-.2-2-1h0c-2.09-1-4.16-2-6.24-3L636,1541c-2.13-1-4.24-2.12-6.35-3.19l-2-1-.85-.44c-2.49-1.28-5-2.57-7.43-3.88q-4.33-2.31-8.63-4.66c-2.86-1.58-5.72-3.17-8.55-4.78s-5.67-3.25-8.48-4.9-5.61-3.33-8.4-5l-.06,0-4.7-2.89-.94-.58-3.8-2.38c-1.47-.92-2.94-1.86-4.4-2.79l-1.87-1.21c-.64-.41-1.28-.82-1.92-1.25l-1.2-.78-.21-.13-3.68-2.42-1.36-.9-1.76-1.18-2.28-1.55-.83-.56-2.31-1.57c-1.28-.88-2.55-1.75-3.82-2.64l-1-.73-1.18-.83-.11-.07-.11-.07c-1.45-1-2.89-2-4.33-3.08l-.12-.08-4-2.91-.35-.26q-4.21-3.06-8.39-6.19l-.82-.62-2.34-1.77c-.61-.46-1.23-.93-1.84-1.41-.44-.32-.87-.65-1.31-1l-2.74-2.12-.39-.3-3.62-2.84-.73-.58-1.87-1.48-2.39-1.92-.09-.07-.06,0-.55-.45q-1.86-1.5-3.71-3l-4.29-3.54-1.18-1c-1-.86-2.06-1.72-3.08-2.59l-.64-.54-2.33-2-1.27-1.09q-2.12-1.82-4.2-3.64l-2.86-2.52-1-.88-.31-.28-2.72-2.42c-.48-.42-1-.85-1.42-1.29l-1.06-1-2.92-2.67-.13-.12c-.46-.41-.92-.83-1.37-1.26l-1.37-1.26-.72-.67c-.74-.69-1.48-1.37-2.21-2.07l-2.26-2.14-.2-.19a5,5,0,0,1-.41-.39l-2.85-2.73h0c-1.59-1.53-3.16-3-4.73-4.59q-2-2-3.95-3.91t-3.92-3.94q-3.93-3.94-7.75-8-1.92-2-3.82-4-5.73-6.07-11.28-12.29l-3.69-4.16-3.64-4.15,0,0c-1.21-1.41-2.42-2.81-3.62-4.22q-1.57-1.85-3.13-3.7l-.46-.55a675.9,675.9,0,0,1-114.59-196l-1,.73-.2-.53,1-.73.8-.59-2.08-2.82-.57-.77-.32-.44-.82.6A675.81,675.81,0,0,1,259.1,937.46a683.61,683.61,0,0,1,3.58-70c0-.14,0-.28,0-.41A672.69,672.69,0,0,1,351.1,596.49l135,78Z"/><path class="cls-5" d="M1610.08,871.44c-.12-1.25-.23-2.51-.36-3.76.06.57.11,1.13.17,1.69S1610,870.75,1610.08,871.44Z"/><path class="cls-2" d="M1573.5,1166.61q-.86,2.39-1.72,4.74l-1-.49,2.27-4.45Z"/><path class="cls-2" d="M303.62,1172l-1,.73-1,.73-.2-.53c-.53-1.44-1.07-2.9-1.6-4.36l.75-.55.07,0,.4.54Z"/><g id="Group_3322" data-name="Group 3322"><g id="Truck"><g id="Group_3300" data-name="Group 3300"><path id="Path_14120" data-name="Path 14120" class="cls-9" d="M747.91,1395a22.39,22.39,0,1,0,22.52,22.39A22.38,22.38,0,0,0,747.91,1395Z"/><path id="Path_14121" data-name="Path 14121" class="cls-10" d="M747.89,1403.66a13.69,13.69,0,1,0,13.76,13.69A13.7,13.7,0,0,0,747.89,1403.66Z"/><path id="Path_14122" data-name="Path 14122" class="cls-9" d="M747.91,1413a4.39,4.39,0,1,0,4.41,4.39,4.38,4.38,0,0,0-4.41-4.39Z"/><path id="Path_14123" data-name="Path 14123" class="cls-11" d="M516.46,1380.09l3-3.78a16.89,16.89,0,0,0,3.11-6.33L539,1305.12a8.41,8.41,0,0,1,8.33-6.36h42.48l1,117H521.9a5.07,5.07,0,0,1-4.94-4.53l-2.28-25A8.72,8.72,0,0,1,516.46,1380.09Z"/><path id="Path_14124" data-name="Path 14124" class="cls-12" d="M572.68,1355l-3.63-39.71a3,3,0,0,0-2.89-2.64H542.22a2.36,2.36,0,0,0-2.35,1.85l-11.93,53.75a2.89,2.89,0,0,0,2.33,3.37,2.75,2.75,0,0,0,1,0l34.06-6.63a9.1,9.1,0,0,0,7.36-10Z"/><path id="Path_14125" data-name="Path 14125" class="cls-13" d="M521.34,1408.14h-4.67l-.43-4.75h4.66Z"/><path id="Path_14126" data-name="Path 14126" class="cls-13" d="M519.73,1381.46l-.23,1.86a18.45,18.45,0,0,0-.07,4l.8,8.75a1,1,0,0,1-.89,1.12h-3.67l-1-10.88a8.77,8.77,0,0,1,1.79-6.23h2a1.25,1.25,0,0,1,1.23,1.27v.1Z"/><path id="Path_14127" data-name="Path 14127" class="cls-13" d="M589.9,1312.4v.53H537l.11-.52Z"/><path id="Path_14128" data-name="Path 14128" class="cls-13" d="M574.6,1415.81l-.58-5c-1.21-10.41-12.95-18.84-26.22-18.84s-23,8.43-21.82,18.84l.58,5Z"/><path id="Path_14129" data-name="Path 14129" class="cls-13" d="M571.29,1372.2h-9.64l-.16-1.8h9.64Z"/><path id="Path_14130" data-name="Path 14130" class="cls-13" d="M535.9,1372.47h-4.24a1.27,1.27,0,0,1-1.24-1.13L529,1356.15a1,1,0,0,1,.89-1.13h4.39a1.27,1.27,0,0,1,1.23,1.14l1.39,15.19a1,1,0,0,1-.89,1.12Z"/><path id="Path_14131" data-name="Path 14131" class="cls-9" d="M550.24,1395.64a21.92,21.92,0,1,0,22,21.92,21.92,21.92,0,0,0-22-21.92Z"/><path id="Path_14132" data-name="Path 14132" class="cls-10" d="M550.22,1404.16a13.4,13.4,0,1,0,13.48,13.4A13.39,13.39,0,0,0,550.22,1404.16Z"/><path id="Path_14133" data-name="Path 14133" class="cls-9" d="M550.24,1413.26a4.3,4.3,0,1,0,4.32,4.3A4.31,4.31,0,0,0,550.24,1413.26Z"/><path id="Path_14134" data-name="Path 14134" class="cls-14" d="M750.07,1274.1h66v144h-66Z"/><path id="Path_14135" data-name="Path 14135" class="cls-15" d="M756.66,1281.32h52.86V1410H756.66Z"/><path id="Path_14136" data-name="Path 14136" class="cls-14" d="M757.26,1291.44h52.26v1.7H757.26Z"/><path id="Path_14137" data-name="Path 14137" class="cls-14" d="M757.06,1360.39h52.26v1.7H757.06Z"/><path id="Path_14138" data-name="Path 14138" class="cls-14" d="M756.86,1326.39h52.26v1.7H756.86Z"/><path id="Path_14139" data-name="Path 14139" class="cls-14" d="M756.66,1395.34h52.26v1.7H756.66Z"/><path id="Path_14140" data-name="Path 14140" class="cls-14" d="M757.26,1308.54h52.26v1.7H757.26Z"/><path id="Path_14141" data-name="Path 14141" class="cls-14" d="M757.06,1377.49h52.26v1.7H757.06Z"/><path id="Path_14142" data-name="Path 14142" class="cls-14" d="M756.86,1343.48h52.26v1.7H756.86Z"/><path id="Path_14143" data-name="Path 14143" class="cls-14" d="M589.32,1274.1H757.26v144H589.32Z"/><path id="Path_14144" data-name="Path 14144" class="cls-16" d="M595,1278.41h155V1409.1H595Z"/><path id="Path_14145" data-name="Path 14145" class="cls-17" d="M677.28,1313a24.34,24.34,0,1,0,24.34,24.34h0A24.35,24.35,0,0,0,677.28,1313Z"/><path id="Path_14146" data-name="Path 14146" class="cls-13" d="M721.64,1418.12l-.62-5.48c-1.3-11.42-13.85-20.67-28-20.67s-24.62,9.25-23.33,20.67l.63,5.48Z"/><path id="Path_14147" data-name="Path 14147" class="cls-9" d="M695,1396.53a22.39,22.39,0,1,0,22.52,22.38A22.39,22.39,0,0,0,695,1396.53Z"/><path id="Path_14148" data-name="Path 14148" class="cls-10" d="M694.93,1405.23a13.69,13.69,0,1,0,13.77,13.68,13.68,13.68,0,0,0-13.77-13.68Z"/><path id="Path_14149" data-name="Path 14149" class="cls-18" d="M695,1414.53a4.39,4.39,0,1,0,4.42,4.39,4.39,4.39,0,0,0-4.42-4.39Z"/><path id="Path_14150" data-name="Path 14150" class="cls-2" d="M710.13,1415.81h-3.08V1426h-4v-10.14H700l5.08-6.32Z"/><g id="Group_3295" data-name="Group 3295"><rect id="Rectangle_1925" data-name="Rectangle 1925" class="cls-13" x="674.37" y="1322.81" width="5.82" height="29.11"/><rect id="Rectangle_1926" data-name="Rectangle 1926" class="cls-13" x="662.73" y="1334.46" width="29.11" height="5.82"/></g><g id="Group_3299" data-name="Group 3299"><g id="Group_3296" data-name="Group 3296"><path id="Path_14152" data-name="Path 14152" class="cls-1" d="M677.52,1372.65a35.68,35.68,0,0,1-34.78-28.2,1,1,0,0,1,2-.43v0a33.56,33.56,0,1,0,15.23-35.5,1,1,0,0,1-1.37-.38,1,1,0,0,1,.32-1.32,35.55,35.55,0,1,1,18.65,65.81Z"/></g><g id="Group_3298" data-name="Group 3298"><g id="Group_3297" data-name="Group 3297"><path id="Path_14153" data-name="Path 14153" class="cls-1" d="M649,1345.05l-6-8-3.88,9.18Z"/></g></g></g></g></g><g id="Boxes_back" data-name="Boxes back"><g id="Group_3301" data-name="Group 3301"><path id="Path_14154" data-name="Path 14154" class="cls-19" d="M803.46,1366.55h-27.4v30.35h27.4v-30.35Z"/><path id="Path_14155" data-name="Path 14155" class="cls-20" d="M817.62,1366.55H803.46v30.35h14.16v-30.35Z"/><path id="Path_14156" data-name="Path 14156" class="cls-12" d="M810.62,1381.66l-3.07-6.53q-1.53-3.26-3.11-6.49c1,2.2,2,4.4,3,6.59l3,6.56,3.07,6.52c1,2.18,2.07,4.34,3.12,6.5-1-2.2-2-4.4-3-6.59l-3-6.56Z"/><path id="Path_14157" data-name="Path 14157" class="cls-12" d="M810.45,1381.66l-3,6.56c-1,2.19-2,4.38-3,6.59q1.57-3.24,3.11-6.5l3.07-6.53,3-6.55c1-2.19,2-4.39,3-6.59q-1.57,3.24-3.12,6.49l-3.07,6.53Z"/></g><g id="Group_3303" data-name="Group 3303"><path id="Path_14158" data-name="Path 14158" class="cls-21" d="M809.27,1394.66H780.34v32h28.93v-32Z"/><path id="Path_14159" data-name="Path 14159" class="cls-22" d="M824.21,1394.67H809.27v32h14.94v-32Z"/><path id="Path_14160" data-name="Path 14160" class="cls-23" d="M816.83,1410.61l-3.24-6.89q-1.62-3.43-3.29-6.85,1.56,3.48,3.15,7l3.2,6.92,3.24,6.89c1.09,2.3,2.18,4.58,3.29,6.86-1-2.33-2.09-4.64-3.15-7l-3.2-6.92Z"/><path id="Path_14161" data-name="Path 14161" class="cls-23" d="M816.65,1410.61l-3.2,6.92c-1.06,2.32-2.11,4.63-3.15,7,1.11-2.28,2.2-4.56,3.29-6.86l3.24-6.89,3.2-6.92q1.59-3.46,3.15-7-1.65,3.42-3.29,6.85l-3.24,6.89Z"/><g id="Group_3302" data-name="Group 3302"><rect id="Rectangle_1927" data-name="Rectangle 1927" class="cls-6" x="793.68" y="1405.03" width="2.26" height="11.31"/><rect id="Rectangle_1928" data-name="Rectangle 1928" class="cls-6" x="789.16" y="1409.55" width="11.31" height="2.26"/></g></g><g id="Group_3305" data-name="Group 3305"><path id="Path_14162" data-name="Path 14162" class="cls-21" d="M806,1336.64H778.54V1367H806v-30.35Z"/><path id="Path_14163" data-name="Path 14163" class="cls-22" d="M820.1,1336.64H806V1367H820.1v-30.35Z"/><path id="Path_14164" data-name="Path 14164" class="cls-23" d="M813.11,1351.76l-3.07-6.53q-1.54-3.26-3.11-6.5c1,2.2,2,4.4,3,6.59l3,6.56,3.07,6.53q1.54,3.25,3.12,6.5c-1-2.21-2-4.4-3-6.59l-3-6.56Z"/><path id="Path_14165" data-name="Path 14165" class="cls-23" d="M812.94,1351.76l-3,6.55c-1,2.19-2,4.39-3,6.59q1.56-3.23,3.11-6.5l3.07-6.52,3-6.56c1-2.19,2-4.39,3-6.59q-1.57,3.24-3.12,6.49l-3.07,6.53Z"/><g id="Group_3304" data-name="Group 3304"><rect id="Rectangle_1929" data-name="Rectangle 1929" class="cls-6" x="791.12" y="1346.16" width="2.26" height="11.31"/><rect id="Rectangle_1930" data-name="Rectangle 1930" class="cls-6" x="786.59" y="1350.69" width="11.31" height="2.26"/></g></g><g id="Group_3308" data-name="Group 3308"><path id="Path_14166" data-name="Path 14166" class="cls-20" d="M785.34,1431.09a4.27,4.27,0,1,1-4.27,4.27h0A4.27,4.27,0,0,1,785.34,1431.09Zm0,2.13a2.14,2.14,0,1,1-2.13,2.14h0A2.13,2.13,0,0,1,785.34,1433.22Z"/><path id="Path_14167" data-name="Path 14167" class="cls-20" d="M824.09,1431.09a4.27,4.27,0,1,1-4.27,4.27h0A4.27,4.27,0,0,1,824.09,1431.09Zm0,2.13a2.14,2.14,0,1,1-2.14,2.14h0A2.14,2.14,0,0,1,824.09,1433.22Z"/><path id="Path_14168" data-name="Path 14168" class="cls-21" d="M786.75,1428.09H784v6.64a1.39,1.39,0,0,0,1.39,1.39h0a1.4,1.4,0,0,0,1.4-1.39h0Z"/><path id="Path_14169" data-name="Path 14169" class="cls-21" d="M825.49,1428.09H822.7v6.64a1.39,1.39,0,0,0,1.39,1.39h0a1.4,1.4,0,0,0,1.4-1.39h0Z"/><g id="Group_3307" data-name="Group 3307"><g id="Group_3306" data-name="Group 3306"><path id="Path_14170" data-name="Path 14170" class="cls-6" d="M825.75,1428l-5.65-.74,10.13-78a7.89,7.89,0,0,1,7.69-6.83l9.92-.11.06,5.7-9.92.11a2.16,2.16,0,0,0-2.1,1.86Z"/></g><path id="Path_14171" data-name="Path 14171" class="cls-20" d="M831.66,1425.64H778.45v4.11h53.21v-4.11Z"/></g></g></g><g id="Leg_back" data-name="Leg back"><g id="Group_3309" data-name="Group 3309"><path id="Path_14172" data-name="Path 14172" class="cls-6" d="M899.27,1429l-.65,3.39-11.39,4.46a2.9,2.9,0,0,0-1.94,3.11h24.78l-2.43-11h-8.37Z"/><path id="Path_14173" data-name="Path 14173" class="cls-13" d="M883.34,1396c1.27,5.28,10.42,24,12.24,34.22,5.62.66,7.75.4,15,.66-2.16-10.87-9.39-35-10.15-37.34-1.26-3.92-3.51-28.51-4-35.18-11.19-2.53-21.16.87-28.17-.78,2.48,12.94,12.16,26.38,15.07,38.42"/></g></g><g id="hand_back" data-name="hand back"><g id="Group_3310" data-name="Group 3310"><path id="Path_14175" data-name="Path 14175" class="cls-24" d="M868.43,1338.5c-.84.75-1.68,1.51-2.59,2.26-.45.37-.92.75-1.42,1.13a20.18,20.18,0,0,1-1.73,1.17l-.56.32-.38.19-.33.15a10.34,10.34,0,0,1-1.07.36c-.64.19-1.21.31-1.77.42-1.11.22-2.17.38-3.22.53s-2.09.26-3.13.37c-4.14.42-8.22.7-12.34.87a2.93,2.93,0,0,1-2.89-2.57,3.18,3.18,0,0,1,2.23-3.74h0l3-.65,3-.68c2-.45,3.94-.92,5.88-1.42,1-.25,1.94-.5,2.88-.77s1.88-.55,2.75-.85c.42-.16.84-.31,1.17-.47a1.9,1.9,0,0,0,.37-.2l0,0h0l.1-.1c.19-.17.49-.45.79-.76s.63-.65.95-1c.65-.71,1.31-1.49,2-2.28s1.31-1.61,2-2.44Z"/><path id="Path_14176" data-name="Path 14176" class="cls-24" d="M834.58,1347.82a16.72,16.72,0,0,1-5.46,2.2c-2.8.39-2.13-1.59-1.72-1.8a10.47,10.47,0,0,1-1.12,0c-.83,0-1.3-1.79-.12-2-1.72,0-2.57-2.17-.67-2.45-1.42.07-1-2,0-2.21-.32-.12-.25-.72,0-1s.61-.27.89-.47c.46-.32.64-1,1-1.45a2.21,2.21,0,0,1,2.12-.56,23,23,0,0,1,4.82,1.83c1.6.65,2.49.32,5.23-.06,0,2.16.75,5.51.76,6.36a14.07,14.07,0,0,0-5.75,1.57"/></g></g><g id="body"><path id="Path_14177" data-name="Path 14177" class="cls-25" d="M882.31,1295s-4.27,16.76-3.49,22.14a21.94,21.94,0,0,1-11.15-2.23s6.39-13.77,6.37-17.22l8.27-2.69Z"/><path id="Path_14178" data-name="Path 14178" class="cls-13" d="M872,1304.77a6.62,6.62,0,0,0,3.92-1s-1.18,3.61-4.78,3.11l.86-2.14Z"/><path id="Path_14179" data-name="Path 14179" class="cls-11" d="M894,1357.78c-.13-3.52.46-3.84.18-5.12-2.75-12.68,2.29-20.86-2.88-35.18-1.32-3.64-4.53-9.08-9.08-10.52-6.69-2.11-17.77,10.08-18.19,17.57-.21,3.81-2.37,17.11,2.66,21.53,1.95,1.72,8.31,2,4.54,11.58,0,0,6.13,5.37,10.19,4.88S894,1357.78,894,1357.78Z"/><path id="Path_14180" data-name="Path 14180" class="cls-26" d="M880.77,1305.18l.87,1.61s-11.09,3.54-14.42,10.41c0,0-1.06-3.74,3.49-8.33,1.7-1.71,6.14-3.46,8.3-4.25a1.45,1.45,0,0,1,1.76.56"/><path id="Path_14181" data-name="Path 14181" class="cls-13" d="M868.27,1357.92c-.6-7.57-3.07-12.55-4.87-26.2a25.24,25.24,0,0,0,8.54-1.17c-.15,5.73-3.1,22.55,10.1,22.89,9.38.24,6.83-7.34,6.79-17.75.54-.06,3.89,0,5,0,1.8,11.62,3.65,14.41,3.62,20.88a26.58,26.58,0,0,1-1.24,7.82s-4.43,3.11-14.67,1.92S868.28,1358,868.27,1357.92Z"/><path id="Path_14182" data-name="Path 14182" class="cls-13" d="M892.42,1337.71c.25-8.92-1.78-27.57-11.74-27.08-12.42.62-13.09,11.9-12.71,21.69l2.29-.32c-.37-9.45,1.1-18.76,9.89-19.65,9.86-1,9.58,18.42,9.06,25.63l3.21-.27Z"/></g><g id="head"><g id="Group_3311" data-name="Group 3311"><path id="Path_14183" data-name="Path 14183" class="cls-27" d="M864.58,1290.48s.42-14.44,15-8.46c0,0-9,9.26-15,8.46"/><path id="Path_14184" data-name="Path 14184" class="cls-12" d="M882.19,1295.71c-1.22,6.06-6.24,10.17-11.22,9.17s-8-6.72-6.82-12.78,6.23-10.16,11.22-9.16,8,6.72,6.82,12.77"/><path id="Path_14185" data-name="Path 14185" class="cls-23" d="M865.59,1288.18a40,40,0,0,0,10.69,2.33,6.84,6.84,0,0,1,.42,4.73c-1.6,4.31,4.27,5.49,4.27,5.49s5.58-8.5,4.46-13.19c-.76-3.19-4.23-5-7.33-6.12-2.34-.83-6.46-.93-8.47.53a13.16,13.16,0,0,0-4,6.23"/><path id="Path_14186" data-name="Path 14186" class="cls-28" d="M879.45,1295.82a2,2,0,1,1-1.58-2.37,2,2,0,0,1,1.58,2.37h0"/><path id="Path_14187" data-name="Path 14187" class="cls-6" d="M867.58,1282.32,883,1297.63s8.58-7.08.75-14.85c-9.61-9.54-16.2-.46-16.2-.46"/><path id="Path_14188" data-name="Path 14188" class="cls-6" d="M875.49,1290.16l-9.27-.55A10.3,10.3,0,0,1,859,1286l-3.28-3.86,11.89.17,7.91,7.84Z"/></g></g><g id="Leg_front" data-name="Leg front"><g id="Group_3312" data-name="Group 3312"><path id="Path_14189" data-name="Path 14189" class="cls-6" d="M861,1429.69l-1.14,3.3-12.29,4.36a3.32,3.32,0,0,0-2.41,3h25.38l-1-10.7Z"/><path id="Path_14190" data-name="Path 14190" class="cls-13" d="M857.83,1392.81c.68-7.16,10.07-30.31,10.43-34.54,0,0,4.32-2.63,13.26-1.74s14.7,7.83,14.7,7.83c-4.32,14-18.65,24.23-20.31,30.94-.37,1.48-3.9,19.1-1.66,35.65-5.64-.34-11.65-.31-16.43-.32a185.28,185.28,0,0,1,0-37.82"/></g></g><g id="hand_front" data-name="hand front"><g id="Group_3313" data-name="Group 3313"><path id="Path_14191" data-name="Path 14191" class="cls-12" d="M876.77,1316.56l-1,1.25-1,1.26-2,2.52c-1.35,1.66-2.7,3.33-4.06,5s-2.73,3.26-4.1,4.85c-.69.79-1.38,1.56-2.08,2.32s-1.38,1.49-2.06,2.17c-.34.34-.68.67-1,1s-.62.55-.82.71l-.1.1h0l0,0a2.64,2.64,0,0,1-.38.18c-.34.14-.76.27-1.2.4-.87.26-1.82.48-2.77.7s-1.94.42-2.92.61q-2.94.59-5.93,1.09l-3,.51-3,.48h0a3.14,3.14,0,0,0-2.4,3.61,3,3,0,0,0,2.77,2.73c4.13.06,8.21,0,12.37-.18,1,0,2.08-.11,3.14-.2s2.12-.18,3.24-.34c.57-.08,1.14-.17,1.79-.32a10.87,10.87,0,0,0,1.08-.3l.33-.12.39-.17.58-.29a19.9,19.9,0,0,0,1.77-1.08c.52-.35,1-.7,1.48-1,.93-.7,1.82-1.4,2.68-2.11s1.71-1.42,2.54-2.15c1.67-1.43,3.29-2.9,4.89-4.38s3.19-3,4.75-4.49l2.34-2.28,1.17-1.15,1.17-1.17a7.48,7.48,0,0,0,.51-9.71,5.67,5.67,0,0,0-7.92-1.21,6.22,6.22,0,0,0-.73.63,6.91,6.91,0,0,0-.51.57l0,.06Z"/><path id="Path_14192" data-name="Path 14192" class="cls-13" d="M874.51,1337.61c-2.86-4-9.23-12.73-9.24-12.75,4.39-4.53,14.45-16.15,20.84-8.42C893.54,1325.43,874.51,1337.61,874.51,1337.61Z"/><path id="Path_14193" data-name="Path 14193" class="cls-12" d="M833.94,1349.24a18.71,18.71,0,0,1-6,1.88c-3,.22-2.21-1.72-1.76-1.9a11.91,11.91,0,0,1-1.2,0c-.9-.05-1.32-1.87,0-2-1.85-.1-2.67-2.32-.61-2.49-1.53,0-.93-2.1.09-2.21-.33-.13-.24-.73.06-1a7.81,7.81,0,0,1,1-.42c.5-.3.73-1,1.16-1.39a2.48,2.48,0,0,1,2.3-.43,26.11,26.11,0,0,1,5.1,2.11c1.69.74,2.67.47,5.64.25-.15,2.15.54,5.54.52,6.4a15.81,15.81,0,0,0-6.26,1.23"/></g></g><g id="Boxes_Front" data-name="Boxes Front"><g id="Group_3315" data-name="Group 3315"><path id="Path_14194" data-name="Path 14194" class="cls-21" d="M573,1408.29h57.91v31.48H573Z"/><path id="Path_14195" data-name="Path 14195" class="cls-20" d="M576.35,1408.29H625.9v29.9H576.35Z"/><g id="Group_3314" data-name="Group 3314"><rect id="Rectangle_1931" data-name="Rectangle 1931" class="cls-23" x="600" y="1417.58" width="2.26" height="11.31"/><rect id="Rectangle_1932" data-name="Rectangle 1932" class="cls-23" x="595.47" y="1422.11" width="11.31" height="2.26"/></g></g><g id="Group_3317" data-name="Group 3317"><path id="Path_14196" data-name="Path 14196" class="cls-21" d="M582.07,1376.88H640v31.48h-57.9Z"/><path id="Path_14197" data-name="Path 14197" class="cls-20" d="M585.45,1376.88H635v29.9H585.45Z"/><g id="Group_3316" data-name="Group 3316"><rect id="Rectangle_1933" data-name="Rectangle 1933" class="cls-23" x="609.1" y="1386.18" width="2.26" height="11.31"/><rect id="Rectangle_1934" data-name="Rectangle 1934" class="cls-23" x="604.58" y="1390.7" width="11.31" height="2.26"/></g></g><g id="Group_3319" data-name="Group 3319"><path id="Path_14198" data-name="Path 14198" class="cls-20" d="M684.7,1388.71H635.5v50.86h49.2Z"/><g id="Group_3318" data-name="Group 3318"><rect id="Rectangle_1935" data-name="Rectangle 1935" class="cls-23" x="658.97" y="1408.49" width="2.26" height="11.31"/><rect id="Rectangle_1936" data-name="Rectangle 1936" class="cls-23" x="654.45" y="1413.01" width="11.31" height="2.26"/></g></g><g id="Group_3321" data-name="Group 3321"><path id="Path_14199" data-name="Path 14199" class="cls-20" d="M689.2,1391.78h46.22v47.79H689.2Z"/><g id="Group_3320" data-name="Group 3320"><rect id="Rectangle_1937" data-name="Rectangle 1937" class="cls-23" x="710.22" y="1408.53" width="2.26" height="11.31"/><rect id="Rectangle_1938" data-name="Rectangle 1938" class="cls-23" x="705.7" y="1413.06" width="11.31" height="2.26"/></g></g></g></g></svg>