<svg xmlns="http://www.w3.org/2000/svg" xmlns:xlink="http://www.w3.org/1999/xlink" id="Layer_2" data-name="Layer 2" viewBox="1122.53 871.35 797.6 1110.29"><defs><style>.cls-1{fill:none;}.cls-2{fill:#336949;}.cls-3{fill:#fff;}.cls-4{clip-path:url(#clip-path);}.cls-5{fill:#395280;}.cls-6{fill:#36507e;}.cls-7{fill:#a3afc3;}.cls-8{fill:#1a5632;}.cls-9{fill:#4d7c60;}.cls-10{fill:#00205c;}.cls-11{fill:#1b386d;}.cls-12{fill:#8897b2;}.cls-13{fill:#bfc6d5;}.cls-14{fill:#526790;}.cls-15{fill:url(#linear-gradient);}.cls-16{clip-path:url(#clip-path-2);}.cls-17{fill:#80a18d;}.cls-18{opacity:0.4;}.cls-19{fill:#668e76;}.cls-20{fill:#ccc;}.cls-21{fill:#4db259;}.cls-22{fill:#a5bcaf;}.cls-23{fill:#66c2eb;}</style><clipPath id="clip-path"><path class="cls-1" d="M1861.05,1241.49c0,376.14-304.93,681.07-681.07,681.07V1241.49L1769.9,900.9A677.89,677.89,0,0,1,1861.05,1241.49Z"/></clipPath><linearGradient id="linear-gradient" x1="-2395.74" y1="-3086.82" x2="-2394.49" y2="-3085.55" gradientTransform="matrix(13.99, 0, 0, -11.81, 36377.36, -35956.68)" gradientUnits="userSpaceOnUse"><stop offset="0" stop-color="#ffd1db"/><stop offset="0.16" stop-color="#fdd7e1"/><stop offset="0.6" stop-color="#fae3ee"/><stop offset="1" stop-color="#fae8f3"/></linearGradient><clipPath id="clip-path-2"><path class="cls-1" d="M1578.8,1501.36l-11,94.2a83.4,83.4,0,0,0-.11,17.16l8.27,85.56a4.16,4.16,0,0,0,4.11,4.2,4.47,4.47,0,0,0,.82-.07,55.62,55.62,0,0,0,21.69-6.67,13.54,13.54,0,0,0,7-13.48l-20.95-177.87Z"/></clipPath></defs><path class="cls-2" d="M1920.13,1241.49c0,408.77-331.38,740.15-740.15,740.15V1241.49l641.09-370.14A736.73,736.73,0,0,1,1920.13,1241.49Z"/><path class="cls-3" d="M1861.05,1241.49c0,376.14-304.93,681.07-681.07,681.07V1241.49L1769.9,900.9A677.89,677.89,0,0,1,1861.05,1241.49Z"/><g class="cls-4"><path class="cls-5" d="M1134,1644.12q-5.74,0-11.47,0v300.09c227.8,0,434.38-90.86,585.48-238.32C1540.8,1666.72,1344.27,1644.12,1134,1644.12Z"/><g id="Group_3293" data-name="Group 3293"><g id="Layer_10" data-name="Layer 10"><path id="Path_14005" data-name="Path 14005" class="cls-6" d="M1592.53,1694.83l-61.1,1.87,2.94-110.45,56.82,1.34Z"/></g><g id="Right_leg" data-name="Right leg"><g id="Group_3250" data-name="Group 3250"><g id="Group_3249" data-name="Group 3249"><g id="Group_3248" data-name="Group 3248"><g id="Group_3247" data-name="Group 3247"><g id="Group_3246" data-name="Group 3246"><g id="Group_3245" data-name="Group 3245"><g id="Group_3244" data-name="Group 3244"><path id="Path_14006" data-name="Path 14006" class="cls-7" d="M1556.75,1730.05c.9,1.57,2,2.79,2.84,4.33.22.42.42.84.6,1.28.24.62,1,1.24,1,1.9.15,3,.19,4.54-2.67,6.17-4.71,2.68-10.19,4.85-15,7.48-.25.14-.45.23-.7.38-3.79,2.32-7.9,4.89-11.74,6.9-2.19,1.15-3.38,1-5.21-.35-.08-.13-.12.51,0-.1,1-3.62,4.89-7.1,7.68-9.59a101.66,101.66,0,0,0,8.48-8,3.92,3.92,0,0,0,.94-4.45c-.24-.8-3-4.64-2.51-5.16,3.82-4.35,8.65-4,13.52-5.82C1554.81,1726.72,1555.84,1728.48,1556.75,1730.05Z"/><path id="Path_14007" data-name="Path 14007" class="cls-8" d="M1557.22,1730.69c1-.63,3.49,3.69,3.81,4.16a30.09,30.09,0,0,1,1.83,2.9c1.43,2.9-2.5,5.1-4,5.85-2.48,1.25-12,7.29-12.33,7.51-4.56,3.33-8.85,6.77-12,8.1-4.08,1.75-4.82,1.66-7.78.12a2.08,2.08,0,0,1-1.29-2.62c.45-2.47,5.56-5.84,7.31-7.76s9.35-9.84,9.79-10C1549.77,1736.35,1551.82,1734.21,1557.22,1730.69Z"/></g><path id="Path_14008" data-name="Path 14008" class="cls-9" d="M1528.7,1760.21c1.66.52,2.73.94,4.42.45a38.61,38.61,0,0,0,9.89-4.22c.79-.49,1.8-1.4,2.49-1.9a101.06,101.06,0,0,1,10.67-7c1.79-1,4.6-2.38,6.35-3.41s2.43-2.06,2.08-3.87c-.25-1.24-1.25-1.6-1.68-2.66-.49.9-1,2.07-1.47,2.88a7.14,7.14,0,0,1-2.32,2.35c-1.48.95-3.67,2-5.07,2.86a103.07,103.07,0,0,0-10.2,6.9c-.14.1-.34.29-.49.39a58.09,58.09,0,0,1-14.74,6.82,1.05,1.05,0,0,1-.63.07C1528.13,1760,1528.56,1760.17,1528.7,1760.21Z"/></g><path id="Path_14009" data-name="Path 14009" class="cls-10" d="M1559.42,1591.83c-4.51-1.13-9-2.28-13.58-3.22-9.57,25.82-15.95,49.24-23.07,76.16-5.52,20.92,6,44,16.33,68.28,6.05-3.32,12.37-6,18.5-8.83-2.21-11.42-7.15-22.15-10.51-33.18-2-6.65-3.39-6.47-2-15.82,1.07-7.16.79-5.62,3.66-15.08.72-2.39,4.88-11.38,9.26-22,0,0,9.14-17.35,8.72-28.68a26.59,26.59,0,0,0-7.32-17.66"/></g></g></g></g></g></g><g id="Left_leg" data-name="Left leg"><g id="Group_3253" data-name="Group 3253"><g id="Group_3252" data-name="Group 3252"><g id="Group_3251" data-name="Group 3251"><path id="Path_14010" data-name="Path 14010" class="cls-7" d="M1580.22,1740.94c.23,2,.86,3.71,1,5.61a13.31,13.31,0,0,1,0,1.55c0,.72.44,1.67.19,2.35-1.12,3-1.75,4.63-5.32,5-5.86.59-12.28.33-18.27.8-.31,0-.54,0-.86.07-4.78.64-10,1.37-14.72,1.68-2.68.17-3.81-.51-5.06-2.68,0-.16-.34.46.08-.08,2.5-3.2,7.93-4.93,11.8-6.18a114,114,0,0,0,11.92-4.23,4.24,4.24,0,0,0,2.84-4c.1-.91-1-6-.3-6.28,5.68-2.66,10.38-.16,16,.2C1579.71,1736.74,1580,1739,1580.22,1740.94Z"/><path id="Path_14011" data-name="Path 14011" class="cls-8" d="M1580.42,1741.8c1.23-.2,1.92,5.24,2,5.86a36,36,0,0,1,.58,3.72c.2,3.55-4.68,4-6.51,4.08-3,.15-15.16,2-15.56,2-6,1.31-11.77,2.84-15.45,2.79-4.83,0-5.53-.48-7.84-3.34a2.31,2.31,0,0,1-.18-3.2c1.51-2.28,8.08-3.38,10.65-4.52s13.58-5.7,14.1-5.66C1570.54,1744.14,1573.5,1742.91,1580.42,1741.8Z"/></g><path id="Path_14012" data-name="Path 14012" class="cls-9" d="M1538.94,1758.37c1.38,1.33,2.61,2.45,4.51,2.72a42.22,42.22,0,0,0,11.72.17c1-.13,2.4-.6,3.31-.79a110.41,110.41,0,0,1,13.66-2.21c2.22-.2,5.63-.33,7.82-.59s3.32-1,3.74-2.94c.29-1.36-.57-2.16-.54-3.41-.88.68-1.84,1.65-2.71,2.22a7.62,7.62,0,0,1-3.33,1.33c-1.89.28-4.55.4-6.3.6a109,109,0,0,0-13.18,2.37l-.65.17a55.11,55.11,0,0,1-17.62.22c-.26,0-.6-.28-.87-.32C1538.61,1758,1538.85,1758.29,1538.94,1758.37Z"/></g><path id="Path_14013" data-name="Path 14013" class="cls-10" d="M1572,1594.1c7.26,0,14.5.44,14.5.44,11.16,14.57-.27,61-1.41,79.73-.43,7.16-.46,29.64-2,62.6,0,0-20.52-1-22.93-1.21,0-30.57,1.06-44.37,0-60.23-.79-11.83-.75-24.46-.45-37.2,0,0-5.72-23.08-5.4-32.16a45.37,45.37,0,0,1,2.78-14.85Z"/></g></g><g id="Right_hand" data-name="Right hand"><g id="Group_3255" data-name="Group 3255"><g id="Group_3254" data-name="Group 3254"><path id="Path_14014" data-name="Path 14014" class="cls-9" d="M1533.56,1483.92v38.28a2.88,2.88,0,0,1-3,2.69l-.39-.05-22.74-3.43c-1.43-.21-1.9-1.32-1.9-2.63l-.57-35.26a2.84,2.84,0,0,1,3-2.68h0l22.75.41A2.81,2.81,0,0,1,1533.56,1483.92Z"/><path id="Path_14015" data-name="Path 14015" class="cls-8" d="M1512.63,1482.31l12.33.37a.66.66,0,0,0,.7-.61h0v-1.66a.64.64,0,0,0-.68-.61h-2.54a1.22,1.22,0,0,1-.86-.36l-.32-.33a3.24,3.24,0,0,0-4.58.05l-.09.1h0a1.18,1.18,0,0,1-.91.4h-3a.66.66,0,0,0-.68.62v1.42A.64.64,0,0,0,1512.63,1482.31Z"/></g><path id="Path_14016" data-name="Path 14016" class="cls-7" d="M1518.58,1514.42h0a3.8,3.8,0,0,0,1.13-2.74l.13-7.29c.05-2.56-1-5.58-4-3.33l-4.7,2.44a19.85,19.85,0,0,1-3,1.28l-2.9,1c-.56.18.08-.78.2-1.48v-2.19c0-.16-.13-.21-.33-.22a1.41,1.41,0,0,0-1,.51c-.95,1.09-2.15,1.93-2.29,3.37l-.48,4.9a19.87,19.87,0,0,0,.74,7.71l2,6.5,9-1.52-.75-4.56h0A24.77,24.77,0,0,0,1518.58,1514.42Z"/><path id="Path_14017" data-name="Path 14017" class="cls-11" d="M1552,1503.65c-2.9.72-4.15,2.4-6.85,4.7-4,3.44-3.53,3.42-7.1,8.57-8.5,12.27-13.37,29.13-14.88,25a138.33,138.33,0,0,0-9.18-19.47c-5,.5-6.19.93-11.14,1.5,1.1,4,6.22,32.27,12.26,39.55a12.21,12.21,0,0,0,3.63,3c8.22,4.16,19.17-19,23.08-25.22h0Z"/></g></g><g id="Layer_1" data-name="Layer 1"><g id="Group_3263" data-name="Group 3263"><g id="Group_3262" data-name="Group 3262"><path id="Path_14018" data-name="Path 14018" class="cls-12" d="M1587.51,1588.8l.45,6.68-9.52.63a82,82,0,0,1-31.62-4.14l-16.29-5.51,2.7-5.91,28,6.6Z"/><g id="Group_3257" data-name="Group 3257"><g id="Group_3256" data-name="Group 3256"><path id="Path_14019" data-name="Path 14019" class="cls-13" d="M1555.52,1506.68c4.64,1.14,9,6.6,13.75,6.21,3.3-.27,7.42-5.81,10.64-6.58a39.24,39.24,0,0,0,6.1-1.82l-3.81-.24a4.88,4.88,0,0,1-3.34-1.87,8.75,8.75,0,0,1-1.13-9.5l3.38-7.06-18.33,5.26-1.09,5.93a10.78,10.78,0,0,1-6.69,8.2,9.59,9.59,0,0,1-2.23.56l-.23,0C1553.5,1506.13,1554.49,1506.42,1555.52,1506.68Z"/></g></g><path id="Path_14020" data-name="Path 14020" class="cls-14" d="M1580.26,1503.88l-2-.92-5.37,4a9.31,9.31,0,0,1-9.58,0l-5.28-3.55-2.42,1.51,8.23,6.46a6.57,6.57,0,0,0,8.5-.32Z"/><g id="Group_3258" data-name="Group 3258"><path id="Path_14021" data-name="Path 14021" class="cls-10" d="M1594.87,1544.09l-3.93-37.52c-2.09-3.25-10.23-2.76-10.68-2.69l-11.9,7.78c-1.76.27,1.72.47,0,0-4.73-1.29-10.78-9.46-16.65-8h0l-10.23,37.6h0c-.7,16-8,33-10.64,38.75a2,2,0,0,0,1,2.69l.24.09,15.85,5.12a73.84,73.84,0,0,0,30.42,3.36l9.6-.76s4.21-28.31,7-46.41Z"/></g><path id="Path_14022" data-name="Path 14022" class="cls-15" d="M1581.39,1594.46l-1.05.82c-.67.53-5.38,6.59-4.81,10.52l2.66.47h10l.84-1.56a3.81,3.81,0,0,0,.44-1.78v-1.52Z"/><g id="Group_3261" data-name="Group 3261"><g id="Group_3260" data-name="Group 3260"><g class="cls-16"><g id="Group_3259" data-name="Group 3259"><path id="Path_14023" data-name="Path 14023" class="cls-6" d="M1578.87,1501.89l-10.18,93.19a83.4,83.4,0,0,0-.11,17.16l8.27,85.56a4.16,4.16,0,0,0,4.11,4.2,4.47,4.47,0,0,0,.82-.07,55.62,55.62,0,0,0,21.69-6.67,13.54,13.54,0,0,0,7-13.48l-20.94-177.87Z"/></g></g></g><path id="Path_14024" data-name="Path 14024" class="cls-12" d="M1578.8,1501.36l.7.1a3.16,3.16,0,0,1,2.56,2.14l4.68,14.44a.34.34,0,0,1-.22.43h0l-5.6,1.07a.33.33,0,0,0-.27.4.21.21,0,0,0,0,.11l5.07,8.59a.39.39,0,0,1,0,.28l-15.28,49.78Z"/><circle id="Ellipse_189" data-name="Ellipse 189" class="cls-10" cx="1572.59" cy="1582.86" r="1.97"/><path id="Path_14025" data-name="Path 14025" class="cls-10" d="M1569.15,1597.51a2,2,0,1,0,2-2,2,2,0,0,0-2,2Z"/></g><path id="Path_14026" data-name="Path 14026" class="cls-11" d="M1589.81,1604.94l.19,1.47a.68.68,0,0,1-.59.77h-.06l-15.13.54a.68.68,0,0,1-.71-.66v-1.42a.69.69,0,0,1,.66-.69l14.93-.61A.67.67,0,0,1,1589.81,1604.94Z"/><path id="Path_14027" data-name="Path 14027" class="cls-6" d="M1558.58,1502.37l-6.84,1.28-12.46,41.53a365,365,0,0,0-14.6,80.94l-6,54.2c-2.7,16.85,4.58,18.79,15.74,21.39h0a4.46,4.46,0,0,0,5-3.8,2.33,2.33,0,0,0,0-.38l5.09-92.09q1-17.54,3.62-34.91Z"/><path id="Path_14028" data-name="Path 14028" class="cls-12" d="M1558.58,1502.37l-.38-.32a3.16,3.16,0,0,0-3,1.44l-4.55,12.83a.35.35,0,0,0,.1.48l0,0,3.38,2.42a.33.33,0,0,1,.17.45.23.23,0,0,1-.07.1l-5.26,7.07a.35.35,0,0,0-.1.26l-1.92,52Z"/></g></g></g><g id="left_hand" data-name="left hand"><path id="Path_14029" data-name="Path 14029" class="cls-7" d="M1581.33,1594.46l-4.39,4.89a9.49,9.49,0,0,0-2.44,6.35v.57l14.91-.23L1589,1599Z"/><path id="Path_14030" data-name="Path 14030" class="cls-11" d="M1580.71,1595c1.93-13.6,11.22-37.5,12.13-40.72,1.46-5.2-.89-18.21-1.7-25.19-.73-6.18-1.88-17.6-2.5-24.66a16.59,16.59,0,0,1,2.76.93c.63.35,1.24.78,1.59,1,15,9,17.42,40,16.25,49.85,0,0-1.86,15.85-19.73,46.35A27.32,27.32,0,0,1,1580.71,1595Z"/></g><g id="stethscope"><g id="Group_3275" data-name="Group 3275"><g id="Group_3264" data-name="Group 3264"><path id="Path_14031" data-name="Path 14031" class="cls-2" d="M1583.73,1523a12.51,12.51,0,0,1,4,1.78,12.92,12.92,0,0,1,4.17,4.67l-.12.06a12.57,12.57,0,0,0-4.13-4.62,12.45,12.45,0,0,0-4-1.77,13.08,13.08,0,0,0-4-.38,12.86,12.86,0,0,0-6.19,2l-.08-.11a12.95,12.95,0,0,1,10.29-1.67Z"/></g><g id="Group_3274" data-name="Group 3274"><g id="Group_3268" data-name="Group 3268"><g id="Group_3265" data-name="Group 3265"><path id="Path_14032" data-name="Path 14032" class="cls-17" d="M1591.74,1527.65a43.26,43.26,0,0,1,1.25,8.7,34.29,34.29,0,0,1-.66,8.21c-.81,3.94-1.91,5.31-3.31,6.15a5.32,5.32,0,0,1-2.54.78,6.52,6.52,0,0,1-1.82-.2l-.45-.13a10,10,0,0,1-2.52-1.33l.22-.28a9,9,0,0,0,2.83,1.4,5.19,5.19,0,0,0,4.09-.54c1.07-.64,2.28-1.68,3.16-5.92a34.26,34.26,0,0,0,.65-8.15,43.93,43.93,0,0,0-1.24-8.61Z"/></g><g id="Group_3267" data-name="Group 3267"><g id="Group_3266" data-name="Group 3266"><path id="Path_14033" data-name="Path 14033" class="cls-17" d="M1582.05,1549.9l.1-.12a.58.58,0,0,0-.08-.81h0l-.24-.19a.14.14,0,0,0-.18,0l-.67.82a.13.13,0,0,0,0,.19h0l.24.19A.59.59,0,0,0,1582.05,1549.9Z"/></g><path id="Path_14034" data-name="Path 14034" class="cls-8" d="M1579.19,1549.14a1,1,0,0,1-.2-.57,1.46,1.46,0,0,1,.36-1,1.22,1.22,0,0,1,1.62-.33,1,1,0,0,1,.32.47.93.93,0,0,0,.3.47.81.81,0,0,1,0,1.15l-.08.1-.06.07a.34.34,0,0,1-.09.08.79.79,0,0,1-1,.09h0a.87.87,0,0,0-.51-.19.94.94,0,0,1-.53-.2A.8.8,0,0,1,1579.19,1549.14Z"/></g></g><g id="Group_3273" data-name="Group 3273"><g id="Group_3269" data-name="Group 3269"><path id="Path_14035" data-name="Path 14035" class="cls-9" d="M1574.42,1523.25a43.41,43.41,0,0,0-5.24,7,34.58,34.58,0,0,0-3.34,7.54c-1.16,3.85-.85,5.57,0,7a5.37,5.37,0,0,0,1.87,1.89,6,6,0,0,0,1.69.7l.45.1a9.72,9.72,0,0,0,2.85,0l-.06-.35a9.27,9.27,0,0,1-3.15-.12,5.2,5.2,0,0,1-3.34-2.42c-.63-1.08-1.2-2.57,0-6.72a34.15,34.15,0,0,1,3.31-7.47,43.59,43.59,0,0,1,5.19-7Z"/></g><g id="Group_3272" data-name="Group 3272"><g id="Group_3271" data-name="Group 3271"><g id="Group_3270" data-name="Group 3270" class="cls-18"><path id="Path_14036" data-name="Path 14036" class="cls-9" d="M1572.47,1547.47l0-.16a.58.58,0,0,1,.46-.67h0l.3-.05a.13.13,0,0,1,.16.1l.2,1a.12.12,0,0,1-.1.15h0l-.3,0A.59.59,0,0,1,1572.47,1547.47Z"/></g><path id="Path_14037" data-name="Path 14037" class="cls-8" d="M1575.35,1548.17a1,1,0,0,0,.44-.41,1.4,1.4,0,0,0,.15-1,1.23,1.23,0,0,0-1.26-1.07.94.94,0,0,0-.52.27,1,1,0,0,1-.48.26.8.8,0,0,0-.56,1l0,.12a.29.29,0,0,0,0,.09.84.84,0,0,0,0,.12.8.8,0,0,0,.83.55h0a.84.84,0,0,1,.54.07,1,1,0,0,0,.56.08Z"/></g></g></g></g><path id="Path_14038" data-name="Path 14038" class="cls-19" d="M1592.22,1529.33h0a14.77,14.77,0,0,0-1-4,12.52,12.52,0,0,0-3.39-4.83,9.8,9.8,0,0,0-2.16-1.44.64.64,0,0,1-.35-.7,20.43,20.43,0,0,0-.12-9.89,11.87,11.87,0,0,0-1.79-3.66,11,11,0,0,0-2.65-2.59,12.17,12.17,0,0,0-3.09-1.52s0,.06,0,.08l.08.16.13.2.09.11c.11.15.22.29.34.43a11.44,11.44,0,0,1,2,1.11,10.71,10.71,0,0,1,4.17,5.87,19.75,19.75,0,0,1,.12,9.42.62.62,0,0,1-.67.51,10.17,10.17,0,0,0-2.75.23,12.6,12.6,0,0,0-5.28,2.64,14.8,14.8,0,0,0-2.81,3.1.08.08,0,0,0,0,.1h0l.43.27a.08.08,0,0,0,.1,0h0a14.66,14.66,0,0,1,2.7-3,11.91,11.91,0,0,1,5-2.5,5.7,5.7,0,0,1,5.93,1.5,11.7,11.7,0,0,1,3.24,4.61,16.21,16.21,0,0,1,1,3.88h0a.06.06,0,0,0,.08.06l.52,0a.06.06,0,0,0,.06-.08h0Z"/></g><g id="Group_3277" data-name="Group 3277"><path id="Path_14039" data-name="Path 14039" class="cls-8" d="M1557.27,1518.75h0c-2.42-2.76-3.84-5.32-4.23-7.59a6.79,6.79,0,0,1,2-6.1c.18-.19.36-.37.55-.54a10.26,10.26,0,0,1,2.94-1.93c.21-.09.42-.16.62-.23s.3-.35.45-.53.23-.26.33-.4a8.29,8.29,0,0,0-2.17.73A11.69,11.69,0,0,0,1555,1504c-.2.19-.39.37-.56.56a7.55,7.55,0,0,0-2.13,6.72,12.16,12.16,0,0,0,1.46,3.91,21.44,21.44,0,0,0,2.93,4h0a.07.07,0,0,0,.1,0l.42-.37a.07.07,0,0,0,0-.09Z"/><ellipse id="Ellipse_190" data-name="Ellipse 190" class="cls-19" cx="1558.11" cy="1520.71" rx="3.25" ry="3.2" transform="translate(-618.32 1462.46) rotate(-42.77)"/><ellipse id="Ellipse_191" data-name="Ellipse 191" class="cls-8" cx="1558.11" cy="1520.71" rx="3.05" ry="3.01" transform="translate(-618.31 1461.85) rotate(-42.76)"/><ellipse id="Ellipse_192" data-name="Ellipse 192" class="cls-9" cx="1558.11" cy="1520.71" rx="2.93" ry="2.89" transform="translate(-618.3 1461.74) rotate(-42.75)"/><path id="Path_14040" data-name="Path 14040" class="cls-8" d="M1556.79,1521.93a1.8,1.8,0,1,0,.14-2.54l0,0a1.79,1.79,0,0,0-.12,2.52Z"/><g id="Group_3276" data-name="Group 3276"><rect id="Rectangle_1898" data-name="Rectangle 1898" class="cls-20" x="1558.11" y="1520.71" transform="translate(-56.28 2981.53) rotate(-86.45)"/></g></g></g><g id="Head"><g id="Group_3278" data-name="Group 3278"><path id="Path_14043" data-name="Path 14043" class="cls-13" d="M1585.71,1479.59l-.44-12.9a7.72,7.72,0,0,0-4.59-6.8l-6.69-3a7.72,7.72,0,0,0-6.33,0l-5.61,2.55a7.71,7.71,0,0,0-4.5,6.33l-.39,4.3a6.83,6.83,0,0,1-.2,1.2l-1.18,4.66c-.18,16.42,5.93,22.7,9.36,23h0a7.75,7.75,0,0,0,4.73-1.1l1.16-.71a41.37,41.37,0,0,0,13.07-13.32h0A7.67,7.67,0,0,0,1585.71,1479.59Z"/><path id="Path_14044" data-name="Path 14044" class="cls-13" d="M1583,1477.56l.18-.08a3.3,3.3,0,0,1,4.16,1.43h0l.12.22a3.22,3.22,0,0,1-.12,2.84c-.37.71-1.17,1.3-1.43,1.81-.82,1.64-1.24,1.71-2.62,1.36l-.54-.14Z"/><path id="Path_14045" data-name="Path 14045" class="cls-10" d="M1584,1478.84a47.53,47.53,0,0,1-.58,5.84,5.9,5.9,0,0,1-.22.9h0a5.07,5.07,0,0,1-1,1.76c-1.88,2.05-7.06,7.54-10.79,9.78l-1.38.83a7.62,7.62,0,0,1-5.09,1h0a7.78,7.78,0,0,1-2.79-1.07,10.75,10.75,0,0,1-5-7.83l-1-7.46,4.49-1a14.7,14.7,0,0,1,8.1.48l7.27,2.56c1,.35,4.18.35,4.41-1.37l1.76-11.79.44-3h0c2.75-.33,2.85-1.28,3.47,2a68.91,68.91,0,0,1-.12,6.92l-.92,0a.93.93,0,0,0-1,.88h0Z"/><path id="Path_14046" data-name="Path 14046" class="cls-10" d="M1586,1470.23s-.41-3.42-.74-4.6l-.15-.51a14.12,14.12,0,0,0-10.22-9.38c-1.46-.35-17.91-4.33-19.84,1.06a10.72,10.72,0,0,0,0,5.92,4.4,4.4,0,0,0,.3.52c1.33,1.86,4.18,1.84,6.45,1.49l4.56-.4c.66-.1,10,.55,13.4,2.73Z"/></g></g><g id="Laptop"><g id="Group_3285" data-name="Group 3285"><path id="Rectangle_1899" data-name="Rectangle 1899" class="cls-21" d="M1297,1691.76h158a4.49,4.49,0,0,1-4.49,4.49h-149a4.49,4.49,0,0,1-4.48-4.49Z"/><g id="Group_3284" data-name="Group 3284"><path id="Path_14047" data-name="Path 14047" class="cls-8" d="M1513.3,1738.71v-1l-277.87-.4v1.39h0c0,3.17,3.27,5.74,7.29,5.74H1506c4,0,7.29-2.57,7.29-5.74Z"/><g id="Group_3283" data-name="Group 3283"><path id="Path_14048" data-name="Path 14048" class="cls-9" d="M1510.32,1739.07h-271.9c-3,0-3.87-1.39-2-3.06l43.38-39a6.55,6.55,0,0,1,4.36-1.66h180.44A6.55,6.55,0,0,1,1469,1697l43.38,39C1514.19,1737.68,1513.31,1739.07,1510.32,1739.07Z"/><g id="Group_3282" data-name="Group 3282"><g id="Group_3281" data-name="Group 3281"><g id="Group_3279" data-name="Group 3279"><path id="Path_14049" data-name="Path 14049" class="cls-8" d="M1298.92,1702h-11.7c-.5,0-.75-.16-.55-.37l2.22-2.27a2,2,0,0,1,1.23-.35h11.31c.49,0,.76.16.6.35l-1.88,2.27A1.81,1.81,0,0,1,1298.92,1702Z"/><path id="Path_14050" data-name="Path 14050" class="cls-8" d="M1313.88,1702h-11.7c-.5,0-.78-.16-.61-.37l1.84-2.27a1.76,1.76,0,0,1,1.17-.35h11.31c.48,0,.78.16.65.35l-1.5,2.27A1.64,1.64,0,0,1,1313.88,1702Z"/><path id="Path_14051" data-name="Path 14051" class="cls-8" d="M1328.84,1702h-11.7c-.5,0-.81-.16-.67-.37l1.46-2.27a1.5,1.5,0,0,1,1.11-.35h11.32c.48,0,.8.16.71.35l-1.13,2.27C1329.84,1701.88,1329.34,1702,1328.84,1702Z"/><path id="Path_14052" data-name="Path 14052" class="cls-8" d="M1358.76,1702h-11.7c-.5,0-.86-.16-.8-.37l.71-2.27c.06-.19.51-.35,1-.35h11.32c.48,0,.86.16.82.35l-.37,2.27C1359.7,1701.88,1359.26,1702,1358.76,1702Z"/><path id="Path_14053" data-name="Path 14053" class="cls-8" d="M1343.8,1702h-11.7c-.5,0-.84-.16-.74-.37l1.09-2.27c.09-.19.57-.35,1-.35h11.32c.49,0,.83.16.77.35l-.75,2.27C1344.77,1701.88,1344.3,1702,1343.8,1702Z"/><path id="Path_14054" data-name="Path 14054" class="cls-8" d="M1388.68,1702H1377c-.5,0-.92-.16-.93-.37l0-2.27c0-.19.39-.35.88-.35h11.31c.49,0,.91.16,1,.35l.38,2.27C1389.56,1701.88,1389.18,1702,1388.68,1702Z"/><path id="Path_14055" data-name="Path 14055" class="cls-8" d="M1403.63,1702h-11.7c-.5,0-.94-.16-1-.37l-.42-2.27c0-.19.33-.35.82-.35h11.32c.48,0,.93.16,1,.35l.76,2.27C1404.49,1701.88,1404.14,1702,1403.63,1702Z"/><path id="Path_14056" data-name="Path 14056" class="cls-8" d="M1418.59,1702h-11.7c-.5,0-1-.16-1-.37l-.8-2.27c-.07-.19.27-.35.76-.35h11.31c.49,0,1,.16,1.06.35l1.14,2.27C1419.42,1701.88,1419.1,1702,1418.59,1702Z"/><path id="Path_14057" data-name="Path 14057" class="cls-8" d="M1433.55,1702h-11.7a1.4,1.4,0,0,1-1.1-.37l-1.18-2.27c-.1-.19.22-.35.7-.35h11.32a1.58,1.58,0,0,1,1.12.35l1.51,2.27C1434.35,1701.88,1434.06,1702,1433.55,1702Z"/><path id="Path_14058" data-name="Path 14058" class="cls-8" d="M1461.32,1702h-24.14a2.27,2.27,0,0,1-1.64-.52l-1.36-2c-.18-.27.23-.5.9-.5h23.35a2.84,2.84,0,0,1,1.72.5l1.94,2C1462.38,1701.81,1462,1702,1461.32,1702Z"/><path id="Path_14059" data-name="Path 14059" class="cls-8" d="M1373.72,1702H1362c-.5,0-.89-.16-.86-.37l.33-2.27c0-.19.45-.35.94-.35h11.31c.49,0,.89.16.89.35v2.27C1374.63,1701.88,1374.22,1702,1373.72,1702Z"/></g><g id="Group_3280" data-name="Group 3280"><path id="Path_14060" data-name="Path 14060" class="cls-8" d="M1453.08,1705.73h12.19c.52,0,.77-.18.55-.4l-2.41-2.46a2.17,2.17,0,0,0-1.29-.38h-11.76c-.5,0-.77.17-.6.38l2,2.46A1.92,1.92,0,0,0,1453.08,1705.73Z"/><path id="Path_14061" data-name="Path 14061" class="cls-8" d="M1437.51,1705.73h12.18c.53,0,.8-.18.63-.4l-2-2.46a1.93,1.93,0,0,0-1.23-.38h-11.76c-.51,0-.81.17-.67.38l1.63,2.46A1.66,1.66,0,0,0,1437.51,1705.73Z"/><path id="Path_14062" data-name="Path 14062" class="cls-8" d="M1421.94,1705.73h12.18c.53,0,.84-.18.69-.4l-1.59-2.46a1.63,1.63,0,0,0-1.16-.38h-11.77c-.5,0-.83.17-.73.38l1.22,2.46A1.44,1.44,0,0,0,1421.94,1705.73Z"/><path id="Path_14063" data-name="Path 14063" class="cls-8" d="M1390.8,1705.73H1403c.52,0,.9-.18.83-.4l-.78-2.46c-.06-.21-.53-.38-1-.38h-11.76c-.51,0-.89.17-.86.38l.41,2.46C1389.82,1705.55,1390.28,1705.73,1390.8,1705.73Z"/><path id="Path_14064" data-name="Path 14064" class="cls-8" d="M1406.37,1705.73h12.18c.53,0,.87-.18.76-.4l-1.18-2.46c-.1-.21-.6-.38-1.1-.38h-11.77c-.5,0-.86.17-.79.38l.81,2.46C1405.36,1705.55,1405.85,1705.73,1406.37,1705.73Z"/><path id="Path_14065" data-name="Path 14065" class="cls-8" d="M1359.65,1705.73h12.19c.52,0,1-.18,1-.4l0-2.46c0-.21-.41-.38-.91-.38h-11.76c-.51,0-1,.17-1,.38l-.41,2.46C1358.73,1705.55,1359.13,1705.73,1359.65,1705.73Z"/><path id="Path_14066" data-name="Path 14066" class="cls-8" d="M1344.08,1705.73h12.19c.52,0,1-.18,1-.4l.45-2.46c0-.21-.34-.38-.85-.38h-11.76c-.5,0-1,.17-1,.38l-.82,2.46C1343.19,1705.55,1343.56,1705.73,1344.08,1705.73Z"/><path id="Path_14067" data-name="Path 14067" class="cls-8" d="M1328.51,1705.73h12.19c.52,0,1-.18,1.09-.4l.86-2.46c.07-.21-.28-.38-.79-.38H1330.1a1.42,1.42,0,0,0-1.11.38l-1.22,2.46C1327.65,1705.55,1328,1705.73,1328.51,1705.73Z"/><path id="Path_14068" data-name="Path 14068" class="cls-8" d="M1312.94,1705.73h12.18a1.46,1.46,0,0,0,1.16-.4l1.27-2.46c.11-.21-.22-.38-.72-.38h-11.77a1.67,1.67,0,0,0-1.17.38l-1.63,2.46C1312.11,1705.55,1312.42,1705.73,1312.94,1705.73Z"/><path id="Path_14069" data-name="Path 14069" class="cls-8" d="M1284,1705.73h25.14a2.4,2.4,0,0,0,1.72-.56l1.46-2.15c.2-.29-.22-.53-.93-.53h-24.26a3,3,0,0,0-1.82.53l-2.09,2.15C1283,1705.48,1283.3,1705.73,1284,1705.73Z"/><path id="Path_14070" data-name="Path 14070" class="cls-8" d="M1375.23,1705.73h12.18c.52,0,.92-.18.89-.4l-.37-2.46c0-.21-.47-.38-1-.38H1375.2c-.51,0-.92.17-.92.38v2.46C1374.28,1705.55,1374.7,1705.73,1375.23,1705.73Z"/></g><path id="Path_14071" data-name="Path 14071" class="cls-8" d="M1440.54,1709.74h28.27c.73,0,1.07-.27.75-.59l-1.82-1.86a2.94,2.94,0,0,0-1.83-.56h-27.4c-.71,0-1.12.25-.92.56l1.24,1.86A2.33,2.33,0,0,0,1440.54,1709.74Z"/><path id="Path_14072" data-name="Path 14072" class="cls-8" d="M1424,1709.74h12.7c.55,0,.87-.2.71-.44l-1.73-2.67a1.65,1.65,0,0,0-1.22-.41h-12.24c-.53,0-.87.18-.76.41l1.33,2.67A1.52,1.52,0,0,0,1424,1709.74Z"/><path id="Path_14073" data-name="Path 14073" class="cls-8" d="M1456.44,1709.74h12.7c.55,0,.8-.2.57-.44l-2.61-2.67a2.21,2.21,0,0,0-1.36-.41h-12.25c-.53,0-.8.18-.61.41l2.21,2.67A2,2,0,0,0,1456.44,1709.74Z"/><path id="Path_14074" data-name="Path 14074" class="cls-8" d="M1391.5,1709.74h12.7c.55,0,.93-.2.85-.44l-.84-2.67c-.07-.23-.56-.41-1.08-.41h-12.25c-.52,0-.92.18-.89.41l.44,2.67C1390.47,1709.54,1391,1709.74,1391.5,1709.74Z"/><path id="Path_14075" data-name="Path 14075" class="cls-8" d="M1407.74,1709.74h12.7c.54,0,.9-.2.78-.44l-1.29-2.67c-.11-.23-.63-.41-1.15-.41h-12.25c-.52,0-.89.18-.82.41l.89,2.67C1406.68,1709.54,1407.19,1709.74,1407.74,1709.74Z"/><path id="Path_14076" data-name="Path 14076" class="cls-8" d="M1426.18,1714.1h13.27c.57,0,.9-.22.73-.48l-1.88-2.91a1.75,1.75,0,0,0-1.29-.45h-12.77c-.55,0-.9.2-.78.45l1.45,2.91A1.59,1.59,0,0,0,1426.18,1714.1Z"/><path id="Path_14077" data-name="Path 14077" class="cls-8" d="M1460.1,1714.1h13.27c.57,0,.83-.22.57-.48l-2.85-2.91a2.36,2.36,0,0,0-1.43-.45h-12.78c-.55,0-.83.2-.62.45l2.41,2.91A2.12,2.12,0,0,0,1460.1,1714.1Z"/><path id="Path_14078" data-name="Path 14078" class="cls-8" d="M1441.29,1711.87H1455c.37,0,.55-.14.42-.3l-.82-1a1.32,1.32,0,0,0-.89-.3h-13.46c-.36,0-.57.14-.46.3l.67,1A1.17,1.17,0,0,0,1441.29,1711.87Z"/><path id="Path_14079" data-name="Path 14079" class="cls-8" d="M1442.78,1714.1h14c.37,0,.56-.14.42-.32l-.85-1a1.4,1.4,0,0,0-.92-.31h-13.76c-.37,0-.57.14-.46.31l.7,1A1.2,1.2,0,0,0,1442.78,1714.1Z"/><path id="Path_14080" data-name="Path 14080" class="cls-8" d="M1409.22,1714.1h13.27c.57,0,.93-.22.81-.48l-1.4-2.91a1.51,1.51,0,0,0-1.22-.45h-12.77c-.54,0-.93.2-.84.45l1,2.91C1408.12,1713.88,1408.65,1714.1,1409.22,1714.1Z"/><path id="Path_14081" data-name="Path 14081" class="cls-8" d="M1359,1709.74h12.7c.54,0,1-.2,1-.44l0-2.67c0-.23-.42-.41-1-.41h-12.24c-.53,0-1,.18-1,.41l-.44,2.67C1358.07,1709.54,1358.48,1709.74,1359,1709.74Z"/><path id="Path_14082" data-name="Path 14082" class="cls-8" d="M1342.79,1709.74h12.7c.55,0,1-.2,1.07-.44l.49-2.67c0-.23-.35-.41-.88-.41h-12.24c-.53,0-1,.18-1.09.41l-.89,2.67C1341.87,1709.54,1342.25,1709.74,1342.79,1709.74Z"/><path id="Path_14083" data-name="Path 14083" class="cls-8" d="M1327.59,1714.1h76.59c1.32,0,2.23-.5,2-1.1l-.53-1.7c-.18-.57-1.36-1-2.63-1h-73.71c-1.26,0-2.52.47-2.8,1l-.82,1.7C1325.45,1713.6,1326.28,1714.1,1327.59,1714.1Z"/><path id="Path_14084" data-name="Path 14084" class="cls-8" d="M1326.56,1709.74h12.7c.54,0,1.06-.2,1.14-.44l.93-2.67c.08-.23-.28-.41-.81-.41h-12.24a1.45,1.45,0,0,0-1.16.41l-1.34,2.67C1325.66,1709.54,1326,1709.74,1326.56,1709.74Z"/><path id="Path_14085" data-name="Path 14085" class="cls-8" d="M1310.32,1709.74H1323a1.54,1.54,0,0,0,1.22-.44l1.37-2.67c.12-.23-.22-.41-.74-.41h-12.24a1.66,1.66,0,0,0-1.23.41l-1.78,2.67C1309.46,1709.54,1309.77,1709.74,1310.32,1709.74Z"/><path id="Path_14086" data-name="Path 14086" class="cls-8" d="M1309.28,1714.1h13.27a1.6,1.6,0,0,0,1.28-.48l1.44-2.91c.13-.25-.22-.45-.77-.45h-12.77a1.74,1.74,0,0,0-1.29.45l-1.88,2.91C1308.38,1713.88,1308.71,1714.1,1309.28,1714.1Z"/><path id="Path_14087" data-name="Path 14087" class="cls-8" d="M1292.32,1714.1h13.27a1.84,1.84,0,0,0,1.36-.48l1.92-2.91c.17-.25-.15-.45-.7-.45H1295.4a2,2,0,0,0-1.36.45l-2.36,2.91C1291.46,1713.88,1291.75,1714.1,1292.32,1714.1Z"/><path id="Path_14088" data-name="Path 14088" class="cls-8" d="M1275.36,1714.1h13.27a2.16,2.16,0,0,0,1.44-.48l2.41-2.91c.2-.25-.08-.45-.63-.45h-12.77a2.39,2.39,0,0,0-1.44.45l-2.84,2.91C1274.54,1713.88,1274.79,1714.1,1275.36,1714.1Z"/><path id="Path_14089" data-name="Path 14089" class="cls-8" d="M1280.18,1709.74h26.2a2.51,2.51,0,0,0,1.81-.62l1.59-2.32c.21-.32-.21-.58-1-.58h-25.26a3.12,3.12,0,0,0-1.91.58l-2.27,2.32C1279.06,1709.46,1279.41,1709.74,1280.18,1709.74Z"/><path id="Path_14090" data-name="Path 14090" class="cls-8" d="M1375.26,1709.74H1388c.55,0,1-.2.93-.44l-.4-2.67c0-.23-.49-.41-1-.41h-12.24c-.52,0-1,.18-1,.41v2.67C1374.27,1709.54,1374.72,1709.74,1375.26,1709.74Z"/></g></g><path id="Path_14091" data-name="Path 14091" class="cls-8" d="M1426.18,1735.24H1314.94c-4,0-6.38-1.84-5.2-4l6-11.17c.93-1.73,4.5-3.09,8-3.09h94.77c3.45,0,6.94,1.36,7.76,3.09l5.36,11.17C1432.67,1733.4,1430.24,1735.24,1426.18,1735.24Z"/></g></g><path id="Path_14092" data-name="Path 14092" class="cls-8" d="M1467.39,1564H1284.55a6.66,6.66,0,0,0-6.66,6.65v123.3h189.5a6.65,6.65,0,0,0,6.65-6.65V1570.6A6.65,6.65,0,0,0,1467.39,1564Z"/><rect id="Rectangle_1900" data-name="Rectangle 1900" class="cls-22" x="1283.99" y="1570.35" width="183.96" height="117.15" rx="4.2"/></g></g><g id="Map"><g id="Group_3290" data-name="Group 3290"><path id="Path_14093" data-name="Path 14093" class="cls-23" d="M1298,1605.14s2.17-1.27,1.93-1.51-.05-.54.32-.72.39.18.43.34,1.24-.24,1.46-.26.55.06.74-.43.68-.3.49-.08.34.18.88.18a10.8,10.8,0,0,1,2.89.3c.36.23,2.29,2.56,2.66,2.56s1,1.25,1.28,1.07.25-1.23.46-1,0,.56.07.74a2.9,2.9,0,0,1,.09.83c0,.3.46.42.8.68s.59,0,.63.24-.26.77-.28,1,2.34,1.55,2.34,2.94-.4,1.64-.27,2.29a5.54,5.54,0,0,1,.19,1.57,3.16,3.16,0,0,0,.17,1.18c.11.31.79,1.09.85,1.29a5.24,5.24,0,0,0,.43.77c.09.16.09.5.25.72s.09.2.38.24a2.45,2.45,0,0,1,1.48,1.25,15,15,0,0,0,1.42,2.42c.13.15,0,.4-.19.38s0,.54.07.58,1,.43,1.16.73.24.74.31.93.45.33.58.59.35.76.56.53-.37-.91-.6-1.35-.75-1.82-.91-2.07a12.63,12.63,0,0,0-.87-1.28,1.78,1.78,0,0,1-.15-1.31c.13,0,.49-.08,1,1.29a9.78,9.78,0,0,0,1.7,2.58,4,4,0,0,0,.28.67,7.74,7.74,0,0,1,1.71,2.16c.41,1.06,0,1.82,1.24,2.57a11.36,11.36,0,0,0,3.28,1.46,6.75,6.75,0,0,1,1.42-.11c.15.1.9.9.9.9a4.83,4.83,0,0,1,2.25,1.22c.63.84.88,1,.94,1.47s.57.64.82.72.34,1.07.84,1,.66.08.61.22.37.26.42.24.34.2.43-.2.13-1,.45-.86.36.78.53,1a5.14,5.14,0,0,1,.14,2.88,3,3,0,0,0-.58,1,4.35,4.35,0,0,1-.37.75c-.07.2-.57,1.18-.61,1.34s-.22.45,0,.55.49,0,.45.24,0,.34-.16.4a5.71,5.71,0,0,0-.51.58,1.53,1.53,0,0,0,.16.73c.18.2,0,.26.43.94a19.77,19.77,0,0,1,1.86,3.67,4.27,4.27,0,0,0,.58,1.51,10.81,10.81,0,0,0,2,1.8,3.87,3.87,0,0,1,.62.93,26.73,26.73,0,0,1,0,4.1c-.1.5-.2,1.37-.29,1.67s-.35,1.27-.35,1.27a19.23,19.23,0,0,1,0,2.4,5.62,5.62,0,0,1-.54,1.92,2,2,0,0,0-.51,1c0,.2.25.75.26,1a4.24,4.24,0,0,1-.15,1c-.05.15-.26.68-.26.68s-.15,1.38,0,1.38.31-.49.3-.6.15-.7.25-.32a5.2,5.2,0,0,1-.13,1.67c-.07.13-.43-.06-.42-.11a.7.7,0,0,1-.19.55c-.22.3-.67.77-.6.88s.29.12.36.14.09.28.09.28a4,4,0,0,1-.09.48,2.06,2.06,0,0,0-.29.3s.07,1.59.34,1.63.67,1.23.69,1.39.06,1,.23,1a20.52,20.52,0,0,0,2.2,1.1c.41,0,1.25-.18,1.31-.37a.45.45,0,0,0-.13-.53,2.86,2.86,0,0,1-.7-1,7.9,7.9,0,0,1-.45-1.32c0-.29-.3-.45.11-.84s.49-.16.69-.56c.07-.13.14-.27.2-.41s.72-.4.62-.72-1.08-.13-1-.69.65-.74.84-.86a1.35,1.35,0,0,0,.45-.8c0-.32.48-.58.58-.73s.23-.38.08-.38a2.07,2.07,0,0,1-.49-.12s-.35-.4-.14-.62.75-.15,1-.15.56,0,.49-.28,0-.93.13-.92a20.39,20.39,0,0,0,2.16-.61.9.9,0,0,0,.31-.41c.08-.16.27-.48.27-.48a5.72,5.72,0,0,1-.32-.48c-.17-.28-.2-.85-.31-.86a7.4,7.4,0,0,0,1.88-.06,3.33,3.33,0,0,0,.82-1,5,5,0,0,1,.08-.56c.08-.23.31-.34.36-.44l.1-.24a10.56,10.56,0,0,1,.71-.84c.2-.31.39-.64.56-1,0-.1.28,0,.3-.23s.21-1.47.31-1.86.56-.5,1-.81.7-.23.84-.56,1.32-.38,1.34-.55a2.8,2.8,0,0,1,.34-.61,7.26,7.26,0,0,0,.75-2.32c0-.85.34-1.75.36-2.4a5.23,5.23,0,0,1,.58-2.27c.3-.32,1.35-1.22,1.39-1.53s0-1.73,0-1.83a4.07,4.07,0,0,0-.33-.66,6.9,6.9,0,0,1-.87-.41,12.93,12.93,0,0,0-1.83-1.08,3.37,3.37,0,0,0-1.17-.18,3.48,3.48,0,0,0-.63.26c-.06.07-.19-.38-.17-.49a.67.67,0,0,0-.07-.34s-1.32-.66-1.44-.67-.15.33-.21.43,0,.39-.47.46-.63.19-.43-.08.49-.51.49-.6.21-.25,0-.38a.4.4,0,0,0-.54.15v0c0,.17-.62.3-.68.27a.64.64,0,0,1-.13-.42c0-.1.32-.52.35-.63a4.21,4.21,0,0,1,.29-.51,2.89,2.89,0,0,0-.27-.71,9.67,9.67,0,0,1-.29-1.18c-.07-.12-.34-.09-.44-.19a4.21,4.21,0,0,0-2-1c-.77,0-.93-.27-.89-.29a9.62,9.62,0,0,0-1.23-1.32c-.22-.14-.38-.82-.46-.84s-.07-.38,0-.47-.15-.35-.28-.32-1.36-.09-1.4-.08.1.35-.09.41a3.75,3.75,0,0,1-.82,0l-.89-.29-.56-.87a4.51,4.51,0,0,0-.53.1,5.62,5.62,0,0,0-.5.35c-.09.08-.12.57-.12.57s-.19.84-.27.78a2,2,0,0,1-.2-.73s.14-.53.2-.66.17-.21.19-.35-.22-.45-.3-.25a5.94,5.94,0,0,1-1.31,1.08c-.16,0-.43-.15-.51.18a2.88,2.88,0,0,1-.7,1c-.13.13-.23.46-.29.25s-.42-.81-.55-.79-1,.4-1.1.44a1.9,1.9,0,0,1-.69-.32c-.13-.1-.32-.31-.54-.51s-.4-.34-.37-.65-.08-1.64,0-1.68.29-.44.18-.63-.2-.46-.32-.51-.44-.34-.57-.3a8.87,8.87,0,0,1-1.36.08c-.16,0-.49,0-.5-.2s.09-1.39.09-1.39a3,3,0,0,1,.35-.6,1.44,1.44,0,0,0,.33-.68c0-.17.33-.7.18-.73s-1.26-.15-1.53.09a3.61,3.61,0,0,0-.52,1.21c-.09.25-.19.58-1,.62s-1,.3-1.16,0a4.24,4.24,0,0,1-1.34-2.65c0-1.55,0-2.21,0-2.33s.24-.22.1-.63-.17-1.18.28-1.31.49,0,.69-.31.41-.54.64-.52a4.49,4.49,0,0,1,1.37.12c.35.18.54.42.67.21a.72.72,0,0,0,0-.5,9.41,9.41,0,0,1,2.42-.22c.28.16.3.34.53.34s.34,0,.46,0a2.41,2.41,0,0,1,.66,1.26c0,.44.42.84.49,1.07s.15.88.45.84.31-.55.26-.85-.53-1.82-.59-2.36-.3-.51,0-1a3.54,3.54,0,0,1,.76-1,13,13,0,0,0,1.62-1.43c0-.13-.22-.3-.07-.45s.59-.2.41-.4a1.16,1.16,0,0,1-.38-.69c0-.26.06-.25-.11-.42s-.22-.34-.1-.38.19.25.3.25.13-.22.13-.28.06-.46.3-.55.33.28.43.27.27,0,.29-.13.13-.51.15-.64a.42.42,0,0,1,.24-.31l.29-.14c.14-.09,1.09-.3,1.11-.52a2.57,2.57,0,0,1,.08-.62,2.49,2.49,0,0,1,.47-.84,1.72,1.72,0,0,1,.6-.31c.18-.09.15,0,.33-.19s.45-.18.36-.4-.1-.22-.1-.3,0-.24,0-.24.27.4.32.44-.06,0,.1.08a1.39,1.39,0,0,0,.41,0c.17,0,.18,0,.23-.06s.25-.29.1-.81-.11-.56-.05-.55l.29,0s.21-.22.11-.29,0-.5,0-.5.09-.26,0-.26-.71.1-.71.1-.6.18-.81.22a5,5,0,0,0-.94.56c-.11.06-.4.1-.39.06a1.65,1.65,0,0,1,.39-.44,1,1,0,0,0,.28-.2l.35-.31a2.45,2.45,0,0,1,.84-.55,3.25,3.25,0,0,1,1.27-.2,3.07,3.07,0,0,0,.53.06c.27,0,.29,0,.8,0s1.09,0,1.21-.16,1.2-.82,1.2-.71a10.75,10.75,0,0,1-.49,1.45,1.88,1.88,0,0,0-.33.7c0,.24.17.32.42.37a5.66,5.66,0,0,0,.82.06l.63-.14.44-.2s0-.4,0-.45.08-.31-.12-.25-1.14-.23-1.14-.4a1.33,1.33,0,0,1,.22-.55.66.66,0,0,0,.17-.52c0-.33-.45-.87-.39-.93s.24-.36,0-.51a5.45,5.45,0,0,1-.62-.35c0-.07-.55.47-1.15.53s.06-.41.06-.41a1.93,1.93,0,0,1,.33-.31c.14-.06.42-.1.18-.3s-.3,0-.62,0-.15-.36-.43-.48a2,2,0,0,1-.55-.37c-.11-.1-.35-.32-.34-.36a.56.56,0,0,1,.26-.17c.12,0,.07-.27-.1-.39s-.48-.42-.48-.42a6,6,0,0,1-.5-.63c0-.06,0-.44-.12-.45s-.29-.08-.32.13.1.62-.2.7a.28.28,0,0,1-.37-.17l-.44.17c-.11.1-.22.2-.32.31h-.32s.08-.32-.07-.41-.73.07-.78.07-.36-.07-.27-.16l.21-.16a.78.78,0,0,0,.09-.21l-.13-.29s-.09-.17-.22-.16a.31.31,0,0,1-.2-.07,3.07,3.07,0,0,1,.31-.11l.28-.12-.17-.13-.2-.1-.73-.19a8,8,0,0,0-.77-.65,6,6,0,0,0-1-.07c-.2,0-.38.15-.5,0s-.74-.2-.77-.2a.27.27,0,0,0-.13.15s.35.45.35.45,0,.44,0,.53a1.36,1.36,0,0,1-.06.29,1.46,1.46,0,0,1,.12.37,2.33,2.33,0,0,1-.24.41,1.26,1.26,0,0,0-.21.32s.39.36.46.44a2.38,2.38,0,0,1,.29,1.14c-.07.27-.25.35-.25.42s-.17.17-.22.22l-.49.38s-.5.05-.5.16c.18.51.33,1,.46,1.54,0,.2-.06.74-.43.65a2.12,2.12,0,0,1-1.34-1c-.39-.65-.07-1.48-.25-1.59-.53,0-1.07-.06-1.61,0a6.2,6.2,0,0,1-1.59-.93,3.38,3.38,0,0,0-.7-.23l-1.3-.23s-.25-.72-.64-.88-1,0-.73-.78a3.5,3.5,0,0,1,1.11-1.71c.28-.12.55-.25.82-.39s.37-.69,0-.66-1.43.25-1.3.08,1-.26,1-.26.68.2.84.23.3,0,.36-.08a2,2,0,0,1,.54-.28s.8-.41.7-.42l-.62,0a1.08,1.08,0,0,1-.63-.18c-.23-.19-.53-.17-.42-.35s.66-.15.73-.12.56.18.69.21a1.84,1.84,0,0,0,.47.07s.17-.08.2-.16a.61.61,0,0,0,0-.3l-.1-.18.49-.21a2.67,2.67,0,0,1,.4,0s1.9-.07,1.91-.33a.89.89,0,0,0-.28-.6c-.08-.06-1.7-.61-1.7-.61l.1.36-.53.37-.44.68s-.93-.65-.86-.72.22-.39.13-.45-.47-.17-.71-.24c0,0,.59.73-.09.48a3.11,3.11,0,0,1-1-.57l-.28-.31s-.28-.24-.28-.34-.92-.85-1.19-.76-.44.18-.44.27.19.27.19.27l-.26.2a.6.6,0,0,0,.21.21,1.21,1.21,0,0,0,.55.16,4.6,4.6,0,0,1,.52.06s.48.33.19.57-.67.65-.79.63l-.38,0s-6.09-.1-6.09,0,.24.42.25.48a.67.67,0,0,1-.2.39c-.11.12-.45-.27-.64-.42a5.4,5.4,0,0,0-.77-.36l-5.29-1.21a15.54,15.54,0,0,1-1.93,0c-.61-.07-.59.24-.83.29s-.79-.81-1.09-.78a8.33,8.33,0,0,1-1.32.26c-.3-.05-.46.5-.46.5l-.58-.19a3,3,0,0,1-1.2.42l-1.14,0-1.13-.09-9.1-1.45a12,12,0,0,1-1.79.44,2.29,2.29,0,0,0-1.54.67,7.27,7.27,0,0,1-1.86.9,27.72,27.72,0,0,1,3.28,1.26,5.29,5.29,0,0,1-1.86.18,1.41,1.41,0,0,0-1.22,0c-.37.23-.06.57.16.77a4.89,4.89,0,0,0,2.11.32c.33-.1.87.2.8.26s-.85.55-.85.55-1,.28-1.17.28-.62.56-.62.56-.12.3-.06.34l.77.52.48,0s-.25.14-.4.2,0,.26.19.26.47,0,.47,0v-.07l.33.14.1.51.66,0a5.72,5.72,0,0,1,1.23-.19.58.58,0,0,1,.56.52c0,.09-2.27,1.91-1.93,2S1298,1605.14,1298,1605.14Z"/><path id="Path_14094" data-name="Path 14094" class="cls-23" d="M1369.32,1619.54s-.19-.71.26-.69,1.5.53,1.77.54.31,0,.31.08a.67.67,0,0,1,.38-.26c.31-.07,1.32-.74,1.52-.74a19.73,19.73,0,0,1,2.87-.24c.35.12.36.5.51.37s.29-.48.46-.48.48-.07.49.12.57-.19.58,0-.31.43-.31.51.1.39.16.58l-.06.48-.08.13a1.41,1.41,0,0,0,0,.46.39.39,0,0,0,.11.17.51.51,0,0,1,.16.13l.08.12.72.18s-.07,0,.16,0l.44,0s0-.08.26.21.39.43.39.43l.35.4.26.1a.87.87,0,0,1,.59.06l.25.22a.43.43,0,0,0,.18.15.84.84,0,0,0,.31.12c.21.05.29,0,.29,0l.09-.4.44-.94.35-.49a.35.35,0,0,1,.37,0c.22.1.4.12.48.24a8.18,8.18,0,0,0,2.23,1.07,6.37,6.37,0,0,0,1.3.19l.69-.15.54-.12s1,.11,1.09.14a8.92,8.92,0,0,1,.21,1.93.5.5,0,0,1-.21,0s0,.32,0,.33-.27-.32-.36-.44-.37-.54-.37-.54-.36-.27-.3-.07.65.63.67,1a5.18,5.18,0,0,0,.2,1c0,.1.18.56.22.66s.48,1,.48,1,0,.25,0,.37.07.41.15.4a1.62,1.62,0,0,1,.56.23s.1.42.1.42l.1.38a1.52,1.52,0,0,1,.06.42,3.16,3.16,0,0,0,.34,1.38,3.39,3.39,0,0,1,.53.9,4.26,4.26,0,0,0,.22.66c.06.12.19.26.27.4s1.4,1.62,1.4,1.62l-.2.29.16.15.47,0a2.8,2.8,0,0,1,0,.41.75.75,0,0,0,0,.3s.54.85,2.42.15,1.69-.19,1.65.15a13.78,13.78,0,0,1-2.83,5.44,17.83,17.83,0,0,0-2.35,3,18.45,18.45,0,0,0-1,1.71,7.16,7.16,0,0,0,.1,1.79c0,.26.1,1.39.1,1.39a6,6,0,0,1,.5,2.68c-.12,1.39-.08,2.09-.41,2.15a10.89,10.89,0,0,0-2.49,2.1c0,.23.3,1.85.28,2.15s-.13,1-.22,1-1.12.71-1.12,1a5.21,5.21,0,0,1-.2,1.47,8,8,0,0,0-.68.86c0,.13-1.64,2.78-3.17,3s-1.73.24-2.1.28-1,.24-1.19-.28.09,0-.27-1.21a19.84,19.84,0,0,0-1.34-3.06s-.35-2.35-.43-3-1.75-3.44-1.53-3.74.4-2.17.8-3.1a3.35,3.35,0,0,0,0-2.19c-.06-.22,0-.18,0-.64a7.9,7.9,0,0,0-.4-1.73c-.12-.49-1.81-3-1.74-3.34s.68-1.06.54-1.13a.5.5,0,0,1-.14-.6,1,1,0,0,0,0-.81c-.12-.34-.13-.88-.22-.9s-.35.65-.49.54.14-.73.14-.73l-.93.13-.79-.22a3.11,3.11,0,0,0-.09-.6c-.06-.16-.25-.16-.39-.21s-.77-.6-1.06-.46a3.64,3.64,0,0,0-.63.3,7.22,7.22,0,0,0-.77.43,1.48,1.48,0,0,1-1.35.34,2.39,2.39,0,0,0-1.72.16c-.37.24-.68.42-1,.19s-1.08-1.09-1.2-1.11a3.37,3.37,0,0,1-1.16-1.53c-.06-.56-1-1.6-1.31-2.11s-.44-.64-.42-.79.24-.17.42-.2.47.08.54-.06-.7-.26-.7-.26a.69.69,0,0,1-.5-.3l-.26-.47a8.65,8.65,0,0,0,.42-1,1.61,1.61,0,0,0,.08-.61c0-.28-.07-.53-.07-.53l0-1.66s-.3-.35-.28-.48a2.37,2.37,0,0,0,.09-.36c0-.13,0-.33,0-.33s1.55-3.33,2-3.5.47-.28.5-.39a.67.67,0,0,1,.19-.22l.83-.82a3.82,3.82,0,0,1,.09-1.26,1.48,1.48,0,0,1,.72-1.21c.27-.21.69-.44.77-.52A2.71,2.71,0,0,0,1369.32,1619.54Z"/><path id="Path_14095" data-name="Path 14095" class="cls-23" d="M1374.07,1614.52a.66.66,0,0,1-.32.77,3.22,3.22,0,0,0-1.14,1.44.73.73,0,0,0,.16.3s0,.13-.06.13-.22,0-.24.11a3.33,3.33,0,0,1-.58.76c-.12,0-.84.41-.86.41l-.64,0a5.33,5.33,0,0,0-.46.49c0,.06-.43.5-.58.06s.05-.57-.1-.69-.9,0-1.12-.06-.14-.16-.24-.55-.15-.71-.22-.73,0-.11.09-.18a3.27,3.27,0,0,0,.28-.37,3,3,0,0,1,0-.9c.08-.37.1-.63.12-.64l.13,0-.08-.42s-.33-.26-.23-.38a7.23,7.23,0,0,1,1.61-.1l1.4-.05c.13,0,.59.15.69.16s.25-.26.25-.26v-.44l.25-.41-.06-.5-.33-.43-.34-.47-.35-.36a.53.53,0,0,1-.45-.21.82.82,0,0,1-.16-.41,2.42,2.42,0,0,1,.7-.14c.24,0,.67,0,.72-.06l.09-.26a.1.1,0,0,1,.06-.14h0c.13,0,.43.07.55,0s.78-.26.78-.39a1.57,1.57,0,0,1,0-.37s0-.22.13-.23.12,0,.24.06.26,0,.28,0a1.34,1.34,0,0,1,.07-.18.41.41,0,0,1,.1-.09.5.5,0,0,1,.23-.09l.38.15a.06.06,0,0,0,.07,0h0a1.59,1.59,0,0,0,.07-.2s0-.18,0-.18a4.25,4.25,0,0,1,.55-.57c.1,0,.25-.4.38-.45s-.07,0,.33-.08a2.27,2.27,0,0,0,.44-.06c.13,0,.37,0,.37-.15s0-.13,0-.24a2.7,2.7,0,0,1,0-.28s.08-.2.22-.13a2.07,2.07,0,0,1,.45.27,2.64,2.64,0,0,0,.38.18l.36,0a11.72,11.72,0,0,1,1.45,0c0,.06,0,.18.23.06a10,10,0,0,1,1.21-.37l1-.09.42-.09s.55-.16.6-.27a3.07,3.07,0,0,0,.08-.67,2.68,2.68,0,0,1,.3-.77c.09,0,.11-.39.16-.41s.35.24.52.39.85-.16.81-.35,0-.21-.14-.3-.4-.06-.37-.24.31-.42.84-.45l.9-.08c.2,0,0,.31.26.22a6.86,6.86,0,0,0,.9-.57s-.3-.35-.26-.49-.15-.28-.32-.11a1.83,1.83,0,0,1-1.35.27c-.74-.06-2.15,0-2,0s-.12,0,0-.49-.16-.52-.06-.67c.47-.53,1-1,1.49-1.52.37-.31.53-.31.53-.67s-1.4-.29-1.49-.23-.62.26-.59.5.22.5,0,.62-.6.72-1,.72-1.25.88-1.16,1.28.7.54.66.68.13.19-.12.37-.14.47-.36.51-.46-.07-.53,0a5,5,0,0,0-.15.79.31.31,0,0,1,.14.41,1.24,1.24,0,0,1-.5.49s-.29-.07-.39.07-.38.4-.55.35a.32.32,0,0,1-.24-.33,19.19,19.19,0,0,1-.81-1.93c.06-.2.07-.06.26-.44s.46-.65.36-.78-.12-.18-.18-.17-.22-.15-.18,0,.15.29.1.37-.13.33-.23.33-.19.38-.25.5a.18.18,0,0,1-.22.08.2.2,0,0,1-.08-.08c-.1-.13.37-.33.13-.43s-.58.5-.58.5-.87,1-1.51.68-.5-.64-.39-.71.34-.34.3-.55-.21-.34,0-.56.36-.36.32-.44-.17-.24-.13-.29a10.36,10.36,0,0,1,1.55-.89c.45-.18,1-1.07,1.11-1.1l.22-.11s0-.52.12-.54.11.08.23,0,.31,0,.33,0a6,6,0,0,1-.31.93c-.05,0,.13.12.1.2s-.32.2-.32.2a.17.17,0,0,0,.16.17c.16,0,.33.17.38-.33a1.6,1.6,0,0,1,.22-.91c.14-.16.21,0,.48-.37s.45-.65.38-.65-.2.19-.26.09.13-.36.14-.38.18-.19.2-.12,0,.17.09.12a10.23,10.23,0,0,1,1-.37c.25,0,.49,0,.74-.09a1.68,1.68,0,0,0,.47-.22c.07-.07.38,0,.41,0s-.24-.32-.17-.33.12-.06.07-.12-.25-.21-.17-.3,1-.08,1.35-.27.46-.36.52-.34,0,.3.11.33.36-.2.49-.21h.6c.16,0,.28-.17.3-.17s.33.21.27.29.14.22.19.23.32,0,.28.09.07.07-.13.33-.27.44-.13.64.29.09.25.07a.24.24,0,0,1,0-.26,1.29,1.29,0,0,1,.3-.22c.09,0,1.2-.57,1.56-.43a13.92,13.92,0,0,1,2.54.57,1.21,1.21,0,0,0,.69.33c.28.08.8.1.8.4s-.15.37-.31.58-.22.26-1.08.18-1.43-.27-1.81-.32-.81-.33-1-.28-.16.37,0,.37a2.06,2.06,0,0,1,.84.41c.08.13.28.17.21.46s.35.72.41.72a4,4,0,0,1,.47.22l.57.1s.36-.06.42-.18a2.9,2.9,0,0,1,.53-.39l.78.1s-.27-.68-.27-.68a8.84,8.84,0,0,1,1-.37l1,0a1.44,1.44,0,0,0,.57-.37,1.19,1.19,0,0,1,.63-.19c.23,0,.7,0,.7,0a5,5,0,0,1,2.31-.9c.93.06.55.19,1.46.06s1.26-.21,1.26-.21a3,3,0,0,1,.93.15c.19.14,1.17.2,1,0s-.57-.53-.36-.7.8,0,.87,0a8.13,8.13,0,0,1,2.17.49,2.73,2.73,0,0,0,1,.43c.06,0,.44,0,.39-.17a2.64,2.64,0,0,0-.18-.38s-.3-.36-.34-.39l-.47-.52.22-.66a5.6,5.6,0,0,1,.59-.33s.43-.58.51-.65.61-.57.73-.52,1,.7,1,.83,0,0-.12.25-.3.22-.19.41a1.64,1.64,0,0,0,.26.33,1.08,1.08,0,0,1,0,.4c0,.16-.14.68-.14.68s0,.3,0,.44.42,0,.42.09-1.09,1.12-1.14,1.27,0,.28.11.28.67,0,.73,0,.92-.62.93-.76.09-.89.09-.89h.57s.46,0,.51.15.24.7.4.73a1.93,1.93,0,0,0,.48,0,.31.31,0,0,0-.17-.36l-.27-.14a1.38,1.38,0,0,1,0-.2l.2,0-.22-.3a2.13,2.13,0,0,0-.31-.29,4.08,4.08,0,0,1-.85-.08c-.46-.1-.75-.33-.75-.43s.12-.11.16-.19.36,0,0-.22-.26-.13-.36-.32a1.8,1.8,0,0,1-.17-.34c0-.05.27,0,.4,0l.43,0a8.71,8.71,0,0,0,1.66.54c.35,0,.22-.21,0-.32l-.84-.48s0-.14.11-.14a6,6,0,0,1,.65.08,1.29,1.29,0,0,0,.54-.15c.08-.07.26-.09.58.12a2.61,2.61,0,0,0,.86.27c.14.06.44.15.44.15s-.11.3-.18.3-.2.68-.2.68a3,3,0,0,0,.6.21c.23,0,.46-.25.34-.66a1.59,1.59,0,0,0-.79-1.08c-.44-.16-.57,0-.64-.25a1.35,1.35,0,0,1,0-.49c0-.07.18-.12.31-.14s3,0,3-.13-.4-.12-.33-.31-.15-.42-.15-.42,6.56-.88,7.53-.91,1.69-1,2-.86.14.27,1,.5,2.91.56,2.93.77.6,0,.43.23-3.11.94-3.36,1.44,2.94-.15,3.32-.06.59.18.73-.08.89-.23,1.17-.12.53.14.94.32a2.69,2.69,0,0,0,1,.13s1.48,0,1.62-.23,1.14-.13,1.59-.08,1.18.42,1.09.48l-.15.14a2.61,2.61,0,0,1-.28.17l.23.34s.79.75,1.32.69.38-.22.58-.35.25-.33.62-.3,3.51.15,3.51.15-.11-.13.18-.41a1.83,1.83,0,0,1,1.28-.32c.33,0,.51.48.8.52s.66.18.72.17a3.58,3.58,0,0,0,.45-.31,2.83,2.83,0,0,1,.65,0c.09,0,0,.28.39.28s5.56.52,5.64.67,0,.4.16.53a1.38,1.38,0,0,0,.84.2,14.34,14.34,0,0,1,3.34.15c.37.25.67.49,1,.4s.65-.1.65-.18-.16-.14-.16-.14l-.29-.3.28-.12s-.18-.13.08-.1,4.27.43,4.41.76a.68.68,0,0,1,0,.66,1.75,1.75,0,0,0-.07.91c.06.34.19.89.09,1s-.47.45-.6.42a2.76,2.76,0,0,0-.85-.19c-.18,0-1,.11-.71.17s.42,0,.63.08a4.11,4.11,0,0,1,.6.09.89.89,0,0,1,.27.48c.05.21.43.53.43.53s-.06.23-.44.23a12.18,12.18,0,0,0-1.35,0,25.69,25.69,0,0,0-2.67,1.08c-.21.25-.2.26-.49.22s-1.48-.08-2-.08a2.85,2.85,0,0,0-1.24.32c-.17.11-.29.28-.25.37s.1.44.24.4.08,0-.05.06a.65.65,0,0,1-.34,0l-.07-.1-.4.34s.06.38.19.41a1.85,1.85,0,0,1,.4.24l0,.41s.18.15.17.23-.21.16-.33.21-.54.37-.48.56.6.36.13.55-.77,0-.92.14a.79.79,0,0,0-.16.58c0,.1-.23.21-.36.24a3.2,3.2,0,0,0-.55.42l-.72.58-.51-1.21a17.13,17.13,0,0,1-.14-2.37c.1-.09.78-.06.78-.22s0-.45,0-.45a1.52,1.52,0,0,0,.42-.06c.11-.06,2.66-1.93,2.88-2s.4-.68.4-.68l.4-.26a2.86,2.86,0,0,0-.52-.27,2.21,2.21,0,0,0-.63.6,2.33,2.33,0,0,1-1,.68l-.63,0s.06.06.19-.14.36-.43,0-.46a3.77,3.77,0,0,0-1.84.3,12.9,12.9,0,0,0-1,.88,4.63,4.63,0,0,0,.32.42c.1.07.29.15-.2.15s-1.85.1-1.78.06a.32.32,0,0,0-.09-.43.29.29,0,0,0-.22,0c-.45,0-1.11.27-1,.28s-3.32,0-3.32,0a6.7,6.7,0,0,0-1.39.76c-.22.26-1.21,1.53-1.21,1.53l-.9.44a.41.41,0,0,0,.2.52c.35.13.42.3.41.34a.93.93,0,0,0,.5.32c.19,0,.64-.39.73-.39a6.33,6.33,0,0,1,.83.64l.26.84a.8.8,0,0,0-.23.36,6.82,6.82,0,0,0-.08.79s.25,1.13-1.74,3.12-2.61,1.51-2.61,1.51l-.65.28s-.38.3-.41.4-.08.32-.1.4-.4,1-.58,1a7.12,7.12,0,0,0-1,.41l.59.58c.21.3.41.61.59.93a7.85,7.85,0,0,1,0,.84c0,.19.07.6-.22.6s-1,.09-1.12.09-.28-.22-.17-.48a7.92,7.92,0,0,0,.29-1.06,1.1,1.1,0,0,0,0-.51l-.53-.18s-.19.2-.27-.1-.13-.24-.07-.32.1-.09.1-.09l0-.07s.22-.18,0-.27l-.26-.11-.22-.06-.39.09-.36.14s-.81.28-.83.2.21-.52.21-.64a4.17,4.17,0,0,0,.07-.56s-.28-.17-.81.23-.43.53-.74.68l-.4.16-.18.34s0,.52.13.5.55.6.55.67.44,0,.6-.12a1.4,1.4,0,0,1,.88.08c0,.09,0,.27-.08.27s-.75.13-.9.34-.53.86-.53.86,1,.84,1,1,.32.53.22.58-.76.21-.59.3.82.29.76.55a.51.51,0,0,1-.32.32s-.3.2-.12.32.26.18.27.28.1.28,0,.45a6,6,0,0,0-.65,1.12c0,.21,0,.1-.24.46a2.07,2.07,0,0,0-.34.66s-.66,1.06-.91,1.16-1,.82-1.42.8-.15-.28-.51-.06a17.89,17.89,0,0,1-1.88.74l-1.31,0s-.39.2-.34.24.49.3.38.31a6.29,6.29,0,0,0-.72.74s-.29.62,0,.88a12.47,12.47,0,0,1,.9,1.59l.55.72s0,0,.14.45a3.05,3.05,0,0,1,0,1.41c-.1.31-.33.81-.5.88s-.28,0-.66.29a2.76,2.76,0,0,0-.56.83c-.08.1-.22.21-.29.16a3.82,3.82,0,0,1-.15-.67s.2-.31.13-.37a.68.68,0,0,0-.34-.06s0,.12-.23-.08-.3-.08-.45-.54-.1-.49-.26-.67-.18-.09-.39-.19-.47,0-.52-.16a.77.77,0,0,0-.17-.27l-.17.07a.58.58,0,0,1,0,.41c-.1.16-.19.4-.26.35s-.15.23-.15.23l-.11,1.08.12.77s.22.35.45.8a8.93,8.93,0,0,0,1.4,1.48,1.25,1.25,0,0,1,.25,1,4.33,4.33,0,0,0,.35,1.59s.23.32-.06.34a2.61,2.61,0,0,1-1.48-1.17c-.27-.78-.51-1.57-.7-2.37-.21-.44-.77-1.47-.77-1.47l.33-2.93a3.64,3.64,0,0,1-.3-.63c0-.14-.43-1.61-.43-1.61s-.53.11-.65,0-.86.27-1-.16.51-.74-.21-1.51a4.23,4.23,0,0,1-1-1.54l-.58-.67a5,5,0,0,1-1,.36c-.16,0-.1-.64-.1-.64s-.21.49-.32.54a3,3,0,0,0-.53.4s-.21,1-.5,1.1-.42.2-.53.36-.59.7-.59.7a3.22,3.22,0,0,0-.69.64,2.49,2.49,0,0,1-.57.8c-.2.12-.74.36-.74.36a4.09,4.09,0,0,1,0,.7,14.3,14.3,0,0,1-.28,2.52c-.19.06,0,.42-.3.64a1.68,1.68,0,0,0-.51.55q-.11.27-.18.54c0,.08,0,.42-.22.08s-.66-1.27-.71-1.47-.9-3.68-.9-3.68a8.81,8.81,0,0,1-.66-1.47,16.49,16.49,0,0,1-.17-2.33s.08-.5-.16-.52-.24.73-.24.73l-.37.43s-.64-.59-.78-.69a.93.93,0,0,1-.21-.36l.38-.24s.24-.08.24-.25-.45-.1-.45-.1l-.61-.31-.11-.17-.21-.12-.18-.24a4.12,4.12,0,0,0-2.36-.68,9.82,9.82,0,0,1-2.35-.29l-.7-.41a2,2,0,0,0,0-.54c-.06-.1-.22.1-.82.16a1.81,1.81,0,0,1-1-.19l-.39-.45a.84.84,0,0,1-.81-.43c-.34-.53-.38-.9-.9-.94s-.54,0-.56.08a2.43,2.43,0,0,0,0,.38,3.38,3.38,0,0,0,.38.9c.34.64.36.64.61,1.11s.49,1,.49,1l.28.52s-.13.31.43.11a3.22,3.22,0,0,1,.92-.2l.3,0,.29-.2s.35-.36.48-.33.28.3.28.38a.38.38,0,0,0,.27.41,4.38,4.38,0,0,1,.54.23c.14.09.41.26.48.32s0,.06.1.18a2.35,2.35,0,0,1,.08.6l-.29.44a1.12,1.12,0,0,0-.22.16c-.07.08-.3.42-.3.42l-.15.25-.09.24-.21.33-.28.4a1.34,1.34,0,0,1-.21.2l-.23.15-.1.07-.13.21-.05.06a5.39,5.39,0,0,1-.95.27c-.17,0-.72.46-.72.46l-.48.68a9.24,9.24,0,0,1-1,.61,19.32,19.32,0,0,1-3,1.09,1.21,1.21,0,0,1,.05-.42l-.17-1.93s-.34-1.16-.68-1.38-.37-.68-.5-.88-.8-.75-.84-.9-.12-1.62-.12-1.62l-.71-.7-1.28-2.73-.3-1.69s.17-.06.24,0a1.51,1.51,0,0,1,.23.21l.06-.59a.88.88,0,0,0,.17-.35,6.18,6.18,0,0,0-.26-.76,7,7,0,0,1,.48-.84l-.08-.79.52-.54a12.62,12.62,0,0,0-1.33,0c-.31,0-.6.54-1,.34s-.38-.49-.9-.42a1.52,1.52,0,0,1-2-.82,1.83,1.83,0,0,1-.08-.25,7,7,0,0,0-.29-.88s.6-.42.05-.63a1.93,1.93,0,0,0-1.14,0s0,.18-.14.21a2.54,2.54,0,0,0-.54.44,2.76,2.76,0,0,1-.2.47,2.1,2.1,0,0,0-.2.49l.21.52s-.26.52-.29.34a7.6,7.6,0,0,0-.1-1.07c-.08-.13-.26-.69-.43-.7a.41.41,0,0,1-.37-.18,1.54,1.54,0,0,1-.22-.49l0-.48-.1-.39a17.45,17.45,0,0,1-1.8-1.41c0-.15-.28-.42-.28-.42l-.24-.3a4.4,4.4,0,0,1-.5-.21c-.22-.11-.29-.41-.39-.41s-.4.52-.4.52a4.67,4.67,0,0,0,.63,1.36c.27.22,1.37,1.41,1.37,1.41l.86.34s.3.14.24.27-.07.14-.18.09-.46-.12-.69-.17c0,0,.22.74.25.77s0,0-.28.28-.48.49-.48.49.1-.54.13-.79-.38-.65-.38-.65-.8-.8-1.06-.8-1.17-1-1.3-1.25,0-.45-.28-.62-1.12.28-1.68.56a1,1,0,0,1-1.06-.14l-.64.33Z"/><path id="Path_14096" data-name="Path 14096" class="cls-23" d="M1422.33,1642s.41.11,1.05.94a4.2,4.2,0,0,0,1.17,1.13,8.87,8.87,0,0,1,1.1,1.11c.06.19.14-.3.4,0s0,.15.45,1,.69.52.67,1,0,1.83-.34,1.67a21.45,21.45,0,0,1-2.95-4.07,1.66,1.66,0,0,0-.56-.86c-.12-.1-1.7-1.89-1.4-2.09a.27.27,0,0,1,.36.05A.31.31,0,0,1,1422.33,1642Z"/><path id="Path_14097" data-name="Path 14097" class="cls-23" d="M1429.18,1644.35l.4,0,.4-.1s.51-.75.65-.88a3.59,3.59,0,0,1,.5-.37s.48-.19.6-.26.38-.86.66-1,.75-.46.75-.46a2.28,2.28,0,0,0,.42.5c.14.07.75.09.59.29s-.66.38-.73.46a2.13,2.13,0,0,0-.07,1.57c.3.5.6.47.36.61a3.49,3.49,0,0,0-.68.85s-.34.72-.43.85a3.62,3.62,0,0,0-.17.87s-.39.61-.68.68-.14-.72-.31-.76-.35-.22-.47-.22h-1.46a4.38,4.38,0,0,0-.18-1.14C1429.15,1645.18,1428.94,1644.56,1429.18,1644.35Z"/><path id="Path_14098" data-name="Path 14098" class="cls-23" d="M1427.31,1649.32s.24-.22,1.34.08,1.27.09,1.31.09a2.24,2.24,0,0,1,.6.25,3.21,3.21,0,0,0,.79.48c.21.06.59,0,.39.19a4.18,4.18,0,0,1-2.35-.1c-.75-.29-1.85-.71-2-.77S1427.25,1649.34,1427.31,1649.32Z"/><path id="Path_14099" data-name="Path 14099" class="cls-23" d="M1442.26,1647.41s-.32-.48-.42-.44.08.67.35.81l1.26.71c.25.14.91.53.91.73a3.05,3.05,0,0,0,.66,1.32,2.55,2.55,0,0,0,.5.24s-.1-.32,0-.25a2.08,2.08,0,0,0,.8.36c.16,0,.44,0,.17-.26s-.43-.35-.37-.4a1.62,1.62,0,0,1,.62-.06,4.8,4.8,0,0,0,1-.29s2.27,2,2.18,1.65a12.61,12.61,0,0,0-1.14-1.58.52.52,0,0,1,0-.56c.07,0,.29-.08-.28-.41a2.77,2.77,0,0,1-.86-.81,29.78,29.78,0,0,0-3.42-1.64c-.62-.11-.75-.26-1,.16s-.27.72-.64.72Z"/><path id="Path_14100" data-name="Path 14100" class="cls-23" d="M1439.41,1654.43a.7.7,0,0,1,.38-.92l.06,0c.71-.34,1.15-.5,1.15-.5l.19-.42,1,.5,1.09.14-.3.36a4.22,4.22,0,0,0-.21,1.22l.35.47a16.83,16.83,0,0,0,1.39,1c.56.34,1.14-1.75,1.14-1.75a10.84,10.84,0,0,1,.41-2.33c.19,0,.69,2.24.74,2.29s.53,0,.6.15a5.54,5.54,0,0,1,.21.8l.33.86s-.06.59.2.82a9.83,9.83,0,0,1,1.63,2c.34.71.5.17.52.2a2,2,0,0,1,.14.41,3,3,0,0,0,.32.54s2.35,1.69.5,5.39-1,2.92-2.1,3-1.27.51-1.55.3-1.2.11-1.2.11a14.88,14.88,0,0,1-1.27-.78,14.17,14.17,0,0,1-.86-1.45,4.36,4.36,0,0,1-.68-.81,3.73,3.73,0,0,1,.12-.56,1.43,1.43,0,0,0-.56.41c-.31.34-.46.67-.61.74s-.84-1.18-.84-1.18-3.71-.45-4.79.26-1.23.26-1.94.22-.8.85-1.18.85-1.85-.41-1.67-.81a11.92,11.92,0,0,0-.34-3.37,7.09,7.09,0,0,1-.18-1.52c0-.3-.13-2.33-.13-2.33s1-.49,2-.93,2-.93,2-1.19a5.58,5.58,0,0,1,.09-.81s.49-.37.62,0,.15.52.37.56.25-.26.09-.45-.31-.33-.15-.33h.46s.09-.66.27-.57.89-.83.9-.86a2.08,2.08,0,0,1,.47.51c0,.06,0,0,.13.32s.6,0,.61-.06S1439.41,1654.43,1439.41,1654.43Z"/><g id="Group_3287" data-name="Group 3287"><g id="Group_3286" data-name="Group 3286"><path id="Path_14101" data-name="Path 14101" class="cls-23" d="M1350.54,1590.35a.5.5,0,0,0,.56.06c.26-.17.59.28,1,.36s1.27-.14,1.09.12-.1.41.13.65a.75.75,0,0,1,.25.65,1.39,1.39,0,0,1-.2.77,1,1,0,0,0-.22.67c0,.12-.59.14-.51.35s.87.36.9.1,0-.39.08-.55.46.16.6.16.55,0,.5.16-.31.25-.27.43.46.3.23.49a.44.44,0,0,1-.61,0,4,4,0,0,0-1.19-.21s-.26.35-.1.41-.28,0-.38.12a.41.41,0,0,0,0,.47.67.67,0,0,0,.57.19c.25-.06.81-.11.5-.29s-.28,0-.32-.2.19-.36.19-.36a1.33,1.33,0,0,0,.6.25c.23,0,.46-.1.43.13a1.44,1.44,0,0,1-.42.71.84.84,0,0,0-.26.58c0,.13.21.25.22.32a.53.53,0,0,1-.22.4.6.6,0,0,0-.23.19.56.56,0,0,1-.6,0c-.18-.12.08-.59-.12-.59a.72.72,0,0,0-.5.18.89.89,0,0,0-.28.3s.14.11.24.21,0,.49-.12.5-.48,0-.3.2.27,0,.34.19a.36.36,0,0,1,0,.37s-.09,0-.1.11-.38.8-.27.85-.11,0,.37-.33.5-.57.5-.29-.12.45-.18.45-.64.49-.54.71.26.49.29.56.12.1,0,.25-.28.21-.07.28a1.47,1.47,0,0,1,.39.21s.16.54.25.73,0,.23.11.27.29.2.51,0,.67-.13.73-.28.21-.31.24-.07a.55.55,0,0,1-.14.44.35.35,0,0,0,.11.37c.13.07,0,.35.3.34s.22.15.3-.14,0-.42.23-.71a2.83,2.83,0,0,1,.37-.4,2.52,2.52,0,0,0,.35-.3c0-.06.49-.24.32-.38s-.32-.19-.08-.36.44,0,.53-.11a.92.92,0,0,0,.18-.3c.09-.18.12-.29.24-.35a.89.89,0,0,1,.5-.15c.2,0,.3-.07.16-.24s-.35-.22-.33-.3.18-.17.28-.23a.33.33,0,0,0,.19-.24c0-.09,0-.13,0-.21s.34,0,.4,0l.06-.13a1.38,1.38,0,0,1,.41-.26c.13,0,.07.13.22.11s.19.07.32,0,.25-.18.25-.25a2,2,0,0,1,0-.24s.3-.24.35-.19,0,.08,0,.2-.35.29-.16.38.16.26.3.07a1.13,1.13,0,0,1,.49-.32s.33-.28.35-.26a.85.85,0,0,0,0-.15s.84,0,1.11-.21.48-.56.66-.64.55-.11.51-.33-.21-.55-.08-.51.37.41.61.43.3,0,.26-.06,1.5-.23,1.94-.29a1.87,1.87,0,0,0,1-.44,5.31,5.31,0,0,1,1-.53c.37-.14.73-.16.75-.2s.28-.1-.07-.11a6.13,6.13,0,0,1-.86,0,4.19,4.19,0,0,0-1.12,0c-.33.07-1.1.22-1,.06s.28-.17.09-.3-.16-.18-.16-.18l.77-.28a1.21,1.21,0,0,0,.38,0c.14,0,.25-.33.25-.33s-.69-.08-.72-.25-.08-.26,0-.28.4.17.87.31a4.55,4.55,0,0,1,.93.35s0,.23.14.3a4.19,4.19,0,0,0,.7.26c.06,0,.42-.42.16-.64s-.44-.51-.67-.59a4.41,4.41,0,0,0-.54-.24c-.2,0-.1.06-.42-.21l-.42-.39c-.07-.07.18-.34.36-.26s.49.33.6.21.24-.29.22-.33-.3-.19-.23-.21.59.35.68.28.14.39.36.29.64-.54.6-.66.22-.27.35-.29.2-.2.2-.4,0-.16-.07-.45a.64.64,0,0,1,0-.45.56.56,0,0,1,.21-.27.62.62,0,0,1,.3-.09l.1,0s1.66-.07,1.39-.31-1.06-.16-1-.33.86,0,.77-.1-1.18.16-1.18,0,.57-.42.57-.46-.29-.17.2-.37a6.82,6.82,0,0,0,1.28-.68,2.12,2.12,0,0,1,1-.3,3.21,3.21,0,0,0,.52-.11c.08,0,2.28-.52,1.4-.54s-2.08-.57-2.66-.25a5.24,5.24,0,0,1-1.17.41c-.31.12-1.4.67-1.18.38s.87-.5.87-.64-.53-.21-.72-.11-.78.3-.78.3-1,.11-.84,0a5.72,5.72,0,0,1,1-.4s-2.91.21-3,.17.64-.42,1-.35a22.65,22.65,0,0,0,2.6-.14c.14,0,.54-.27.12-.27l-4.06.06c-.44,0-3.57,0-3.84,0s-.49.26-.25.29a5.41,5.41,0,0,1,.79.21s-1.3,0-1.4.08-1.33-.12-1.33-.12-1.14-.38-1.16-.21.36.39.36.39l-.26.08-1-.27s-.69.4-.69.4l.3-.44a12.54,12.54,0,0,0-2.21.08c.06.13.91.38.47.38s-1.27-.82-1.55-.48.1.61-.62.71-1.47.14-1.54.14-1.42.23-1.37.35a3.74,3.74,0,0,0,1.29.19c.1,0,0,.19-.28.23s-1.28.49-1.39.49-1.68.15-1.84.16l-.94.11-.23.28s.66.15.89.17l.81.09s.8,0,.34.22a3.74,3.74,0,0,1-1.32.26c-.25,0-.8-.15-.57.12s1.59.11,1.33.26-1.08.23-1,.29A5.45,5.45,0,0,0,1350.54,1590.35Z"/><path id="Path_14102" data-name="Path 14102" class="cls-23" d="M1330.12,1592.4a.91.91,0,0,0,.43-.07c.2-.09,0-.21.72-.31s1.41-.36,1.19-.48a1.65,1.65,0,0,0-.88-.24c-.22.08-.19-.08-.7-.06a6.22,6.22,0,0,0-1.29.22,3.59,3.59,0,0,1-.91.78c-.35.12-.59.23-.42.3s.52,0,.31.28,0,.32.29.17.8,0,1-.23S1330,1592.4,1330.12,1592.4Z"/><path id="Path_14103" data-name="Path 14103" class="cls-23" d="M1330.66,1592.68s-.61,0-.25-.13.58-.32.93-.36,1.37-.43,1.3-.29-.3.42,0,.35.79-.26.82-.18-.26.2-.25.25.12-.08.36,0,.25.08.34,0a.21.21,0,0,0,.09-.2s.08,0,.08,0,.19.24.1.37,0,.46.11.4.17-.31.31-.47.57-.57.75-.49.25.16.13.28,0,.35-.08.47a1.55,1.55,0,0,1-.27.24c-.14.11-.27.17-.15.28a1.83,1.83,0,0,0,.44.28c.06,0,.33.24.25.33a.57.57,0,0,1-.48,0c-.14,0-.19-.06-.27,0a.25.25,0,0,1-.17,0c-.06,0-.58.09-.21.18s.93.24.43.29a1.91,1.91,0,0,1-1-.07,1.8,1.8,0,0,0-.55-.24l-.11,0a9.25,9.25,0,0,1-.93.32,5.92,5.92,0,0,1-1.83.1c0-.14.16-.19.2-.26s-.1,0-.24,0-.5-.05-.55-.24.27-.49.42-.46a7.13,7.13,0,0,0,1.6.07c.34-.08.22-.14,0-.15s-1.2,0-1.26,0-.64-.11-.59-.18a5,5,0,0,1,.86-.14s.52,0,.31-.16a.63.63,0,0,0-.4-.1A.45.45,0,0,1,1330.66,1592.68Z"/><path id="Path_14104" data-name="Path 14104" class="cls-23" d="M1338.8,1597.26s-.32.22-.47.14.3-.26.36-.3a2.25,2.25,0,0,0,.34-.41,4.23,4.23,0,0,1,.63-.64c.09,0,.35.1.25.17s-.22,0-.19.12.34.11.44.2.46.29.46.33-.21.16-.22.2a1,1,0,0,0,.37.19c.06,0,.13.19-.15.21s-.52-.08-.48-.18,0-.37-.27-.27-.32.38-.46.35-.5.35-.6.28,0-.15.07-.17S1339,1597.18,1338.8,1597.26Z"/><path id="Path_14105" data-name="Path 14105" class="cls-23" d="M1342.54,1597c-.08,0-.3.24-.59.1s-.4-.17-.18-.26.65-.35.7-.35a.36.36,0,0,1,.23.17c0,.09.14.16.22.1s.12-.19.21-.19.55-.12.67-.11,0-.25-.12-.33.12-.14.13-.14a3.2,3.2,0,0,0,.63-.4c0-.1.14,0,.28-.19s.06-.59.06-.59a12.32,12.32,0,0,0-.89-.88,1.4,1.4,0,0,1-.42-.42c0-.06-.15-.09-.18,0s0,.06,0,.09.32.22.1.26-.63-.26-1.06-.13-.28.16-.26.15-1.3-.18-1.49-.24a3.85,3.85,0,0,0-.48,0c-.13,0-.42-.08-.27-.2s.35-.3.5-.22.42.09.4,0-.89-.36-.76-.42a2.78,2.78,0,0,0,.34-.26,2.25,2.25,0,0,1,.39-.3,7.18,7.18,0,0,1,1.1-.48,6.71,6.71,0,0,0,.76-.13s.23,0,.12.1-.57.18-.67.28-.47.33-.54.48-.23.25-.11.36.28.24.15.26-.26.23-.1.2.4-.15.4-.22a.28.28,0,0,0-.09-.2c0-.07-.15-.26,0-.31a.48.48,0,0,1,.38.09s.29-.09.24-.12-.42,0-.4-.13a.35.35,0,0,1,.2-.24,4.62,4.62,0,0,0,.62-.23.81.81,0,0,1,.54-.19c.23,0,.49,0,.5,0s-.25,0-.08.17a.21.21,0,0,1,0,.29l0,0a2.58,2.58,0,0,0-.27.12,1.17,1.17,0,0,0-.35.35s.15.16.22.1a2.1,2.1,0,0,1,.53-.29c.07,0,.24.06.18.08s-.18.08-.13.11a.44.44,0,0,0,.24.07c.1,0,.27-.11.26-.17a.41.41,0,0,1,.07-.22,2.16,2.16,0,0,1,.84,0c.19.11.23.23,0,.23s-.48-.09-.48,0,.27.32.35.34a2.22,2.22,0,0,0,.3.11,1.55,1.55,0,0,0,.43,0,1.3,1.3,0,0,1,.26-.14c.09,0,.17,0,.19,0a.14.14,0,0,1-.07.17l-.3.14c-.17.07-.34.09-.21.16a.71.71,0,0,0,.28.09s.26-.31.39-.34,0,.16,0,.19a1,1,0,0,1-.2.15.9.9,0,0,0-.2.14s-.1.09-.06.1a1.61,1.61,0,0,1,.29.09s.25.5.14.55-.11.07,0,.16.07.16.22.22a.87.87,0,0,1,.3.15,1,1,0,0,0,.43.14c.09,0,.7.27.63.31s-.19.22-.06.26a1.57,1.57,0,0,0,.37,0c.08,0,.22,0,.06.12a2.53,2.53,0,0,0-.65.29,1.6,1.6,0,0,1-.27.25s0,.3-.13.37-.24-.16-.25-.28-.15-.18,0-.27.52-.25.47-.28a.78.78,0,0,0-.37,0s-.34.26-.4.16-.16-.18-.19-.28,0-.3-.11-.23a.49.49,0,0,0-.17.23s-.38.32-.42.27-.29-.06-.22,0,.4.33.42.37a2.37,2.37,0,0,1,.28.81c0,.2,0,.26-.07.29s-.21.21-.23.23,0,.17-.15.09-.47-.16-.52-.25,0-.31-.14-.27-.16.1-.25.06a.22.22,0,0,0-.22.07s.7.59.7.7-.07.26-.17.2-.83-.2-.87-.31-.07-.15-.15-.17-.38-.12-.45-.13-.1,0-.09-.1.06-.08.1-.16a.88.88,0,0,0,.09-.19l-.5-.26s.16-.22,0-.2-.57,0-.64,0l-.15,0-.1,0Z"/></g></g><path id="Path_14106" data-name="Path 14106" class="cls-17" d="M1298,1605.14s2.17-1.27,1.93-1.51-.05-.54.32-.72.39.18.43.34,1.24-.24,1.46-.26.55.06.74-.43.68-.3.49-.08.34.18.88.18a10.8,10.8,0,0,1,2.89.3c.36.23,2.29,2.56,2.66,2.56s1,1.25,1.28,1.07.25-1.23.46-1,0,.56.07.74a2.9,2.9,0,0,1,.09.83c0,.3.46.42.8.68s.59,0,.63.24-.26.77-.28,1,2.34,1.55,2.34,2.94-.4,1.64-.27,2.29a5.54,5.54,0,0,1,.19,1.57,3.16,3.16,0,0,0,.17,1.18c.11.31.79,1.09.85,1.29a5.24,5.24,0,0,0,.43.77c.09.16.09.5.25.72s.09.2.38.24a2.45,2.45,0,0,1,1.48,1.25,15,15,0,0,0,1.42,2.42c.13.15,0,.4-.19.38s0,.54.07.58,1,.43,1.16.73.24.74.31.93.45.33.58.59.35.76.56.53-.37-.91-.6-1.35-.75-1.82-.91-2.07a12.63,12.63,0,0,0-.87-1.28,1.78,1.78,0,0,1-.15-1.31c.13,0,.49-.08,1,1.29a9.78,9.78,0,0,0,1.7,2.58,4,4,0,0,0,.28.67,7.74,7.74,0,0,1,1.71,2.16c.41,1.06,0,1.82,1.24,2.57a11.36,11.36,0,0,0,3.28,1.46,6.75,6.75,0,0,1,1.42-.11c.15.1.9.9.9.9a4.83,4.83,0,0,1,2.25,1.22c.63.84.88,1,.94,1.47s.57.64.82.72.34,1.07.84,1,.66.08.61.22.37.26.42.24.34.2.43-.2.13-1,.45-.86.36.78.53,1a5.14,5.14,0,0,1,.14,2.88,3,3,0,0,0-.58,1,4.35,4.35,0,0,1-.37.75c-.07.2-.57,1.18-.61,1.34s-.22.45,0,.55.49,0,.45.24,0,.34-.16.4a5.71,5.71,0,0,0-.51.58,1.53,1.53,0,0,0,.16.73c.18.2,0,.26.43.94a19.77,19.77,0,0,1,1.86,3.67,4.27,4.27,0,0,0,.58,1.51,10.81,10.81,0,0,0,2,1.8,3.87,3.87,0,0,1,.62.93,26.73,26.73,0,0,1,0,4.1c-.1.5-.2,1.37-.29,1.67s-.35,1.27-.35,1.27a19.23,19.23,0,0,1,0,2.4,5.62,5.62,0,0,1-.54,1.92,2,2,0,0,0-.51,1c0,.2.25.75.26,1a4.24,4.24,0,0,1-.15,1c-.05.15-.26.68-.26.68s-.15,1.38,0,1.38.31-.49.3-.6.15-.7.25-.32a5.2,5.2,0,0,1-.13,1.67c-.07.13-.43-.06-.42-.11a.7.7,0,0,1-.19.55c-.22.3-.67.77-.6.88s.29.12.36.14.09.28.09.28a4,4,0,0,1-.09.48,2.06,2.06,0,0,0-.29.3s.07,1.59.34,1.63.67,1.23.69,1.39.06,1,.23,1a20.52,20.52,0,0,0,2.2,1.1c.41,0,1.25-.18,1.31-.37a.45.45,0,0,0-.13-.53,2.86,2.86,0,0,1-.7-1,7.9,7.9,0,0,1-.45-1.32c0-.29-.3-.45.11-.84s.49-.16.69-.56c.07-.13.14-.27.2-.41s.72-.4.62-.72-1.08-.13-1-.69.65-.74.84-.86a1.35,1.35,0,0,0,.45-.8c0-.32.48-.58.58-.73s.23-.38.08-.38a2.07,2.07,0,0,1-.49-.12s-.35-.4-.14-.62.75-.15,1-.15.56,0,.49-.28,0-.93.13-.92a20.39,20.39,0,0,0,2.16-.61.9.9,0,0,0,.31-.41c.08-.16.27-.48.27-.48a5.72,5.72,0,0,1-.32-.48c-.17-.28-.2-.85-.31-.86a7.4,7.4,0,0,0,1.88-.06,3.33,3.33,0,0,0,.82-1,5,5,0,0,1,.08-.56c.08-.23.31-.34.36-.44l.1-.24a10.56,10.56,0,0,1,.71-.84c.2-.31.39-.64.56-1,0-.1.28,0,.3-.23s.21-1.47.31-1.86.56-.5,1-.81.7-.23.84-.56,1.32-.38,1.34-.55a2.8,2.8,0,0,1,.34-.61,7.26,7.26,0,0,0,.75-2.32c0-.85.34-1.75.36-2.4a5.23,5.23,0,0,1,.58-2.27c.3-.32,1.35-1.22,1.39-1.53s0-1.73,0-1.83a4.07,4.07,0,0,0-.33-.66,6.9,6.9,0,0,1-.87-.41,12.93,12.93,0,0,0-1.83-1.08,3.37,3.37,0,0,0-1.17-.18,3.48,3.48,0,0,0-.63.26c-.06.07-.19-.38-.17-.49a.67.67,0,0,0-.07-.34s-1.32-.66-1.44-.67-.15.33-.21.43,0,.39-.47.46-.63.19-.43-.08.49-.51.49-.6.21-.25,0-.38a.4.4,0,0,0-.54.15v0c0,.17-.62.3-.68.27a.64.64,0,0,1-.13-.42c0-.1.32-.52.35-.63a4.21,4.21,0,0,1,.29-.51,2.89,2.89,0,0,0-.27-.71,9.67,9.67,0,0,1-.29-1.18c-.07-.12-.34-.09-.44-.19a4.21,4.21,0,0,0-2-1c-.77,0-.93-.27-.89-.29a9.62,9.62,0,0,0-1.23-1.32c-.22-.14-.38-.82-.46-.84s-.07-.38,0-.47-.15-.35-.28-.32-1.36-.09-1.4-.08.1.35-.09.41a3.75,3.75,0,0,1-.82,0l-.89-.29-.56-.87a4.51,4.51,0,0,0-.53.1,5.62,5.62,0,0,0-.5.35c-.09.08-.12.57-.12.57s-.19.84-.27.78a2,2,0,0,1-.2-.73s.14-.53.2-.66.17-.21.19-.35-.22-.45-.3-.25a5.94,5.94,0,0,1-1.31,1.08c-.16,0-.43-.15-.51.18a2.88,2.88,0,0,1-.7,1c-.13.13-.23.46-.29.25s-.42-.81-.55-.79-1,.4-1.1.44a1.9,1.9,0,0,1-.69-.32c-.13-.1-.32-.31-.54-.51s-.4-.34-.37-.65-.08-1.64,0-1.68.29-.44.18-.63-.2-.46-.32-.51-.44-.34-.57-.3a8.87,8.87,0,0,1-1.36.08c-.16,0-.49,0-.5-.2s.09-1.39.09-1.39a3,3,0,0,1,.35-.6,1.44,1.44,0,0,0,.33-.68c0-.17.33-.7.18-.73s-1.26-.15-1.53.09a3.61,3.61,0,0,0-.52,1.21c-.09.25-.19.58-1,.62s-1,.3-1.16,0a4.24,4.24,0,0,1-1.34-2.65c0-1.55,0-2.21,0-2.33s.24-.22.1-.63-.17-1.18.28-1.31.49,0,.69-.31.41-.54.64-.52a4.49,4.49,0,0,1,1.37.12c.35.18.54.42.67.21a.72.72,0,0,0,0-.5,9.41,9.41,0,0,1,2.42-.22c.28.16.3.34.53.34s.34,0,.46,0a2.41,2.41,0,0,1,.66,1.26c0,.44.42.84.49,1.07s.15.88.45.84.31-.55.26-.85-.53-1.82-.59-2.36-.3-.51,0-1a3.54,3.54,0,0,1,.76-1,13,13,0,0,0,1.62-1.43c0-.13-.22-.3-.07-.45s.59-.2.41-.4a1.16,1.16,0,0,1-.38-.69c0-.26.06-.25-.11-.42s-.22-.34-.1-.38.19.25.3.25.13-.22.13-.28.06-.46.3-.55.33.28.43.27.27,0,.29-.13.13-.51.15-.64a.42.42,0,0,1,.24-.31l.29-.14c.14-.09,1.09-.3,1.11-.52a2.57,2.57,0,0,1,.08-.62,2.49,2.49,0,0,1,.47-.84,1.72,1.72,0,0,1,.6-.31c.18-.09.15,0,.33-.19s.45-.18.36-.4-.1-.22-.1-.3,0-.24,0-.24.27.4.32.44-.06,0,.1.08a1.39,1.39,0,0,0,.41,0c.17,0,.18,0,.23-.06s.25-.29.1-.81-.11-.56-.05-.55l.29,0s.21-.22.11-.29,0-.5,0-.5.09-.26,0-.26-.71.1-.71.1-.6.18-.81.22a5,5,0,0,0-.94.56c-.11.06-.4.1-.39.06a1.65,1.65,0,0,1,.39-.44,1,1,0,0,0,.28-.2l.35-.31a2.45,2.45,0,0,1,.84-.55,3.25,3.25,0,0,1,1.27-.2,3.07,3.07,0,0,0,.53.06c.27,0,.29,0,.8,0s1.09,0,1.21-.16,1.2-.82,1.2-.71a10.75,10.75,0,0,1-.49,1.45,1.88,1.88,0,0,0-.33.7c0,.24.17.32.42.37a5.66,5.66,0,0,0,.82.06l.63-.14.44-.2s0-.4,0-.45.08-.31-.12-.25-1.14-.23-1.14-.4a1.33,1.33,0,0,1,.22-.55.66.66,0,0,0,.17-.52c0-.33-.45-.87-.39-.93s.24-.36,0-.51a5.45,5.45,0,0,1-.62-.35c0-.07-.55.47-1.15.53s.06-.41.06-.41a1.93,1.93,0,0,1,.33-.31c.14-.06.42-.1.18-.3s-.3,0-.62,0-.15-.36-.43-.48a2,2,0,0,1-.55-.37c-.11-.1-.35-.32-.34-.36a.56.56,0,0,1,.26-.17c.12,0,.07-.27-.1-.39s-.48-.42-.48-.42a6,6,0,0,1-.5-.63c0-.06,0-.44-.12-.45s-.29-.08-.32.13.1.62-.2.7a.28.28,0,0,1-.37-.17l-.44.17c-.11.1-.22.2-.32.31h-.32s.08-.32-.07-.41-.73.07-.78.07-.36-.07-.27-.16l.21-.16a.78.78,0,0,0,.09-.21l-.13-.29s-.09-.17-.22-.16a.31.31,0,0,1-.2-.07,3.07,3.07,0,0,1,.31-.11l.28-.12-.17-.13-.2-.1-.73-.19a8,8,0,0,0-.77-.65,6,6,0,0,0-1-.07c-.2,0-.38.15-.5,0s-.74-.2-.77-.2a.27.27,0,0,0-.13.15s.35.45.35.45,0,.44,0,.53a1.36,1.36,0,0,1-.06.29,1.46,1.46,0,0,1,.12.37,2.33,2.33,0,0,1-.24.41,1.26,1.26,0,0,0-.21.32s.39.36.46.44a2.38,2.38,0,0,1,.29,1.14c-.07.27-.25.35-.25.42s-.17.17-.22.22l-.49.38s-.5.05-.5.16c.18.51.33,1,.46,1.54,0,.2-.06.74-.43.65a2.12,2.12,0,0,1-1.34-1c-.39-.65-.07-1.48-.25-1.59-.53,0-1.07-.06-1.61,0a6.2,6.2,0,0,1-1.59-.93,3.38,3.38,0,0,0-.7-.23l-1.3-.23s-.25-.72-.64-.88-1,0-.73-.78a3.5,3.5,0,0,1,1.11-1.71c.28-.12.55-.25.82-.39s.37-.69,0-.66-1.43.25-1.3.08,1-.26,1-.26.68.2.84.23.3,0,.36-.08a2,2,0,0,1,.54-.28s.8-.41.7-.42l-.62,0a1.08,1.08,0,0,1-.63-.18c-.23-.19-.53-.17-.42-.35s.66-.15.73-.12.56.18.69.21a1.84,1.84,0,0,0,.47.07s.17-.08.2-.16a.61.61,0,0,0,0-.3l-.1-.18.49-.21a2.67,2.67,0,0,1,.4,0s1.9-.07,1.91-.33a.89.89,0,0,0-.28-.6c-.08-.06-1.7-.61-1.7-.61l.1.36-.53.37-.44.68s-.93-.65-.86-.72.22-.39.13-.45-.47-.17-.71-.24c0,0,.59.73-.09.48a3.11,3.11,0,0,1-1-.57l-.28-.31s-.28-.24-.28-.34-.92-.85-1.19-.76-.44.18-.44.27.19.27.19.27l-.26.2a.6.6,0,0,0,.21.21,1.21,1.21,0,0,0,.55.16,4.6,4.6,0,0,1,.52.06s.48.33.19.57-.67.65-.79.63l-.38,0s-6.09-.1-6.09,0,.24.42.25.48a.67.67,0,0,1-.2.39c-.11.12-.45-.27-.64-.42a5.4,5.4,0,0,0-.77-.36l-5.29-1.21a15.54,15.54,0,0,1-1.93,0c-.61-.07-.59.24-.83.29s-.79-.81-1.09-.78a8.33,8.33,0,0,1-1.32.26c-.3-.05-.46.5-.46.5l-.58-.19a3,3,0,0,1-1.2.42l-1.14,0-1.13-.09-9.1-1.45a12,12,0,0,1-1.79.44,2.29,2.29,0,0,0-1.54.67,7.27,7.27,0,0,1-1.86.9,27.72,27.72,0,0,1,3.28,1.26,5.29,5.29,0,0,1-1.86.18,1.41,1.41,0,0,0-1.22,0c-.37.23-.06.57.16.77a4.89,4.89,0,0,0,2.11.32c.33-.1.87.2.8.26s-.85.55-.85.55-1,.28-1.17.28-.62.56-.62.56-.12.3-.06.34l.77.52.48,0s-.25.14-.4.2,0,.26.19.26.47,0,.47,0v-.07l.33.14.1.51.66,0a5.72,5.72,0,0,1,1.23-.19.58.58,0,0,1,.56.52c0,.09-2.27,1.91-1.93,2S1298,1605.14,1298,1605.14Z"/><path id="Path_14107" data-name="Path 14107" class="cls-17" d="M1369.32,1619.54s-.19-.71.26-.69,1.5.53,1.77.54.31,0,.31.08a.67.67,0,0,1,.38-.26c.31-.07,1.32-.74,1.52-.74a19.73,19.73,0,0,1,2.87-.24c.35.12.36.5.51.37s.29-.48.46-.48.48-.07.49.12.57-.19.58,0-.31.43-.31.51.1.39.16.58l-.06.48-.08.13a1.41,1.41,0,0,0,0,.46.39.39,0,0,0,.11.17.51.51,0,0,1,.16.13l.08.12.72.18s-.07,0,.16,0l.44,0s0-.08.26.21.39.43.39.43l.35.4.26.1a.87.87,0,0,1,.59.06l.25.22a.43.43,0,0,0,.18.15.84.84,0,0,0,.31.12c.21.05.29,0,.29,0l.09-.4.44-.94.35-.49a.35.35,0,0,1,.37,0c.22.1.4.12.48.24a8.18,8.18,0,0,0,2.23,1.07,6.37,6.37,0,0,0,1.3.19l.69-.15.54-.12s1,.11,1.09.14a8.92,8.92,0,0,1,.21,1.93.5.5,0,0,1-.21,0s0,.32,0,.33-.27-.32-.36-.44-.37-.54-.37-.54-.36-.27-.3-.07.65.63.67,1a5.18,5.18,0,0,0,.2,1c0,.1.18.56.22.66s.48,1,.48,1,0,.25,0,.37.07.41.15.4a1.62,1.62,0,0,1,.56.23s.1.42.1.42l.1.38a1.52,1.52,0,0,1,.06.42,3.16,3.16,0,0,0,.34,1.38,3.39,3.39,0,0,1,.53.9,4.26,4.26,0,0,0,.22.66c.06.12.19.26.27.4s1.4,1.62,1.4,1.62l-.2.29.16.15.47,0a2.8,2.8,0,0,1,0,.41.75.75,0,0,0,0,.3s.54.85,2.42.15,1.69-.19,1.65.15a13.78,13.78,0,0,1-2.83,5.44,17.83,17.83,0,0,0-2.35,3,18.45,18.45,0,0,0-1,1.71,7.16,7.16,0,0,0,.1,1.79c0,.26.1,1.39.1,1.39a6,6,0,0,1,.5,2.68c-.12,1.39-.08,2.09-.41,2.15a10.89,10.89,0,0,0-2.49,2.1c0,.23.3,1.85.28,2.15s-.13,1-.22,1-1.12.71-1.12,1a5.21,5.21,0,0,1-.2,1.47,8,8,0,0,0-.68.86c0,.13-1.64,2.78-3.17,3s-1.73.24-2.1.28-1,.24-1.19-.28.09,0-.27-1.21a19.84,19.84,0,0,0-1.34-3.06s-.35-2.35-.43-3-1.75-3.44-1.53-3.74.4-2.17.8-3.1a3.35,3.35,0,0,0,0-2.19c-.06-.22,0-.18,0-.64a7.9,7.9,0,0,0-.4-1.73c-.12-.49-1.81-3-1.74-3.34s.68-1.06.54-1.13a.5.5,0,0,1-.14-.6,1,1,0,0,0,0-.81c-.12-.34-.13-.88-.22-.9s-.35.65-.49.54.14-.73.14-.73l-.93.13-.79-.22a3.11,3.11,0,0,0-.09-.6c-.06-.16-.25-.16-.39-.21s-.77-.6-1.06-.46a3.64,3.64,0,0,0-.63.3,7.22,7.22,0,0,0-.77.43,1.48,1.48,0,0,1-1.35.34,2.39,2.39,0,0,0-1.72.16c-.37.24-.68.42-1,.19s-1.08-1.09-1.2-1.11a3.37,3.37,0,0,1-1.16-1.53c-.06-.56-1-1.6-1.31-2.11s-.44-.64-.42-.79.24-.17.42-.2.47.08.54-.06-.7-.26-.7-.26a.69.69,0,0,1-.5-.3l-.26-.47a8.65,8.65,0,0,0,.42-1,1.61,1.61,0,0,0,.08-.61c0-.28-.07-.53-.07-.53l0-1.66s-.3-.35-.28-.48a2.37,2.37,0,0,0,.09-.36c0-.13,0-.33,0-.33s1.55-3.33,2-3.5.47-.28.5-.39a.67.67,0,0,1,.19-.22l.83-.82a3.82,3.82,0,0,1,.09-1.26,1.48,1.48,0,0,1,.72-1.21c.27-.21.69-.44.77-.52A2.71,2.71,0,0,0,1369.32,1619.54Z"/><path id="Path_14108" data-name="Path 14108" class="cls-17" d="M1374.07,1614.52a.66.66,0,0,1-.32.77,3.22,3.22,0,0,0-1.14,1.44.73.73,0,0,0,.16.3s0,.13-.06.13-.22,0-.24.11a3.33,3.33,0,0,1-.58.76c-.12,0-.84.41-.86.41l-.64,0a5.33,5.33,0,0,0-.46.49c0,.06-.43.5-.58.06s.05-.57-.1-.69-.9,0-1.12-.06-.14-.16-.24-.55-.15-.71-.22-.73,0-.11.09-.18a3.27,3.27,0,0,0,.28-.37,3,3,0,0,1,0-.9c.08-.37.1-.63.12-.64l.13,0-.08-.42s-.33-.26-.23-.38a7.23,7.23,0,0,1,1.61-.1l1.4-.05c.13,0,.59.15.69.16s.25-.26.25-.26v-.44l.25-.41-.06-.5-.33-.43-.34-.47-.35-.36a.53.53,0,0,1-.45-.21.82.82,0,0,1-.16-.41,2.42,2.42,0,0,1,.7-.14c.24,0,.67,0,.72-.06l.09-.26a.1.1,0,0,1,.06-.14h0c.13,0,.43.07.55,0s.78-.26.78-.39a1.57,1.57,0,0,1,0-.37s0-.22.13-.23.12,0,.24.06.26,0,.28,0a1.34,1.34,0,0,1,.07-.18.41.41,0,0,1,.1-.09.5.5,0,0,1,.23-.09l.38.15a.06.06,0,0,0,.07,0h0a1.59,1.59,0,0,0,.07-.2s0-.18,0-.18a4.25,4.25,0,0,1,.55-.57c.1,0,.25-.4.38-.45s-.07,0,.33-.08a2.27,2.27,0,0,0,.44-.06c.13,0,.37,0,.37-.15s0-.13,0-.24a2.7,2.7,0,0,1,0-.28s.08-.2.22-.13a2.07,2.07,0,0,1,.45.27,2.64,2.64,0,0,0,.38.18l.36,0a11.72,11.72,0,0,1,1.45,0c0,.06,0,.18.23.06a10,10,0,0,1,1.21-.37l1-.09.42-.09s.55-.16.6-.27a3.07,3.07,0,0,0,.08-.67,2.68,2.68,0,0,1,.3-.77c.09,0,.11-.39.16-.41s.35.24.52.39.85-.16.81-.35,0-.21-.14-.3-.4-.06-.37-.24.31-.42.84-.45l.9-.08c.2,0,0,.31.26.22a6.86,6.86,0,0,0,.9-.57s-.3-.35-.26-.49-.15-.28-.32-.11a1.83,1.83,0,0,1-1.35.27c-.74-.06-2.15,0-2,0s-.12,0,0-.49-.16-.52-.06-.67c.47-.53,1-1,1.49-1.52.37-.31.53-.31.53-.67s-1.4-.29-1.49-.23-.62.26-.59.5.22.5,0,.62-.6.72-1,.72-1.25.88-1.16,1.28.7.54.66.68.13.19-.12.37-.14.47-.36.51-.46-.07-.53,0a5,5,0,0,0-.15.79.31.31,0,0,1,.14.41,1.24,1.24,0,0,1-.5.49s-.29-.07-.39.07-.38.4-.55.35a.32.32,0,0,1-.24-.33,19.19,19.19,0,0,1-.81-1.93c.06-.2.07-.06.26-.44s.46-.65.36-.78-.12-.18-.18-.17-.22-.15-.18,0,.15.29.1.37-.13.33-.23.33-.19.38-.25.5a.18.18,0,0,1-.22.08.2.2,0,0,1-.08-.08c-.1-.13.37-.33.13-.43s-.58.5-.58.5-.87,1-1.51.68-.5-.64-.39-.71.34-.34.3-.55-.21-.34,0-.56.36-.36.32-.44-.17-.24-.13-.29a10.36,10.36,0,0,1,1.55-.89c.45-.18,1-1.07,1.11-1.1l.22-.11s0-.52.12-.54.11.08.23,0,.31,0,.33,0a6,6,0,0,1-.31.93c-.05,0,.13.12.1.2s-.32.2-.32.2a.17.17,0,0,0,.16.17c.16,0,.33.17.38-.33a1.6,1.6,0,0,1,.22-.91c.14-.16.21,0,.48-.37s.45-.65.38-.65-.2.19-.26.09.13-.36.14-.38.18-.19.2-.12,0,.17.09.12a10.23,10.23,0,0,1,1-.37c.25,0,.49,0,.74-.09a1.68,1.68,0,0,0,.47-.22c.07-.07.38,0,.41,0s-.24-.32-.17-.33.12-.06.07-.12-.25-.21-.17-.3,1-.08,1.35-.27.46-.36.52-.34,0,.3.11.33.36-.2.49-.21h.6c.16,0,.28-.17.3-.17s.33.21.27.29.14.22.19.23.32,0,.28.09.07.07-.13.33-.27.44-.13.64.29.09.25.07a.24.24,0,0,1,0-.26,1.29,1.29,0,0,1,.3-.22c.09,0,1.2-.57,1.56-.43a13.92,13.92,0,0,1,2.54.57,1.21,1.21,0,0,0,.69.33c.28.08.8.1.8.4s-.15.37-.31.58-.22.26-1.08.18-1.43-.27-1.81-.32-.81-.33-1-.28-.16.37,0,.37a2.06,2.06,0,0,1,.84.41c.08.13.28.17.21.46s.35.72.41.72a4,4,0,0,1,.47.22l.57.1s.36-.06.42-.18a2.9,2.9,0,0,1,.53-.39l.78.1s-.27-.68-.27-.68a8.84,8.84,0,0,1,1-.37l1,0a1.44,1.44,0,0,0,.57-.37,1.19,1.19,0,0,1,.63-.19c.23,0,.7,0,.7,0a5,5,0,0,1,2.31-.9c.93.06.55.19,1.46.06s1.26-.21,1.26-.21a3,3,0,0,1,.93.15c.19.14,1.17.2,1,0s-.57-.53-.36-.7.8,0,.87,0a8.13,8.13,0,0,1,2.17.49,2.73,2.73,0,0,0,1,.43c.06,0,.44,0,.39-.17a2.64,2.64,0,0,0-.18-.38s-.3-.36-.34-.39l-.47-.52.22-.66a5.6,5.6,0,0,1,.59-.33s.43-.58.51-.65.61-.57.73-.52,1,.7,1,.83,0,0-.12.25-.3.22-.19.41a1.64,1.64,0,0,0,.26.33,1.08,1.08,0,0,1,0,.4c0,.16-.14.68-.14.68s0,.3,0,.44.42,0,.42.09-1.09,1.12-1.14,1.27,0,.28.11.28.67,0,.73,0,.92-.62.93-.76.09-.89.09-.89h.57s.46,0,.51.15.24.7.4.73a1.93,1.93,0,0,0,.48,0,.31.31,0,0,0-.17-.36l-.27-.14a1.38,1.38,0,0,1,0-.2l.2,0-.22-.3a2.13,2.13,0,0,0-.31-.29,4.08,4.08,0,0,1-.85-.08c-.46-.1-.75-.33-.75-.43s.12-.11.16-.19.36,0,0-.22-.26-.13-.36-.32a1.8,1.8,0,0,1-.17-.34c0-.05.27,0,.4,0l.43,0a8.71,8.71,0,0,0,1.66.54c.35,0,.22-.21,0-.32l-.84-.48s0-.14.11-.14a6,6,0,0,1,.65.08,1.29,1.29,0,0,0,.54-.15c.08-.07.26-.09.58.12a2.61,2.61,0,0,0,.86.27c.14.06.44.15.44.15s-.11.3-.18.3-.2.68-.2.68a3,3,0,0,0,.6.21c.23,0,.46-.25.34-.66a1.59,1.59,0,0,0-.79-1.08c-.44-.16-.57,0-.64-.25a1.35,1.35,0,0,1,0-.49c0-.07.18-.12.31-.14s3,0,3-.13-.4-.12-.33-.31-.15-.42-.15-.42,6.56-.88,7.53-.91,1.69-1,2-.86.14.27,1,.5,2.91.56,2.93.77.6,0,.43.23-3.11.94-3.36,1.44,2.94-.15,3.32-.06.59.18.73-.08.89-.23,1.17-.12.53.14.94.32a2.69,2.69,0,0,0,1,.13s1.48,0,1.62-.23,1.14-.13,1.59-.08,1.18.42,1.09.48l-.15.14a2.61,2.61,0,0,1-.28.17l.23.34s.79.75,1.32.69.38-.22.58-.35.25-.33.62-.3,3.51.15,3.51.15-.11-.13.18-.41a1.83,1.83,0,0,1,1.28-.32c.33,0,.51.48.8.52s.66.18.72.17a3.58,3.58,0,0,0,.45-.31,2.83,2.83,0,0,1,.65,0c.09,0,0,.28.39.28s5.56.52,5.64.67,0,.4.16.53a1.38,1.38,0,0,0,.84.2,14.34,14.34,0,0,1,3.34.15c.37.25.67.49,1,.4s.65-.1.65-.18-.16-.14-.16-.14l-.29-.3.28-.12s-.18-.13.08-.1,4.27.43,4.41.76a.68.68,0,0,1,0,.66,1.75,1.75,0,0,0-.07.91c.06.34.19.89.09,1s-.47.45-.6.42a2.76,2.76,0,0,0-.85-.19c-.18,0-1,.11-.71.17s.42,0,.63.08a4.11,4.11,0,0,1,.6.09.89.89,0,0,1,.27.48c.05.21.43.53.43.53s-.06.23-.44.23a12.18,12.18,0,0,0-1.35,0,25.69,25.69,0,0,0-2.67,1.08c-.21.25-.2.26-.49.22s-1.48-.08-2-.08a2.85,2.85,0,0,0-1.24.32c-.17.11-.29.28-.25.37s.1.44.24.4.08,0-.05.06a.65.65,0,0,1-.34,0l-.07-.1-.4.34s.06.38.19.41a1.85,1.85,0,0,1,.4.24l0,.41s.18.15.17.23-.21.16-.33.21-.54.37-.48.56.6.36.13.55-.77,0-.92.14a.79.79,0,0,0-.16.58c0,.1-.23.21-.36.24a3.2,3.2,0,0,0-.55.42l-.72.58-.51-1.21a17.13,17.13,0,0,1-.14-2.37c.1-.09.78-.06.78-.22s0-.45,0-.45a1.52,1.52,0,0,0,.42-.06c.11-.06,2.66-1.93,2.88-2s.4-.68.4-.68l.4-.26a2.86,2.86,0,0,0-.52-.27,2.21,2.21,0,0,0-.63.6,2.33,2.33,0,0,1-1,.68l-.63,0s.06.06.19-.14.36-.43,0-.46a3.77,3.77,0,0,0-1.84.3,12.9,12.9,0,0,0-1,.88,4.63,4.63,0,0,0,.32.42c.1.07.29.15-.2.15s-1.85.1-1.78.06a.32.32,0,0,0-.09-.43.29.29,0,0,0-.22,0c-.45,0-1.11.27-1,.28s-3.32,0-3.32,0a6.7,6.7,0,0,0-1.39.76c-.22.26-1.21,1.53-1.21,1.53l-.9.44a.41.41,0,0,0,.2.52c.35.13.42.3.41.34a.93.93,0,0,0,.5.32c.19,0,.64-.39.73-.39a6.33,6.33,0,0,1,.83.64l.26.84a.8.8,0,0,0-.23.36,6.82,6.82,0,0,0-.08.79s.25,1.13-1.74,3.12-2.61,1.51-2.61,1.51l-.65.28s-.38.3-.41.4-.08.32-.1.4-.4,1-.58,1a7.12,7.12,0,0,0-1,.41l.59.58c.21.3.41.61.59.93a7.85,7.85,0,0,1,0,.84c0,.19.07.6-.22.6s-1,.09-1.12.09-.28-.22-.17-.48a7.92,7.92,0,0,0,.29-1.06,1.1,1.1,0,0,0,0-.51l-.53-.18s-.19.2-.27-.1-.13-.24-.07-.32.1-.09.1-.09l0-.07s.22-.18,0-.27l-.26-.11-.22-.06-.39.09-.36.14s-.81.28-.83.2.21-.52.21-.64a4.17,4.17,0,0,0,.07-.56s-.28-.17-.81.23-.43.53-.74.68l-.4.16-.18.34s0,.52.13.5.55.6.55.67.44,0,.6-.12a1.4,1.4,0,0,1,.88.08c0,.09,0,.27-.08.27s-.75.13-.9.34-.53.86-.53.86,1,.84,1,1,.32.53.22.58-.76.21-.59.3.82.29.76.55a.51.51,0,0,1-.32.32s-.3.2-.12.32.26.18.27.28.1.28,0,.45a6,6,0,0,0-.65,1.12c0,.21,0,.1-.24.46a2.07,2.07,0,0,0-.34.66s-.66,1.06-.91,1.16-1,.82-1.42.8-.15-.28-.51-.06a17.89,17.89,0,0,1-1.88.74l-1.31,0s-.39.2-.34.24.49.3.38.31a6.29,6.29,0,0,0-.72.74s-.29.62,0,.88a12.47,12.47,0,0,1,.9,1.59l.55.72s0,0,.14.45a3.05,3.05,0,0,1,0,1.41c-.1.31-.33.81-.5.88s-.28,0-.66.29a2.76,2.76,0,0,0-.56.83c-.08.1-.22.21-.29.16a3.82,3.82,0,0,1-.15-.67s.2-.31.13-.37a.68.68,0,0,0-.34-.06s0,.12-.23-.08-.3-.08-.45-.54-.1-.49-.26-.67-.18-.09-.39-.19-.47,0-.52-.16a.77.77,0,0,0-.17-.27l-.17.07a.58.58,0,0,1,0,.41c-.1.16-.19.4-.26.35s-.15.23-.15.23l-.11,1.08.12.77s.22.35.45.8a8.93,8.93,0,0,0,1.4,1.48,1.25,1.25,0,0,1,.25,1,4.33,4.33,0,0,0,.35,1.59s.23.32-.06.34a2.61,2.61,0,0,1-1.48-1.17c-.27-.78-.51-1.57-.7-2.37-.21-.44-.77-1.47-.77-1.47l.33-2.93a3.64,3.64,0,0,1-.3-.63c0-.14-.43-1.61-.43-1.61s-.53.11-.65,0-.86.27-1-.16.51-.74-.21-1.51a4.23,4.23,0,0,1-1-1.54l-.58-.67a5,5,0,0,1-1,.36c-.16,0-.1-.64-.1-.64s-.21.49-.32.54a3,3,0,0,0-.53.4s-.21,1-.5,1.1-.42.2-.53.36-.59.7-.59.7a3.22,3.22,0,0,0-.69.64,2.49,2.49,0,0,1-.57.8c-.2.12-.74.36-.74.36a4.09,4.09,0,0,1,0,.7,14.3,14.3,0,0,1-.28,2.52c-.19.06,0,.42-.3.64a1.68,1.68,0,0,0-.51.55q-.11.27-.18.54c0,.08,0,.42-.22.08s-.66-1.27-.71-1.47-.9-3.68-.9-3.68a8.81,8.81,0,0,1-.66-1.47,16.49,16.49,0,0,1-.17-2.33s.08-.5-.16-.52-.24.73-.24.73l-.37.43s-.64-.59-.78-.69a.93.93,0,0,1-.21-.36l.38-.24s.24-.08.24-.25-.45-.1-.45-.1l-.61-.31-.11-.17-.21-.12-.18-.24a4.12,4.12,0,0,0-2.36-.68,9.82,9.82,0,0,1-2.35-.29l-.7-.41a2,2,0,0,0,0-.54c-.06-.1-.22.1-.82.16a1.81,1.81,0,0,1-1-.19l-.39-.45a.84.84,0,0,1-.81-.43c-.34-.53-.38-.9-.9-.94s-.54,0-.56.08a2.43,2.43,0,0,0,0,.38,3.38,3.38,0,0,0,.38.9c.34.64.36.64.61,1.11s.49,1,.49,1l.28.52s-.13.31.43.11a3.22,3.22,0,0,1,.92-.2l.3,0,.29-.2s.35-.36.48-.33.28.3.28.38a.38.38,0,0,0,.27.41,4.38,4.38,0,0,1,.54.23c.14.09.41.26.48.32s0,.06.1.18a2.35,2.35,0,0,1,.08.6l-.29.44a1.12,1.12,0,0,0-.22.16c-.07.08-.3.42-.3.42l-.15.25-.09.24-.21.33-.28.4a1.34,1.34,0,0,1-.21.2l-.23.15-.1.07-.13.21-.05.06a5.39,5.39,0,0,1-.95.27c-.17,0-.72.46-.72.46l-.48.68a9.24,9.24,0,0,1-1,.61,19.32,19.32,0,0,1-3,1.09,1.21,1.21,0,0,1,.05-.42l-.17-1.93s-.34-1.16-.68-1.38-.37-.68-.5-.88-.8-.75-.84-.9-.12-1.62-.12-1.62l-.71-.7-1.28-2.73-.3-1.69s.17-.06.24,0a1.51,1.51,0,0,1,.23.21l.06-.59a.88.88,0,0,0,.17-.35,6.18,6.18,0,0,0-.26-.76,7,7,0,0,1,.48-.84l-.08-.79.52-.54a12.62,12.62,0,0,0-1.33,0c-.31,0-.6.54-1,.34s-.38-.49-.9-.42a1.52,1.52,0,0,1-2-.82,1.83,1.83,0,0,1-.08-.25,7,7,0,0,0-.29-.88s.6-.42.05-.63a1.93,1.93,0,0,0-1.14,0s0,.18-.14.21a2.54,2.54,0,0,0-.54.44,2.76,2.76,0,0,1-.2.47,2.1,2.1,0,0,0-.2.49l.21.52s-.26.52-.29.34a7.6,7.6,0,0,0-.1-1.07c-.08-.13-.26-.69-.43-.7a.41.41,0,0,1-.37-.18,1.54,1.54,0,0,1-.22-.49l0-.48-.1-.39a17.45,17.45,0,0,1-1.8-1.41c0-.15-.28-.42-.28-.42l-.24-.3a4.4,4.4,0,0,1-.5-.21c-.22-.11-.29-.41-.39-.41s-.4.52-.4.52a4.67,4.67,0,0,0,.63,1.36c.27.22,1.37,1.41,1.37,1.41l.86.34s.3.14.24.27-.07.14-.18.09-.46-.12-.69-.17c0,0,.22.74.25.77s0,0-.28.28-.48.49-.48.49.1-.54.13-.79-.38-.65-.38-.65-.8-.8-1.06-.8-1.17-1-1.3-1.25,0-.45-.28-.62-1.12.28-1.68.56a1,1,0,0,1-1.06-.14l-.64.33Z"/><path id="Path_14109" data-name="Path 14109" class="cls-17" d="M1422.33,1642s.41.11,1.05.94a4.2,4.2,0,0,0,1.17,1.13,8.87,8.87,0,0,1,1.1,1.11c.06.19.14-.3.4,0s0,.15.45,1,.69.52.67,1,0,1.83-.34,1.67a21.45,21.45,0,0,1-2.95-4.07,1.66,1.66,0,0,0-.56-.86c-.12-.1-1.7-1.89-1.4-2.09a.27.27,0,0,1,.36.05A.31.31,0,0,1,1422.33,1642Z"/><path id="Path_14110" data-name="Path 14110" class="cls-17" d="M1429.18,1644.35l.4,0,.4-.1s.51-.75.65-.88a3.59,3.59,0,0,1,.5-.37s.48-.19.6-.26.38-.86.66-1,.75-.46.75-.46a2.28,2.28,0,0,0,.42.5c.14.07.75.09.59.29s-.66.38-.73.46a2.13,2.13,0,0,0-.07,1.57c.3.5.6.47.36.61a3.49,3.49,0,0,0-.68.85s-.34.72-.43.85a3.62,3.62,0,0,0-.17.87s-.39.61-.68.68-.14-.72-.31-.76-.35-.22-.47-.22h-1.46a4.38,4.38,0,0,0-.18-1.14C1429.15,1645.18,1428.94,1644.56,1429.18,1644.35Z"/><path id="Path_14111" data-name="Path 14111" class="cls-17" d="M1427.31,1649.32s.24-.22,1.34.08,1.27.09,1.31.09a2.24,2.24,0,0,1,.6.25,3.21,3.21,0,0,0,.79.48c.21.06.59,0,.39.19a4.18,4.18,0,0,1-2.35-.1c-.75-.29-1.85-.71-2-.77S1427.25,1649.34,1427.31,1649.32Z"/><path id="Path_14112" data-name="Path 14112" class="cls-17" d="M1442.26,1647.41s-.32-.48-.42-.44.08.67.35.81l1.26.71c.25.14.91.53.91.73a3.05,3.05,0,0,0,.66,1.32,2.55,2.55,0,0,0,.5.24s-.1-.32,0-.25a2.08,2.08,0,0,0,.8.36c.16,0,.44,0,.17-.26s-.43-.35-.37-.4a1.62,1.62,0,0,1,.62-.06,4.8,4.8,0,0,0,1-.29s2.27,2,2.18,1.65a12.61,12.61,0,0,0-1.14-1.58.52.52,0,0,1,0-.56c.07,0,.29-.08-.28-.41a2.77,2.77,0,0,1-.86-.81,29.78,29.78,0,0,0-3.42-1.64c-.62-.11-.75-.26-1,.16s-.27.72-.64.72Z"/><path id="Path_14113" data-name="Path 14113" class="cls-17" d="M1439.41,1654.43a.7.7,0,0,1,.38-.92l.06,0c.71-.34,1.15-.5,1.15-.5l.19-.42,1,.5,1.09.14-.3.36a4.22,4.22,0,0,0-.21,1.22l.35.47a16.83,16.83,0,0,0,1.39,1c.56.34,1.14-1.75,1.14-1.75a10.84,10.84,0,0,1,.41-2.33c.19,0,.69,2.24.74,2.29s.53,0,.6.15a5.54,5.54,0,0,1,.21.8l.33.86s-.06.59.2.82a9.83,9.83,0,0,1,1.63,2c.34.71.5.17.52.2a2,2,0,0,1,.14.41,3,3,0,0,0,.32.54s2.35,1.69.5,5.39-1,2.92-2.1,3-1.27.51-1.55.3-1.2.11-1.2.11a14.88,14.88,0,0,1-1.27-.78,14.17,14.17,0,0,1-.86-1.45,4.36,4.36,0,0,1-.68-.81,3.73,3.73,0,0,1,.12-.56,1.43,1.43,0,0,0-.56.41c-.31.34-.46.67-.61.74s-.84-1.18-.84-1.18-3.71-.45-4.79.26-1.23.26-1.94.22-.8.85-1.18.85-1.85-.41-1.67-.81a11.92,11.92,0,0,0-.34-3.37,7.09,7.09,0,0,1-.18-1.52c0-.3-.13-2.33-.13-2.33s1-.49,2-.93,2-.93,2-1.19a5.58,5.58,0,0,1,.09-.81s.49-.37.62,0,.15.52.37.56.25-.26.09-.45-.31-.33-.15-.33h.46s.09-.66.27-.57.89-.83.9-.86a2.08,2.08,0,0,1,.47.51c0,.06,0,0,.13.32s.6,0,.61-.06S1439.41,1654.43,1439.41,1654.43Z"/><g id="Group_3289" data-name="Group 3289"><g id="Group_3288" data-name="Group 3288"><path id="Path_14114" data-name="Path 14114" class="cls-17" d="M1350.54,1590.35a.5.5,0,0,0,.56.06c.26-.17.59.28,1,.36s1.27-.14,1.09.12-.1.41.13.65a.75.75,0,0,1,.25.65,1.39,1.39,0,0,1-.2.77,1,1,0,0,0-.22.67c0,.12-.59.14-.51.35s.87.36.9.1,0-.39.08-.55.46.16.6.16.55,0,.5.16-.31.25-.27.43.46.3.23.49a.44.44,0,0,1-.61,0,4,4,0,0,0-1.19-.21s-.26.35-.1.41-.28,0-.38.12a.41.41,0,0,0,0,.47.67.67,0,0,0,.57.19c.25-.06.81-.11.5-.29s-.28,0-.32-.2.19-.36.19-.36a1.33,1.33,0,0,0,.6.25c.23,0,.46-.1.43.13a1.44,1.44,0,0,1-.42.71.84.84,0,0,0-.26.58c0,.13.21.25.22.32a.53.53,0,0,1-.22.4.6.6,0,0,0-.23.19.56.56,0,0,1-.6,0c-.18-.12.08-.59-.12-.59a.72.72,0,0,0-.5.18.89.89,0,0,0-.28.3s.14.11.24.21,0,.49-.12.5-.48,0-.3.2.27,0,.34.19a.36.36,0,0,1,0,.37s-.09,0-.1.11-.38.8-.27.85-.11,0,.37-.33.5-.57.5-.29-.12.45-.18.45-.64.49-.54.71.26.49.29.56.12.1,0,.25-.28.21-.07.28a1.47,1.47,0,0,1,.39.21s.16.54.25.73,0,.23.11.27.29.2.51,0,.67-.13.73-.28.21-.31.24-.07a.55.55,0,0,1-.14.44.35.35,0,0,0,.11.37c.13.07,0,.35.3.34s.22.15.3-.14,0-.42.23-.71a2.83,2.83,0,0,1,.37-.4,2.52,2.52,0,0,0,.35-.3c0-.06.49-.24.32-.38s-.32-.19-.08-.36.44,0,.53-.11a.92.92,0,0,0,.18-.3c.09-.18.12-.29.24-.35a.89.89,0,0,1,.5-.15c.2,0,.3-.07.16-.24s-.35-.22-.33-.3.18-.17.28-.23a.33.33,0,0,0,.19-.24c0-.09,0-.13,0-.21s.34,0,.4,0l.06-.13a1.38,1.38,0,0,1,.41-.26c.13,0,.07.13.22.11s.19.07.32,0,.25-.18.25-.25a2,2,0,0,1,0-.24s.3-.24.35-.19,0,.08,0,.2-.35.29-.16.38.16.26.3.07a1.13,1.13,0,0,1,.49-.32s.33-.28.35-.26a.85.85,0,0,0,0-.15s.84,0,1.11-.21.48-.56.66-.64.55-.11.51-.33-.21-.55-.08-.51.37.41.61.43.3,0,.26-.06,1.5-.23,1.94-.29a1.87,1.87,0,0,0,1-.44,5.31,5.31,0,0,1,1-.53c.37-.14.73-.16.75-.2s.28-.1-.07-.11a6.13,6.13,0,0,1-.86,0,4.19,4.19,0,0,0-1.12,0c-.33.07-1.1.22-1,.06s.28-.17.09-.3-.16-.18-.16-.18l.77-.28a1.21,1.21,0,0,0,.38,0c.14,0,.25-.33.25-.33s-.69-.08-.72-.25-.08-.26,0-.28.4.17.87.31a4.55,4.55,0,0,1,.93.35s0,.23.14.3a4.19,4.19,0,0,0,.7.26c.06,0,.42-.42.16-.64s-.44-.51-.67-.59a4.41,4.41,0,0,0-.54-.24c-.2,0-.1.06-.42-.21l-.42-.39c-.07-.07.18-.34.36-.26s.49.33.6.21.24-.29.22-.33-.3-.19-.23-.21.59.35.68.28.14.39.36.29.64-.54.6-.66.22-.27.35-.29.2-.2.2-.4,0-.16-.07-.45a.64.64,0,0,1,0-.45.56.56,0,0,1,.21-.27.62.62,0,0,1,.3-.09l.1,0s1.66-.07,1.39-.31-1.06-.16-1-.33.86,0,.77-.1-1.18.16-1.18,0,.57-.42.57-.46-.29-.17.2-.37a6.82,6.82,0,0,0,1.28-.68,2.12,2.12,0,0,1,1-.3,3.21,3.21,0,0,0,.52-.11c.08,0,2.28-.52,1.4-.54s-2.08-.57-2.66-.25a5.24,5.24,0,0,1-1.17.41c-.31.12-1.4.67-1.18.38s.87-.5.87-.64-.53-.21-.72-.11-.78.3-.78.3-1,.11-.84,0a5.72,5.72,0,0,1,1-.4s-2.91.21-3,.17.64-.42,1-.35a22.65,22.65,0,0,0,2.6-.14c.14,0,.54-.27.12-.27l-4.06.06c-.44,0-3.57,0-3.84,0s-.49.26-.25.29a5.41,5.41,0,0,1,.79.21s-1.3,0-1.4.08-1.33-.12-1.33-.12-1.14-.38-1.16-.21.36.39.36.39l-.26.08-1-.27s-.69.4-.69.4l.3-.44a12.54,12.54,0,0,0-2.21.08c.06.13.91.38.47.38s-1.27-.82-1.55-.48.1.61-.62.71-1.47.14-1.54.14-1.42.23-1.37.35a3.74,3.74,0,0,0,1.29.19c.1,0,0,.19-.28.23s-1.28.49-1.39.49-1.68.15-1.84.16l-.94.11-.23.28s.66.15.89.17l.81.09s.8,0,.34.22a3.74,3.74,0,0,1-1.32.26c-.25,0-.8-.15-.57.12s1.59.11,1.33.26-1.08.23-1,.29A5.45,5.45,0,0,0,1350.54,1590.35Z"/><path id="Path_14115" data-name="Path 14115" class="cls-17" d="M1330.12,1592.4a.91.91,0,0,0,.43-.07c.2-.09,0-.21.72-.31s1.41-.36,1.19-.48a1.65,1.65,0,0,0-.88-.24c-.22.08-.19-.08-.7-.06a6.22,6.22,0,0,0-1.29.22,3.59,3.59,0,0,1-.91.78c-.35.12-.59.23-.42.3s.52,0,.31.28,0,.32.29.17.8,0,1-.23S1330,1592.4,1330.12,1592.4Z"/><path id="Path_14116" data-name="Path 14116" class="cls-17" d="M1330.66,1592.68s-.61,0-.25-.13.58-.32.93-.36,1.37-.43,1.3-.29-.3.42,0,.35.79-.26.82-.18-.26.2-.25.25.12-.08.36,0,.25.08.34,0a.21.21,0,0,0,.09-.2s.08,0,.08,0,.19.24.1.37,0,.46.11.4.17-.31.31-.47.57-.57.75-.49.25.16.13.28,0,.35-.08.47a1.55,1.55,0,0,1-.27.24c-.14.11-.27.17-.15.28a1.83,1.83,0,0,0,.44.28c.06,0,.33.24.25.33a.57.57,0,0,1-.48,0c-.14,0-.19-.06-.27,0a.25.25,0,0,1-.17,0c-.06,0-.58.09-.21.18s.93.24.43.29a1.91,1.91,0,0,1-1-.07,1.8,1.8,0,0,0-.55-.24l-.11,0a9.25,9.25,0,0,1-.93.32,5.92,5.92,0,0,1-1.83.1c0-.14.16-.19.2-.26s-.1,0-.24,0-.5-.05-.55-.24.27-.49.42-.46a7.13,7.13,0,0,0,1.6.07c.34-.08.22-.14,0-.15s-1.2,0-1.26,0-.64-.11-.59-.18a5,5,0,0,1,.86-.14s.52,0,.31-.16a.63.63,0,0,0-.4-.1A.45.45,0,0,1,1330.66,1592.68Z"/><path id="Path_14117" data-name="Path 14117" class="cls-17" d="M1338.8,1597.26s-.32.22-.47.14.3-.26.36-.3a2.25,2.25,0,0,0,.34-.41,4.23,4.23,0,0,1,.63-.64c.09,0,.35.1.25.17s-.22,0-.19.12.34.11.44.2.46.29.46.33-.21.16-.22.2a1,1,0,0,0,.37.19c.06,0,.13.19-.15.21s-.52-.08-.48-.18,0-.37-.27-.27-.32.38-.46.35-.5.35-.6.28,0-.15.07-.17S1339,1597.18,1338.8,1597.26Z"/><path id="Path_14118" data-name="Path 14118" class="cls-17" d="M1342.54,1597c-.08,0-.3.24-.59.1s-.4-.17-.18-.26.65-.35.7-.35a.36.36,0,0,1,.23.17c0,.09.14.16.22.1s.12-.19.21-.19.55-.12.67-.11,0-.25-.12-.33.12-.14.13-.14a3.2,3.2,0,0,0,.63-.4c0-.1.14,0,.28-.19s.06-.59.06-.59a12.32,12.32,0,0,0-.89-.88,1.4,1.4,0,0,1-.42-.42c0-.06-.15-.09-.18,0s0,.06,0,.09.32.22.1.26-.63-.26-1.06-.13-.28.16-.26.15-1.3-.18-1.49-.24a3.85,3.85,0,0,0-.48,0c-.13,0-.42-.08-.27-.2s.35-.3.5-.22.42.09.4,0-.89-.36-.76-.42a2.78,2.78,0,0,0,.34-.26,2.25,2.25,0,0,1,.39-.3,7.18,7.18,0,0,1,1.1-.48,6.71,6.71,0,0,0,.76-.13s.23,0,.12.1-.57.18-.67.28-.47.33-.54.48-.23.25-.11.36.28.24.15.26-.26.23-.1.2.4-.15.4-.22a.28.28,0,0,0-.09-.2c0-.07-.15-.26,0-.31a.48.48,0,0,1,.38.09s.29-.09.24-.12-.42,0-.4-.13a.35.35,0,0,1,.2-.24,4.62,4.62,0,0,0,.62-.23.81.81,0,0,1,.54-.19c.23,0,.49,0,.5,0s-.25,0-.08.17a.21.21,0,0,1,0,.29l0,0a2.58,2.58,0,0,0-.27.12,1.17,1.17,0,0,0-.35.35s.15.16.22.1a2.1,2.1,0,0,1,.53-.29c.07,0,.24.06.18.08s-.18.08-.13.11a.44.44,0,0,0,.24.07c.1,0,.27-.11.26-.17a.41.41,0,0,1,.07-.22,2.16,2.16,0,0,1,.84,0c.19.11.23.23,0,.23s-.48-.09-.48,0,.27.32.35.34a2.22,2.22,0,0,0,.3.11,1.55,1.55,0,0,0,.43,0,1.3,1.3,0,0,1,.26-.14c.09,0,.17,0,.19,0a.14.14,0,0,1-.07.17l-.3.14c-.17.07-.34.09-.21.16a.71.71,0,0,0,.28.09s.26-.31.39-.34,0,.16,0,.19a1,1,0,0,1-.2.15.9.9,0,0,0-.2.14s-.1.09-.06.1a1.61,1.61,0,0,1,.29.09s.25.5.14.55-.11.07,0,.16.07.16.22.22a.87.87,0,0,1,.3.15,1,1,0,0,0,.43.14c.09,0,.7.27.63.31s-.19.22-.06.26a1.57,1.57,0,0,0,.37,0c.08,0,.22,0,.06.12a2.53,2.53,0,0,0-.65.29,1.6,1.6,0,0,1-.27.25s0,.3-.13.37-.24-.16-.25-.28-.15-.18,0-.27.52-.25.47-.28a.78.78,0,0,0-.37,0s-.34.26-.4.16-.16-.18-.19-.28,0-.3-.11-.23a.49.49,0,0,0-.17.23s-.38.32-.42.27-.29-.06-.22,0,.4.33.42.37a2.37,2.37,0,0,1,.28.81c0,.2,0,.26-.07.29s-.21.21-.23.23,0,.17-.15.09-.47-.16-.52-.25,0-.31-.14-.27-.16.1-.25.06a.22.22,0,0,0-.22.07s.7.59.7.7-.07.26-.17.2-.83-.2-.87-.31-.07-.15-.15-.17-.38-.12-.45-.13-.1,0-.09-.1.06-.08.1-.16a.88.88,0,0,0,.09-.19l-.5-.26s.16-.22,0-.2-.57,0-.64,0l-.15,0-.1,0Z"/></g></g></g></g><g id="Message_box" data-name="Message box"><path id="Path_14119" data-name="Path 14119" class="cls-10" d="M1311.56,1529.65h-55.77a5.86,5.86,0,0,0-5.86,5.86v13.38a5.86,5.86,0,0,0,5.86,5.86h48.08l2.42,6.59,3-6.59h2.26a5.86,5.86,0,0,0,5.86-5.86v-13.38A5.86,5.86,0,0,0,1311.56,1529.65Z"/></g><g id="message"><g id="Group_3292" data-name="Group 3292"><g id="Group_3291" data-name="Group 3291"><rect id="Rectangle_1901" data-name="Rectangle 1901" class="cls-7" x="1255.52" y="1535.13" width="26.29" height="2.15"/><rect id="Rectangle_1902" data-name="Rectangle 1902" class="cls-7" x="1284.48" y="1535.13" width="10.47" height="2.15"/><rect id="Rectangle_1903" data-name="Rectangle 1903" class="cls-7" x="1289.11" y="1539.24" width="18.09" height="2.15"/><rect id="Rectangle_1904" data-name="Rectangle 1904" class="cls-7" x="1309.03" y="1539.24" width="2.8" height="2.15"/><rect id="Rectangle_1905" data-name="Rectangle 1905" class="cls-7" x="1297.31" y="1535.13" width="14.52" height="2.15"/><rect id="Rectangle_1906" data-name="Rectangle 1906" class="cls-7" x="1255.52" y="1539.24" width="11.99" height="2.15"/><rect id="Rectangle_1907" data-name="Rectangle 1907" class="cls-7" x="1270.21" y="1539.24" width="16.63" height="2.15"/><rect id="Rectangle_1908" data-name="Rectangle 1908" class="cls-7" x="1255.52" y="1547.58" width="26.29" height="2.15"/><rect id="Rectangle_1909" data-name="Rectangle 1909" class="cls-7" x="1284.48" y="1547.58" width="10.47" height="2.15"/><rect id="Rectangle_1910" data-name="Rectangle 1910" class="cls-7" x="1289.11" y="1543.47" width="18.09" height="2.15"/><rect id="Rectangle_1911" data-name="Rectangle 1911" class="cls-7" x="1309.03" y="1543.47" width="2.8" height="2.15"/><rect id="Rectangle_1912" data-name="Rectangle 1912" class="cls-7" x="1297.31" y="1547.58" width="14.52" height="2.15"/><rect id="Rectangle_1913" data-name="Rectangle 1913" class="cls-7" x="1255.52" y="1543.47" width="11.99" height="2.15"/><rect id="Rectangle_1914" data-name="Rectangle 1914" class="cls-7" x="1270.21" y="1543.47" width="16.63" height="2.15"/></g></g></g></g></g></svg>