<svg xmlns="http://www.w3.org/2000/svg" xmlns:xlink="http://www.w3.org/1999/xlink" id="Layer_2" data-name="Layer 2" viewBox="439.84 871.35 740.16 1110.29"><defs><style>.cls-1{fill:none;}.cls-19,.cls-2{fill:#00205c;}.cls-3{fill:#e8f8fc;}.cls-4{clip-path:url(#clip-path);}.cls-5{fill:#1c396e;}.cls-6{fill:#556a92;}.cls-23,.cls-7{fill:#8897b2;}.cls-12,.cls-13,.cls-14,.cls-15,.cls-16,.cls-18,.cls-19,.cls-20,.cls-21,.cls-7,.cls-8{fill-rule:evenodd;}.cls-8{fill:#fafafa;}.cls-14,.cls-9{fill:#4d7c60;}.cls-10{fill:#a3afc3;}.cls-11,.cls-12{fill:#1a5632;}.cls-13{fill:#668e76;}.cls-15,.cls-17{fill:#fff;}.cls-16{fill:#3a64a3;}.cls-18{fill:#6d7fa1;}.cls-20,.cls-22{fill:#526790;}.cls-21,.cls-27{fill:#1b386d;}.cls-24{fill:#80a18d;}.cls-25{fill:#336949;}.cls-26{fill:#59445a;}</style><clipPath id="clip-path"><path class="cls-1" d="M1180,1241.49v681.07c-376.15,0-681.07-304.93-681.07-681.07A677.89,677.89,0,0,1,590.06,900.9Z"/></clipPath></defs><path class="cls-2" d="M1180,1241.49v740.15c-408.78,0-740.16-331.38-740.16-740.15a736.73,736.73,0,0,1,99.06-370.14Z"/><path class="cls-3" d="M1180,1241.49v681.07c-376.15,0-681.07-304.93-681.07-681.07A677.89,677.89,0,0,1,590.06,900.9Z"/><g class="cls-4"><path class="cls-5" d="M752.23,1625.18c-70.29,1.18-97.88,5.32-131,20.14,81.9,108.57,189,192.88,311.32,241.8L912,1673.68S860.92,1623.35,752.23,1625.18Z"/><path class="cls-6" d="M1178.94,1645.46c-185.4.8-358.16,24.1-504,63.78,130.73,139.61,308.33,225.45,504,225.45Z"/><g id="Group_3322" data-name="Group 3322"><g id="Truck"><g id="Group_3300" data-name="Group 3300"><path id="Path_14120" data-name="Path 14120" class="cls-7" d="M990.66,1699.22a22.39,22.39,0,1,0,22.52,22.39A22.39,22.39,0,0,0,990.66,1699.22Z"/><path id="Path_14121" data-name="Path 14121" class="cls-8" d="M990.64,1707.92a13.69,13.69,0,1,0,13.77,13.69A13.7,13.7,0,0,0,990.64,1707.92Z"/><path id="Path_14122" data-name="Path 14122" class="cls-7" d="M990.66,1717.22a4.39,4.39,0,1,0,4.42,4.39,4.39,4.39,0,0,0-4.42-4.39Z"/><path id="Path_14123" data-name="Path 14123" class="cls-9" d="M759.21,1684.35l3-3.78a17,17,0,0,0,3.11-6.33l16.42-64.86a8.42,8.42,0,0,1,8.33-6.36h42.48l1,117H764.65a5.07,5.07,0,0,1-4.94-4.53l-2.28-25A8.72,8.72,0,0,1,759.21,1684.35Z"/><path id="Path_14124" data-name="Path 14124" class="cls-10" d="M815.43,1659.27l-3.63-39.71a3,3,0,0,0-2.88-2.64H785a2.37,2.37,0,0,0-2.35,1.85l-11.93,53.75a2.9,2.9,0,0,0,2.33,3.37,3,3,0,0,0,1,0l34.07-6.63a9.11,9.11,0,0,0,7.35-10Z"/><path id="Path_14125" data-name="Path 14125" class="cls-11" d="M764.09,1712.39h-4.67l-.43-4.74h4.67Z"/><path id="Path_14126" data-name="Path 14126" class="cls-11" d="M762.48,1685.72l-.23,1.86a17.75,17.75,0,0,0-.06,4l.8,8.76a1,1,0,0,1-.9,1.12h-3.67l-1-10.88a8.72,8.72,0,0,1,1.78-6.23h2a1.26,1.26,0,0,1,1.24,1.27s0,.07,0,.1Z"/><path id="Path_14127" data-name="Path 14127" class="cls-11" d="M832.65,1616.66v.53H779.73l.12-.52Z"/><path id="Path_14128" data-name="Path 14128" class="cls-11" d="M817.36,1720.07l-.59-5c-1.21-10.41-12.95-18.84-26.21-18.84s-23,8.43-21.83,18.84l.59,5Z"/><path id="Path_14129" data-name="Path 14129" class="cls-11" d="M814.05,1676.46H804.4l-.16-1.8h9.64Z"/><path id="Path_14130" data-name="Path 14130" class="cls-11" d="M778.66,1676.73h-4.25a1.27,1.27,0,0,1-1.24-1.13l-1.38-15.2a1,1,0,0,1,.89-1.12h4.38a1.28,1.28,0,0,1,1.24,1.13l1.38,15.2a1,1,0,0,1-.89,1.12Z"/><path id="Path_14131" data-name="Path 14131" class="cls-7" d="M793,1699.9a21.92,21.92,0,1,0,22,21.92,21.92,21.92,0,0,0-22-21.92Z"/><path id="Path_14132" data-name="Path 14132" class="cls-8" d="M793,1708.42a13.4,13.4,0,1,0,13.48,13.4A13.4,13.4,0,0,0,793,1708.42Z"/><path id="Path_14133" data-name="Path 14133" class="cls-7" d="M793,1717.52a4.3,4.3,0,1,0,4.33,4.3A4.29,4.29,0,0,0,793,1717.52Z"/><path id="Path_14134" data-name="Path 14134" class="cls-12" d="M992.83,1578.36h66v144h-66Z"/><path id="Path_14135" data-name="Path 14135" class="cls-13" d="M999.42,1585.58h52.85v128.64H999.42Z"/><path id="Path_14136" data-name="Path 14136" class="cls-12" d="M1000,1595.7h52.26v1.7H1000Z"/><path id="Path_14137" data-name="Path 14137" class="cls-12" d="M999.81,1664.65h52.26v1.7H999.81Z"/><path id="Path_14138" data-name="Path 14138" class="cls-12" d="M999.62,1630.65h52.26v1.7H999.62Z"/><path id="Path_14139" data-name="Path 14139" class="cls-12" d="M999.42,1699.6h52.26v1.7H999.42Z"/><path id="Path_14140" data-name="Path 14140" class="cls-12" d="M1000,1612.8h52.26v1.7H1000Z"/><path id="Path_14141" data-name="Path 14141" class="cls-12" d="M999.81,1681.74h52.26v1.7H999.81Z"/><path id="Path_14142" data-name="Path 14142" class="cls-12" d="M999.62,1647.74h52.26v1.7H999.62Z"/><path id="Path_14143" data-name="Path 14143" class="cls-12" d="M832.07,1578.36H1000v144H832.07Z"/><path id="Path_14144" data-name="Path 14144" class="cls-14" d="M837.79,1582.67h155v130.69h-155Z"/><path id="Path_14145" data-name="Path 14145" class="cls-15" d="M920,1617.28a24.34,24.34,0,1,0,24.34,24.35h0A24.35,24.35,0,0,0,920,1617.28Z"/><path id="Path_14146" data-name="Path 14146" class="cls-11" d="M964.39,1722.38l-.62-5.48c-1.3-11.42-13.85-20.67-28-20.67s-24.62,9.25-23.32,20.67l.62,5.48Z"/><path id="Path_14147" data-name="Path 14147" class="cls-7" d="M937.71,1700.79a22.39,22.39,0,1,0,22.52,22.38,22.38,22.38,0,0,0-22.52-22.38Z"/><path id="Path_14148" data-name="Path 14148" class="cls-8" d="M937.68,1709.49a13.69,13.69,0,1,0,13.77,13.68,13.69,13.69,0,0,0-13.77-13.68Z"/><path id="Path_14149" data-name="Path 14149" class="cls-16" d="M937.71,1718.79a4.39,4.39,0,1,0,4.41,4.38,4.39,4.39,0,0,0-4.41-4.38Z"/><path id="Path_14150" data-name="Path 14150" class="cls-17" d="M952.89,1720.07h-3.08v10.14h-4v-10.14h-3.08l5.08-6.32Z"/><g id="Group_3295" data-name="Group 3295"><rect id="Rectangle_1925" data-name="Rectangle 1925" class="cls-11" x="917.12" y="1627.07" width="5.82" height="29.11"/><rect id="Rectangle_1926" data-name="Rectangle 1926" class="cls-11" x="905.48" y="1638.72" width="29.11" height="5.82"/></g><g id="Group_3299" data-name="Group 3299"><g id="Group_3296" data-name="Group 3296"><path id="Path_14152" data-name="Path 14152" class="cls-3" d="M920.27,1676.9a35.66,35.66,0,0,1-34.78-28.19,1,1,0,0,1,2-.43v0a33.55,33.55,0,1,0,15.22-35.5,1,1,0,0,1-1.36-.38,1,1,0,0,1,.31-1.32,35.55,35.55,0,1,1,18.65,65.8Z"/></g><g id="Group_3298" data-name="Group 3298"><g id="Group_3297" data-name="Group 3297"><path id="Path_14153" data-name="Path 14153" class="cls-3" d="M891.74,1649.31l-6-8-3.89,9.18Z"/></g></g></g></g></g><g id="Boxes_back" data-name="Boxes back"><g id="Group_3301" data-name="Group 3301"><path id="Path_14154" data-name="Path 14154" class="cls-18" d="M1046.22,1670.81h-27.41v30.35h27.41v-30.35Z"/><path id="Path_14155" data-name="Path 14155" class="cls-19" d="M1060.37,1670.81h-14.15v30.35h14.15v-30.35Z"/><path id="Path_14156" data-name="Path 14156" class="cls-10" d="M1053.38,1685.92l-3.07-6.53q-1.55-3.26-3.12-6.49c1,2.2,2,4.4,3,6.59l3,6.56,3.07,6.52c1,2.18,2.06,4.34,3.11,6.5-1-2.2-2-4.4-3-6.59l-3-6.56Z"/><path id="Path_14157" data-name="Path 14157" class="cls-10" d="M1053.21,1685.92l-3,6.56c-1,2.19-2,4.38-3,6.59q1.57-3.24,3.12-6.5l3.07-6.53,3-6.55c1-2.19,2-4.39,3-6.59-1,2.15-2.08,4.32-3.11,6.49l-3.07,6.53Z"/></g><g id="Group_3303" data-name="Group 3303"><path id="Path_14158" data-name="Path 14158" class="cls-20" d="M1052,1698.92H1023.1v32H1052v-32Z"/><path id="Path_14159" data-name="Path 14159" class="cls-21" d="M1067,1698.92H1052v32H1067v-32Z"/><path id="Path_14160" data-name="Path 14160" class="cls-22" d="M1059.58,1714.87l-3.24-6.89c-1.08-2.29-2.18-4.58-3.28-6.85q1.56,3.48,3.15,6.95l3.2,6.92,3.24,6.89c1.08,2.3,2.18,4.58,3.28,6.86-1-2.33-2.09-4.64-3.15-7l-3.2-6.92Z"/><path id="Path_14161" data-name="Path 14161" class="cls-22" d="M1059.41,1714.87l-3.2,6.92c-1.07,2.32-2.12,4.63-3.15,7,1.1-2.28,2.2-4.56,3.28-6.86l3.24-6.89,3.2-6.92q1.6-3.46,3.16-6.95-1.67,3.42-3.29,6.85l-3.24,6.89Z"/><g id="Group_3302" data-name="Group 3302"><rect id="Rectangle_1927" data-name="Rectangle 1927" class="cls-2" x="1036.43" y="1709.29" width="2.26" height="11.31"/><rect id="Rectangle_1928" data-name="Rectangle 1928" class="cls-2" x="1031.91" y="1713.81" width="11.31" height="2.26"/></g></g><g id="Group_3305" data-name="Group 3305"><path id="Path_14162" data-name="Path 14162" class="cls-20" d="M1048.7,1640.9h-27.4v30.35h27.4V1640.9Z"/><path id="Path_14163" data-name="Path 14163" class="cls-21" d="M1062.86,1640.9H1048.7v30.35h14.16V1640.9Z"/><path id="Path_14164" data-name="Path 14164" class="cls-22" d="M1055.87,1656l-3.08-6.53c-1-2.18-2.06-4.34-3.11-6.5,1,2.2,2,4.4,3,6.59l3,6.56,3.07,6.53q1.53,3.25,3.11,6.5c-1-2.21-2-4.4-3-6.59l-3-6.56Z"/><path id="Path_14165" data-name="Path 14165" class="cls-22" d="M1055.7,1656l-3,6.55c-1,2.19-2,4.39-3,6.59,1-2.16,2.09-4.32,3.11-6.5l3.08-6.53,3-6.55c1-2.19,2-4.39,3-6.59-1.05,2.16-2.08,4.32-3.11,6.49l-3.07,6.53Z"/><g id="Group_3304" data-name="Group 3304"><rect id="Rectangle_1929" data-name="Rectangle 1929" class="cls-2" x="1033.87" y="1650.42" width="2.26" height="11.31"/><rect id="Rectangle_1930" data-name="Rectangle 1930" class="cls-2" x="1029.35" y="1654.94" width="11.31" height="2.26"/></g></g><g id="Group_3308" data-name="Group 3308"><path id="Path_14166" data-name="Path 14166" class="cls-19" d="M1028.09,1735.35a4.27,4.27,0,1,1-4.26,4.27h0A4.27,4.27,0,0,1,1028.09,1735.35Zm0,2.13a2.14,2.14,0,1,1-2.13,2.14h0A2.13,2.13,0,0,1,1028.09,1737.48Z"/><path id="Path_14167" data-name="Path 14167" class="cls-19" d="M1066.84,1735.35a4.27,4.27,0,1,1-4.27,4.27h0A4.27,4.27,0,0,1,1066.84,1735.35Zm0,2.13a2.14,2.14,0,1,1-2.13,2.14h0A2.13,2.13,0,0,1,1066.84,1737.48Z"/><path id="Path_14168" data-name="Path 14168" class="cls-20" d="M1029.5,1732.35h-2.79V1739a1.4,1.4,0,0,0,1.4,1.39h0a1.39,1.39,0,0,0,1.39-1.39h0Z"/><path id="Path_14169" data-name="Path 14169" class="cls-20" d="M1068.24,1732.35h-2.79V1739a1.4,1.4,0,0,0,1.4,1.39h0a1.39,1.39,0,0,0,1.39-1.39h0Z"/><g id="Group_3307" data-name="Group 3307"><g id="Group_3306" data-name="Group 3306"><path id="Path_14170" data-name="Path 14170" class="cls-2" d="M1068.51,1732.3l-5.66-.74,10.13-78a7.89,7.89,0,0,1,7.69-6.83l9.92-.11.06,5.7-9.92.11a2.17,2.17,0,0,0-2.1,1.86Z"/></g><path id="Path_14171" data-name="Path 14171" class="cls-19" d="M1074.41,1729.9h-53.2V1734h53.2v-4.11Z"/></g></g></g><g id="Leg_back" data-name="Leg back"><g id="Group_3309" data-name="Group 3309"><path id="Path_14172" data-name="Path 14172" class="cls-2" d="M1142,1733.25l-.65,3.39L1130,1741.1a2.88,2.88,0,0,0-1.93,3.11h24.77l-2.42-11H1142Z"/><path id="Path_14173" data-name="Path 14173" class="cls-11" d="M1126.09,1700.21c1.28,5.28,10.42,24,12.24,34.22,5.63.65,7.75.4,15,.66-2.16-10.87-9.39-35-10.15-37.34-1.26-3.92-3.5-28.51-4-35.18-11.19-2.54-21.16.87-28.17-.78,2.49,12.94,12.16,26.38,15.07,38.42"/></g></g><g id="hand_back" data-name="hand back"><g id="Group_3310" data-name="Group 3310"><path id="Path_14175" data-name="Path 14175" class="cls-23" d="M1111.18,1642.76c-.83.75-1.68,1.5-2.59,2.26-.45.37-.92.75-1.42,1.13a20,20,0,0,1-1.72,1.17c-.17.1-.37.22-.57.32l-.38.19-.33.15a10.17,10.17,0,0,1-1.06.36c-.64.18-1.21.31-1.77.42-1.12.22-2.17.38-3.23.52s-2.09.27-3.12.38c-4.15.42-8.22.7-12.35.87a2.93,2.93,0,0,1-2.89-2.57,3.18,3.18,0,0,1,2.23-3.74h0l3-.65,3-.68q3-.68,5.88-1.42c1-.25,1.94-.5,2.89-.77s1.88-.55,2.74-.86c.43-.15.84-.31,1.17-.46a1.65,1.65,0,0,0,.37-.2l0,0h0l.1-.1c.18-.17.48-.45.78-.76s.63-.65,1-1c.65-.72,1.31-1.49,2-2.28s1.31-1.61,2-2.44Z"/><path id="Path_14176" data-name="Path 14176" class="cls-23" d="M1077.33,1652.08a16.54,16.54,0,0,1-5.46,2.2c-2.8.38-2.12-1.59-1.72-1.8a10.42,10.42,0,0,1-1.12,0c-.83,0-1.3-1.79-.12-2-1.72,0-2.57-2.17-.67-2.45-1.42.07-1-2,0-2.21-.31-.12-.25-.72,0-1s.62-.27.9-.47c.45-.32.63-1,1-1.45a2.22,2.22,0,0,1,2.12-.56,23,23,0,0,1,4.82,1.83c1.6.65,2.49.32,5.24-.06,0,2.16.74,5.51.75,6.36a14,14,0,0,0-5.75,1.57"/></g></g><g id="body"><path id="Path_14177" data-name="Path 14177" class="cls-24" d="M1125.06,1599.25s-4.27,16.76-3.49,22.14a21.88,21.88,0,0,1-11.14-2.23s6.38-13.77,6.36-17.22l8.27-2.69Z"/><path id="Path_14178" data-name="Path 14178" class="cls-11" d="M1114.76,1609a6.58,6.58,0,0,0,3.92-1s-1.18,3.61-4.78,3.11l.86-2.14Z"/><path id="Path_14179" data-name="Path 14179" class="cls-9" d="M1136.78,1662c-.14-3.52.45-3.84.18-5.12-2.75-12.68,2.28-20.86-2.89-35.19-1.32-3.63-4.53-9.07-9.08-10.51-6.69-2.12-17.77,10.08-18.19,17.57-.21,3.81-2.37,17.11,2.66,21.53,2,1.72,8.31,2,4.54,11.58,0,0,6.13,5.37,10.19,4.88S1136.78,1662,1136.78,1662Z"/><path id="Path_14180" data-name="Path 14180" class="cls-25" d="M1123.52,1609.44l.87,1.61s-11.09,3.54-14.42,10.41c0,0-1.06-3.74,3.5-8.33,1.69-1.71,6.13-3.46,8.3-4.25a1.44,1.44,0,0,1,1.75.56"/><path id="Path_14181" data-name="Path 14181" class="cls-11" d="M1111,1662.18c-.6-7.58-3.07-12.55-4.87-26.21a24.92,24.92,0,0,0,8.54-1.16c-.14,5.73-3.1,22.55,10.1,22.89,9.39.24,6.83-7.34,6.79-17.75.54-.06,3.89,0,5,0,1.81,11.62,3.65,14.41,3.63,20.88a26.91,26.91,0,0,1-1.24,7.82s-4.44,3.11-14.67,1.92S1111,1662.28,1111,1662.18Z"/><path id="Path_14182" data-name="Path 14182" class="cls-11" d="M1135.17,1642c.25-8.93-1.77-27.57-11.74-27.08-12.42.62-13.09,11.9-12.71,21.69l2.29-.32c-.36-9.45,1.1-18.76,9.89-19.66,9.86-1,9.59,18.43,9.06,25.64l3.21-.27Z"/></g><g id="head"><g id="Group_3311" data-name="Group 3311"><path id="Path_14183" data-name="Path 14183" class="cls-26" d="M1107.33,1594.74s.42-14.44,15.05-8.46c0,0-9,9.26-15.05,8.46"/><path id="Path_14184" data-name="Path 14184" class="cls-10" d="M1124.94,1600c-1.21,6.06-6.23,10.17-11.22,9.17s-8-6.72-6.82-12.78,6.24-10.16,11.22-9.16,8,6.71,6.82,12.77"/><path id="Path_14185" data-name="Path 14185" class="cls-22" d="M1108.35,1592.44a40.32,40.32,0,0,0,10.68,2.33,6.84,6.84,0,0,1,.42,4.73c-1.6,4.31,4.27,5.49,4.27,5.49s5.58-8.5,4.47-13.2c-.76-3.18-4.23-5-7.33-6.11-2.35-.83-6.47-.93-8.48.53a13.21,13.21,0,0,0-4,6.23"/><path id="Path_14186" data-name="Path 14186" class="cls-27" d="M1122.21,1600.08a2,2,0,1,1-1.59-2.37,2,2,0,0,1,1.59,2.37h0"/><path id="Path_14187" data-name="Path 14187" class="cls-2" d="M1110.33,1586.58l15.46,15.31s8.57-7.09.74-14.85c-9.61-9.54-16.2-.46-16.2-.46"/><path id="Path_14188" data-name="Path 14188" class="cls-2" d="M1118.24,1594.42l-9.27-.55a10.36,10.36,0,0,1-7.24-3.6l-3.29-3.86,11.89.17,7.91,7.84Z"/></g></g><g id="Leg_front" data-name="Leg front"><g id="Group_3312" data-name="Group 3312"><path id="Path_14189" data-name="Path 14189" class="cls-2" d="M1103.77,1734l-1.14,3.3-12.29,4.36a3.34,3.34,0,0,0-2.41,3h25.38l-1-10.7Z"/><path id="Path_14190" data-name="Path 14190" class="cls-11" d="M1100.58,1697.07c.69-7.16,10.07-30.32,10.44-34.54,0,0,4.31-2.64,13.25-1.74s14.7,7.83,14.7,7.83c-4.32,14-18.65,24.23-20.31,30.94-.36,1.47-3.9,19.1-1.65,35.65-5.64-.34-11.65-.32-16.44-.32a186,186,0,0,1,0-37.82"/></g></g><g id="hand_front" data-name="hand front"><g id="Group_3313" data-name="Group 3313"><path id="Path_14191" data-name="Path 14191" class="cls-10" d="M1119.53,1620.82l-1,1.25-1,1.26-2,2.51c-1.35,1.67-2.69,3.34-4,5s-2.74,3.26-4.11,4.85c-.69.79-1.38,1.56-2.07,2.32s-1.39,1.49-2.07,2.17c-.34.34-.67.67-1,1s-.63.55-.82.71l-.11.1h0l0,0a2.64,2.64,0,0,1-.38.18c-.34.13-.76.27-1.19.4-.88.25-1.83.48-2.78.7s-1.93.42-2.91.61c-2,.39-3.95.75-5.94,1.09l-3,.51-3,.48h0a3.15,3.15,0,0,0-2.4,3.61,3,3,0,0,0,2.77,2.73c4.13.06,8.22,0,12.37-.18,1,0,2.09-.11,3.14-.2s2.12-.18,3.25-.34c.56-.08,1.13-.17,1.78-.32a9.55,9.55,0,0,0,1.08-.3l.34-.12.39-.17.57-.29a20.07,20.07,0,0,0,1.78-1.08c.52-.35,1-.7,1.47-1,.94-.7,1.82-1.4,2.68-2.11s1.71-1.43,2.55-2.15c1.66-1.43,3.28-2.9,4.88-4.38s3.19-3,4.76-4.49l2.34-2.28,1.16-1.15,1.18-1.17a7.49,7.49,0,0,0,.5-9.71,5.66,5.66,0,0,0-7.92-1.21,5.42,5.42,0,0,0-.72.63,6.91,6.91,0,0,0-.51.57l0,.06Z"/><path id="Path_14192" data-name="Path 14192" class="cls-11" d="M1117.26,1641.87c-2.86-4-9.22-12.73-9.23-12.75,4.39-4.53,14.44-16.16,20.83-8.43C1136.29,1629.69,1117.26,1641.87,1117.26,1641.87Z"/><path id="Path_14193" data-name="Path 14193" class="cls-10" d="M1076.69,1653.5a18.73,18.73,0,0,1-6,1.88c-3,.21-2.21-1.72-1.77-1.9a11.91,11.91,0,0,1-1.2,0c-.89,0-1.31-1.87,0-2-1.86-.1-2.67-2.31-.62-2.48-1.53,0-.93-2.1.09-2.21-.33-.13-.23-.74.06-1a9.32,9.32,0,0,1,1-.42c.5-.3.73-1,1.16-1.39a2.49,2.49,0,0,1,2.31-.43,26.63,26.63,0,0,1,5.1,2.11c1.69.74,2.66.47,5.63.25-.14,2.15.55,5.54.52,6.4a15.8,15.8,0,0,0-6.25,1.23"/></g></g><g id="Boxes_Front" data-name="Boxes Front"><g id="Group_3315" data-name="Group 3315"><path id="Path_14194" data-name="Path 14194" class="cls-20" d="M815.71,1712.54h57.91V1744H815.71Z"/><path id="Path_14195" data-name="Path 14195" class="cls-19" d="M819.1,1712.54h49.56v29.9H819.1Z"/><g id="Group_3314" data-name="Group 3314"><rect id="Rectangle_1931" data-name="Rectangle 1931" class="cls-22" x="842.75" y="1721.84" width="2.26" height="11.31"/><rect id="Rectangle_1932" data-name="Rectangle 1932" class="cls-22" x="838.23" y="1726.36" width="11.31" height="2.26"/></g></g><g id="Group_3317" data-name="Group 3317"><path id="Path_14196" data-name="Path 14196" class="cls-20" d="M824.82,1681.14h57.91v31.48H824.82Z"/><path id="Path_14197" data-name="Path 14197" class="cls-19" d="M828.21,1681.14h49.55V1711H828.21Z"/><g id="Group_3316" data-name="Group 3316"><rect id="Rectangle_1933" data-name="Rectangle 1933" class="cls-22" x="851.85" y="1690.44" width="2.26" height="11.31"/><rect id="Rectangle_1934" data-name="Rectangle 1934" class="cls-22" x="847.33" y="1694.96" width="11.31" height="2.26"/></g></g><g id="Group_3319" data-name="Group 3319"><path id="Path_14198" data-name="Path 14198" class="cls-19" d="M927.45,1693h-49.2v50.87h49.2Z"/><g id="Group_3318" data-name="Group 3318"><rect id="Rectangle_1935" data-name="Rectangle 1935" class="cls-22" x="901.72" y="1712.75" width="2.26" height="11.31"/><rect id="Rectangle_1936" data-name="Rectangle 1936" class="cls-22" x="897.2" y="1717.27" width="11.31" height="2.26"/></g></g><g id="Group_3321" data-name="Group 3321"><path id="Path_14199" data-name="Path 14199" class="cls-19" d="M932,1696h46.23v47.79H932Z"/><g id="Group_3320" data-name="Group 3320"><rect id="Rectangle_1937" data-name="Rectangle 1937" class="cls-22" x="952.98" y="1712.79" width="2.26" height="11.31"/><rect id="Rectangle_1938" data-name="Rectangle 1938" class="cls-22" x="948.45" y="1717.32" width="11.31" height="2.26"/></g></g></g></g></g></svg>