<svg id="Layer_1" data-name="Layer 1" xmlns="http://www.w3.org/2000/svg" viewBox="0 0 1920 1321.56"><defs><style>.cls-1{fill:#1a5632;}</style></defs><path class="cls-1" d="M1909.36,384.4c-7.72-8.85-15.78-17.73-23.92-26.34s-16.63-17.25-25.2-25.63-17.47-16.75-26.44-24.87-18.29-16.24-27.66-24.11-19.08-15.71-28.84-23.31-19.85-15.16-30-22.48-20.59-14.6-31.09-21.64-21.32-14-32.17-20.76c-21.73-13.5-44.42-26.56-67.43-38.8s-47.09-24.06-71.32-35-49.58-21.43-75-31c-25.53-9.64-51.87-18.65-78.29-26.79-26.61-8.21-54-15.73-81.36-22.38C1197.83,13.89,1079.84,0,960,0S722.17,13.89,609.29,41.3c-27.37,6.64-54.75,14.17-81.36,22.37-26.42,8.14-52.76,17.16-78.29,26.79-25.38,9.58-50.59,20-74.95,31s-48.24,22.72-71.32,35-45.7,25.3-67.43,38.8C225.09,202,214.26,209,203.77,216s-21,14.32-31.09,21.64-20.22,14.88-30,22.49-19.46,15.43-28.84,23.31-18.67,16-27.66,24.1-17.88,16.51-26.44,24.88-17.06,17-25.2,25.62-16.19,17.48-23.92,26.35Q5.27,390.57,0,396.87v695q5.27-6.28,10.64-12.46c7.73-8.87,15.76-17.72,23.92-26.35s16.62-17.23,25.2-25.62,17.46-16.74,26.44-24.88,18.28-16.23,27.66-24.1,19.07-15.7,28.84-23.31,19.84-15.17,30-22.49,20.6-14.6,31.09-21.64,21.32-14,32.17-20.76c21.73-13.5,44.42-26.56,67.43-38.8s47.08-24.06,71.32-35,49.57-21.42,74.95-31c25.53-9.63,51.87-18.65,78.29-26.79,26.61-8.2,54-15.73,81.36-22.37C722.17,708.89,840.16,695,960,695s237.83,13.89,350.71,41.29c27.37,6.65,54.75,14.17,81.36,22.38,26.42,8.14,52.76,17.15,78.29,26.79,25.37,9.57,50.59,20,75,31s48.23,22.71,71.32,35,45.7,25.3,67.43,38.8c10.85,6.74,21.67,13.72,32.17,20.76s21,14.32,31.09,21.64,20.22,14.88,30,22.48,19.47,15.45,28.84,23.31,18.69,16,27.66,24.11,17.88,16.5,26.44,24.87,17.06,17,25.2,25.63,16.2,17.49,23.92,26.34c3.58,4.11,7.13,8.28,10.64,12.46v-695C1916.49,392.68,1912.94,388.51,1909.36,384.4Z"/></svg>