<svg xmlns="http://www.w3.org/2000/svg" xmlns:xlink="http://www.w3.org/1999/xlink" width="1920" height="475" viewBox="0 0 1920 475">
  <defs>
    <linearGradient id="linear-gradient" x1="0.5" y1="0.293" x2="0.5" y2="0.924" gradientUnits="objectBoundingBox">
      <stop offset="0" stop-color="#fff"/>
      <stop offset="1" stop-color="#fff" stop-opacity="0.039"/>
    </linearGradient>
    <linearGradient id="linear-gradient-3" x1="0.059" y1="0.043" x2="0.845" y2="0.971" gradientUnits="objectBoundingBox">
      <stop offset="0" stop-color="#1e2859"/>
      <stop offset="1" stop-color="#1d5539"/>
    </linearGradient>
    <clipPath id="clip-path">
      <rect id="Rectangle_410" data-name="Rectangle 410" width="252.339" height="190.741" fill="url(#linear-gradient)"/>
    </clipPath>
    <clipPath id="clip-path-2">
      <rect id="Rectangle_410-2" data-name="Rectangle 410" width="94.312" height="71.29" fill="url(#linear-gradient)"/>
    </clipPath>
  </defs>
  <g id="Group_6251" data-name="Group 6251" transform="translate(-19.307 -7451.09)">
    <rect id="Rectangle_403" data-name="Rectangle 403" width="1920" height="475" transform="translate(19.306 7451.09)" fill="url(#linear-gradient-3)"/>
    <ellipse id="Ellipse_35" data-name="Ellipse 35" cx="201.846" cy="201.424" rx="201.846" ry="201.424" transform="translate(322.057 7487.09)" fill="#1e2859" style="mix-blend-mode: luminosity;isolation: isolate"/>
    <circle id="Ellipse_37" data-name="Ellipse 37" cx="78.5" cy="78.5" r="78.5" transform="translate(1600 7610.09)" fill="#1e2859" style="mix-blend-mode: luminosity;isolation: isolate"/>
    <g id="Group_362" data-name="Group 362" transform="translate(486.422 7783.831) rotate(180)">
      <g id="Group_361" data-name="Group 361" clip-path="url(#clip-path)">
        <path id="Path_499" data-name="Path 499" d="M7.979,83.143V0h93.757V66.025c0,35.324-5.155,61-15.626,76.759-13.8,21.193-35.409,37.09-65.164,47.958L0,162.892c17.954-6.115,31.087-15.082,39.565-27.172,8.31-12.092,13.13-29.616,14.128-52.577Zm150.608,0V0h93.752V66.025c0,35.324-5.153,61-15.625,76.759-13.8,21.193-35.406,37.09-65.162,47.958l-20.945-27.849c17.954-6.115,31.084-15.082,39.563-27.172C198.48,123.628,203.3,106.1,204.3,83.143Z" fill-rule="evenodd" fill="url(#linear-gradient)"/>
      </g>
    </g>
    <g id="Group_401" data-name="Group 401" transform="translate(1545.666 7653.09)">
      <g id="Group_361-2" data-name="Group 361" clip-path="url(#clip-path-2)">
        <path id="Path_499-2" data-name="Path 499" d="M2.982,31.075V0H38.024V24.677c0,13.2-1.927,22.8-5.84,28.689C27.027,61.286,18.949,67.228,7.828,71.29L0,60.881C6.71,58.6,11.619,55.244,14.787,50.725c3.106-4.519,4.907-11.069,5.28-19.651Zm56.29,0V0h35.04V24.677c0,13.2-1.926,22.8-5.84,28.689C83.315,61.286,75.239,67.228,64.118,71.29L56.289,60.881C63,58.6,67.907,55.244,71.076,50.725c3.106-4.519,4.909-11.069,5.281-19.651Z" fill-rule="evenodd" fill="url(#linear-gradient)"/>
      </g>
    </g>
  </g>
</svg>
