<svg xmlns="http://www.w3.org/2000/svg" width="132.001" height="118.631" viewBox="0 0 132.001 118.631">
  <g id="Group_2503" data-name="Group 2503" transform="translate(0 0)">
    <g id="Group_2502" data-name="Group 2502">
      <path id="Path_11300" data-name="Path 11300" d="M850.1,859.736a9.145,9.145,0,0,1,6.228,2.1q2.234,2.034,3.506,6.678a12,12,0,0,0,1.773,4.181,3.169,3.169,0,0,0,2.539,1.231l.215-13.285,6.372.1-.337,20.735-4.621-.075a11.546,11.546,0,0,1-7.193-2.159q-2.615-2.086-4.376-7.052a13.25,13.25,0,0,0-1.89-3.824,2.991,2.991,0,0,0-2.339-1.093,2.244,2.244,0,0,0-1.855.8,3.488,3.488,0,0,0-.709,2.256q-.056,3.366,3.575,6.568l-5.541,3.906a13.837,13.837,0,0,1-4.4-10.936q.079-4.892,2.457-7.547A8.206,8.206,0,0,1,850.1,859.736Z" transform="translate(-841.04 -762.848)" fill="#fff"/>
      <path id="Path_11301" data-name="Path 11301" d="M872.893,831.3l-.924,3.144,5.166,1.522-2.105,7.148-5.167-1.522-3.652,12.4-5.426-1.6L847,835.328l2.232-7.579,16.836,4.959.927-3.144Zm-16.613,6.291-.033.112,6.117,7.575,1.6-5.425Z" transform="translate(-841.605 -759.815)" fill="#fff"/>
      <path id="Path_11302" data-name="Path 11302" d="M875.137,795.34q2.532-3.149,5.526-3.217t6.735,2.942l10.458,8.413-4.5,5.6L882.9,800.661q-2.482-2-3.947-.179-1.238,1.54.031,4.116l10.913,8.778-4.5,5.6-24.482-19.7,4.5-5.6,8.044,6.471.057-.07A6.975,6.975,0,0,1,875.137,795.34Z" transform="translate(-842.924 -756.437)" fill="#fff"/>
      <path id="Path_11303" data-name="Path 11303" d="M897,792.127l-1.8-2.464q-2.864-3.912-2.258-7.608t4.552-6.586q3.948-2.888,7.655-2.347t6.57,4.455l1.8,2.463q2.865,3.913,2.258,7.609t-4.554,6.586q-3.948,2.889-7.653,2.346T897,792.127Zm3.994-6.7,1.8,2.464q2.3,3.151,4.768,1.35t.159-4.954l-1.8-2.464q-2.305-3.151-4.77-1.35T900.99,785.422Z" transform="translate(-845.951 -754.627)" fill="#fff"/>
      <path id="Path_11304" data-name="Path 11304" d="M942.036,778l-5.444,2.1-1.134-2.064-.083.032a6.78,6.78,0,0,1-4.316,4.651q-3.768,1.457-6.373.008T920.35,776.8l-4.837-12.52,6.7-2.589,4.836,12.52q1.149,2.974,3.283,2.148,1.8-.7,1.993-3.561l-5.048-13.064,6.7-2.589Z" transform="translate(-848.101 -753.121)" fill="#fff"/>
      <path id="Path_11305" data-name="Path 11305" d="M957.966,752.812a8.032,8.032,0,0,1,1.487-.074l.974,6.889a10.408,10.408,0,0,0-1.708.105q-4.312.611-4.1,5.613l1.5,10.622-7.112,1.007-3.133-22.133,6.223-.881.788,3.651.088-.013A5.376,5.376,0,0,1,957.966,752.812Z" transform="translate(-850.98 -752.702)" fill="#fff"/>
      <path id="Path_11306" data-name="Path 11306" d="M984.484,769.041a6.684,6.684,0,0,1-2.788,5.381q-2.562,1.8-7.043,1.517a15.991,15.991,0,0,1-9.964-3.9l3.589-4.9a11.833,11.833,0,0,0,6.911,3.129q2.193.137,2.287-1.341a1.126,1.126,0,0,0-.675-1.076,9.644,9.644,0,0,0-2.719-.754q-4.227-.759-6.008-2.489a6.039,6.039,0,0,1-1.579-4.956,6.685,6.685,0,0,1,2.847-5.265,10.071,10.071,0,0,1,6.715-1.65q5.556.348,8.709,3.153l-3.089,4.8a8.633,8.633,0,0,0-5.392-2.225q-2.69-.168-2.782,1.31a.985.985,0,0,0,.638.94,9.31,9.31,0,0,0,2.546.654q4.318.72,6.162,2.521A6.3,6.3,0,0,1,984.484,769.041Z" transform="translate(-852.764 -752.699)" fill="#fff"/>
    </g>
  </g>
</svg>
