<svg id="Group_2501" data-name="Group 2501" xmlns="http://www.w3.org/2000/svg" width="93.596" height="137.807" viewBox="0 0 93.596 137.807">
  <g id="Group_2500" data-name="Group 2500">
    <path id="Path_11293" data-name="Path 11293" d="M1132.327,895.682l.223-2.906-4.777-.366.505-6.608,4.777.366.876-11.465,5.016.384,15.156,12.291-.536,7.006L1138,893.193l-.223,2.906Zm13.285-8.554.008-.1-6.727-5.455-.384,5.015Z" transform="translate(-1060.509 -874.703)" fill="#fff"/>
    <path id="Path_11294" data-name="Path 11294" d="M1136.837,917.788l-.078-.018q-2.409,3.988-7.385,2.825a6.685,6.685,0,0,1-4.969-3.909q-1.317-3.055-.171-7.953t3.678-7.054a6.685,6.685,0,0,1,6.188-1.3q4.976,1.164,5.368,5.806l.078.018a5.132,5.132,0,0,1,5.874-2.152A6.221,6.221,0,0,1,1150,907.6q1.238,2.769.2,7.2t-3.373,6.366a6.229,6.229,0,0,1-5.683,1.153A5.133,5.133,0,0,1,1136.837,917.788ZM1132.961,907q-2.527-.591-3.363,2.986t1.692,4.167q2.525.591,3.362-2.986T1132.961,907Zm8.909,8.724q2.333.546,2.968-2.176t-1.7-3.267q-2.333-.544-2.969,2.177T1141.87,915.725Z" transform="translate(-1060.122 -877.115)" fill="#fff"/>
    <path id="Path_11295" data-name="Path 11295" d="M1130.363,951.842q-1.551,3.24-4.13,3.909t-6.431-1.176l-10.766-5.155,2.759-5.761,10.766,5.155q2.557,1.225,3.454-.648.758-1.585-.865-3.557l-11.236-5.379,2.759-5.762,25.208,12.07-2.759,5.761-8.282-3.966-.034.072A6.2,6.2,0,0,1,1130.363,951.842Z" transform="translate(-1058.732 -880.275)" fill="#fff"/>
    <path id="Path_11296" data-name="Path 11296" d="M1113.787,959l2.254,1.515a8.911,8.911,0,0,1,4.19,5.681,10.857,10.857,0,0,1-7.509,11.164,8.9,8.9,0,0,1-6.842-1.738l-2.252-1.515a8.907,8.907,0,0,1-4.19-5.682,10.858,10.858,0,0,1,7.509-11.164A8.906,8.906,0,0,1,1113.787,959Zm-1.312,6.816-2.253-1.515q-2.883-1.939-4.4.314t1.367,4.192l2.254,1.515q2.881,1.938,4.4-.315T1112.475,965.818Z" transform="translate(-1057.81 -882.517)" fill="#fff"/>
    <path id="Path_11297" data-name="Path 11297" d="M1081.132,986.431l3.487-3.844,1.725,1.188.054-.06a6.029,6.029,0,0,1,1.572-5.418q2.414-2.661,5.062-2.551t5.813,2.981l8.843,8.019-4.292,4.732-8.843-8.02q-2.1-1.905-3.467-.4-1.154,1.271-.163,3.626l9.228,8.367-4.292,4.732Z" transform="translate(-1056.086 -884.283)" fill="#fff"/>
    <path id="Path_11298" data-name="Path 11298" d="M1081.942,1013.075a7.115,7.115,0,0,1-1.078.769l-4.032-4.694a9.3,9.3,0,0,0,1.229-.9q2.937-2.524.382-6.172l-6.218-7.238,4.845-4.163,12.956,15.082-4.239,3.642-2.341-2.358-.062.052A4.78,4.78,0,0,1,1081.942,1013.075Z" transform="translate(-1055.242 -885.7)" fill="#fff"/>
    <path id="Path_11299" data-name="Path 11299" d="M1054.693,1015.179a5.944,5.944,0,0,1-.971-5.3,9.666,9.666,0,0,1,4.124-4.9,14.223,14.223,0,0,1,9.134-2.684l.149,5.4a10.531,10.531,0,0,0-6.564,1.565q-1.616,1.1-.876,2.19a1,1,0,0,0,1.06.388,8.568,8.568,0,0,0,2.324-.95,10.231,10.231,0,0,1,5.578-1.523,5.365,5.365,0,0,1,3.811,2.623,5.946,5.946,0,0,1,.867,5.252,8.953,8.953,0,0,1-3.823,4.818,12.47,12.47,0,0,1-7.839,2.528l-.444-5.056a7.679,7.679,0,0,0,5-1.374q1.982-1.346,1.241-2.436a.874.874,0,0,0-.96-.312,8.266,8.266,0,0,0-2.145.927q-3.428,1.847-5.705,1.585A5.608,5.608,0,0,1,1054.693,1015.179Z" transform="translate(-1053.463 -886.798)" fill="#fff"/>
  </g>
</svg>
