<svg
xmlns="http://www.w3.org/2000/svg"
x="0"
y="0"
baseProfile="tiny"
overflow="visible"
version="1.2"
viewBox="0 0 1920 1080"
xmlSpace="preserve"
>
<path
  fill="#1A5632"
  d="M1920 396.86v682.99c-3.5-4.18-7.06-8.34-10.64-12.45a880.15 880.15 0 00-23.92-26.35 920.206 920.206 0 00-25.2-25.62c-8.56-8.38-17.47-16.76-26.44-24.88s-18.29-16.24-27.66-24.1c-9.37-7.87-19.08-15.71-28.84-23.31-9.75-7.6-19.84-15.17-29.98-22.49-10.13-7.32-20.59-14.6-31.09-21.63-10.5-7.04-21.32-14.03-32.17-20.77-21.73-13.5-44.41-26.55-67.43-38.8a1230.914 1230.914 0 00-71.32-35c-24.36-11-49.57-21.42-74.95-31-25.53-9.63-51.87-18.64-78.29-26.79-26.61-8.2-53.98-15.73-81.36-22.37C1197.84 696.89 1079.84 683 960 683c-119.84 0-237.83 13.89-350.71 41.29a1399.69 1399.69 0 00-81.36 22.38c-26.42 8.14-52.76 17.15-78.29 26.79-25.38 9.57-50.59 20-74.95 31-24.24 10.94-48.23 22.71-71.32 35-23.01 12.24-45.7 25.3-67.43 38.8-10.85 6.74-21.68 13.72-32.17 20.76-10.49 7.04-20.96 14.32-31.09 21.64-10.13 7.32-20.22 14.88-29.98 22.48-9.77 7.61-19.46 15.44-28.84 23.31a976.15 976.15 0 00-27.66 24.11 949.53 949.53 0 00-26.44 24.87 906.702 906.702 0 00-25.2 25.63 878.195 878.195 0 00-23.91 26.34c-3.58 4.11-7.14 8.27-10.65 12.46V396.87a879.774 879.774 0 0134.56-38.81c8.14-8.61 16.62-17.23 25.2-25.62 8.56-8.37 17.46-16.74 26.44-24.88 8.99-8.13 18.28-16.23 27.66-24.1 9.38-7.87 19.07-15.7 28.84-23.31 9.76-7.61 19.85-15.16 29.98-22.49 10.13-7.32 20.6-14.6 31.09-21.63 10.49-7.04 21.32-14.02 32.17-20.77 21.73-13.5 44.42-26.56 67.43-38.8 23.09-12.28 47.08-24.06 71.32-35 24.36-10.99 49.57-21.42 74.95-31 25.53-9.63 51.87-18.64 78.29-26.79 26.61-8.2 53.99-15.73 81.36-22.37C722.17 13.89 840.16 0 960 0c119.84 0 237.84 13.89 350.71 41.29 27.38 6.65 54.75 14.18 81.36 22.38 26.42 8.14 52.76 17.16 78.29 26.79 25.38 9.57 50.59 20 74.95 31 24.24 10.94 48.23 22.72 71.32 35 23.02 12.24 45.7 25.3 67.43 38.8 10.85 6.74 21.67 13.73 32.17 20.76 10.5 7.04 20.96 14.32 31.09 21.64 10.14 7.32 20.23 14.89 29.98 22.49 9.76 7.59 19.47 15.44 28.84 23.3 9.37 7.87 18.69 15.99 27.66 24.11s17.88 16.5 26.44 24.88a906.62 906.62 0 0125.2 25.62c8.15 8.61 16.2 17.49 23.92 26.34 3.58 4.11 7.14 8.27 10.64 12.46z"
></path>
</svg>