<?xml version="1.0" encoding="utf-8"?>
<!-- Generator: Adobe Illustrator 25.0.0, SVG Export Plug-In . SVG Version: 6.00 Build 0)  -->
<svg version="1.1" id="Layer_1" xmlns="http://www.w3.org/2000/svg" xmlns:xlink="http://www.w3.org/1999/xlink" x="0px" y="0px"
	 viewBox="0 0 1920 1080" style="enable-background:new 0 0 1920 1080;" xml:space="preserve">
<style type="text/css">
	.st0{fill:#FFFFFF;}
	.st1{fill:#1A5632;}
</style>
<rect x="0" y="634.6" class="st0" width="1920" height="445.2"/>
<path class="st1" d="M1920,396.9v683c-3.5-4.2-7.1-8.3-10.6-12.4c-7.7-8.9-15.8-17.7-23.9-26.3c-8.1-8.6-16.6-17.2-25.2-25.6
	c-8.6-8.4-17.5-16.8-26.4-24.9s-18.3-16.2-27.7-24.1c-9.4-7.9-19.1-15.7-28.8-23.3c-9.8-7.6-19.8-15.2-30-22.5
	c-10.1-7.3-20.6-14.6-31.1-21.6c-10.5-7-21.3-14-32.2-20.8c-21.7-13.5-44.4-26.5-67.4-38.8c-23.1-12.3-47.1-24.1-71.3-35
	c-24.4-11-49.6-21.4-74.9-31c-25.5-9.6-51.9-18.6-78.3-26.8c-26.6-8.2-54-15.7-81.4-22.4C1197.8,696.9,1079.8,683,960,683
	s-237.8,13.9-350.7,41.3c-27.4,6.7-54.8,14.2-81.4,22.4c-26.4,8.1-52.8,17.2-78.3,26.8c-25.4,9.6-50.6,20-74.9,31
	c-24.2,10.9-48.2,22.7-71.3,35c-23,12.2-45.7,25.3-67.4,38.8c-10.9,6.7-21.7,13.7-32.2,20.8c-10.5,7-21,14.3-31.1,21.6
	c-10.1,7.3-20.2,14.9-30,22.5c-9.8,7.6-19.5,15.4-28.8,23.3s-18.7,16-27.7,24.1c-9,8.1-17.9,16.5-26.4,24.9
	c-8.6,8.4-17.1,17-25.2,25.6c-8.2,8.6-16.2,17.5-23.9,26.3c-3.6,4.1-7.1,8.3-10.6,12.5v-683c3.5-4.2,7.1-8.4,10.6-12.5
	c7.7-8.9,15.8-17.7,23.9-26.4c8.1-8.6,16.6-17.2,25.2-25.6c8.6-8.4,17.5-16.7,26.4-24.9c9-8.1,18.3-16.2,27.7-24.1
	s19.1-15.7,28.8-23.3c9.8-7.6,19.9-15.2,30-22.5c10.1-7.3,20.6-14.6,31.1-21.6c10.5-7,21.3-14,32.2-20.8
	c21.7-13.5,44.4-26.6,67.4-38.8c23.1-12.3,47.1-24.1,71.3-35c24.4-11,49.6-21.4,75-31c25.5-9.6,51.9-18.6,78.3-26.8
	c26.6-8.2,54-15.7,81.4-22.4C722.2,13.9,840.2,0,960,0s237.8,13.9,350.7,41.3c27.4,6.7,54.8,14.2,81.4,22.4
	c26.4,8.1,52.8,17.2,78.3,26.8c25.4,9.6,50.6,20,74.9,31c24.2,10.9,48.2,22.7,71.3,35c23,12.2,45.7,25.3,67.4,38.8
	c10.8,6.7,21.7,13.7,32.2,20.8c10.5,7,21,14.3,31.1,21.6c10.1,7.3,20.2,14.9,30,22.5c9.8,7.6,19.5,15.4,28.8,23.3
	c9.4,7.9,18.7,16,27.7,24.1s17.9,16.5,26.4,24.9c8.6,8.4,17.1,17,25.2,25.6c8.2,8.6,16.2,17.5,23.9,26.3
	C1912.9,388.5,1916.5,392.7,1920,396.9z"/>
</svg>