<?xml version="1.0" encoding="utf-8"?>
<!-- Generator: Adobe Illustrator 25.0.0, SVG Export Plug-In . SVG Version: 6.00 Build 0)  -->
<svg version="1.2" baseProfile="tiny" id="Layer_1" xmlns="http://www.w3.org/2000/svg" xmlns:xlink="http://www.w3.org/1999/xlink"
	 x="0px" y="0px" viewBox="0 0 430 242" overflow="visible" xml:space="preserve">
<rect x="0" y="142.2" fill="#FFFFFF" width="430" height="99.8"/>
<path fill="#1A5632" d="M430,88.9V242c-0.8-0.9-1.6-1.9-2.4-2.8c-1.7-2-3.5-4-5.4-5.9c-1.8-1.9-3.7-3.9-5.6-5.7
	c-1.9-1.9-3.9-3.8-5.9-5.6s-4.1-3.6-6.2-5.4c-2.1-1.8-4.3-3.5-6.5-5.2c-2.2-1.7-4.4-3.4-6.7-5c-2.3-1.6-4.6-3.3-7-4.8
	s-4.8-3.1-7.2-4.7c-4.9-3-9.9-5.9-15.1-8.7c-5.2-2.8-10.5-5.4-16-7.8c-5.5-2.5-11.1-4.8-16.8-6.9c-5.7-2.2-11.6-4.2-17.5-6
	c-6-1.8-12.1-3.5-18.2-5c-25.3-6.2-51.7-9.3-78.6-9.3s-53.3,3.1-78.5,9.3c-6.1,1.5-12.3,3.2-18.2,5c-5.9,1.8-11.8,3.9-17.5,6
	c-5.7,2.2-11.3,4.5-16.8,6.9c-5.4,2.4-10.8,5.1-16,7.8c-5.2,2.7-10.2,5.7-15.1,8.7c-2.4,1.5-4.9,3.1-7.2,4.7c-2.4,1.6-4.7,3.2-7,4.8
	c-2.3,1.6-4.5,3.3-6.7,5c-2.2,1.7-4.4,3.5-6.5,5.2s-4.2,3.6-6.2,5.4c-2,1.8-4,3.7-5.9,5.6c-1.9,1.9-3.8,3.8-5.6,5.7
	c-1.8,1.9-3.6,3.9-5.4,5.9c-0.8,0.9-1.6,1.9-2.4,2.8V88.9c0.8-0.9,1.6-1.9,2.4-2.8c1.7-2,3.5-4,5.4-5.9c1.8-1.9,3.7-3.9,5.6-5.7
	c1.9-1.9,3.9-3.7,5.9-5.6c2-1.8,4.1-3.6,6.2-5.4s4.3-3.5,6.5-5.2c2.2-1.7,4.5-3.4,6.7-5c2.3-1.6,4.6-3.3,7-4.8s4.8-3.1,7.2-4.7
	c4.9-3,9.9-6,15.1-8.7c5.2-2.8,10.5-5.4,16-7.8c5.5-2.5,11.1-4.8,16.8-6.9c5.7-2.2,11.6-4.2,17.5-6c6-1.8,12.1-3.5,18.2-5
	C161.7,3.1,188.2,0,215,0s53.3,3.1,78.5,9.3c6.1,1.5,12.3,3.2,18.2,5c5.9,1.8,11.8,3.9,17.5,6c5.7,2.2,11.3,4.5,16.8,6.9
	c5.4,2.4,10.8,5.1,16,7.8c5.2,2.7,10.2,5.7,15.1,8.7c2.4,1.5,4.9,3.1,7.2,4.7c2.4,1.6,4.7,3.2,7,4.8c2.3,1.6,4.5,3.3,6.7,5
	s4.4,3.5,6.5,5.2c2.1,1.8,4.2,3.6,6.2,5.4c2,1.8,4,3.7,5.9,5.6c1.9,1.9,3.8,3.8,5.6,5.7c1.8,1.9,3.6,3.9,5.4,5.9
	C428.4,87.1,429.2,88,430,88.9z"/>
</svg>