<svg xmlns="http://www.w3.org/2000/svg" width="78.322" height="88.594" viewBox="0 0 78.322 88.594">
  <path id="Path_14204" data-name="Path 14204" d="M47.636,56.688,21.758,30.809a2.156,2.156,0,0,1,3.049-3.049l22.2,22.2V-11.2a2.169,2.169,0,0,1,2.157-2.131A2.158,2.158,0,0,1,51.32-11.2V49.959l22.2-22.2a2.156,2.156,0,1,1,3.049,3.049L50.686,56.688a2.158,2.158,0,0,1-3.049,0Zm36.071,9.258A2.157,2.157,0,0,1,85.821,68.1a2.124,2.124,0,0,1-2.113,2.157H14.616A2.161,2.161,0,0,1,12.5,68.1a2.125,2.125,0,0,1,2.118-2.157Z" transform="translate(-9.998 15.835)" fill="#fff" stroke="#fff" stroke-width="5" fill-rule="evenodd"/>
</svg>
