<svg xmlns="http://www.w3.org/2000/svg" width="66.621" height="63.887" viewBox="0 0 66.621 63.887">
  <path id="Path_14204" data-name="Path 14204" d="M-199.694,251.736c-1.29.469-1.668,1.1-1.668,2.751V255.6h-7.405l-.053-1.082c-.065-1.356-.339-1.956-1.134-2.451a2.545,2.545,0,0,0-3.063.248,2.64,2.64,0,0,0-.73,2.229v1.044l-4.146.039-4.133.039-.782.4a5.788,5.788,0,0,0-2.321,2.372l-.287.613v53.062l.287.626a6.007,6.007,0,0,0,2.372,2.4l.73.365h59.842l.73-.365a6.009,6.009,0,0,0,2.373-2.4l.287-.626V259.05l-.287-.613a5.788,5.788,0,0,0-2.321-2.372l-.782-.4-4.785-.039-4.8-.039v-1.069a2.474,2.474,0,0,0-.965-2.36,1.789,1.789,0,0,0-1.3-.444,2.281,2.281,0,0,0-2.256,1.03,2.657,2.657,0,0,0-.4,1.695l-.052,1.16h-7.405v-1.043a2.654,2.654,0,0,0-.73-2.242,2.3,2.3,0,0,0-1.773-.626,2.287,2.287,0,0,0-2.033,1.16,3.019,3.019,0,0,0-.392,1.669l-.065,1.082h-7.261v-.821a3.693,3.693,0,0,0-.587-2.256A2.549,2.549,0,0,0-199.694,251.736Zm1.643,1.46a2.314,2.314,0,0,1,.47,1.76v.639h-2.777l.078-.991c.065-.847.13-1.055.431-1.369A1.182,1.182,0,0,1-198.052,253.2Zm-12.411.039c.391.352.43.444.469,1.369l.052.991h-2.634V254.6c0-.912.026-1.017.378-1.369A1.157,1.157,0,0,1-210.462,253.235Zm24.758,0c.352.352.378.456.378,1.369v.991h-2.634l.053-.991c.039-.925.078-1.017.469-1.369A1.157,1.157,0,0,1-185.7,253.235Zm12.386,0c.352.352.377.456.377,1.369v.991h-2.607v-.886c0-1.252.43-1.838,1.342-1.852A1.107,1.107,0,0,1-173.319,253.235Zm-36.648,5.007c0,1.513.078,1.786.534,1.786.521,0,.639-.339.639-1.838v-1.421h11.212v1.474c0,1.486.091,1.786.508,1.786a.759.759,0,0,0,.431-.222c.2-.182.234-.417.234-1.629v-1.408h11.082v1.343c0,1.408.169,1.916.638,1.916s.535-.273.535-1.786v-1.474h11.212v1.421c0,1.5.118,1.838.639,1.838.456,0,.535-.273.535-1.786v-1.474h4.406c4.98,0,5.189.026,6.206.926a4.873,4.873,0,0,1,.951,1.265l.365.743.04,5.241.052,5.254h-64.717l.052-5.254c.04-5.188.04-5.241.352-5.932a4.291,4.291,0,0,1,2.138-2.021c.456-.169,1.539-.208,6.258-.208l5.7-.014Zm50.168,33.167-.04,20.052-.3.652a4.159,4.159,0,0,1-1.721,1.865l-.587.352h-59.32l-.587-.352a4.159,4.159,0,0,1-1.721-1.865l-.3-.652-.04-20.052-.026-20.038h64.665Z" transform="translate(225.417 -251.615)" fill="#00205c"/>
</svg>
