<svg id="Layer_2" data-name="Layer 2" xmlns="http://www.w3.org/2000/svg"
    xmlns:xlink="http://www.w3.org/1999/xlink" viewBox="0 0 2392.43 2376.26">
    <defs>
        <style>
            .cls-1{fill:none;}.cls-2{fill:#e8f8fc;}.cls-3{fill:#d6e9d9;}.cls-4{clip-path:url(#clip-path);}.cls-5{fill:#1c396e;}.cls-6{fill:#1a5632;}.cls-7{fill:#fff;}.cls-8{fill:#63779b;}.cls-9{fill:#80a18d;}.cls-10{fill:#4d7c60;}.cls-11{fill:#336949;}.cls-12{fill:#668e76;}</style>
        <clipPath id="clip-path">
            <path class="cls-1"
                d="M1769.9,900.9,1180,1241.49,590.06,900.9C707.82,697.35,927.91,560.41,1180,560.41S1652.13,697.35,1769.9,900.9Z" />
        </clipPath>
    </defs>
    <line class="cls-1" x1="1970.36" y1="785.16" x2="1821.07" y2="871.35" />
    <line class="cls-1" x1="538.88" y1="871.35" x2="389.59" y2="785.16" />
    <line class="cls-1" x1="1907.27" y1="821.59" x2="1769.9" y2="900.9" />
    <line class="cls-1" x1="590.06" y1="900.9" x2="452.69" y2="821.59" />
    <path class="cls-2"
        d="M1821.07,871.35,1180,1241.49,538.88,871.35c128-221.2,367.16-370,641.1-370S1693.09,650.15,1821.07,871.35Z" />
    <path class="cls-3"
        d="M1769.9,900.9,1180,1241.49,590.06,900.9C707.82,697.35,927.91,560.41,1180,560.41S1652.13,697.35,1769.9,900.9Z" />
    <g class="cls-4">
        <ellipse class="cls-5" cx="1357.13" cy="1077.41" rx="227.75" ry="125.31" />
        <path class="cls-6"
            d="M1346.5,1048.88c-2.26,2-4.5,3.9-6.66,5.85q-5.53,5-10.74,10.21a258.18,258.18,0,0,0-19.29,21.64q-9.09-3.93-18.29-7.75l-3.13-1.3q-7.41-3-14.89-6c8.72-21.71,23.34-52,25.29-55.64,7.4-14.09,20.12-36.14,41.64-41.93a42.67,42.67,0,0,1,4.76-1c21.63-3.16,40.56,12.58,38.41,27.69C1380.79,1020.27,1362.79,1034.86,1346.5,1048.88Z" />
        <path class="cls-7"
            d="M1359.84,982q-11.19,10.92-21.07,22.5c-.91,1.06-1.79,2.11-2.68,3.17q-8.27,9.9-15.56,20.25c-.63.89-1.25,1.78-1.86,2.68-.25.35-.49.69-.73,1.05a2.13,2.13,0,0,0-.16.25q-6.52,9.49-12.22,19.37c-.7,1.22-1.4,2.45-2.09,3.68q-6.54,11.7-12,23.86l-3.13-1.3q5.44-12.24,12.06-24c.11-.21.23-.42.35-.63h0c.67-1.2,1.35-2.39,2-3.57q5.63-9.69,12.06-19.06l.25-.36a.28.28,0,0,1,.08-.11q1.23-1.8,2.5-3.59,7.23-10.2,15.4-20,1.47-1.77,3-3.54,9.81-11.45,20.87-22.26a2.06,2.06,0,0,1,2.33-.07C1360.12,980.77,1360.34,981.53,1359.84,982Z" />
        <path class="cls-7"
            d="M1335.54,1007.63a2.07,2.07,0,0,1-1.24-.81c-.41-.65-.06-1.32.78-1.5,9.48-2.07,19.29-4.21,29.73-5a62.21,62.21,0,0,1,6.47-.17,1.92,1.92,0,0,1,1.89,1.26c.12.67-.53,1.19-1.45,1.16a56,56,0,0,0-6,.16c-10.16.72-19.82,2.83-29.17,4.87A2.3,2.3,0,0,1,1335.54,1007.63Z" />
        <path class="cls-7"
            d="M1316.26,1031.87a2.16,2.16,0,0,1-1.1-.63.94.94,0,0,1,.41-1.61c11.81-4.41,25.07-6.57,41.73-6.8a2,2,0,0,1,2,1.18c.18.67-.41,1.23-1.32,1.24-16.19.23-29,2.32-40.45,6.57A2.21,2.21,0,0,1,1316.26,1031.87Z" />
        <path class="cls-7"
            d="M1302,1055.12a2.28,2.28,0,0,1-1.44-1c-.26-.51-.19-1.24.86-1.64a46.38,46.38,0,0,1,7.76-2c6.45-1.24,13.11-2.53,19.85-3.51a7.88,7.88,0,0,1,2.85,0c1.06.23,1.59.87,1.48,1.51s-.94,1-1.86.82a4.29,4.29,0,0,0-1.26.07c-6.65,1-13.28,2.24-19.68,3.47a50.08,50.08,0,0,0-6.52,1.56,1.75,1.75,0,0,1-1.61.72A2.12,2.12,0,0,1,1302,1055.12Z" />
        <path class="cls-7"
            d="M1334.53,1007.47a1.67,1.67,0,0,1-1.4-1.32c-.28-8-3.46-15.12-6.87-21.59-.34-.66.08-1.3.94-1.43a2.19,2.19,0,0,1,2.19.94c3.35,6.37,6.82,14,7.11,22.44,0,.66-.71,1.12-1.65,1A1.8,1.8,0,0,1,1334.53,1007.47Z" />
        <path class="cls-7"
            d="M1316.73,1031.9a1.71,1.71,0,0,1-1.4-1.28c-.5-5.87-4.29-12.48-7.64-18.31l-1.09-1.89c-.36-.65,0-1.31.88-1.46a2.22,2.22,0,0,1,2.22.9l1.07,1.88c3.46,6,7.39,12.86,7.93,19.16,0,.67-.66,1.14-1.59,1.07A2.79,2.79,0,0,1,1316.73,1031.9Z" />
        <path class="cls-7"
            d="M1302.18,1054a1.85,1.85,0,0,1-1.36-1.09c-1.71-5.52-4.23-9.72-8.28-15.54-.45-.63-.14-1.32.68-1.53a2.26,2.26,0,0,1,2.28.77c4.2,6,6.81,10.39,8.6,16.19.21.66-.36,1.23-1.26,1.26A2.39,2.39,0,0,1,1302.18,1054Z" />
        <path class="cls-6"
            d="M1389.32,1090.34c-10.78,9.08-25.33,9.58-38.47,12.43a101.23,101.23,0,0,0-22.18,7.58q-3.06-5.28-6.22-10.52c-.29-.49-.59-1-.89-1.47-1.85-3-3.71-6.11-5.6-9.15a212,212,0,0,1,28-22.43l.31-.2c7.33-4.87,17.11-9.54,26.75-10.69a33.83,33.83,0,0,1,8.71,0,25.11,25.11,0,0,1,11.3,4.47C1401.54,1068,1398,1083,1389.32,1090.34Z" />
        <path class="cls-7"
            d="M1390.7,1067.72c-9.18,0-18.1,3.56-26.41,7.58l-1.07.53c-.8.39-1.6.78-2.39,1.19q-7.89,4-15.65,8.42c-.92.52-1.84,1.06-2.75,1.61q-4.47,2.61-8.83,5.37c-1.4.88-2.85,1.8-4.33,2.76-1,.64-2,1.29-3,2-1.28.86-2.57,1.75-3.83,2.68-.29-.49-.59-1-.89-1.47,1.13-.81,2.26-1.6,3.38-2.36.77-.52,1.54-1,2.3-1.53,1.86-1.23,3.69-2.39,5.44-3.49q4.11-2.6,8.27-5.06l3.14-1.84q8.13-4.68,16.43-8.82l2-1,.91-.44c8.54-4.15,17.74-7.87,27.33-7.84a.86.86,0,0,1,0,1.71Z" />
        <path class="cls-7"
            d="M1360.39,1076.81a.89.89,0,0,0,.66.22c4.58-.48,9.25,1.2,13.36,2.68l8.87,3.2a.86.86,0,0,0,.58-1.61l-8.87-3.19c-3.8-1.37-8-2.91-12.44-2.87a96.13,96.13,0,0,0,7.13-14.15.85.85,0,0,0-1.58-.64,94.53,94.53,0,0,1-7.86,15.27.85.85,0,0,0,0,.91A.65.65,0,0,0,1360.39,1076.81Z" />
        <path class="cls-7"
            d="M1341.19,1086.82a.87.87,0,0,0,.58.22,47.53,47.53,0,0,1,22.8,5.72.85.85,0,0,0,.81-1.5,49.23,49.23,0,0,0-22.06-5.91,52.56,52.56,0,0,0,6.6-15.58.85.85,0,0,0-1.65-.41,50.89,50.89,0,0,1-7.22,16.35.87.87,0,0,0,0,.88A.84.84,0,0,0,1341.19,1086.82Z" />
        <path class="cls-7"
            d="M1325.14,1097a.86.86,0,0,0,.71.2,30.67,30.67,0,0,1,13.53,1,.86.86,0,1,0,.5-1.64,32.27,32.27,0,0,0-12.92-1.2,90.43,90.43,0,0,0,3-11.57.84.84,0,0,0-.68-1,.85.85,0,0,0-1,.68,87.15,87.15,0,0,1-3.33,12.62.86.86,0,0,0,.15.83Z" />
        <ellipse class="cls-8" cx="939.1" cy="1156.51" rx="404.37" ry="208.09" />
    </g>
    <g id="Group_3163" data-name="Group 3163">
        <g id="Group_3140" data-name="Group 3140">
            <path id="Path_13863" data-name="Path 13863" class="cls-9"
                d="M1009.39,1006.59l-2.19,15.6h9.8l3.8-18.58Z" />
            <path id="Path_13864" data-name="Path 13864" class="cls-6"
                d="M1032.63,796l-25.4-1.68V1010.3h20.11l9.18-152.41Z" />
            <g id="Group_3139" data-name="Group 3139">
                <path id="Path_13865" data-name="Path 13865" class="cls-6"
                    d="M1018.39,1017.22c1.51,1.74,1.31,10.09,1.31,10.09H996.91c-5.43,0,8.3-10.1,11.24-9.21,1.39.42,1.61,3.07,4.83,3.22S1017.71,1016.44,1018.39,1017.22Z" />
                <path id="Path_13866" data-name="Path 13866" class="cls-10"
                    d="M1019.7,1027.32H996c-.42,0-1-1.72.25-1.94h23.45C1019.72,1026.52,1019.7,1027.32,1019.7,1027.32Z" />
            </g>
        </g>
        <g id="Group_3142" data-name="Group 3142">
            <path id="Path_13867" data-name="Path 13867" class="cls-9"
                d="M1075,1006.16v15.6h-9.81l-2-18.57Z" />
            <path id="Path_13868" data-name="Path 13868" class="cls-6"
                d="M1042,795.28l19.16.51,16.2,213.92-20.89.44-18-152.51-3.51-61.83Z" />
            <g id="Group_3141" data-name="Group 3141">
                <path id="Path_13869" data-name="Path 13869" class="cls-6"
                    d="M1075,1017.22c1.51,1.74,1.32,10.09,1.32,10.09h-22.8c-5.42,0,8.31-10.1,11.25-9.21,1.39.42,1.61,3.07,4.82,3.22S1074.32,1016.44,1075,1017.22Z" />
                <path id="Path_13870" data-name="Path 13870" class="cls-10"
                    d="M1076.31,1027.32h-23.7c-.42,0-1-1.72.25-1.94h23.45C1076.33,1026.52,1076.31,1027.32,1076.31,1027.32Z" />
            </g>
        </g>
        <g id="Hand_1">
            <g id="Group_3143" data-name="Group 3143">
                <path id="Path_13871" data-name="Path 13871" class="cls-9"
                    d="M1002.45,828.09s-29-38.42-35.06-36,25,54.49,38.94,52.91S1002.45,828.09,1002.45,828.09Z" />
                <path id="Path_13872" data-name="Path 13872" class="cls-9"
                    d="M972.29,805.33s-12.1-4.74-13.91-12.56,6.93-12.6,11.45-8.12,7.94,15.08,7.94,15.08Z" />
                <path id="Path_13873" data-name="Path 13873" class="cls-9"
                    d="M960.31,795.45s-9.55-9.53-8-10.35,6.61,4.12,6.61,4.12-7.69-8.81-6-9.38,7.7,6.37,7.7,6.37-9.3-11.6-6.77-12.52,10.67,11.16,10.67,11.16c-1.47-3.4-7.19-11.7-5.65-12.27,3.23-1.2,10.32,12,10.32,12l1.55,2.83c-1.06-1.93-1.24-10.66,1.38-8.17s3,14.75,3,14.75S967.64,801.79,960.31,795.45Z" />
            </g>
            <animate
            attributeName="rx"
            values="0;5;0"
            dur="10s"
            repeatCount="indefinite" />
            <path id="Path_13874" data-name="Path 13874" class="cls-6"
                d="M981.7,803l-2.65-3.31L970.22,807l3.34,6.26Z" />
            <path id="Path_13875" data-name="Path 13875" class="cls-10"
                d="M981.74,802l-12.4,14.2c7.5,7,30.38,29.41,37.88,36.37,2.59-6.45-2.58-21.42,0-27.86Z" />
        </g>
        <g id="Group_3144" data-name="Group 3144">
            <path id="Path_13876" data-name="Path 13876" class="cls-10"
                d="M1070.09,873.66l-67.84-1.74,2.32-97.67s13.91-16,27.83-16,28,15.66,28,15.66Z" />
            <path id="Path_13877" data-name="Path 13877" class="cls-10"
                d="M1040.62,760.87s-15.36,5.92-19.31,14.7c0,0-4.61-11.63-.88-14.49S1038.42,756.7,1040.62,760.87Z" />
            <path id="Path_13878" data-name="Path 13878" class="cls-9"
                d="M1024.6,762.84l14.26-1.75V738.7h-13.38Z" />
            <path id="Path_13879" data-name="Path 13879" class="cls-6"
                d="M1024.86,755.9c7.85-.56,12.52-6.88,14-9.26v-.87l-13.66.64Z" />
            <path id="Path_13880" data-name="Path 13880" class="cls-6"
                d="M1018.24,761.7s-18.35,9.28-20.52,14.82c-3.42,8.74-.46,32.15-.46,32.15l.65,8.39-.19,68.39,17.22.88S1012.54,839.09,1018.24,761.7Z" />
            <path id="Path_13881" data-name="Path 13881" class="cls-6"
                d="M1021.31,775.57l2-6.9,4.06-1.39-.19,3Z" />
            <path id="Path_13882" data-name="Path 13882" class="cls-11"
                d="M1023.56,769.43l1.52,6.33L1041.41,764l.13-4.05-18.24,8.74Z" />
            <path id="Path_13883" data-name="Path 13883" class="cls-6"
                d="M1024.7,756.64l-4.06,2.91.36,3.29,3.9-3.67Z" />
            <path id="Path_13884" data-name="Path 13884" class="cls-6"
                d="M1021,769.56l.29,6-3.07-4.11Z" />
            <path id="Path_13885" data-name="Path 13885" class="cls-11"
                d="M1017.1,776.77l3.92-7.21-.12-10.07-3.42,3.74Z" />
            <path id="Path_13886" data-name="Path 13886" class="cls-6"
                d="M1038.68,756.29l-13.35,132.07,50.66.13-8.87-113.61S1047.8,758.57,1038.68,756.29Z" />
        </g>
        <g id="Group_3145" data-name="Group 3145">
            <rect id="Rectangle_1538" data-name="Rectangle 1538" class="cls-12" x="1031.23"
                y="852.47" width="38.58" height="56.15"
                transform="translate(-15.14 1742.71) rotate(-78.94)" />
            <rect id="Rectangle_1539" data-name="Rectangle 1539" class="cls-11" x="1050.73"
                y="882.47" width="31" height="1.71"
                transform="translate(-5.2 1760.34) rotate(-78.94)" />
            <rect id="Rectangle_1540" data-name="Rectangle 1540" class="cls-11" x="1056.39"
                y="883.58" width="30.99" height="1.71"
                transform="translate(-1.97 1766.49) rotate(-78.93)" />
            <path id="Path_13887" data-name="Path 13887" class="cls-11"
                d="M1034.58,892.79l5.94-30.43-9.39-1.88-6,30.42Z" />
        </g>
        <g id="Hand_2">
            <g id="Group_3146" data-name="Group 3146">
                <path id="Path_13888" data-name="Path 13888" class="cls-9"
                    d="M1055.37,876.48s2.38,9.22-3.13,15.07-14.33,1.17-13.1-5.07,5.9-11.83,5.9-11.83Z" />
                <path id="Path_13889" data-name="Path 13889" class="cls-9"
                    d="M1042.38,880.22s-12.32,5.35-12.37,9.15,10.06-3.79,10.06-3.79-7.28,11.25-6,13,6.75-4.94,6.75-4.94-2.41,5.43-1.93,7.2,4-.85,4.88-6.22-1.61,6.74,1.1,6.84c1.4.06,2.77-6.61,2.77-6.61s-1.29,6,.82,6.06c.94,0,3.78-9.42,3.78-9.42Z" />
            </g>
            <path id="Path_13890" data-name="Path 13890" class="cls-6"
                d="M1045.5,871.67l-1.14,4.08,11,3,3.13-6.37Z" />
            <path id="Path_13891" data-name="Path 13891" class="cls-10"
                d="M1042.19,872l18.43,2.75s16.54-43.33,14.74-54.12-20.7,2.31-20.7,2.31Z" />
            <path id="Path_13892" data-name="Path 13892" class="cls-10"
                d="M1065.51,773.38s10.92,45.78,9.72,50.58-23,23.24-22.57-2.1-1-37-1-37S1056.11,775,1065.51,773.38Z" />
        </g>
        <path id="Path_13893" data-name="Path 13893" class="cls-12"
            d="M1047.24,782.54h0a1,1,0,0,1-.9-1c1.09-21.92-6.85-24.54-6.93-24.56a.95.95,0,0,1,.54-1.82c.39.11,9.45,3.08,8.29,26.48A1,1,0,0,1,1047.24,782.54Z" />
        <g id="Group_3147" data-name="Group 3147">
            <path id="Path_13894" data-name="Path 13894" class="cls-12"
                d="M1010.26,796.72a1,1,0,0,1-1-.87c-2.49-29.55,8.59-35.54,9.07-35.79a1,1,0,0,1,.87,1.69c-.14.08-10.41,5.9-8,33.94a1,1,0,0,1-.87,1Z" />
            <circle id="Ellipse_178" data-name="Ellipse 178" class="cls-12" cx="1010.45" cy="799"
                r="3.99" />
            <path id="Path_13895" data-name="Path 13895" class="cls-6"
                d="M1012.67,799a2.22,2.22,0,1,1-2.22-2.21,2.22,2.22,0,0,1,2.22,2.21Z" />
        </g>
        <g id="Group_3148" data-name="Group 3148">
            <path id="Path_13896" data-name="Path 13896" class="cls-12"
                d="M1050.08,815.3a1,1,0,0,1-.81-1.07,1,1,0,0,1,.23-.5,8.26,8.26,0,0,0,2-4.41l2.33-17.45a8.29,8.29,0,0,0-16.42-2.36l0,.16-2.33,17.45a8.31,8.31,0,0,0,.73,4.66,1,1,0,0,1-1.72.81h0a10.07,10.07,0,0,1-.89-5.72l2.33-17.45a10.2,10.2,0,0,1,20.24,2.51l0,.19-2.33,17.45a10.08,10.08,0,0,1-2.49,5.42A.94.94,0,0,1,1050.08,815.3Z" />
            <path id="Path_13897" data-name="Path 13897" class="cls-10"
                d="M1037.65,812.19a1.77,1.77,0,1,1-1.52-2h0A1.77,1.77,0,0,1,1037.65,812.19Z" />
            <path id="Path_13898" data-name="Path 13898" class="cls-10"
                d="M1051.21,814a1.78,1.78,0,1,1-1.53-2,1.78,1.78,0,0,1,1.53,2Z" />
        </g>
        <g id="Group_3151" data-name="Group 3151">
            <path id="Path_13899" data-name="Path 13899" class="cls-9"
                d="M1009.39,731.15c.67,9.55,6.08,22.58,15.61,23.47s18-10.72,18.91-20.25-6.09-22.32-15.62-23.21S1008.68,721.23,1009.39,731.15Z" />
            <g id="Group_3149" data-name="Group 3149">
                <path id="Path_13900" data-name="Path 13900" class="cls-10"
                    d="M1032.44,749.86s-18.13,13.19-23-12c0,0,4.73-5.39,8.48-4.64s10.26,6.59,11.65,6.72S1027.68,747,1032.44,749.86Z" />
                <path id="Path_13901" data-name="Path 13901" class="cls-10"
                    d="M1026.86,745.1a7.83,7.83,0,0,0,5.71-.27c3.94-1.81,5.61-6.56,5.67-6.76l-.83-.28s-1.62,4.59-5.22,6.24a7.21,7.21,0,0,1-5.88,0l-.33.82Z" />
                <path id="Path_13902" data-name="Path 13902" class="cls-10"
                    d="M1024.44,737.31l10.72-6-.47-.74-10.73,6Z" />
            </g>
            <path id="Path_13903" data-name="Path 13903" class="cls-6"
                d="M1010.81,719.37s-1.82-3.15,6.18-8c4-2.42,13-2.23,16.29-.71s12.62,7.25,13.59,14c0,0,6.1,18.57-9.29,26.07,0,0-3.79-6.56-.15-13,0,0,2.56.09,3.76-4.65s-4.67-5.13-5.26-2l-2.71-.25s2.08-2.84.42-4.51-4.89-2.73-3.4-5.77C1030.24,720.57,1013.85,725.71,1010.81,719.37Z" />
            <g id="Group_3150" data-name="Group 3150">
                <path id="Path_13904" data-name="Path 13904" class="cls-6"
                    d="M1012.21,732.26a3.55,3.55,0,1,1,3.57-3.52h0A3.55,3.55,0,0,1,1012.21,732.26Zm.06-6.65a3.11,3.11,0,1,0,3.07,3.13h0a3.11,3.11,0,0,0-3.07-3.13Z" />
                <path id="Path_13905" data-name="Path 13905" class="cls-6"
                    d="M1021.92,732.78a3.54,3.54,0,1,1,3.57-3.51A3.53,3.53,0,0,1,1021.92,732.78Zm.05-6.64a3.1,3.1,0,1,0,3.08,3.13h0a3.1,3.1,0,0,0-3.08-3.13Z" />
                <rect id="Rectangle_1541" data-name="Rectangle 1541" class="cls-6" x="1016.8"
                    y="727.7" width="0.44" height="2.98"
                    transform="translate(232 1703.76) rotate(-86.79)" />
                <rect id="Rectangle_1542" data-name="Rectangle 1542" class="cls-6" x="1029.98"
                    y="724.93" width="0.44" height="9.95"
                    transform="translate(230.55 1706.97) rotate(-86.02)" />
            </g>
        </g>
        <g id="Group_3153" data-name="Group 3153">
            <g id="Group_3152" data-name="Group 3152">
                <path id="Path_13906" data-name="Path 13906" class="cls-10"
                    d="M932.06,1025.69s.28-2.69-.67-3.94c-1.19-1.56-3.5-4.9-6.91-4.9,0,0-5.88-.67-8.48,6v2.75Z" />
                <rect id="Rectangle_1543" data-name="Rectangle 1543" class="cls-6" x="915.85"
                    y="1024.75" width="16.24" height="1.84" />
            </g>
            <path id="Path_13907" data-name="Path 13907" class="cls-6"
                d="M900.5,845.45l29.34-.59L937.17,1004a64.39,64.39,0,0,1,.23,9c-.3,8.93-12.79,6.4-12.79,6.4-4.61,3.57-11.32-1.47-13.23-3.12-2.49-2.15-3.51-9.8-3.86-13.34l-15.33-94.78Z" />
        </g>
        <g id="Group_3155" data-name="Group 3155">
            <g id="Group_3154" data-name="Group 3154">
                <path id="Path_13908" data-name="Path 13908" class="cls-10"
                    d="M872.36,1016.45c1.5,1.73,1.31,10,1.31,10H851.09c-5.38,0,8.22-10,11.13-9.13,1.38.42,1.6,3,4.78,3.19S871.69,1015.68,872.36,1016.45Z" />
                <path id="Path_13909" data-name="Path 13909" class="cls-6"
                    d="M873.67,1026.45H850.2c-.41,0-1-1.7.24-1.92h23.23C873.68,1025.66,873.67,1026.45,873.67,1026.45Z" />
            </g>
            <path id="Path_13910" data-name="Path 13910" class="cls-6"
                d="M889.43,907.08,880.36,1003c-.1,3.57-.62,11.12-3.09,13.26-1.92,1.65-8.63,6.69-13.23,3.12,0,0-13.38,2.53-13.68-6.39-.05-1.5-.08-2.82-.08-4h-.13l.14-2.48c0-1.61.11-3.22.28-4.82l8.93-155.44,24.06-.48Z" />
        </g>
        <g id="Group_3156" data-name="Group 3156">
            <path id="Path_13911" data-name="Path 13911" class="cls-10"
                d="M865.41,768.27s29.43-13.38,55.52-1.34c0,0,15.93,98.63,16.72,131.16a14.31,14.31,0,0,1-1.8,7.24l-1.54,2.76H853.37a14.31,14.31,0,0,1-4.86-11.81C850.25,872.49,856.41,795.82,865.41,768.27Z" />
            <path id="Path_13912" data-name="Path 13912" class="cls-6"
                d="M892.56,900.72c-.5-3.24-.1-22.8.23-38.52l.08-3.9c.32-15.63-.32-90-.32-90.71h1.33c0,.75.65,75.1.33,90.75l-.08,3.9c-.31,14.84-.73,35.16-.25,38.28Z" />
            <path id="Path_13913" data-name="Path 13913" class="cls-6"
                d="M866.66,767.67s-40.18,29.25-20.1,80.66c0,0,17.94,10.34,16.12-12.11S881.51,801.59,866.66,767.67Z" />
        </g>
        <path id="Path_13914" data-name="Path 13914" class="cls-6"
            d="M918.8,766.41s44.08,23,31.86,76.78c0,0-16.19,12.9-17.74-9.58S909.16,802.17,918.8,766.41Z" />
        <path id="Path_13915" data-name="Path 13915" class="cls-6"
            d="M940.1,825.27l-61.65-5L877,841.06s66.47,21.9,74.8-2.53C951.81,838.52,951.05,823.82,940.1,825.27Z" />
        <g id="Group_3157" data-name="Group 3157">
            <path id="Path_13916" data-name="Path 13916" class="cls-9"
                d="M858.78,825.45s-3.62.83-3,2.14c0,0,.29.5,1.88.79L879.19,823c-3.41-1.83-9.89-5.28-11.2-5.76-1.81-.66-10.36-4.6-11-3.78s-1.32,3,3.45,4.77c0,0-4.6-1.48-4.93-.82s-1.15,3.12,3.29,3.78c0,0-3.95.49-3.95,1.81S856,825.45,858.78,825.45Z" />
        </g>
        <g id="Group_3158" data-name="Group 3158">
            <path id="Path_13917" data-name="Path 13917" class="cls-9"
                d="M927.7,811.94c-6,3.45-15.05,4.23-15.05,4.23l-1.82,15.41,10.93-4.06c2.35,0,7.22,1,10.59-1.09-.19-4.67-1.74-6.47-3.53-10.25C928.21,814.88,928.35,813.23,927.7,811.94Z" />
        </g>
        <path id="Path_13918" data-name="Path 13918" class="cls-6"
            d="M854.65,829.05l60-15,4.83,20.32s-62,32.45-74.22,9.7C845.26,844,843.61,829.41,854.65,829.05Z" />
        <g id="Group_3162" data-name="Group 3162">
            <path id="Path_13919" data-name="Path 13919" class="cls-6"
                d="M909.77,765.9s-1.47-12.4,2.07-18,1.48-17.42-1.18-23.33S900.33,713.05,895,713.05s-23.32,10-22.43,19.49,2.36,15.64,6.49,19.48-1.47,14.47-1.47,14.47S890.29,781.84,909.77,765.9Z" />
            <path id="Path_13920" data-name="Path 13920" class="cls-9"
                d="M889.16,753.14c10.25-.1,19.63-12,12.64-18.88,0,0-8.48,4.31-14.13,2.38-5.29-1.81-6.16,8.85-10,2.37C877.71,739,873.7,753.29,889.16,753.14Z" />
            <g id="Group_3160" data-name="Group 3160">
                <g id="Group_3159" data-name="Group 3159">
                    <path id="Path_13921" data-name="Path 13921" class="cls-9"
                        d="M877.61,732.38s15-5.61,24.5-1.18c0,0,.59,10.92-6.79,10.33s-7.38-3.84-9.45-3.84-2.36,3.54-5.31,4.13S877.3,736.51,877.61,732.38Z" />
                </g>
            </g>
            <path id="Path_13922" data-name="Path 13922" class="cls-9"
                d="M906.41,751.73s-17,7.13-25.91,3.28c0,.26.06.54.08.82,2.19,1.85,6.7,4.45,14,3.26C905.52,757.3,906.41,751.73,906.41,751.73Z" />
            <g id="Group_3161" data-name="Group 3161">
                <path id="Path_13923" data-name="Path 13923" class="cls-1"
                    d="M893.21,729.5a51,51,0,0,0-15.61,2.88c-.28,3.94,0,9.49,2.56,9.49a2.71,2.71,0,0,0,.4,0c3-.59,3.24-4.14,5.31-4.14s2.07,3.25,9.45,3.84l.56,0c6.79,0,6.23-10.35,6.23-10.35A21,21,0,0,0,893.21,729.5Z" />
                <path id="Path_13924" data-name="Path 13924" class="cls-10"
                    d="M903.45,731.13l-.05-.8-.72-.34a22.19,22.19,0,0,0-9.47-1.83,52.12,52.12,0,0,0-16.07,3l-.81.31-.06.85c-.2,2.83-.25,7.87,1.66,9.93a3,3,0,0,0,2.23,1,3.7,3.7,0,0,0,.66-.07,6.32,6.32,0,0,0,3.91-3c.51-.69.86-1.15,1.14-1.15s.4.14,1,.64c1.26,1.11,3.18,2.78,8.36,3.19l.68,0a6.29,6.29,0,0,0,4.76-2C903.75,737.62,903.46,731.39,903.45,731.13Zm-7.56,10.42-.57,0c-7.38-.59-7.38-3.84-9.45-3.84s-2.36,3.54-5.31,4.14a2.71,2.71,0,0,1-.4,0c-2.58,0-2.84-5.55-2.55-9.49a50.92,50.92,0,0,1,15.6-2.88,21,21,0,0,1,8.9,1.7s.56,10.35-6.22,10.35Z" />
            </g>
        </g>
    </g>
</svg>