<?xml version="1.0" encoding="UTF-8"?>
<svg id="Layer_1" data-name="Layer 1" xmlns="http://www.w3.org/2000/svg" viewBox="0 0 205.66 205.66" fill="white">
  <path d="m132.56,134.03c-4.24,4.24-6.58,9.88-6.58,15.88s2.34,11.64,6.58,15.88c4.38,4.38,10.13,6.57,15.88,6.57s11.5-2.19,15.88-6.57c4.24-4.24,6.58-9.88,6.58-15.88s-2.34-11.64-6.58-15.88c-8.76-8.76-23.01-8.76-31.76,0Zm4.25,31.23c1.01-4.57,5.1-7.92,9.86-7.92h3.55c4.76,0,8.85,3.35,9.86,7.92-6.85,5.2-16.42,5.2-23.27,0h0Zm11.63-11.85c-3.26,0-5.91-2.65-5.91-5.91s2.65-5.91,5.91-5.91,5.91,2.65,5.91,5.91-2.65,5.91-5.91,5.91Zm14.26,9.45c-1.45-3.94-4.69-6.97-8.69-8.16,2.15-1.67,3.54-4.27,3.54-7.2,0-5.02-4.09-9.11-9.11-9.11s-9.11,4.09-9.11,9.11c0,2.92,1.39,5.53,3.54,7.2-3.99,1.2-7.24,4.23-8.69,8.16-3.23-3.55-5-8.11-5-12.95,0-5.15,2-9.98,5.64-13.62,7.51-7.51,19.73-7.51,27.24,0,3.64,3.64,5.64,8.48,5.64,13.62,0,4.84-1.77,9.4-5,12.95ZM62.19,86.13c6,0,11.64-2.34,15.88-6.58,8.76-8.76,8.76-23.01,0-31.76-4.24-4.24-9.88-6.58-15.88-6.58s-11.64,2.34-15.88,6.58c-8.76,8.76-8.76,23.01,0,31.76,4.24,4.24,9.88,6.58,15.88,6.58Zm-11.64-7.11c1.01-4.57,5.1-7.92,9.86-7.92h3.55c4.76,0,8.85,3.35,9.86,7.92-3.33,2.54-7.38,3.91-11.63,3.91s-8.3-1.38-11.64-3.91Zm11.64-11.85c-3.26,0-5.91-2.65-5.91-5.91s2.65-5.91,5.91-5.91,5.91,2.65,5.91,5.91-2.65,5.91-5.91,5.91Zm-13.62-17.12c3.64-3.64,8.48-5.64,13.62-5.64s9.98,2,13.62,5.64c7.29,7.29,7.5,19.02.64,26.57-1.45-3.94-4.69-6.96-8.69-8.16,2.15-1.67,3.54-4.27,3.54-7.2,0-5.02-4.09-9.11-9.11-9.11s-9.11,4.09-9.11,9.11c0,2.92,1.39,5.53,3.54,7.2-3.99,1.2-7.24,4.23-8.69,8.16-6.87-7.55-6.65-19.28.64-26.57h0Zm99.87,36.07c5.75,0,11.5-2.19,15.88-6.57,8.76-8.76,8.76-23.01,0-31.76-8.76-8.76-23.01-8.76-31.76,0-8.76,8.76-8.76,23.01,0,31.76,4.38,4.38,10.13,6.57,15.88,6.57Zm-11.63-7.11c1.01-4.57,5.1-7.92,9.86-7.92h3.55c4.76,0,8.85,3.35,9.86,7.92-3.43,2.6-7.53,3.91-11.63,3.91-4.11,0-8.21-1.3-11.64-3.91h0Zm11.63-11.85c-3.26,0-5.91-2.65-5.91-5.91s2.65-5.91,5.91-5.91,5.91,2.65,5.91,5.91-2.65,5.91-5.91,5.91Zm-13.62-17.12c3.75-3.75,8.69-5.63,13.62-5.63s9.86,1.88,13.62,5.63c7.29,7.29,7.5,19.02.64,26.57-1.45-3.94-4.69-6.96-8.69-8.16,2.15-1.67,3.54-4.27,3.54-7.2,0-5.02-4.09-9.11-9.11-9.11s-9.11,4.09-9.11,9.11c0,2.92,1.39,5.53,3.54,7.2-3.99,1.2-7.24,4.23-8.69,8.16-6.87-7.55-6.65-19.28.64-26.57Zm-88.51,83.99c-4.24,4.24-6.58,9.88-6.58,15.88s2.34,11.64,6.58,15.88c4.38,4.38,10.13,6.57,15.88,6.57s11.5-2.19,15.88-6.57c4.24-4.24,6.58-9.88,6.58-15.88s-2.34-11.64-6.58-15.88c-8.76-8.76-23.01-8.76-31.76,0h0Zm4.25,31.23c1.01-4.57,5.1-7.92,9.86-7.92h3.55c4.76,0,8.85,3.35,9.86,7.92-6.85,5.2-16.42,5.2-23.27,0Zm11.64-11.85c-3.26,0-5.91-2.65-5.91-5.91s2.65-5.91,5.91-5.91,5.91,2.65,5.91,5.91-2.65,5.91-5.91,5.91Zm14.26,9.45c-1.45-3.94-4.69-6.97-8.69-8.16,2.15-1.67,3.54-4.27,3.54-7.2,0-5.02-4.09-9.11-9.11-9.11s-9.11,4.09-9.11,9.11c0,2.92,1.39,5.53,3.54,7.2-3.99,1.2-7.24,4.23-8.69,8.16-3.23-3.55-5-8.11-5-12.95,0-5.15,2-9.98,5.64-13.62,3.75-3.75,8.69-5.63,13.62-5.63s9.86,1.88,13.62,5.63c3.64,3.64,5.64,8.48,5.64,13.62,0,4.84-1.77,9.4-5,12.95Zm53.21-41c-.69-.89-.8-1.97-.3-2.98.59-1.17,1.09-2.4,1.5-3.64.35-1.06,1.18-1.76,2.29-1.9,1.62-.22,2.79-1.54,2.79-3.13v-6.83c0-1.63-1.2-2.98-2.78-3.14-1.14-.12-2-.81-2.36-1.89-.41-1.22-.91-2.41-1.49-3.56-.51-1.02-.41-2.11.3-3,1.01-1.27.92-3.09-.22-4.22l-4.83-4.83c-1.14-1.14-3-1.24-4.22-.22-.88.73-2.02.86-3.04.35-1.13-.57-2.31-1.05-3.51-1.45-1.08-.36-1.79-1.25-1.9-2.38-.16-1.62-1.51-2.84-3.14-2.84h-6.83c-1.6,0-2.95,1.2-3.14,2.78-.13,1.12-.83,1.97-1.9,2.33-1.23.41-2.44.91-3.6,1.49-1.01.51-2.1.4-2.99-.3-1.26-.99-3.06-.89-4.19.25l-4.83,4.83c-1.13,1.13-1.24,2.93-.25,4.19.7.89.81,1.98.3,2.99-.58,1.16-1.09,2.37-1.49,3.6-.35,1.07-1.21,1.76-2.33,1.9-1.59.19-2.78,1.54-2.78,3.14v6.83c0,1.6,1.2,2.95,2.78,3.14,1.12.13,1.97.83,2.33,1.9.41,1.23.91,2.44,1.49,3.6.51,1.01.4,2.1-.3,2.99-.99,1.26-.88,3.06.25,4.19l4.83,4.83c1.13,1.13,2.93,1.24,4.19.25.89-.7,1.98-.81,2.99-.3,1.16.58,2.37,1.09,3.6,1.5,1.07.35,1.76,1.21,1.9,2.33.19,1.59,1.54,2.78,3.14,2.78h6.83c1.6,0,2.95-1.2,3.14-2.78.13-1.12.83-1.97,1.9-2.33,1.23-.41,2.44-.91,3.6-1.49,1.01-.51,2.1-.4,2.99.3,1.26.99,3.06.88,4.19-.25l4.83-4.83c1.14-1.13,1.26-2.92.29-4.16h0Zm-2.56,1.92l-4.78,4.78c-1.85-1.44-4.29-1.68-6.38-.62-1.02.51-2.09.96-3.17,1.31-2.22.74-3.78,2.63-4.07,4.95h-6.76c-.29-2.32-1.84-4.21-4.07-4.95-1.08-.36-2.15-.8-3.17-1.31-2.09-1.05-4.53-.81-6.38.62l-4.78-4.78c1.44-1.84,1.68-4.29.62-6.38-.51-1.02-.96-2.09-1.31-3.17-.74-2.22-2.63-3.78-4.95-4.07v-6.76c2.32-.29,4.21-1.84,4.95-4.07.36-1.08.8-2.15,1.31-3.17,1.05-2.09.81-4.53-.62-6.38l4.78-4.78c1.85,1.44,4.29,1.68,6.38.62,1.02-.51,2.09-.96,3.17-1.31,2.22-.74,3.78-2.63,4.07-4.95h6.76c.25,2.37,1.81,4.31,4.08,5.06,1.06.35,2.1.78,3.09,1.28,2.14,1.07,4.6.79,6.45-.7l4.78,4.78c-1.47,1.86-1.72,4.32-.65,6.44.51,1.01.95,2.06,1.31,3.13.75,2.23,2.65,3.77,4.98,4.04v6.76s-.01,0-.02,0c-2.34.31-4.17,1.84-4.9,4.08-.36,1.1-.8,2.18-1.32,3.21-1.03,2.07-.8,4.49.6,6.32h0Zm-34.92-30.14c-3.51,3.51-5.44,8.18-5.44,13.14s1.93,9.63,5.44,13.14c3.62,3.62,8.38,5.44,13.14,5.44s9.52-1.81,13.14-5.44c3.51-3.51,5.44-8.18,5.44-13.14s-1.93-9.63-5.44-13.14c-7.25-7.25-19.04-7.25-26.29,0h0Zm4,25.52c.86-3.5,4.03-6.04,7.7-6.04h2.89c3.67,0,6.84,2.54,7.7,6.04-2.71,2-5.92,3-9.14,3-3.22,0-6.44-1-9.14-3h0Zm9.14-9.83c-2.49,0-4.52-2.03-4.52-4.52s2.03-4.52,4.52-4.52,4.52,2.03,4.52,4.52-2.03,4.52-4.52,4.52Zm11.71,7.43c-1.22-2.9-3.62-5.15-6.57-6.2,1.58-1.41,2.57-3.47,2.57-5.75,0-4.26-3.46-7.72-7.72-7.72s-7.72,3.46-7.72,7.72c0,2.28.99,4.33,2.57,5.75-2.95,1.05-5.35,3.3-6.57,6.2-2.38-2.78-3.68-6.28-3.68-9.98,0-4.11,1.6-7.98,4.51-10.88,3-3,6.94-4.5,10.88-4.5s7.88,1.5,10.88,4.5c2.91,2.91,4.51,6.77,4.51,10.88,0,3.7-1.3,7.2-3.68,9.98h0Zm-19.56-66.12c-.62-.62-.62-1.64,0-2.26l6.72-6.72c.62-.62,1.64-.62,2.26,0l6.72,6.72c.62.62.62,1.64,0,2.26s-1.64.62-2.26,0l-3.99-3.99v15.43c0,.88-.72,1.6-1.6,1.6s-1.6-.72-1.6-1.6v-15.43l-3.99,3.99c-.31.31-.72.47-1.13.47-.41,0-.82-.16-1.13-.47h0Zm15.7,112.27c.62.62.62,1.64,0,2.26l-6.72,6.72c-.31.31-.72.47-1.13.47s-.82-.16-1.13-.47l-6.72-6.72c-.62-.62-.62-1.64,0-2.26.62-.62,1.64-.62,2.26,0l3.99,3.99v-15.43c0-.88.72-1.6,1.6-1.6s1.6.72,1.6,1.6v15.43l3.99-3.99c.62-.63,1.64-.63,2.26,0h0Zm48.28-50.54l3.99-3.99h-15.43c-.88,0-1.6-.72-1.6-1.6s.72-1.6,1.6-1.6h15.43l-3.99-3.99c-.62-.62-.62-1.64,0-2.26s1.64-.62,2.26,0l6.72,6.72c.62.62.62,1.64,0,2.26l-6.72,6.72c-.31.31-.72.47-1.13.47s-.82-.16-1.13-.47c-.63-.62-.63-1.64,0-2.26Zm-121.25-4.46c-.3-.3-.47-.71-.47-1.13s.17-.83.47-1.13l6.72-6.72c.62-.62,1.64-.62,2.26,0,.62.62.62,1.64,0,2.26l-3.99,3.99h15.43c.88,0,1.6.72,1.6,1.6s-.72,1.6-1.6,1.6h-15.43l3.99,3.99c.62.62.62,1.64,0,2.26-.31.31-.72.47-1.13.47s-.82-.16-1.13-.47l-6.72-6.72Z"/>
</svg>