<?xml version="1.0" encoding="UTF-8"?>
<svg id="Layer_1" data-name="Layer 1" xmlns="http://www.w3.org/2000/svg" viewBox="0 0 205.66 205.66" fill="white" >
  <path d="m60.97,51.86v-6.16c0-2.48,2.01-4.5,4.5-4.5h73.55c2.48.01,4.48,2.02,4.5,4.5v37.66c2.97,1.81,5.66,4.06,7.98,6.67,5.49,6.16,8.63,14.06,8.87,22.3.24,8.25-2.41,16.31-7.52,22.8l8.17,9.17c1.65-.81,3.64-.42,4.86.95l12.18,13.69c3.18,3.8,2.76,9.44-.94,12.73-3.7,3.29-9.35,3.06-12.75-.54l-12.18-13.68c-.72-.81-1.09-1.87-1.02-2.95.04-.71.25-1.39.63-1.99l-8.16-9.16c-.48.29-.96.57-1.44.83h0c-.35.36-.75.65-1.2.87-.44.23-.92.37-1.42.43-2.21.99-4.52,1.75-6.89,2.26v3.93c0,2.48-2.01,4.5-4.5,4.5h-54.76c-2.85,6.16-8.47,10.6-15.12,11.94-6.66,1.34-13.55-.57-18.57-5.14-5.02-4.58-7.55-11.27-6.82-18.03.73-6.75,4.63-12.75,10.52-16.15V56.34c0-2.48,2.01-4.48,4.5-4.48h13.03Zm-17.03,95.13c-.62-.7-.57-1.78.12-2.42.68-.65,1.75-.63,2.42.04l5.34,5.68,9.95-9.82h0c.68-.68,1.78-.66,2.45.02.68.68.66,1.78-.01,2.45l-11.23,11.1c-.7.66-1.8.63-2.46-.07l-6.56-6.98Zm30.75,5.69h53.51c.27,0,.52-.11.7-.3.2-.18.3-.44.3-.7v-3.36c-5.42.62-10.91-.04-16.04-1.92h-37.78c0,.28.02.57.02.85h0c0,1.84-.24,3.67-.7,5.44h0Zm.07-10.65h30.12c-1.14-.81-2.23-1.69-3.27-2.63h-27.7c.34.86.62,1.74.85,2.63h0Zm-2.62-6.13h26.13c-.94-1.11-1.79-2.29-2.58-3.51h-26.32c1.04,1.07,1.97,2.25,2.77,3.51Zm-7.19-6.99h28.76c-1.13-2.29-2-4.69-2.6-7.16h-33.7c-.96,0-1.74-.78-1.74-1.74s.78-1.74,1.74-1.74h33.04c-.16-1.17-.26-2.34-.3-3.51h-32.74c-.96,0-1.74-.78-1.74-1.74s.78-1.74,1.74-1.74h32.76c.07-1.18.21-2.35.39-3.51h-33.14c-.47.02-.93-.16-1.27-.49-.34-.33-.53-.78-.53-1.25s.2-.92.53-1.26c.34-.33.8-.5,1.27-.49h33.9c.66-2.48,1.6-4.88,2.78-7.15h-36.68c-.96,0-1.74-.78-1.74-1.74s.78-1.74,1.74-1.74h38.77c.84-1.23,1.74-2.4,2.73-3.51h-41.49c-.96,0-1.74-.78-1.74-1.74s.78-1.74,1.74-1.74h45.05c1.53-1.31,3.18-2.48,4.91-3.51h-49.96c-.47.01-.93-.17-1.27-.49-.34-.33-.53-.78-.53-1.26s.2-.92.53-1.26c.34-.33.8-.5,1.27-.49h58.01c3.85-1.11,7.86-1.56,11.86-1.33.65.04,1.29.1,1.93.16v-4.15h-17.24c-.96,0-1.74-.78-1.75-1.74v-17.24h-62.28c-.27,0-.52.11-.71.3-.19.18-.3.44-.3.71v70.83c5.97-2.14,12.58-1.5,18.03,1.74h0Zm1.74,5.72h0c-6.01-6.02-15.44-6.96-22.52-2.23-7.08,4.72-9.83,13.79-6.58,21.65,3.25,7.86,11.61,12.33,19.96,10.68,8.35-1.66,14.36-8.99,14.36-17.49,0-4.73-1.87-9.26-5.21-12.6h0Zm52.18-34.6c-2.87,2.55-3.94,6.57-2.72,10.21,1.22,3.64,4.5,6.2,8.32,6.52.51-.02,1.01-.02,1.52,0,3.64-.28,6.79-2.61,8.15-5.98,1.36-3.38.69-7.24-1.74-9.96-1.69-1.9-4.06-3.05-6.61-3.2-2.54-.15-5.04.72-6.94,2.42h0Zm-6.68,6.42h0c.2-3.47,1.77-6.71,4.35-9.02,5.4-4.79,13.65-4.32,18.47,1.07h0s0,0,0,0c4.8,5.4,4.32,13.65-1.07,18.46-.36.32-.74.62-1.14.89,4.49,1.36,8.54,3.9,11.7,7.37,2.83-4.59,3.92-10.04,3.08-15.36-.84-5.33-3.55-10.17-7.65-13.67-4.09-3.51-9.31-5.43-14.7-5.43s-10.6,1.93-14.69,5.43c-4.1,3.5-6.81,8.35-7.64,13.68-.84,5.32.26,10.77,3.09,15.36l.11-.11c.6-.65,1.2-1.24,1.81-1.78h0c2.83-2.52,6.16-4.4,9.79-5.49-.81-.57-1.55-1.24-2.21-1.98-2.3-2.58-3.48-5.98-3.28-9.44h0Zm13.89,13.8h0c-.53.03-1.05.03-1.58,0h-.07c-5.26.18-10.28,2.2-14.21,5.71-.55.48-1.07.99-1.57,1.53-.18.2-.37.41-.55.63.09.1.18.21.27.3.05.08.12.15.18.21.07.08.13.15.2.21.07.07.13.15.21.21.07.07.13.14.2.21.07.07.14.14.21.21.07.07.14.13.21.21.07.07.14.13.21.2.07.07.14.13.21.19.07.07.14.13.21.2l.21.19c.07.06.14.12.21.18h0c.07.07.14.12.21.18.07.07.15.12.22.18s.15.12.22.18l.22.17c.08.06.15.11.23.16.07.06.15.11.23.17.07.05.15.11.22.16s.16.11.23.16c.07.06.16.11.23.16.08.06.16.11.24.16.07.05.15.1.23.15.08.05.16.1.24.15s.16.1.23.15c.08.05.16.1.24.14.08.05.16.09.25.14h.01c.08.05.15.09.24.14.08.05.16.09.24.14l.25.12c.08.04.16.09.24.13s.16.08.25.11l.25.12c.08.04.17.08.25.11.08.04.17.08.25.12.08.03.16.07.25.11.08.04.17.07.25.11.08.04.16.07.25.11.08.03.16.07.25.1.08.03.16.07.25.1h0c.08.03.17.06.25.08.08.04.17.07.25.1.09.02.17.06.25.08.09.03.17.06.26.08h0c.08.03.17.06.26.08.08.04.17.06.25.08l.52.14c.09.02.17.04.26.07.09.02.17.04.26.07l.26.07c.09.02.18.04.26.06s.18.04.27.06c.09.02.17.04.26.05l.26.05.27.05c.09,0,.17.02.26.04s.18.02.27.04c.09,0,.18.02.26.04.08.01.18.02.27.03.09,0,.18.02.27.04l.27.02.26.02.27.02h.03c.09.01.18.02.27.03,5.98.36,11.87-1.69,16.34-5.69.76-.68,1.46-1.4,2.13-2.16l-.26-.3h0c-3.98-4.49-9.58-7.2-15.57-7.55l-.48-.02h0Zm-21.81,8.65l-.6-.8.02-.02h0c-3.58-5.25-5.12-11.63-4.33-17.94.79-6.31,3.86-12.11,8.63-16.31,4.77-4.21,10.91-6.53,17.26-6.53s12.49,2.32,17.26,6.53c4.76,4.21,7.83,10.01,8.63,16.31.79,6.31-.75,12.69-4.33,17.94l.02.02-.56.75c-1.02,1.39-2.18,2.67-3.46,3.82-.07.07-.14.13-.21.19-5.15,4.61-11.94,6.97-18.85,6.56-.11,0-.21,0-.32-.02l-.64-.05c-.11,0-.21-.02-.32-.04-.11-.01-.21-.02-.32-.03-.11,0-.21-.02-.3-.04-.1-.02-.21-.02-.32-.04l-.32-.05-.3-.05-.32-.05c-.1-.02-.21-.04-.3-.06l-.32-.07c-.1-.02-.2-.04-.3-.06l-.3-.08c-.1-.02-.21-.04-.3-.07h0c-.11-.03-.21-.05-.31-.09-.11-.02-.2-.05-.3-.07-.1-.02-.21-.06-.3-.08-.1-.03-.2-.06-.3-.09-.1-.02-.2-.06-.3-.09-.1-.04-.21-.06-.3-.09l-.59-.2c-.1-.04-.21-.07-.3-.11-.1-.04-.2-.07-.3-.11-.1-.04-.19-.07-.29-.11-.1-.04-.2-.07-.3-.11l-.3-.12-.29-.12c-.1-.04-.2-.08-.29-.12-.1-.04-.2-.09-.29-.13-.1-.04-.2-.09-.29-.13-.1-.05-.2-.1-.29-.14-.1-.05-.19-.1-.29-.14-.09-.05-.19-.1-.28-.15-.1-.05-.19-.09-.28-.15-.09-.05-.19-.1-.29-.16-.09-.05-.18-.1-.27-.16-.09-.05-.19-.11-.28-.16-.09-.05-.18-.11-.28-.16-.09-.06-.18-.11-.27-.16l-.55-.34c-.09-.06-.18-.12-.26-.18-.09-.06-.18-.12-.27-.18-.09-.06-.17-.12-.26-.18-.09-.07-.17-.13-.26-.19-.09-.07-.17-.13-.26-.2-.08-.07-.17-.13-.25-.2-.09-.07-.17-.13-.26-.2-.08-.07-.16-.13-.25-.21-.08-.07-.16-.13-.25-.21-.09-.07-.17-.14-.25-.21-.08-.07-.16-.15-.25-.21l-.25-.22-.24-.23c-.08-.07-.16-.15-.24-.22-.08-.07-.16-.16-.24-.23-.08-.08-.16-.16-.24-.23l-.24-.24c-.07-.08-.16-.16-.23-.24-.08-.08-.16-.16-.23-.24-.08-.08-.16-.16-.23-.25-.07-.09-.15-.17-.22-.25h-.02c-.05-.06-.09-.11-.13-.16-.48-.55-.93-1.1-1.36-1.68h.05Zm35.74-47.41v-35.8c0-.27-.11-.52-.3-.7-.18-.2-.44-.3-.7-.3h-73.55c-.56,0-1.01.44-1.01,1v6.16h48.52c.54,0,1.05.25,1.38.68l17.86,18.86.02.03h0l.02.04h.02l.02.04h.01l.02.03.02.04.02.02h0l.02.03.02.02v.02h0s.04.05.04.05h0s.02.04.02.04v.04s0,.02,0,.02v.02s.01,0,.01,0l.04.05v.02s0,.02,0,.02h.01v.04s0,0,0,0l.02.04h0s0,0,0,0v.06s.01.02.01.02v.02h.01v.05s0,.02,0,.02v.02s0,.04,0,.04v.02s.01.11.01.11v.02s0,.16,0,.16h0v6.46h0c2.52.55,4.98,1.37,7.32,2.45l.07.07Zm-35.82,8.23c-2.14,1.91-4.02,4.11-5.58,6.52l-.1.15h0c-1.93,3.03-3.32,6.37-4.13,9.88-.02.08-.04.16-.06.24h0c-.37,1.66-.6,3.34-.7,5.02-.02.46-.04.92-.05,1.38v.22c-.02,2.16.18,4.31.6,6.43.01.06.03.12.04.18.72,3.51,2.03,6.87,3.87,9.94.02.04.05.07.08.11h0c1,1.65,2.15,3.19,3.43,4.63.59.67,1.2,1.3,1.84,1.9.04.03.07.07.11.1,3.01,2.84,6.55,5.07,10.43,6.55.07.02.14.05.21.08h0c5.39,2,11.23,2.5,16.89,1.44,5.66-1.07,10.92-3.64,15.22-7.47,6.27-5.58,10.06-13.43,10.56-21.81.49-8.38-2.38-16.61-7.96-22.88-4-4.49-9.19-7.75-14.98-9.4s-11.91-1.61-17.68.09c-.06.02-.11.03-.16.05-4.35,1.31-8.36,3.55-11.77,6.56-.04.04-.07.07-.12.09h0Zm46.35,48.04c-.62.64-1.28,1.26-1.94,1.86-.68.6-1.37,1.18-2.07,1.71l7.78,8.74,4.02-3.57-7.78-8.74Zm20.32,32.93c2.29.12,4.44-1.14,5.44-3.2,1-2.07.66-4.54-.86-6.26l-12.18-13.68c-.1-.12-.25-.2-.41-.2-.16-.01-.32.04-.44.15l-7.59,6.76c-.12.11-.19.25-.21.41,0,.17.05.33.16.44l12.17,13.68c1,1.13,2.41,1.81,3.92,1.9h0ZM57.41,73.38c-.96,0-1.74-.78-1.74-1.74s.78-1.74,1.74-1.74h43.19c.97,0,1.74.78,1.74,1.74s-.78,1.74-1.74,1.74h-43.19Zm0-8.36c-.97,0-1.75-.78-1.75-1.75s.78-1.75,1.75-1.75h43.19c.97,0,1.75.78,1.75,1.75s-.78,1.75-1.75,1.75h-43.19Zm69.51,5.84l-13.22-13.96v13.96h13.22Z"/>
</svg>