<?xml version="1.0" encoding="UTF-8"?>
<svg id="Layer_1" data-name="Layer 1" xmlns="http://www.w3.org/2000/svg" viewBox="0 0 205.66 205.66" fill="white">
  <path d="m160.63,122.1h-14.42c-1.46,0-2.89.14-4.31.42-4.42-5.52-10.47-9.7-17.19-11.82-.93-.3-1.95.11-2.4.98l-11.63,21.61-2.53-9.03c-.32-1.16-.14-2.24.56-3.23l6.28-8.77c.44-.61.51-1.44.16-2.1-.35-.68-1.05-1.1-1.81-1.1h-21.05c-.75,0-1.46.42-1.81,1.1-.35.68-.28,1.49.16,2.1l6.28,8.79c.7.96.89,2.05.58,3.19l-2.49,9.12-11.68-21.69c-.46-.86-1.47-1.26-2.4-.98-6.7,2.12-12.77,6.3-17.19,11.82-1.42-.28-2.86-.42-4.31-.42h-14.42c-13.14,0-23.83,11.43-23.83,25.46v2.72c0,4.42,3.6,8,8,8h147.28c4.42,0,8-3.6,8-8v-2.72c0-14.03-10.7-25.45-23.83-25.45Zm-60.38-3.42l-3.98-5.58h13.14l-3.98,5.56c-1.4,1.96-1.82,4.35-1.18,6.68l3.67,13.08-5.09,9.45-5.03-9.33,3.63-13.22c.63-2.33.21-4.7-1.18-6.65Zm-74.99,31.6v-2.72c0-11.8,8.87-21.41,19.76-21.41h14.42c.56,0,1.12.04,1.7.09-3.4,5.58-5.21,11.93-5.21,18.54v9.44h-26.74c-2.17.02-3.93-1.75-3.93-3.93Zm120.4,3.95h-14.42v-10.47c0-1.12-.91-2.03-2.03-2.03s-2.03.91-2.03,2.03v10.47h-48.7v-10.47c0-1.12-.91-2.03-2.03-2.03s-2.03.91-2.03,2.03v10.47h-14.42v-9.44c0-13.31,8.21-25.04,20.57-29.67l20.48,38c.35.67,1.03,1.07,1.79,1.07s1.44-.4,1.79-1.07l20.47-38c12.38,4.63,20.57,16.36,20.57,29.67v9.44Zm34.74-3.95c0,2.17-1.77,3.93-3.93,3.93h-26.74v-9.44c0-6.61-1.79-12.96-5.21-18.54.56-.05,1.12-.09,1.7-.09h14.42c10.91,0,19.76,9.61,19.76,21.41v2.72Zm-39.44-63.77c-4.47,4.56-5.58,13.84-2.53,21.13,2.7,6.45,8.17,10.15,14.99,10.15s12.29-3.7,14.99-10.15c3.07-7.3,1.95-16.59-2.53-21.15-3.28-3.33-7.24-4.89-12.47-4.89-5.23.04-9.19,1.58-12.47,4.91Zm23.71,19.57c-1.47,3.49-4.61,7.66-11.24,7.66s-9.79-4.17-11.26-7.66c-2.39-5.7-1.63-13.36,1.68-16.71,2.53-2.58,5.4-3.67,9.59-3.67s7.07,1.14,9.56,3.67c3.3,3.35,4.07,11.01,1.67,16.71Zm-124.9-19.57c-4.47,4.56-5.58,13.84-2.53,21.13,2.7,6.45,8.17,10.15,14.99,10.15s12.29-3.7,14.99-10.15c3.07-7.3,1.95-16.59-2.53-21.15-3.28-3.33-7.24-4.89-12.47-4.89-5.23.04-9.19,1.58-12.47,4.91Zm23.71,19.57c-1.47,3.49-4.61,7.66-11.24,7.66s-9.79-4.17-11.26-7.66c-2.39-5.7-1.63-13.36,1.68-16.71,2.53-2.58,5.4-3.67,9.59-3.67s7.07,1.14,9.56,3.67c3.3,3.35,4.07,11.01,1.67,16.71Zm39.37-50.77c-7.33,0-12.89,2.16-17.45,6.8-6.24,6.37-7.77,19.4-3.47,29.66,3.82,9.15,11.26,14.17,20.9,14.17s17.08-5.03,20.9-14.15c4.31-10.28,2.79-23.31-3.47-29.66-4.56-4.65-10.1-6.82-17.41-6.82Zm17.13,34.9c-1.82,4.35-6.49,11.66-17.15,11.66s-15.33-7.31-17.15-11.66c-3.67-8.73-2.49-20.05,2.61-25.24,3.81-3.88,8.3-5.59,14.56-5.59s10.72,1.72,14.52,5.59c5.1,5.19,6.28,16.52,2.61,25.24Z"/>
</svg>