<svg xmlns="http://www.w3.org/2000/svg" width="84.686" height="83.405" viewBox="0 0 84.686 83.405">
  <path id="Path_15465" data-name="Path 15465" d="M17.824,70.833H6.817a1.357,1.357,0,0,1-1.35-1.5,12.294,12.294,0,0,1,7.568-10.049,6.874,6.874,0,0,1,3.223-11.8,35.778,35.778,0,0,1,41.651-25.6,12.236,12.236,0,0,1,1.439-.7,6.877,6.877,0,1,1,9.279,0,12.287,12.287,0,0,1,7.565,10.05,1.356,1.356,0,0,1-.051.54,35.757,35.757,0,0,1,8.517,36.4,6.869,6.869,0,0,1-2.087,6.507,12.287,12.287,0,0,1,7.565,10.05,1.357,1.357,0,0,1-1.35,1.5H71.149a35.738,35.738,0,0,1-53.325-15.4Zm-.151-9.743a9.566,9.566,0,0,0-9.222,7.029H26.9a9.563,9.563,0,0,0-9.223-7.029Zm4.64-1.808a12.286,12.286,0,0,1,7.565,10.05,1.357,1.357,0,0,1-1.35,1.5H20.795A33.032,33.032,0,0,0,66.332,86.01a1.357,1.357,0,0,1-.607-1.281A12.3,12.3,0,0,1,73.293,74.68a6.873,6.873,0,1,1,9.522-9.907,33.053,33.053,0,0,0-9.581-32.04h-20.1a1.358,1.358,0,0,1-1.35-1.5,12.243,12.243,0,0,1,3.252-7.077A33.062,33.062,0,0,0,19.081,47.478a6.874,6.874,0,0,1,3.232,11.8Zm-4.64-.907a4.164,4.164,0,1,0-4.161-4.164A4.171,4.171,0,0,0,17.672,58.375ZM63.987,22.989a9.566,9.566,0,0,0-9.222,7.029H73.209A9.563,9.563,0,0,0,63.987,22.989Zm0-2.715a4.164,4.164,0,1,0-4.161-4.164A4.171,4.171,0,0,0,63.987,20.274Zm13.944,53.5a4.164,4.164,0,1,0-4.161-4.164A4.171,4.171,0,0,0,77.931,73.773Zm0,2.715a9.566,9.566,0,0,0-9.222,7.029H87.153a9.563,9.563,0,0,0-9.223-7.029ZM55.715,39.179a18.26,18.26,0,0,1,4.037,1.673l2.59-1.152a1.357,1.357,0,0,1,1.511.28l3.8,3.8a1.358,1.358,0,0,1,.281,1.51L66.79,47.884a18.24,18.24,0,0,1,1.674,4.045l2.641,1.017a1.357,1.357,0,0,1,.87,1.267v5.379a1.357,1.357,0,0,1-.87,1.267l-2.642,1.017a18.418,18.418,0,0,1-1.674,4.037L67.937,68.5a1.357,1.357,0,0,1-.281,1.51l-3.8,3.8a1.358,1.358,0,0,1-1.51.281l-2.59-1.147a18.221,18.221,0,0,1-4.04,1.674L54.7,77.267a1.357,1.357,0,0,1-1.267.87H48.052a1.357,1.357,0,0,1-1.267-.87l-1.017-2.642a18.381,18.381,0,0,1-4.043-1.675L39.133,74.1a1.358,1.358,0,0,1-1.51-.281l-3.8-3.8a1.357,1.357,0,0,1-.28-1.511l1.151-2.589a18.379,18.379,0,0,1-1.676-4.038l-2.644-1.018a1.358,1.358,0,0,1-.87-1.267V54.212a1.357,1.357,0,0,1,.87-1.267l2.643-1.017a18.4,18.4,0,0,1,1.677-4.043L33.54,45.3a1.358,1.358,0,0,1,.28-1.512l3.8-3.8a1.357,1.357,0,0,1,1.511-.28l2.59,1.152a18.261,18.261,0,0,1,4.039-1.673l1.022-2.648a1.358,1.358,0,0,1,1.267-.869H53.43a1.358,1.358,0,0,1,1.267.871Zm-2.284,1.626L52.5,38.377H48.983l-.938,2.43a1.358,1.358,0,0,1-.953.832,15.563,15.563,0,0,0-4.569,1.893,1.357,1.357,0,0,1-1.264.085L38.883,42.56,36.4,45.044l1.057,2.377a1.357,1.357,0,0,1-.085,1.264,15.689,15.689,0,0,0-1.9,4.577,1.358,1.358,0,0,1-.832.95l-2.424.933v3.515l2.424.933a1.358,1.358,0,0,1,.832.949,15.654,15.654,0,0,0,1.9,4.571,1.358,1.358,0,0,1,.086,1.265L36.4,68.754l2.485,2.485,2.377-1.053a1.358,1.358,0,0,1,1.259.084,15.671,15.671,0,0,0,4.576,1.9,1.358,1.358,0,0,1,.954.833l.933,2.424H52.5L53.431,73a1.358,1.358,0,0,1,.953-.833,15.5,15.5,0,0,0,4.567-1.892,1.358,1.358,0,0,1,1.264-.087l2.377,1.053,2.486-2.486-1.053-2.377a1.358,1.358,0,0,1,.084-1.259A15.708,15.708,0,0,0,66,60.545a1.358,1.358,0,0,1,.833-.953l2.424-.933V55.145l-2.424-.933A1.358,1.358,0,0,1,66,53.258a15.527,15.527,0,0,0-1.893-4.573,1.358,1.358,0,0,1-.086-1.262l1.053-2.377L62.593,42.56l-2.376,1.057a1.357,1.357,0,0,1-1.264-.085,15.561,15.561,0,0,0-4.569-1.893A1.357,1.357,0,0,1,53.431,40.805Zm-2.693,3.338A12.759,12.759,0,1,1,37.982,56.9,12.757,12.757,0,0,1,50.738,44.143Zm0,2.715A10.044,10.044,0,1,0,60.785,56.9a10.037,10.037,0,0,0-10.047-10.04ZM44.962,58.145a1.357,1.357,0,1,1,1.92-1.92l1.9,1.9,5.87-5.325a1.357,1.357,0,0,1,1.824,2.011L49.645,61a1.358,1.358,0,0,1-1.872-.045Z" transform="translate(-5.459 -9.232)" fill="#fff" fill-rule="evenodd"/>
</svg>
