<svg id="Group_5647" data-name="Group 5647" xmlns="http://www.w3.org/2000/svg" xmlns:xlink="http://www.w3.org/1999/xlink" width="82.764" height="77.274" viewBox="0 0 82.764 77.274">
  <defs>
    <clipPath id="clip-path">
      <rect id="Rectangle_2376" data-name="Rectangle 2376" width="82.764" height="77.274" fill="#fff"/>
    </clipPath>
  </defs>
  <g id="Group_4475" data-name="Group 4475" transform="translate(0)" clip-path="url(#clip-path)">
    <path id="Path_14687" data-name="Path 14687" d="M82.744,76.245,80.252,63.716a10.022,10.022,0,0,0-9.984-8.062l-.208-.738c8.274-4.144,4-16.46-5.068-14.585.028-.082.061-.165.088-.247l6.384-.663a2.545,2.545,0,0,0,2.325-2.528v-9a2.571,2.571,0,0,0-2.3-2.553l-6.4-.664a25.668,25.668,0,0,0-1.5-3.6L67.647,16.1a2.569,2.569,0,0,0-.172-3.434L61.116,6.3A2.541,2.541,0,0,0,57.7,6.133l-5.01,4.052a24.391,24.391,0,0,0-3.6-1.49l-.664-6.421A2.559,2.559,0,0,0,45.867,0H36.894a2.559,2.559,0,0,0-2.552,2.28L33.678,8.7a24.372,24.372,0,0,0-3.6,1.49L25.1,6.142a2.543,2.543,0,0,0-3.432.163l-6.381,6.363a2.6,2.6,0,0,0-.178,3.427l4.073,4.983a24.2,24.2,0,0,0-1.487,3.6l-6.421.665a2.571,2.571,0,0,0-2.3,2.552v9a2.541,2.541,0,0,0,2.306,2.526l6.413.664c.026.081.059.168.087.251C8.7,38.446,4.436,50.772,12.7,54.915l-.208.738A10.015,10.015,0,0,0,2.51,63.715L.018,76.245a.866.866,0,0,0,.844,1.029H81.9a.866.866,0,0,0,.844-1.029M72.782,47.908a6.056,6.056,0,1,1-8.871-5.357,6.1,6.1,0,0,1,8.871,5.357m-4.074,8.56a3.969,3.969,0,0,1-1.984.546,4.1,4.1,0,0,1-1.981-.546l.272-.968a8.111,8.111,0,0,0,3.42,0ZM11.436,37.7a.824.824,0,0,1-.741-.811v-9a.849.849,0,0,1,.761-.839l6.983-.724a.861.861,0,0,0,.737-.614,22.656,22.656,0,0,1,1.791-4.337.862.862,0,0,0-.091-.953L16.45,15.014a.869.869,0,0,1,.054-1.128l6.389-6.371a.82.82,0,0,1,1.112-.044l5.425,4.408a.868.868,0,0,0,.953.089,22.62,22.62,0,0,1,4.336-1.791.862.862,0,0,0,.613-.738l.723-6.977a.827.827,0,0,1,.839-.74h8.973a.827.827,0,0,1,.839.734l.723,6.983a.862.862,0,0,0,.613.738,22.664,22.664,0,0,1,4.339,1.791.86.86,0,0,0,.95-.088l5.459-4.415a.817.817,0,0,1,1.112.059l6.355,6.362a.845.845,0,0,1,.062,1.12l-4.434,5.424a.862.862,0,0,0-.091.953,23.894,23.894,0,0,1,1.811,4.346.863.863,0,0,0,.734.605l6.963.723a.851.851,0,0,1,.763.84v9a.828.828,0,0,1-.761.813l-6.965.724a.862.862,0,0,0-.735.607,22.468,22.468,0,0,1-.774,2.145,7.837,7.837,0,0,0-.194,13.341L61.4,55.756a10.251,10.251,0,0,0-3.181,1.107l-4.891-3.978a.867.867,0,0,0-.767-.164,11.113,11.113,0,0,0-6.926-1.846l-.356-1.265a9.626,9.626,0,0,0,5.339-6.646c9.719-8.465,3.654-24.611-9.251-24.608-12.873,0-18.9,16.143-9.232,24.607a9.9,9.9,0,0,0,5.34,6.649l-.356,1.263A11.151,11.151,0,0,0,30.2,52.721a.87.87,0,0,0-.768.165l-4.875,3.988a10.56,10.56,0,0,0-3.167-1.115s-1.251-1.241-1.237-1.251A7.785,7.785,0,0,0,20.866,54a7.884,7.884,0,0,0-.942-12.826,20.268,20.268,0,0,1-.746-2.125.863.863,0,0,0-.74-.62ZM37.528,47.69a7.732,7.732,0,1,1,11.585-6.7c.135,5.724-6.661,9.679-11.585,6.7m6.561,4.041a5.1,5.1,0,0,1-5.415,0l.438-1.554a9.653,9.653,0,0,0,3.56.177c.332-.042.654-.117.98-.178.088.311.346,1.231.436,1.555M31.962,40.3a12.305,12.305,0,0,1,9.41-20.221C51.749,20,57.558,32.461,50.8,40.31c-1.184-11.629-17.646-11.636-18.838-.01M9.983,47.908a6.085,6.085,0,0,1,8.878-5.352c6.51,3.6,2.146,13.306-4.845,11.067a6.069,6.069,0,0,1-4.033-5.714m8.032,8.561a3.971,3.971,0,0,1-1.983.545,4.1,4.1,0,0,1-1.983-.546l.272-.968a8.125,8.125,0,0,0,3.42,0ZM9.983,75.552V70.808a.861.861,0,1,0-1.722,0v4.744H1.912L4.2,64.051a8.347,8.347,0,0,1,7.889-6.7,6.378,6.378,0,0,0,7.894,0,8.562,8.562,0,0,1,5.132,1.985c-.071-.346-3.206,15.869-3.294,16.213Zm40.852,0V70.808a.861.861,0,1,0-1.722,0v4.744H33.65V70.808a.861.861,0,1,0-1.722,0v4.744H23.576L26.463,61a10.614,10.614,0,0,1,10.071-8.485c3.5,2.289,6.2,2.3,9.7,0A10.613,10.613,0,0,1,56.3,61l2.886,14.55Zm22.953,0V70.808a.861.861,0,1,0-1.722,0v4.744H60.941c-.117-.476-3.18-16.38-3.295-16.213a8.4,8.4,0,0,1,5.133-1.985c.324-.008,1.083.57,1.433.721a5.621,5.621,0,0,0,5.211-.031l1.25-.69a8.36,8.36,0,0,1,7.89,6.7l2.286,11.5Z" transform="translate(0 0)" fill="#fff"/>
  </g>
</svg>
