<svg id="Group_5648" data-name="Group 5648" xmlns="http://www.w3.org/2000/svg" xmlns:xlink="http://www.w3.org/1999/xlink" width="56.365" height="82.45" viewBox="0 0 56.365 82.45">
  <defs>
    <clipPath id="clip-path">
      <rect id="Rectangle_2377" data-name="Rectangle 2377" width="56.365" height="82.45" fill="#fff"/>
    </clipPath>
  </defs>
  <g id="Group_4477" data-name="Group 4477" transform="translate(0)" clip-path="url(#clip-path)">
    <path id="Path_14688" data-name="Path 14688" d="M38.871,25.495a4.81,4.81,0,1,1,4.575-3.316,4.816,4.816,0,0,1-4.575,3.316m0-7.814a3.009,3.009,0,1,0,.936.15,3.027,3.027,0,0,0-.936-.15" transform="translate(-4.727 -2.203)" fill="#fff"/>
    <path id="Path_14689" data-name="Path 14689" d="M40.717,8.314a.887.887,0,0,1-.281-.046L35.369,6.613a.905.905,0,0,1-.578-1.141l1.4-4.271a1.744,1.744,0,0,1,2.2-1.114l3.476,1.137a1.741,1.741,0,0,1,1.114,2.2l-1.4,4.271a.906.906,0,0,1-.859.624m-3.926-3.14,3.348,1.095L41.233,2.92l-3.348-1.1Z" transform="translate(-4.822 -0.001)" fill="#fff"/>
    <path id="Path_14690" data-name="Path 14690" d="M28.633,48.385a1.945,1.945,0,0,1-.611-.1l-6.548-2.14a1.976,1.976,0,0,1-1.263-2.488l.51-1.561a.975.975,0,0,1,1.228-.623L30.4,44.236a.973.973,0,0,1,.624,1.227l-.509,1.56a1.979,1.979,0,0,1-1.878,1.362m-6.364-4.757-.208.635,6.565,2.173.007,0a.031.031,0,0,0,.028-.019l.207-.633Z" transform="translate(-2.791 -5.749)" fill="#fff"/>
    <path id="Path_14691" data-name="Path 14691" d="M24.866,57.234a1.425,1.425,0,0,1-.392-.055L1.043,50.56a1.43,1.43,0,0,1-.988-1.766l.265-.94a1.431,1.431,0,0,1,1.766-.988l23.431,6.619a1.431,1.431,0,0,1,.988,1.767l-.264.938a1.432,1.432,0,0,1-1.375,1.043M1.709,48.2l-.316.968,23.461,6.668a.051.051,0,0,0,.05-.028l.264-.939Z" transform="translate(0 -6.497)" fill="#fff"/>
    <path id="Path_14692" data-name="Path 14692" d="M50.146,85.689H36.807a.974.974,0,0,1-.974-.974v-12.3a7.643,7.643,0,0,1,15.287,0v12.3a.974.974,0,0,1-.974.974M37.781,83.741H49.172V72.415a5.7,5.7,0,0,0-11.391,0Z" transform="translate(-4.973 -8.99)" fill="#fff"/>
    <path id="Path_14693" data-name="Path 14693" d="M30.184,41.139a.991.991,0,0,1-.3-.048l-8.449-2.763a.975.975,0,0,1-.624-1.228l7.655-23.411a.974.974,0,1,1,1.851.6L22.963,36.779l6.6,2.157,5.055-15.461a4.884,4.884,0,0,1-2.226-5.76,4.9,4.9,0,0,1,5.2-3.331l1.437-4.394a.689.689,0,0,0-.441-.869L33.3,7.394a.691.691,0,0,0-.869.44L30.392,14.1a.974.974,0,1,1-1.852-.606l2.034-6.26A2.643,2.643,0,0,1,33.9,5.542l5.289,1.729A2.64,2.64,0,0,1,40.877,10.6l-1.709,5.227a.973.973,0,0,1-1.228.623,2.932,2.932,0,0,0-1.823,5.574.973.973,0,0,1,.624,1.228L31.11,40.467a.974.974,0,0,1-.926.672" transform="translate(-2.881 -0.751)" fill="#fff"/>
    <path id="Path_14694" data-name="Path 14694" d="M50.737,65.4a.892.892,0,0,1-.308-.054.9.9,0,0,1-.559-.6,5.771,5.771,0,0,0-1.614-2.6.9.9,0,0,1,.129-1.424,19.8,19.8,0,0,0-5.662-35.89.9.9,0,0,1-.46-1.463,2.965,2.965,0,0,0,.572-1.015A2.491,2.491,0,0,0,42.911,22a.976.976,0,0,1,.411-.641.934.934,0,0,1,.728-.141,24.507,24.507,0,0,1,7.19,44.026.906.906,0,0,1-.5.152m-.486-3.754a7.642,7.642,0,0,1,.91,1.443A22.7,22.7,0,0,0,44.444,23.22c-.028.07-.057.138-.088.2a21.61,21.61,0,0,1,5.9,38.22M43.813,22.093l.891.157Z" transform="translate(-5.835 -2.942)" fill="#fff"/>
    <path id="Path_14695" data-name="Path 14695" d="M33.511,74.892A24.35,24.35,0,0,1,12.657,63.2a.9.9,0,0,1,.908-1.368,3.121,3.121,0,0,0,1.15-.008,3.558,3.558,0,0,0,1.641-.747.9.9,0,0,1,1.3.164,19.9,19.9,0,0,0,15.967,8.114l.141-.008a.862.862,0,0,1,.721.343.9.9,0,0,1,.168.78,5.825,5.825,0,0,0-.181,1.406v2.111a.9.9,0,0,1-.874.9l-.09,0m-18.422-11.3a22.51,22.51,0,0,0,17.579,9.476V71.874a7.314,7.314,0,0,1,.038-.735A21.723,21.723,0,0,1,16.732,63a5.381,5.381,0,0,1-1.643.593" transform="translate(-1.738 -8.448)" fill="#fff"/>
    <path id="Path_14696" data-name="Path 14696" d="M13.5,62.537a5.352,5.352,0,0,1-3-9.785.9.9,0,0,1,.754-.121l3.58,1.011,2.95.834a.9.9,0,0,1,.576.494A5.333,5.333,0,0,1,13.5,62.537m-2.3-8.045a3.544,3.544,0,1,0,5.847,2.693,3.435,3.435,0,0,0-.18-1.092Z" transform="translate(-1.131 -7.3)" fill="#fff"/>
    <path id="Path_14697" data-name="Path 14697" d="M52.319,86.8H21.194a.974.974,0,1,0,0,1.948H52.319a3.051,3.051,0,0,1,3.048,3.1.744.744,0,0,1-.755.707H9.55a.743.743,0,0,1-.755-.707,3.051,3.051,0,0,1,3.048-3.1h9.528a.974.974,0,1,0,0-1.948H11.843a5,5,0,0,0-5,5.061A2.7,2.7,0,0,0,9.55,94.5H54.612a2.7,2.7,0,0,0,2.7-2.64,5,5,0,0,0-5-5.06" transform="translate(-0.95 -12.046)" fill="#fff"/>
  </g>
</svg>
