<svg id="Group_5649" data-name="Group 5649" xmlns="http://www.w3.org/2000/svg" xmlns:xlink="http://www.w3.org/1999/xlink" width="89.814" height="65.06" viewBox="0 0 89.814 65.06">
  <defs>
    <clipPath id="clip-path">
      <rect id="Rectangle_2378" data-name="Rectangle 2378" width="89.814" height="65.06" fill="#fff"/>
    </clipPath>
  </defs>
  <g id="Group_4479" data-name="Group 4479" clip-path="url(#clip-path)">
    <path id="Path_14698" data-name="Path 14698" d="M80.477,50.692h.535a6.206,6.206,0,0,0,6.07-4.61l.615-2.211H25.737a4.531,4.531,0,0,1-4.523-4.523V6.928a5.107,5.107,0,0,0-5.1-5.1H3.725A1.9,1.9,0,0,0,1.833,3.725V8.654H13.85a.914.914,0,0,1,.913.993l.17,39.6a.92.92,0,0,0,.92.913c.033,0,.066,0,.1,0l5.326.113a9.1,9.1,0,0,1,14.351.2l30.023.214a9.1,9.1,0,0,1,14.825,0M55.661,4.308h4.033V22.256H41.746V4.308h4.033v7.059a.917.917,0,0,0,.916.917h8.049a.917.917,0,0,0,.917-.917Zm-8.049,0h6.216v6.143H47.612ZM40.829,2.475H60.61a.918.918,0,0,1,.917.917V22.257H70.5a.917.917,0,0,1,.917.917V42.039H88.9v0a.914.914,0,0,1,.88,1.157l-.937,3.371a8.052,8.052,0,0,1-7.362,5.943,9.1,9.1,0,1,1-16.834,0l-27.94-.2a9.1,9.1,0,1,1-16.557-.235l-4.3-.087a2.755,2.755,0,0,1-2.747-2.739l-.166-38.765H.916A.916.916,0,0,1,0,9.57V3.725A3.73,3.73,0,0,1,3.725,0H16.119a6.94,6.94,0,0,1,6.928,6.928v32.42a2.7,2.7,0,0,0,2.69,2.69h4.285V23.173a.917.917,0,0,1,.916-.917h8.974V3.392a.918.918,0,0,1,.917-.917M65.551,24.09h4.033V42.038H51.636V24.09h4.033v7.059a.917.917,0,0,0,.917.917h8.049a.916.916,0,0,0,.916-.917Zm-8.049,0h6.216v6.143H57.5Zm-11.732,0H49.8V42.038H31.855V24.09h4.034v7.059a.917.917,0,0,0,.916.917h8.049a.916.916,0,0,0,.916-.917Zm-8.049,0h6.216v6.143H37.721ZM28.374,51.845a4.118,4.118,0,1,0,2.912,7.03,4.118,4.118,0,0,0-2.912-7.03m1.617,2.5a2.286,2.286,0,1,0,0,3.232,2.288,2.288,0,0,0,0-3.232m43.074-2.5a4.118,4.118,0,1,0,2.913,7.03,4.118,4.118,0,0,0-2.913-7.03m1.616,2.5a2.286,2.286,0,1,0,0,3.232,2.288,2.288,0,0,0,0-3.232M78.2,50.828a7.262,7.262,0,1,1-10.27,0,7.263,7.263,0,0,1,10.27,0m-44.69,0a7.262,7.262,0,1,1-10.27,0,7.263,7.263,0,0,1,10.27,0" fill="#fff" fill-rule="evenodd"/>
  </g>
</svg>
