<svg id="Group_5650" data-name="Group 5650" xmlns="http://www.w3.org/2000/svg" xmlns:xlink="http://www.w3.org/1999/xlink" width="79.279" height="88.998" viewBox="0 0 79.279 88.998">
  <defs>
    <clipPath id="clip-path">
      <rect id="Rectangle_2379" data-name="Rectangle 2379" width="79.279" height="88.998" fill="#fff"/>
    </clipPath>
  </defs>
  <g id="Group_4481" data-name="Group 4481" transform="translate(0)" clip-path="url(#clip-path)">
    <path id="Path_14699" data-name="Path 14699" d="M6.918,53.183a2.354,2.354,0,0,0,3.325.006l2.185-2.179a10.29,10.29,0,0,1,3.336,7.341l.011,1.109-2.919,2.919a4.2,4.2,0,0,0,0,5.928A4.127,4.127,0,0,0,15.6,69.512a4.457,4.457,0,0,0,.97,4.814,4.383,4.383,0,0,0,4.535,1.055A4.442,4.442,0,0,0,22.4,78.588a4.368,4.368,0,0,0,4.429,1.088c0,.048-.017.1-.017.15A4.443,4.443,0,0,0,34.4,82.97l1.714-1.714.214.2a4.5,4.5,0,0,0,6.261-.123,4.452,4.452,0,0,0,1.269-2.651l.568.569a4.379,4.379,0,0,0,7.47-3.471,4.283,4.283,0,0,0,5.087-5.259A4.917,4.917,0,0,0,61.521,62.8a6.366,6.366,0,0,0,2.409-5.87A3.556,3.556,0,0,1,65.1,53.767l2.377-2.008,1.307,1.307a2.357,2.357,0,0,0,3.272.059L78.528,47.1a2.354,2.354,0,0,0,.059-3.389L61.4,26.579a2.352,2.352,0,0,0-3.325,0l-6.233,6.234a2.35,2.35,0,0,0,0,3.33l1.472,1.468-1.275,1.323c-1.591,1.648-3.047.776-5.795.53a14.621,14.621,0,0,0-8,1.622,11.355,11.355,0,0,0-6.517-.894c-3.418.348-4.863-1.906-5.892-2.554l1.6-1.591a2.356,2.356,0,0,0-.059-3.39L20.9,26.638a2.344,2.344,0,0,0-3.266.058L.691,43.614a2.354,2.354,0,0,0,0,3.331Zm7.171,13.9a2.457,2.457,0,0,1,0-3.465l3.47-3.47a2.446,2.446,0,0,1,3.459,3.459l-3.47,3.471a2.505,2.505,0,0,1-3.459,0M21.623,73.1a2.7,2.7,0,0,1-3.813-3.813L23.2,63.895a2.7,2.7,0,1,1,3.813,3.813c-.085.085-5.478,5.484-5.393,5.393m5.832,4.268a2.7,2.7,0,0,1-3.835-3.791l3.327-3.325a2.7,2.7,0,0,1,3.791,3.834C28.388,76.425,28.388,76.425,27.456,77.368Zm7.567,2.518-1.859,1.853a2.7,2.7,0,0,1-3.834-3.792l1.9-1.9a2.7,2.7,0,0,1,3.791,3.84ZM53.081,34.917a.613.613,0,0,1-.177-.429.633.633,0,0,1,.177-.434l6.233-6.233a.615.615,0,0,1,.862,0L77.361,44.952a.621.621,0,0,1,.182.445.636.636,0,0,1-.193.434l-6.47,6.024a.6.6,0,0,1-.846-.017C53.477,35.3,54.29,36.127,53.081,34.916Zm-6.989,6.3c2.539.225,4.911,1.323,7.208-1.055l1.254-1.3c1.194,1.193-4.327-4.327,11.685,11.674l-2.26,1.906a5.292,5.292,0,0,0-1.777,4.7,4.616,4.616,0,0,1-1.874,4.4l-1.285-1.211L45.353,47.432a2.668,2.668,0,0,0-3.588-.08l-1.607,1.387a2.709,2.709,0,0,0-.83,2.752c1.05,3.878-.358,5-1.515,5.517a.694.694,0,0,1-.9-.317l-3.079-6.324a3.658,3.658,0,0,1,.792-4.3C35.29,45.627,39.113,40.6,46.092,41.214ZM31.9,41.943a12.623,12.623,0,0,1,4.52.267A26.5,26.5,0,0,0,33.431,44.8a5.392,5.392,0,0,0-1.173,6.335l3.079,6.324a2.435,2.435,0,0,0,3.181,1.152c1.853-.82,3.787-2.8,2.5-7.567a.956.956,0,0,1,.285-.97L42.9,48.685a.93.93,0,0,1,1.254.027L59.666,63.321a3.187,3.187,0,1,1-4.439,4.573l-6.909-6.909a.871.871,0,0,0-1.232,1.232l7.551,7.551A2.571,2.571,0,0,1,51,73.405L43.45,65.853a.871.871,0,0,0-1.231,1.232c.739.739-2.667-2.667,7.2,7.2a2.659,2.659,0,0,1-.006,3.749,2.714,2.714,0,0,1-3.749,0l-7.2-7.2a.871.871,0,0,0-1.232,1.231l4.124,4.124a2.771,2.771,0,0,1-3.84,4l-.375-.349a4.4,4.4,0,0,0-.883-5,4.362,4.362,0,0,0-3.224-1.29,4.392,4.392,0,0,0-3.958-5.784,4.426,4.426,0,0,0-5.617-6.083,4.143,4.143,0,0,0-1.211-2.764A4.19,4.19,0,0,0,17.5,58.11a12.056,12.056,0,0,0-3.8-8.3L24.6,38.906c1.061.653,3.085,3.465,7.294,3.036ZM1.916,44.851,18.86,27.933a.605.605,0,0,1,.428-.176.579.579,0,0,1,.413.166l6.475,6.025a.584.584,0,0,1,.193.434.614.614,0,0,1-.182.443L9,51.951a.612.612,0,0,1-.862,0L1.905,45.718a.608.608,0,0,1-.177-.428A.682.682,0,0,1,1.916,44.851Z" transform="translate(0 4.727)" fill="#fff"/>
    <path id="Path_14700" data-name="Path 14700" d="M20.353,21.105h2.056a13.811,13.811,0,0,0,1.311,3.165L22.27,25.722a1.409,1.409,0,0,0-.417,1.023,1.372,1.372,0,0,0,.417.985l3.438,3.438a1.461,1.461,0,0,0,2,0l1.462-1.451a14.593,14.593,0,0,0,3.17,1.311v2.056a1.421,1.421,0,0,0,1.413,1.425h4.869a1.418,1.418,0,0,0,1.413-1.425V31.028a14.29,14.29,0,0,0,3.17-1.311l1.457,1.457a1.42,1.42,0,0,0,2,0L50.1,27.745a1.413,1.413,0,0,0,.015-2.023L48.66,24.27a14.036,14.036,0,0,0,1.313-3.165h2.056a1.427,1.427,0,0,0,1.424-1.425l-.021-4.857a1.418,1.418,0,0,0-1.424-1.413H49.951a14.2,14.2,0,0,0-1.313-3.176l1.44-1.44A1.416,1.416,0,0,0,50.1,6.769L46.669,3.353a1.463,1.463,0,0,0-2.014-.011L43.2,4.793a14.154,14.154,0,0,0-3.176-1.322V1.414A1.413,1.413,0,0,0,38.614,0H33.746a1.413,1.413,0,0,0-1.413,1.414V3.471a14.117,14.117,0,0,0-3.17,1.317l-1.446-1.44a1.4,1.4,0,0,0-2.008-.017L22.27,6.758a1.409,1.409,0,0,0-.417,1.023,1.37,1.37,0,0,0,.417.985l1.451,1.452a13.877,13.877,0,0,0-1.311,3.175H20.353a1.421,1.421,0,0,0-1.425,1.413v4.858A1.434,1.434,0,0,0,20.353,21.105Zm.326-5.949h1.982a1.434,1.434,0,0,0,1.375-1.071,12.267,12.267,0,0,1,1.307-3.165,1.439,1.439,0,0,0-.208-1.741l-1.4-1.4L26.709,4.81l1.408,1.4a1.425,1.425,0,0,0,1.724.214A12.46,12.46,0,0,1,33,5.1a1.417,1.417,0,0,0,1.082-1.371V1.751h4.2V3.733A1.408,1.408,0,0,0,39.358,5.1a12.382,12.382,0,0,1,3.187,1.329A1.429,1.429,0,0,0,44.259,6.2l1.4-1.4,2.978,2.967L47.215,9.19a1.434,1.434,0,0,0-.2,1.719A12.291,12.291,0,0,1,48.334,14.1a1.429,1.429,0,0,0,1.371,1.05h1.982v4.2H49.7a1.434,1.434,0,0,0-1.375,1.071,12.154,12.154,0,0,1-1.313,3.165,1.424,1.424,0,0,0,.209,1.73l1.4,1.4L45.65,29.7l-1.4-1.4a1.418,1.418,0,0,0-1.729-.215A12.721,12.721,0,0,1,39.358,29.4a1.419,1.419,0,0,0-1.076,1.377v1.981h-4.2V30.778a1.416,1.416,0,0,0-1.07-1.377,12.687,12.687,0,0,1-3.166-1.307,1.4,1.4,0,0,0-1.73.209l-1.407,1.4-2.978-2.978,1.4-1.4a1.41,1.41,0,0,0,.214-1.724,12.46,12.46,0,0,1-1.317-3.192,1.424,1.424,0,0,0-1.371-1.05H20.673Z" transform="translate(3.456 0)" fill="#fff"/>
    <path id="Path_14701" data-name="Path 14701" d="M34.893,24.858a8.895,8.895,0,1,0-8.9-8.9,8.913,8.913,0,0,0,8.9,8.9m0-16.044a7.149,7.149,0,1,1-7.155,7.144,7.159,7.159,0,0,1,7.155-7.144" transform="translate(4.745 1.29)" fill="#fff"/>
  </g>
</svg>
