<svg id="Group_5651" data-name="Group 5651" xmlns="http://www.w3.org/2000/svg" xmlns:xlink="http://www.w3.org/1999/xlink" width="83.325" height="79.075" viewBox="0 0 83.325 79.075">
  <defs>
    <clipPath id="clip-path">
      <rect id="Rectangle_2380" data-name="Rectangle 2380" width="83.325" height="79.074" fill="#fff"/>
    </clipPath>
  </defs>
  <g id="Group_4483" data-name="Group 4483" clip-path="url(#clip-path)">
    <path id="Path_14702" data-name="Path 14702" d="M1.7,6.5V72.592a4.64,4.64,0,0,0,4.61,4.632l49.4.159a4.605,4.605,0,0,0,4.646-4.632V6.325a4.6,4.6,0,0,0-4.649-4.632l-49.4.174A4.634,4.634,0,0,0,1.7,6.5m43.114,6.464a3.866,3.866,0,1,1-3.868,3.868,3.87,3.87,0,0,1,3.868-3.868M46.345,15.3a2.166,2.166,0,1,1-3.7,1.535A2.165,2.165,0,0,1,46.345,15.3ZM36.993,28.049H35.087l0-16.193H54.537V28.049H52.63a7.874,7.874,0,0,0-15.637,0Zm13.929,0H38.708a6.18,6.18,0,0,1,12.215,0ZM15.981,62.434l2.739,3.313a.849.849,0,0,0,1.291.017L23.822,61.9a4.87,4.87,0,1,1-.639-1.767l-3.753,3.8-2.142-2.59a.853.853,0,0,0-1.2-.115A.864.864,0,0,0,15.981,62.434ZM24.408,58.9,25.8,57.491a.847.847,0,0,1,1.209,1.187L25.22,60.491a6.594,6.594,0,1,1-.812-1.59Zm16.5,3.535,2.739,3.313a.849.849,0,0,0,1.291.017L48.749,61.9a4.87,4.87,0,1,1-.638-1.767l-3.753,3.8-2.142-2.59a.849.849,0,1,0-1.306,1.087ZM49.335,58.9l1.393-1.409a.847.847,0,0,1,1.208,1.187l-1.788,1.813a6.594,6.594,0,1,1-.812-1.59ZM40.91,43.843l2.739,3.313a.849.849,0,0,0,1.291.018l3.808-3.861a4.869,4.869,0,1,1-.638-1.768l-3.753,3.8-2.142-2.59a.849.849,0,1,0-1.306,1.086Zm8.426-3.534,1.393-1.41a.847.847,0,0,1,1.208,1.187L50.148,41.9a6.594,6.594,0,1,1-.812-1.59ZM15.981,43.843l2.739,3.313a.849.849,0,0,0,1.291.018l3.809-3.861a4.87,4.87,0,1,1-.639-1.768l-3.753,3.8-2.142-2.59a.852.852,0,0,0-1.2-.115A.863.863,0,0,0,15.981,43.843Zm8.427-3.534L25.8,38.9a.847.847,0,0,1,1.209,1.187L25.22,41.9a6.594,6.594,0,1,1-.812-1.59ZM34.24,10.155H55.387a.852.852,0,0,1,.851.851V28.9a.852.852,0,0,1-.851.851H34.24a.852.852,0,0,1-.851-.851V11.006a.85.85,0,0,1,.851-.851M7.715,29.747a.851.851,0,0,1,0-1.7H28.084a.851.851,0,0,1,0,1.7Zm0-5.784a.851.851,0,0,1,0-1.7H28.084a.851.851,0,0,1,0,1.7Zm0-5.781a.851.851,0,0,1,0-1.7H28.084a.851.851,0,0,1,0,1.7Zm0-5.784a.851.851,0,0,1,0-1.7H28.084a.851.851,0,0,1,0,1.7ZM67.962,36.444h7.544V32.705H67.962Zm7.548,1.7H67.965V69.267H75.51Zm1.7-21.473h5.267a.852.852,0,0,1,.851.851V37.264a.85.85,0,0,1-1.5.546l-2.618-2.7a.849.849,0,0,1,1.216-1.184l1.2,1.243V18.373H77.207V70.115a.883.883,0,0,1-.208.566L72.437,77.5a.847.847,0,0,1-1.417-.014l-4.656-6.968a.852.852,0,0,1-.1-.406h0V10.694A3.271,3.271,0,0,1,69.521,7.43h4.423a3.267,3.267,0,0,1,3.26,3.26Zm-3.26-7.541H69.524a1.569,1.569,0,0,0-1.563,1.563v5.982h7.544V10.694a1.564,1.564,0,0,0-1.559-1.563M67.962,31h7.544V18.377H67.962Zm6.812,39.958H68.7l3.038,4.544ZM0,72.59V6.5A6.339,6.339,0,0,1,6.309.174L55.706,0a6.308,6.308,0,0,1,6.346,6.326V72.75a6.306,6.306,0,0,1-6.346,6.326l-49.394-.16A6.338,6.338,0,0,1,0,72.59Z" transform="translate(0 0)" fill="#fff" fill-rule="evenodd"/>
  </g>
</svg>
