<?xml version="1.0" encoding="UTF-8"?>
<svg id="Layer_1" data-name="Layer 1" xmlns="http://www.w3.org/2000/svg" viewBox="0 0 205.66 205.66" fill="white">
  <path d="m94.74,106.79c0-18.03-14.67-32.69-32.69-32.69s-32.72,14.67-32.72,32.69,14.67,32.69,32.69,32.69,32.72-14.67,32.72-32.69Zm-61.35,0c0-15.79,12.84-28.63,28.63-28.63s28.66,12.84,28.66,28.63c0,6.72-2.36,12.92-6.25,17.82-3.78-8.7-12.23-14.47-21.88-14.59-9.91-.04-18.88,5.91-22.68,14.89-4.03-4.94-6.47-11.26-6.47-18.12h0Zm9.61,21.36c2.7-8.41,10.71-14.18,19.49-14.07,8.61.12,16.11,5.65,18.84,13.82-5.1,4.68-11.87,7.54-19.3,7.54-7.29-.02-13.96-2.79-19.02-7.29h0Z"/>
  <path d="m62.03,103.54c5.16,0,9.37-4.21,9.37-9.37s-4.21-9.37-9.37-9.37-9.37,4.21-9.37,9.37,4.21,9.37,9.37,9.37Zm0-14.64c2.93,0,5.3,2.38,5.3,5.3s-2.38,5.3-5.3,5.3-5.3-2.38-5.3-5.3c.02-2.93,2.37-5.3,5.3-5.3Z"/>
  <path d="m133.73,67.64c3.74,0,6.76-3.05,6.76-6.76s-3.05-6.76-6.76-6.76-6.76,3.05-6.76,6.76,3.05,6.76,6.76,6.76Zm0-9.49c1.48,0,2.7,1.22,2.7,2.7s-1.22,2.7-2.7,2.7-2.7-1.22-2.7-2.7,1.21-2.7,2.7-2.7Z"/>
  <path d="m133.73,122.7c-8.45,0-15.81,4.83-19.42,11.89l-13.94-7.95c2.84-5.47,4.51-11.54,4.82-17.84h17.07c.91,3.74,4.29,6.54,8.31,6.54,4.73,0,8.57-3.84,8.57-8.57s-3.84-8.57-8.57-8.57c-4.02,0-7.4,2.8-8.31,6.54h-17.07c-.3-6.24-1.93-12.23-4.71-17.64l14.02-7.74c3.7,6.83,10.93,11.5,19.24,11.5,12.05,0,21.87-9.81,21.87-21.87s-9.81-21.87-21.87-21.87-21.87,9.81-21.87,21.87c0,2.29.37,4.53,1.04,6.6l-14.47,7.99c-3.35-5.26-7.84-9.79-13.23-13.21l8.33-14.55c.9.33,1.83.53,2.84.53,4.73,0,8.57-3.84,8.57-8.57s-3.84-8.57-8.57-8.57-8.57,3.84-8.57,8.57c0,2.25.9,4.31,2.33,5.83l-9.33,16.3s-.02.06-.04.1l-.06.06c-.04.06-.04.14-.06.21-.06.14-.12.29-.14.43-.02.12-.02.22-.04.35,0,.12,0,.22.02.35.02.14.06.26.1.4.04.08.08.16.12.22.08.14.16.29.29.4.02.02.02.04.04.06.04.04.08.04.1.08.1.08.18.21.3.26,12.15,6.91,19.71,19.92,19.73,33.92v.06c0,13.98-7.56,26.96-19.71,33.92-.12.06-.18.16-.29.25-.06.06-.14.1-.21.16-.12.12-.21.26-.29.43-.04.08-.08.16-.12.25-.06.14-.08.3-.1.47,0,.08-.04.16-.04.25,0,.04.02.1.02.14s.02.1.02.14c.04.25.1.51.22.71l9.41,16.44c-1.44,1.55-2.33,3.58-2.33,5.83,0,4.73,3.84,8.57,8.57,8.57s8.57-3.84,8.57-8.57-3.84-8.57-8.57-8.57c-.99,0-1.95.21-2.84.53l-8.33-14.55c5.33-3.4,9.77-7.84,13.1-13.03l14.52,8.21c-.57,1.95-.9,4.02-.9,6.16,0,12.05,9.81,21.87,21.87,21.87s21.87-9.81,21.87-21.87c0-12.05-9.82-21.87-21.89-21.87h0Zm-11.44-40.09c1.77-4.86,6.4-8.19,11.56-8.19h.16c5.1.06,9.55,3.27,11.33,8.02-3.13,2.7-7.18,4.35-11.62,4.35-4.34.02-8.35-1.56-11.44-4.18h0Zm11.44-31.4c9.81,0,17.8,7.99,17.8,17.8,0,3.78-1.2,7.27-3.19,10.16-2.76-5.26-8.15-8.7-14.26-8.79-6.25-.08-12.01,3.49-14.81,8.96-2.1-2.93-3.33-6.48-3.33-10.32,0-9.83,7.99-17.81,17.8-17.81h0Zm-37.35-7.96c2.5,0,4.51,2.03,4.51,4.51s-2.03,4.51-4.51,4.51-4.51-2.03-4.51-4.51,2.01-4.51,4.51-4.51Zm4.51,122.57c0,2.5-2.03,4.51-4.51,4.51s-4.51-2.03-4.51-4.51,2.03-4.51,4.51-4.51c2.48,0,4.51,2.01,4.51,4.51Zm29.65-63.54c2.5,0,4.51,2.03,4.51,4.51s-2.03,4.51-4.51,4.51-4.51-2.03-4.51-4.51,2.03-4.51,4.51-4.51Zm-8.25,55.9c1.77-4.86,6.4-8.19,11.56-8.19h.16c5.1.06,9.55,3.27,11.33,8.02-3.13,2.7-7.18,4.35-11.62,4.35-4.34,0-8.35-1.58-11.44-4.18h0Zm26.05-3.45c-2.76-5.26-8.15-8.7-14.26-8.79-6.24-.1-11.99,3.49-14.81,8.96-2.1-2.93-3.33-6.48-3.33-10.32,0-9.81,7.99-17.8,17.8-17.8s17.8,7.99,17.8,17.8c0,3.77-1.19,7.27-3.2,10.15h0Z"/>
  <path d="m133.73,129.65c-3.74,0-6.76,3.05-6.76,6.76s3.05,6.76,6.76,6.76,6.76-3.05,6.76-6.76c0-3.71-3.02-6.76-6.76-6.76Zm0,9.47c-1.48,0-2.7-1.22-2.7-2.7s1.22-2.7,2.7-2.7,2.7,1.22,2.7,2.7c0,1.48-1.19,2.7-2.7,2.7Z"/>
</svg>