<?xml version="1.0" encoding="UTF-8"?>
<svg id="Layer_1" data-name="Layer 1" xmlns="http://www.w3.org/2000/svg" viewBox="0 0 205.66 205.66" fill="white">
  <path d="m39.78,54.08v100.93c0,5.59,4.55,10.15,10.15,10.15h72.41c5.41,0,9.81-4.4,9.81-9.81v-3.19c1.58-.66,3.1-1.48,4.56-2.44l2.58,2.58-.7.7c-.77.77-.77,2.01,0,2.77l11.23,11.23c3.4,3.4,8.92,3.4,12.31,0,3.39-3.39,3.42-8.9,0-12.31l-11.23-11.23c-.77-.77-2.01-.77-2.77,0l-.71.71-2.59-2.59c7.27-11.04,5.86-26-3.62-35.47-2.68-2.68-5.77-4.69-9.07-6.07v-29.23s0-.02,0-.03c-.03-.2.07-.88-.55-1.52-.01-.01-.02-.03-.03-.04l-24.69-24.69c-.35-.35-1.07-.57-1.39-.57h-55.58c-5.59,0-10.15,4.55-10.15,10.15Zm119.57,103.37c1.86,1.86,1.88,4.89,0,6.76-1.86,1.86-4.89,1.86-6.76,0l-9.84-9.84,6.76-6.76,9.84,9.84Zm-19.48-10.12c.46-.4.91-.82,1.34-1.26s.85-.88,1.24-1.33l2.19,2.19-2.58,2.59-2.19-2.19Zm-1.43-4.03c-9.51,9.52-25,9.42-34.42,0-9.52-9.52-9.52-24.9,0-34.42,9.49-9.49,24.93-9.49,34.42,0,9.39,9.39,9.53,24.87,0,34.42Zm-37.19-37.19c-11.05,11.05-11.06,28.91,0,39.97,6.98,6.98,17.22,9.84,26.98,7.38v1.9c0,3.25-2.64,5.89-5.89,5.89H49.93c-3.43,0-6.22-2.79-6.22-6.22V54.08c0-3.43,2.79-6.22,6.22-6.22h53.62v22.74c0,1.08.88,1.96,1.96,1.96h22.72v26.17c-9.35-2.37-19.68.06-26.98,7.36Zm24.21-37.46h-17.99v-17.99l17.99,17.99Z"/>
  <path d="m112.99,116.1c0,2.1.82,4.01,2.12,5.46-6.39,2.47-10.95,8.66-10.95,15.91,0,1.08.88,1.96,1.96,1.96h30.2c1.08,0,1.96-.88,1.96-1.96,0-7.25-4.55-13.44-10.95-15.91,1.3-1.46,2.12-3.36,2.12-5.46,0-4.54-3.69-8.23-8.23-8.23-4.54,0-8.24,3.69-8.24,8.23Zm21.23,19.41h-25.98c.95-6.32,6.41-11.17,12.99-11.17s12.04,4.86,12.99,11.17Zm-8.68-19.41c0,2.38-1.93,4.31-4.31,4.31s-4.31-1.93-4.31-4.31,1.93-4.31,4.31-4.31c2.38,0,4.31,1.93,4.31,4.31Z"/>
  <path d="m67.93,61.48h-16.73c-1.08,0-1.96.88-1.96,1.96v16.71c0,1.08.88,1.96,1.96,1.96h16.73c1.08,0,1.96-.88,1.96-1.96v-16.71c0-1.08-.88-1.96-1.96-1.96Zm-1.96,16.71h-12.81v-12.79h12.81s0,12.79,0,12.79Z"/>
  <path d="m67.93,96.48h-16.73c-1.08,0-1.96.88-1.96,1.96v16.71c0,1.08.88,1.96,1.96,1.96h16.73c1.08,0,1.96-.88,1.96-1.96v-16.71c0-1.08-.88-1.96-1.96-1.96Zm-1.96,16.71h-12.81v-12.79h12.81s0,12.79,0,12.79Z"/>
  <path d="m67.93,131.48h-16.73c-1.08,0-1.96.88-1.96,1.96v16.71c0,1.08.88,1.96,1.96,1.96h16.73c1.08,0,1.96-.88,1.96-1.96v-16.71c0-1.08-.88-1.96-1.96-1.96Zm-1.96,16.71h-12.81v-12.79h12.81s0,12.79,0,12.79Z"/>
  <path d="m106.13,78.19h-28.07c-1.08,0-1.96.88-1.96,1.96s.88,1.96,1.96,1.96h28.07c1.08,0,1.96-.88,1.96-1.96s-.88-1.96-1.96-1.96Z"/>
  <path d="m78.05,117.12h10.47c1.08,0,1.96-.88,1.96-1.96s-.88-1.96-1.96-1.96h-10.47c-1.08,0-1.96.88-1.96,1.96s.88,1.96,1.96,1.96Z"/>
  <path d="m76.09,150.15c0,1.08.88,1.96,1.96,1.96h18.51c1.08,0,1.96-.88,1.96-1.96s-.88-1.96-1.96-1.96h-18.51c-1.08,0-1.96.88-1.96,1.96Z"/>
</svg>