<svg xmlns="http://www.w3.org/2000/svg" xmlns:xlink="http://www.w3.org/1999/xlink" width="92.55" height="92.55" viewBox="0 0 92.55 92.55">
  <defs>
    <clipPath id="clip-path">
      <path id="Path_222" data-name="Path 222" d="M0,54.529H92.55v-92.55H0Z" transform="translate(0 38.021)" fill="rgba(30,40,89,0.36)"/>
    </clipPath>
  </defs>
  <g id="Group_6242" data-name="Group 6242" transform="translate(0 38.021)">
    <g id="Group_321" data-name="Group 321" transform="translate(0 -38.021)" clip-path="url(#clip-path)">
      <g id="Group_312" data-name="Group 312" transform="translate(18.833 55.853)">
        <path id="Path_212" data-name="Path 212" d="M22.789,12.334a25.871,25.871,0,0,1-7.071-1.241c-3.7-1.073-9.111-1.032-11.28-.969a1.026,1.026,0,0,1-1.052-.966.982.982,0,0,1,.969-1.032c2.8-.085,8.06-.063,11.888,1.032,4.167,1.2,9.323,2.081,10.228-.611,1.032-3.009-4.715-6.441-6.818-7.281A13.439,13.439,0,0,0,14.54.592C11.363.57,7.744.551,3.871-3.259A10.56,10.56,0,0,0-5.936-6.331c-1.156.253-2.081.589-3.009.884a19.2,19.2,0,0,1-5.871,1.241,1.041,1.041,0,0,1-1.073-.947,1.043,1.043,0,0,1,.947-1.073A17.448,17.448,0,0,0-9.617-7.363,26.436,26.436,0,0,1-6.4-8.31,12.6,12.6,0,0,1,5.28-4.712C8.564-1.47,11.468-1.47,14.54-1.45a15.075,15.075,0,0,1,5.849.823c2.568,1.03,9.576,5.07,7.955,9.8-.421,1.222-1.514,2.758-4.418,3.072a6.094,6.094,0,0,1-1.137.085" transform="translate(15.89 8.6)" fill="rgba(30,40,89,0.36)"/>
      </g>
      <g id="Group_313" data-name="Group 313" transform="translate(18.891 53.504)">
        <path id="Path_213" data-name="Path 213" d="M16.742,21.765a8.35,8.35,0,0,1-2.736-.4c-6.419-2.274-22.9-4.041-24.768-4.231a1.017,1.017,0,0,1-.906-1.115,1.017,1.017,0,0,1,1.115-.906c1.894.19,18.6,1.979,25.233,4.335,2.166.757,6.733-.022,12.227-2.1,4.713-1.789,9.342-4.272,10.983-5.871L58.765-8.832c1.241-1.22,1.558-2.588.8-3.493-.969-1.159-3.474-1.263-6.378.8L32.272,3.436A1.01,1.01,0,1,1,31.094,1.8L52.011-13.168c4.082-2.926,7.575-2.274,9.092-.462,1.22,1.451,1.409,3.956-.947,6.229L39.28,12.9c-3.031,2.967-15.384,8.86-22.538,8.86" transform="translate(11.674 15.176)" fill="rgba(30,40,89,0.36)"/>
      </g>
      <path id="Path_214" data-name="Path 214" d="M2.02,21.612H18.877v-36.07H2.02Zm17.867,2.02H1.01A1,1,0,0,1,0,22.622v-38.09a1,1,0,0,1,1.01-1.01H19.887a1,1,0,0,1,1.01,1.01v38.09a1,1,0,0,1-1.01,1.01" transform="translate(0 68.917)" fill="rgba(30,40,89,0.36)"/>
      <g id="Group_314" data-name="Group 314" transform="translate(20.264 26.852)">
        <path id="Path_215" data-name="Path 215" d="M2.108,1.177A1.555,1.555,0,0,0,.55,2.735V18.18a1.555,1.555,0,0,0,1.558,1.558H28.181a1,1,0,0,1,.716.295l4.988,5.092V20.77a1,1,0,0,1,1.01-1.01H37.44A1.555,1.555,0,0,0,39,18.2V2.755A1.553,1.553,0,0,0,37.44,1.2ZM34.894,28.659a1,1,0,0,1-.716-.295L27.74,21.78H2.108A3.575,3.575,0,0,1-1.47,18.2V2.755A3.574,3.574,0,0,1,2.108-.821H37.44a3.574,3.574,0,0,1,3.578,3.576V18.2A3.575,3.575,0,0,1,37.44,21.78H35.9v5.871a.987.987,0,0,1-.63.925.825.825,0,0,1-.38.083" transform="translate(1.47 0.821)" fill="rgba(30,40,89,0.36)"/>
      </g>
      <g id="Group_315" data-name="Group 315" transform="translate(47.033 21.402)">
        <path id="Path_216" data-name="Path 216" d="M21.412,17.382a1,1,0,0,1-.716-.295L14.278,10.5H-.2a1,1,0,0,1-1.008-1.01A1,1,0,0,1-.2,8.48H14.721a1,1,0,0,1,.716.295l4.988,5.092v-4.4a1,1,0,0,1,1.01-1.01H23.98A1.552,1.552,0,0,0,25.536,6.9V-8.544A1.552,1.552,0,0,0,23.98-10.1H-11.352A1.553,1.553,0,0,0-12.91-8.544V-5.7a1,1,0,0,1-1.01,1.01A1,1,0,0,1-14.93-5.7V-8.544a3.574,3.574,0,0,1,3.578-3.576H23.98a3.574,3.574,0,0,1,3.576,3.576V6.923A3.574,3.574,0,0,1,23.98,10.5H22.444v5.871a.981.981,0,0,1-.633.925.968.968,0,0,1-.4.085" transform="translate(14.93 12.12)" fill="rgba(30,40,89,0.36)"/>
      </g>
      <g id="Group_316" data-name="Group 316" transform="translate(34.406 0.001)">
        <path id="Path_217" data-name="Path 217" d="M4.241,17a1.011,1.011,0,0,1-.884-.526,17.559,17.559,0,0,1-1.3-3.031h-4a1,1,0,0,1-1.01-1.01v-7.6a1,1,0,0,1,1.01-1.01h4A16.345,16.345,0,0,1,3.189,1.088L.368-1.731a1,1,0,0,1-.295-.716,1,1,0,0,1,.295-.716L5.735-8.529a1,1,0,0,1,1.431,0L9.985-5.708a16.345,16.345,0,0,1,2.736-1.137v-4a1,1,0,0,1,1.01-1.01h7.6a1.011,1.011,0,0,1,1.01,1.01v4a16.345,16.345,0,0,1,2.736,1.137l2.819-2.821a1.013,1.013,0,0,1,.716-.295,1.013,1.013,0,0,1,.716.295L34.69-3.162a1,1,0,0,1,.295.716,1,1,0,0,1-.295.716L31.871,1.088a16.345,16.345,0,0,1,1.137,2.736h4a1.009,1.009,0,0,1,1.01,1.01v5.725A1.011,1.011,0,0,1,37,11.57a1,1,0,0,1-1.01-1.01V5.844H32.251a.992.992,0,0,1-.969-.757,14.649,14.649,0,0,0-1.514-3.661A1.012,1.012,0,0,1,29.914.2l2.609-2.651L28.587-6.382,25.937-3.729a.96.96,0,0,1-1.22.146A14.248,14.248,0,0,0,21.054-5.1a1.013,1.013,0,0,1-.757-.969V-9.812H14.72v3.746a.994.994,0,0,1-.757.969A14.558,14.558,0,0,0,10.3-3.583,1.019,1.019,0,0,1,9.08-3.729L6.429-6.382,2.493-2.446,5.166.2a.992.992,0,0,1,.148,1.222A14.324,14.324,0,0,0,3.8,5.087a1.011,1.011,0,0,1-.966.757H-.915v5.577H2.831a.992.992,0,0,1,.966.757A13.7,13.7,0,0,0,5.124,15.5a1.009,1.009,0,0,1-.4,1.368A.973.973,0,0,1,4.241,17" transform="translate(2.957 11.852)" fill="rgba(30,40,89,0.36)"/>
      </g>
      <g id="Group_317" data-name="Group 317" transform="translate(36.953 30.534)">
        <path id="Path_218" data-name="Path 218" d="M2.678,7.154a1,1,0,0,1-1.01-1.01V3.091a1,1,0,0,1,1.01-1.008A2.532,2.532,0,0,0,5.2-.443,2.531,2.531,0,0,0,2.678-2.968,2.531,2.531,0,0,0,.153-.443,1,1,0,0,1-.857.567a1,1,0,0,1-1.01-1.01A4.551,4.551,0,0,1,2.678-4.988,4.551,4.551,0,0,1,7.222-.443a4.536,4.536,0,0,1-3.534,4.42V6.122a1.016,1.016,0,0,1-1.01,1.032" transform="translate(1.867 4.988)" fill="rgba(30,40,89,0.36)"/>
      </g>
      <g id="Group_318" data-name="Group 318" transform="translate(40.488 43.728)">
        <path id="Path_219" data-name="Path 219" d="M.6,1.19A1,1,0,0,1-.415.18,1,1,0,0,1,.6-.83a1.01,1.01,0,1,1,0,2.02" transform="translate(0.415 0.83)" fill="rgba(30,40,89,0.36)"/>
      </g>
      <g id="Group_319" data-name="Group 319" transform="translate(60.648 28.745)">
        <path id="Path_220" data-name="Path 220" d="M11.531,1.19H-7.03A1,1,0,0,1-8.04.18,1,1,0,0,1-7.03-.83H11.531A1.011,1.011,0,0,1,12.541.18a1.024,1.024,0,0,1-1.01,1.01" transform="translate(8.04 0.83)" fill="rgba(30,40,89,0.36)"/>
      </g>
      <g id="Group_320" data-name="Group 320" transform="translate(60.731 34.679)">
        <path id="Path_221" data-name="Path 221" d="M7.836,1.19H-4.454A1.011,1.011,0,0,1-5.464.18,1,1,0,0,1-4.454-.83H7.836A1.011,1.011,0,0,1,8.846.18a1.024,1.024,0,0,1-1.01,1.01" transform="translate(5.464 0.83)" fill="rgba(30,40,89,0.36)"/>
      </g>
    </g>
  </g>
</svg>
