<svg xmlns="http://www.w3.org/2000/svg" xmlns:xlink="http://www.w3.org/1999/xlink" width="72.374" height="92.55" viewBox="0 0 72.374 92.55">
  <defs>
    <clipPath id="clip-path">
      <path id="Path_211" data-name="Path 211" d="M0,52.682H72.374V-39.867H0Z" transform="translate(0 39.867)" fill="#1e2859"/>
    </clipPath>
  </defs>
  <g id="Group_6241" data-name="Group 6241" transform="translate(0 39.867)">
    <g id="Group_310" data-name="Group 310" transform="translate(0 -39.867)" clip-path="url(#clip-path)">
      <g id="Group_291" data-name="Group 291" transform="translate(0 0.001)">
        <path id="Path_192" data-name="Path 192" d="M34.082,52.681H-24.707A1.084,1.084,0,0,1-25.791,51.6V-38.784a1.083,1.083,0,0,1,1.084-1.082H37.678a1.083,1.083,0,0,1,1.084,1.082V29.334a1.084,1.084,0,0,1-2.168,0l0-67.034H-23.623V50.511h57.7a1.085,1.085,0,0,1,0,2.171Z" transform="translate(25.791 39.866)" fill="#1e2859"/>
      </g>
      <g id="Group_292" data-name="Group 292" transform="translate(5.698 85.31)">
        <path id="Path_193" data-name="Path 193" d="M25.435,1.236h-43.6A1.084,1.084,0,0,1-19.248.151,1.083,1.083,0,0,1-18.164-.93l43.6,0A1.084,1.084,0,0,1,26.52.149,1.084,1.084,0,0,1,25.435,1.236Z" transform="translate(19.248 0.935)" fill="#1e2859"/>
      </g>
      <g id="Group_293" data-name="Group 293" transform="translate(9.076 69.496)">
        <path id="Path_194" data-name="Path 194" d="M4.408,10.237h-6.66A1.084,1.084,0,0,1-3.336,9.153V-6.663A1.084,1.084,0,0,1-2.252-7.747h6.66A1.084,1.084,0,0,1,5.492-6.663V9.153a1.084,1.084,0,0,1-1.084,1.084M-1.168,8.067h4.49V-5.581h-4.49Z" transform="translate(3.336 7.747)" fill="#1e2859"/>
      </g>
      <g id="Group_294" data-name="Group 294" transform="translate(21.145 62)">
        <path id="Path_195" data-name="Path 195" d="M4.408,14.5h-6.66A1.084,1.084,0,0,1-3.336,13.42V-9.892a1.084,1.084,0,0,1,1.084-1.084h6.66A1.084,1.084,0,0,1,5.492-9.892v23.31A1.081,1.081,0,0,1,4.408,14.5m-5.574-2.171h4.49V-8.808h-4.49Z" transform="translate(3.336 10.976)" fill="#1e2859"/>
      </g>
      <g id="Group_295" data-name="Group 295" transform="translate(33.217 53.675)">
        <path id="Path_196" data-name="Path 196" d="M4.41,19.243h-6.66a1.084,1.084,0,0,1-1.084-1.084l0-31.639a1.083,1.083,0,0,1,1.082-1.082h6.66A1.083,1.083,0,0,1,5.489-13.48V18.157A1.077,1.077,0,0,1,4.41,19.243m-5.576-2.171h4.49V-12.391h-4.49Z" transform="translate(3.337 14.562)" fill="#1e2859"/>
      </g>
      <g id="Group_296" data-name="Group 296" transform="translate(45.29 46.808)">
        <path id="Path_197" data-name="Path 197" d="M2.9,23.152H-1.109a1.084,1.084,0,0,1-1.084-1.084v-38.5A1.084,1.084,0,0,1-1.109-17.52h6.66a1.083,1.083,0,0,1,1.082,1.084v23a1.083,1.083,0,1,1-2.166,0V-15.352H-.022V20.981H2.9a1.085,1.085,0,0,1,0,2.171Z" transform="translate(2.193 17.52)" fill="#1e2859"/>
      </g>
      <g id="Group_297" data-name="Group 297" transform="translate(12.879 6.627)">
        <path id="Path_198" data-name="Path 198" d="M21.467,5.5h-36.63a1.083,1.083,0,0,1-1.082-1.084V-3.078A1.083,1.083,0,0,1-15.163-4.16h36.63a1.083,1.083,0,0,1,1.084,1.082V4.413A1.084,1.084,0,0,1,21.467,5.5M-14.079,3.331H20.383V-1.994H-14.079Z" transform="translate(16.245 4.16)" fill="#1e2859"/>
      </g>
      <g id="Group_298" data-name="Group 298" transform="translate(16.621 20.996)">
        <path id="Path_199" data-name="Path 199" d="M17.2,1.233H-11.935A1.085,1.085,0,0,1-13.019.149,1.085,1.085,0,0,1-11.935-.933H17.2a1.083,1.083,0,1,1,0,2.166" transform="translate(13.019 0.933)" fill="#1e2859"/>
      </g>
      <g id="Group_299" data-name="Group 299" transform="translate(16.621 26.405)">
        <path id="Path_200" data-name="Path 200" d="M17.2,1.233H-11.935A1.085,1.085,0,0,1-13.019.149,1.085,1.085,0,0,1-11.935-.933H17.2a1.083,1.083,0,1,1,0,2.166" transform="translate(13.019 0.933)" fill="#1e2859"/>
      </g>
      <g id="Group_300" data-name="Group 300" transform="translate(16.621 31.82)">
        <path id="Path_201" data-name="Path 201" d="M17.2,1.233H-11.935A1.085,1.085,0,0,1-13.019.149,1.085,1.085,0,0,1-11.935-.933H17.2A1.083,1.083,0,0,1,18.288.149,1.087,1.087,0,0,1,17.2,1.233" transform="translate(13.019 0.933)" fill="#1e2859"/>
      </g>
      <g id="Group_301" data-name="Group 301" transform="translate(16.621 37.229)">
        <path id="Path_202" data-name="Path 202" d="M17.2,1.233H-11.935A1.085,1.085,0,0,1-13.019.149,1.085,1.085,0,0,1-11.935-.933H17.2a1.083,1.083,0,1,1,0,2.166" transform="translate(13.019 0.933)" fill="#1e2859"/>
      </g>
      <g id="Group_302" data-name="Group 302" transform="translate(6.415 23.958)">
        <path id="Path_203" data-name="Path 203" d="M2.036,7.209A3.659,3.659,0,0,1,.145,6.68,3.624,3.624,0,0,1-1.3,5.057,1.041,1.041,0,0,1-.786,3.678,1.041,1.041,0,0,1,.593,4.2a1.6,1.6,0,0,0,1.836.884,1.567,1.567,0,0,0,.982-.727,1.591,1.591,0,0,0-.543-2.189,1.6,1.6,0,0,0-.9-.253.794.794,0,0,1-.149,0A3.659,3.659,0,0,1,.237,1.373,3.687,3.687,0,0,1-1.016-3.676,3.684,3.684,0,0,1,4.033-4.93a3.63,3.63,0,0,1,1.2,1.168,1.038,1.038,0,0,1-.318,1.437,1.038,1.038,0,0,1-1.437-.318,1.579,1.579,0,0,0-.522-.506A1.6,1.6,0,0,0,.767-2.6,1.6,1.6,0,0,0,1.31-.415a1.623,1.623,0,0,0,.622.241,3.652,3.652,0,0,1,2,.548A3.675,3.675,0,0,1,5.189,5.424,3.655,3.655,0,0,1,2.926,7.1,3.483,3.483,0,0,1,2.036,7.209Z" transform="translate(1.541 5.455)" fill="#1e2859"/>
      </g>
      <g id="Group_303" data-name="Group 303" transform="translate(9.007 34.541)">
        <path id="Path_204" data-name="Path 204" d="M.592,2.465a1.04,1.04,0,0,1-1.04-1.04V-.825a1.038,1.038,0,0,1,1.04-1.04,1.038,1.038,0,0,1,1.04,1.04V1.425a1.04,1.04,0,0,1-1.04,1.04" transform="translate(0.448 1.865)" fill="#1e2859"/>
      </g>
      <g id="Group_304" data-name="Group 304" transform="translate(9.007 21.033)">
        <path id="Path_205" data-name="Path 205" d="M.592,2.848a1.04,1.04,0,0,1-1.04-1.04v-2.92A1.04,1.04,0,0,1,.592-2.155a1.04,1.04,0,0,1,1.04,1.042v2.92a1.04,1.04,0,0,1-1.04,1.04" transform="translate(0.448 2.155)" fill="#1e2859"/>
      </g>
      <g id="Group_305" data-name="Group 305" transform="translate(8.587 45.231)">
        <path id="Path_206" data-name="Path 206" d="M11.847,1.185H-7.925A1.041,1.041,0,0,1-8.965.145,1.042,1.042,0,0,1-7.925-.9H11.847A1.04,1.04,0,0,1,12.887.145a1.04,1.04,0,0,1-1.04,1.04" transform="translate(8.965 0.897)" fill="#1e2859"/>
      </g>
      <g id="Group_306" data-name="Group 306" transform="translate(11.919 49.557)">
        <path id="Path_207" data-name="Path 207" d="M8.056,1.185H-5.056A1.041,1.041,0,0,1-6.1.145,1.042,1.042,0,0,1-5.056-.9H8.056A1.04,1.04,0,0,1,9.1.145a1.04,1.04,0,0,1-1.04,1.04" transform="translate(6.096 0.897)" fill="#1e2859"/>
      </g>
      <g id="Group_307" data-name="Group 307" transform="translate(14.101 53.879)">
        <path id="Path_208" data-name="Path 208" d="M5.569,1.185H-3.174A1.041,1.041,0,0,1-4.214.145,1.042,1.042,0,0,1-3.174-.9H5.569A1.04,1.04,0,0,1,6.609.145a1.04,1.04,0,0,1-1.04,1.04" transform="translate(4.214 0.897)" fill="#1e2859"/>
      </g>
      <g id="Group_308" data-name="Group 308" transform="translate(47.363 67.54)">
        <path id="Path_209" data-name="Path 209" d="M7.119,14.236A12.521,12.521,0,0,1-5.387,1.73a12.506,12.506,0,0,1,25.011,0A12.52,12.52,0,0,1,7.119,14.236m0-22.843A10.348,10.348,0,0,0-3.216,1.728a10.335,10.335,0,1,0,20.67,0A10.344,10.344,0,0,0,7.119-8.607" transform="translate(5.387 10.773)" fill="#1e2859"/>
      </g>
      <g id="Group_309" data-name="Group 309" transform="translate(51.848 76.026)">
        <path id="Path_210" data-name="Path 210" d="M1.73,4.573a1.154,1.154,0,0,1-.376-.065,1.084,1.084,0,0,1-.622-.592L-1.221-.643A1.085,1.085,0,0,1-.65-2.069,1.084,1.084,0,0,1,.773-1.5l1.5,3.508,10.9-5.36a1.088,1.088,0,0,1,1.453.494A1.086,1.086,0,0,1,14.133-1.4L2.213,4.459A1.1,1.1,0,0,1,1.73,4.573Z" transform="translate(1.309 3.461)" fill="#1e2859"/>
      </g>
    </g>
  </g>
</svg>
