<svg xmlns="http://www.w3.org/2000/svg" xmlns:xlink="http://www.w3.org/1999/xlink" width="1920" height="1098.302" viewBox="0 0 1920 1098.302">
  <defs>
    <linearGradient id="linear-gradient" x1="0.5" x2="0.5" y2="1" gradientUnits="objectBoundingBox">
      <stop offset="0" stop-color="#1b5632"/>
      <stop offset="1" stop-color="#00205c"/>
    </linearGradient>
  </defs>
  <path id="Union_32" data-name="Union 32" d="M0,1098.3V427.935c3.5-4.5,7.081-9.021,10.648-13.434,15.419-19.078,31.942-37.931,49.111-56.035,17.118-18.05,35.321-35.82,54.1-52.817,18.743-16.961,38.533-33.575,58.818-49.379s41.567-31.183,63.261-45.721c21.73-14.559,44.417-28.637,67.429-41.842,23.077-13.24,47.074-25.939,71.324-37.743,24.353-11.854,49.568-23.1,74.945-33.425,25.534-10.389,51.875-20.108,78.291-28.886,26.627-8.848,54-16.966,81.365-24.128C722.164,14.981,840.159,0,960,0s237.837,14.981,350.706,44.524c27.364,7.163,54.739,15.281,81.365,24.128,26.428,8.783,52.77,18.5,78.291,28.886,25.382,10.328,50.6,21.574,74.945,33.425,24.246,11.8,48.243,24.5,71.323,37.743,23,13.195,45.685,27.273,67.43,41.842,21.695,14.538,42.979,29.921,63.26,45.721s40.063,32.406,58.819,49.379,36.967,34.75,54.1,52.817c17.169,18.1,33.693,36.957,49.111,56.035,3.561,4.407,7.144,8.927,10.647,13.433V1092.42h0v5.881Z" fill="url(#linear-gradient)"/>
</svg>
