<svg xmlns="http://www.w3.org/2000/svg" xmlns:xlink="http://www.w3.org/1999/xlink" width="44.892" height="44.892" viewBox="0 0 44.892 44.892">
  <defs>
    <clipPath id="clip-path">
      <rect id="Rectangle_25" data-name="Rectangle 25" width="44.892" height="44.892" fill="#fff"/>
    </clipPath>
  </defs>
  <g id="Group_4588" data-name="Group 4588" transform="translate(44.892 44.892) rotate(180)">
    <g id="Group_76" data-name="Group 76" transform="translate(0 0)">
      <g id="Group_22" data-name="Group 22" transform="translate(0 0)">
        <g id="Group_20" data-name="Group 20" transform="translate(0 0)" clip-path="url(#clip-path)">
          <path id="Path_5" data-name="Path 5" d="M22.446,1.52A20.925,20.925,0,1,1,1.522,22.446,20.949,20.949,0,0,1,22.446,1.52m0,43.372A22.446,22.446,0,1,0,0,22.446,22.471,22.471,0,0,0,22.446,44.892" transform="translate(0 -0.001)" fill="#fff"/>
          <path id="Path_6" data-name="Path 6" d="M9.917,20.116l1.489-1.494L2.964,10.214l8.457-8.749L9.9,0,0,10.24Z" transform="translate(16.474 12.266)" fill="#fff"/>
        </g>
      </g>
    </g>
  </g>
</svg>
