<svg xmlns="http://www.w3.org/2000/svg" xmlns:xlink="http://www.w3.org/1999/xlink" width="47.717" height="55.111" viewBox="0 0 47.717 55.111">
  <defs>
    <clipPath id="clip-path">
      <rect id="Rectangle_87" data-name="Rectangle 87" width="47.717" height="55.111" fill="none"/>
    </clipPath>
  </defs>
  <g id="Group_5657" data-name="Group 5657" transform="translate(0 0)">
    <g id="Group_67" data-name="Group 67" transform="translate(0 0)" clip-path="url(#clip-path)">
      <path id="Path_8" data-name="Path 8" d="M26.665,20.8a1.763,1.763,0,0,0-1.279-.5H13.8a1.778,1.778,0,0,0,0,3.553h7.39L.515,44.537a1.465,1.465,0,0,0-.5.995,1.827,1.827,0,0,0,.5,1.492,28.147,28.147,0,0,0,26.434,7.248C44.43,49.8,53.1,29.259,44.145,13.626c-9.1-15.7-30.7-18.12-43.559-5.756-1.634,1.563.853,4.121,2.487,2.487A24.4,24.4,0,0,1,29.649,5.241a24.155,24.155,0,0,1,0,44.341A24.32,24.32,0,0,1,4.424,45.674L23.68,26.417v7.39a1.778,1.778,0,0,0,3.553,0v-11.8a1.518,1.518,0,0,0-.568-1.208" transform="translate(0 0)"/>
    </g>
  </g>
</svg>
