<?xml version="1.0" encoding="UTF-8"?>
<svg id="Layer_1" data-name="Layer 1" xmlns="http://www.w3.org/2000/svg" viewBox="0 0 205.66 205.66" fill="white">
  <path d="m157.87,98.26c-.98-27.37-23.06-49.46-50.44-50.39-.02-2.42-3.55-2.43-3.6-.05-12.07.46-23.64,5.04-32.75,13.06-.75.66-.82,1.8-.16,2.54.66.75,1.8.82,2.54.16,8.45-7.44,19.18-11.66,30.37-12.08v12.59c-2.97.15-5.87.63-8.64,1.49-.95.29-1.48,1.3-1.19,2.25.29.95,1.3,1.49,2.25,1.19,2.43-.75,4.97-1.19,7.57-1.33v10.86c-2.2.19-11.37,1.82-9.56,5.17.49.86,1.59,1.16,2.46.67,2.21-1.26,4.6-2,7.1-2.24v3.61c-2.45,0-11.62,4.04-8.71,7.16.74.66,1.88.6,2.54-.14,6.41-7.3,18.9-2.46,18.78,7.27,0,5.96-4.85,10.81-10.81,10.81-7.3.14-12.76-7.59-10.18-14.4.35-.93-.13-1.97-1.06-2.31-2.42-.75-2.78,2.4-3.04,4.1h-3.66c-.03-2.37-3.53-2.36-3.58,0h-10.87c-.04-2.33-3.43-2.37-3.59-.05,0,.05-12.59.05-12.59.05.27-7.24,2.14-14.38,5.48-20.74.46-.88.12-1.97-.75-2.43-.88-.46-1.97-.12-2.43.76-3.62,6.88-5.63,14.6-5.9,22.42-2.43.02-2.44,3.55-.05,3.6.98,27.37,23.06,49.46,50.44,50.39.02,2.42,3.55,2.43,3.6.05,5.88-.24,11.62-1.4,17.08-3.53.93-.36,1.39-1.4,1.03-2.33-.36-.93-1.41-1.38-2.33-1.03-5.05,1.96-10.35,3.04-15.78,3.24v-12.63c6.1-.3,12-2.12,17.17-5.35.84-.53,1.1-1.64.58-2.48-.53-.85-1.64-1.1-2.48-.57-4.59,2.86-9.83,4.5-15.26,4.8v-10.84c10.48-.87,18.85-9.24,19.72-19.72h10.84c-.3,5.43-1.93,10.67-4.8,15.26-.77,1.15.16,2.79,1.53,2.75.6,0,1.19-.3,1.53-.85,3.22-5.16,5.04-11.06,5.34-17.17h12.63c-.2,5.43-1.28,10.73-3.24,15.78-.36.93.1,1.97,1.03,2.33.9.36,1.97-.09,2.33-1.03,2.12-5.47,3.29-11.2,3.48-17.08,2.41-.02,2.42-3.56.04-3.6h0Zm-54.04,50.39c-25.39-.93-45.86-21.4-46.79-46.79h12.65c.92,18.42,15.71,33.22,34.13,34.13v12.65Zm0-16.26c-16.44-.91-29.62-14.09-30.53-30.53h10.81c.87,10.48,9.24,18.85,19.72,19.72v10.81Zm0-14.41c-8.5-.85-15.27-7.62-16.12-16.12h3.64c.82,6.51,5.98,11.67,12.48,12.48v3.64Zm3.6,0v-3.64c6.51-.82,11.67-5.98,12.48-12.48h3.64c-.85,8.5-7.62,15.27-16.12,16.12Zm12.48-19.72c-.82-6.51-5.98-11.67-12.48-12.48v-3.64c8.5.85,15.27,7.62,16.12,16.12h-3.64Zm7.24,0c-.87-10.48-9.24-18.85-19.72-19.72v-10.81c16.44.91,29.62,14.09,30.53,30.53h-10.81Zm14.41,0c-.92-18.42-15.71-33.22-34.13-34.13v-12.65c25.39.93,45.86,21.4,46.79,46.79,0,0-12.65,0-12.65,0Z"/>
  <path d="m71.41,80.24c.3,9.52,14.11,9.52,14.41,0-.3-9.52-14.11-9.52-14.41,0Zm10.81,0c-.12,4.75-7.08,4.75-7.21,0,.12-4.75,7.08-4.75,7.21,0Z"/>
  <path d="m93.02,71.24c0-2.98-2.42-5.4-5.4-5.4h-3.6c-1,0-1.8.81-1.8,1.8s.81,1.8,1.8,1.8h3.6c.99,0,1.8.81,1.8,1.8v3.6c0,.99.81,1.8,1.8,1.8s1.8-.81,1.8-1.8v-3.6Z"/>
  <path d="m66,76.64c1,0,1.8-.81,1.8-1.8v-3.6c0-.99.81-1.8,1.8-1.8h3.6c1,0,1.8-.81,1.8-1.8s-.81-1.8-1.8-1.8h-3.6c-2.98,0-5.4,2.42-5.4,5.4v3.6c0,.99.81,1.8,1.8,1.8Z"/>
  <path d="m69.61,94.66h3.6c1,0,1.8-.81,1.8-1.8s-.81-1.8-1.8-1.8h-3.6c-.99,0-1.8-.81-1.8-1.8v-3.6c0-.99-.81-1.8-1.8-1.8s-1.8.81-1.8,1.8v3.6c0,2.98,2.42,5.4,5.4,5.4Z"/>
  <path d="m91.22,83.85c-1,0-1.8.81-1.8,1.8v3.6c0,.99-.81,1.8-1.8,1.8h-3.6c-1,0-1.8.81-1.8,1.8s.81,1.8,1.8,1.8h3.6c2.98,0,5.4-2.42,5.4-5.4v-3.6c0-.99-.81-1.8-1.8-1.8Z"/>
  <path d="m134.45,136.09c.3,9.52,14.11,9.52,14.41,0-.3-9.52-14.11-9.52-14.41,0Zm10.81,0c-.12,4.75-7.08,4.75-7.21,0,.12-4.75,7.08-4.75,7.21,0Z"/>
  <path d="m156.07,127.08c0-2.98-2.42-5.4-5.4-5.4h-3.6c-1,0-1.8.81-1.8,1.8s.81,1.8,1.8,1.8h3.6c.99,0,1.8.81,1.8,1.8v3.6c0,.99.81,1.8,1.8,1.8s1.8-.81,1.8-1.8v-3.6Z"/>
  <path d="m136.25,121.68h-3.6c-2.98,0-5.4,2.42-5.4,5.4v3.6c0,.99.81,1.8,1.8,1.8s1.8-.81,1.8-1.8v-3.6c0-.99.81-1.8,1.8-1.8h3.6c2.36-.04,2.37-3.56,0-3.6Z"/>
  <path d="m127.25,145.09c0,2.98,2.42,5.4,5.4,5.4h3.6c1,0,1.8-.81,1.8-1.8s-.81-1.8-1.8-1.8h-3.6c-.99,0-1.8-.81-1.8-1.8v-3.6c0-.99-.81-1.8-1.8-1.8s-1.8.81-1.8,1.8v3.6Z"/>
  <path d="m154.27,139.69c-1,0-1.8.81-1.8,1.8v3.6c0,.99-.81,1.8-1.8,1.8h-3.6c-1,0-1.8.81-1.8,1.8s.81,1.8,1.8,1.8h3.6c2.98,0,5.4-2.42,5.4-5.4v-3.6c0-.99-.81-1.8-1.8-1.8Z"/>
</svg>