<?xml version="1.0" encoding="UTF-8"?>
<svg id="Layer_1" data-name="Layer 1" xmlns="http://www.w3.org/2000/svg" viewBox="0 0 205.66 205.66" fill="white">
  <path d="m87.44,133.96c-1.47-1.63-3.06-3.3-4.6-4.91-2.96-3.1-6.01-6.3-8.42-9.45-2.18-2.85-2.27-6.46-2.36-10.28l-.02-.58c-.03-3.7-.04-7.36-.04-10.93,0-2.81-.01-5.56-.03-8.24h2.39c.79,0,1.44-.64,1.44-1.44s-.65-1.44-1.44-1.44h-24.2c-.79,0-1.44.64-1.44,1.44s.65,1.44,1.44,1.44h2.08c-.02,2.73-.02,5.53-.03,8.41,0,3.51-.02,7.11-.04,10.81.19,6.46-1.26,10.44-5.2,14.24-1.93,2.11-4.34,4.68-6.7,7.2-1.48,1.57-2.93,3.12-4.29,4.59-1.17,1.38-2.31,2.56-3.41,3.7-3.67,3.8-6.84,7.09-4.88,12.81,1.35,3.53,4.85,5.44,9.83,5.44.25,0,.5,0,.76-.01,3.02.01,7.67.01,12.99,0h29.8c1.34-.05,2.56-.03,3.75-.02,4.55.06,8.49.12,11.38-4.66.03-.06.06-.11.08-.16,2.61-5.96-.74-9.43-4.99-13.82-1.22-1.27-2.5-2.58-3.83-4.14h-.01Zm-32.4-25.2c.03-3.64.03-7.25.04-10.77,0-2.88.01-5.69.03-8.42h13.99c.02,2.68.02,5.43.03,8.24.01,3.57.02,7.24.04,10.97l.02.6c.1,4.11.21,8.36,2.95,11.95.9,1.18,1.89,2.35,2.91,3.52h-25.85c4.34-4.28,6.05-8.97,5.84-16.1h0Zm38.63,41.93c-2.02,3.29-4.45,3.26-8.83,3.19-1.17-.01-2.49-.03-3.84.02h-29.73c-5.32,0-9.96,0-13.04,0-2.92.11-6.64-.43-7.84-3.54-1.32-3.84.35-5.8,4.25-9.83,1.08-1.12,2.3-2.38,3.49-3.79,1.31-1.41,2.77-2.96,4.24-4.53,1.44-1.54,2.88-3.07,4.22-4.51.07.01.13.04.2.04h30.87c1.03,1.11,2.08,2.22,3.11,3.3,1.55,1.63,3.1,3.25,4.52,4.82,1.36,1.6,2.73,3.01,3.92,4.25,4.31,4.47,6.17,6.62,4.47,10.59h0Zm54.26-79.95c-.8,0-1.44.64-1.44,1.44v14.53h-8.92v-19.74h1.51c.8,0,1.44-.64,1.44-1.44s-.64-1.44-1.44-1.44h-16.82c-.8,0-1.44.64-1.44,1.44s.64,1.44,1.44,1.44h1.23v19.74h-7.48v-19.74h1.51c.8,0,1.44-.64,1.44-1.44s-.64-1.44-1.44-1.44h-16.82c-.8,0-1.44.64-1.44,1.44s.64,1.44,1.44,1.44h1.22v19.74h-7.48v-19.74h1.51c.8,0,1.44-.64,1.44-1.44s-.64-1.44-1.44-1.44h-16.83c-.79,0-1.44.64-1.44,1.44s.65,1.44,1.44,1.44h1.23v19.74h-.89c-.79,0-1.44.64-1.44,1.44s.65,1.44,1.44,1.44h67.04v5.04h-67.04c-.79,0-1.44.64-1.44,1.44s.65,1.44,1.44,1.44h.89v16.82c0,3.88,3.16,7.05,7.05,7.05s7.05-3.16,7.05-7.05v-16.82h7.48v16.82c0,3.88,3.16,7.05,7.05,7.05s7.05-3.16,7.05-7.05v-16.82h7.48v16.82c0,3.88,3.16,7.05,7.05,7.05s7.05-3.16,7.05-7.05v-16.82h8.92v28.76h-60.71c-.79,0-1.44.64-1.44,1.44s.65,1.44,1.44,1.44h60.71v5.04h-52.81c-.8,0-1.44.64-1.44,1.44s.64,1.44,1.44,1.44h52.81v2.31c0,.8.64,1.44,1.44,1.44s1.44-.64,1.44-1.44l-.02-67.17c0-.8-.64-1.44-1.44-1.44h0Zm-21.57-3.77h8.34v19.74h-8.34v-19.74Zm-21.57,0h8.34v19.74h-8.34v-19.74Zm-21.57,0h8.34v19.74h-8.34v-19.74Zm4.17,51.51c-2.3,0-4.17-1.87-4.17-4.17v-10.24h8.34v10.24c0,2.3-1.87,4.17-4.17,4.17h0Zm4.17-17.29h-8.34v-3.7h8.34v3.7Zm17.4,17.29c-2.3,0-4.17-1.87-4.17-4.17v-5.88h8.34v5.88c0,2.3-1.87,4.17-4.17,4.17h0Zm4.17-12.93h-8.34v-8.07h8.34v8.07Zm17.4,12.93c-2.3,0-4.17-1.87-4.17-4.17v-1.53s.03.01.05.01h8.29v1.52c0,2.3-1.87,4.17-4.17,4.17h0Zm4.17-8.57h-8.29s-.03.01-.05.01v-12.44h8.34v12.43Zm-77.68-29.43c3.17,0,5.74-2.58,5.74-5.74s-2.58-5.74-5.74-5.74-5.74,2.58-5.74,5.74,2.58,5.74,5.74,5.74Zm0-8.62c1.58,0,2.87,1.29,2.87,2.87s-1.29,2.87-2.87,2.87-2.87-1.29-2.87-2.87,1.29-2.87,2.87-2.87Zm11.49-2.87c2.38,0,4.31-1.93,4.31-4.31s-1.93-4.31-4.31-4.31-4.31,1.93-4.31,4.31,1.93,4.31,4.31,4.31Zm0-5.74c.79,0,1.44.65,1.44,1.44s-.65,1.44-1.44,1.44-1.44-.65-1.44-1.44.65-1.44,1.44-1.44Zm-11.49-12.2c0-1.19.96-2.15,2.15-2.15s2.15.96,2.15,2.15-.96,2.15-2.15,2.15-2.15-.96-2.15-2.15Z"/>
</svg>