<?xml version="1.0" encoding="UTF-8"?>
<svg id="Layer_1" data-name="Layer 1" xmlns="http://www.w3.org/2000/svg" viewBox="0 0 205.66 205.66" fill="white">
  <defs>
    <style>
      .cls-1 {
        fill-rule: evenodd;
      }
    </style>
  </defs>
  <path class="cls-1" d="m99.56,48.47l-7.5-.96c-.92-3.49-4.1-6.07-7.87-6.07-4.49,0-8.14,3.65-8.14,8.14s3.65,8.14,8.14,8.14,7.9-3.41,8.13-7.69l6.72.86c-.14.93-.21,1.89-.21,2.87,0,1.96.29,3.86.84,5.64l-16.3,6.92c-3.54-4.3-8.9-7.04-14.9-7.04-10.65,0-19.29,8.64-19.29,19.29,0,5.26,2.11,10.04,5.54,13.52.01.01.03.03.04.04,3.5,3.53,8.35,5.72,13.71,5.72.71,0,1.42-.04,2.11-.11l4.71,27.49c-4.16.98-7.8,3.32-10.43,6.51l-5.38-11.44c2.4-1.42,4-4.03,4-7.01,0-4.49-3.65-8.14-8.14-8.14s-8.14,3.65-8.14,8.14,3.65,8.14,8.14,8.14c.63,0,1.25-.07,1.84-.21l6.04,12.84c-1.75,2.9-2.76,6.3-2.76,9.94,0,5.27,2.11,10.04,5.54,13.53.01.01.02.03.04.04,3.5,3.54,8.35,5.73,13.71,5.73s10.21-2.19,13.71-5.73c.01-.01.03-.03.04-.04,3.43-3.48,5.54-8.26,5.54-13.53,0-2.56-.5-5-1.4-7.24l28.8-9.84c.78,1.28,1.7,2.46,2.75,3.53.01.01.02.03.04.04,2.16,2.19,4.84,3.86,7.84,4.81l-.7,4.62c-.36-.05-.74-.08-1.12-.08-4.49,0-8.14,3.65-8.14,8.14s3.65,8.14,8.14,8.14,8.14-3.65,8.14-8.14c0-3.24-1.89-6.03-4.63-7.35l.72-4.73c1.12.2,2.27.31,3.45.31,5.36,0,10.21-2.19,13.71-5.72.01-.01.03-.03.04-.04,3.43-3.48,5.54-8.26,5.54-13.52,0-10.65-8.64-19.29-19.29-19.29-6.27,0-11.84,3-15.37,7.64l-3.21-33.27c2.85-.98,5.39-2.6,7.47-4.69.01-.01.03-.03.04-.04,3.11-3.16,5.14-7.39,5.49-12.09l5.49-.07c.65,3.85,4,6.78,8.03,6.78,4.49,0,8.14-3.65,8.14-8.14s-3.65-8.14-8.14-8.14c-4.12,0-7.52,3.06-8.07,7.02l-5.43.07c-.54-10.16-8.96-18.25-19.26-18.25-8.81,0-16.25,5.92-18.55,13.99Zm-23.52,98.52c-3.31,1.52-6.03,4.94-7.7,9.37,3,2.77,7.01,4.47,11.41,4.47s8.41-1.7,11.41-4.47c-1.67-4.43-4.4-7.85-7.71-9.37-1.13.5-2.39.77-3.71.77s-2.57-.28-3.71-.77Zm16.98,7.35c2.22-2.85,3.55-6.43,3.55-10.32,0-9.28-7.53-16.81-16.81-16.81s-16.81,7.53-16.81,16.81c0,3.89,1.32,7.47,3.54,10.32,1.71-3.95,4.22-7.06,7.17-8.87-1.94-1.7-3.16-4.19-3.16-6.96,0-5.11,4.15-9.26,9.26-9.26s9.26,4.15,9.26,9.26c0,2.77-1.22,5.27-3.16,6.96,2.95,1.81,5.46,4.92,7.17,8.87Zm43.65-11.82c-.46-.12-.93-.18-1.42-.18-3.13,0-5.67,2.54-5.67,5.67s2.54,5.67,5.67,5.67,5.67-2.54,5.67-5.67c0-2.38-1.47-4.42-3.56-5.26-.05,0-.11,0-.16-.01-.2-.03-.38-.1-.53-.21Zm-56.91-10.8c3.74,0,6.78,3.04,6.78,6.78s-3.04,6.78-6.78,6.78-6.78-3.04-6.78-6.78,3.04-6.78,6.78-6.78Zm5.13-43c-.76,1.23-1.66,2.36-2.66,3.39-.01.01-.02.03-.04.04-2.48,2.5-5.63,4.33-9.15,5.18l4.71,27.5c.66-.07,1.33-.1,2.01-.1,7.2,0,13.49,3.95,16.8,9.8l28.73-9.82c-1.05-2.38-1.63-5.01-1.63-7.77s.53-5.16,1.49-7.45l-40.25-20.77Zm61.76,31.2c-1.13.5-2.39.78-3.71.78s-2.57-.28-3.71-.78c-3.31,1.52-6.03,4.94-7.7,9.37,3,2.77,7.01,4.47,11.41,4.47s8.41-1.69,11.41-4.47c-1.67-4.43-4.4-7.85-7.71-9.37Zm9.56,7.35c2.22-2.85,3.55-6.43,3.55-10.32,0-9.28-7.53-16.81-16.81-16.81s-16.81,7.53-16.81,16.81c0,3.89,1.32,7.47,3.54,10.32,1.71-3.95,4.22-7.06,7.17-8.87-1.93-1.7-3.16-4.19-3.16-6.96,0-5.11,4.15-9.26,9.26-9.26s9.26,4.15,9.26,9.26c0,2.77-1.22,5.26-3.16,6.96,2.95,1.81,5.46,4.92,7.17,8.87Zm-100.86-19.63c3.13,0,5.67,2.54,5.67,5.67s-2.54,5.67-5.67,5.67-5.67-2.54-5.67-5.67,2.54-5.67,5.67-5.67Zm87.59-3c3.74,0,6.78,3.04,6.78,6.79s-3.04,6.78-6.78,6.78-6.78-3.04-6.78-6.78,3.04-6.79,6.78-6.79Zm-42.39-42.91l-15.69,6.66c1.85,2.96,2.91,6.45,2.91,10.19,0,2.83-.61,5.52-1.71,7.95l39.17,20.21-3.29-34.07c-1.23.25-2.51.38-3.82.38-5.36,0-10.21-2.19-13.71-5.72-.01-.01-.03-.03-.04-.04-1.58-1.61-2.88-3.48-3.82-5.56Zm-35.78,19.83c-3.31,1.52-6.03,4.94-7.71,9.37,3,2.77,7.01,4.47,11.41,4.47s8.41-1.7,11.41-4.47c-1.67-4.43-4.4-7.85-7.7-9.37-1.14.5-2.39.77-3.71.77s-2.57-.28-3.71-.77Zm16.98,7.35c2.22-2.85,3.54-6.43,3.54-10.32,0-9.28-7.53-16.81-16.81-16.81s-16.81,7.53-16.81,16.81c0,3.89,1.32,7.47,3.55,10.32,1.71-3.95,4.22-7.06,7.17-8.87-1.94-1.7-3.16-4.19-3.16-6.96,0-5.11,4.15-9.26,9.26-9.26s9.26,4.15,9.26,9.26c0,2.77-1.22,5.27-3.16,6.96,2.94,1.81,5.46,4.92,7.17,8.87Zm-13.27-22.62c3.74,0,6.78,3.04,6.78,6.78s-3.04,6.78-6.78,6.78-6.78-3.04-6.78-6.78,3.04-6.78,6.78-6.78Zm53.35-9.55c-1.13.5-2.39.78-3.71.78s-2.57-.28-3.71-.78c-3.31,1.52-6.03,4.94-7.7,9.37,3,2.77,7.01,4.47,11.41,4.47s8.42-1.69,11.41-4.47c-1.67-4.43-4.4-7.85-7.71-9.37Zm9.56,7.35c2.22-2.85,3.55-6.43,3.55-10.32,0-9.28-7.53-16.81-16.81-16.81s-16.81,7.53-16.81,16.81c0,3.89,1.32,7.47,3.55,10.32,1.71-3.95,4.22-7.06,7.16-8.87-1.94-1.7-3.16-4.19-3.16-6.96,0-5.11,4.15-9.26,9.26-9.26s9.26,4.15,9.26,9.26c0,2.77-1.22,5.26-3.16,6.96,2.95,1.81,5.46,4.92,7.17,8.87Zm19.49-15.98c3.13,0,5.66,2.54,5.66,5.67s-2.54,5.66-5.66,5.66-5.67-2.54-5.67-5.66,2.54-5.67,5.67-5.67Zm-66.69-4.19c3.13,0,5.67,2.54,5.67,5.67s-2.54,5.67-5.67,5.67-5.67-2.54-5.67-5.67,2.54-5.67,5.67-5.67Zm33.93-2.45c3.75,0,6.79,3.04,6.79,6.79s-3.04,6.78-6.79,6.78-6.78-3.04-6.78-6.78,3.04-6.79,6.78-6.79Z"/>
</svg>