<?xml version="1.0" encoding="UTF-8"?>
<svg id="Layer_1" data-name="Layer 1" xmlns="http://www.w3.org/2000/svg" viewBox="0 0 205.66 205.66" fill="white">
  <path d="m85,42.77c.05-.4.27-.77.6-1.01.33-.24.74-.34,1.14-.27.41.07.76.3,1,.63.23.33.32.75.24,1.15-.26,1.57-.36,3.16-.32,4.75l16.74,9.66c.7.43.93,1.34.52,2.05-.41.71-1.32.97-2.04.57l-14.93-8.61c.84,6.27,3.31,12.87,5.85,19.36,2.91-.44,5.83-.9,8.66-1.48l-6.87-3.96h0c-.72-.42-.97-1.34-.55-2.07.42-.72,1.35-.97,2.07-.55l9.71,5.6c5.06-1.09,9.82-3.27,13.94-6.4.65-.51,1.58-.41,2.11.22.52.64.45,1.57-.17,2.11-7.19,5.95-17.53,7.83-27.76,9.41,4.55,11.66,8.56,22.83,3.29,31.86-.12.2-.24.39-.36.59l-.04.09c-.04.07-.09.13-.13.19-5.99,9.29-16.72,10.56-28.11,11.58,4.34,9.46,8.22,19.32,5.17,29.85h0c-.11.39-.37.72-.72.92-.36.2-.77.25-1.16.13-.39-.11-.72-.38-.91-.73-.19-.36-.24-.78-.11-1.17,1.43-5.47,1.21-11.25-.62-16.6l-10.14-5.86c-.72-.42-.98-1.34-.56-2.07.42-.72,1.34-.97,2.07-.55l7.13,4.11c-1.01-2.61-2.17-5.19-3.35-7.75-6.76.61-13.61,1.4-19.53,4.05l15.09,8.71h0c.72.42.97,1.35.55,2.07s-1.34.97-2.07.55l-16.75-9.66c-1.8,1.09-3.44,2.41-4.9,3.92-.59.58-1.52.58-2.12.01-.59-.57-.62-1.51-.06-2.11,7.58-7.9,18.07-9.47,28.43-10.44-4.95-10.69-9.34-20.91-3.55-31.03,5.19-9.08,16.86-11.19,29.25-13.08-3.76-9.66-7.29-19.55-5.74-28.75h0Zm53.61,43.64c2.23,2.22,2.58,5.71.84,8.33-1.74,2.62-5.09,3.64-8.01,2.44-2.91-1.2-4.57-4.28-3.95-7.37.61-3.09,3.31-5.32,6.46-5.32,1.75,0,3.43.69,4.66,1.92h0Zm-1.1,4.66c0-.94-.37-1.85-1.04-2.52-.66-.67-1.57-1.04-2.52-1.04-1.18,0-2.29.59-2.94,1.58-.66.98-.78,2.23-.33,3.32.46,1.09,1.43,1.89,2.58,2.12,1.16.23,2.36-.13,3.2-.97.66-.66,1.04-1.57,1.04-2.51h.01Zm5.37-8.92h0c1.73,1.72,2.92,3.92,3.43,6.31l7.5-7.5c.17-.18.17-.46,0-.63l-1.11-1.11h0s-3.44-3.44-3.44-3.44l-4.55-4.55c-.18-.17-.46-.17-.63,0l-7.5,7.5c2.39.5,4.58,1.69,6.31,3.43h0Zm3.03,12.96h0c-.96,2.83-2.89,5.23-5.45,6.77,5.26,2.65,9.22,7.32,10.97,12.94,1.75,5.62,1.15,11.71-1.67,16.88-2.82,5.17-7.62,8.97-13.3,10.54h2.51c3.25.01,6.2,1.9,7.57,4.85,9.07-5.59,14.54-15.52,14.41-26.17-.13-10.65-5.85-20.45-15.06-25.81h.01Zm-9.57,8.35c-.3.05-.59.1-.89.15l-5.3,5.3.69.69h0c.29.28.44.67.44,1.07s-.16.8-.44,1.07l-4.51,4.5c-.29.29-.67.45-1.07.45s-.78-.16-1.07-.45l-1.8-1.79-1.18,1.18h0c-.88.88-2.08,1.37-3.32,1.37-1.24,0-2.45-.49-3.33-1.37l-5.14-5.15h0c-.88-.88-1.38-2.07-1.38-3.32s.49-2.45,1.38-3.33l1.18-1.18-1.8-1.8h0c-.59-.59-.59-1.55,0-2.15l4.51-4.5h0c.29-.28.67-.44,1.07-.44s.79.16,1.07.45l.69.69,5.3-5.3h0c.69-5.79,5.25-10.35,11.03-11.04l9.46-9.46c1.36-1.35,3.56-1.35,4.92,0l.04.04,1.18-1.18h0c1.84-1.82,4.81-1.82,6.65,0l2.36,2.37c1.83,1.84,1.83,4.81,0,6.65l-1.17,1.18.03.04c1.35,1.36,1.35,3.56,0,4.92l-9.06,9.08h0c6.9,3.83,12.22,10,15,17.39,2.77,7.4,2.83,15.53.17,22.97-2.67,7.43-7.89,13.68-14.74,17.61,0,.15.01.28.01.42v4.52h14.87c.41,0,.79.16,1.07.44s.44.67.44,1.07v11.81c0,.4-.16.79-.44,1.07-.29.28-.67.44-1.07.44h-62.54c-.84,0-1.52-.68-1.52-1.52v-11.81c0-.84.68-1.52,1.52-1.52h14.87v-4.69c-5.74-3.19-10.41-8.01-13.42-13.85h-10.26c-.41,0-.79-.16-1.07-.44-.29-.29-.44-.67-.44-1.07v-8.48c0-.84.68-1.52,1.52-1.52h30.5c.84,0,1.52.68,1.52,1.52v8.49h0c0,.39-.16.78-.44,1.06-.29.29-.67.44-1.07.44h-1.43c1.04.74,2.15,1.37,3.32,1.88,4.7,2.05,10.04,2.07,14.76.07,4.72-2,8.41-5.86,10.21-10.66,1.8-4.8,1.55-10.13-.7-14.74-2.24-4.61-6.28-8.1-11.17-9.65h0Zm-5-.04h0c-4.88-1.04-8.69-4.85-9.72-9.73l-3.34,3.34,9.73,9.74,3.33-3.34Zm12.2-12.34c0-4.57-3.23-8.51-7.71-9.4-4.49-.89-8.98,1.5-10.73,5.72s-.27,9.09,3.53,11.64c3.8,2.54,8.87,2.04,12.1-1.19,1.8-1.79,2.81-4.23,2.81-6.77h0Zm5.49-19.81l4.73,4.73,1.18-1.18h0c.65-.65.65-1.71,0-2.36l-2.37-2.36c-.31-.32-.74-.49-1.18-.49s-.87.18-1.18.49l-1.17,1.18Zm-36.3,33.52l-1.18,1.18h0c-.65.65-.65,1.71,0,2.36l5.15,5.14h0c.31.32.74.49,1.18.49h0c.44,0,.87-.17,1.18-.49l1.18-1.18-7.52-7.51Zm-.73-5.02l13.26,13.25,2.36-2.36-13.25-13.25-2.37,2.36Zm3.25,36.8h-10.7c1.24,2.11,2.73,4.06,4.43,5.82,1.85,1.9,3.93,3.56,6.21,4.91,1.32-3.05,4.33-5.04,7.66-5.05h2.08c-.99-.27-1.96-.61-2.9-1.03-2.54-1.1-4.84-2.68-6.78-4.65h0Zm4.58-8.48h-27.48v5.45h27.48v-5.45Zm19.14,17.2h-16.13c-2.93.01-5.3,2.38-5.31,5.3v6.04c0,.41-.16.79-.44,1.07-.29.28-.67.44-1.07.44h-14.86v8.77h59.5v-8.77h-14.86c-.41,0-.79-.16-1.07-.44-.29-.28-.44-.66-.44-1.07v-6.04c0-2.93-2.38-5.3-5.31-5.3h0Zm-68.14-33.25c-.38-.18-.66-.52-.79-.92-.13-.41-.08-.84.14-1.21.21-.37.57-.63.98-.72s.84,0,1.19.24l7.73,4.46c5.79-1.15,10.83-3.24,14.25-7.66l-24.86-14.37c-.36-.19-.63-.52-.73-.92-.11-.39-.06-.81.14-1.16.2-.36.54-.61.94-.71.39-.1.81-.04,1.16.18l24.98,14.43c2.31-4.48,2.07-9.78.63-15.53l-8.42-4.87c-.35-.2-.61-.53-.72-.92-.11-.39-.05-.8.15-1.15.2-.35.53-.6.92-.71s.81-.04,1.15.16l5.71,3.3c-1-3.1-2.24-6.3-3.5-9.54-7.7,1.17-15.15,2.38-20.69,5.26l15.05,8.69h0c.71.42.95,1.33.54,2.05-.41.71-1.32.97-2.05.56l-16.45-9.48c-1.69,1.23-3.1,2.81-4.15,4.62-1.33,2.3-2.11,4.89-2.27,7.55l15.87,9.16c.35.2.61.53.71.92.11.39.05.8-.14,1.15-.2.35-.54.6-.93.71-.39.1-.8.04-1.15-.16l-14.29-8.24c.61,5.83,3.4,11.9,6.31,18.14,2.41-.21,4.78-.42,7.09-.72l-4.49-2.6Z"/>
</svg>