<?xml version="1.0" encoding="UTF-8"?>
<svg id="Layer_1" data-name="Layer 1" xmlns="http://www.w3.org/2000/svg" viewBox="0 0 205.66 205.66" fill="white">
  <path d="m91.64,115.8l3.46,1.83c1.83,1.02,3.87,1.02,5.7,0l3.46-1.83,1.02-10.38c0-4.48,2.03-7.32,3.87-9.77.61-1.02,1.42-1.83,1.83-2.85,1.22-2.24,1.83-4.68,1.83-7.12,0-4.27-1.63-8.14-4.68-10.99-3.05-2.85-6.92-4.27-11.19-3.87-7.53.61-13.43,6.71-13.83,14.24-.2,2.85.61,5.49,1.83,7.93.41.81,1.22,1.83,1.83,2.64,1.83,2.44,3.87,5.29,3.87,9.77l1.02,10.38Zm6.31,6.51c-1.63,0-3.26-.41-4.68-1.22l-4.48-2.44c-.61-.41-1.02-.81-1.02-1.63l-1.02-11.6c0-3.46-1.42-5.29-3.26-7.73-.61-1.02-1.42-2.03-2.03-3.05-1.63-3.05-2.44-6.51-2.44-9.97.41-9.56,7.93-17.29,17.5-17.9,5.29-.41,10.38,1.42,14.24,5.09,3.87,3.46,5.9,8.54,5.9,13.83,0,3.05-.81,6.31-2.24,8.95-.61,1.22-1.42,2.24-2.24,3.26-1.63,2.24-3.26,4.27-3.26,7.53v.2l-.81,11.6c0,.61-.41,1.22-1.02,1.63l-4.48,2.44c-1.42.61-3.05,1.02-4.68,1.02Z"/>
  <path d="m108.32,116.41h-20.75c-1.02,0-2.03-.81-2.03-2.03,0-1.02.81-2.03,2.03-2.03h20.55c1.02,0,2.03.81,2.03,2.03,0,1.02-.81,2.03-1.83,2.03Z"/>
  <path d="m108.32,110.1h-20.75c-1.02,0-2.03-.81-2.03-2.03s.81-2.03,2.03-2.03h20.55c1.02,0,2.03.81,2.03,2.03s-.81,2.03-1.83,2.03Z"/>
  <path d="m97.95,62.83c-17.6,0-31.81,14.21-31.81,31.81s14.21,31.81,31.81,31.81,31.81-14.21,31.81-31.81-14.21-31.81-31.81-31.81Zm0,67.61c-19.7,0-35.79-16.1-35.79-35.79s16.1-35.79,35.79-35.79,35.79,16.1,35.79,35.79-16.1,35.79-35.79,35.79Z"/>
  <path d="m91.44,155.88h13.02l1.83-17.9,1.42-.41c4.88-1.02,9.56-3.05,13.83-5.7l1.22-.81,14.04,11.39,9.16-9.16-11.39-14.04.81-1.22c2.64-4.27,4.68-8.95,5.7-13.83l.41-1.42,17.9-1.83v-13.02l-17.9-1.83-.41-1.42c-1.02-4.88-3.05-9.56-5.7-13.83l-.81-1.22,11.39-14.04-9.36-8.75-14.04,11.39-1.22-.81c-4.27-2.64-8.95-4.68-13.83-5.7l-1.42-.41-1.83-17.9h-13.02l-1.83,17.9-1.42.41c-4.88,1.02-9.56,3.05-13.83,5.7l-1.22.81-13.63-11.39-9.16,9.16,11.39,14.04-.81,1.22c-2.64,4.27-4.68,8.95-5.7,13.83l-.41,1.42-17.9,1.83v13.02l17.9,1.83.41,1.42c1.02,4.88,3.05,9.56,5.7,13.83l.81,1.22-11.39,13.63,9.16,9.16,14.04-11.39,1.22.81c4.27,2.64,8.95,4.68,13.83,5.7l1.42.41,1.63,17.9Zm16.48,3.87h-20.14l-1.83-18.72c-4.48-1.22-8.54-2.85-12.41-5.09l-14.44,11.8-14.24-14.24,11.8-14.44c-2.24-3.87-4.07-8.14-5.09-12.41l-18.72-2.03v-20.14l18.72-1.83c1.22-4.48,2.85-8.54,5.09-12.41l-11.8-14.44,14.24-14.24,14.44,11.8c3.87-2.24,8.14-4.07,12.41-5.09l2.03-18.72h20.14l1.83,18.72c4.48,1.22,8.54,2.85,12.41,5.09l14.44-11.8,14.24,14.24-11.8,14.44c2.24,3.87,4.07,8.14,5.09,12.41l18.72,1.83v20.14l-18.72,1.83c-1.22,4.48-2.85,8.54-5.09,12.41l11.8,14.45-14.24,14.24-14.44-11.6c-3.87,2.24-8.14,4.07-12.41,5.09l-2.03,18.72Z"/>
</svg>