<?xml version="1.0" encoding="UTF-8"?>
<svg id="Layer_1" data-name="Layer 1" xmlns="http://www.w3.org/2000/svg" viewBox="0 0 205.66 205.66" fill="white">
  <path d="m110.31,41.34h39.52c1.07,0,1.93-.87,1.93-1.94v-3.58l11.84,11.85-11.84,11.84v-3.58c0-1.07-.87-1.94-1.93-1.94h-39.52v-12.65Zm-1.94,16.52h39.52v6.32c0,.78.47,1.49,1.2,1.79.24.1.49.15.74.15.5,0,1-.2,1.37-.57l16.52-16.51c.36-.36.57-.85.57-1.37s-.2-1.01-.57-1.37l-16.52-16.52c-.55-.55-1.39-.72-2.11-.42-.72.3-1.2,1.01-1.2,1.79v6.32h-39.52c-1.07,0-1.94.87-1.94,1.94v16.52c0,1.07.87,1.94,1.94,1.94Zm-44.3,62.67c-1.07,0-1.94.87-1.94,1.93v39.52h-12.65v-39.52c0-1.07-.87-1.93-1.93-1.93h-3.58l11.84-11.84,11.84,11.84h-3.58Zm-6.9-15.95c-.76-.76-1.98-.76-2.74,0l-16.51,16.51c-.56.55-.72,1.39-.42,2.11.3.72,1.01,1.2,1.79,1.2h6.32v39.52c0,1.07.87,1.93,1.94,1.93h16.52c1.07,0,1.93-.86,1.93-1.93v-39.52h6.32c.78,0,1.49-.47,1.79-1.2.3-.72.13-1.56-.42-2.11l-16.52-16.51Zm19.59-18.15c-1.38.78-2.86,1.39-4.39,1.82-.58.17-1.06.6-1.28,1.16l-2.02,5.22h-4.26l-2.02-5.22c-.22-.57-.69-1-1.28-1.16-1.53-.43-3.01-1.05-4.39-1.82-.53-.3-1.17-.33-1.73-.08l-5.13,2.26-3.01-3.01,2.27-5.12c.25-.56.22-1.2-.08-1.73-.78-1.39-1.39-2.87-1.82-4.4-.16-.58-.6-1.06-1.16-1.28l-5.22-2.02v-4.26l5.22-2.02c.57-.22,1-.69,1.16-1.28.43-1.53,1.04-3,1.82-4.39.3-.53.33-1.18.08-1.74l-2.27-5.13,3.01-3.01,5.13,2.26c.56.25,1.2.21,1.73-.08,1.39-.78,2.86-1.39,4.38-1.81.59-.16,1.07-.6,1.29-1.17l2.02-5.23h4.25l2.02,5.23c.22.57.7,1,1.29,1.17,1.52.42,3,1.03,4.39,1.81.53.3,1.17.33,1.73.08l5.13-2.26,3.01,3.01-2.27,5.13c-.25.56-.22,1.2.08,1.74.78,1.37,1.39,2.85,1.82,4.38.17.59.6,1.06,1.17,1.28l5.22,2.02v4.26l-5.22,2.02c-.57.22-1,.7-1.17,1.28-.43,1.53-1.05,3.01-1.82,4.39-.3.53-.33,1.18-.08,1.74l2.27,5.12-3.01,3.01-5.13-2.26c-.56-.25-1.2-.22-1.73.08h.01Zm8.67,5.86l4.89-4.89c.57-.57.72-1.42.4-2.15l-2.42-5.47c.56-1.1,1.04-2.25,1.42-3.43l5.59-2.16c.75-.29,1.24-1.01,1.24-1.81v-6.91c0-.8-.49-1.52-1.24-1.81l-5.59-2.16c-.38-1.18-.86-2.33-1.42-3.43l2.42-5.48c.32-.73.16-1.59-.4-2.15l-4.89-4.89c-.56-.56-1.42-.72-2.15-.4l-5.48,2.42c-1.11-.56-2.26-1.04-3.43-1.42l-2.16-5.59c-.29-.75-1.01-1.24-1.81-1.24h-6.91c-.8,0-1.52.49-1.81,1.24l-2.16,5.59c-1.17.38-2.32.85-3.43,1.42l-5.48-2.42c-.73-.32-1.59-.16-2.15.4l-4.89,4.89c-.56.57-.72,1.42-.4,2.15l2.43,5.48c-.56,1.11-1.04,2.26-1.42,3.43l-5.58,2.16c-.75.29-1.24,1.01-1.24,1.81v6.91c0,.8.49,1.52,1.24,1.81l5.58,2.16c.38,1.17.86,2.32,1.41,3.42l-2.42,5.48c-.32.73-.16,1.59.4,2.15l4.89,4.89c.56.56,1.42.72,2.15.4l5.48-2.42c1.1.56,2.25,1.04,3.43,1.42l2.16,5.58c.29.75,1.01,1.24,1.81,1.24h6.91c.8,0,1.52-.49,1.81-1.24l2.16-5.58c1.18-.38,2.33-.86,3.43-1.42l5.48,2.42c.73.32,1.58.16,2.15-.4h0Zm-18.49-12.57c-5.95,0-10.79-4.85-10.79-10.8s4.84-10.79,10.79-10.79,10.8,4.84,10.8,10.79-4.85,10.8-10.8,10.8Zm0-25.46c-8.09,0-14.66,6.58-14.66,14.66s6.58,14.67,14.66,14.67,14.67-6.58,14.67-14.67-6.58-14.66-14.67-14.66Zm97.48,72.06l-8.45,3.27c-.57.22-1,.69-1.16,1.28-.66,2.36-1.61,4.65-2.81,6.79-.3.53-.33,1.17-.08,1.73l3.66,8.3-5.45,5.45-8.29-3.66c-.56-.25-1.2-.22-1.73.08-2.13,1.2-4.42,2.15-6.79,2.82-.59.16-1.06.59-1.28,1.16l-3.27,8.45h-7.71l-3.27-8.45c-.22-.57-.7-1-1.29-1.16-2.37-.67-4.65-1.61-6.79-2.82-.53-.3-1.17-.33-1.73-.08l-8.3,3.66-5.45-5.45,3.67-8.3c.25-.56.21-1.2-.09-1.73-1.2-2.13-2.15-4.42-2.81-6.79-.17-.59-.6-1.06-1.17-1.28l-8.45-3.27v-7.71l8.45-3.27c.57-.22,1-.7,1.17-1.28.66-2.36,1.61-4.64,2.82-6.79.3-.53.33-1.18.08-1.73l-3.66-8.29,5.45-5.45,8.3,3.67c.56.25,1.2.21,1.73-.09,2.12-1.19,4.4-2.14,6.79-2.81.59-.17,1.06-.6,1.29-1.17l3.27-8.45h7.71l3.27,8.45c.22.57.69,1,1.28,1.16,2.37.68,4.66,1.62,6.79,2.82.53.3,1.17.33,1.73.08l8.29-3.67,5.46,5.46-3.66,8.29c-.25.56-.22,1.2.08,1.73,1.2,2.14,2.15,4.43,2.81,6.79.16.59.6,1.06,1.16,1.28l8.45,3.27v7.71h0Zm2.64-10.84l-8.81-3.41c-.63-2.01-1.44-3.97-2.42-5.84l3.82-8.64c.32-.73.16-1.59-.4-2.15l-7.33-7.33c-.57-.56-1.42-.72-2.15-.4l-8.63,3.82c-1.86-.98-3.82-1.79-5.84-2.43l-3.41-8.8c-.29-.74-1.01-1.24-1.81-1.24h-10.36c-.8,0-1.52.49-1.81,1.24l-3.4,8.81c-2.03.63-3.99,1.44-5.84,2.42l-8.64-3.82c-.73-.32-1.59-.16-2.15.4l-7.33,7.33c-.56.56-.72,1.42-.4,2.15l3.82,8.64c-.98,1.87-1.8,3.83-2.43,5.84l-8.8,3.41c-.75.29-1.24,1.01-1.24,1.81v10.36c0,.8.49,1.52,1.24,1.81l8.8,3.4c.63,2.02,1.44,3.98,2.43,5.84l-3.82,8.64c-.32.73-.16,1.59.4,2.15l7.33,7.33c.57.56,1.42.72,2.15.4l8.64-3.82c1.86.98,3.82,1.79,5.84,2.43l3.4,8.8c.29.75,1.01,1.24,1.81,1.24h10.36c.8,0,1.52-.49,1.81-1.24l3.41-8.8c2.02-.63,3.98-1.44,5.84-2.43l8.63,3.82c.73.32,1.58.16,2.15-.4l7.33-7.33c.57-.56.72-1.42.4-2.15l-3.82-8.64c.98-1.87,1.79-3.83,2.42-5.84l8.81-3.4c.75-.29,1.24-1.01,1.24-1.81v-10.36c0-.8-.49-1.52-1.24-1.81h-.01Zm-42.16,27.17c-11.13,0-20.18-9.06-20.18-20.19s9.05-20.18,20.18-20.18,20.18,9.05,20.18,20.18-9.05,20.19-20.18,20.19Zm0-44.24c-13.27,0-24.06,10.79-24.06,24.06s10.79,24.06,24.06,24.06,24.06-10.79,24.06-24.06-10.79-24.06-24.06-24.06Z"/>
</svg>