<?xml version="1.0" encoding="UTF-8"?>
<svg id="Layer_1" data-name="Layer 1" xmlns="http://www.w3.org/2000/svg" xmlns:xlink="http://www.w3.org/1999/xlink" viewBox="0 0 205.66 205.66" fill="white">
  <defs>
    <style>
      .cls-1 {
        clip-path: url(#clippath);
      }

      .cls-2 {
        clip-path: url(#clippath-1);
      }

      .cls-3 {
        clip-path: url(#clippath-4);
      }

      .cls-4 {
        clip-path: url(#clippath-3);
      }

      .cls-5 {
        clip-path: url(#clippath-2);
      }

      .cls-6 {
        clip-path: url(#clippath-7);
      }

      .cls-7 {
        clip-path: url(#clippath-8);
      }

      .cls-8 {
        clip-path: url(#clippath-6);
      }

      .cls-9 {
        clip-path: url(#clippath-5);
      }

      .cls-10 {
        clip-path: url(#clippath-9);
      }

      .cls-11 {
        clip-path: url(#clippath-14);
      }

      .cls-12 {
        clip-path: url(#clippath-13);
      }

      .cls-13 {
        clip-path: url(#clippath-12);
      }

      .cls-14 {
        clip-path: url(#clippath-10);
      }

      .cls-15 {
        clip-path: url(#clippath-15);
      }

      .cls-16 {
        clip-path: url(#clippath-16);
      }

      .cls-17 {
        clip-path: url(#clippath-11);
      }

      .cls-18 {
        isolation: isolate;
      }
    </style>
    <clipPath id="clippath">
      <path d="m123.46,63.71c-2.55-2.61-5.27-5.38-7.83-7.93,0,1.88.06,4.12,0,6.37,0,1.04.16,1.61,1.41,1.56,2.3-.06,4.59,0,6.41,0m5.34-20.82c0,2.2.05,4.31,0,6.37,0,.89.24,1.27,1.17,1.22,2.1-.04,4.26,0,6.5,0-2.62-2.57-5.06-5.01-7.63-7.58m15.21,100.64h-.15v-2.91c-.03-.53.2-1.33-.8-1.06-.71.2-2-.5-1.85,1.2.15,1.94.18,3.88.15,5.8-.03.97.35,1.06,1.18,1.09,1.15.03,1.71-.24,1.53-1.53-.12-.85-.03-1.73-.03-2.62m-6,21.13h.29c0,3.65.03,7.3-.03,10.97,0,.97.29,1.29,1.27,1.24,2.38-.09,4.77-.15,7.15-.18.88,0,1.18-.32,1.15-1.2-.15-7.21-.29-14.42-.35-21.63,0-.97-.21-1.38-1.29-1.35-2.33.09-4.68.12-7,.06-1-.03-1.21.35-1.21,1.27.06,3.62.03,7.21.03,10.83m2.94-28.84c16.16.03,29.28-12.96,29.37-29.06.09-16.1-13.14-29.43-29.22-29.46-16.13-.03-29.22,13.02-29.28,29.16-.06,16.29,12.87,29.31,29.16,29.37m-10.5-60.47c2.53-.71,4.94-1.38,7.5-1.5.82-.03.68-.65.68-1.18,0-5.86-.03-11.71.03-17.54,0-1.03-.35-1.18-1.24-1.18-2.97.06-5.94.03-8.91.03-2.3,0-3.09-.79-3.09-3.03,0-2.92-.06-5.86.03-8.77.03-1.27-.24-1.62-1.59-1.62-16.04.06-32.08.03-48.12.03-4.47,0-8.97.03-13.45-.03-.91,0-1.18.24-1.15,1.15.06,1.79.12,3.62,0,5.41-.09,1.29.27,1.71,1.65,1.68,17.07-.06,34.14-.03,51.18-.06,1.26,0,2.21.38,3.09,1.27,4.03,4.09,8.12,8.15,12.21,12.21.85.86,1.26,1.74,1.24,2.97-.06,3.35-.03,6.71-.03,10.18m-77.6-21.87c-.91-.03-1.86.03-2.77-.06-1.47-.18-1.94.27-1.94,1.86.06,31.9.03,63.8.06,95.67,0,1.39-.65,3.33.26,4.06,1,.82,2.88.27,4.39.21.15.03.29.06.44.06,23.78,0,47.55,0,71.36.03.97,0,1.09-.35,1.06-1.18-.03-5.74-.03-11.5,0-17.24,0-.88-.38-1.24-1.06-1.65-7.42-4.38-12.57-10.62-15.13-18.89-.29-.94-.71-1.24-1.71-1.24-14.71.03-29.43.03-44.17.03-.5,0-1,.03-1.47-.06-1.2-.24-2.06-1.35-1.88-2.56.18-1.26.91-2,2.24-2.09.44-.03.88,0,1.33,0,14.27,0,28.57-.03,42.85.03,1.26,0,1.53-.35,1.44-1.53-.18-2.18-.24-4.38.18-6.56.24-1.21.09-1.62-1.35-1.62-14.39.06-28.75.03-43.14.03-2.41,0-3.59-.82-3.56-2.44.06-1.56,1.15-2.26,3.56-2.26h44.44c.77,0,1.41.15,1.82-.94,2.77-7.56,7.74-13.27,14.71-17.28.62-.35.88-.73.88-1.47-.06-2.82-.06-5.65,0-8.48.03-.88-.18-1.15-1.12-1.15-3.12.06-6.24.03-9.36.03-1.41,0-2.44-.53-2.82-2,0-1.91.06-3.79,0-5.71-.06-1.82.27-3.68-.18-5.5-.41-.35-.94-.18-1.41-.18h-56.7c-.44,0-.88.03-1.33.06m77.72,92.4c0,3.71-.03,7.42-.03,11.12-.03,2.3-.79,3.09-3.06,3.09H46.81c-2.39,0-3.15-.79-3.15-3.18V51.86c0-2.39.77-3.12,3.15-3.15,2.88,0,5.74-.03,8.62.03.88.03,1.15-.18,1.15-1.12-.12-2.97-.09-5.94-.06-8.92,0-2,.85-2.85,2.82-2.85,22.66,0,45.35,0,68-.03,1,0,1.77.29,2.47,1,4.18,4.21,8.39,8.45,12.63,12.63.85.82,1.06,1.77,1.06,2.91-.03,6.62.03,13.27-.06,19.89,0,1.27.44,1.56,1.56,1.65,13.89,1.29,26.25,12.83,28.49,26.52,2.88,17.51-6.59,32.75-23.63,37.93-.82.27-1,.62-.97,1.41.06,2.39.06,4.77.06,7.18,0,.68.09,1.12.8,1.5,1.82,1,2.62,2.68,2.65,4.71.12,7.65.24,15.3.32,22.95.03,3.03-2.12,5.24-5.21,5.36-3.03.12-6.03.12-9.06.06-2.41-.06-4.62-2.15-4.68-4.56-.18-8-.29-15.98-.41-23.98-.03-1.53.47-3.03,1.8-3.83,1.44-.86,1.5-1.97,1.24-3.3,0-2,0-3.97.03-5.98,0-.56-.24-.71-.77-.79-1.38-.27-2.77-.59-4.12-.97-.65-.18-1-.26-.97.62.06,2.38.06,4.77.09,7.15"/>
    </clipPath>
    <clipPath id="clippath-1">
      <rect x="43.66" y="35.82" width="132.75" height="146"/>
    </clipPath>
    <clipPath id="clippath-2">
      <rect x="60.13" y="138.47" width="54.31" height="5.62" rx="2.81" ry="2.81"/>
    </clipPath>
    <clipPath id="clippath-3">
      <rect x="59.91" y="138.32" width="54.75" height="6"/>
    </clipPath>
    <clipPath id="clippath-4">
      <path d="m87.06,139.08h24.13c1.06,0,1.88.35,2.38,1.32.41.82.33,1.62-.2,2.33-.59.85-1.44,1.03-2.41,1.03-4.18-.03-8.39,0-12.57,0h-34.93c-1.09,0-2.03-.18-2.65-1.18-.47-.77-.47-1.59-.03-2.35.5-.88,1.29-1.2,2.33-1.18,5.94.03,11.89,0,17.83,0h6.15"/>
    </clipPath>
    <clipPath id="clippath-5">
      <rect x="60.16" y="138.82" width="54" height="5"/>
    </clipPath>
    <clipPath id="clippath-6">
      <rect x="60.13" y="81.66" width="53.69" height="4.99" rx="2.5" ry="2.5"/>
    </clipPath>
    <clipPath id="clippath-7">
      <rect x="59.91" y="81.57" width="54" height="5.25"/>
    </clipPath>
    <clipPath id="clippath-8">
      <path d="m87.09,81.76h23.69c1.97,0,3.03.82,3.03,2.32s-1.15,2.35-3.06,2.35h-47.35c-1.88,0-3-.97-2.94-2.44.06-1.35,1.06-2.24,2.68-2.24h23.98"/>
    </clipPath>
    <clipPath id="clippath-9">
      <rect x="60.16" y="81.57" width="53.75" height="5"/>
    </clipPath>
    <clipPath id="clippath-10">
      <rect x="60.13" y="124.73" width="54.31" height="4.99" rx="2.5" ry="2.5"/>
    </clipPath>
    <clipPath id="clippath-11">
      <rect x="59.91" y="124.57" width="54.75" height="5.25"/>
    </clipPath>
    <clipPath id="clippath-12">
      <path d="m87.15,124.75h23.99c1.06,0,1.88.29,2.41,1.27.47.88.35,1.68-.21,2.47-.62.82-1.47.97-2.47.97-8.3-.03-16.57,0-24.84,0h-22.8c-1.94,0-3.09-1.26-2.65-2.91.35-1.35,1.29-1.8,2.62-1.8,7.98.03,15.98,0,23.99,0"/>
    </clipPath>
    <clipPath id="clippath-13">
      <rect x="59.91" y="124.57" width="54.25" height="5"/>
    </clipPath>
    <clipPath id="clippath-14">
      <rect x="59.91" y="67.07" width="40.25" height="5.25" rx="2.62" ry="2.62"/>
    </clipPath>
    <clipPath id="clippath-15">
      <path d="m80.24,67.4h16.8c1.97,0,3.03.85,3.03,2.35-.03,1.47-1.15,2.35-3.06,2.35h-33.64c-1.94,0-3.09-1.03-2.91-2.62.15-1.32,1.09-2.09,2.68-2.09h17.1"/>
    </clipPath>
    <clipPath id="clippath-16">
      <rect x="60.16" y="67.32" width="40" height="5"/>
    </clipPath>
  </defs>
  <path d="m141.26,89.16c-9.57,0-17.36,7.79-17.36,17.36s7.79,17.35,17.36,17.35,17.35-7.79,17.35-17.35-7.78-17.36-17.35-17.36Zm0,39.39c-12.15,0-22.04-9.88-22.04-22.03s9.88-22.04,22.04-22.04,22.04,9.88,22.04,22.04-9.88,22.03-22.04,22.03Z"/>
  <g>
    <path d="m123.46,63.71c-2.55-2.61-5.27-5.38-7.83-7.93,0,1.88.06,4.12,0,6.37,0,1.04.16,1.61,1.41,1.56,2.3-.06,4.59,0,6.41,0m5.34-20.82c0,2.2.05,4.31,0,6.37,0,.89.24,1.27,1.17,1.22,2.1-.04,4.26,0,6.5,0-2.62-2.57-5.06-5.01-7.63-7.58m15.21,100.64h-.15v-2.91c-.03-.53.2-1.33-.8-1.06-.71.2-2-.5-1.85,1.2.15,1.94.18,3.88.15,5.8-.03.97.35,1.06,1.18,1.09,1.15.03,1.71-.24,1.53-1.53-.12-.85-.03-1.73-.03-2.62m-6,21.13h.29c0,3.65.03,7.3-.03,10.97,0,.97.29,1.29,1.27,1.24,2.38-.09,4.77-.15,7.15-.18.88,0,1.18-.32,1.15-1.2-.15-7.21-.29-14.42-.35-21.63,0-.97-.21-1.38-1.29-1.35-2.33.09-4.68.12-7,.06-1-.03-1.21.35-1.21,1.27.06,3.62.03,7.21.03,10.83m2.94-28.84c16.16.03,29.28-12.96,29.37-29.06.09-16.1-13.14-29.43-29.22-29.46-16.13-.03-29.22,13.02-29.28,29.16-.06,16.29,12.87,29.31,29.16,29.37m-10.5-60.47c2.53-.71,4.94-1.38,7.5-1.5.82-.03.68-.65.68-1.18,0-5.86-.03-11.71.03-17.54,0-1.03-.35-1.18-1.24-1.18-2.97.06-5.94.03-8.91.03-2.3,0-3.09-.79-3.09-3.03,0-2.92-.06-5.86.03-8.77.03-1.27-.24-1.62-1.59-1.62-16.04.06-32.08.03-48.12.03-4.47,0-8.97.03-13.45-.03-.91,0-1.18.24-1.15,1.15.06,1.79.12,3.62,0,5.41-.09,1.29.27,1.71,1.65,1.68,17.07-.06,34.14-.03,51.18-.06,1.26,0,2.21.38,3.09,1.27,4.03,4.09,8.12,8.15,12.21,12.21.85.86,1.26,1.74,1.24,2.97-.06,3.35-.03,6.71-.03,10.18m-77.6-21.87c-.91-.03-1.86.03-2.77-.06-1.47-.18-1.94.27-1.94,1.86.06,31.9.03,63.8.06,95.67,0,1.39-.65,3.33.26,4.06,1,.82,2.88.27,4.39.21.15.03.29.06.44.06,23.78,0,47.55,0,71.36.03.97,0,1.09-.35,1.06-1.18-.03-5.74-.03-11.5,0-17.24,0-.88-.38-1.24-1.06-1.65-7.42-4.38-12.57-10.62-15.13-18.89-.29-.94-.71-1.24-1.71-1.24-14.71.03-29.43.03-44.17.03-.5,0-1,.03-1.47-.06-1.2-.24-2.06-1.35-1.88-2.56.18-1.26.91-2,2.24-2.09.44-.03.88,0,1.33,0,14.27,0,28.57-.03,42.85.03,1.26,0,1.53-.35,1.44-1.53-.18-2.18-.24-4.38.18-6.56.24-1.21.09-1.62-1.35-1.62-14.39.06-28.75.03-43.14.03-2.41,0-3.59-.82-3.56-2.44.06-1.56,1.15-2.26,3.56-2.26h44.44c.77,0,1.41.15,1.82-.94,2.77-7.56,7.74-13.27,14.71-17.28.62-.35.88-.73.88-1.47-.06-2.82-.06-5.65,0-8.48.03-.88-.18-1.15-1.12-1.15-3.12.06-6.24.03-9.36.03-1.41,0-2.44-.53-2.82-2,0-1.91.06-3.79,0-5.71-.06-1.82.27-3.68-.18-5.5-.41-.35-.94-.18-1.41-.18h-56.7c-.44,0-.88.03-1.33.06m77.72,92.4c0,3.71-.03,7.42-.03,11.12-.03,2.3-.79,3.09-3.06,3.09H46.81c-2.39,0-3.15-.79-3.15-3.18V51.86c0-2.39.77-3.12,3.15-3.15,2.88,0,5.74-.03,8.62.03.88.03,1.15-.18,1.15-1.12-.12-2.97-.09-5.94-.06-8.92,0-2,.85-2.85,2.82-2.85,22.66,0,45.35,0,68-.03,1,0,1.77.29,2.47,1,4.18,4.21,8.39,8.45,12.63,12.63.85.82,1.06,1.77,1.06,2.91-.03,6.62.03,13.27-.06,19.89,0,1.27.44,1.56,1.56,1.65,13.89,1.29,26.25,12.83,28.49,26.52,2.88,17.51-6.59,32.75-23.63,37.93-.82.27-1,.62-.97,1.41.06,2.39.06,4.77.06,7.18,0,.68.09,1.12.8,1.5,1.82,1,2.62,2.68,2.65,4.71.12,7.65.24,15.3.32,22.95.03,3.03-2.12,5.24-5.21,5.36-3.03.12-6.03.12-9.06.06-2.41-.06-4.62-2.15-4.68-4.56-.18-8-.29-15.98-.41-23.98-.03-1.53.47-3.03,1.8-3.83,1.44-.86,1.5-1.97,1.24-3.3,0-2,0-3.97.03-5.98,0-.56-.24-.71-.77-.79-1.38-.27-2.77-.59-4.12-.97-.65-.18-1-.26-.97.62.06,2.38.06,4.77.09,7.15"/>
    <g class="cls-1">
      <g class="cls-18">
        <g>
          <rect x="43.66" y="35.82" width="132.75" height="146"/>
          <g class="cls-2">
            <rect x="28.91" y="21.1" width="159.81" height="175.42"/>
          </g>
        </g>
      </g>
    </g>
  </g>
  <g>
    <rect x="60.13" y="138.47" width="54.31" height="5.62" rx="2.81" ry="2.81"/>
    <g class="cls-5">
      <g class="cls-18">
        <g>
          <rect x="59.91" y="138.32" width="54.75" height="6"/>
          <g class="cls-4">
            <g>
              <path d="m87.06,139.08h24.13c1.06,0,1.88.35,2.38,1.32.41.82.33,1.62-.2,2.33-.59.85-1.44,1.03-2.41,1.03-4.18-.03-8.39,0-12.57,0h-34.93c-1.09,0-2.03-.18-2.65-1.18-.47-.77-.47-1.59-.03-2.35.5-.88,1.29-1.2,2.33-1.18,5.94.03,11.89,0,17.83,0h6.15"/>
              <g class="cls-3">
                <g class="cls-18">
                  <g>
                    <rect x="60.16" y="138.82" width="54" height="5"/>
                    <g class="cls-9">
                      <rect x="28.92" y="20.98" width="159.81" height="175.42"/>
                    </g>
                  </g>
                </g>
              </g>
            </g>
          </g>
        </g>
      </g>
    </g>
  </g>
  <g>
    <rect x="60.13" y="81.66" width="53.69" height="4.99" rx="2.5" ry="2.5"/>
    <g class="cls-8">
      <g class="cls-18">
        <g>
          <rect x="59.91" y="81.57" width="54" height="5.25"/>
          <g class="cls-6">
            <g>
              <path d="m87.09,81.76h23.69c1.97,0,3.03.82,3.03,2.32s-1.15,2.35-3.06,2.35h-47.35c-1.88,0-3-.97-2.94-2.44.06-1.35,1.06-2.24,2.68-2.24h23.98"/>
              <g class="cls-7">
                <g class="cls-18">
                  <g>
                    <rect x="60.16" y="81.57" width="53.75" height="5"/>
                    <g class="cls-10">
                      <rect x="28.91" y="21.1" width="159.81" height="175.42"/>
                    </g>
                  </g>
                </g>
              </g>
            </g>
          </g>
        </g>
      </g>
    </g>
  </g>
  <g>
    <rect x="60.13" y="124.73" width="54.31" height="4.99" rx="2.5" ry="2.5"/>
    <g class="cls-14">
      <g class="cls-18">
        <g>
          <rect x="59.91" y="124.57" width="54.75" height="5.25"/>
          <g class="cls-17">
            <g>
              <path d="m87.15,124.75h23.99c1.06,0,1.88.29,2.41,1.27.47.88.35,1.68-.21,2.47-.62.82-1.47.97-2.47.97-8.3-.03-16.57,0-24.84,0h-22.8c-1.94,0-3.09-1.26-2.65-2.91.35-1.35,1.29-1.8,2.62-1.8,7.98.03,15.98,0,23.99,0"/>
              <g class="cls-13">
                <g class="cls-18">
                  <g>
                    <rect x="59.91" y="124.57" width="54.25" height="5"/>
                    <g class="cls-12">
                      <rect x="28.91" y="21.1" width="159.81" height="175.42"/>
                    </g>
                  </g>
                </g>
              </g>
            </g>
          </g>
        </g>
      </g>
    </g>
  </g>
  <g class="cls-18">
    <g>
      <rect x="59.91" y="67.07" width="40.25" height="5.25" rx="2.62" ry="2.62"/>
      <g class="cls-11">
        <g>
          <path d="m80.24,67.4h16.8c1.97,0,3.03.85,3.03,2.35-.03,1.47-1.15,2.35-3.06,2.35h-33.64c-1.94,0-3.09-1.03-2.91-2.62.15-1.32,1.09-2.09,2.68-2.09h17.1"/>
          <g class="cls-15">
            <g class="cls-18">
              <g>
                <rect x="60.16" y="67.32" width="40" height="5"/>
                <g class="cls-16">
                  <rect x="28.91" y="21.1" width="159.81" height="175.42"/>
                </g>
              </g>
            </g>
          </g>
        </g>
      </g>
    </g>
  </g>
</svg>