<?xml version="1.0" encoding="utf-8"?>
<!-- Generator: Adobe Illustrator 27.5.0, SVG Export Plug-In . SVG Version: 6.00 Build 0)  -->
<svg version="1.1" id="Layer_1" xmlns="http://www.w3.org/2000/svg" xmlns:xlink="http://www.w3.org/1999/xlink" x="0px" y="0px"
	 viewBox="0 0 205.7 205.7" style="enable-background:new 0 0 205.7 205.7;" xml:space="preserve" fill="white">
<style type="text/css">
	.st0{fill-rule:evenodd;clip-rule:evenodd;}
</style>
<g>
	<path class="st0" d="M89.2,90 M64.2,116.8L64.2,116.8C64.3,116.8,64.3,116.7,64.2,116.8z M50.5,89.5C50.6,89.5,50.6,89.5,50.5,89.5
		c8.2-8.2,19.3-13.2,31.7-13.2c3.9,0,7.7,0.5,11.3,1.5c0,0.2-0.1,0.5-0.1,0.8c-0.2,0.9-0.3,1.7-0.4,2.3c-0.1,0.7-0.2,1.3-0.2,1.9
		c0,0.5-0.1,1-0.1,1.6l0,0.4c0,0.7,0,1.4-0.2,2.1c0,0.2-0.1,0.4-0.2,0.6l-0.2-0.2c-1-0.7,0.2,0.2-0.6-0.4c-0.9-0.7-2-1.5-3-2.2
		c-0.6-0.4-1.2-0.8-1.8-1.1c-0.6-0.3-1.1-0.5-1.6-0.7h0c-0.7-0.2-1.3-0.3-2-0.2c-0.9,0.2-1.6,0.6-2.1,1.6c-0.3,0.6-0.5,1.4-0.5,2.3
		c0,0.7,0.1,1.6,0.3,2.4c0.4,1.5,1.2,2.6,2.2,4l0.1,0.2c0.4,0.7,1,1.4,1.5,2.3c0.4,0.6,0.8,1.2,1.2,1.8c0.2,0.4,0.4,0.7,0.6,1
		c-0.4,0.3-1.4,0.7-2.2,1c-0.2,0.1-0.3,0.1-0.6,0.3c-0.8,0.3-1.4,0.6-2,1c-0.6,0.3-1.2,0.7-1.8,1.2c-0.5,0.4-1.1,0.9-1.6,1.5
		c-0.5,0.5-1,1.1-1.5,1.8c-0.5,0.7-1,1.3-1.5,2c-0.5,0.7-0.9,1.3-1.3,1.9c-0.4,0.6-0.7,1.1-1,1.6c-0.3,0.6-0.6,1.2-0.7,1.9
		c-0.2,1.1-0.1,2.3-0.1,3.2c0,0.2,0,0.2,0,0.3c0,0.2,0,0.4,0,0.5c-0.2-0.1-0.4-0.3-0.6-0.4c-0.4-0.3-0.7-0.6-1.1-0.9
		c-0.2-0.2-0.5-0.5-0.8-0.7c-0.4-0.3-0.8-0.6-1.2-0.8c-0.4-0.2-0.9-0.4-1.4-0.5c-0.5-0.1-0.9-0.2-1.4-0.2c-0.5,0-1,0.1-1.5,0.2
		c-0.5,0.1-1.1,0.3-1.7,0.7c-0.7,0.4-1.4,1-1.7,1.9c-0.3,0.7-0.3,1.5-0.1,2.3c0.2,0.7,0.5,1.5,0.8,2.2c0.3,0.6,0.7,1.2,1.1,1.7
		c0.4,0.6,0.8,1.1,1.2,1.5c0.5,0.5,1,0.8,1.5,1.1c0.2,0.1,0.4,0.3,0.6,0.4c0.3,0.2,0.7,0.5,1,0.9c0.4,0.3,0.8,0.7,1,0.9
		c0.4,0.3,0.9,0.7,1.3,1c0.2,0.2,0.4,0.3,0.7,0.5c-0.2,0-0.4,0-0.6-0.1c-0.5-0.1-1-0.3-1.5-0.6c-0.6-0.3-1.3-0.6-1.9-1l-0.1,0h0
		c-1.4-0.8-2.7-1.5-4.2-2.1c-0.7-0.3-1.5-0.6-2.2-0.8c-0.6-0.2-1.2-0.4-1.8-0.7c-0.5-0.2-0.9-0.4-1.2-0.6c-0.4-0.3-0.8-0.5-1.2-0.9
		c-0.4-0.3-0.9-0.7-1.4-1.2c-0.4-0.4-0.9-0.9-1.2-1.4c-0.3-0.5-0.6-1-0.9-1.5c-0.3-0.6-0.5-1.2-0.7-1.9c-0.3-0.8-0.5-1.6-0.8-2.4
		c-0.2-0.8-0.5-1.6-0.7-2.5c-0.2-0.9-0.4-1.8-0.6-2.5c-0.1-0.8-0.2-1.5-0.2-2c0-1,0.2-1.8,0.6-3l0.1-0.4v0c0.2-0.8,0.5-1.8,0.7-2.8
		c0.2-1.1,0.5-2.2,0.6-3.5C50.7,93.9,50.6,91.7,50.5,89.5L50.5,89.5z M113.8,132.2 M109.4,156.5c-1.1,0.8-2.2,1.6-3.4,2.4
		c-6.9,4.3-15,6.9-23.8,6.9c-12.3,0-23.5-5-31.6-13.1c-8.1-8.1-13.1-19.2-13.1-31.6c0-10.2,3.4-19.6,9.2-27.2c0,0.6,0,1.2-0.1,1.8
		c-0.1,1-0.3,2-0.5,3c-0.2,1-0.5,1.9-0.7,2.6l-0.1,0.4c-0.4,1.5-0.8,2.6-0.7,4.1c0,0.8,0.1,1.7,0.3,2.7c0.2,1,0.4,1.9,0.6,2.8
		c0.2,0.8,0.5,1.7,0.7,2.7c0.3,0.9,0.5,1.7,0.8,2.5c0.3,0.8,0.6,1.6,0.9,2.3c0.3,0.8,0.7,1.5,1.3,2.2c0.5,0.7,1.1,1.3,1.7,1.9
		c0.5,0.5,1.1,1,1.7,1.5c0.6,0.4,1.1,0.8,1.6,1.1c0.5,0.3,1.1,0.6,1.8,0.9c0.6,0.2,1.3,0.5,2,0.8c0.6,0.2,1.3,0.5,2,0.8
		c1.3,0.5,2.5,1.2,3.8,1.9v0l0.1,0c0.7,0.4,1.4,0.8,2.2,1.1c0.8,0.4,1.6,0.7,2.4,0.8c0.8,0.2,1.6,0.2,2.2,0.1
		c0.8-0.1,1.6-0.4,2.1-0.8c0.6-0.4,1-1,1.2-1.6c0.3-0.7,0.2-1.4,0-2.1c-0.2-0.5-0.5-1-0.8-1.4c-0.3-0.3-0.6-0.6-1-0.9
		c-0.2-0.2-0.5-0.4-0.9-0.6c-0.3-0.2-0.7-0.5-1.1-0.8c-0.4-0.3-0.6-0.5-0.9-0.7c-0.4-0.4-0.8-0.8-1.3-1.1c-0.3-0.3-0.6-0.4-0.8-0.6
		c-0.3-0.2-0.6-0.4-0.9-0.7c-0.2-0.2-0.5-0.5-0.8-0.9c-0.3-0.4-0.5-0.8-0.8-1.2c-0.2-0.4-0.4-0.9-0.5-1.3c0,0,0-0.1,0-0.1
		c0.2-0.1,0.4-0.2,0.7-0.2c0.3-0.1,0.4-0.1,0.6-0.1c0.1,0,0.3,0,0.4,0.1c0.2,0,0.4,0.1,0.6,0.2c0.2,0.1,0.4,0.2,0.6,0.4
		c0.1,0.1,0.3,0.3,0.6,0.5c0.4,0.4,0.9,0.8,1.5,1.3c0.5,0.4,1.2,0.8,1.8,1.1c0.7,0.3,1.3,0.5,1.9,0.5c1.1,0.1,1.8-0.4,2.3-1.1
		c0.4-0.5,0.5-1,0.6-1.6c0.1-0.4,0.1-0.7,0.1-1.2c0-0.4,0-0.8,0-1.3l0-0.3c-0.1-0.7-0.1-1.6,0-2.2c0.1-0.3,0.2-0.6,0.3-0.8
		c0.2-0.3,0.5-0.8,0.8-1.3c0.4-0.6,0.8-1.2,1.2-1.8c0.5-0.7,0.9-1.3,1.3-1.8c0.4-0.5,0.8-1,1.3-1.5c0.4-0.4,0.8-0.8,1.2-1.1
		c0.4-0.3,0.8-0.6,1.2-0.8c0.5-0.3,1-0.5,1.6-0.8l0.6-0.2c1.5-0.6,3.1-1.3,4-2.4c0.8-1,0.9-2,0.6-3.1c-0.2-0.7-0.6-1.4-1.1-2.2
		c-0.3-0.6-0.8-1.2-1.2-1.9c-0.5-0.7-1-1.5-1.6-2.3L86,90.8c-0.8-1.1-1.4-2.1-1.7-2.9c-0.1-0.4-0.2-0.8-0.2-1.1
		c0.2,0.1,0.4,0.2,0.6,0.3c0.4,0.2,0.9,0.5,1.4,0.9c0.9,0.6,1.9,1.4,2.9,2.1c0.2,0.1,0.1,0.1,0,0l0.6,0.4c0.6,0.4,1.1,0.8,1.6,1
		c0.9,0.4,1.8,0.5,2.7-0.1c0.6-0.4,1.1-1,1.4-1.7c0.3-0.6,0.5-1.3,0.7-2c0.2-1.1,0.3-2,0.3-2.9l0-0.3c0-0.4,0-0.8,0.1-1.4v0
		c0-0.5,0.1-1,0.2-1.6c0.1-0.7,0.2-1.4,0.4-2.2c0-0.1,0-0.2,0.1-0.3c2.5,0.9,4.9,2,7.1,3.3l0.4,2.3l0.5,2.6c0.1,0.7,0.2,1.3,0.3,1.7
		c0.1,0.4,0.1,0.7,0.1,1.1c0,0.4,0.1,0.8,0.1,1.1v1.3c0,1.1,0,2.4,0.5,3.7c0.2,0.7,0.6,1.4,1,2c0.4,0.6,1,1.2,1.6,1.6
		c0.4,0.3,0.8,0.6,1.2,0.8c0.5,0.3,0.9,0.6,1.2,0.9c0.2,0.2,0.3,0.6,0.4,0.9c0.1,0.5,0.2,1,0.3,1.5l0.1,0.6c0.2,1,0.3,1.9,0.6,2.7
		c0.2,0.5,0.3,0.8,0.5,1.2c0.2,0.4,0.4,0.9,0.5,1.3c0.1,0.4,0.1,0.8,0.1,1.2c0,0.4-0.1,0.9-0.2,1.4c-0.1,0.3-0.3,0.9-0.5,1.4
		c-0.3,0.9-0.6,1.8-0.9,2.9c-0.2,0.9-0.3,1.9-0.3,3c0,1,0,2,0,2.9c0,1,0,1.9,0.1,2.7c0.1,0.9,0.1,1.7,0.3,2.5
		c0.2,0.8,0.4,1.5,0.6,2.2c0.2,0.6,0.5,1.3,0.8,1.9l0.2,0.3c0-0.1-0.1-0.1,0,0c0.4,0.9,0.8,1.9,1,3.1c0.1,0.7,0.2,1.5,0.1,2.3
		c-0.1,0.7-0.2,1.5-0.5,2.3c-0.3,0.8-0.7,1.6-1.2,2.6c-0.6,1.3-1.3,2.7-1.9,4.5C110.3,149.7,109.8,153,109.4,156.5L109.4,156.5z
		 M103.7,139.7C103.7,139.7,103.7,139.7,103.7,139.7L103.7,139.7L103.7,139.7L103.7,139.7z M83.8,158.5c0.4-0.3,0.8-0.7,1.2-1.2
		c0.3-0.3,0.6-0.7,0.9-1.1c0.8-1.1,1.7-2.1,2.7-2.9c1.2-0.9,2.3-1.3,3.5-1.7c0.2-0.1,0.4-0.1,0.9-0.3c0.6-0.2,1.2-0.5,1.9-0.8
		c0.7-0.3,1.4-0.8,2.1-1.2c0.8-0.6,1.8-1.2,2.5-1.8c0.6-0.5,1.1-1,1.4-1.4c0.4-0.5,0.5-1,0.6-1.5c0.1-0.4,0.2-0.7,0.3-1.2
		c0.3-0.7,0.6-1.3,1-1.8c0.2-0.4,0.5-0.8,0.6-1.1c0.1-0.3,0.2-0.6,0.2-0.8c0,0,0,0,0,0h0c-0.1-0.1-0.3-0.2-0.7-0.3
		c-0.5-0.2-1.1-0.3-1.6-0.5v0l-0.3-0.1c-1.1-0.3-1.9-0.5-2.8-0.9c-0.5-0.3-1.1-0.6-1.5-1c-0.4-0.4-0.9-0.9-1.2-1.4
		c-0.3-0.4-0.4-0.7-0.6-1c-0.2-0.4-0.5-0.8-0.6-0.9c-0.1-0.1-0.5-0.1-1-0.2c-0.3-0.1-0.7-0.1-1.2-0.3c-0.7-0.2-1.2-0.4-1.8-0.6
		c-0.8-0.3-1.7-0.6-2.5-0.7c-0.7-0.1-1.3-0.2-1.9-0.2c-0.6,0-1.2,0.1-1.9,0.2c-0.6,0.1-1.2,0.3-1.7,0.5c-0.5,0.2-0.9,0.5-1.3,0.8
		c-0.7,0.6-1.3,1.3-1.7,2l-0.1,0.1c-0.2,0.3-0.1,0.1-0.3,0.5c-0.4,0.6-0.8,1.1-1.1,1.7v0c-0.2,0.3-0.4,0.6-0.5,1
		c-0.1,0.3-0.2,0.6-0.3,1c-0.1,0.3-0.1,0.6,0,0.9c0,0.3,0.2,0.6,0.4,1c0.2,0.4,0.6,0.8,0.9,1.2c0.5,0.6,1.1,1.1,1.7,1.5
		c0.2,0.2,0.4,0.3,0.6,0.5c0.9,0.7,1.7,1.3,2.4,2.6c0.4,0.7,0.7,1.5,1,2.4s0.4,1.8,0.4,2.7c0.1,1.4-0.2,2.5-0.4,3.6
		c0,0.1,0,0.1-0.1,0.5c-0.1,0.4-0.2,0.9-0.2,1.2c0,0.3,0,0.6,0.1,0.9C83.7,158.3,83.7,158.4,83.8,158.5L83.8,158.5z M86.1,161.6
		c0.6-0.5,1.3-1.1,1.9-1.9c0.4-0.4,0.7-0.8,1-1.2c0.7-0.9,1.4-1.7,2-2.2c0.6-0.5,1.4-0.8,2.3-1c0.4-0.1,0.8-0.3,1-0.3
		c0.7-0.3,1.5-0.6,2.3-1c0.8-0.4,1.6-0.9,2.5-1.5c1-0.6,2-1.3,2.9-2.1c0.8-0.7,1.5-1.4,2-2c0.9-1.1,1.1-2.1,1.3-2.9
		c0.1-0.3,0.1-0.5,0.2-0.7c0.1-0.3,0.4-0.7,0.6-1.1c0.3-0.5,0.6-1,0.9-1.6c0.3-0.8,0.6-1.6,0.5-2.5c0-0.9-0.3-1.7-0.9-2.5
		c-0.6-0.6-1.3-1.1-2.2-1.4c-0.6-0.3-1.4-0.4-2-0.6v0l-0.3-0.1c-0.9-0.2-1.6-0.4-2-0.6c-0.3-0.1-0.5-0.3-0.7-0.5
		c-0.2-0.2-0.4-0.4-0.6-0.6c-0.1-0.1-0.3-0.4-0.4-0.7c-0.4-0.8-0.8-1.5-1.6-2.1c-0.8-0.6-1.6-0.8-2.6-1c-0.3-0.1-0.7-0.1-1-0.2
		c-0.4-0.1-0.9-0.3-1.6-0.5c-0.9-0.3-1.8-0.6-2.9-0.8c-0.9-0.2-1.8-0.3-2.7-0.3c-0.9,0-1.8,0.1-2.7,0.2c-0.8,0.2-1.7,0.4-2.5,0.8
		c-0.8,0.3-1.5,0.8-2.1,1.2c-1.2,0.9-1.9,2-2.6,2.9l-0.1,0.1c-0.4,0.6-0.3,0.4-0.3,0.4c-0.5,0.7-0.9,1.3-1.3,2h0
		c-0.3,0.4-0.5,0.9-0.7,1.5c-0.2,0.5-0.4,1.1-0.5,1.8c-0.1,0.7-0.1,1.4,0,2.1c0.1,0.8,0.4,1.6,0.8,2.4c0.4,0.7,0.9,1.3,1.5,1.9
		c0.7,0.7,1.4,1.4,2,1.9c0.2,0.1,0.4,0.3,0.6,0.5c0.6,0.5,1.2,0.9,1.5,1.5c0.2,0.4,0.4,0.9,0.6,1.5c0.2,0.6,0.3,1.2,0.3,1.8
		c0,0.9-0.2,1.8-0.3,2.5l-0.1,0.5c-0.1,0.6-0.2,1.2-0.3,1.8c0,0.7,0,1.3,0.2,2c0.2,0.8,0.5,1.6,1,2.3c0.6,0.8,1.4,1.3,2.4,1.3
		C84.3,162.7,85.2,162.3,86.1,161.6L86.1,161.6z M92.4,46.4c2.1-0.3,4.2-0.3,6.4,0.2c2.1,0.4,4.2,1.2,6.1,2.5c2.8,1.7,4.9,4,6.4,6.5
		c1.5,2.6,2.3,5.5,2.3,8.4c0,1.1,0.9,1.9,1.9,1.9c0.3,0,0.6-0.1,0.9-0.2c2.6-1.3,5.5-1.9,8.5-1.7c2.4,0.1,4.7,0.8,7,1.9l-10.4,16.8
		c-0.6,0.9-0.3,2.1,0.6,2.7c0.9,0.6,2.1,0.3,2.7-0.6l10.4-16.8c2,1.5,3.6,3.4,4.8,5.4c1.5,2.6,2.3,5.5,2.3,8.4
		c0,1.1,0.9,1.9,1.9,1.9c0.3,0,0.6-0.1,0.9-0.2c2.6-1.3,5.5-1.9,8.5-1.7c2.9,0.2,5.9,1.1,8.7,2.8c2,1.2,3.6,2.7,4.9,4.4
		c1.4,1.7,2.4,3.6,3,5.6c0.3,1,1.4,1.6,2.4,1.3c0.6-0.2,1.1-0.7,1.3-1.2c4.2-10.2,4-21.6,0.2-32.1c-3.6-9.8-10.5-18.7-20.1-25.1
		l1.7-2.8c0.6-0.9,0.3-2.1-0.6-2.7c-0.9-0.6-2.1-0.3-2.7,0.6l-1.7,2.8c-10-5.7-21.1-7.9-31.4-6.7c-11.1,1.2-21.4,6.2-28.7,14.6
		c0,0-0.1,0.1-0.1,0.1l0,0l0,0l0,0l0,0l0,0l0,0l0,0l0,0l0,0c0,0,0,0.1-0.1,0.1l0,0l0,0l0,0l0,0v0l0,0l0,0l0,0
		c-0.1,0.3-0.2,0.6-0.1,1c0.1,0.5,0.4,1,0.8,1.2l0,0l0,0l0,0l0,0l0,0l0,0l0,0l0,0c0,0,0.1,0,0.1,0.1l0,0l0,0l0,0l0,0h0l0,0l0,0l0,0
		C91.7,46.5,92,46.5,92.4,46.4L92.4,46.4z M116.6,58.1c-0.5-1.6-1.1-3.1-2-4.5c-1.8-3.1-4.4-5.8-7.7-7.9c-2.4-1.5-4.8-2.4-7.4-3
		c-0.9-0.2-1.8-0.3-2.7-0.4c6.3-5.6,14.3-9,22.9-9.9c8.2-0.9,16.8,0.4,24.9,4.1c-5.2,0.9-10,3-14.5,6.2
		C125.2,46.4,120.6,51.6,116.6,58.1L116.6,58.1z M155.7,43.4c6.9,5.6,12,12.8,14.8,20.5c3,8.1,3.6,16.8,1.4,24.9
		c-0.5-0.8-1-1.5-1.6-2.2c-1.6-2-3.6-3.8-5.9-5.3c-3.3-2.1-6.9-3.2-10.5-3.4c-1.7-0.1-3.3,0-4.9,0.3c4.1-6.5,6.6-12.9,7.6-19
		C157.5,53.7,157.2,48.5,155.7,43.4L155.7,43.4z M145.5,76.5c-0.5-1.7-1.2-3.5-2.1-5.1c-1.8-3.1-4.4-5.8-7.7-7.9l0,0
		c-3.3-2.1-6.9-3.2-10.5-3.4c-1.9-0.1-3.7,0-5.5,0.4c3.8-6.3,8.1-11.2,12.8-14.6c5.3-3.8,11.2-5.8,17.8-6c2.8,5.9,3.6,12.1,2.6,18.6
		C151.9,64.2,149.4,70.2,145.5,76.5L145.5,76.5z M122.2,140.9c-2.1,4.3-5,8.2-8.3,11.6c0.3-1.6,0.6-3.1,1.1-4.4
		c0.5-1.4,1.1-2.8,1.7-4c0.5-1,1-2,1.3-3c0.4-1.1,0.6-2.2,0.7-3.2c0.1-1.2,0-2.3-0.1-3.3c-0.3-1.6-0.8-2.8-1.3-4
		c-0.2-0.5,0.1,0.2-0.2-0.3c-0.2-0.5-0.4-1-0.6-1.6c-0.2-0.5-0.3-1.1-0.4-1.7c-0.1-0.6-0.2-1.3-0.2-2c-0.1-0.8-0.1-1.6-0.1-2.5
		c0-0.9,0-1.8,0-2.7c0-0.8,0.1-1.6,0.2-2.4c0.2-0.8,0.4-1.6,0.7-2.3c0.2-0.6,0.4-1.1,0.6-1.8c0.2-0.8,0.3-1.5,0.3-2.2
		c0-0.8-0.1-1.5-0.2-2.2c-0.2-0.8-0.4-1.4-0.7-2c-0.1-0.3-0.3-0.6-0.4-0.9c-0.2-0.6-0.3-1.3-0.4-2.2c-0.1-0.4-0.1-0.6-0.1-0.7
		c-0.1-0.7-0.2-1.3-0.4-2c-0.2-0.8-0.6-1.5-1.1-2.2c-0.6-0.8-1.4-1.3-2.2-1.8c-0.3-0.2-0.6-0.4-0.9-0.6c-0.3-0.2-0.6-0.5-0.8-0.9
		c-0.2-0.3-0.4-0.6-0.5-1c-0.2-0.7-0.2-1.7-0.2-2.5c0-0.3,0-0.6,0-1.4c0-0.5,0-1-0.1-1.3c0-0.4-0.1-0.8-0.2-1.4
		c-0.1-0.5-0.2-1-0.3-1.8l-0.2-1.3c0.5,0.4,0.9,0.7,1.4,1.1c7.4,6,12.8,14.3,15.2,23.7l-3.2,0.9c-0.8,0.2-1.4,1-1.4,1.9h0v18
		C120.9,134.3,121.4,137.6,122.2,140.9L122.2,140.9z M171.6,155c-5.1,6.8-12.3,12-20.8,14.5c-0.4,0.1-0.7,0.1-1.1,0
		c-8.5-2.5-15.7-7.7-20.8-14.5c-2.1-2.8-3.8-5.8-5.1-9c-3.9,6.6-9.4,12.1-15.8,16.2c-7.5,4.7-16.4,7.5-25.9,7.5
		c-13.4,0-25.5-5.4-34.3-14.2c-8.8-8.8-14.2-20.9-14.2-34.3s5.4-25.5,14.2-34.3c8.8-8.8,20.9-14.2,34.3-14.2
		c11.6,0,22.2,4.1,30.5,10.8c8,6.5,13.9,15.4,16.5,25.7l20.5-5.9c0.3-0.1,0.7-0.1,1.1,0l27.2,7.9c0.9,0.2,1.6,1,1.6,1.9v18
		C179.6,139.7,176.7,148.2,171.6,155L171.6,155z M150.3,165.6c7.4-2.3,13.7-6.9,18.2-13c4.6-6.2,7.3-13.8,7.3-21.8v-16.6l-25.5-7.3
		l-25.5,7.3v16.6c0,8,2.7,15.6,7.3,21.8C136.5,158.6,142.8,163.3,150.3,165.6L150.3,165.6z M139.3,138.2l8,6.3
		c0.8,0.7,2.1,0.5,2.7-0.3l0,0l11.6-13.4c0.7-0.8,0.6-2-0.2-2.7c-0.8-0.7-2-0.6-2.7,0.2l-10.4,12l-6.6-5.2c-0.8-0.7-2.1-0.5-2.7,0.3
		C138.3,136.3,138.4,137.5,139.3,138.2L139.3,138.2z"/>
</g>
</svg>
