<?xml version="1.0" encoding="UTF-8"?>
<svg id="Layer_1" data-name="Layer 1" xmlns="http://www.w3.org/2000/svg" viewBox="0 0 205.66 205.66" fill="white">
  <path d="m97.54,38.54c-5.65,0-10.36,4.19-11.2,9.62-24.29,4.59-43.35,23.6-47.99,47.89-5.36.9-9.49,5.59-9.49,11.19s4.11,10.26,9.45,11.17c4.54,24.43,23.66,43.6,48.09,48.19.96,5.28,5.6,9.32,11.14,9.32s10.2-4.04,11.17-9.32c24.42-4.59,43.54-23.76,48.08-48.19,5.34-.91,9.45-5.58,9.45-11.17s-4.13-10.3-9.49-11.19c-4.64-24.28-23.7-43.29-47.99-47.89-.84-5.42-5.57-9.62-11.22-9.62Zm-.17,4.74c.06,0,.11,0,.17,0,3.66,0,6.58,2.9,6.61,6.55-.03.17-.03.35-.02.53-.24,3.45-3.07,6.14-6.59,6.14s-6.32-2.67-6.57-6.11c.02-.2,0-.39-.02-.59.05-3.58,2.86-6.43,6.42-6.52Zm-10.74,9.65c1.34,4.77,5.73,8.3,10.91,8.3s9.59-3.53,10.93-8.3c21.9,4.38,39.04,21.47,43.49,43.35-4.83,1.3-8.42,5.73-8.42,10.96s3.62,9.69,8.48,10.96c-4.36,21.97-21.52,39.17-43.48,43.6-1.25-4.91-5.72-8.58-11.01-8.58s-9.74,3.67-10.98,8.58c-21.96-4.42-39.12-21.63-43.48-43.6,4.86-1.28,8.48-5.72,8.48-10.96s-3.59-9.66-8.42-10.96c4.45-21.88,21.59-38.96,43.49-43.35Zm10.91,13.37c-15.46,0-28.97,8.47-36.13,21.01-.02.04-.05.08-.07.12-3.42,6.04-5.38,13.01-5.38,20.44,0,22.93,18.63,41.58,41.57,41.58,15.5,0,29.05-8.51,36.2-21.11,0,0,0-.01,0-.02,3.43-6.04,5.39-13.02,5.39-20.45s-1.95-14.37-5.36-20.4c-.07-.16-.16-.31-.26-.45-7.21-12.39-20.64-20.73-35.98-20.73h0Zm0,4.74c1.62,0,3.27.73,5,2.41,1.73,1.68,3.46,4.3,4.91,7.64.66,1.51,1.27,3.18,1.81,4.96h-23.42c.54-1.78,1.15-3.45,1.8-4.96,1.46-3.35,3.18-5.96,4.91-7.64,1.73-1.68,3.36-2.41,4.98-2.41Zm-10.46,1.5c-1.42,1.89-2.67,4.14-3.77,6.67-.91,2.09-1.72,4.39-2.41,6.85h-13.06c4.7-6.4,11.42-11.21,19.23-13.52Zm20.96,0c7.8,2.31,14.52,7.12,19.22,13.51h-13.05c-.69-2.46-1.49-4.76-2.41-6.85-1.1-2.52-2.35-4.76-3.76-6.66h0Zm-43.15,18.24h14.88c-.92,4.53-1.48,9.49-1.61,14.71h-17.37c.34-5.28,1.78-10.26,4.1-14.71Zm19.73,0h25.88c.97,4.45,1.58,9.43,1.72,14.71h-29.32c.14-5.28.75-10.26,1.72-14.71Zm30.73,0h14.88c2.33,4.44,3.77,9.42,4.1,14.71h-17.37c-.13-5.22-.69-10.17-1.61-14.71Zm-75.3,9.83c.06,0,.11,0,.17,0,3.68,0,6.61,2.93,6.61,6.61s-2.93,6.59-6.61,6.59-6.61-2.92-6.61-6.59,2.84-6.52,6.43-6.61Zm114.68,0c.06,0,.11,0,.17,0,3.68,0,6.61,2.93,6.61,6.61s-2.93,6.59-6.61,6.59-6.61-2.92-6.61-6.59,2.77-6.43,6.29-6.6c.05,0,.1,0,.15,0Zm-93.94,9.61h17.37c.13,5.22.69,10.18,1.61,14.71h-14.89c-2.32-4.44-3.77-9.42-4.1-14.71Zm22.11,0h29.32c-.14,5.28-.75,10.26-1.72,14.71h-25.88c-.97-4.44-1.58-9.42-1.72-14.71Zm34.06,0h17.37c-.33,5.28-1.78,10.26-4.1,14.71h-14.88c.92-4.53,1.48-9.49,1.61-14.71Zm-49.12,19.44h13.08c.69,2.46,1.49,4.76,2.41,6.86,1.1,2.54,2.36,4.79,3.78,6.68-7.83-2.3-14.56-7.13-19.27-13.54Zm18.01,0h23.42c-.54,1.78-1.15,3.45-1.81,4.96-1.46,3.35-3.18,5.98-4.91,7.66-1.73,1.68-3.38,2.41-5,2.41s-3.25-.73-4.98-2.41c-1.73-1.68-3.46-4.32-4.91-7.66-.66-1.51-1.26-3.18-1.8-4.96Zm28.36,0h13.07c-4.71,6.4-11.43,11.23-19.25,13.53,1.42-1.9,2.68-4.14,3.78-6.68.91-2.09,1.72-4.4,2.41-6.86Zm-16.83,28.27c.06,0,.11,0,.17,0,3.68,0,6.61,2.93,6.61,6.61s-2.93,6.61-6.61,6.61-6.59-2.93-6.59-6.61,2.83-6.52,6.42-6.61Z"/>
</svg>