<?xml version="1.0" encoding="UTF-8"?>
<svg id="Layer_1" data-name="Layer 1" xmlns="http://www.w3.org/2000/svg" viewBox="0 0 205.66 205.66" fill="white">
  <path d="m162.08,176.59h-67.88c-1.24,0-2.24-.99-2.24-2.24V62.68c0-1.24.99-2.24,2.24-2.24h67.91c1.24,0,2.24.99,2.24,2.24v111.68c-.02,1.24-1.01,2.24-2.26,2.24h0Zm-65.65-4.47h63.43v-107.21h-63.43v107.21Z"/>
  <path d="m149.59,83.86h-42.9c-1.24,0-2.24-.99-2.24-2.24v-8.18c0-1.24.99-2.24,2.24-2.24h42.9c1.24,0,2.24.99,2.24,2.24v8.18c0,1.24-.99,2.24-2.24,2.24Zm-40.66-4.47h38.45v-3.71h-38.45v3.71Z"/>
  <path d="m149.59,111.17h-42.9c-1.24,0-2.24-.99-2.24-2.24v-8.18c0-1.24.99-2.24,2.24-2.24h42.9c1.24,0,2.24.99,2.24,2.24v8.18c0,1.24-.99,2.24-2.24,2.24Zm-40.66-4.47h38.45v-3.71h-38.45v3.71Z"/>
  <path d="m149.59,138.49h-42.9c-1.24,0-2.24-.99-2.24-2.24v-8.18c0-1.24.99-2.24,2.24-2.24h42.9c1.24,0,2.24.99,2.24,2.24v8.18c0,1.24-.99,2.24-2.24,2.24Zm-40.66-4.47h38.45v-3.71h-38.45v3.71Z"/>
  <path d="m149.59,165.8h-42.9c-1.24,0-2.24-.99-2.24-2.24v-8.18c0-1.24.99-2.24,2.24-2.24h42.9c1.24,0,2.24.99,2.24,2.24v8.18c0,1.24-.99,2.24-2.24,2.24Zm-40.66-4.47h38.45v-3.71h-38.45v3.71Z"/>
  <path d="m94.2,176.59h-50.64c-1.24,0-2.24-.99-2.24-2.24v-72.77c0-.88.51-1.68,1.31-2.03l50.64-23c1.13-.51,2.44-.02,2.95,1.11s.02,2.44-1.11,2.95l-49.33,22.41v69.08h48.4c1.24,0,2.24.99,2.24,2.24s-1.01,2.26-2.24,2.26h0Z"/>
  <path d="m83.43,176.59h-11.36c-1.24,0-2.24-.99-2.24-2.24v-60.67c0-1.24.99-2.24,2.24-2.24h11.36c1.24,0,2.24.99,2.24,2.24v60.67c0,1.24-1.01,2.24-2.24,2.24Zm-9.13-4.47h6.89v-56.2h-6.89v56.2Z"/>
  <path d="m64.19,176.59h-11.36c-1.24,0-2.24-.99-2.24-2.24v-51.38c0-1.24.99-2.24,2.24-2.24h11.36c1.24,0,2.24.99,2.24,2.24v51.38c0,1.24-.99,2.24-2.24,2.24Zm-9.1-4.47h6.89v-46.91h-6.89v46.91Z"/>
  <path d="m137.53,64.91c-.9,0-1.75-.55-2.07-1.43-.44-1.15.12-2.44,1.27-2.88,11.46-4.43,19.11-14.87,19.98-26.97-7.54.55-14.52,3.73-19.87,9.13-2.81,2.81-5.02,6.09-6.64,9.75-.48,1.13-1.8,1.66-2.95,1.15-1.13-.48-1.64-1.82-1.15-2.95,1.82-4.2,4.38-7.93,7.58-11.13,6.73-6.78,15.72-10.51,25.33-10.51,1.24,0,2.24.99,2.24,2.24,0,14.94-8.99,28.07-22.91,33.47-.28.09-.53.14-.81.14h0Z"/>
  <path d="m118.75,64.91c-.28,0-.55-.05-.81-.16-4.66-1.82-8.81-4.54-12.35-8.09-6.78-6.75-10.51-15.74-10.51-25.36-.02-1.24.97-2.24,2.21-2.24,14.31,0,27.22,8.51,32.89,21.64,1.61,3.73,2.58,7.7,2.86,11.8.09,1.22-.85,2.31-2.07,2.37-1.2.12-2.31-.85-2.37-2.07-.23-3.6-1.08-7.08-2.49-10.35-4.66-10.79-14.89-18-26.48-18.85.55,7.54,3.73,14.52,9.13,19.87,3.13,3.13,6.78,5.51,10.83,7.1,1.15.46,1.73,1.75,1.27,2.9-.37.9-1.22,1.43-2.1,1.43h0Z"/>
</svg>